G75*
%MOIN*%
%OFA0B0*%
%FSLAX25Y25*%
%IPPOS*%
%LPD*%
%AMOC8*
5,1,8,0,0,1.08239X$1,22.5*
%
%ADD10C,0.00000*%
%ADD11C,0.00039*%
%ADD12C,0.00800*%
%ADD13C,0.00200*%
%ADD14C,0.00500*%
%ADD15R,0.01400X0.03300*%
%ADD16C,0.00197*%
D10*
X0073943Y0027191D02*
X0216659Y0027191D01*
X0178274Y0119711D02*
X0178317Y0122928D01*
X0178438Y0126143D01*
X0178637Y0129354D01*
X0178915Y0132559D01*
X0179271Y0135756D01*
X0179705Y0138944D01*
X0180216Y0142120D01*
X0180805Y0145283D01*
X0181471Y0148431D01*
X0182214Y0151561D01*
X0183032Y0154672D01*
X0183927Y0157763D01*
X0184896Y0160830D01*
X0185941Y0163873D01*
X0187059Y0166890D01*
X0188250Y0169878D01*
X0189514Y0172837D01*
X0190850Y0175764D01*
X0192257Y0178657D01*
X0193734Y0181515D01*
X0195280Y0184336D01*
X0196895Y0187119D01*
X0198577Y0189861D01*
X0200326Y0192562D01*
X0202140Y0195219D01*
X0204018Y0197831D01*
X0205960Y0200396D01*
X0207964Y0202913D01*
X0210028Y0205381D01*
X0212152Y0207797D01*
X0214334Y0210161D01*
X0216574Y0212471D01*
X0218869Y0214725D01*
X0221219Y0216923D01*
X0223621Y0219063D01*
X0226075Y0221143D01*
X0228579Y0223163D01*
X0231131Y0225121D01*
X0233731Y0227017D01*
X0236376Y0228848D01*
X0239065Y0230615D01*
X0241796Y0232315D01*
X0244568Y0233948D01*
X0247379Y0235512D01*
X0250228Y0237008D01*
X0253112Y0238434D01*
X0256030Y0239789D01*
X0256029Y0239789D02*
X0034572Y0239789D01*
X0112328Y0119710D02*
X0112279Y0116500D01*
X0112151Y0113291D01*
X0111945Y0110087D01*
X0111661Y0106888D01*
X0111299Y0103698D01*
X0110860Y0100517D01*
X0110343Y0097348D01*
X0109749Y0094193D01*
X0109078Y0091053D01*
X0108331Y0087930D01*
X0107508Y0084826D01*
X0106610Y0081743D01*
X0105637Y0078684D01*
X0104589Y0075648D01*
X0103468Y0072639D01*
X0102273Y0069659D01*
X0101007Y0066708D01*
X0099669Y0063789D01*
X0098260Y0060904D01*
X0096781Y0058054D01*
X0095233Y0055241D01*
X0093617Y0052466D01*
X0091934Y0049731D01*
X0090185Y0047039D01*
X0088371Y0044390D01*
X0086492Y0041785D01*
X0084551Y0039228D01*
X0082548Y0036718D01*
X0080484Y0034258D01*
X0078361Y0031849D01*
X0076180Y0029493D01*
X0073942Y0027190D01*
X0112328Y0119711D02*
X0112285Y0122928D01*
X0112164Y0126143D01*
X0111965Y0129354D01*
X0111687Y0132559D01*
X0111331Y0135756D01*
X0110897Y0138944D01*
X0110386Y0142120D01*
X0109797Y0145283D01*
X0109131Y0148431D01*
X0108388Y0151561D01*
X0107570Y0154672D01*
X0106675Y0157763D01*
X0105706Y0160830D01*
X0104661Y0163873D01*
X0103543Y0166890D01*
X0102352Y0169878D01*
X0101088Y0172837D01*
X0099752Y0175764D01*
X0098345Y0178657D01*
X0096868Y0181515D01*
X0095322Y0184336D01*
X0093707Y0187119D01*
X0092025Y0189861D01*
X0090276Y0192562D01*
X0088462Y0195219D01*
X0086584Y0197831D01*
X0084642Y0200396D01*
X0082638Y0202913D01*
X0080574Y0205381D01*
X0078450Y0207797D01*
X0076268Y0210161D01*
X0074028Y0212471D01*
X0071733Y0214725D01*
X0069383Y0216923D01*
X0066981Y0219063D01*
X0064527Y0221143D01*
X0062023Y0223163D01*
X0059471Y0225121D01*
X0056871Y0227017D01*
X0054226Y0228848D01*
X0051537Y0230615D01*
X0048806Y0232315D01*
X0046034Y0233948D01*
X0043223Y0235512D01*
X0040374Y0237008D01*
X0037490Y0238434D01*
X0034572Y0239789D01*
X0178273Y0119710D02*
X0178322Y0116500D01*
X0178450Y0113291D01*
X0178656Y0110087D01*
X0178940Y0106888D01*
X0179302Y0103698D01*
X0179741Y0100517D01*
X0180258Y0097348D01*
X0180852Y0094193D01*
X0181523Y0091053D01*
X0182270Y0087930D01*
X0183093Y0084826D01*
X0183991Y0081743D01*
X0184964Y0078684D01*
X0186012Y0075648D01*
X0187133Y0072639D01*
X0188328Y0069659D01*
X0189594Y0066708D01*
X0190932Y0063789D01*
X0192341Y0060904D01*
X0193820Y0058054D01*
X0195368Y0055241D01*
X0196984Y0052466D01*
X0198667Y0049731D01*
X0200416Y0047039D01*
X0202230Y0044390D01*
X0204109Y0041785D01*
X0206050Y0039228D01*
X0208053Y0036718D01*
X0210117Y0034258D01*
X0212240Y0031849D01*
X0214421Y0029493D01*
X0216659Y0027190D01*
D11*
X0186836Y0039002D02*
X0186838Y0039142D01*
X0186844Y0039282D01*
X0186854Y0039421D01*
X0186868Y0039560D01*
X0186886Y0039699D01*
X0186907Y0039837D01*
X0186933Y0039975D01*
X0186963Y0040112D01*
X0186996Y0040247D01*
X0187034Y0040382D01*
X0187075Y0040516D01*
X0187120Y0040649D01*
X0187168Y0040780D01*
X0187221Y0040909D01*
X0187277Y0041038D01*
X0187336Y0041164D01*
X0187400Y0041289D01*
X0187466Y0041412D01*
X0187537Y0041533D01*
X0187610Y0041652D01*
X0187687Y0041769D01*
X0187768Y0041883D01*
X0187851Y0041995D01*
X0187938Y0042105D01*
X0188028Y0042213D01*
X0188120Y0042317D01*
X0188216Y0042419D01*
X0188315Y0042519D01*
X0188416Y0042615D01*
X0188520Y0042709D01*
X0188627Y0042799D01*
X0188736Y0042886D01*
X0188848Y0042971D01*
X0188962Y0043052D01*
X0189078Y0043130D01*
X0189196Y0043204D01*
X0189317Y0043275D01*
X0189439Y0043343D01*
X0189564Y0043407D01*
X0189690Y0043468D01*
X0189817Y0043525D01*
X0189947Y0043578D01*
X0190078Y0043628D01*
X0190210Y0043673D01*
X0190343Y0043716D01*
X0190478Y0043754D01*
X0190613Y0043788D01*
X0190750Y0043819D01*
X0190887Y0043846D01*
X0191025Y0043868D01*
X0191164Y0043887D01*
X0191303Y0043902D01*
X0191442Y0043913D01*
X0191582Y0043920D01*
X0191722Y0043923D01*
X0191862Y0043922D01*
X0192002Y0043917D01*
X0192141Y0043908D01*
X0192281Y0043895D01*
X0192420Y0043878D01*
X0192558Y0043857D01*
X0192696Y0043833D01*
X0192833Y0043804D01*
X0192969Y0043772D01*
X0193104Y0043735D01*
X0193238Y0043695D01*
X0193371Y0043651D01*
X0193502Y0043603D01*
X0193632Y0043552D01*
X0193761Y0043497D01*
X0193888Y0043438D01*
X0194013Y0043375D01*
X0194136Y0043310D01*
X0194258Y0043240D01*
X0194377Y0043167D01*
X0194495Y0043091D01*
X0194610Y0043012D01*
X0194723Y0042929D01*
X0194833Y0042843D01*
X0194941Y0042754D01*
X0195046Y0042662D01*
X0195149Y0042567D01*
X0195249Y0042469D01*
X0195346Y0042369D01*
X0195440Y0042265D01*
X0195532Y0042159D01*
X0195620Y0042051D01*
X0195705Y0041940D01*
X0195787Y0041826D01*
X0195866Y0041710D01*
X0195941Y0041593D01*
X0196013Y0041473D01*
X0196081Y0041351D01*
X0196146Y0041227D01*
X0196208Y0041101D01*
X0196266Y0040974D01*
X0196320Y0040845D01*
X0196371Y0040714D01*
X0196417Y0040582D01*
X0196460Y0040449D01*
X0196500Y0040315D01*
X0196535Y0040180D01*
X0196567Y0040043D01*
X0196594Y0039906D01*
X0196618Y0039768D01*
X0196638Y0039630D01*
X0196654Y0039491D01*
X0196666Y0039351D01*
X0196674Y0039212D01*
X0196678Y0039072D01*
X0196678Y0038932D01*
X0196674Y0038792D01*
X0196666Y0038653D01*
X0196654Y0038513D01*
X0196638Y0038374D01*
X0196618Y0038236D01*
X0196594Y0038098D01*
X0196567Y0037961D01*
X0196535Y0037824D01*
X0196500Y0037689D01*
X0196460Y0037555D01*
X0196417Y0037422D01*
X0196371Y0037290D01*
X0196320Y0037159D01*
X0196266Y0037030D01*
X0196208Y0036903D01*
X0196146Y0036777D01*
X0196081Y0036653D01*
X0196013Y0036531D01*
X0195941Y0036411D01*
X0195866Y0036294D01*
X0195787Y0036178D01*
X0195705Y0036064D01*
X0195620Y0035953D01*
X0195532Y0035845D01*
X0195440Y0035739D01*
X0195346Y0035635D01*
X0195249Y0035535D01*
X0195149Y0035437D01*
X0195046Y0035342D01*
X0194941Y0035250D01*
X0194833Y0035161D01*
X0194723Y0035075D01*
X0194610Y0034992D01*
X0194495Y0034913D01*
X0194377Y0034837D01*
X0194258Y0034764D01*
X0194136Y0034694D01*
X0194013Y0034629D01*
X0193888Y0034566D01*
X0193761Y0034507D01*
X0193632Y0034452D01*
X0193502Y0034401D01*
X0193371Y0034353D01*
X0193238Y0034309D01*
X0193104Y0034269D01*
X0192969Y0034232D01*
X0192833Y0034200D01*
X0192696Y0034171D01*
X0192558Y0034147D01*
X0192420Y0034126D01*
X0192281Y0034109D01*
X0192141Y0034096D01*
X0192002Y0034087D01*
X0191862Y0034082D01*
X0191722Y0034081D01*
X0191582Y0034084D01*
X0191442Y0034091D01*
X0191303Y0034102D01*
X0191164Y0034117D01*
X0191025Y0034136D01*
X0190887Y0034158D01*
X0190750Y0034185D01*
X0190613Y0034216D01*
X0190478Y0034250D01*
X0190343Y0034288D01*
X0190210Y0034331D01*
X0190078Y0034376D01*
X0189947Y0034426D01*
X0189817Y0034479D01*
X0189690Y0034536D01*
X0189564Y0034597D01*
X0189439Y0034661D01*
X0189317Y0034729D01*
X0189196Y0034800D01*
X0189078Y0034874D01*
X0188962Y0034952D01*
X0188848Y0035033D01*
X0188736Y0035118D01*
X0188627Y0035205D01*
X0188520Y0035295D01*
X0188416Y0035389D01*
X0188315Y0035485D01*
X0188216Y0035585D01*
X0188120Y0035687D01*
X0188028Y0035791D01*
X0187938Y0035899D01*
X0187851Y0036009D01*
X0187768Y0036121D01*
X0187687Y0036235D01*
X0187610Y0036352D01*
X0187537Y0036471D01*
X0187466Y0036592D01*
X0187400Y0036715D01*
X0187336Y0036840D01*
X0187277Y0036966D01*
X0187221Y0037095D01*
X0187168Y0037224D01*
X0187120Y0037355D01*
X0187075Y0037488D01*
X0187034Y0037622D01*
X0186996Y0037757D01*
X0186963Y0037892D01*
X0186933Y0038029D01*
X0186907Y0038167D01*
X0186886Y0038305D01*
X0186868Y0038444D01*
X0186854Y0038583D01*
X0186844Y0038722D01*
X0186838Y0038862D01*
X0186836Y0039002D01*
X0093923Y0039002D02*
X0093925Y0039142D01*
X0093931Y0039282D01*
X0093941Y0039421D01*
X0093955Y0039560D01*
X0093973Y0039699D01*
X0093994Y0039837D01*
X0094020Y0039975D01*
X0094050Y0040112D01*
X0094083Y0040247D01*
X0094121Y0040382D01*
X0094162Y0040516D01*
X0094207Y0040649D01*
X0094255Y0040780D01*
X0094308Y0040909D01*
X0094364Y0041038D01*
X0094423Y0041164D01*
X0094487Y0041289D01*
X0094553Y0041412D01*
X0094624Y0041533D01*
X0094697Y0041652D01*
X0094774Y0041769D01*
X0094855Y0041883D01*
X0094938Y0041995D01*
X0095025Y0042105D01*
X0095115Y0042213D01*
X0095207Y0042317D01*
X0095303Y0042419D01*
X0095402Y0042519D01*
X0095503Y0042615D01*
X0095607Y0042709D01*
X0095714Y0042799D01*
X0095823Y0042886D01*
X0095935Y0042971D01*
X0096049Y0043052D01*
X0096165Y0043130D01*
X0096283Y0043204D01*
X0096404Y0043275D01*
X0096526Y0043343D01*
X0096651Y0043407D01*
X0096777Y0043468D01*
X0096904Y0043525D01*
X0097034Y0043578D01*
X0097165Y0043628D01*
X0097297Y0043673D01*
X0097430Y0043716D01*
X0097565Y0043754D01*
X0097700Y0043788D01*
X0097837Y0043819D01*
X0097974Y0043846D01*
X0098112Y0043868D01*
X0098251Y0043887D01*
X0098390Y0043902D01*
X0098529Y0043913D01*
X0098669Y0043920D01*
X0098809Y0043923D01*
X0098949Y0043922D01*
X0099089Y0043917D01*
X0099228Y0043908D01*
X0099368Y0043895D01*
X0099507Y0043878D01*
X0099645Y0043857D01*
X0099783Y0043833D01*
X0099920Y0043804D01*
X0100056Y0043772D01*
X0100191Y0043735D01*
X0100325Y0043695D01*
X0100458Y0043651D01*
X0100589Y0043603D01*
X0100719Y0043552D01*
X0100848Y0043497D01*
X0100975Y0043438D01*
X0101100Y0043375D01*
X0101223Y0043310D01*
X0101345Y0043240D01*
X0101464Y0043167D01*
X0101582Y0043091D01*
X0101697Y0043012D01*
X0101810Y0042929D01*
X0101920Y0042843D01*
X0102028Y0042754D01*
X0102133Y0042662D01*
X0102236Y0042567D01*
X0102336Y0042469D01*
X0102433Y0042369D01*
X0102527Y0042265D01*
X0102619Y0042159D01*
X0102707Y0042051D01*
X0102792Y0041940D01*
X0102874Y0041826D01*
X0102953Y0041710D01*
X0103028Y0041593D01*
X0103100Y0041473D01*
X0103168Y0041351D01*
X0103233Y0041227D01*
X0103295Y0041101D01*
X0103353Y0040974D01*
X0103407Y0040845D01*
X0103458Y0040714D01*
X0103504Y0040582D01*
X0103547Y0040449D01*
X0103587Y0040315D01*
X0103622Y0040180D01*
X0103654Y0040043D01*
X0103681Y0039906D01*
X0103705Y0039768D01*
X0103725Y0039630D01*
X0103741Y0039491D01*
X0103753Y0039351D01*
X0103761Y0039212D01*
X0103765Y0039072D01*
X0103765Y0038932D01*
X0103761Y0038792D01*
X0103753Y0038653D01*
X0103741Y0038513D01*
X0103725Y0038374D01*
X0103705Y0038236D01*
X0103681Y0038098D01*
X0103654Y0037961D01*
X0103622Y0037824D01*
X0103587Y0037689D01*
X0103547Y0037555D01*
X0103504Y0037422D01*
X0103458Y0037290D01*
X0103407Y0037159D01*
X0103353Y0037030D01*
X0103295Y0036903D01*
X0103233Y0036777D01*
X0103168Y0036653D01*
X0103100Y0036531D01*
X0103028Y0036411D01*
X0102953Y0036294D01*
X0102874Y0036178D01*
X0102792Y0036064D01*
X0102707Y0035953D01*
X0102619Y0035845D01*
X0102527Y0035739D01*
X0102433Y0035635D01*
X0102336Y0035535D01*
X0102236Y0035437D01*
X0102133Y0035342D01*
X0102028Y0035250D01*
X0101920Y0035161D01*
X0101810Y0035075D01*
X0101697Y0034992D01*
X0101582Y0034913D01*
X0101464Y0034837D01*
X0101345Y0034764D01*
X0101223Y0034694D01*
X0101100Y0034629D01*
X0100975Y0034566D01*
X0100848Y0034507D01*
X0100719Y0034452D01*
X0100589Y0034401D01*
X0100458Y0034353D01*
X0100325Y0034309D01*
X0100191Y0034269D01*
X0100056Y0034232D01*
X0099920Y0034200D01*
X0099783Y0034171D01*
X0099645Y0034147D01*
X0099507Y0034126D01*
X0099368Y0034109D01*
X0099228Y0034096D01*
X0099089Y0034087D01*
X0098949Y0034082D01*
X0098809Y0034081D01*
X0098669Y0034084D01*
X0098529Y0034091D01*
X0098390Y0034102D01*
X0098251Y0034117D01*
X0098112Y0034136D01*
X0097974Y0034158D01*
X0097837Y0034185D01*
X0097700Y0034216D01*
X0097565Y0034250D01*
X0097430Y0034288D01*
X0097297Y0034331D01*
X0097165Y0034376D01*
X0097034Y0034426D01*
X0096904Y0034479D01*
X0096777Y0034536D01*
X0096651Y0034597D01*
X0096526Y0034661D01*
X0096404Y0034729D01*
X0096283Y0034800D01*
X0096165Y0034874D01*
X0096049Y0034952D01*
X0095935Y0035033D01*
X0095823Y0035118D01*
X0095714Y0035205D01*
X0095607Y0035295D01*
X0095503Y0035389D01*
X0095402Y0035485D01*
X0095303Y0035585D01*
X0095207Y0035687D01*
X0095115Y0035791D01*
X0095025Y0035899D01*
X0094938Y0036009D01*
X0094855Y0036121D01*
X0094774Y0036235D01*
X0094697Y0036352D01*
X0094624Y0036471D01*
X0094553Y0036592D01*
X0094487Y0036715D01*
X0094423Y0036840D01*
X0094364Y0036966D01*
X0094308Y0037095D01*
X0094255Y0037224D01*
X0094207Y0037355D01*
X0094162Y0037488D01*
X0094121Y0037622D01*
X0094083Y0037757D01*
X0094050Y0037892D01*
X0094020Y0038029D01*
X0093994Y0038167D01*
X0093973Y0038305D01*
X0093955Y0038444D01*
X0093941Y0038583D01*
X0093931Y0038722D01*
X0093925Y0038862D01*
X0093923Y0039002D01*
X0093923Y0194750D02*
X0093925Y0194890D01*
X0093931Y0195030D01*
X0093941Y0195169D01*
X0093955Y0195308D01*
X0093973Y0195447D01*
X0093994Y0195585D01*
X0094020Y0195723D01*
X0094050Y0195860D01*
X0094083Y0195995D01*
X0094121Y0196130D01*
X0094162Y0196264D01*
X0094207Y0196397D01*
X0094255Y0196528D01*
X0094308Y0196657D01*
X0094364Y0196786D01*
X0094423Y0196912D01*
X0094487Y0197037D01*
X0094553Y0197160D01*
X0094624Y0197281D01*
X0094697Y0197400D01*
X0094774Y0197517D01*
X0094855Y0197631D01*
X0094938Y0197743D01*
X0095025Y0197853D01*
X0095115Y0197961D01*
X0095207Y0198065D01*
X0095303Y0198167D01*
X0095402Y0198267D01*
X0095503Y0198363D01*
X0095607Y0198457D01*
X0095714Y0198547D01*
X0095823Y0198634D01*
X0095935Y0198719D01*
X0096049Y0198800D01*
X0096165Y0198878D01*
X0096283Y0198952D01*
X0096404Y0199023D01*
X0096526Y0199091D01*
X0096651Y0199155D01*
X0096777Y0199216D01*
X0096904Y0199273D01*
X0097034Y0199326D01*
X0097165Y0199376D01*
X0097297Y0199421D01*
X0097430Y0199464D01*
X0097565Y0199502D01*
X0097700Y0199536D01*
X0097837Y0199567D01*
X0097974Y0199594D01*
X0098112Y0199616D01*
X0098251Y0199635D01*
X0098390Y0199650D01*
X0098529Y0199661D01*
X0098669Y0199668D01*
X0098809Y0199671D01*
X0098949Y0199670D01*
X0099089Y0199665D01*
X0099228Y0199656D01*
X0099368Y0199643D01*
X0099507Y0199626D01*
X0099645Y0199605D01*
X0099783Y0199581D01*
X0099920Y0199552D01*
X0100056Y0199520D01*
X0100191Y0199483D01*
X0100325Y0199443D01*
X0100458Y0199399D01*
X0100589Y0199351D01*
X0100719Y0199300D01*
X0100848Y0199245D01*
X0100975Y0199186D01*
X0101100Y0199123D01*
X0101223Y0199058D01*
X0101345Y0198988D01*
X0101464Y0198915D01*
X0101582Y0198839D01*
X0101697Y0198760D01*
X0101810Y0198677D01*
X0101920Y0198591D01*
X0102028Y0198502D01*
X0102133Y0198410D01*
X0102236Y0198315D01*
X0102336Y0198217D01*
X0102433Y0198117D01*
X0102527Y0198013D01*
X0102619Y0197907D01*
X0102707Y0197799D01*
X0102792Y0197688D01*
X0102874Y0197574D01*
X0102953Y0197458D01*
X0103028Y0197341D01*
X0103100Y0197221D01*
X0103168Y0197099D01*
X0103233Y0196975D01*
X0103295Y0196849D01*
X0103353Y0196722D01*
X0103407Y0196593D01*
X0103458Y0196462D01*
X0103504Y0196330D01*
X0103547Y0196197D01*
X0103587Y0196063D01*
X0103622Y0195928D01*
X0103654Y0195791D01*
X0103681Y0195654D01*
X0103705Y0195516D01*
X0103725Y0195378D01*
X0103741Y0195239D01*
X0103753Y0195099D01*
X0103761Y0194960D01*
X0103765Y0194820D01*
X0103765Y0194680D01*
X0103761Y0194540D01*
X0103753Y0194401D01*
X0103741Y0194261D01*
X0103725Y0194122D01*
X0103705Y0193984D01*
X0103681Y0193846D01*
X0103654Y0193709D01*
X0103622Y0193572D01*
X0103587Y0193437D01*
X0103547Y0193303D01*
X0103504Y0193170D01*
X0103458Y0193038D01*
X0103407Y0192907D01*
X0103353Y0192778D01*
X0103295Y0192651D01*
X0103233Y0192525D01*
X0103168Y0192401D01*
X0103100Y0192279D01*
X0103028Y0192159D01*
X0102953Y0192042D01*
X0102874Y0191926D01*
X0102792Y0191812D01*
X0102707Y0191701D01*
X0102619Y0191593D01*
X0102527Y0191487D01*
X0102433Y0191383D01*
X0102336Y0191283D01*
X0102236Y0191185D01*
X0102133Y0191090D01*
X0102028Y0190998D01*
X0101920Y0190909D01*
X0101810Y0190823D01*
X0101697Y0190740D01*
X0101582Y0190661D01*
X0101464Y0190585D01*
X0101345Y0190512D01*
X0101223Y0190442D01*
X0101100Y0190377D01*
X0100975Y0190314D01*
X0100848Y0190255D01*
X0100719Y0190200D01*
X0100589Y0190149D01*
X0100458Y0190101D01*
X0100325Y0190057D01*
X0100191Y0190017D01*
X0100056Y0189980D01*
X0099920Y0189948D01*
X0099783Y0189919D01*
X0099645Y0189895D01*
X0099507Y0189874D01*
X0099368Y0189857D01*
X0099228Y0189844D01*
X0099089Y0189835D01*
X0098949Y0189830D01*
X0098809Y0189829D01*
X0098669Y0189832D01*
X0098529Y0189839D01*
X0098390Y0189850D01*
X0098251Y0189865D01*
X0098112Y0189884D01*
X0097974Y0189906D01*
X0097837Y0189933D01*
X0097700Y0189964D01*
X0097565Y0189998D01*
X0097430Y0190036D01*
X0097297Y0190079D01*
X0097165Y0190124D01*
X0097034Y0190174D01*
X0096904Y0190227D01*
X0096777Y0190284D01*
X0096651Y0190345D01*
X0096526Y0190409D01*
X0096404Y0190477D01*
X0096283Y0190548D01*
X0096165Y0190622D01*
X0096049Y0190700D01*
X0095935Y0190781D01*
X0095823Y0190866D01*
X0095714Y0190953D01*
X0095607Y0191043D01*
X0095503Y0191137D01*
X0095402Y0191233D01*
X0095303Y0191333D01*
X0095207Y0191435D01*
X0095115Y0191539D01*
X0095025Y0191647D01*
X0094938Y0191757D01*
X0094855Y0191869D01*
X0094774Y0191983D01*
X0094697Y0192100D01*
X0094624Y0192219D01*
X0094553Y0192340D01*
X0094487Y0192463D01*
X0094423Y0192588D01*
X0094364Y0192714D01*
X0094308Y0192843D01*
X0094255Y0192972D01*
X0094207Y0193103D01*
X0094162Y0193236D01*
X0094121Y0193370D01*
X0094083Y0193505D01*
X0094050Y0193640D01*
X0094020Y0193777D01*
X0093994Y0193915D01*
X0093973Y0194053D01*
X0093955Y0194192D01*
X0093941Y0194331D01*
X0093931Y0194470D01*
X0093925Y0194610D01*
X0093923Y0194750D01*
X0186836Y0194750D02*
X0186838Y0194890D01*
X0186844Y0195030D01*
X0186854Y0195169D01*
X0186868Y0195308D01*
X0186886Y0195447D01*
X0186907Y0195585D01*
X0186933Y0195723D01*
X0186963Y0195860D01*
X0186996Y0195995D01*
X0187034Y0196130D01*
X0187075Y0196264D01*
X0187120Y0196397D01*
X0187168Y0196528D01*
X0187221Y0196657D01*
X0187277Y0196786D01*
X0187336Y0196912D01*
X0187400Y0197037D01*
X0187466Y0197160D01*
X0187537Y0197281D01*
X0187610Y0197400D01*
X0187687Y0197517D01*
X0187768Y0197631D01*
X0187851Y0197743D01*
X0187938Y0197853D01*
X0188028Y0197961D01*
X0188120Y0198065D01*
X0188216Y0198167D01*
X0188315Y0198267D01*
X0188416Y0198363D01*
X0188520Y0198457D01*
X0188627Y0198547D01*
X0188736Y0198634D01*
X0188848Y0198719D01*
X0188962Y0198800D01*
X0189078Y0198878D01*
X0189196Y0198952D01*
X0189317Y0199023D01*
X0189439Y0199091D01*
X0189564Y0199155D01*
X0189690Y0199216D01*
X0189817Y0199273D01*
X0189947Y0199326D01*
X0190078Y0199376D01*
X0190210Y0199421D01*
X0190343Y0199464D01*
X0190478Y0199502D01*
X0190613Y0199536D01*
X0190750Y0199567D01*
X0190887Y0199594D01*
X0191025Y0199616D01*
X0191164Y0199635D01*
X0191303Y0199650D01*
X0191442Y0199661D01*
X0191582Y0199668D01*
X0191722Y0199671D01*
X0191862Y0199670D01*
X0192002Y0199665D01*
X0192141Y0199656D01*
X0192281Y0199643D01*
X0192420Y0199626D01*
X0192558Y0199605D01*
X0192696Y0199581D01*
X0192833Y0199552D01*
X0192969Y0199520D01*
X0193104Y0199483D01*
X0193238Y0199443D01*
X0193371Y0199399D01*
X0193502Y0199351D01*
X0193632Y0199300D01*
X0193761Y0199245D01*
X0193888Y0199186D01*
X0194013Y0199123D01*
X0194136Y0199058D01*
X0194258Y0198988D01*
X0194377Y0198915D01*
X0194495Y0198839D01*
X0194610Y0198760D01*
X0194723Y0198677D01*
X0194833Y0198591D01*
X0194941Y0198502D01*
X0195046Y0198410D01*
X0195149Y0198315D01*
X0195249Y0198217D01*
X0195346Y0198117D01*
X0195440Y0198013D01*
X0195532Y0197907D01*
X0195620Y0197799D01*
X0195705Y0197688D01*
X0195787Y0197574D01*
X0195866Y0197458D01*
X0195941Y0197341D01*
X0196013Y0197221D01*
X0196081Y0197099D01*
X0196146Y0196975D01*
X0196208Y0196849D01*
X0196266Y0196722D01*
X0196320Y0196593D01*
X0196371Y0196462D01*
X0196417Y0196330D01*
X0196460Y0196197D01*
X0196500Y0196063D01*
X0196535Y0195928D01*
X0196567Y0195791D01*
X0196594Y0195654D01*
X0196618Y0195516D01*
X0196638Y0195378D01*
X0196654Y0195239D01*
X0196666Y0195099D01*
X0196674Y0194960D01*
X0196678Y0194820D01*
X0196678Y0194680D01*
X0196674Y0194540D01*
X0196666Y0194401D01*
X0196654Y0194261D01*
X0196638Y0194122D01*
X0196618Y0193984D01*
X0196594Y0193846D01*
X0196567Y0193709D01*
X0196535Y0193572D01*
X0196500Y0193437D01*
X0196460Y0193303D01*
X0196417Y0193170D01*
X0196371Y0193038D01*
X0196320Y0192907D01*
X0196266Y0192778D01*
X0196208Y0192651D01*
X0196146Y0192525D01*
X0196081Y0192401D01*
X0196013Y0192279D01*
X0195941Y0192159D01*
X0195866Y0192042D01*
X0195787Y0191926D01*
X0195705Y0191812D01*
X0195620Y0191701D01*
X0195532Y0191593D01*
X0195440Y0191487D01*
X0195346Y0191383D01*
X0195249Y0191283D01*
X0195149Y0191185D01*
X0195046Y0191090D01*
X0194941Y0190998D01*
X0194833Y0190909D01*
X0194723Y0190823D01*
X0194610Y0190740D01*
X0194495Y0190661D01*
X0194377Y0190585D01*
X0194258Y0190512D01*
X0194136Y0190442D01*
X0194013Y0190377D01*
X0193888Y0190314D01*
X0193761Y0190255D01*
X0193632Y0190200D01*
X0193502Y0190149D01*
X0193371Y0190101D01*
X0193238Y0190057D01*
X0193104Y0190017D01*
X0192969Y0189980D01*
X0192833Y0189948D01*
X0192696Y0189919D01*
X0192558Y0189895D01*
X0192420Y0189874D01*
X0192281Y0189857D01*
X0192141Y0189844D01*
X0192002Y0189835D01*
X0191862Y0189830D01*
X0191722Y0189829D01*
X0191582Y0189832D01*
X0191442Y0189839D01*
X0191303Y0189850D01*
X0191164Y0189865D01*
X0191025Y0189884D01*
X0190887Y0189906D01*
X0190750Y0189933D01*
X0190613Y0189964D01*
X0190478Y0189998D01*
X0190343Y0190036D01*
X0190210Y0190079D01*
X0190078Y0190124D01*
X0189947Y0190174D01*
X0189817Y0190227D01*
X0189690Y0190284D01*
X0189564Y0190345D01*
X0189439Y0190409D01*
X0189317Y0190477D01*
X0189196Y0190548D01*
X0189078Y0190622D01*
X0188962Y0190700D01*
X0188848Y0190781D01*
X0188736Y0190866D01*
X0188627Y0190953D01*
X0188520Y0191043D01*
X0188416Y0191137D01*
X0188315Y0191233D01*
X0188216Y0191333D01*
X0188120Y0191435D01*
X0188028Y0191539D01*
X0187938Y0191647D01*
X0187851Y0191757D01*
X0187768Y0191869D01*
X0187687Y0191983D01*
X0187610Y0192100D01*
X0187537Y0192219D01*
X0187466Y0192340D01*
X0187400Y0192463D01*
X0187336Y0192588D01*
X0187277Y0192714D01*
X0187221Y0192843D01*
X0187168Y0192972D01*
X0187120Y0193103D01*
X0187075Y0193236D01*
X0187034Y0193370D01*
X0186996Y0193505D01*
X0186963Y0193640D01*
X0186933Y0193777D01*
X0186907Y0193915D01*
X0186886Y0194053D01*
X0186868Y0194192D01*
X0186854Y0194331D01*
X0186844Y0194470D01*
X0186838Y0194610D01*
X0186836Y0194750D01*
D12*
X0166502Y0172939D02*
X0161502Y0172939D01*
X0161502Y0162939D01*
X0166502Y0162939D01*
X0166502Y0172939D01*
X0160596Y0172939D02*
X0155596Y0172939D01*
X0155596Y0162939D01*
X0160596Y0162939D01*
X0160596Y0172939D01*
X0160596Y0162112D02*
X0155596Y0162112D01*
X0155596Y0152112D01*
X0160596Y0152112D01*
X0160596Y0162112D01*
X0137033Y0174631D02*
X0137033Y0188805D01*
X0129946Y0188805D01*
X0129946Y0174631D01*
X0137033Y0174631D01*
X0129159Y0174631D02*
X0129159Y0188805D01*
X0122072Y0188805D01*
X0122072Y0174631D01*
X0129159Y0174631D01*
X0121285Y0174631D02*
X0121285Y0188805D01*
X0114198Y0188805D01*
X0114198Y0174631D01*
X0121285Y0174631D01*
X0113411Y0174631D02*
X0113411Y0188805D01*
X0106324Y0188805D01*
X0106324Y0174631D01*
X0113411Y0174631D01*
X0119671Y0137506D02*
X0119671Y0127506D01*
X0124671Y0127506D01*
X0124671Y0137506D01*
X0119671Y0137506D01*
X0135419Y0137506D02*
X0135419Y0127506D01*
X0140419Y0127506D01*
X0140419Y0137506D01*
X0135419Y0137506D01*
X0149691Y0110439D02*
X0149691Y0100439D01*
X0154691Y0100439D01*
X0154691Y0110439D01*
X0149691Y0110439D01*
X0155596Y0110439D02*
X0155596Y0100439D01*
X0160596Y0100439D01*
X0160596Y0110439D01*
X0155596Y0110439D01*
X0161502Y0110439D02*
X0161502Y0100439D01*
X0166502Y0100439D01*
X0166502Y0110439D01*
X0161502Y0110439D01*
X0163057Y0098135D02*
X0158057Y0098135D01*
X0158057Y0088135D01*
X0163057Y0088135D01*
X0163057Y0098135D01*
X0163962Y0098135D02*
X0163962Y0088135D01*
X0168962Y0088135D01*
X0168962Y0098135D01*
X0163962Y0098135D01*
X0129100Y0082880D02*
X0129100Y0072880D01*
X0124100Y0072880D01*
X0124100Y0082880D01*
X0129100Y0082880D01*
X0108194Y0060065D02*
X0102683Y0060065D01*
X0102683Y0047466D01*
X0108194Y0047466D01*
X0108194Y0060065D01*
X0155065Y0056265D02*
X0155065Y0051265D01*
X0165065Y0051265D01*
X0165065Y0056265D01*
X0155065Y0056265D01*
D13*
X0166559Y0054650D02*
X0167292Y0054650D01*
X0166559Y0054650D02*
X0166516Y0054648D01*
X0166474Y0054643D01*
X0166432Y0054633D01*
X0166392Y0054621D01*
X0166352Y0054604D01*
X0166315Y0054584D01*
X0166279Y0054562D01*
X0166245Y0054536D01*
X0166213Y0054507D01*
X0166184Y0054475D01*
X0166158Y0054441D01*
X0166136Y0054406D01*
X0166116Y0054368D01*
X0166099Y0054328D01*
X0166087Y0054288D01*
X0166077Y0054246D01*
X0166072Y0054204D01*
X0166070Y0054161D01*
X0166072Y0054118D01*
X0166077Y0054076D01*
X0166087Y0054034D01*
X0166099Y0053994D01*
X0166116Y0053954D01*
X0166136Y0053917D01*
X0166158Y0053881D01*
X0166184Y0053847D01*
X0166213Y0053815D01*
X0166245Y0053786D01*
X0166279Y0053760D01*
X0166315Y0053738D01*
X0166352Y0053718D01*
X0166392Y0053701D01*
X0166432Y0053689D01*
X0166474Y0053679D01*
X0166516Y0053674D01*
X0166559Y0053672D01*
X0167048Y0053672D01*
X0166681Y0053672D02*
X0166633Y0053670D01*
X0166585Y0053664D01*
X0166538Y0053655D01*
X0166492Y0053642D01*
X0166447Y0053625D01*
X0166404Y0053605D01*
X0166362Y0053582D01*
X0166322Y0053555D01*
X0166284Y0053526D01*
X0166249Y0053493D01*
X0166216Y0053458D01*
X0166187Y0053420D01*
X0166160Y0053380D01*
X0166137Y0053338D01*
X0166117Y0053295D01*
X0166100Y0053250D01*
X0166087Y0053204D01*
X0166078Y0053157D01*
X0166072Y0053109D01*
X0166070Y0053061D01*
X0166072Y0053013D01*
X0166078Y0052965D01*
X0166087Y0052918D01*
X0166100Y0052872D01*
X0166117Y0052827D01*
X0166137Y0052784D01*
X0166160Y0052742D01*
X0166187Y0052702D01*
X0166216Y0052664D01*
X0166249Y0052629D01*
X0166284Y0052596D01*
X0166322Y0052567D01*
X0166362Y0052540D01*
X0166404Y0052517D01*
X0166447Y0052497D01*
X0166492Y0052480D01*
X0166538Y0052467D01*
X0166585Y0052458D01*
X0166633Y0052452D01*
X0166681Y0052450D01*
X0167292Y0052450D01*
X0168230Y0052938D02*
X0169452Y0052938D01*
X0168963Y0054650D01*
X0168597Y0053427D02*
X0168597Y0052450D01*
X0170281Y0052450D02*
X0170770Y0052450D01*
X0170770Y0052449D02*
X0170813Y0052451D01*
X0170855Y0052456D01*
X0170897Y0052466D01*
X0170937Y0052478D01*
X0170977Y0052495D01*
X0171015Y0052515D01*
X0171050Y0052537D01*
X0171084Y0052563D01*
X0171116Y0052592D01*
X0171145Y0052624D01*
X0171171Y0052658D01*
X0171193Y0052694D01*
X0171213Y0052731D01*
X0171230Y0052771D01*
X0171242Y0052811D01*
X0171252Y0052853D01*
X0171257Y0052895D01*
X0171259Y0052938D01*
X0171259Y0054161D01*
X0171257Y0054204D01*
X0171252Y0054246D01*
X0171242Y0054288D01*
X0171230Y0054328D01*
X0171213Y0054368D01*
X0171193Y0054406D01*
X0171171Y0054441D01*
X0171145Y0054475D01*
X0171116Y0054507D01*
X0171084Y0054536D01*
X0171050Y0054562D01*
X0171015Y0054584D01*
X0170977Y0054604D01*
X0170937Y0054621D01*
X0170897Y0054633D01*
X0170855Y0054643D01*
X0170813Y0054648D01*
X0170770Y0054650D01*
X0170281Y0054650D01*
X0166858Y0082433D02*
X0165635Y0082433D01*
X0165592Y0082435D01*
X0165550Y0082440D01*
X0165508Y0082450D01*
X0165468Y0082462D01*
X0165428Y0082479D01*
X0165391Y0082499D01*
X0165355Y0082521D01*
X0165321Y0082547D01*
X0165289Y0082576D01*
X0165260Y0082608D01*
X0165234Y0082642D01*
X0165212Y0082678D01*
X0165192Y0082715D01*
X0165175Y0082755D01*
X0165163Y0082795D01*
X0165153Y0082837D01*
X0165148Y0082879D01*
X0165146Y0082922D01*
X0165146Y0083411D01*
X0165635Y0084240D02*
X0165635Y0085462D01*
X0166124Y0085095D02*
X0165146Y0085095D01*
X0165635Y0084240D02*
X0167346Y0084729D01*
X0167346Y0083411D02*
X0167346Y0082922D01*
X0167347Y0082922D02*
X0167345Y0082879D01*
X0167340Y0082837D01*
X0167330Y0082795D01*
X0167318Y0082755D01*
X0167301Y0082715D01*
X0167281Y0082677D01*
X0167259Y0082642D01*
X0167233Y0082608D01*
X0167204Y0082576D01*
X0167172Y0082547D01*
X0167138Y0082521D01*
X0167102Y0082499D01*
X0167065Y0082479D01*
X0167025Y0082462D01*
X0166985Y0082450D01*
X0166943Y0082440D01*
X0166901Y0082435D01*
X0166858Y0082433D01*
X0166858Y0086400D02*
X0167346Y0087011D01*
X0165146Y0087011D01*
X0165146Y0086400D02*
X0165146Y0087622D01*
X0160952Y0087500D02*
X0159730Y0086522D01*
X0159241Y0087011D02*
X0159243Y0087051D01*
X0159248Y0087091D01*
X0159257Y0087130D01*
X0159269Y0087168D01*
X0159285Y0087205D01*
X0159303Y0087240D01*
X0159325Y0087274D01*
X0159350Y0087305D01*
X0159377Y0087334D01*
X0159407Y0087361D01*
X0159439Y0087385D01*
X0159473Y0087406D01*
X0159509Y0087424D01*
X0159546Y0087439D01*
X0159241Y0087011D02*
X0159243Y0086971D01*
X0159248Y0086931D01*
X0159257Y0086892D01*
X0159269Y0086854D01*
X0159285Y0086817D01*
X0159303Y0086782D01*
X0159325Y0086748D01*
X0159350Y0086717D01*
X0159377Y0086688D01*
X0159407Y0086661D01*
X0159439Y0086637D01*
X0159473Y0086616D01*
X0159509Y0086598D01*
X0159546Y0086583D01*
X0160341Y0087622D02*
X0160423Y0087620D01*
X0160505Y0087615D01*
X0160587Y0087605D01*
X0160668Y0087592D01*
X0160749Y0087576D01*
X0160828Y0087555D01*
X0160907Y0087531D01*
X0160985Y0087504D01*
X0161061Y0087473D01*
X0161135Y0087439D01*
X0161136Y0087439D02*
X0161173Y0087424D01*
X0161209Y0087406D01*
X0161243Y0087385D01*
X0161275Y0087361D01*
X0161305Y0087334D01*
X0161332Y0087305D01*
X0161357Y0087274D01*
X0161379Y0087240D01*
X0161397Y0087205D01*
X0161413Y0087168D01*
X0161425Y0087130D01*
X0161434Y0087091D01*
X0161439Y0087051D01*
X0161441Y0087011D01*
X0161439Y0086971D01*
X0161434Y0086931D01*
X0161425Y0086892D01*
X0161413Y0086854D01*
X0161397Y0086817D01*
X0161379Y0086782D01*
X0161357Y0086748D01*
X0161332Y0086717D01*
X0161305Y0086688D01*
X0161275Y0086661D01*
X0161243Y0086637D01*
X0161209Y0086616D01*
X0161173Y0086598D01*
X0161136Y0086583D01*
X0160341Y0087622D02*
X0160259Y0087620D01*
X0160177Y0087615D01*
X0160095Y0087605D01*
X0160014Y0087592D01*
X0159933Y0087576D01*
X0159854Y0087555D01*
X0159775Y0087531D01*
X0159697Y0087504D01*
X0159621Y0087473D01*
X0159547Y0087439D01*
X0160341Y0086400D02*
X0160423Y0086402D01*
X0160505Y0086407D01*
X0160587Y0086417D01*
X0160668Y0086430D01*
X0160749Y0086446D01*
X0160828Y0086467D01*
X0160907Y0086491D01*
X0160985Y0086518D01*
X0161061Y0086549D01*
X0161135Y0086583D01*
X0160219Y0085095D02*
X0159241Y0085095D01*
X0159730Y0085462D02*
X0159730Y0084240D01*
X0161441Y0084729D01*
X0161441Y0083411D02*
X0161441Y0082922D01*
X0161439Y0082879D01*
X0161434Y0082837D01*
X0161424Y0082795D01*
X0161412Y0082755D01*
X0161395Y0082715D01*
X0161375Y0082677D01*
X0161353Y0082642D01*
X0161327Y0082608D01*
X0161298Y0082576D01*
X0161266Y0082547D01*
X0161232Y0082521D01*
X0161196Y0082499D01*
X0161159Y0082479D01*
X0161119Y0082462D01*
X0161079Y0082450D01*
X0161037Y0082440D01*
X0160995Y0082435D01*
X0160952Y0082433D01*
X0159730Y0082433D01*
X0159687Y0082435D01*
X0159645Y0082440D01*
X0159603Y0082450D01*
X0159563Y0082462D01*
X0159523Y0082479D01*
X0159486Y0082499D01*
X0159450Y0082521D01*
X0159416Y0082547D01*
X0159384Y0082576D01*
X0159355Y0082608D01*
X0159329Y0082642D01*
X0159307Y0082678D01*
X0159287Y0082715D01*
X0159270Y0082755D01*
X0159258Y0082795D01*
X0159248Y0082837D01*
X0159243Y0082879D01*
X0159241Y0082922D01*
X0159241Y0083411D01*
X0160341Y0086400D02*
X0160259Y0086402D01*
X0160177Y0086407D01*
X0160095Y0086417D01*
X0160014Y0086430D01*
X0159933Y0086446D01*
X0159854Y0086467D01*
X0159775Y0086491D01*
X0159697Y0086518D01*
X0159621Y0086549D01*
X0159547Y0086583D01*
X0159412Y0111444D02*
X0157212Y0111444D01*
X0158190Y0111444D02*
X0158190Y0112055D01*
X0158190Y0112177D02*
X0157212Y0112666D01*
X0157212Y0113834D02*
X0157214Y0113895D01*
X0157220Y0113957D01*
X0157229Y0114017D01*
X0157243Y0114077D01*
X0157260Y0114136D01*
X0157281Y0114194D01*
X0157305Y0114250D01*
X0157333Y0114305D01*
X0157364Y0114358D01*
X0157399Y0114409D01*
X0157436Y0114457D01*
X0157477Y0114503D01*
X0157521Y0114547D01*
X0157567Y0114588D01*
X0157615Y0114625D01*
X0157666Y0114660D01*
X0157719Y0114691D01*
X0157774Y0114719D01*
X0157830Y0114743D01*
X0157888Y0114764D01*
X0157947Y0114781D01*
X0158007Y0114795D01*
X0158067Y0114804D01*
X0158129Y0114810D01*
X0158190Y0114812D01*
X0158801Y0114812D01*
X0158849Y0114810D01*
X0158897Y0114804D01*
X0158944Y0114795D01*
X0158990Y0114782D01*
X0159035Y0114765D01*
X0159078Y0114745D01*
X0159120Y0114722D01*
X0159160Y0114695D01*
X0159198Y0114666D01*
X0159233Y0114633D01*
X0159266Y0114598D01*
X0159295Y0114560D01*
X0159322Y0114520D01*
X0159345Y0114478D01*
X0159365Y0114435D01*
X0159382Y0114390D01*
X0159395Y0114344D01*
X0159404Y0114297D01*
X0159410Y0114249D01*
X0159412Y0114201D01*
X0159410Y0114153D01*
X0159404Y0114105D01*
X0159395Y0114058D01*
X0159382Y0114012D01*
X0159365Y0113967D01*
X0159345Y0113924D01*
X0159322Y0113882D01*
X0159295Y0113842D01*
X0159266Y0113804D01*
X0159233Y0113769D01*
X0159198Y0113736D01*
X0159160Y0113707D01*
X0159120Y0113680D01*
X0159078Y0113657D01*
X0159035Y0113637D01*
X0158990Y0113620D01*
X0158944Y0113607D01*
X0158897Y0113598D01*
X0158849Y0113592D01*
X0158801Y0113590D01*
X0158678Y0113590D01*
X0158635Y0113592D01*
X0158593Y0113597D01*
X0158551Y0113607D01*
X0158511Y0113619D01*
X0158471Y0113636D01*
X0158434Y0113656D01*
X0158398Y0113678D01*
X0158364Y0113704D01*
X0158332Y0113733D01*
X0158303Y0113765D01*
X0158277Y0113799D01*
X0158255Y0113834D01*
X0158235Y0113872D01*
X0158218Y0113912D01*
X0158206Y0113952D01*
X0158196Y0113994D01*
X0158191Y0114036D01*
X0158189Y0114079D01*
X0158190Y0114079D02*
X0158190Y0114812D01*
X0158190Y0112055D02*
X0158192Y0112103D01*
X0158198Y0112151D01*
X0158207Y0112198D01*
X0158220Y0112244D01*
X0158237Y0112289D01*
X0158257Y0112332D01*
X0158280Y0112374D01*
X0158307Y0112414D01*
X0158336Y0112452D01*
X0158369Y0112487D01*
X0158404Y0112520D01*
X0158442Y0112549D01*
X0158482Y0112576D01*
X0158524Y0112599D01*
X0158567Y0112619D01*
X0158612Y0112636D01*
X0158658Y0112649D01*
X0158705Y0112658D01*
X0158753Y0112664D01*
X0158801Y0112666D01*
X0158849Y0112664D01*
X0158897Y0112658D01*
X0158944Y0112649D01*
X0158990Y0112636D01*
X0159035Y0112619D01*
X0159078Y0112599D01*
X0159120Y0112576D01*
X0159160Y0112549D01*
X0159198Y0112520D01*
X0159233Y0112487D01*
X0159266Y0112452D01*
X0159295Y0112414D01*
X0159322Y0112374D01*
X0159345Y0112332D01*
X0159365Y0112289D01*
X0159382Y0112244D01*
X0159395Y0112198D01*
X0159404Y0112151D01*
X0159410Y0112103D01*
X0159412Y0112055D01*
X0159412Y0111444D01*
X0163117Y0111444D02*
X0165317Y0111444D01*
X0165317Y0112055D01*
X0165315Y0112103D01*
X0165309Y0112151D01*
X0165300Y0112198D01*
X0165287Y0112244D01*
X0165270Y0112289D01*
X0165250Y0112332D01*
X0165227Y0112374D01*
X0165200Y0112414D01*
X0165171Y0112452D01*
X0165138Y0112487D01*
X0165103Y0112520D01*
X0165065Y0112549D01*
X0165025Y0112576D01*
X0164983Y0112599D01*
X0164940Y0112619D01*
X0164895Y0112636D01*
X0164849Y0112649D01*
X0164802Y0112658D01*
X0164754Y0112664D01*
X0164706Y0112666D01*
X0164658Y0112664D01*
X0164610Y0112658D01*
X0164563Y0112649D01*
X0164517Y0112636D01*
X0164472Y0112619D01*
X0164429Y0112599D01*
X0164387Y0112576D01*
X0164347Y0112549D01*
X0164309Y0112520D01*
X0164274Y0112487D01*
X0164241Y0112452D01*
X0164212Y0112414D01*
X0164185Y0112374D01*
X0164162Y0112332D01*
X0164142Y0112289D01*
X0164125Y0112244D01*
X0164112Y0112198D01*
X0164103Y0112151D01*
X0164097Y0112103D01*
X0164095Y0112055D01*
X0164095Y0111444D01*
X0164095Y0112177D02*
X0163117Y0112666D01*
X0163117Y0113590D02*
X0163117Y0114812D01*
X0163117Y0114201D02*
X0165317Y0114201D01*
X0164828Y0113590D01*
X0164217Y0116972D02*
X0164135Y0116970D01*
X0164053Y0116965D01*
X0163971Y0116955D01*
X0163890Y0116942D01*
X0163809Y0116926D01*
X0163730Y0116905D01*
X0163651Y0116881D01*
X0163573Y0116854D01*
X0163497Y0116823D01*
X0163423Y0116789D01*
X0163386Y0116774D01*
X0163350Y0116756D01*
X0163316Y0116735D01*
X0163284Y0116711D01*
X0163254Y0116684D01*
X0163227Y0116655D01*
X0163202Y0116624D01*
X0163180Y0116590D01*
X0163162Y0116555D01*
X0163146Y0116518D01*
X0163134Y0116480D01*
X0163125Y0116441D01*
X0163120Y0116401D01*
X0163118Y0116361D01*
X0163120Y0116321D01*
X0163125Y0116281D01*
X0163134Y0116242D01*
X0163146Y0116204D01*
X0163162Y0116167D01*
X0163180Y0116132D01*
X0163202Y0116098D01*
X0163227Y0116067D01*
X0163254Y0116038D01*
X0163284Y0116011D01*
X0163316Y0115987D01*
X0163350Y0115966D01*
X0163386Y0115948D01*
X0163423Y0115933D01*
X0163606Y0115872D02*
X0164828Y0116850D01*
X0165012Y0116789D02*
X0165049Y0116774D01*
X0165085Y0116756D01*
X0165119Y0116735D01*
X0165151Y0116711D01*
X0165181Y0116684D01*
X0165208Y0116655D01*
X0165233Y0116624D01*
X0165255Y0116590D01*
X0165273Y0116555D01*
X0165289Y0116518D01*
X0165301Y0116480D01*
X0165310Y0116441D01*
X0165315Y0116401D01*
X0165317Y0116361D01*
X0165315Y0116321D01*
X0165310Y0116281D01*
X0165301Y0116242D01*
X0165289Y0116204D01*
X0165273Y0116167D01*
X0165255Y0116132D01*
X0165233Y0116098D01*
X0165208Y0116067D01*
X0165181Y0116038D01*
X0165151Y0116011D01*
X0165119Y0115987D01*
X0165085Y0115966D01*
X0165049Y0115948D01*
X0165012Y0115933D01*
X0165011Y0116789D02*
X0164937Y0116823D01*
X0164861Y0116854D01*
X0164783Y0116881D01*
X0164704Y0116905D01*
X0164625Y0116926D01*
X0164544Y0116942D01*
X0164463Y0116955D01*
X0164381Y0116965D01*
X0164299Y0116970D01*
X0164217Y0116972D01*
X0164217Y0115750D02*
X0164299Y0115752D01*
X0164381Y0115757D01*
X0164463Y0115767D01*
X0164544Y0115780D01*
X0164625Y0115796D01*
X0164704Y0115817D01*
X0164783Y0115841D01*
X0164861Y0115868D01*
X0164937Y0115899D01*
X0165011Y0115933D01*
X0164217Y0115750D02*
X0164135Y0115752D01*
X0164053Y0115757D01*
X0163971Y0115767D01*
X0163890Y0115780D01*
X0163809Y0115796D01*
X0163730Y0115817D01*
X0163651Y0115841D01*
X0163573Y0115868D01*
X0163497Y0115899D01*
X0163423Y0115933D01*
X0153506Y0113739D02*
X0151795Y0113250D01*
X0151795Y0114473D01*
X0152284Y0114106D02*
X0151306Y0114106D01*
X0151306Y0112422D02*
X0151306Y0111933D01*
X0151308Y0111890D01*
X0151313Y0111848D01*
X0151323Y0111806D01*
X0151335Y0111766D01*
X0151352Y0111726D01*
X0151372Y0111689D01*
X0151394Y0111653D01*
X0151420Y0111619D01*
X0151449Y0111587D01*
X0151481Y0111558D01*
X0151515Y0111532D01*
X0151551Y0111510D01*
X0151588Y0111490D01*
X0151628Y0111473D01*
X0151668Y0111461D01*
X0151710Y0111451D01*
X0151752Y0111446D01*
X0151795Y0111444D01*
X0153017Y0111444D01*
X0153060Y0111446D01*
X0153102Y0111451D01*
X0153144Y0111461D01*
X0153184Y0111473D01*
X0153224Y0111490D01*
X0153261Y0111510D01*
X0153297Y0111532D01*
X0153331Y0111558D01*
X0153363Y0111587D01*
X0153392Y0111619D01*
X0153418Y0111653D01*
X0153440Y0111688D01*
X0153460Y0111726D01*
X0153477Y0111766D01*
X0153489Y0111806D01*
X0153499Y0111848D01*
X0153504Y0111890D01*
X0153506Y0111933D01*
X0153506Y0112422D01*
X0138254Y0138511D02*
X0137031Y0138511D01*
X0136988Y0138513D01*
X0136946Y0138518D01*
X0136904Y0138528D01*
X0136864Y0138540D01*
X0136824Y0138557D01*
X0136787Y0138577D01*
X0136751Y0138599D01*
X0136717Y0138625D01*
X0136685Y0138654D01*
X0136656Y0138686D01*
X0136630Y0138720D01*
X0136608Y0138756D01*
X0136588Y0138793D01*
X0136571Y0138833D01*
X0136559Y0138873D01*
X0136549Y0138915D01*
X0136544Y0138957D01*
X0136542Y0139000D01*
X0136543Y0139000D02*
X0136543Y0139489D01*
X0136543Y0140317D02*
X0136543Y0141540D01*
X0136543Y0142477D02*
X0136543Y0143700D01*
X0136543Y0142477D02*
X0137765Y0143516D01*
X0138743Y0143150D02*
X0138741Y0143098D01*
X0138735Y0143046D01*
X0138726Y0142994D01*
X0138712Y0142944D01*
X0138695Y0142894D01*
X0138674Y0142846D01*
X0138650Y0142800D01*
X0138623Y0142756D01*
X0138592Y0142713D01*
X0138558Y0142673D01*
X0138522Y0142636D01*
X0138482Y0142602D01*
X0138440Y0142570D01*
X0138397Y0142542D01*
X0138351Y0142517D01*
X0138303Y0142495D01*
X0138254Y0142477D01*
X0137765Y0143517D02*
X0137799Y0143550D01*
X0137836Y0143580D01*
X0137876Y0143608D01*
X0137917Y0143632D01*
X0137960Y0143652D01*
X0138005Y0143669D01*
X0138051Y0143683D01*
X0138098Y0143692D01*
X0138145Y0143698D01*
X0138193Y0143700D01*
X0138238Y0143698D01*
X0138284Y0143692D01*
X0138328Y0143683D01*
X0138372Y0143670D01*
X0138414Y0143654D01*
X0138455Y0143634D01*
X0138494Y0143610D01*
X0138531Y0143584D01*
X0138566Y0143555D01*
X0138598Y0143523D01*
X0138627Y0143488D01*
X0138653Y0143451D01*
X0138677Y0143412D01*
X0138697Y0143371D01*
X0138713Y0143329D01*
X0138726Y0143285D01*
X0138735Y0143241D01*
X0138741Y0143195D01*
X0138743Y0143150D01*
X0137765Y0141356D02*
X0136543Y0140317D01*
X0138254Y0140317D02*
X0138303Y0140335D01*
X0138351Y0140357D01*
X0138397Y0140382D01*
X0138440Y0140410D01*
X0138482Y0140442D01*
X0138522Y0140476D01*
X0138558Y0140513D01*
X0138592Y0140553D01*
X0138623Y0140596D01*
X0138650Y0140640D01*
X0138674Y0140686D01*
X0138695Y0140734D01*
X0138712Y0140784D01*
X0138726Y0140834D01*
X0138735Y0140886D01*
X0138741Y0140938D01*
X0138743Y0140990D01*
X0138741Y0141035D01*
X0138735Y0141081D01*
X0138726Y0141125D01*
X0138713Y0141169D01*
X0138697Y0141211D01*
X0138677Y0141252D01*
X0138653Y0141291D01*
X0138627Y0141328D01*
X0138598Y0141363D01*
X0138566Y0141395D01*
X0138531Y0141424D01*
X0138494Y0141450D01*
X0138455Y0141474D01*
X0138414Y0141494D01*
X0138372Y0141510D01*
X0138328Y0141523D01*
X0138284Y0141532D01*
X0138238Y0141538D01*
X0138193Y0141540D01*
X0138145Y0141538D01*
X0138098Y0141532D01*
X0138051Y0141523D01*
X0138005Y0141509D01*
X0137960Y0141492D01*
X0137917Y0141472D01*
X0137876Y0141448D01*
X0137836Y0141420D01*
X0137799Y0141390D01*
X0137765Y0141357D01*
X0138743Y0139489D02*
X0138743Y0139000D01*
X0138741Y0138957D01*
X0138736Y0138915D01*
X0138726Y0138873D01*
X0138714Y0138833D01*
X0138697Y0138793D01*
X0138677Y0138755D01*
X0138655Y0138720D01*
X0138629Y0138686D01*
X0138600Y0138654D01*
X0138568Y0138625D01*
X0138534Y0138599D01*
X0138498Y0138577D01*
X0138461Y0138557D01*
X0138421Y0138540D01*
X0138381Y0138528D01*
X0138339Y0138518D01*
X0138297Y0138513D01*
X0138254Y0138511D01*
X0122994Y0139000D02*
X0122994Y0139489D01*
X0122995Y0139000D02*
X0122993Y0138957D01*
X0122988Y0138915D01*
X0122978Y0138873D01*
X0122966Y0138833D01*
X0122949Y0138793D01*
X0122929Y0138755D01*
X0122907Y0138720D01*
X0122881Y0138686D01*
X0122852Y0138654D01*
X0122820Y0138625D01*
X0122786Y0138599D01*
X0122750Y0138577D01*
X0122713Y0138557D01*
X0122673Y0138540D01*
X0122633Y0138528D01*
X0122591Y0138518D01*
X0122549Y0138513D01*
X0122506Y0138511D01*
X0121283Y0138511D01*
X0121240Y0138513D01*
X0121198Y0138518D01*
X0121156Y0138528D01*
X0121116Y0138540D01*
X0121076Y0138557D01*
X0121039Y0138577D01*
X0121003Y0138599D01*
X0120969Y0138625D01*
X0120937Y0138654D01*
X0120908Y0138686D01*
X0120882Y0138720D01*
X0120860Y0138756D01*
X0120840Y0138793D01*
X0120823Y0138833D01*
X0120811Y0138873D01*
X0120801Y0138915D01*
X0120796Y0138957D01*
X0120794Y0139000D01*
X0120794Y0139489D01*
X0120794Y0140317D02*
X0120794Y0141540D01*
X0120794Y0142477D02*
X0120794Y0143700D01*
X0120794Y0143089D02*
X0122994Y0143089D01*
X0122506Y0142477D01*
X0122017Y0141356D02*
X0120794Y0140317D01*
X0122506Y0140317D02*
X0122555Y0140335D01*
X0122603Y0140357D01*
X0122649Y0140382D01*
X0122692Y0140410D01*
X0122734Y0140442D01*
X0122774Y0140476D01*
X0122810Y0140513D01*
X0122844Y0140553D01*
X0122875Y0140596D01*
X0122902Y0140640D01*
X0122926Y0140686D01*
X0122947Y0140734D01*
X0122964Y0140784D01*
X0122978Y0140834D01*
X0122987Y0140886D01*
X0122993Y0140938D01*
X0122995Y0140990D01*
X0122994Y0140990D02*
X0122992Y0141035D01*
X0122986Y0141081D01*
X0122977Y0141125D01*
X0122964Y0141169D01*
X0122948Y0141211D01*
X0122928Y0141252D01*
X0122904Y0141291D01*
X0122878Y0141328D01*
X0122849Y0141363D01*
X0122817Y0141395D01*
X0122782Y0141424D01*
X0122745Y0141450D01*
X0122706Y0141474D01*
X0122665Y0141494D01*
X0122623Y0141510D01*
X0122579Y0141523D01*
X0122535Y0141532D01*
X0122489Y0141538D01*
X0122444Y0141540D01*
X0122396Y0141538D01*
X0122349Y0141532D01*
X0122302Y0141523D01*
X0122256Y0141509D01*
X0122211Y0141492D01*
X0122168Y0141472D01*
X0122127Y0141448D01*
X0122087Y0141420D01*
X0122050Y0141390D01*
X0122016Y0141357D01*
X0156780Y0148567D02*
X0156780Y0149055D01*
X0156780Y0148567D02*
X0156782Y0148524D01*
X0156787Y0148482D01*
X0156797Y0148440D01*
X0156809Y0148400D01*
X0156826Y0148360D01*
X0156846Y0148323D01*
X0156868Y0148287D01*
X0156894Y0148253D01*
X0156923Y0148221D01*
X0156955Y0148192D01*
X0156989Y0148166D01*
X0157025Y0148144D01*
X0157062Y0148124D01*
X0157102Y0148107D01*
X0157142Y0148095D01*
X0157184Y0148085D01*
X0157226Y0148080D01*
X0157269Y0148078D01*
X0158491Y0148078D01*
X0158534Y0148080D01*
X0158576Y0148085D01*
X0158618Y0148095D01*
X0158658Y0148107D01*
X0158698Y0148124D01*
X0158735Y0148144D01*
X0158771Y0148166D01*
X0158805Y0148192D01*
X0158837Y0148221D01*
X0158866Y0148253D01*
X0158892Y0148287D01*
X0158914Y0148322D01*
X0158934Y0148360D01*
X0158951Y0148400D01*
X0158963Y0148440D01*
X0158973Y0148482D01*
X0158978Y0148524D01*
X0158980Y0148567D01*
X0158980Y0149055D01*
X0158491Y0150006D02*
X0158448Y0150008D01*
X0158406Y0150013D01*
X0158364Y0150023D01*
X0158324Y0150035D01*
X0158284Y0150052D01*
X0158247Y0150072D01*
X0158211Y0150094D01*
X0158177Y0150120D01*
X0158145Y0150149D01*
X0158116Y0150181D01*
X0158090Y0150215D01*
X0158068Y0150251D01*
X0158048Y0150288D01*
X0158031Y0150328D01*
X0158019Y0150368D01*
X0158009Y0150410D01*
X0158004Y0150452D01*
X0158002Y0150495D01*
X0158004Y0150538D01*
X0158009Y0150580D01*
X0158019Y0150622D01*
X0158031Y0150662D01*
X0158048Y0150702D01*
X0158068Y0150740D01*
X0158090Y0150775D01*
X0158116Y0150809D01*
X0158145Y0150841D01*
X0158177Y0150870D01*
X0158211Y0150896D01*
X0158247Y0150918D01*
X0158284Y0150938D01*
X0158324Y0150955D01*
X0158364Y0150967D01*
X0158406Y0150977D01*
X0158448Y0150982D01*
X0158491Y0150984D01*
X0158534Y0150982D01*
X0158576Y0150977D01*
X0158618Y0150967D01*
X0158658Y0150955D01*
X0158698Y0150938D01*
X0158736Y0150918D01*
X0158771Y0150896D01*
X0158805Y0150870D01*
X0158837Y0150841D01*
X0158866Y0150809D01*
X0158892Y0150775D01*
X0158914Y0150740D01*
X0158934Y0150702D01*
X0158951Y0150662D01*
X0158963Y0150622D01*
X0158973Y0150580D01*
X0158978Y0150538D01*
X0158980Y0150495D01*
X0158978Y0150452D01*
X0158973Y0150410D01*
X0158963Y0150368D01*
X0158951Y0150328D01*
X0158934Y0150288D01*
X0158914Y0150251D01*
X0158892Y0150215D01*
X0158866Y0150181D01*
X0158837Y0150149D01*
X0158805Y0150120D01*
X0158771Y0150094D01*
X0158736Y0150072D01*
X0158698Y0150052D01*
X0158658Y0150035D01*
X0158618Y0150023D01*
X0158576Y0150013D01*
X0158534Y0150008D01*
X0158491Y0150006D01*
X0157391Y0149884D02*
X0157343Y0149886D01*
X0157295Y0149892D01*
X0157248Y0149901D01*
X0157202Y0149914D01*
X0157157Y0149931D01*
X0157114Y0149951D01*
X0157072Y0149974D01*
X0157032Y0150001D01*
X0156994Y0150030D01*
X0156959Y0150063D01*
X0156926Y0150098D01*
X0156897Y0150136D01*
X0156870Y0150176D01*
X0156847Y0150218D01*
X0156827Y0150261D01*
X0156810Y0150306D01*
X0156797Y0150352D01*
X0156788Y0150399D01*
X0156782Y0150447D01*
X0156780Y0150495D01*
X0156782Y0150543D01*
X0156788Y0150591D01*
X0156797Y0150638D01*
X0156810Y0150684D01*
X0156827Y0150729D01*
X0156847Y0150772D01*
X0156870Y0150814D01*
X0156897Y0150854D01*
X0156926Y0150892D01*
X0156959Y0150927D01*
X0156994Y0150960D01*
X0157032Y0150989D01*
X0157072Y0151016D01*
X0157114Y0151039D01*
X0157157Y0151059D01*
X0157202Y0151076D01*
X0157248Y0151089D01*
X0157295Y0151098D01*
X0157343Y0151104D01*
X0157391Y0151106D01*
X0157439Y0151104D01*
X0157487Y0151098D01*
X0157534Y0151089D01*
X0157580Y0151076D01*
X0157625Y0151059D01*
X0157668Y0151039D01*
X0157710Y0151016D01*
X0157750Y0150989D01*
X0157788Y0150960D01*
X0157823Y0150927D01*
X0157856Y0150892D01*
X0157885Y0150854D01*
X0157912Y0150814D01*
X0157935Y0150772D01*
X0157955Y0150729D01*
X0157972Y0150684D01*
X0157985Y0150638D01*
X0157994Y0150591D01*
X0158000Y0150543D01*
X0158002Y0150495D01*
X0158000Y0150447D01*
X0157994Y0150399D01*
X0157985Y0150352D01*
X0157972Y0150306D01*
X0157955Y0150261D01*
X0157935Y0150218D01*
X0157912Y0150176D01*
X0157885Y0150136D01*
X0157856Y0150098D01*
X0157823Y0150063D01*
X0157788Y0150030D01*
X0157750Y0150001D01*
X0157710Y0149974D01*
X0157668Y0149951D01*
X0157625Y0149931D01*
X0157580Y0149914D01*
X0157534Y0149901D01*
X0157487Y0149892D01*
X0157439Y0149886D01*
X0157391Y0149884D01*
X0167665Y0157272D02*
X0168277Y0157272D01*
X0167665Y0157273D02*
X0167617Y0157275D01*
X0167569Y0157281D01*
X0167522Y0157290D01*
X0167476Y0157303D01*
X0167431Y0157320D01*
X0167388Y0157340D01*
X0167346Y0157363D01*
X0167306Y0157390D01*
X0167268Y0157419D01*
X0167233Y0157452D01*
X0167200Y0157487D01*
X0167171Y0157525D01*
X0167144Y0157565D01*
X0167121Y0157607D01*
X0167101Y0157650D01*
X0167084Y0157695D01*
X0167071Y0157741D01*
X0167062Y0157788D01*
X0167056Y0157836D01*
X0167054Y0157884D01*
X0167056Y0157932D01*
X0167062Y0157980D01*
X0167071Y0158027D01*
X0167084Y0158073D01*
X0167101Y0158118D01*
X0167121Y0158161D01*
X0167144Y0158203D01*
X0167171Y0158243D01*
X0167200Y0158281D01*
X0167233Y0158316D01*
X0167268Y0158349D01*
X0167306Y0158378D01*
X0167346Y0158405D01*
X0167388Y0158428D01*
X0167431Y0158448D01*
X0167476Y0158465D01*
X0167522Y0158478D01*
X0167569Y0158487D01*
X0167617Y0158493D01*
X0167665Y0158495D01*
X0167543Y0158495D02*
X0168032Y0158495D01*
X0167543Y0158495D02*
X0167500Y0158497D01*
X0167458Y0158502D01*
X0167416Y0158512D01*
X0167376Y0158524D01*
X0167336Y0158541D01*
X0167299Y0158561D01*
X0167263Y0158583D01*
X0167229Y0158609D01*
X0167197Y0158638D01*
X0167168Y0158670D01*
X0167142Y0158704D01*
X0167120Y0158740D01*
X0167100Y0158777D01*
X0167083Y0158817D01*
X0167071Y0158857D01*
X0167061Y0158899D01*
X0167056Y0158941D01*
X0167054Y0158984D01*
X0167056Y0159027D01*
X0167061Y0159069D01*
X0167071Y0159111D01*
X0167083Y0159151D01*
X0167100Y0159191D01*
X0167120Y0159229D01*
X0167142Y0159264D01*
X0167168Y0159298D01*
X0167197Y0159330D01*
X0167229Y0159359D01*
X0167263Y0159385D01*
X0167299Y0159407D01*
X0167336Y0159427D01*
X0167376Y0159444D01*
X0167416Y0159456D01*
X0167458Y0159466D01*
X0167500Y0159471D01*
X0167543Y0159473D01*
X0167543Y0159472D02*
X0168277Y0159472D01*
X0169070Y0159472D02*
X0170293Y0159472D01*
X0169681Y0159472D02*
X0169681Y0157272D01*
X0170966Y0157272D02*
X0171944Y0157272D01*
X0171944Y0159472D01*
X0170966Y0159472D01*
X0171211Y0158495D02*
X0171944Y0158495D01*
X0172838Y0158495D02*
X0173816Y0158495D01*
X0173816Y0159472D02*
X0172838Y0159472D01*
X0173816Y0159472D02*
X0173816Y0157272D01*
X0172210Y0166562D02*
X0170988Y0166562D01*
X0170945Y0166564D01*
X0170903Y0166569D01*
X0170861Y0166579D01*
X0170821Y0166591D01*
X0170781Y0166608D01*
X0170744Y0166628D01*
X0170708Y0166650D01*
X0170674Y0166676D01*
X0170642Y0166705D01*
X0170613Y0166737D01*
X0170587Y0166771D01*
X0170565Y0166807D01*
X0170545Y0166844D01*
X0170528Y0166884D01*
X0170516Y0166924D01*
X0170506Y0166966D01*
X0170501Y0167008D01*
X0170499Y0167051D01*
X0170499Y0167540D01*
X0169254Y0167173D02*
X0169254Y0166562D01*
X0167054Y0166562D01*
X0168032Y0166562D02*
X0168032Y0167173D01*
X0168032Y0167296D02*
X0167054Y0167784D01*
X0167054Y0168708D02*
X0167054Y0169319D01*
X0167056Y0169367D01*
X0167062Y0169415D01*
X0167071Y0169462D01*
X0167084Y0169508D01*
X0167101Y0169553D01*
X0167121Y0169596D01*
X0167144Y0169638D01*
X0167171Y0169678D01*
X0167200Y0169716D01*
X0167233Y0169751D01*
X0167268Y0169784D01*
X0167306Y0169813D01*
X0167346Y0169840D01*
X0167388Y0169863D01*
X0167431Y0169883D01*
X0167476Y0169900D01*
X0167522Y0169913D01*
X0167569Y0169922D01*
X0167617Y0169928D01*
X0167665Y0169930D01*
X0167713Y0169928D01*
X0167761Y0169922D01*
X0167808Y0169913D01*
X0167854Y0169900D01*
X0167899Y0169883D01*
X0167942Y0169863D01*
X0167984Y0169840D01*
X0168024Y0169813D01*
X0168062Y0169784D01*
X0168097Y0169751D01*
X0168130Y0169716D01*
X0168159Y0169678D01*
X0168186Y0169638D01*
X0168209Y0169596D01*
X0168229Y0169553D01*
X0168246Y0169508D01*
X0168259Y0169462D01*
X0168268Y0169415D01*
X0168274Y0169367D01*
X0168276Y0169319D01*
X0168277Y0169441D02*
X0168277Y0168952D01*
X0168276Y0169441D02*
X0168278Y0169484D01*
X0168283Y0169526D01*
X0168293Y0169568D01*
X0168305Y0169608D01*
X0168322Y0169648D01*
X0168342Y0169686D01*
X0168364Y0169721D01*
X0168390Y0169755D01*
X0168419Y0169787D01*
X0168451Y0169816D01*
X0168485Y0169842D01*
X0168521Y0169864D01*
X0168558Y0169884D01*
X0168598Y0169901D01*
X0168638Y0169913D01*
X0168680Y0169923D01*
X0168722Y0169928D01*
X0168765Y0169930D01*
X0168808Y0169928D01*
X0168850Y0169923D01*
X0168892Y0169913D01*
X0168932Y0169901D01*
X0168972Y0169884D01*
X0169010Y0169864D01*
X0169045Y0169842D01*
X0169079Y0169816D01*
X0169111Y0169787D01*
X0169140Y0169755D01*
X0169166Y0169721D01*
X0169188Y0169686D01*
X0169208Y0169648D01*
X0169225Y0169608D01*
X0169237Y0169568D01*
X0169247Y0169526D01*
X0169252Y0169484D01*
X0169254Y0169441D01*
X0169254Y0168708D01*
X0169254Y0167173D02*
X0169252Y0167221D01*
X0169246Y0167269D01*
X0169237Y0167316D01*
X0169224Y0167362D01*
X0169207Y0167407D01*
X0169187Y0167450D01*
X0169164Y0167492D01*
X0169137Y0167532D01*
X0169108Y0167570D01*
X0169075Y0167605D01*
X0169040Y0167638D01*
X0169002Y0167667D01*
X0168962Y0167694D01*
X0168920Y0167717D01*
X0168877Y0167737D01*
X0168832Y0167754D01*
X0168786Y0167767D01*
X0168739Y0167776D01*
X0168691Y0167782D01*
X0168643Y0167784D01*
X0168595Y0167782D01*
X0168547Y0167776D01*
X0168500Y0167767D01*
X0168454Y0167754D01*
X0168409Y0167737D01*
X0168366Y0167717D01*
X0168324Y0167694D01*
X0168284Y0167667D01*
X0168246Y0167638D01*
X0168211Y0167605D01*
X0168178Y0167570D01*
X0168149Y0167532D01*
X0168122Y0167492D01*
X0168099Y0167450D01*
X0168079Y0167407D01*
X0168062Y0167362D01*
X0168049Y0167316D01*
X0168040Y0167269D01*
X0168034Y0167221D01*
X0168032Y0167173D01*
X0170499Y0168613D02*
X0170501Y0168674D01*
X0170507Y0168736D01*
X0170516Y0168796D01*
X0170530Y0168856D01*
X0170547Y0168915D01*
X0170568Y0168973D01*
X0170592Y0169029D01*
X0170620Y0169084D01*
X0170651Y0169137D01*
X0170686Y0169188D01*
X0170723Y0169236D01*
X0170764Y0169282D01*
X0170808Y0169326D01*
X0170854Y0169367D01*
X0170902Y0169404D01*
X0170953Y0169439D01*
X0171006Y0169470D01*
X0171061Y0169498D01*
X0171117Y0169522D01*
X0171175Y0169543D01*
X0171234Y0169560D01*
X0171294Y0169574D01*
X0171354Y0169583D01*
X0171416Y0169589D01*
X0171477Y0169591D01*
X0172088Y0169591D01*
X0171477Y0169591D02*
X0171477Y0168857D01*
X0171479Y0168814D01*
X0171484Y0168772D01*
X0171494Y0168730D01*
X0171506Y0168690D01*
X0171523Y0168650D01*
X0171543Y0168612D01*
X0171565Y0168577D01*
X0171591Y0168543D01*
X0171620Y0168511D01*
X0171652Y0168482D01*
X0171686Y0168456D01*
X0171722Y0168434D01*
X0171759Y0168414D01*
X0171799Y0168397D01*
X0171839Y0168385D01*
X0171881Y0168375D01*
X0171923Y0168370D01*
X0171966Y0168368D01*
X0171966Y0168369D02*
X0172088Y0168369D01*
X0172136Y0168371D01*
X0172184Y0168377D01*
X0172231Y0168386D01*
X0172277Y0168399D01*
X0172322Y0168416D01*
X0172365Y0168436D01*
X0172407Y0168459D01*
X0172447Y0168486D01*
X0172485Y0168515D01*
X0172520Y0168548D01*
X0172553Y0168583D01*
X0172582Y0168621D01*
X0172609Y0168661D01*
X0172632Y0168703D01*
X0172652Y0168746D01*
X0172669Y0168791D01*
X0172682Y0168837D01*
X0172691Y0168884D01*
X0172697Y0168932D01*
X0172699Y0168980D01*
X0172697Y0169028D01*
X0172691Y0169076D01*
X0172682Y0169123D01*
X0172669Y0169169D01*
X0172652Y0169214D01*
X0172632Y0169257D01*
X0172609Y0169299D01*
X0172582Y0169339D01*
X0172553Y0169377D01*
X0172520Y0169412D01*
X0172485Y0169445D01*
X0172447Y0169474D01*
X0172407Y0169501D01*
X0172365Y0169524D01*
X0172322Y0169544D01*
X0172277Y0169561D01*
X0172231Y0169574D01*
X0172184Y0169583D01*
X0172136Y0169589D01*
X0172088Y0169591D01*
X0172699Y0167540D02*
X0172699Y0167051D01*
X0172697Y0167008D01*
X0172692Y0166966D01*
X0172682Y0166924D01*
X0172670Y0166884D01*
X0172653Y0166844D01*
X0172633Y0166806D01*
X0172611Y0166771D01*
X0172585Y0166737D01*
X0172556Y0166705D01*
X0172524Y0166676D01*
X0172490Y0166650D01*
X0172454Y0166628D01*
X0172417Y0166608D01*
X0172377Y0166591D01*
X0172337Y0166579D01*
X0172295Y0166569D01*
X0172253Y0166564D01*
X0172210Y0166562D01*
X0162425Y0176897D02*
X0161814Y0176897D01*
X0161766Y0176899D01*
X0161718Y0176905D01*
X0161671Y0176914D01*
X0161625Y0176927D01*
X0161580Y0176944D01*
X0161537Y0176964D01*
X0161495Y0176987D01*
X0161455Y0177014D01*
X0161417Y0177043D01*
X0161382Y0177076D01*
X0161349Y0177111D01*
X0161320Y0177149D01*
X0161293Y0177189D01*
X0161270Y0177231D01*
X0161250Y0177274D01*
X0161233Y0177319D01*
X0161220Y0177365D01*
X0161211Y0177412D01*
X0161205Y0177460D01*
X0161203Y0177508D01*
X0161203Y0178486D01*
X0161205Y0178534D01*
X0161211Y0178582D01*
X0161220Y0178629D01*
X0161233Y0178675D01*
X0161250Y0178720D01*
X0161270Y0178763D01*
X0161293Y0178805D01*
X0161320Y0178845D01*
X0161349Y0178883D01*
X0161382Y0178918D01*
X0161417Y0178951D01*
X0161455Y0178980D01*
X0161495Y0179007D01*
X0161537Y0179030D01*
X0161580Y0179050D01*
X0161625Y0179067D01*
X0161671Y0179080D01*
X0161718Y0179089D01*
X0161766Y0179095D01*
X0161814Y0179097D01*
X0162425Y0179097D01*
X0162425Y0176897D01*
X0160193Y0177386D02*
X0158971Y0177386D01*
X0159338Y0177875D02*
X0159338Y0176897D01*
X0160193Y0177386D02*
X0159704Y0179097D01*
X0135290Y0190307D02*
X0135290Y0190796D01*
X0135290Y0190307D02*
X0135288Y0190264D01*
X0135283Y0190222D01*
X0135273Y0190180D01*
X0135261Y0190140D01*
X0135244Y0190100D01*
X0135224Y0190062D01*
X0135202Y0190027D01*
X0135176Y0189993D01*
X0135147Y0189961D01*
X0135115Y0189932D01*
X0135081Y0189906D01*
X0135045Y0189884D01*
X0135008Y0189864D01*
X0134968Y0189847D01*
X0134928Y0189835D01*
X0134886Y0189825D01*
X0134844Y0189820D01*
X0134801Y0189818D01*
X0133579Y0189818D01*
X0133536Y0189820D01*
X0133494Y0189825D01*
X0133452Y0189835D01*
X0133412Y0189847D01*
X0133372Y0189864D01*
X0133335Y0189884D01*
X0133299Y0189906D01*
X0133265Y0189932D01*
X0133233Y0189961D01*
X0133204Y0189993D01*
X0133178Y0190027D01*
X0133156Y0190063D01*
X0133136Y0190100D01*
X0133119Y0190140D01*
X0133107Y0190180D01*
X0133097Y0190222D01*
X0133092Y0190264D01*
X0133090Y0190307D01*
X0133090Y0190796D01*
X0133090Y0191624D02*
X0133090Y0192847D01*
X0133090Y0192236D02*
X0135290Y0192236D01*
X0134801Y0191624D01*
X0135290Y0193784D02*
X0135290Y0194518D01*
X0135288Y0194561D01*
X0135283Y0194603D01*
X0135273Y0194645D01*
X0135261Y0194685D01*
X0135244Y0194725D01*
X0135224Y0194763D01*
X0135202Y0194798D01*
X0135176Y0194832D01*
X0135147Y0194864D01*
X0135115Y0194893D01*
X0135081Y0194919D01*
X0135046Y0194941D01*
X0135008Y0194961D01*
X0134968Y0194978D01*
X0134928Y0194990D01*
X0134886Y0195000D01*
X0134844Y0195005D01*
X0134801Y0195007D01*
X0134758Y0195005D01*
X0134716Y0195000D01*
X0134674Y0194990D01*
X0134634Y0194978D01*
X0134594Y0194961D01*
X0134557Y0194941D01*
X0134521Y0194919D01*
X0134487Y0194893D01*
X0134455Y0194864D01*
X0134426Y0194832D01*
X0134400Y0194798D01*
X0134378Y0194763D01*
X0134358Y0194725D01*
X0134341Y0194685D01*
X0134329Y0194645D01*
X0134319Y0194603D01*
X0134314Y0194561D01*
X0134312Y0194518D01*
X0134312Y0194029D01*
X0134312Y0194396D02*
X0134310Y0194444D01*
X0134304Y0194492D01*
X0134295Y0194539D01*
X0134282Y0194585D01*
X0134265Y0194630D01*
X0134245Y0194673D01*
X0134222Y0194715D01*
X0134195Y0194755D01*
X0134166Y0194793D01*
X0134133Y0194828D01*
X0134098Y0194861D01*
X0134060Y0194890D01*
X0134020Y0194917D01*
X0133978Y0194940D01*
X0133935Y0194960D01*
X0133890Y0194977D01*
X0133844Y0194990D01*
X0133797Y0194999D01*
X0133749Y0195005D01*
X0133701Y0195007D01*
X0133653Y0195005D01*
X0133605Y0194999D01*
X0133558Y0194990D01*
X0133512Y0194977D01*
X0133467Y0194960D01*
X0133424Y0194940D01*
X0133382Y0194917D01*
X0133342Y0194890D01*
X0133304Y0194861D01*
X0133269Y0194828D01*
X0133236Y0194793D01*
X0133207Y0194755D01*
X0133180Y0194715D01*
X0133157Y0194673D01*
X0133137Y0194630D01*
X0133120Y0194585D01*
X0133107Y0194539D01*
X0133098Y0194492D01*
X0133092Y0194444D01*
X0133090Y0194396D01*
X0133090Y0193784D01*
X0127416Y0192236D02*
X0125216Y0192236D01*
X0125216Y0192847D02*
X0125216Y0191624D01*
X0125216Y0190796D02*
X0125216Y0190307D01*
X0125218Y0190264D01*
X0125223Y0190222D01*
X0125233Y0190180D01*
X0125245Y0190140D01*
X0125262Y0190100D01*
X0125282Y0190063D01*
X0125304Y0190027D01*
X0125330Y0189993D01*
X0125359Y0189961D01*
X0125391Y0189932D01*
X0125425Y0189906D01*
X0125461Y0189884D01*
X0125498Y0189864D01*
X0125538Y0189847D01*
X0125578Y0189835D01*
X0125620Y0189825D01*
X0125662Y0189820D01*
X0125705Y0189818D01*
X0126927Y0189818D01*
X0126970Y0189820D01*
X0127012Y0189825D01*
X0127054Y0189835D01*
X0127094Y0189847D01*
X0127134Y0189864D01*
X0127171Y0189884D01*
X0127207Y0189906D01*
X0127241Y0189932D01*
X0127273Y0189961D01*
X0127302Y0189993D01*
X0127328Y0190027D01*
X0127350Y0190062D01*
X0127370Y0190100D01*
X0127387Y0190140D01*
X0127399Y0190180D01*
X0127409Y0190222D01*
X0127414Y0190264D01*
X0127416Y0190307D01*
X0127416Y0190796D01*
X0126927Y0191624D02*
X0127416Y0192236D01*
X0126438Y0194824D02*
X0126472Y0194857D01*
X0126509Y0194887D01*
X0126549Y0194915D01*
X0126590Y0194939D01*
X0126633Y0194959D01*
X0126678Y0194976D01*
X0126724Y0194990D01*
X0126771Y0194999D01*
X0126818Y0195005D01*
X0126866Y0195007D01*
X0126438Y0194823D02*
X0125216Y0193784D01*
X0125216Y0195007D01*
X0126927Y0193784D02*
X0126976Y0193802D01*
X0127024Y0193824D01*
X0127070Y0193849D01*
X0127113Y0193877D01*
X0127155Y0193909D01*
X0127195Y0193943D01*
X0127231Y0193980D01*
X0127265Y0194020D01*
X0127296Y0194063D01*
X0127323Y0194107D01*
X0127347Y0194153D01*
X0127368Y0194201D01*
X0127385Y0194251D01*
X0127399Y0194301D01*
X0127408Y0194353D01*
X0127414Y0194405D01*
X0127416Y0194457D01*
X0127414Y0194502D01*
X0127408Y0194548D01*
X0127399Y0194592D01*
X0127386Y0194636D01*
X0127370Y0194678D01*
X0127350Y0194719D01*
X0127326Y0194758D01*
X0127300Y0194795D01*
X0127271Y0194830D01*
X0127239Y0194862D01*
X0127204Y0194891D01*
X0127167Y0194917D01*
X0127128Y0194941D01*
X0127087Y0194961D01*
X0127045Y0194977D01*
X0127001Y0194990D01*
X0126957Y0194999D01*
X0126911Y0195005D01*
X0126866Y0195007D01*
X0119542Y0194396D02*
X0119540Y0194436D01*
X0119535Y0194476D01*
X0119526Y0194515D01*
X0119514Y0194553D01*
X0119498Y0194590D01*
X0119480Y0194625D01*
X0119458Y0194659D01*
X0119433Y0194690D01*
X0119406Y0194719D01*
X0119376Y0194746D01*
X0119344Y0194770D01*
X0119310Y0194791D01*
X0119274Y0194809D01*
X0119237Y0194824D01*
X0119053Y0194884D02*
X0117831Y0193907D01*
X0117647Y0193968D02*
X0117610Y0193983D01*
X0117574Y0194001D01*
X0117540Y0194022D01*
X0117508Y0194046D01*
X0117478Y0194073D01*
X0117451Y0194102D01*
X0117426Y0194133D01*
X0117404Y0194167D01*
X0117386Y0194202D01*
X0117370Y0194239D01*
X0117358Y0194277D01*
X0117349Y0194316D01*
X0117344Y0194356D01*
X0117342Y0194396D01*
X0117344Y0194436D01*
X0117349Y0194476D01*
X0117358Y0194515D01*
X0117370Y0194553D01*
X0117386Y0194590D01*
X0117404Y0194625D01*
X0117426Y0194659D01*
X0117451Y0194690D01*
X0117478Y0194719D01*
X0117508Y0194746D01*
X0117540Y0194770D01*
X0117574Y0194791D01*
X0117610Y0194809D01*
X0117647Y0194824D01*
X0118442Y0193784D02*
X0118524Y0193786D01*
X0118606Y0193791D01*
X0118688Y0193801D01*
X0118769Y0193814D01*
X0118850Y0193830D01*
X0118929Y0193851D01*
X0119008Y0193875D01*
X0119086Y0193902D01*
X0119162Y0193933D01*
X0119236Y0193967D01*
X0119237Y0193968D02*
X0119274Y0193983D01*
X0119310Y0194001D01*
X0119344Y0194022D01*
X0119376Y0194046D01*
X0119406Y0194073D01*
X0119433Y0194102D01*
X0119458Y0194133D01*
X0119480Y0194167D01*
X0119498Y0194202D01*
X0119514Y0194239D01*
X0119526Y0194277D01*
X0119535Y0194316D01*
X0119540Y0194356D01*
X0119542Y0194396D01*
X0118442Y0193785D02*
X0118360Y0193787D01*
X0118278Y0193792D01*
X0118196Y0193802D01*
X0118115Y0193815D01*
X0118034Y0193831D01*
X0117955Y0193852D01*
X0117876Y0193876D01*
X0117798Y0193903D01*
X0117722Y0193934D01*
X0117648Y0193968D01*
X0118442Y0195007D02*
X0118524Y0195005D01*
X0118606Y0195000D01*
X0118688Y0194990D01*
X0118769Y0194977D01*
X0118850Y0194961D01*
X0118929Y0194940D01*
X0119008Y0194916D01*
X0119086Y0194889D01*
X0119162Y0194858D01*
X0119236Y0194824D01*
X0118442Y0195007D02*
X0118360Y0195005D01*
X0118278Y0195000D01*
X0118196Y0194990D01*
X0118115Y0194977D01*
X0118034Y0194961D01*
X0117955Y0194940D01*
X0117876Y0194916D01*
X0117798Y0194889D01*
X0117722Y0194858D01*
X0117648Y0194824D01*
X0117342Y0192847D02*
X0117342Y0191624D01*
X0117342Y0192236D02*
X0119542Y0192236D01*
X0119053Y0191624D01*
X0119542Y0190796D02*
X0119542Y0190307D01*
X0119540Y0190264D01*
X0119535Y0190222D01*
X0119525Y0190180D01*
X0119513Y0190140D01*
X0119496Y0190100D01*
X0119476Y0190062D01*
X0119454Y0190027D01*
X0119428Y0189993D01*
X0119399Y0189961D01*
X0119367Y0189932D01*
X0119333Y0189906D01*
X0119297Y0189884D01*
X0119260Y0189864D01*
X0119220Y0189847D01*
X0119180Y0189835D01*
X0119138Y0189825D01*
X0119096Y0189820D01*
X0119053Y0189818D01*
X0117831Y0189818D01*
X0117788Y0189820D01*
X0117746Y0189825D01*
X0117704Y0189835D01*
X0117664Y0189847D01*
X0117624Y0189864D01*
X0117587Y0189884D01*
X0117551Y0189906D01*
X0117517Y0189932D01*
X0117485Y0189961D01*
X0117456Y0189993D01*
X0117430Y0190027D01*
X0117408Y0190063D01*
X0117388Y0190100D01*
X0117371Y0190140D01*
X0117359Y0190180D01*
X0117349Y0190222D01*
X0117344Y0190264D01*
X0117342Y0190307D01*
X0117342Y0190796D01*
X0111668Y0190796D02*
X0111668Y0190307D01*
X0111666Y0190264D01*
X0111661Y0190222D01*
X0111651Y0190180D01*
X0111639Y0190140D01*
X0111622Y0190100D01*
X0111602Y0190062D01*
X0111580Y0190027D01*
X0111554Y0189993D01*
X0111525Y0189961D01*
X0111493Y0189932D01*
X0111459Y0189906D01*
X0111423Y0189884D01*
X0111386Y0189864D01*
X0111346Y0189847D01*
X0111306Y0189835D01*
X0111264Y0189825D01*
X0111222Y0189820D01*
X0111179Y0189818D01*
X0109957Y0189818D01*
X0109914Y0189820D01*
X0109872Y0189825D01*
X0109830Y0189835D01*
X0109790Y0189847D01*
X0109750Y0189864D01*
X0109713Y0189884D01*
X0109677Y0189906D01*
X0109643Y0189932D01*
X0109611Y0189961D01*
X0109582Y0189993D01*
X0109556Y0190027D01*
X0109534Y0190063D01*
X0109514Y0190100D01*
X0109497Y0190140D01*
X0109485Y0190180D01*
X0109475Y0190222D01*
X0109470Y0190264D01*
X0109468Y0190307D01*
X0109468Y0190796D01*
X0109468Y0191624D02*
X0109468Y0192847D01*
X0109468Y0192236D02*
X0111668Y0192236D01*
X0111179Y0191624D01*
X0111179Y0193784D02*
X0111668Y0194396D01*
X0109468Y0194396D01*
X0109468Y0195007D02*
X0109468Y0193784D01*
X0126028Y0072280D02*
X0126639Y0072280D01*
X0126028Y0072280D02*
X0126028Y0071546D01*
X0126028Y0072280D02*
X0125967Y0072278D01*
X0125905Y0072272D01*
X0125845Y0072263D01*
X0125785Y0072249D01*
X0125726Y0072232D01*
X0125668Y0072211D01*
X0125612Y0072187D01*
X0125557Y0072159D01*
X0125504Y0072128D01*
X0125453Y0072093D01*
X0125405Y0072056D01*
X0125359Y0072015D01*
X0125315Y0071971D01*
X0125274Y0071925D01*
X0125237Y0071877D01*
X0125202Y0071826D01*
X0125171Y0071773D01*
X0125143Y0071718D01*
X0125119Y0071662D01*
X0125098Y0071604D01*
X0125081Y0071545D01*
X0125067Y0071485D01*
X0125058Y0071425D01*
X0125052Y0071363D01*
X0125050Y0071302D01*
X0125539Y0070120D02*
X0125539Y0068897D01*
X0127250Y0069386D01*
X0126028Y0069753D02*
X0125050Y0069753D01*
X0125050Y0067974D02*
X0126028Y0067485D01*
X0126028Y0067363D02*
X0126028Y0066752D01*
X0126028Y0067363D02*
X0126030Y0067411D01*
X0126036Y0067459D01*
X0126045Y0067506D01*
X0126058Y0067552D01*
X0126075Y0067597D01*
X0126095Y0067640D01*
X0126118Y0067682D01*
X0126145Y0067722D01*
X0126174Y0067760D01*
X0126207Y0067795D01*
X0126242Y0067828D01*
X0126280Y0067857D01*
X0126320Y0067884D01*
X0126362Y0067907D01*
X0126405Y0067927D01*
X0126450Y0067944D01*
X0126496Y0067957D01*
X0126543Y0067966D01*
X0126591Y0067972D01*
X0126639Y0067974D01*
X0126687Y0067972D01*
X0126735Y0067966D01*
X0126782Y0067957D01*
X0126828Y0067944D01*
X0126873Y0067927D01*
X0126916Y0067907D01*
X0126958Y0067884D01*
X0126998Y0067857D01*
X0127036Y0067828D01*
X0127071Y0067795D01*
X0127104Y0067760D01*
X0127133Y0067722D01*
X0127160Y0067682D01*
X0127183Y0067640D01*
X0127203Y0067597D01*
X0127220Y0067552D01*
X0127233Y0067506D01*
X0127242Y0067459D01*
X0127248Y0067411D01*
X0127250Y0067363D01*
X0127250Y0066752D01*
X0125050Y0066752D01*
X0126517Y0071057D02*
X0126639Y0071057D01*
X0126517Y0071057D02*
X0126474Y0071059D01*
X0126432Y0071064D01*
X0126390Y0071074D01*
X0126350Y0071086D01*
X0126310Y0071103D01*
X0126273Y0071123D01*
X0126237Y0071145D01*
X0126203Y0071171D01*
X0126171Y0071200D01*
X0126142Y0071232D01*
X0126116Y0071266D01*
X0126094Y0071301D01*
X0126074Y0071339D01*
X0126057Y0071379D01*
X0126045Y0071419D01*
X0126035Y0071461D01*
X0126030Y0071503D01*
X0126028Y0071546D01*
X0126639Y0071057D02*
X0126687Y0071059D01*
X0126735Y0071065D01*
X0126782Y0071074D01*
X0126828Y0071087D01*
X0126873Y0071104D01*
X0126916Y0071124D01*
X0126958Y0071147D01*
X0126998Y0071174D01*
X0127036Y0071203D01*
X0127071Y0071236D01*
X0127104Y0071271D01*
X0127133Y0071309D01*
X0127160Y0071349D01*
X0127183Y0071391D01*
X0127203Y0071434D01*
X0127220Y0071479D01*
X0127233Y0071525D01*
X0127242Y0071572D01*
X0127248Y0071620D01*
X0127250Y0071668D01*
X0127248Y0071716D01*
X0127242Y0071764D01*
X0127233Y0071811D01*
X0127220Y0071857D01*
X0127203Y0071902D01*
X0127183Y0071945D01*
X0127160Y0071987D01*
X0127133Y0072027D01*
X0127104Y0072065D01*
X0127071Y0072100D01*
X0127036Y0072133D01*
X0126998Y0072162D01*
X0126958Y0072189D01*
X0126916Y0072212D01*
X0126873Y0072232D01*
X0126828Y0072249D01*
X0126782Y0072262D01*
X0126735Y0072271D01*
X0126687Y0072277D01*
X0126639Y0072279D01*
X0106754Y0066042D02*
X0105043Y0065553D01*
X0105043Y0066775D01*
X0105532Y0066409D02*
X0104554Y0066409D01*
X0104554Y0064615D02*
X0104554Y0063393D01*
X0104554Y0064004D02*
X0106754Y0064004D01*
X0106265Y0063393D01*
X0106754Y0061858D02*
X0106752Y0061906D01*
X0106746Y0061954D01*
X0106737Y0062001D01*
X0106724Y0062047D01*
X0106707Y0062092D01*
X0106687Y0062135D01*
X0106664Y0062177D01*
X0106637Y0062217D01*
X0106608Y0062255D01*
X0106575Y0062290D01*
X0106540Y0062323D01*
X0106502Y0062352D01*
X0106462Y0062379D01*
X0106420Y0062402D01*
X0106377Y0062422D01*
X0106332Y0062439D01*
X0106286Y0062452D01*
X0106239Y0062461D01*
X0106191Y0062467D01*
X0106143Y0062469D01*
X0106095Y0062467D01*
X0106047Y0062461D01*
X0106000Y0062452D01*
X0105954Y0062439D01*
X0105909Y0062422D01*
X0105866Y0062402D01*
X0105824Y0062379D01*
X0105784Y0062352D01*
X0105746Y0062323D01*
X0105711Y0062290D01*
X0105678Y0062255D01*
X0105649Y0062217D01*
X0105622Y0062177D01*
X0105599Y0062135D01*
X0105579Y0062092D01*
X0105562Y0062047D01*
X0105549Y0062001D01*
X0105540Y0061954D01*
X0105534Y0061906D01*
X0105532Y0061858D01*
X0105532Y0061247D01*
X0105532Y0061981D02*
X0104554Y0062469D01*
X0104554Y0061247D02*
X0106754Y0061247D01*
X0106754Y0061858D01*
X0114397Y0053031D02*
X0115375Y0053031D01*
X0114886Y0053397D02*
X0114886Y0052175D01*
X0116597Y0052664D01*
X0116597Y0050626D02*
X0114397Y0050626D01*
X0114397Y0050015D02*
X0114397Y0051237D01*
X0116108Y0050015D02*
X0116597Y0050626D01*
X0116597Y0048571D02*
X0116597Y0047960D01*
X0114397Y0047960D01*
X0115375Y0047960D02*
X0115375Y0048571D01*
X0115377Y0048619D01*
X0115383Y0048667D01*
X0115392Y0048714D01*
X0115405Y0048760D01*
X0115422Y0048805D01*
X0115442Y0048848D01*
X0115465Y0048890D01*
X0115492Y0048930D01*
X0115521Y0048968D01*
X0115554Y0049003D01*
X0115589Y0049036D01*
X0115627Y0049065D01*
X0115667Y0049092D01*
X0115709Y0049115D01*
X0115752Y0049135D01*
X0115797Y0049152D01*
X0115843Y0049165D01*
X0115890Y0049174D01*
X0115938Y0049180D01*
X0115986Y0049182D01*
X0116034Y0049180D01*
X0116082Y0049174D01*
X0116129Y0049165D01*
X0116175Y0049152D01*
X0116220Y0049135D01*
X0116263Y0049115D01*
X0116305Y0049092D01*
X0116345Y0049065D01*
X0116383Y0049036D01*
X0116418Y0049003D01*
X0116451Y0048968D01*
X0116480Y0048930D01*
X0116507Y0048890D01*
X0116530Y0048848D01*
X0116550Y0048805D01*
X0116567Y0048760D01*
X0116580Y0048714D01*
X0116589Y0048667D01*
X0116595Y0048619D01*
X0116597Y0048571D01*
X0120302Y0047960D02*
X0122502Y0047960D01*
X0122502Y0048571D01*
X0122500Y0048619D01*
X0122494Y0048667D01*
X0122485Y0048714D01*
X0122472Y0048760D01*
X0122455Y0048805D01*
X0122435Y0048848D01*
X0122412Y0048890D01*
X0122385Y0048930D01*
X0122356Y0048968D01*
X0122323Y0049003D01*
X0122288Y0049036D01*
X0122250Y0049065D01*
X0122210Y0049092D01*
X0122168Y0049115D01*
X0122125Y0049135D01*
X0122080Y0049152D01*
X0122034Y0049165D01*
X0121987Y0049174D01*
X0121939Y0049180D01*
X0121891Y0049182D01*
X0121843Y0049180D01*
X0121795Y0049174D01*
X0121748Y0049165D01*
X0121702Y0049152D01*
X0121657Y0049135D01*
X0121614Y0049115D01*
X0121572Y0049092D01*
X0121532Y0049065D01*
X0121494Y0049036D01*
X0121459Y0049003D01*
X0121426Y0048968D01*
X0121397Y0048930D01*
X0121370Y0048890D01*
X0121347Y0048848D01*
X0121327Y0048805D01*
X0121310Y0048760D01*
X0121297Y0048714D01*
X0121288Y0048667D01*
X0121282Y0048619D01*
X0121280Y0048571D01*
X0121280Y0047960D01*
X0122013Y0050015D02*
X0122502Y0050626D01*
X0120302Y0050626D01*
X0120302Y0050015D02*
X0120302Y0051237D01*
X0120302Y0052175D02*
X0120302Y0052908D01*
X0120304Y0052951D01*
X0120309Y0052993D01*
X0120319Y0053035D01*
X0120331Y0053075D01*
X0120348Y0053115D01*
X0120368Y0053152D01*
X0120390Y0053188D01*
X0120416Y0053222D01*
X0120445Y0053254D01*
X0120477Y0053283D01*
X0120511Y0053309D01*
X0120546Y0053331D01*
X0120584Y0053351D01*
X0120624Y0053368D01*
X0120664Y0053380D01*
X0120706Y0053390D01*
X0120748Y0053395D01*
X0120791Y0053397D01*
X0121036Y0053397D01*
X0121079Y0053395D01*
X0121121Y0053390D01*
X0121163Y0053380D01*
X0121203Y0053368D01*
X0121243Y0053351D01*
X0121281Y0053331D01*
X0121316Y0053309D01*
X0121350Y0053283D01*
X0121382Y0053254D01*
X0121411Y0053222D01*
X0121437Y0053188D01*
X0121459Y0053153D01*
X0121479Y0053115D01*
X0121496Y0053075D01*
X0121508Y0053035D01*
X0121518Y0052993D01*
X0121523Y0052951D01*
X0121525Y0052908D01*
X0121525Y0052175D01*
X0122502Y0052175D01*
X0122502Y0053397D01*
X0126208Y0051237D02*
X0126208Y0050015D01*
X0126208Y0050626D02*
X0128408Y0050626D01*
X0127919Y0050015D01*
X0128408Y0048571D02*
X0128406Y0048619D01*
X0128400Y0048667D01*
X0128391Y0048714D01*
X0128378Y0048760D01*
X0128361Y0048805D01*
X0128341Y0048848D01*
X0128318Y0048890D01*
X0128291Y0048930D01*
X0128262Y0048968D01*
X0128229Y0049003D01*
X0128194Y0049036D01*
X0128156Y0049065D01*
X0128116Y0049092D01*
X0128074Y0049115D01*
X0128031Y0049135D01*
X0127986Y0049152D01*
X0127940Y0049165D01*
X0127893Y0049174D01*
X0127845Y0049180D01*
X0127797Y0049182D01*
X0127749Y0049180D01*
X0127701Y0049174D01*
X0127654Y0049165D01*
X0127608Y0049152D01*
X0127563Y0049135D01*
X0127520Y0049115D01*
X0127478Y0049092D01*
X0127438Y0049065D01*
X0127400Y0049036D01*
X0127365Y0049003D01*
X0127332Y0048968D01*
X0127303Y0048930D01*
X0127276Y0048890D01*
X0127253Y0048848D01*
X0127233Y0048805D01*
X0127216Y0048760D01*
X0127203Y0048714D01*
X0127194Y0048667D01*
X0127188Y0048619D01*
X0127186Y0048571D01*
X0127186Y0047960D01*
X0126208Y0047960D02*
X0128408Y0047960D01*
X0128408Y0048571D01*
X0127430Y0052175D02*
X0126819Y0052175D01*
X0127430Y0052175D02*
X0127430Y0052908D01*
X0127430Y0052175D02*
X0127491Y0052177D01*
X0127553Y0052183D01*
X0127613Y0052192D01*
X0127673Y0052206D01*
X0127732Y0052223D01*
X0127790Y0052244D01*
X0127846Y0052268D01*
X0127901Y0052296D01*
X0127954Y0052327D01*
X0128005Y0052362D01*
X0128053Y0052399D01*
X0128099Y0052440D01*
X0128143Y0052484D01*
X0128184Y0052530D01*
X0128221Y0052578D01*
X0128256Y0052629D01*
X0128287Y0052682D01*
X0128315Y0052737D01*
X0128339Y0052793D01*
X0128360Y0052851D01*
X0128377Y0052910D01*
X0128391Y0052970D01*
X0128400Y0053030D01*
X0128406Y0053092D01*
X0128408Y0053153D01*
X0126941Y0053397D02*
X0126819Y0053397D01*
X0126941Y0053397D02*
X0126984Y0053395D01*
X0127026Y0053390D01*
X0127068Y0053380D01*
X0127108Y0053368D01*
X0127148Y0053351D01*
X0127186Y0053331D01*
X0127221Y0053309D01*
X0127255Y0053283D01*
X0127287Y0053254D01*
X0127316Y0053222D01*
X0127342Y0053188D01*
X0127364Y0053153D01*
X0127384Y0053115D01*
X0127401Y0053075D01*
X0127413Y0053035D01*
X0127423Y0052993D01*
X0127428Y0052951D01*
X0127430Y0052908D01*
X0126819Y0053397D02*
X0126771Y0053395D01*
X0126723Y0053389D01*
X0126676Y0053380D01*
X0126630Y0053367D01*
X0126585Y0053350D01*
X0126542Y0053330D01*
X0126500Y0053307D01*
X0126460Y0053280D01*
X0126422Y0053251D01*
X0126387Y0053218D01*
X0126354Y0053183D01*
X0126325Y0053145D01*
X0126298Y0053105D01*
X0126275Y0053063D01*
X0126255Y0053020D01*
X0126238Y0052975D01*
X0126225Y0052929D01*
X0126216Y0052882D01*
X0126210Y0052834D01*
X0126208Y0052786D01*
X0126210Y0052738D01*
X0126216Y0052690D01*
X0126225Y0052643D01*
X0126238Y0052597D01*
X0126255Y0052552D01*
X0126275Y0052509D01*
X0126298Y0052467D01*
X0126325Y0052427D01*
X0126354Y0052389D01*
X0126387Y0052354D01*
X0126422Y0052321D01*
X0126460Y0052292D01*
X0126500Y0052265D01*
X0126542Y0052242D01*
X0126585Y0052222D01*
X0126630Y0052205D01*
X0126676Y0052192D01*
X0126723Y0052183D01*
X0126771Y0052177D01*
X0126819Y0052175D01*
X0132113Y0052786D02*
X0134313Y0053397D01*
X0134313Y0052175D01*
X0134069Y0052175D01*
X0134313Y0050626D02*
X0132113Y0050626D01*
X0132113Y0050015D02*
X0132113Y0051237D01*
X0133824Y0050015D02*
X0134313Y0050626D01*
X0134313Y0048571D02*
X0134313Y0047960D01*
X0132113Y0047960D01*
X0133091Y0047960D02*
X0133091Y0048571D01*
X0133093Y0048619D01*
X0133099Y0048667D01*
X0133108Y0048714D01*
X0133121Y0048760D01*
X0133138Y0048805D01*
X0133158Y0048848D01*
X0133181Y0048890D01*
X0133208Y0048930D01*
X0133237Y0048968D01*
X0133270Y0049003D01*
X0133305Y0049036D01*
X0133343Y0049065D01*
X0133383Y0049092D01*
X0133425Y0049115D01*
X0133468Y0049135D01*
X0133513Y0049152D01*
X0133559Y0049165D01*
X0133606Y0049174D01*
X0133654Y0049180D01*
X0133702Y0049182D01*
X0133750Y0049180D01*
X0133798Y0049174D01*
X0133845Y0049165D01*
X0133891Y0049152D01*
X0133936Y0049135D01*
X0133979Y0049115D01*
X0134021Y0049092D01*
X0134061Y0049065D01*
X0134099Y0049036D01*
X0134134Y0049003D01*
X0134167Y0048968D01*
X0134196Y0048930D01*
X0134223Y0048890D01*
X0134246Y0048848D01*
X0134266Y0048805D01*
X0134283Y0048760D01*
X0134296Y0048714D01*
X0134305Y0048667D01*
X0134311Y0048619D01*
X0134313Y0048571D01*
D14*
X0155225Y0172336D02*
X0155227Y0172365D01*
X0155233Y0172394D01*
X0155242Y0172422D01*
X0155255Y0172448D01*
X0155271Y0172472D01*
X0155291Y0172494D01*
X0155313Y0172514D01*
X0155337Y0172530D01*
X0155363Y0172543D01*
X0155391Y0172552D01*
X0155420Y0172558D01*
X0155449Y0172560D01*
X0155478Y0172558D01*
X0155507Y0172552D01*
X0155535Y0172543D01*
X0155561Y0172530D01*
X0155585Y0172514D01*
X0155607Y0172494D01*
X0155627Y0172472D01*
X0155643Y0172448D01*
X0155656Y0172422D01*
X0155665Y0172394D01*
X0155671Y0172365D01*
X0155673Y0172336D01*
X0155671Y0172307D01*
X0155665Y0172278D01*
X0155656Y0172250D01*
X0155643Y0172224D01*
X0155627Y0172200D01*
X0155607Y0172178D01*
X0155585Y0172158D01*
X0155561Y0172142D01*
X0155535Y0172129D01*
X0155507Y0172120D01*
X0155478Y0172114D01*
X0155449Y0172112D01*
X0155420Y0172114D01*
X0155391Y0172120D01*
X0155363Y0172129D01*
X0155337Y0172142D01*
X0155313Y0172158D01*
X0155291Y0172178D01*
X0155271Y0172200D01*
X0155255Y0172224D01*
X0155242Y0172250D01*
X0155233Y0172278D01*
X0155227Y0172307D01*
X0155225Y0172336D01*
D15*
X0159949Y0174386D03*
D16*
X0162230Y0161836D02*
X0162230Y0158293D01*
X0165773Y0158293D01*
X0165773Y0161836D01*
X0162230Y0161836D01*
M02*
