G75*
%MOIN*%
%OFA0B0*%
%FSLAX25Y25*%
%IPPOS*%
%LPD*%
%AMOC8*
5,1,8,0,0,1.08239X$1,22.5*
%
%ADD10C,0.00000*%
%ADD11C,0.00039*%
%ADD12R,0.05906X0.05118*%
%ADD13R,0.03543X0.02756*%
%ADD14R,0.02362X0.03150*%
%ADD15C,0.04331*%
%ADD16R,0.03937X0.04331*%
%ADD17C,0.03937*%
%ADD18R,0.02756X0.03543*%
%ADD19C,0.00827*%
%ADD20C,0.06600*%
%ADD21R,0.03937X0.03937*%
%ADD22C,0.00600*%
%ADD23C,0.00800*%
%ADD24C,0.01929*%
%ADD25C,0.01200*%
%ADD26C,0.00200*%
%ADD27C,0.01709*%
%ADD28C,0.01000*%
%ADD29C,0.00400*%
D10*
X0073943Y0027191D02*
X0216659Y0027191D01*
X0178274Y0119711D02*
X0178317Y0122928D01*
X0178438Y0126143D01*
X0178637Y0129354D01*
X0178915Y0132559D01*
X0179271Y0135756D01*
X0179705Y0138944D01*
X0180216Y0142120D01*
X0180805Y0145283D01*
X0181471Y0148431D01*
X0182214Y0151561D01*
X0183032Y0154672D01*
X0183927Y0157763D01*
X0184896Y0160830D01*
X0185941Y0163873D01*
X0187059Y0166890D01*
X0188250Y0169878D01*
X0189514Y0172837D01*
X0190850Y0175764D01*
X0192257Y0178657D01*
X0193734Y0181515D01*
X0195280Y0184336D01*
X0196895Y0187119D01*
X0198577Y0189861D01*
X0200326Y0192562D01*
X0202140Y0195219D01*
X0204018Y0197831D01*
X0205960Y0200396D01*
X0207964Y0202913D01*
X0210028Y0205381D01*
X0212152Y0207797D01*
X0214334Y0210161D01*
X0216574Y0212471D01*
X0218869Y0214725D01*
X0221219Y0216923D01*
X0223621Y0219063D01*
X0226075Y0221143D01*
X0228579Y0223163D01*
X0231131Y0225121D01*
X0233731Y0227017D01*
X0236376Y0228848D01*
X0239065Y0230615D01*
X0241796Y0232315D01*
X0244568Y0233948D01*
X0247379Y0235512D01*
X0250228Y0237008D01*
X0253112Y0238434D01*
X0256030Y0239789D01*
X0256029Y0239789D02*
X0034572Y0239789D01*
X0112328Y0119710D02*
X0112279Y0116500D01*
X0112151Y0113291D01*
X0111945Y0110087D01*
X0111661Y0106888D01*
X0111299Y0103698D01*
X0110860Y0100517D01*
X0110343Y0097348D01*
X0109749Y0094193D01*
X0109078Y0091053D01*
X0108331Y0087930D01*
X0107508Y0084826D01*
X0106610Y0081743D01*
X0105637Y0078684D01*
X0104589Y0075648D01*
X0103468Y0072639D01*
X0102273Y0069659D01*
X0101007Y0066708D01*
X0099669Y0063789D01*
X0098260Y0060904D01*
X0096781Y0058054D01*
X0095233Y0055241D01*
X0093617Y0052466D01*
X0091934Y0049731D01*
X0090185Y0047039D01*
X0088371Y0044390D01*
X0086492Y0041785D01*
X0084551Y0039228D01*
X0082548Y0036718D01*
X0080484Y0034258D01*
X0078361Y0031849D01*
X0076180Y0029493D01*
X0073942Y0027190D01*
X0112328Y0119711D02*
X0112285Y0122928D01*
X0112164Y0126143D01*
X0111965Y0129354D01*
X0111687Y0132559D01*
X0111331Y0135756D01*
X0110897Y0138944D01*
X0110386Y0142120D01*
X0109797Y0145283D01*
X0109131Y0148431D01*
X0108388Y0151561D01*
X0107570Y0154672D01*
X0106675Y0157763D01*
X0105706Y0160830D01*
X0104661Y0163873D01*
X0103543Y0166890D01*
X0102352Y0169878D01*
X0101088Y0172837D01*
X0099752Y0175764D01*
X0098345Y0178657D01*
X0096868Y0181515D01*
X0095322Y0184336D01*
X0093707Y0187119D01*
X0092025Y0189861D01*
X0090276Y0192562D01*
X0088462Y0195219D01*
X0086584Y0197831D01*
X0084642Y0200396D01*
X0082638Y0202913D01*
X0080574Y0205381D01*
X0078450Y0207797D01*
X0076268Y0210161D01*
X0074028Y0212471D01*
X0071733Y0214725D01*
X0069383Y0216923D01*
X0066981Y0219063D01*
X0064527Y0221143D01*
X0062023Y0223163D01*
X0059471Y0225121D01*
X0056871Y0227017D01*
X0054226Y0228848D01*
X0051537Y0230615D01*
X0048806Y0232315D01*
X0046034Y0233948D01*
X0043223Y0235512D01*
X0040374Y0237008D01*
X0037490Y0238434D01*
X0034572Y0239789D01*
X0178273Y0119710D02*
X0178322Y0116500D01*
X0178450Y0113291D01*
X0178656Y0110087D01*
X0178940Y0106888D01*
X0179302Y0103698D01*
X0179741Y0100517D01*
X0180258Y0097348D01*
X0180852Y0094193D01*
X0181523Y0091053D01*
X0182270Y0087930D01*
X0183093Y0084826D01*
X0183991Y0081743D01*
X0184964Y0078684D01*
X0186012Y0075648D01*
X0187133Y0072639D01*
X0188328Y0069659D01*
X0189594Y0066708D01*
X0190932Y0063789D01*
X0192341Y0060904D01*
X0193820Y0058054D01*
X0195368Y0055241D01*
X0196984Y0052466D01*
X0198667Y0049731D01*
X0200416Y0047039D01*
X0202230Y0044390D01*
X0204109Y0041785D01*
X0206050Y0039228D01*
X0208053Y0036718D01*
X0210117Y0034258D01*
X0212240Y0031849D01*
X0214421Y0029493D01*
X0216659Y0027190D01*
D11*
X0186836Y0039002D02*
X0186838Y0039142D01*
X0186844Y0039282D01*
X0186854Y0039421D01*
X0186868Y0039560D01*
X0186886Y0039699D01*
X0186907Y0039837D01*
X0186933Y0039975D01*
X0186963Y0040112D01*
X0186996Y0040247D01*
X0187034Y0040382D01*
X0187075Y0040516D01*
X0187120Y0040649D01*
X0187168Y0040780D01*
X0187221Y0040909D01*
X0187277Y0041038D01*
X0187336Y0041164D01*
X0187400Y0041289D01*
X0187466Y0041412D01*
X0187537Y0041533D01*
X0187610Y0041652D01*
X0187687Y0041769D01*
X0187768Y0041883D01*
X0187851Y0041995D01*
X0187938Y0042105D01*
X0188028Y0042213D01*
X0188120Y0042317D01*
X0188216Y0042419D01*
X0188315Y0042519D01*
X0188416Y0042615D01*
X0188520Y0042709D01*
X0188627Y0042799D01*
X0188736Y0042886D01*
X0188848Y0042971D01*
X0188962Y0043052D01*
X0189078Y0043130D01*
X0189196Y0043204D01*
X0189317Y0043275D01*
X0189439Y0043343D01*
X0189564Y0043407D01*
X0189690Y0043468D01*
X0189817Y0043525D01*
X0189947Y0043578D01*
X0190078Y0043628D01*
X0190210Y0043673D01*
X0190343Y0043716D01*
X0190478Y0043754D01*
X0190613Y0043788D01*
X0190750Y0043819D01*
X0190887Y0043846D01*
X0191025Y0043868D01*
X0191164Y0043887D01*
X0191303Y0043902D01*
X0191442Y0043913D01*
X0191582Y0043920D01*
X0191722Y0043923D01*
X0191862Y0043922D01*
X0192002Y0043917D01*
X0192141Y0043908D01*
X0192281Y0043895D01*
X0192420Y0043878D01*
X0192558Y0043857D01*
X0192696Y0043833D01*
X0192833Y0043804D01*
X0192969Y0043772D01*
X0193104Y0043735D01*
X0193238Y0043695D01*
X0193371Y0043651D01*
X0193502Y0043603D01*
X0193632Y0043552D01*
X0193761Y0043497D01*
X0193888Y0043438D01*
X0194013Y0043375D01*
X0194136Y0043310D01*
X0194258Y0043240D01*
X0194377Y0043167D01*
X0194495Y0043091D01*
X0194610Y0043012D01*
X0194723Y0042929D01*
X0194833Y0042843D01*
X0194941Y0042754D01*
X0195046Y0042662D01*
X0195149Y0042567D01*
X0195249Y0042469D01*
X0195346Y0042369D01*
X0195440Y0042265D01*
X0195532Y0042159D01*
X0195620Y0042051D01*
X0195705Y0041940D01*
X0195787Y0041826D01*
X0195866Y0041710D01*
X0195941Y0041593D01*
X0196013Y0041473D01*
X0196081Y0041351D01*
X0196146Y0041227D01*
X0196208Y0041101D01*
X0196266Y0040974D01*
X0196320Y0040845D01*
X0196371Y0040714D01*
X0196417Y0040582D01*
X0196460Y0040449D01*
X0196500Y0040315D01*
X0196535Y0040180D01*
X0196567Y0040043D01*
X0196594Y0039906D01*
X0196618Y0039768D01*
X0196638Y0039630D01*
X0196654Y0039491D01*
X0196666Y0039351D01*
X0196674Y0039212D01*
X0196678Y0039072D01*
X0196678Y0038932D01*
X0196674Y0038792D01*
X0196666Y0038653D01*
X0196654Y0038513D01*
X0196638Y0038374D01*
X0196618Y0038236D01*
X0196594Y0038098D01*
X0196567Y0037961D01*
X0196535Y0037824D01*
X0196500Y0037689D01*
X0196460Y0037555D01*
X0196417Y0037422D01*
X0196371Y0037290D01*
X0196320Y0037159D01*
X0196266Y0037030D01*
X0196208Y0036903D01*
X0196146Y0036777D01*
X0196081Y0036653D01*
X0196013Y0036531D01*
X0195941Y0036411D01*
X0195866Y0036294D01*
X0195787Y0036178D01*
X0195705Y0036064D01*
X0195620Y0035953D01*
X0195532Y0035845D01*
X0195440Y0035739D01*
X0195346Y0035635D01*
X0195249Y0035535D01*
X0195149Y0035437D01*
X0195046Y0035342D01*
X0194941Y0035250D01*
X0194833Y0035161D01*
X0194723Y0035075D01*
X0194610Y0034992D01*
X0194495Y0034913D01*
X0194377Y0034837D01*
X0194258Y0034764D01*
X0194136Y0034694D01*
X0194013Y0034629D01*
X0193888Y0034566D01*
X0193761Y0034507D01*
X0193632Y0034452D01*
X0193502Y0034401D01*
X0193371Y0034353D01*
X0193238Y0034309D01*
X0193104Y0034269D01*
X0192969Y0034232D01*
X0192833Y0034200D01*
X0192696Y0034171D01*
X0192558Y0034147D01*
X0192420Y0034126D01*
X0192281Y0034109D01*
X0192141Y0034096D01*
X0192002Y0034087D01*
X0191862Y0034082D01*
X0191722Y0034081D01*
X0191582Y0034084D01*
X0191442Y0034091D01*
X0191303Y0034102D01*
X0191164Y0034117D01*
X0191025Y0034136D01*
X0190887Y0034158D01*
X0190750Y0034185D01*
X0190613Y0034216D01*
X0190478Y0034250D01*
X0190343Y0034288D01*
X0190210Y0034331D01*
X0190078Y0034376D01*
X0189947Y0034426D01*
X0189817Y0034479D01*
X0189690Y0034536D01*
X0189564Y0034597D01*
X0189439Y0034661D01*
X0189317Y0034729D01*
X0189196Y0034800D01*
X0189078Y0034874D01*
X0188962Y0034952D01*
X0188848Y0035033D01*
X0188736Y0035118D01*
X0188627Y0035205D01*
X0188520Y0035295D01*
X0188416Y0035389D01*
X0188315Y0035485D01*
X0188216Y0035585D01*
X0188120Y0035687D01*
X0188028Y0035791D01*
X0187938Y0035899D01*
X0187851Y0036009D01*
X0187768Y0036121D01*
X0187687Y0036235D01*
X0187610Y0036352D01*
X0187537Y0036471D01*
X0187466Y0036592D01*
X0187400Y0036715D01*
X0187336Y0036840D01*
X0187277Y0036966D01*
X0187221Y0037095D01*
X0187168Y0037224D01*
X0187120Y0037355D01*
X0187075Y0037488D01*
X0187034Y0037622D01*
X0186996Y0037757D01*
X0186963Y0037892D01*
X0186933Y0038029D01*
X0186907Y0038167D01*
X0186886Y0038305D01*
X0186868Y0038444D01*
X0186854Y0038583D01*
X0186844Y0038722D01*
X0186838Y0038862D01*
X0186836Y0039002D01*
X0093923Y0039002D02*
X0093925Y0039142D01*
X0093931Y0039282D01*
X0093941Y0039421D01*
X0093955Y0039560D01*
X0093973Y0039699D01*
X0093994Y0039837D01*
X0094020Y0039975D01*
X0094050Y0040112D01*
X0094083Y0040247D01*
X0094121Y0040382D01*
X0094162Y0040516D01*
X0094207Y0040649D01*
X0094255Y0040780D01*
X0094308Y0040909D01*
X0094364Y0041038D01*
X0094423Y0041164D01*
X0094487Y0041289D01*
X0094553Y0041412D01*
X0094624Y0041533D01*
X0094697Y0041652D01*
X0094774Y0041769D01*
X0094855Y0041883D01*
X0094938Y0041995D01*
X0095025Y0042105D01*
X0095115Y0042213D01*
X0095207Y0042317D01*
X0095303Y0042419D01*
X0095402Y0042519D01*
X0095503Y0042615D01*
X0095607Y0042709D01*
X0095714Y0042799D01*
X0095823Y0042886D01*
X0095935Y0042971D01*
X0096049Y0043052D01*
X0096165Y0043130D01*
X0096283Y0043204D01*
X0096404Y0043275D01*
X0096526Y0043343D01*
X0096651Y0043407D01*
X0096777Y0043468D01*
X0096904Y0043525D01*
X0097034Y0043578D01*
X0097165Y0043628D01*
X0097297Y0043673D01*
X0097430Y0043716D01*
X0097565Y0043754D01*
X0097700Y0043788D01*
X0097837Y0043819D01*
X0097974Y0043846D01*
X0098112Y0043868D01*
X0098251Y0043887D01*
X0098390Y0043902D01*
X0098529Y0043913D01*
X0098669Y0043920D01*
X0098809Y0043923D01*
X0098949Y0043922D01*
X0099089Y0043917D01*
X0099228Y0043908D01*
X0099368Y0043895D01*
X0099507Y0043878D01*
X0099645Y0043857D01*
X0099783Y0043833D01*
X0099920Y0043804D01*
X0100056Y0043772D01*
X0100191Y0043735D01*
X0100325Y0043695D01*
X0100458Y0043651D01*
X0100589Y0043603D01*
X0100719Y0043552D01*
X0100848Y0043497D01*
X0100975Y0043438D01*
X0101100Y0043375D01*
X0101223Y0043310D01*
X0101345Y0043240D01*
X0101464Y0043167D01*
X0101582Y0043091D01*
X0101697Y0043012D01*
X0101810Y0042929D01*
X0101920Y0042843D01*
X0102028Y0042754D01*
X0102133Y0042662D01*
X0102236Y0042567D01*
X0102336Y0042469D01*
X0102433Y0042369D01*
X0102527Y0042265D01*
X0102619Y0042159D01*
X0102707Y0042051D01*
X0102792Y0041940D01*
X0102874Y0041826D01*
X0102953Y0041710D01*
X0103028Y0041593D01*
X0103100Y0041473D01*
X0103168Y0041351D01*
X0103233Y0041227D01*
X0103295Y0041101D01*
X0103353Y0040974D01*
X0103407Y0040845D01*
X0103458Y0040714D01*
X0103504Y0040582D01*
X0103547Y0040449D01*
X0103587Y0040315D01*
X0103622Y0040180D01*
X0103654Y0040043D01*
X0103681Y0039906D01*
X0103705Y0039768D01*
X0103725Y0039630D01*
X0103741Y0039491D01*
X0103753Y0039351D01*
X0103761Y0039212D01*
X0103765Y0039072D01*
X0103765Y0038932D01*
X0103761Y0038792D01*
X0103753Y0038653D01*
X0103741Y0038513D01*
X0103725Y0038374D01*
X0103705Y0038236D01*
X0103681Y0038098D01*
X0103654Y0037961D01*
X0103622Y0037824D01*
X0103587Y0037689D01*
X0103547Y0037555D01*
X0103504Y0037422D01*
X0103458Y0037290D01*
X0103407Y0037159D01*
X0103353Y0037030D01*
X0103295Y0036903D01*
X0103233Y0036777D01*
X0103168Y0036653D01*
X0103100Y0036531D01*
X0103028Y0036411D01*
X0102953Y0036294D01*
X0102874Y0036178D01*
X0102792Y0036064D01*
X0102707Y0035953D01*
X0102619Y0035845D01*
X0102527Y0035739D01*
X0102433Y0035635D01*
X0102336Y0035535D01*
X0102236Y0035437D01*
X0102133Y0035342D01*
X0102028Y0035250D01*
X0101920Y0035161D01*
X0101810Y0035075D01*
X0101697Y0034992D01*
X0101582Y0034913D01*
X0101464Y0034837D01*
X0101345Y0034764D01*
X0101223Y0034694D01*
X0101100Y0034629D01*
X0100975Y0034566D01*
X0100848Y0034507D01*
X0100719Y0034452D01*
X0100589Y0034401D01*
X0100458Y0034353D01*
X0100325Y0034309D01*
X0100191Y0034269D01*
X0100056Y0034232D01*
X0099920Y0034200D01*
X0099783Y0034171D01*
X0099645Y0034147D01*
X0099507Y0034126D01*
X0099368Y0034109D01*
X0099228Y0034096D01*
X0099089Y0034087D01*
X0098949Y0034082D01*
X0098809Y0034081D01*
X0098669Y0034084D01*
X0098529Y0034091D01*
X0098390Y0034102D01*
X0098251Y0034117D01*
X0098112Y0034136D01*
X0097974Y0034158D01*
X0097837Y0034185D01*
X0097700Y0034216D01*
X0097565Y0034250D01*
X0097430Y0034288D01*
X0097297Y0034331D01*
X0097165Y0034376D01*
X0097034Y0034426D01*
X0096904Y0034479D01*
X0096777Y0034536D01*
X0096651Y0034597D01*
X0096526Y0034661D01*
X0096404Y0034729D01*
X0096283Y0034800D01*
X0096165Y0034874D01*
X0096049Y0034952D01*
X0095935Y0035033D01*
X0095823Y0035118D01*
X0095714Y0035205D01*
X0095607Y0035295D01*
X0095503Y0035389D01*
X0095402Y0035485D01*
X0095303Y0035585D01*
X0095207Y0035687D01*
X0095115Y0035791D01*
X0095025Y0035899D01*
X0094938Y0036009D01*
X0094855Y0036121D01*
X0094774Y0036235D01*
X0094697Y0036352D01*
X0094624Y0036471D01*
X0094553Y0036592D01*
X0094487Y0036715D01*
X0094423Y0036840D01*
X0094364Y0036966D01*
X0094308Y0037095D01*
X0094255Y0037224D01*
X0094207Y0037355D01*
X0094162Y0037488D01*
X0094121Y0037622D01*
X0094083Y0037757D01*
X0094050Y0037892D01*
X0094020Y0038029D01*
X0093994Y0038167D01*
X0093973Y0038305D01*
X0093955Y0038444D01*
X0093941Y0038583D01*
X0093931Y0038722D01*
X0093925Y0038862D01*
X0093923Y0039002D01*
X0093923Y0194750D02*
X0093925Y0194890D01*
X0093931Y0195030D01*
X0093941Y0195169D01*
X0093955Y0195308D01*
X0093973Y0195447D01*
X0093994Y0195585D01*
X0094020Y0195723D01*
X0094050Y0195860D01*
X0094083Y0195995D01*
X0094121Y0196130D01*
X0094162Y0196264D01*
X0094207Y0196397D01*
X0094255Y0196528D01*
X0094308Y0196657D01*
X0094364Y0196786D01*
X0094423Y0196912D01*
X0094487Y0197037D01*
X0094553Y0197160D01*
X0094624Y0197281D01*
X0094697Y0197400D01*
X0094774Y0197517D01*
X0094855Y0197631D01*
X0094938Y0197743D01*
X0095025Y0197853D01*
X0095115Y0197961D01*
X0095207Y0198065D01*
X0095303Y0198167D01*
X0095402Y0198267D01*
X0095503Y0198363D01*
X0095607Y0198457D01*
X0095714Y0198547D01*
X0095823Y0198634D01*
X0095935Y0198719D01*
X0096049Y0198800D01*
X0096165Y0198878D01*
X0096283Y0198952D01*
X0096404Y0199023D01*
X0096526Y0199091D01*
X0096651Y0199155D01*
X0096777Y0199216D01*
X0096904Y0199273D01*
X0097034Y0199326D01*
X0097165Y0199376D01*
X0097297Y0199421D01*
X0097430Y0199464D01*
X0097565Y0199502D01*
X0097700Y0199536D01*
X0097837Y0199567D01*
X0097974Y0199594D01*
X0098112Y0199616D01*
X0098251Y0199635D01*
X0098390Y0199650D01*
X0098529Y0199661D01*
X0098669Y0199668D01*
X0098809Y0199671D01*
X0098949Y0199670D01*
X0099089Y0199665D01*
X0099228Y0199656D01*
X0099368Y0199643D01*
X0099507Y0199626D01*
X0099645Y0199605D01*
X0099783Y0199581D01*
X0099920Y0199552D01*
X0100056Y0199520D01*
X0100191Y0199483D01*
X0100325Y0199443D01*
X0100458Y0199399D01*
X0100589Y0199351D01*
X0100719Y0199300D01*
X0100848Y0199245D01*
X0100975Y0199186D01*
X0101100Y0199123D01*
X0101223Y0199058D01*
X0101345Y0198988D01*
X0101464Y0198915D01*
X0101582Y0198839D01*
X0101697Y0198760D01*
X0101810Y0198677D01*
X0101920Y0198591D01*
X0102028Y0198502D01*
X0102133Y0198410D01*
X0102236Y0198315D01*
X0102336Y0198217D01*
X0102433Y0198117D01*
X0102527Y0198013D01*
X0102619Y0197907D01*
X0102707Y0197799D01*
X0102792Y0197688D01*
X0102874Y0197574D01*
X0102953Y0197458D01*
X0103028Y0197341D01*
X0103100Y0197221D01*
X0103168Y0197099D01*
X0103233Y0196975D01*
X0103295Y0196849D01*
X0103353Y0196722D01*
X0103407Y0196593D01*
X0103458Y0196462D01*
X0103504Y0196330D01*
X0103547Y0196197D01*
X0103587Y0196063D01*
X0103622Y0195928D01*
X0103654Y0195791D01*
X0103681Y0195654D01*
X0103705Y0195516D01*
X0103725Y0195378D01*
X0103741Y0195239D01*
X0103753Y0195099D01*
X0103761Y0194960D01*
X0103765Y0194820D01*
X0103765Y0194680D01*
X0103761Y0194540D01*
X0103753Y0194401D01*
X0103741Y0194261D01*
X0103725Y0194122D01*
X0103705Y0193984D01*
X0103681Y0193846D01*
X0103654Y0193709D01*
X0103622Y0193572D01*
X0103587Y0193437D01*
X0103547Y0193303D01*
X0103504Y0193170D01*
X0103458Y0193038D01*
X0103407Y0192907D01*
X0103353Y0192778D01*
X0103295Y0192651D01*
X0103233Y0192525D01*
X0103168Y0192401D01*
X0103100Y0192279D01*
X0103028Y0192159D01*
X0102953Y0192042D01*
X0102874Y0191926D01*
X0102792Y0191812D01*
X0102707Y0191701D01*
X0102619Y0191593D01*
X0102527Y0191487D01*
X0102433Y0191383D01*
X0102336Y0191283D01*
X0102236Y0191185D01*
X0102133Y0191090D01*
X0102028Y0190998D01*
X0101920Y0190909D01*
X0101810Y0190823D01*
X0101697Y0190740D01*
X0101582Y0190661D01*
X0101464Y0190585D01*
X0101345Y0190512D01*
X0101223Y0190442D01*
X0101100Y0190377D01*
X0100975Y0190314D01*
X0100848Y0190255D01*
X0100719Y0190200D01*
X0100589Y0190149D01*
X0100458Y0190101D01*
X0100325Y0190057D01*
X0100191Y0190017D01*
X0100056Y0189980D01*
X0099920Y0189948D01*
X0099783Y0189919D01*
X0099645Y0189895D01*
X0099507Y0189874D01*
X0099368Y0189857D01*
X0099228Y0189844D01*
X0099089Y0189835D01*
X0098949Y0189830D01*
X0098809Y0189829D01*
X0098669Y0189832D01*
X0098529Y0189839D01*
X0098390Y0189850D01*
X0098251Y0189865D01*
X0098112Y0189884D01*
X0097974Y0189906D01*
X0097837Y0189933D01*
X0097700Y0189964D01*
X0097565Y0189998D01*
X0097430Y0190036D01*
X0097297Y0190079D01*
X0097165Y0190124D01*
X0097034Y0190174D01*
X0096904Y0190227D01*
X0096777Y0190284D01*
X0096651Y0190345D01*
X0096526Y0190409D01*
X0096404Y0190477D01*
X0096283Y0190548D01*
X0096165Y0190622D01*
X0096049Y0190700D01*
X0095935Y0190781D01*
X0095823Y0190866D01*
X0095714Y0190953D01*
X0095607Y0191043D01*
X0095503Y0191137D01*
X0095402Y0191233D01*
X0095303Y0191333D01*
X0095207Y0191435D01*
X0095115Y0191539D01*
X0095025Y0191647D01*
X0094938Y0191757D01*
X0094855Y0191869D01*
X0094774Y0191983D01*
X0094697Y0192100D01*
X0094624Y0192219D01*
X0094553Y0192340D01*
X0094487Y0192463D01*
X0094423Y0192588D01*
X0094364Y0192714D01*
X0094308Y0192843D01*
X0094255Y0192972D01*
X0094207Y0193103D01*
X0094162Y0193236D01*
X0094121Y0193370D01*
X0094083Y0193505D01*
X0094050Y0193640D01*
X0094020Y0193777D01*
X0093994Y0193915D01*
X0093973Y0194053D01*
X0093955Y0194192D01*
X0093941Y0194331D01*
X0093931Y0194470D01*
X0093925Y0194610D01*
X0093923Y0194750D01*
X0186836Y0194750D02*
X0186838Y0194890D01*
X0186844Y0195030D01*
X0186854Y0195169D01*
X0186868Y0195308D01*
X0186886Y0195447D01*
X0186907Y0195585D01*
X0186933Y0195723D01*
X0186963Y0195860D01*
X0186996Y0195995D01*
X0187034Y0196130D01*
X0187075Y0196264D01*
X0187120Y0196397D01*
X0187168Y0196528D01*
X0187221Y0196657D01*
X0187277Y0196786D01*
X0187336Y0196912D01*
X0187400Y0197037D01*
X0187466Y0197160D01*
X0187537Y0197281D01*
X0187610Y0197400D01*
X0187687Y0197517D01*
X0187768Y0197631D01*
X0187851Y0197743D01*
X0187938Y0197853D01*
X0188028Y0197961D01*
X0188120Y0198065D01*
X0188216Y0198167D01*
X0188315Y0198267D01*
X0188416Y0198363D01*
X0188520Y0198457D01*
X0188627Y0198547D01*
X0188736Y0198634D01*
X0188848Y0198719D01*
X0188962Y0198800D01*
X0189078Y0198878D01*
X0189196Y0198952D01*
X0189317Y0199023D01*
X0189439Y0199091D01*
X0189564Y0199155D01*
X0189690Y0199216D01*
X0189817Y0199273D01*
X0189947Y0199326D01*
X0190078Y0199376D01*
X0190210Y0199421D01*
X0190343Y0199464D01*
X0190478Y0199502D01*
X0190613Y0199536D01*
X0190750Y0199567D01*
X0190887Y0199594D01*
X0191025Y0199616D01*
X0191164Y0199635D01*
X0191303Y0199650D01*
X0191442Y0199661D01*
X0191582Y0199668D01*
X0191722Y0199671D01*
X0191862Y0199670D01*
X0192002Y0199665D01*
X0192141Y0199656D01*
X0192281Y0199643D01*
X0192420Y0199626D01*
X0192558Y0199605D01*
X0192696Y0199581D01*
X0192833Y0199552D01*
X0192969Y0199520D01*
X0193104Y0199483D01*
X0193238Y0199443D01*
X0193371Y0199399D01*
X0193502Y0199351D01*
X0193632Y0199300D01*
X0193761Y0199245D01*
X0193888Y0199186D01*
X0194013Y0199123D01*
X0194136Y0199058D01*
X0194258Y0198988D01*
X0194377Y0198915D01*
X0194495Y0198839D01*
X0194610Y0198760D01*
X0194723Y0198677D01*
X0194833Y0198591D01*
X0194941Y0198502D01*
X0195046Y0198410D01*
X0195149Y0198315D01*
X0195249Y0198217D01*
X0195346Y0198117D01*
X0195440Y0198013D01*
X0195532Y0197907D01*
X0195620Y0197799D01*
X0195705Y0197688D01*
X0195787Y0197574D01*
X0195866Y0197458D01*
X0195941Y0197341D01*
X0196013Y0197221D01*
X0196081Y0197099D01*
X0196146Y0196975D01*
X0196208Y0196849D01*
X0196266Y0196722D01*
X0196320Y0196593D01*
X0196371Y0196462D01*
X0196417Y0196330D01*
X0196460Y0196197D01*
X0196500Y0196063D01*
X0196535Y0195928D01*
X0196567Y0195791D01*
X0196594Y0195654D01*
X0196618Y0195516D01*
X0196638Y0195378D01*
X0196654Y0195239D01*
X0196666Y0195099D01*
X0196674Y0194960D01*
X0196678Y0194820D01*
X0196678Y0194680D01*
X0196674Y0194540D01*
X0196666Y0194401D01*
X0196654Y0194261D01*
X0196638Y0194122D01*
X0196618Y0193984D01*
X0196594Y0193846D01*
X0196567Y0193709D01*
X0196535Y0193572D01*
X0196500Y0193437D01*
X0196460Y0193303D01*
X0196417Y0193170D01*
X0196371Y0193038D01*
X0196320Y0192907D01*
X0196266Y0192778D01*
X0196208Y0192651D01*
X0196146Y0192525D01*
X0196081Y0192401D01*
X0196013Y0192279D01*
X0195941Y0192159D01*
X0195866Y0192042D01*
X0195787Y0191926D01*
X0195705Y0191812D01*
X0195620Y0191701D01*
X0195532Y0191593D01*
X0195440Y0191487D01*
X0195346Y0191383D01*
X0195249Y0191283D01*
X0195149Y0191185D01*
X0195046Y0191090D01*
X0194941Y0190998D01*
X0194833Y0190909D01*
X0194723Y0190823D01*
X0194610Y0190740D01*
X0194495Y0190661D01*
X0194377Y0190585D01*
X0194258Y0190512D01*
X0194136Y0190442D01*
X0194013Y0190377D01*
X0193888Y0190314D01*
X0193761Y0190255D01*
X0193632Y0190200D01*
X0193502Y0190149D01*
X0193371Y0190101D01*
X0193238Y0190057D01*
X0193104Y0190017D01*
X0192969Y0189980D01*
X0192833Y0189948D01*
X0192696Y0189919D01*
X0192558Y0189895D01*
X0192420Y0189874D01*
X0192281Y0189857D01*
X0192141Y0189844D01*
X0192002Y0189835D01*
X0191862Y0189830D01*
X0191722Y0189829D01*
X0191582Y0189832D01*
X0191442Y0189839D01*
X0191303Y0189850D01*
X0191164Y0189865D01*
X0191025Y0189884D01*
X0190887Y0189906D01*
X0190750Y0189933D01*
X0190613Y0189964D01*
X0190478Y0189998D01*
X0190343Y0190036D01*
X0190210Y0190079D01*
X0190078Y0190124D01*
X0189947Y0190174D01*
X0189817Y0190227D01*
X0189690Y0190284D01*
X0189564Y0190345D01*
X0189439Y0190409D01*
X0189317Y0190477D01*
X0189196Y0190548D01*
X0189078Y0190622D01*
X0188962Y0190700D01*
X0188848Y0190781D01*
X0188736Y0190866D01*
X0188627Y0190953D01*
X0188520Y0191043D01*
X0188416Y0191137D01*
X0188315Y0191233D01*
X0188216Y0191333D01*
X0188120Y0191435D01*
X0188028Y0191539D01*
X0187938Y0191647D01*
X0187851Y0191757D01*
X0187768Y0191869D01*
X0187687Y0191983D01*
X0187610Y0192100D01*
X0187537Y0192219D01*
X0187466Y0192340D01*
X0187400Y0192463D01*
X0187336Y0192588D01*
X0187277Y0192714D01*
X0187221Y0192843D01*
X0187168Y0192972D01*
X0187120Y0193103D01*
X0187075Y0193236D01*
X0187034Y0193370D01*
X0186996Y0193505D01*
X0186963Y0193640D01*
X0186933Y0193777D01*
X0186907Y0193915D01*
X0186886Y0194053D01*
X0186868Y0194192D01*
X0186854Y0194331D01*
X0186844Y0194470D01*
X0186838Y0194610D01*
X0186836Y0194750D01*
D12*
X0133490Y0185458D03*
X0133490Y0177978D03*
X0125616Y0177978D03*
X0117742Y0177978D03*
X0117742Y0185458D03*
X0125616Y0185458D03*
X0109868Y0185458D03*
X0109868Y0177978D03*
D13*
X0158096Y0170498D03*
X0158096Y0165380D03*
X0158096Y0159671D03*
X0158096Y0154553D03*
X0164002Y0165380D03*
X0164002Y0170498D03*
X0137919Y0135065D03*
X0137919Y0129946D03*
X0122171Y0129946D03*
X0122171Y0135065D03*
X0152191Y0107998D03*
X0158096Y0107998D03*
X0158096Y0102880D03*
X0152191Y0102880D03*
X0160557Y0095694D03*
X0160557Y0090576D03*
X0166462Y0090576D03*
X0166462Y0095694D03*
X0164002Y0102880D03*
X0164002Y0107998D03*
X0126600Y0080439D03*
X0126600Y0075320D03*
D14*
X0157702Y0174336D03*
X0164395Y0174336D03*
D15*
X0160714Y0039533D03*
X0155714Y0039533D03*
X0150714Y0039533D03*
X0145714Y0039533D03*
X0140714Y0039533D03*
X0140714Y0034533D03*
X0145714Y0034533D03*
X0150714Y0034533D03*
X0155714Y0034533D03*
X0160714Y0034533D03*
D16*
X0105439Y0050419D03*
X0105439Y0057112D03*
D17*
X0116718Y0060006D03*
X0116718Y0065006D03*
X0116718Y0070006D03*
X0116718Y0075006D03*
X0116718Y0080006D03*
X0121718Y0080006D03*
X0121718Y0075006D03*
X0121718Y0070006D03*
X0121718Y0065006D03*
X0121718Y0060006D03*
D18*
X0157506Y0053765D03*
X0162624Y0053765D03*
D19*
X0163116Y0159179D03*
X0163116Y0160950D03*
X0164887Y0160950D03*
X0164887Y0159179D03*
D20*
X0131187Y0033096D03*
X0121187Y0033096D03*
X0111187Y0033096D03*
D21*
X0115281Y0044907D03*
X0121187Y0044907D03*
X0127092Y0044907D03*
X0132998Y0044907D03*
D22*
X0135163Y0056226D02*
X0135458Y0056226D01*
X0135950Y0056718D01*
X0135950Y0057979D01*
X0136935Y0058963D01*
X0141851Y0058963D01*
X0145681Y0055133D01*
X0145681Y0054464D01*
X0146777Y0053368D01*
X0146777Y0050620D01*
X0146757Y0050601D01*
X0146757Y0049056D01*
X0147850Y0047964D01*
X0149394Y0047964D01*
X0149783Y0048352D01*
X0159092Y0048352D01*
X0161478Y0050739D01*
X0164959Y0050739D01*
X0169415Y0056226D02*
X0169415Y0041954D01*
X0166994Y0039533D01*
X0160714Y0039533D01*
X0164514Y0038333D02*
X0167491Y0038333D01*
X0170615Y0041457D01*
X0170615Y0056723D01*
X0168436Y0058902D01*
X0164770Y0058902D01*
X0153883Y0069790D01*
X0153883Y0084503D01*
X0155039Y0085660D01*
X0155039Y0087205D01*
X0153947Y0088297D01*
X0152402Y0088297D01*
X0152320Y0088214D01*
X0151206Y0088214D01*
X0153175Y0086432D02*
X0152683Y0085940D01*
X0152683Y0069129D01*
X0164109Y0057702D01*
X0167939Y0057702D01*
X0169415Y0056226D01*
X0165970Y0060655D02*
X0165970Y0060767D01*
X0165970Y0060655D02*
X0164714Y0060655D01*
X0155083Y0070287D01*
X0155083Y0081644D01*
X0155747Y0082309D01*
X0152683Y0090675D02*
X0137919Y0090675D01*
X0137427Y0090675D01*
X0133037Y0086285D01*
X0132998Y0086246D01*
X0130045Y0086246D01*
X0128569Y0084769D01*
X0121718Y0080006D02*
X0124125Y0077598D01*
X0128744Y0077598D01*
X0129272Y0077071D01*
X0129272Y0072204D01*
X0137437Y0064039D01*
X0143834Y0064039D01*
X0147495Y0060379D01*
X0156335Y0060379D01*
X0157604Y0059110D01*
X0154651Y0058194D02*
X0153667Y0059179D01*
X0146998Y0059179D01*
X0143337Y0062839D01*
X0136447Y0062839D01*
X0128081Y0071206D01*
X0127584Y0071206D01*
X0126285Y0072505D01*
X0126285Y0075006D01*
X0121718Y0075006D01*
X0126285Y0075006D02*
X0126600Y0075320D01*
X0127584Y0070006D02*
X0121718Y0070006D01*
X0127584Y0070006D02*
X0135950Y0061639D01*
X0142840Y0061639D01*
X0148746Y0055734D01*
X0146881Y0055630D02*
X0142348Y0060163D01*
X0127584Y0060163D01*
X0126600Y0061147D01*
X0124139Y0061147D01*
X0122998Y0060006D01*
X0121718Y0060006D01*
X0115773Y0053765D02*
X0114701Y0054838D01*
X0115773Y0053765D02*
X0115773Y0048844D01*
X0105439Y0057112D02*
X0105439Y0057210D01*
X0146881Y0055630D02*
X0146881Y0054962D01*
X0147973Y0053869D01*
X0149518Y0053869D01*
X0150398Y0054750D01*
X0152683Y0054750D01*
X0153667Y0053765D01*
X0154159Y0053765D01*
X0157506Y0053765D01*
X0164514Y0038333D02*
X0160714Y0034533D01*
X0160557Y0090576D02*
X0160546Y0090576D01*
X0160448Y0090675D01*
X0149561Y0098549D02*
X0149561Y0099034D01*
X0146881Y0101713D01*
X0146881Y0103258D01*
X0148780Y0105157D01*
X0153559Y0105157D01*
X0154121Y0105720D01*
X0154335Y0105720D01*
X0155424Y0106809D01*
X0155424Y0109748D01*
X0155952Y0110276D01*
X0170807Y0110276D01*
X0172368Y0111836D01*
X0172368Y0114297D01*
X0167338Y0107899D02*
X0164100Y0107899D01*
X0164002Y0107998D01*
X0160768Y0104630D02*
X0160241Y0105157D01*
X0158869Y0105157D01*
X0158096Y0105931D01*
X0158096Y0107998D01*
X0158096Y0105931D02*
X0157323Y0105157D01*
X0155952Y0105157D01*
X0155424Y0104630D01*
X0155424Y0103259D01*
X0155143Y0102978D01*
X0152289Y0102978D01*
X0152191Y0102880D01*
X0152978Y0102880D01*
X0152584Y0102486D01*
X0148746Y0102486D01*
X0160768Y0103259D02*
X0160768Y0104630D01*
X0160768Y0103259D02*
X0161147Y0102880D01*
X0164002Y0102880D01*
X0137251Y0174828D02*
X0106423Y0174828D01*
X0106423Y0181718D01*
X0138411Y0181718D01*
X0138411Y0178169D01*
X0137639Y0178169D01*
X0136546Y0177077D01*
X0136546Y0175532D01*
X0137251Y0174828D01*
X0137056Y0175023D02*
X0106423Y0175023D01*
X0106423Y0175621D02*
X0136546Y0175621D01*
X0136546Y0176220D02*
X0106423Y0176220D01*
X0106423Y0176818D02*
X0136546Y0176818D01*
X0136886Y0177417D02*
X0106423Y0177417D01*
X0106423Y0178015D02*
X0137485Y0178015D01*
X0138411Y0178614D02*
X0106423Y0178614D01*
X0106423Y0179212D02*
X0138411Y0179212D01*
X0138411Y0179811D02*
X0106423Y0179811D01*
X0106423Y0180409D02*
X0138411Y0180409D01*
X0138411Y0181008D02*
X0106423Y0181008D01*
X0106423Y0181606D02*
X0138411Y0181606D01*
D23*
X0140376Y0178269D02*
X0151036Y0178269D01*
X0151524Y0177781D01*
X0153186Y0177781D01*
X0154657Y0176310D01*
X0155506Y0176310D01*
X0156107Y0176911D01*
X0159298Y0176911D01*
X0161872Y0174336D01*
X0164395Y0174336D01*
X0164395Y0170891D01*
X0164002Y0170498D01*
X0164002Y0165380D02*
X0163214Y0165380D01*
X0158096Y0170498D01*
X0158096Y0173943D01*
X0157702Y0174336D01*
X0154651Y0174336D01*
X0152683Y0176305D01*
X0150222Y0176305D01*
X0140376Y0178269D02*
X0138411Y0176305D01*
X0158096Y0165380D02*
X0162525Y0160950D01*
X0163116Y0160950D01*
X0164887Y0160950D02*
X0171777Y0160950D01*
X0172860Y0162033D01*
X0174435Y0162033D01*
X0166931Y0153151D02*
X0162994Y0153151D01*
X0161541Y0151698D01*
X0160868Y0152372D01*
X0160868Y0156899D01*
X0158096Y0159671D01*
X0161541Y0151698D02*
X0161541Y0132013D01*
X0159572Y0130045D01*
X0151797Y0130045D01*
X0151698Y0129946D01*
X0116757Y0130199D02*
X0113348Y0130199D01*
X0113263Y0130997D02*
X0116297Y0130997D01*
X0116757Y0130537D02*
X0116757Y0087722D01*
X0112328Y0083293D01*
X0112328Y0047306D01*
X0112313Y0047290D01*
X0112313Y0042524D01*
X0112328Y0042509D01*
X0112328Y0041954D01*
X0112883Y0041954D01*
X0112898Y0041939D01*
X0117664Y0041939D01*
X0117680Y0041954D01*
X0118788Y0041954D01*
X0118804Y0041939D01*
X0123569Y0041939D01*
X0123585Y0041954D01*
X0124694Y0041954D01*
X0124709Y0041939D01*
X0129475Y0041939D01*
X0129491Y0041954D01*
X0130599Y0041954D01*
X0130615Y0041939D01*
X0135380Y0041939D01*
X0135396Y0041954D01*
X0147761Y0041954D01*
X0147761Y0040676D01*
X0147549Y0040163D01*
X0147549Y0038903D01*
X0147761Y0038390D01*
X0147761Y0038017D01*
X0142348Y0038017D01*
X0142348Y0032112D01*
X0137919Y0032112D01*
X0137919Y0036541D01*
X0134966Y0039494D01*
X0109868Y0039494D01*
X0109868Y0083293D01*
X0108854Y0084306D01*
X0109842Y0087549D01*
X0112401Y0100285D01*
X0112401Y0100285D01*
X0113707Y0113210D01*
X0113726Y0119129D01*
X0113729Y0119132D01*
X0113728Y0119709D01*
X0113730Y0120286D01*
X0113728Y0120288D01*
X0113721Y0126664D01*
X0112260Y0140492D01*
X0109366Y0154093D01*
X0109366Y0154093D01*
X0105073Y0167319D01*
X0102829Y0172368D01*
X0106915Y0172368D01*
X0106915Y0175320D01*
X0115281Y0175320D01*
X0115281Y0133807D01*
X0115247Y0133774D01*
X0115247Y0132146D01*
X0115281Y0132112D01*
X0115281Y0132013D01*
X0116757Y0130537D01*
X0116757Y0129400D02*
X0113432Y0129400D01*
X0113517Y0128601D02*
X0116757Y0128601D01*
X0116757Y0127803D02*
X0113601Y0127803D01*
X0113685Y0127004D02*
X0116757Y0127004D01*
X0116757Y0126206D02*
X0113722Y0126206D01*
X0113723Y0125407D02*
X0116757Y0125407D01*
X0116757Y0124609D02*
X0113723Y0124609D01*
X0113724Y0123810D02*
X0116757Y0123810D01*
X0116757Y0123012D02*
X0113725Y0123012D01*
X0113726Y0122213D02*
X0116757Y0122213D01*
X0116757Y0121415D02*
X0113727Y0121415D01*
X0113727Y0120616D02*
X0116757Y0120616D01*
X0116757Y0119818D02*
X0113729Y0119818D01*
X0113726Y0119019D02*
X0116757Y0119019D01*
X0116757Y0118221D02*
X0113724Y0118221D01*
X0113721Y0117422D02*
X0116757Y0117422D01*
X0116757Y0116624D02*
X0113718Y0116624D01*
X0113716Y0115825D02*
X0116757Y0115825D01*
X0116757Y0115027D02*
X0113713Y0115027D01*
X0113711Y0114228D02*
X0116757Y0114228D01*
X0116757Y0113430D02*
X0113708Y0113430D01*
X0113707Y0113210D02*
X0113707Y0113210D01*
X0113649Y0112631D02*
X0116757Y0112631D01*
X0116757Y0111833D02*
X0113568Y0111833D01*
X0113487Y0111034D02*
X0116757Y0111034D01*
X0116757Y0110236D02*
X0113407Y0110236D01*
X0113326Y0109437D02*
X0116757Y0109437D01*
X0116757Y0108639D02*
X0113245Y0108639D01*
X0113165Y0107840D02*
X0116757Y0107840D01*
X0116757Y0107042D02*
X0113084Y0107042D01*
X0113003Y0106243D02*
X0116757Y0106243D01*
X0116757Y0105445D02*
X0112922Y0105445D01*
X0112842Y0104646D02*
X0116757Y0104646D01*
X0116757Y0103848D02*
X0112761Y0103848D01*
X0112680Y0103049D02*
X0116757Y0103049D01*
X0116757Y0102251D02*
X0112600Y0102251D01*
X0112519Y0101452D02*
X0116757Y0101452D01*
X0116757Y0100654D02*
X0112438Y0100654D01*
X0112314Y0099855D02*
X0116757Y0099855D01*
X0116757Y0099057D02*
X0112154Y0099057D01*
X0111994Y0098258D02*
X0116757Y0098258D01*
X0116757Y0097460D02*
X0111833Y0097460D01*
X0111673Y0096661D02*
X0116757Y0096661D01*
X0116757Y0095863D02*
X0111512Y0095863D01*
X0111352Y0095064D02*
X0116757Y0095064D01*
X0116757Y0094266D02*
X0111192Y0094266D01*
X0111031Y0093467D02*
X0116757Y0093467D01*
X0116757Y0092668D02*
X0110871Y0092668D01*
X0110710Y0091870D02*
X0116757Y0091870D01*
X0116757Y0091071D02*
X0110550Y0091071D01*
X0110389Y0090273D02*
X0116757Y0090273D01*
X0116757Y0089474D02*
X0110229Y0089474D01*
X0110069Y0088676D02*
X0116757Y0088676D01*
X0116757Y0087877D02*
X0109908Y0087877D01*
X0109842Y0087549D02*
X0109842Y0087549D01*
X0109699Y0087079D02*
X0116114Y0087079D01*
X0115316Y0086280D02*
X0109456Y0086280D01*
X0109212Y0085482D02*
X0114517Y0085482D01*
X0113719Y0084683D02*
X0108969Y0084683D01*
X0109276Y0083885D02*
X0112920Y0083885D01*
X0112328Y0083086D02*
X0109868Y0083086D01*
X0109868Y0082288D02*
X0112328Y0082288D01*
X0112328Y0081489D02*
X0109868Y0081489D01*
X0109868Y0080691D02*
X0112328Y0080691D01*
X0112328Y0079892D02*
X0109868Y0079892D01*
X0109868Y0079094D02*
X0112328Y0079094D01*
X0112328Y0078295D02*
X0109868Y0078295D01*
X0109868Y0077497D02*
X0112328Y0077497D01*
X0112328Y0076698D02*
X0109868Y0076698D01*
X0109868Y0075900D02*
X0112328Y0075900D01*
X0112328Y0075101D02*
X0109868Y0075101D01*
X0109868Y0074303D02*
X0112328Y0074303D01*
X0112328Y0073504D02*
X0109868Y0073504D01*
X0109868Y0072706D02*
X0112328Y0072706D01*
X0112328Y0071907D02*
X0109868Y0071907D01*
X0109868Y0071109D02*
X0112328Y0071109D01*
X0112328Y0070310D02*
X0109868Y0070310D01*
X0109868Y0069512D02*
X0112328Y0069512D01*
X0112328Y0068713D02*
X0109868Y0068713D01*
X0109868Y0067915D02*
X0112328Y0067915D01*
X0112328Y0067116D02*
X0109868Y0067116D01*
X0109868Y0066318D02*
X0112328Y0066318D01*
X0112328Y0065519D02*
X0109868Y0065519D01*
X0109868Y0064721D02*
X0112328Y0064721D01*
X0112328Y0063922D02*
X0109868Y0063922D01*
X0109868Y0063124D02*
X0112328Y0063124D01*
X0112328Y0062325D02*
X0109868Y0062325D01*
X0109868Y0061527D02*
X0112328Y0061527D01*
X0112328Y0060728D02*
X0109868Y0060728D01*
X0109868Y0059930D02*
X0112328Y0059930D01*
X0112328Y0059131D02*
X0109868Y0059131D01*
X0109868Y0058332D02*
X0112328Y0058332D01*
X0112328Y0057534D02*
X0109868Y0057534D01*
X0109868Y0056735D02*
X0112328Y0056735D01*
X0112328Y0055937D02*
X0109868Y0055937D01*
X0109868Y0055138D02*
X0112328Y0055138D01*
X0112328Y0054340D02*
X0109868Y0054340D01*
X0109868Y0053541D02*
X0112328Y0053541D01*
X0112328Y0052743D02*
X0109868Y0052743D01*
X0109868Y0051944D02*
X0112328Y0051944D01*
X0112328Y0051146D02*
X0109868Y0051146D01*
X0109868Y0050347D02*
X0112328Y0050347D01*
X0112328Y0049549D02*
X0109868Y0049549D01*
X0109868Y0048750D02*
X0112328Y0048750D01*
X0112328Y0047952D02*
X0109868Y0047952D01*
X0109868Y0047153D02*
X0112313Y0047153D01*
X0112313Y0046355D02*
X0109868Y0046355D01*
X0109868Y0045556D02*
X0112313Y0045556D01*
X0112313Y0044758D02*
X0109868Y0044758D01*
X0109868Y0043959D02*
X0112313Y0043959D01*
X0112313Y0043161D02*
X0109868Y0043161D01*
X0109868Y0042362D02*
X0112328Y0042362D01*
X0109868Y0041564D02*
X0147761Y0041564D01*
X0147761Y0040765D02*
X0109868Y0040765D01*
X0109868Y0039967D02*
X0147549Y0039967D01*
X0147549Y0039168D02*
X0135292Y0039168D01*
X0136090Y0038370D02*
X0147761Y0038370D01*
X0142348Y0037571D02*
X0136889Y0037571D01*
X0137687Y0036773D02*
X0142348Y0036773D01*
X0142348Y0035974D02*
X0137919Y0035974D01*
X0137919Y0035176D02*
X0142348Y0035176D01*
X0142348Y0034377D02*
X0137919Y0034377D01*
X0137919Y0033579D02*
X0142348Y0033579D01*
X0142348Y0032780D02*
X0137919Y0032780D01*
X0166079Y0095104D02*
X0166954Y0095104D01*
X0166462Y0095596D01*
X0166462Y0095694D01*
X0115499Y0131796D02*
X0113179Y0131796D01*
X0113095Y0132594D02*
X0115247Y0132594D01*
X0115247Y0133393D02*
X0113010Y0133393D01*
X0112926Y0134191D02*
X0115281Y0134191D01*
X0115281Y0134990D02*
X0112841Y0134990D01*
X0112757Y0135788D02*
X0115281Y0135788D01*
X0115281Y0136587D02*
X0112672Y0136587D01*
X0112588Y0137385D02*
X0115281Y0137385D01*
X0115281Y0138184D02*
X0112504Y0138184D01*
X0112419Y0138982D02*
X0115281Y0138982D01*
X0115281Y0139781D02*
X0112335Y0139781D01*
X0112241Y0140579D02*
X0115281Y0140579D01*
X0115281Y0141378D02*
X0112071Y0141378D01*
X0111901Y0142176D02*
X0115281Y0142176D01*
X0115281Y0142975D02*
X0111732Y0142975D01*
X0111562Y0143773D02*
X0115281Y0143773D01*
X0115281Y0144572D02*
X0111392Y0144572D01*
X0111222Y0145370D02*
X0115281Y0145370D01*
X0115281Y0146169D02*
X0111052Y0146169D01*
X0110882Y0146967D02*
X0115281Y0146967D01*
X0115281Y0147766D02*
X0110712Y0147766D01*
X0110543Y0148564D02*
X0115281Y0148564D01*
X0115281Y0149363D02*
X0110373Y0149363D01*
X0110203Y0150161D02*
X0115281Y0150161D01*
X0115281Y0150960D02*
X0110033Y0150960D01*
X0109863Y0151758D02*
X0115281Y0151758D01*
X0115281Y0152557D02*
X0109693Y0152557D01*
X0109523Y0153355D02*
X0115281Y0153355D01*
X0115281Y0154154D02*
X0109347Y0154154D01*
X0109087Y0154952D02*
X0115281Y0154952D01*
X0115281Y0155751D02*
X0108828Y0155751D01*
X0108569Y0156549D02*
X0115281Y0156549D01*
X0115281Y0157348D02*
X0108310Y0157348D01*
X0108051Y0158146D02*
X0115281Y0158146D01*
X0115281Y0158945D02*
X0107791Y0158945D01*
X0107532Y0159743D02*
X0115281Y0159743D01*
X0115281Y0160542D02*
X0107273Y0160542D01*
X0107014Y0161340D02*
X0115281Y0161340D01*
X0115281Y0162139D02*
X0106754Y0162139D01*
X0106495Y0162937D02*
X0115281Y0162937D01*
X0115281Y0163736D02*
X0106236Y0163736D01*
X0105977Y0164534D02*
X0115281Y0164534D01*
X0115281Y0165333D02*
X0105717Y0165333D01*
X0105458Y0166132D02*
X0115281Y0166132D01*
X0115281Y0166930D02*
X0105199Y0166930D01*
X0105073Y0167319D02*
X0105073Y0167319D01*
X0104891Y0167729D02*
X0115281Y0167729D01*
X0115281Y0168527D02*
X0104536Y0168527D01*
X0104181Y0169326D02*
X0115281Y0169326D01*
X0115281Y0170124D02*
X0103826Y0170124D01*
X0103471Y0170923D02*
X0115281Y0170923D01*
X0115281Y0171721D02*
X0103116Y0171721D01*
X0106915Y0172520D02*
X0115281Y0172520D01*
X0115281Y0173318D02*
X0106915Y0173318D01*
X0106915Y0174117D02*
X0115281Y0174117D01*
X0115281Y0174915D02*
X0106915Y0174915D01*
D24*
X0103470Y0175813D03*
X0104454Y0178765D03*
X0101994Y0180734D03*
X0102978Y0185163D03*
X0099041Y0185163D03*
X0110852Y0190576D03*
X0110852Y0195498D03*
X0126600Y0198943D03*
X0127584Y0190576D03*
X0133490Y0190576D03*
X0138411Y0176305D03*
X0140872Y0167939D03*
X0144809Y0167939D03*
X0144809Y0164002D03*
X0140872Y0164002D03*
X0140872Y0160065D03*
X0144809Y0160065D03*
X0145301Y0152683D03*
X0140380Y0151206D03*
X0136443Y0146285D03*
X0136935Y0141856D03*
X0141364Y0138903D03*
X0150714Y0139887D03*
X0156128Y0146777D03*
X0166931Y0153151D03*
X0168431Y0145793D03*
X0170891Y0134474D03*
X0165478Y0132998D03*
X0169415Y0125616D03*
X0172368Y0114297D03*
X0168431Y0112328D03*
X0167338Y0107899D03*
X0173352Y0106915D03*
X0166079Y0095104D03*
X0160448Y0090675D03*
X0152683Y0090675D03*
X0151206Y0088214D03*
X0153175Y0086432D03*
X0155747Y0082309D03*
X0148746Y0076403D03*
X0143824Y0076403D03*
X0138903Y0076403D03*
X0138903Y0071482D03*
X0138903Y0066561D03*
X0143824Y0066561D03*
X0148746Y0066561D03*
X0148746Y0071482D03*
X0143824Y0071482D03*
X0157604Y0059110D03*
X0154651Y0058194D03*
X0154159Y0053765D03*
X0148746Y0055734D03*
X0148622Y0049828D03*
X0157112Y0046383D03*
X0164959Y0050739D03*
X0167358Y0042535D03*
X0173352Y0040470D03*
X0176797Y0039986D03*
X0179750Y0039986D03*
X0175813Y0034080D03*
X0170891Y0031128D03*
X0184671Y0032112D03*
X0202387Y0033096D03*
X0193037Y0049336D03*
X0186639Y0049336D03*
X0181226Y0047368D03*
X0177781Y0049336D03*
X0174828Y0046876D03*
X0165970Y0060767D03*
X0170399Y0063608D03*
X0170891Y0066069D03*
X0167939Y0066069D03*
X0164986Y0066069D03*
X0162033Y0066069D03*
X0161049Y0073943D03*
X0166462Y0079848D03*
X0169415Y0076895D03*
X0170891Y0073943D03*
X0167939Y0073943D03*
X0173844Y0073943D03*
X0176797Y0073943D03*
X0173844Y0077387D03*
X0178273Y0079848D03*
X0182210Y0073943D03*
X0182702Y0070990D03*
X0182702Y0068037D03*
X0182702Y0065084D03*
X0173844Y0066069D03*
X0136935Y0051797D03*
X0135163Y0056226D03*
X0131521Y0055734D03*
X0125616Y0059179D03*
X0124631Y0067545D03*
X0114701Y0054838D03*
X0118234Y0050813D03*
X0115773Y0048844D03*
X0115281Y0044907D03*
X0121187Y0044907D03*
X0127092Y0044907D03*
X0132998Y0044907D03*
X0116265Y0035065D03*
X0116265Y0029651D03*
X0098549Y0051797D03*
X0105439Y0057210D03*
X0087722Y0034080D03*
X0128569Y0084769D03*
X0133037Y0086285D03*
X0136127Y0086738D03*
X0137919Y0090675D03*
X0149561Y0098549D03*
X0148746Y0102486D03*
X0136443Y0111836D03*
X0141364Y0112820D03*
X0138411Y0118234D03*
X0137919Y0125124D03*
X0134474Y0131029D03*
X0129553Y0126600D03*
X0122171Y0125616D03*
X0117212Y0132960D03*
X0125616Y0138903D03*
X0119710Y0146285D03*
X0132506Y0157112D03*
X0129553Y0165478D03*
X0124139Y0168431D03*
X0125616Y0175813D03*
X0129553Y0175813D03*
X0121679Y0175813D03*
X0117742Y0175813D03*
X0123155Y0159572D03*
X0150222Y0176305D03*
X0153175Y0181226D03*
X0152191Y0184671D03*
X0149730Y0188608D03*
X0155635Y0188116D03*
X0156620Y0195990D03*
X0157604Y0209277D03*
X0146285Y0217151D03*
X0144809Y0208293D03*
X0132506Y0218628D03*
X0133982Y0230439D03*
X0133982Y0233391D03*
X0133982Y0236344D03*
X0119218Y0236344D03*
X0119218Y0233391D03*
X0119218Y0230439D03*
X0087230Y0231423D03*
X0071974Y0229454D03*
X0085754Y0216659D03*
X0151698Y0228470D03*
X0194513Y0226009D03*
X0198943Y0232899D03*
X0204848Y0221088D03*
X0218628Y0230439D03*
X0184671Y0179257D03*
X0177781Y0175320D03*
X0171876Y0179257D03*
X0182210Y0168431D03*
X0174435Y0162033D03*
X0154651Y0168431D03*
X0154651Y0170891D03*
X0151698Y0129946D03*
X0148254Y0127584D03*
X0157604Y0126600D03*
X0156128Y0121679D03*
X0158588Y0114986D03*
X0132998Y0103470D03*
X0126108Y0101994D03*
X0113805Y0105931D03*
X0128076Y0113313D03*
X0130537Y0118234D03*
D25*
X0134743Y0121959D02*
X0135738Y0120963D01*
X0139675Y0120963D01*
X0140660Y0119979D01*
X0154766Y0119979D01*
X0155231Y0119514D01*
X0157024Y0119514D01*
X0158292Y0120782D01*
X0158292Y0122575D01*
X0157024Y0123843D01*
X0155231Y0123843D01*
X0154766Y0123379D01*
X0143064Y0123379D01*
X0143064Y0137542D01*
X0143528Y0138007D01*
X0143528Y0139800D01*
X0142260Y0141068D01*
X0140467Y0141068D01*
X0139199Y0139800D01*
X0139199Y0138043D01*
X0138008Y0138043D01*
X0138008Y0135154D01*
X0137830Y0135154D01*
X0137830Y0138043D01*
X0136274Y0138043D01*
X0136274Y0143571D01*
X0136824Y0144120D01*
X0137339Y0144120D01*
X0138607Y0145388D01*
X0138607Y0147182D01*
X0137339Y0148450D01*
X0135546Y0148450D01*
X0134278Y0147182D01*
X0134278Y0146666D01*
X0133728Y0146117D01*
X0132674Y0145062D01*
X0132674Y0132290D01*
X0132669Y0132285D01*
X0132237Y0132718D01*
X0132237Y0138131D01*
X0131241Y0139127D01*
X0129765Y0140603D01*
X0126977Y0140603D01*
X0126512Y0141068D01*
X0124719Y0141068D01*
X0123451Y0139800D01*
X0123451Y0138043D01*
X0122260Y0138043D01*
X0122260Y0135154D01*
X0122082Y0135154D01*
X0122082Y0138043D01*
X0120189Y0138043D01*
X0119782Y0137933D01*
X0119417Y0137723D01*
X0119119Y0137425D01*
X0119050Y0137305D01*
X0119050Y0143079D01*
X0120091Y0144120D01*
X0120607Y0144120D01*
X0121875Y0145388D01*
X0121875Y0147182D01*
X0120607Y0148450D01*
X0118814Y0148450D01*
X0117546Y0147182D01*
X0117546Y0146666D01*
X0116881Y0146001D01*
X0116881Y0171876D01*
X0144493Y0171876D01*
X0144493Y0169369D01*
X0147938Y0165924D01*
X0147938Y0152636D01*
X0148699Y0151875D01*
X0151745Y0151875D01*
X0152506Y0152636D01*
X0152506Y0167985D01*
X0151745Y0168746D01*
X0149061Y0171430D01*
X0149061Y0171876D01*
X0155124Y0171876D01*
X0155124Y0168623D01*
X0155808Y0167939D01*
X0155124Y0167255D01*
X0155124Y0163505D01*
X0155827Y0162802D01*
X0158411Y0162802D01*
X0158964Y0162249D01*
X0155827Y0162249D01*
X0155124Y0161546D01*
X0155124Y0161533D01*
X0154728Y0161137D01*
X0154728Y0157516D01*
X0155187Y0157056D01*
X0155044Y0156913D01*
X0154833Y0156548D01*
X0154724Y0156141D01*
X0154724Y0154642D01*
X0158007Y0154642D01*
X0158007Y0154464D01*
X0154724Y0154464D01*
X0154724Y0152964D01*
X0154833Y0152557D01*
X0155044Y0152192D01*
X0155342Y0151894D01*
X0155707Y0151684D01*
X0156114Y0151575D01*
X0158007Y0151575D01*
X0158007Y0154464D01*
X0158185Y0154464D01*
X0158185Y0151575D01*
X0159402Y0151575D01*
X0159941Y0151036D01*
X0159941Y0132676D01*
X0158910Y0131645D01*
X0153061Y0131645D01*
X0152595Y0132111D01*
X0150802Y0132111D01*
X0149534Y0130843D01*
X0149534Y0129050D01*
X0150802Y0127782D01*
X0152595Y0127782D01*
X0153258Y0128445D01*
X0160235Y0128445D01*
X0161172Y0129382D01*
X0161172Y0129382D01*
X0162204Y0130413D01*
X0163141Y0131351D01*
X0163141Y0151036D01*
X0163656Y0151551D01*
X0165470Y0151551D01*
X0166034Y0150987D01*
X0167827Y0150987D01*
X0169095Y0152255D01*
X0169095Y0154048D01*
X0167827Y0155316D01*
X0166034Y0155316D01*
X0165470Y0154751D01*
X0162468Y0154751D01*
X0162468Y0157188D01*
X0166058Y0157188D01*
X0166878Y0158008D01*
X0166878Y0159350D01*
X0172440Y0159350D01*
X0173248Y0160159D01*
X0173538Y0159869D01*
X0175331Y0159869D01*
X0176599Y0161136D01*
X0176599Y0162930D01*
X0175331Y0164198D01*
X0173538Y0164198D01*
X0172973Y0163633D01*
X0172197Y0163633D01*
X0171260Y0162696D01*
X0171114Y0162550D01*
X0165569Y0162550D01*
X0165556Y0162564D01*
X0164219Y0162564D01*
X0164002Y0162346D01*
X0163784Y0162564D01*
X0163175Y0162564D01*
X0162937Y0162802D01*
X0166270Y0162802D01*
X0166973Y0163505D01*
X0166973Y0167255D01*
X0166289Y0167939D01*
X0166973Y0168623D01*
X0166973Y0172373D01*
X0166776Y0172569D01*
X0166776Y0176408D01*
X0166073Y0177111D01*
X0162717Y0177111D01*
X0162039Y0176433D01*
X0159960Y0178511D01*
X0156128Y0178511D01*
X0156128Y0182210D01*
X0192203Y0182210D01*
X0190997Y0180117D01*
X0185342Y0167391D01*
X0185342Y0167391D01*
X0181042Y0154145D01*
X0178144Y0140524D01*
X0176748Y0127316D01*
X0176097Y0127316D01*
X0176070Y0127341D01*
X0175398Y0127316D01*
X0174726Y0127316D01*
X0174700Y0127289D01*
X0174663Y0127288D01*
X0174206Y0126795D01*
X0173730Y0126320D01*
X0173730Y0126283D01*
X0173705Y0126255D01*
X0173730Y0125584D01*
X0173730Y0124912D01*
X0173757Y0124885D01*
X0173962Y0119442D01*
X0158868Y0119442D01*
X0157872Y0118446D01*
X0156888Y0117462D01*
X0156888Y0116347D01*
X0156424Y0115882D01*
X0156424Y0114089D01*
X0157692Y0112821D01*
X0159485Y0112821D01*
X0160753Y0114089D01*
X0160753Y0115882D01*
X0160593Y0116042D01*
X0171051Y0116042D01*
X0170203Y0115193D01*
X0170203Y0113400D01*
X0170868Y0112736D01*
X0170868Y0112458D01*
X0170186Y0111776D01*
X0155330Y0111776D01*
X0154455Y0110900D01*
X0154173Y0110976D01*
X0152280Y0110976D01*
X0152280Y0108087D01*
X0152102Y0108087D01*
X0152102Y0110976D01*
X0150208Y0110976D01*
X0149801Y0110867D01*
X0149436Y0110656D01*
X0149139Y0110358D01*
X0148928Y0109993D01*
X0148819Y0109586D01*
X0148819Y0108087D01*
X0152101Y0108087D01*
X0152101Y0107909D01*
X0148819Y0107909D01*
X0148819Y0106657D01*
X0148159Y0106657D01*
X0147280Y0105779D01*
X0147280Y0105779D01*
X0146260Y0104758D01*
X0146260Y0104758D01*
X0145381Y0103879D01*
X0145381Y0101092D01*
X0147396Y0099077D01*
X0147396Y0097652D01*
X0148664Y0096384D01*
X0150457Y0096384D01*
X0151725Y0097652D01*
X0151725Y0099445D01*
X0150869Y0100302D01*
X0154459Y0100302D01*
X0154910Y0100752D01*
X0155044Y0100519D01*
X0155342Y0100221D01*
X0155707Y0100011D01*
X0156114Y0099902D01*
X0158007Y0099902D01*
X0158007Y0102790D01*
X0158185Y0102790D01*
X0158185Y0099902D01*
X0160078Y0099902D01*
X0160485Y0100011D01*
X0160850Y0100221D01*
X0161148Y0100519D01*
X0161282Y0100752D01*
X0161733Y0100302D01*
X0166270Y0100302D01*
X0166973Y0101005D01*
X0166973Y0104755D01*
X0166289Y0105439D01*
X0166585Y0105735D01*
X0168234Y0105735D01*
X0169502Y0107003D01*
X0169502Y0108776D01*
X0171428Y0108776D01*
X0172307Y0109654D01*
X0172307Y0109654D01*
X0172989Y0110336D01*
X0173868Y0111215D01*
X0173868Y0112736D01*
X0174279Y0113147D01*
X0175336Y0103607D01*
X0175296Y0103548D01*
X0175413Y0102916D01*
X0175483Y0102278D01*
X0175539Y0102233D01*
X0177360Y0092402D01*
X0177324Y0092341D01*
X0177486Y0091719D01*
X0177603Y0091088D01*
X0177662Y0091047D01*
X0180192Y0081375D01*
X0180161Y0081311D01*
X0180368Y0080703D01*
X0180531Y0080081D01*
X0180592Y0080045D01*
X0183818Y0070582D01*
X0183792Y0070516D01*
X0184043Y0069925D01*
X0184250Y0069317D01*
X0184314Y0069285D01*
X0188331Y0059817D01*
X0188331Y0059459D01*
X0188595Y0059195D01*
X0188741Y0058851D01*
X0188842Y0058810D01*
X0188842Y0048037D01*
X0180030Y0039225D01*
X0177001Y0039225D01*
X0175517Y0040710D01*
X0175517Y0041367D01*
X0174249Y0042635D01*
X0172455Y0042635D01*
X0172115Y0042294D01*
X0172115Y0057344D01*
X0169057Y0060402D01*
X0168135Y0060402D01*
X0168135Y0061664D01*
X0166867Y0062931D01*
X0165073Y0062931D01*
X0164816Y0062674D01*
X0156583Y0070908D01*
X0156583Y0080144D01*
X0156644Y0080144D01*
X0157912Y0081412D01*
X0157912Y0083205D01*
X0156644Y0084473D01*
X0155974Y0084473D01*
X0156539Y0085039D01*
X0156539Y0087826D01*
X0155661Y0088705D01*
X0155661Y0088705D01*
X0155447Y0088918D01*
X0154717Y0089648D01*
X0154847Y0089778D01*
X0154847Y0091571D01*
X0153579Y0092839D01*
X0151786Y0092839D01*
X0151122Y0092175D01*
X0139480Y0092175D01*
X0138815Y0092839D01*
X0137022Y0092839D01*
X0135754Y0091571D01*
X0135754Y0091124D01*
X0133080Y0088449D01*
X0132140Y0088449D01*
X0131436Y0087746D01*
X0129424Y0087746D01*
X0128612Y0086934D01*
X0127672Y0086934D01*
X0126404Y0085666D01*
X0126404Y0083873D01*
X0126860Y0083417D01*
X0126689Y0083417D01*
X0126689Y0080528D01*
X0126511Y0080528D01*
X0126511Y0083417D01*
X0124618Y0083417D01*
X0124211Y0083307D01*
X0123846Y0083097D01*
X0123548Y0082799D01*
X0123491Y0082701D01*
X0122348Y0083174D01*
X0121088Y0083174D01*
X0119923Y0082692D01*
X0119218Y0081986D01*
X0118513Y0082692D01*
X0117348Y0083174D01*
X0116088Y0083174D01*
X0114923Y0082692D01*
X0114032Y0081800D01*
X0113928Y0081550D01*
X0113928Y0082630D01*
X0117420Y0086122D01*
X0118357Y0087059D01*
X0118357Y0131044D01*
X0119376Y0132063D01*
X0119376Y0132447D01*
X0119417Y0132406D01*
X0119650Y0132272D01*
X0119199Y0131821D01*
X0119199Y0128071D01*
X0119902Y0127369D01*
X0120471Y0127369D01*
X0120471Y0126977D01*
X0120006Y0126512D01*
X0120006Y0124719D01*
X0121274Y0123451D01*
X0123067Y0123451D01*
X0124335Y0124719D01*
X0124335Y0126512D01*
X0123871Y0126977D01*
X0123871Y0127369D01*
X0124440Y0127369D01*
X0125143Y0128071D01*
X0125143Y0131821D01*
X0124692Y0132272D01*
X0124925Y0132406D01*
X0125223Y0132704D01*
X0125433Y0133069D01*
X0125543Y0133476D01*
X0125543Y0134976D01*
X0122260Y0134976D01*
X0122260Y0135154D01*
X0125543Y0135154D01*
X0125543Y0136653D01*
X0125520Y0136739D01*
X0126512Y0136739D01*
X0126977Y0137203D01*
X0128356Y0137203D01*
X0128837Y0136723D01*
X0128837Y0131309D01*
X0133758Y0126388D01*
X0133758Y0122943D01*
X0134743Y0121959D01*
X0134828Y0121873D02*
X0118357Y0121873D01*
X0118357Y0123071D02*
X0133758Y0123071D01*
X0133758Y0124270D02*
X0123886Y0124270D01*
X0124335Y0125468D02*
X0133758Y0125468D01*
X0133479Y0126667D02*
X0124181Y0126667D01*
X0124937Y0127866D02*
X0132281Y0127866D01*
X0131082Y0129064D02*
X0125143Y0129064D01*
X0125143Y0130263D02*
X0129884Y0130263D01*
X0128837Y0131461D02*
X0125143Y0131461D01*
X0125178Y0132660D02*
X0128837Y0132660D01*
X0128837Y0133858D02*
X0125543Y0133858D01*
X0125543Y0136255D02*
X0128837Y0136255D01*
X0128837Y0135057D02*
X0122260Y0135057D01*
X0122260Y0136255D02*
X0122082Y0136255D01*
X0122082Y0137454D02*
X0122260Y0137454D01*
X0123451Y0138652D02*
X0119050Y0138652D01*
X0119050Y0137454D02*
X0119148Y0137454D01*
X0119050Y0139851D02*
X0123502Y0139851D01*
X0124701Y0141049D02*
X0119050Y0141049D01*
X0119050Y0142248D02*
X0132674Y0142248D01*
X0132674Y0143446D02*
X0119417Y0143446D01*
X0121131Y0144645D02*
X0132674Y0144645D01*
X0133455Y0145843D02*
X0121875Y0145843D01*
X0121875Y0147042D02*
X0134278Y0147042D01*
X0135337Y0148240D02*
X0120816Y0148240D01*
X0118604Y0148240D02*
X0116881Y0148240D01*
X0116881Y0147042D02*
X0117546Y0147042D01*
X0119710Y0146285D02*
X0117250Y0143824D01*
X0117250Y0132998D01*
X0117212Y0132960D01*
X0118774Y0131461D02*
X0119199Y0131461D01*
X0119199Y0130263D02*
X0118357Y0130263D01*
X0118357Y0129064D02*
X0119199Y0129064D01*
X0119405Y0127866D02*
X0118357Y0127866D01*
X0118357Y0126667D02*
X0120161Y0126667D01*
X0120006Y0125468D02*
X0118357Y0125468D01*
X0118357Y0124270D02*
X0120455Y0124270D01*
X0118357Y0120674D02*
X0139964Y0120674D01*
X0143064Y0124270D02*
X0173780Y0124270D01*
X0173825Y0123071D02*
X0157796Y0123071D01*
X0158292Y0121873D02*
X0173870Y0121873D01*
X0173915Y0120674D02*
X0158184Y0120674D01*
X0157872Y0118446D02*
X0157872Y0118446D01*
X0157704Y0118277D02*
X0118357Y0118277D01*
X0118357Y0117079D02*
X0156888Y0117079D01*
X0156424Y0115880D02*
X0118357Y0115880D01*
X0118357Y0114682D02*
X0156424Y0114682D01*
X0157029Y0113483D02*
X0118357Y0113483D01*
X0118357Y0112285D02*
X0170695Y0112285D01*
X0170203Y0113483D02*
X0160147Y0113483D01*
X0160753Y0114682D02*
X0170203Y0114682D01*
X0170890Y0115880D02*
X0160753Y0115880D01*
X0154641Y0111086D02*
X0118357Y0111086D01*
X0118357Y0109888D02*
X0148900Y0109888D01*
X0148819Y0108689D02*
X0118357Y0108689D01*
X0118357Y0107491D02*
X0148819Y0107491D01*
X0147794Y0106292D02*
X0118357Y0106292D01*
X0118357Y0105094D02*
X0146595Y0105094D01*
X0145397Y0103895D02*
X0118357Y0103895D01*
X0118357Y0102697D02*
X0145381Y0102697D01*
X0145381Y0101498D02*
X0118357Y0101498D01*
X0118357Y0100300D02*
X0146174Y0100300D01*
X0147372Y0099101D02*
X0118357Y0099101D01*
X0118357Y0097903D02*
X0147396Y0097903D01*
X0148344Y0096704D02*
X0118357Y0096704D01*
X0118357Y0095506D02*
X0157185Y0095506D01*
X0157185Y0095605D02*
X0157185Y0094106D01*
X0157294Y0093699D01*
X0157505Y0093334D01*
X0157803Y0093036D01*
X0158035Y0092902D01*
X0157585Y0092451D01*
X0157585Y0088701D01*
X0158288Y0087998D01*
X0162825Y0087998D01*
X0163276Y0088449D01*
X0163410Y0088216D01*
X0163708Y0087918D01*
X0164073Y0087707D01*
X0164480Y0087598D01*
X0166373Y0087598D01*
X0166373Y0090487D01*
X0166551Y0090487D01*
X0166551Y0087598D01*
X0168445Y0087598D01*
X0168851Y0087707D01*
X0169216Y0087918D01*
X0169514Y0088216D01*
X0169725Y0088581D01*
X0169834Y0088988D01*
X0169834Y0090487D01*
X0166551Y0090487D01*
X0166551Y0090665D01*
X0169834Y0090665D01*
X0169834Y0092165D01*
X0169725Y0092572D01*
X0169514Y0092937D01*
X0169216Y0093235D01*
X0168983Y0093369D01*
X0169434Y0093819D01*
X0169434Y0097569D01*
X0168731Y0098272D01*
X0164193Y0098272D01*
X0163743Y0097822D01*
X0163609Y0098055D01*
X0163311Y0098353D01*
X0162946Y0098563D01*
X0162539Y0098672D01*
X0160646Y0098672D01*
X0160646Y0095784D01*
X0160468Y0095784D01*
X0160468Y0098672D01*
X0158574Y0098672D01*
X0158167Y0098563D01*
X0157803Y0098353D01*
X0157505Y0098055D01*
X0157294Y0097690D01*
X0157185Y0097283D01*
X0157185Y0095783D01*
X0160468Y0095783D01*
X0160468Y0095605D01*
X0157185Y0095605D01*
X0157185Y0096704D02*
X0150777Y0096704D01*
X0151725Y0097903D02*
X0157417Y0097903D01*
X0158007Y0100300D02*
X0158185Y0100300D01*
X0158185Y0101498D02*
X0158007Y0101498D01*
X0158007Y0102697D02*
X0158185Y0102697D01*
X0160929Y0100300D02*
X0175897Y0100300D01*
X0175675Y0101498D02*
X0166973Y0101498D01*
X0166973Y0102697D02*
X0175437Y0102697D01*
X0175304Y0103895D02*
X0166973Y0103895D01*
X0166634Y0105094D02*
X0175171Y0105094D01*
X0175038Y0106292D02*
X0168792Y0106292D01*
X0169502Y0107491D02*
X0174906Y0107491D01*
X0174773Y0108689D02*
X0169502Y0108689D01*
X0172541Y0109888D02*
X0174640Y0109888D01*
X0174507Y0111086D02*
X0173739Y0111086D01*
X0173868Y0112285D02*
X0174374Y0112285D01*
X0173960Y0119476D02*
X0118357Y0119476D01*
X0132295Y0132660D02*
X0132674Y0132660D01*
X0132674Y0133858D02*
X0132237Y0133858D01*
X0132237Y0135057D02*
X0132674Y0135057D01*
X0132674Y0136255D02*
X0132237Y0136255D01*
X0132237Y0137454D02*
X0132674Y0137454D01*
X0132674Y0138652D02*
X0131716Y0138652D01*
X0132674Y0139851D02*
X0130517Y0139851D01*
X0132674Y0141049D02*
X0126531Y0141049D01*
X0134474Y0144317D02*
X0134474Y0131029D01*
X0137830Y0136255D02*
X0138008Y0136255D01*
X0138008Y0137454D02*
X0137830Y0137454D01*
X0139199Y0138652D02*
X0136274Y0138652D01*
X0136274Y0139851D02*
X0139250Y0139851D01*
X0140449Y0141049D02*
X0136274Y0141049D01*
X0136274Y0142248D02*
X0159941Y0142248D01*
X0159941Y0143446D02*
X0136274Y0143446D01*
X0137863Y0144645D02*
X0159941Y0144645D01*
X0159941Y0145843D02*
X0138607Y0145843D01*
X0138607Y0147042D02*
X0159941Y0147042D01*
X0159941Y0148240D02*
X0137549Y0148240D01*
X0136443Y0146285D02*
X0134474Y0144317D01*
X0142279Y0141049D02*
X0159941Y0141049D01*
X0159941Y0139851D02*
X0143477Y0139851D01*
X0143528Y0138652D02*
X0159941Y0138652D01*
X0159941Y0137454D02*
X0143064Y0137454D01*
X0143064Y0136255D02*
X0159941Y0136255D01*
X0159941Y0135057D02*
X0143064Y0135057D01*
X0143064Y0133858D02*
X0159941Y0133858D01*
X0159924Y0132660D02*
X0143064Y0132660D01*
X0143064Y0131461D02*
X0150152Y0131461D01*
X0149534Y0130263D02*
X0143064Y0130263D01*
X0143064Y0129064D02*
X0149534Y0129064D01*
X0150718Y0127866D02*
X0143064Y0127866D01*
X0143064Y0126667D02*
X0174077Y0126667D01*
X0173730Y0125468D02*
X0143064Y0125468D01*
X0152679Y0127866D02*
X0176806Y0127866D01*
X0176933Y0129064D02*
X0160854Y0129064D01*
X0162053Y0130263D02*
X0177060Y0130263D01*
X0177186Y0131461D02*
X0163141Y0131461D01*
X0163141Y0132660D02*
X0177313Y0132660D01*
X0177440Y0133858D02*
X0163141Y0133858D01*
X0163141Y0135057D02*
X0177566Y0135057D01*
X0177693Y0136255D02*
X0163141Y0136255D01*
X0163141Y0137454D02*
X0177820Y0137454D01*
X0177946Y0138652D02*
X0163141Y0138652D01*
X0163141Y0139851D02*
X0178073Y0139851D01*
X0178144Y0140524D02*
X0178144Y0140524D01*
X0178256Y0141049D02*
X0163141Y0141049D01*
X0163141Y0142248D02*
X0178511Y0142248D01*
X0178766Y0143446D02*
X0163141Y0143446D01*
X0163141Y0144645D02*
X0179021Y0144645D01*
X0179276Y0145843D02*
X0163141Y0145843D01*
X0163141Y0147042D02*
X0179531Y0147042D01*
X0179786Y0148240D02*
X0163141Y0148240D01*
X0163141Y0149439D02*
X0180041Y0149439D01*
X0180296Y0150637D02*
X0163141Y0150637D01*
X0159941Y0150637D02*
X0116881Y0150637D01*
X0116881Y0149439D02*
X0159941Y0149439D01*
X0158185Y0151836D02*
X0158007Y0151836D01*
X0158007Y0153034D02*
X0158185Y0153034D01*
X0158185Y0154233D02*
X0158007Y0154233D01*
X0154724Y0154233D02*
X0152506Y0154233D01*
X0152506Y0155431D02*
X0154724Y0155431D01*
X0154880Y0156630D02*
X0152506Y0156630D01*
X0152506Y0157828D02*
X0154728Y0157828D01*
X0154728Y0159027D02*
X0152506Y0159027D01*
X0152506Y0160225D02*
X0154728Y0160225D01*
X0155015Y0161424D02*
X0152506Y0161424D01*
X0152506Y0162622D02*
X0158591Y0162622D01*
X0163116Y0162622D02*
X0171186Y0162622D01*
X0173161Y0163821D02*
X0166973Y0163821D01*
X0166973Y0165019D02*
X0184572Y0165019D01*
X0184183Y0163821D02*
X0175708Y0163821D01*
X0176599Y0162622D02*
X0183794Y0162622D01*
X0183405Y0161424D02*
X0176599Y0161424D01*
X0175688Y0160225D02*
X0183016Y0160225D01*
X0182627Y0159027D02*
X0166878Y0159027D01*
X0166698Y0157828D02*
X0182238Y0157828D01*
X0181848Y0156630D02*
X0162468Y0156630D01*
X0162468Y0155431D02*
X0181459Y0155431D01*
X0181070Y0154233D02*
X0168910Y0154233D01*
X0169095Y0153034D02*
X0180806Y0153034D01*
X0181042Y0154145D02*
X0181042Y0154145D01*
X0180551Y0151836D02*
X0168676Y0151836D01*
X0155444Y0151836D02*
X0116881Y0151836D01*
X0116881Y0153034D02*
X0147938Y0153034D01*
X0147938Y0154233D02*
X0116881Y0154233D01*
X0116881Y0155431D02*
X0147938Y0155431D01*
X0147938Y0156630D02*
X0116881Y0156630D01*
X0116881Y0157828D02*
X0147938Y0157828D01*
X0147938Y0159027D02*
X0116881Y0159027D01*
X0116881Y0160225D02*
X0147938Y0160225D01*
X0147938Y0161424D02*
X0116881Y0161424D01*
X0116881Y0162622D02*
X0147938Y0162622D01*
X0147938Y0163821D02*
X0116881Y0163821D01*
X0116881Y0165019D02*
X0147938Y0165019D01*
X0147644Y0166218D02*
X0116881Y0166218D01*
X0116881Y0167416D02*
X0146445Y0167416D01*
X0145247Y0168615D02*
X0116881Y0168615D01*
X0116881Y0169813D02*
X0144493Y0169813D01*
X0144493Y0171012D02*
X0116881Y0171012D01*
X0104923Y0174336D02*
X0102173Y0174336D01*
X0099604Y0180117D01*
X0092654Y0192185D01*
X0084486Y0203464D01*
X0075188Y0213831D01*
X0064861Y0223174D01*
X0064861Y0223174D01*
X0053617Y0231391D01*
X0041930Y0238189D01*
X0248672Y0238189D01*
X0236984Y0231391D01*
X0225741Y0223174D01*
X0225741Y0223174D01*
X0215414Y0213831D01*
X0206116Y0203464D01*
X0206116Y0203464D01*
X0197947Y0192185D01*
X0197947Y0192185D01*
X0193620Y0184671D01*
X0153667Y0184671D01*
X0153667Y0179381D01*
X0152187Y0179381D01*
X0151699Y0179869D01*
X0139911Y0179869D01*
X0139911Y0182339D01*
X0139032Y0183218D01*
X0138043Y0183218D01*
X0138043Y0184858D01*
X0134090Y0184858D01*
X0134090Y0186058D01*
X0138043Y0186058D01*
X0138043Y0188228D01*
X0137933Y0188635D01*
X0137723Y0189000D01*
X0137425Y0189298D01*
X0137060Y0189508D01*
X0136653Y0189617D01*
X0134090Y0189617D01*
X0134090Y0186058D01*
X0132890Y0186058D01*
X0132890Y0184858D01*
X0128937Y0184858D01*
X0126216Y0184858D01*
X0126216Y0186058D01*
X0132890Y0186058D01*
X0132890Y0189617D01*
X0130326Y0189617D01*
X0129919Y0189508D01*
X0129555Y0189298D01*
X0129553Y0189296D01*
X0129551Y0189298D01*
X0129186Y0189508D01*
X0128779Y0189617D01*
X0126216Y0189617D01*
X0126216Y0186058D01*
X0125016Y0186058D01*
X0125016Y0184858D01*
X0122294Y0184858D01*
X0118342Y0184858D01*
X0118342Y0186058D01*
X0125016Y0186058D01*
X0125016Y0189617D01*
X0122452Y0189617D01*
X0122045Y0189508D01*
X0121681Y0189298D01*
X0121679Y0189296D01*
X0121677Y0189298D01*
X0121312Y0189508D01*
X0120905Y0189617D01*
X0118342Y0189617D01*
X0118342Y0186058D01*
X0117142Y0186058D01*
X0117142Y0184858D01*
X0110468Y0184858D01*
X0110468Y0186058D01*
X0113189Y0186058D01*
X0117142Y0186058D01*
X0117142Y0189617D01*
X0114578Y0189617D01*
X0114171Y0189508D01*
X0113807Y0189298D01*
X0113805Y0189296D01*
X0113803Y0189298D01*
X0113438Y0189508D01*
X0113031Y0189617D01*
X0110468Y0189617D01*
X0110468Y0186058D01*
X0109268Y0186058D01*
X0109268Y0189617D01*
X0106704Y0189617D01*
X0106297Y0189508D01*
X0105933Y0189298D01*
X0105635Y0189000D01*
X0105424Y0188635D01*
X0105315Y0188228D01*
X0105315Y0186058D01*
X0109268Y0186058D01*
X0109268Y0184858D01*
X0105315Y0184858D01*
X0105315Y0182732D01*
X0104923Y0182339D01*
X0104923Y0174336D01*
X0104923Y0174607D02*
X0102053Y0174607D01*
X0101520Y0175806D02*
X0104923Y0175806D01*
X0104923Y0177004D02*
X0100987Y0177004D01*
X0100455Y0178203D02*
X0104923Y0178203D01*
X0104923Y0179401D02*
X0099922Y0179401D01*
X0099604Y0180117D02*
X0099604Y0180117D01*
X0099326Y0180600D02*
X0104923Y0180600D01*
X0104923Y0181799D02*
X0098636Y0181799D01*
X0097945Y0182997D02*
X0105315Y0182997D01*
X0105315Y0184196D02*
X0097255Y0184196D01*
X0096565Y0185394D02*
X0109268Y0185394D01*
X0109268Y0186593D02*
X0110468Y0186593D01*
X0110468Y0187791D02*
X0109268Y0187791D01*
X0109268Y0188990D02*
X0110468Y0188990D01*
X0110468Y0185394D02*
X0117142Y0185394D01*
X0117142Y0186593D02*
X0118342Y0186593D01*
X0118342Y0187791D02*
X0117142Y0187791D01*
X0117142Y0188990D02*
X0118342Y0188990D01*
X0118342Y0185394D02*
X0125016Y0185394D01*
X0125016Y0186593D02*
X0126216Y0186593D01*
X0126216Y0187791D02*
X0125016Y0187791D01*
X0125016Y0188990D02*
X0126216Y0188990D01*
X0126216Y0185394D02*
X0132890Y0185394D01*
X0132890Y0186593D02*
X0134090Y0186593D01*
X0134090Y0187791D02*
X0132890Y0187791D01*
X0132890Y0188990D02*
X0134090Y0188990D01*
X0134090Y0185394D02*
X0194037Y0185394D01*
X0194727Y0186593D02*
X0138043Y0186593D01*
X0138043Y0187791D02*
X0195417Y0187791D01*
X0196107Y0188990D02*
X0194479Y0188990D01*
X0195473Y0189367D02*
X0195473Y0189367D01*
X0197549Y0191710D01*
X0198298Y0194750D01*
X0197549Y0197789D01*
X0195473Y0200133D01*
X0192546Y0201243D01*
X0192546Y0201243D01*
X0189438Y0200865D01*
X0186862Y0199087D01*
X0186862Y0199087D01*
X0185407Y0196315D01*
X0185407Y0193184D01*
X0186862Y0190412D01*
X0189438Y0188634D01*
X0192546Y0188256D01*
X0195473Y0189367D01*
X0195473Y0189367D01*
X0196201Y0190188D02*
X0196797Y0190188D01*
X0197263Y0191387D02*
X0197488Y0191387D01*
X0197549Y0191710D02*
X0197549Y0191710D01*
X0197765Y0192585D02*
X0198237Y0192585D01*
X0198060Y0193784D02*
X0199105Y0193784D01*
X0198241Y0194982D02*
X0199973Y0194982D01*
X0200841Y0196181D02*
X0197946Y0196181D01*
X0197650Y0197379D02*
X0201709Y0197379D01*
X0202577Y0198578D02*
X0196851Y0198578D01*
X0197549Y0197789D02*
X0197549Y0197789D01*
X0195789Y0199776D02*
X0203445Y0199776D01*
X0204313Y0200975D02*
X0193253Y0200975D01*
X0195473Y0200133D02*
X0195473Y0200133D01*
X0190337Y0200975D02*
X0100340Y0200975D01*
X0099633Y0201243D02*
X0096525Y0200865D01*
X0093948Y0199087D01*
X0092493Y0196315D01*
X0092493Y0193184D01*
X0093948Y0190412D01*
X0096525Y0188634D01*
X0099633Y0188256D01*
X0102560Y0189367D01*
X0104636Y0191710D01*
X0105385Y0194750D01*
X0104636Y0197789D01*
X0104636Y0197789D01*
X0102560Y0200133D01*
X0099633Y0201243D01*
X0097424Y0200975D02*
X0086289Y0200975D01*
X0085421Y0202173D02*
X0205181Y0202173D01*
X0206049Y0203372D02*
X0084553Y0203372D01*
X0084486Y0203464D02*
X0084486Y0203464D01*
X0083494Y0204570D02*
X0207108Y0204570D01*
X0208183Y0205769D02*
X0082419Y0205769D01*
X0081344Y0206967D02*
X0209258Y0206967D01*
X0210333Y0208166D02*
X0080269Y0208166D01*
X0079194Y0209364D02*
X0211408Y0209364D01*
X0212483Y0210563D02*
X0078119Y0210563D01*
X0077044Y0211761D02*
X0213557Y0211761D01*
X0214632Y0212960D02*
X0075969Y0212960D01*
X0075188Y0213831D02*
X0075188Y0213831D01*
X0074826Y0214158D02*
X0215775Y0214158D01*
X0215414Y0213831D02*
X0215414Y0213831D01*
X0215414Y0213831D01*
X0217100Y0215357D02*
X0073501Y0215357D01*
X0072177Y0216555D02*
X0218425Y0216555D01*
X0219750Y0217754D02*
X0070852Y0217754D01*
X0069527Y0218952D02*
X0221074Y0218952D01*
X0222399Y0220151D02*
X0068202Y0220151D01*
X0066878Y0221349D02*
X0223724Y0221349D01*
X0225049Y0222548D02*
X0065553Y0222548D01*
X0064078Y0223746D02*
X0226524Y0223746D01*
X0228164Y0224945D02*
X0062438Y0224945D01*
X0060798Y0226143D02*
X0229804Y0226143D01*
X0231444Y0227342D02*
X0059158Y0227342D01*
X0057518Y0228540D02*
X0233084Y0228540D01*
X0234724Y0229739D02*
X0055878Y0229739D01*
X0054238Y0230937D02*
X0236364Y0230937D01*
X0236984Y0231391D02*
X0236984Y0231391D01*
X0238265Y0232136D02*
X0052337Y0232136D01*
X0053617Y0231391D02*
X0053617Y0231391D01*
X0050276Y0233334D02*
X0240326Y0233334D01*
X0242386Y0234533D02*
X0048215Y0234533D01*
X0046155Y0235732D02*
X0244447Y0235732D01*
X0246507Y0236930D02*
X0044094Y0236930D01*
X0042034Y0238129D02*
X0248568Y0238129D01*
X0192546Y0188256D02*
X0192546Y0188256D01*
X0189438Y0188634D02*
X0189438Y0188634D01*
X0188922Y0188990D02*
X0137729Y0188990D01*
X0138043Y0184196D02*
X0153667Y0184196D01*
X0153667Y0182997D02*
X0139253Y0182997D01*
X0139911Y0181799D02*
X0153667Y0181799D01*
X0153667Y0180600D02*
X0139911Y0180600D01*
X0152166Y0179401D02*
X0153667Y0179401D01*
X0156128Y0179401D02*
X0190680Y0179401D01*
X0190997Y0180117D02*
X0190997Y0180117D01*
X0191276Y0180600D02*
X0156128Y0180600D01*
X0156128Y0181799D02*
X0191966Y0181799D01*
X0190147Y0178203D02*
X0160268Y0178203D01*
X0161467Y0177004D02*
X0162611Y0177004D01*
X0166180Y0177004D02*
X0189614Y0177004D01*
X0189082Y0175806D02*
X0166776Y0175806D01*
X0166776Y0174607D02*
X0188549Y0174607D01*
X0188016Y0173409D02*
X0166776Y0173409D01*
X0166973Y0172210D02*
X0187484Y0172210D01*
X0186951Y0171012D02*
X0166973Y0171012D01*
X0166973Y0169813D02*
X0186418Y0169813D01*
X0185886Y0168615D02*
X0166965Y0168615D01*
X0166811Y0167416D02*
X0185353Y0167416D01*
X0184961Y0166218D02*
X0166973Y0166218D01*
X0155286Y0167416D02*
X0152506Y0167416D01*
X0152506Y0166218D02*
X0155124Y0166218D01*
X0155124Y0165019D02*
X0152506Y0165019D01*
X0152506Y0163821D02*
X0155124Y0163821D01*
X0155132Y0168615D02*
X0151876Y0168615D01*
X0150678Y0169813D02*
X0155124Y0169813D01*
X0155124Y0171012D02*
X0149479Y0171012D01*
X0152506Y0153034D02*
X0154724Y0153034D01*
X0162204Y0130413D02*
X0162204Y0130413D01*
X0152280Y0109888D02*
X0152102Y0109888D01*
X0152102Y0108689D02*
X0152280Y0108689D01*
X0150871Y0100300D02*
X0155263Y0100300D01*
X0160468Y0097903D02*
X0160646Y0097903D01*
X0160646Y0096704D02*
X0160468Y0096704D01*
X0163696Y0097903D02*
X0163824Y0097903D01*
X0169101Y0097903D02*
X0176341Y0097903D01*
X0176119Y0099101D02*
X0151725Y0099101D01*
X0157185Y0094307D02*
X0118357Y0094307D01*
X0118357Y0093109D02*
X0157730Y0093109D01*
X0157585Y0091910D02*
X0154508Y0091910D01*
X0154847Y0090712D02*
X0157585Y0090712D01*
X0157585Y0089513D02*
X0154852Y0089513D01*
X0156051Y0088315D02*
X0157972Y0088315D01*
X0156539Y0087116D02*
X0178690Y0087116D01*
X0179004Y0085918D02*
X0156539Y0085918D01*
X0156220Y0084719D02*
X0179317Y0084719D01*
X0179631Y0083521D02*
X0157596Y0083521D01*
X0157912Y0082322D02*
X0179944Y0082322D01*
X0180225Y0081124D02*
X0157623Y0081124D01*
X0156583Y0079925D02*
X0180633Y0079925D01*
X0181042Y0078727D02*
X0156583Y0078727D01*
X0156583Y0077528D02*
X0181450Y0077528D01*
X0181859Y0076330D02*
X0156583Y0076330D01*
X0156583Y0075131D02*
X0182268Y0075131D01*
X0182676Y0073932D02*
X0156583Y0073932D01*
X0156583Y0072734D02*
X0183085Y0072734D01*
X0183493Y0071535D02*
X0156583Y0071535D01*
X0157154Y0070337D02*
X0183868Y0070337D01*
X0184376Y0069138D02*
X0158352Y0069138D01*
X0159551Y0067940D02*
X0184885Y0067940D01*
X0185393Y0066741D02*
X0160749Y0066741D01*
X0161948Y0065543D02*
X0185902Y0065543D01*
X0186410Y0064344D02*
X0163146Y0064344D01*
X0164345Y0063146D02*
X0186919Y0063146D01*
X0187427Y0061947D02*
X0167851Y0061947D01*
X0168135Y0060749D02*
X0187936Y0060749D01*
X0188331Y0059550D02*
X0169909Y0059550D01*
X0171107Y0058352D02*
X0188842Y0058352D01*
X0188842Y0057153D02*
X0172115Y0057153D01*
X0172115Y0055955D02*
X0188842Y0055955D01*
X0188842Y0054756D02*
X0172115Y0054756D01*
X0172115Y0053558D02*
X0188842Y0053558D01*
X0188842Y0052359D02*
X0172115Y0052359D01*
X0172115Y0051161D02*
X0188842Y0051161D01*
X0188842Y0049962D02*
X0172115Y0049962D01*
X0172115Y0048764D02*
X0188842Y0048764D01*
X0188370Y0047565D02*
X0172115Y0047565D01*
X0172115Y0046367D02*
X0187171Y0046367D01*
X0185973Y0045168D02*
X0172115Y0045168D01*
X0172115Y0043970D02*
X0184774Y0043970D01*
X0183576Y0042771D02*
X0172115Y0042771D01*
X0171187Y0039908D02*
X0171187Y0039573D01*
X0172455Y0038305D01*
X0173112Y0038305D01*
X0174597Y0036821D01*
X0175593Y0035825D01*
X0181438Y0035825D01*
X0185407Y0039794D01*
X0185407Y0037436D01*
X0186862Y0034664D01*
X0189438Y0032886D01*
X0192546Y0032508D01*
X0195473Y0033618D01*
X0195473Y0033618D01*
X0197549Y0035962D01*
X0198298Y0039002D01*
X0197549Y0042041D01*
X0197549Y0042041D01*
X0195473Y0044385D01*
X0192546Y0045495D01*
X0190909Y0045296D01*
X0191246Y0045633D01*
X0192242Y0046629D01*
X0192242Y0057614D01*
X0195475Y0051563D01*
X0202695Y0040740D01*
X0210935Y0030671D01*
X0212808Y0028791D01*
X0133530Y0028791D01*
X0133755Y0028905D01*
X0134379Y0029359D01*
X0134924Y0029904D01*
X0135377Y0030528D01*
X0135728Y0031215D01*
X0135966Y0031949D01*
X0136087Y0032710D01*
X0136087Y0032712D01*
X0131571Y0032712D01*
X0131571Y0033480D01*
X0136087Y0033480D01*
X0136087Y0033482D01*
X0135966Y0034243D01*
X0135728Y0034977D01*
X0135377Y0035664D01*
X0134924Y0036288D01*
X0134379Y0036834D01*
X0133755Y0037287D01*
X0133068Y0037637D01*
X0132334Y0037875D01*
X0132218Y0037894D01*
X0134303Y0037894D01*
X0136319Y0035878D01*
X0136319Y0031449D01*
X0137256Y0030512D01*
X0143011Y0030512D01*
X0143789Y0031291D01*
X0143931Y0031196D01*
X0144616Y0030912D01*
X0145343Y0030768D01*
X0145625Y0030768D01*
X0145625Y0034444D01*
X0145803Y0034444D01*
X0145803Y0030768D01*
X0146085Y0030768D01*
X0146812Y0030912D01*
X0147498Y0031196D01*
X0148114Y0031608D01*
X0148497Y0031991D01*
X0148808Y0031680D01*
X0150045Y0031168D01*
X0151384Y0031168D01*
X0152620Y0031680D01*
X0152931Y0031991D01*
X0153314Y0031608D01*
X0153931Y0031196D01*
X0154616Y0030912D01*
X0155343Y0030768D01*
X0155625Y0030768D01*
X0155625Y0034444D01*
X0155803Y0034444D01*
X0155803Y0030768D01*
X0156085Y0030768D01*
X0156812Y0030912D01*
X0157498Y0031196D01*
X0158114Y0031608D01*
X0158497Y0031991D01*
X0158808Y0031680D01*
X0160045Y0031168D01*
X0161384Y0031168D01*
X0162620Y0031680D01*
X0163567Y0032627D01*
X0164080Y0033864D01*
X0164080Y0035202D01*
X0163911Y0035609D01*
X0165135Y0036833D01*
X0168112Y0036833D01*
X0171187Y0039908D01*
X0171585Y0039176D02*
X0170455Y0039176D01*
X0169256Y0037977D02*
X0173441Y0037977D01*
X0174639Y0036779D02*
X0165081Y0036779D01*
X0163923Y0035580D02*
X0186381Y0035580D01*
X0186862Y0034664D02*
X0186862Y0034664D01*
X0186862Y0034664D01*
X0187271Y0034382D02*
X0164080Y0034382D01*
X0163798Y0033183D02*
X0189007Y0033183D01*
X0189438Y0032886D02*
X0189438Y0032886D01*
X0192546Y0032508D02*
X0192546Y0032508D01*
X0194325Y0033183D02*
X0208879Y0033183D01*
X0207898Y0034382D02*
X0196149Y0034382D01*
X0197211Y0035580D02*
X0206918Y0035580D01*
X0205937Y0036779D02*
X0197751Y0036779D01*
X0197549Y0035962D02*
X0197549Y0035962D01*
X0198046Y0037977D02*
X0204956Y0037977D01*
X0203975Y0039176D02*
X0198256Y0039176D01*
X0197960Y0040374D02*
X0202994Y0040374D01*
X0202140Y0041573D02*
X0197665Y0041573D01*
X0196903Y0042771D02*
X0201340Y0042771D01*
X0200541Y0043970D02*
X0195841Y0043970D01*
X0195473Y0044385D02*
X0195473Y0044385D01*
X0193407Y0045168D02*
X0199741Y0045168D01*
X0198942Y0046367D02*
X0191980Y0046367D01*
X0191246Y0045633D02*
X0191246Y0045633D01*
X0192546Y0045495D02*
X0192546Y0045495D01*
X0192242Y0047565D02*
X0198142Y0047565D01*
X0197342Y0048764D02*
X0192242Y0048764D01*
X0192242Y0049962D02*
X0196543Y0049962D01*
X0195743Y0051161D02*
X0192242Y0051161D01*
X0192242Y0052359D02*
X0195050Y0052359D01*
X0194409Y0053558D02*
X0192242Y0053558D01*
X0192242Y0054756D02*
X0193769Y0054756D01*
X0193128Y0055955D02*
X0192242Y0055955D01*
X0192242Y0057153D02*
X0192488Y0057153D01*
X0182377Y0041573D02*
X0175310Y0041573D01*
X0175852Y0040374D02*
X0181179Y0040374D01*
X0183590Y0037977D02*
X0185407Y0037977D01*
X0185407Y0039176D02*
X0184788Y0039176D01*
X0185752Y0036779D02*
X0182391Y0036779D01*
X0167915Y0044874D02*
X0167658Y0045131D01*
X0150994Y0045131D01*
X0149998Y0044135D01*
X0149014Y0043151D01*
X0149014Y0042964D01*
X0148424Y0043554D01*
X0136166Y0043554D01*
X0136166Y0047373D01*
X0135463Y0048076D01*
X0130532Y0048076D01*
X0130045Y0047588D01*
X0129558Y0048076D01*
X0124627Y0048076D01*
X0124139Y0047588D01*
X0123652Y0048076D01*
X0118721Y0048076D01*
X0118234Y0047588D01*
X0117906Y0047916D01*
X0117938Y0047947D01*
X0117938Y0049741D01*
X0117273Y0050405D01*
X0117273Y0054387D01*
X0116865Y0054795D01*
X0116865Y0055734D01*
X0116112Y0056488D01*
X0116367Y0056437D01*
X0116718Y0056437D01*
X0116718Y0060005D01*
X0116718Y0060005D01*
X0116718Y0056437D01*
X0117070Y0056437D01*
X0117759Y0056574D01*
X0118408Y0056843D01*
X0118993Y0057234D01*
X0119490Y0057731D01*
X0119499Y0057744D01*
X0119923Y0057319D01*
X0121088Y0056837D01*
X0122348Y0056837D01*
X0123513Y0057319D01*
X0124404Y0058211D01*
X0124887Y0059375D01*
X0124887Y0059647D01*
X0125979Y0059647D01*
X0126084Y0059542D01*
X0126084Y0059542D01*
X0126963Y0058663D01*
X0134513Y0058663D01*
X0134450Y0058600D01*
X0134450Y0058391D01*
X0134266Y0058391D01*
X0132998Y0057123D01*
X0132998Y0055329D01*
X0134266Y0054061D01*
X0136060Y0054061D01*
X0137328Y0055329D01*
X0137328Y0055974D01*
X0137450Y0056097D01*
X0137450Y0057357D01*
X0137556Y0057463D01*
X0141230Y0057463D01*
X0144181Y0054512D01*
X0144181Y0053843D01*
X0145277Y0052747D01*
X0145277Y0051242D01*
X0145257Y0051222D01*
X0145257Y0048435D01*
X0146136Y0047556D01*
X0147228Y0046464D01*
X0150016Y0046464D01*
X0150404Y0046852D01*
X0159713Y0046852D01*
X0162100Y0049239D01*
X0163398Y0049239D01*
X0164062Y0048574D01*
X0165856Y0048574D01*
X0167124Y0049842D01*
X0167124Y0051635D01*
X0165856Y0052903D01*
X0165602Y0052903D01*
X0165602Y0053676D01*
X0162713Y0053676D01*
X0162713Y0053854D01*
X0165602Y0053854D01*
X0165602Y0055748D01*
X0165493Y0056155D01*
X0165465Y0056202D01*
X0167317Y0056202D01*
X0167915Y0055605D01*
X0167915Y0044874D01*
X0167915Y0045168D02*
X0136166Y0045168D01*
X0136166Y0043970D02*
X0149833Y0043970D01*
X0146127Y0047565D02*
X0135974Y0047565D01*
X0136166Y0046367D02*
X0167915Y0046367D01*
X0167915Y0047565D02*
X0160426Y0047565D01*
X0161625Y0048764D02*
X0163873Y0048764D01*
X0166045Y0048764D02*
X0167915Y0048764D01*
X0167915Y0049962D02*
X0167124Y0049962D01*
X0167124Y0051161D02*
X0167915Y0051161D01*
X0167915Y0052359D02*
X0166399Y0052359D01*
X0165602Y0053558D02*
X0167915Y0053558D01*
X0167915Y0054756D02*
X0165602Y0054756D01*
X0165546Y0055955D02*
X0167565Y0055955D01*
X0162713Y0055955D02*
X0162535Y0055955D01*
X0162713Y0056978D02*
X0162713Y0053854D01*
X0162535Y0053854D01*
X0162535Y0057137D01*
X0161765Y0057137D01*
X0161765Y0057926D01*
X0162713Y0056978D01*
X0162537Y0057153D02*
X0161765Y0057153D01*
X0162535Y0054756D02*
X0162713Y0054756D01*
X0155549Y0061879D02*
X0148116Y0061879D01*
X0145334Y0064661D01*
X0144456Y0065539D01*
X0138058Y0065539D01*
X0130772Y0072826D01*
X0130772Y0077693D01*
X0130244Y0078220D01*
X0129896Y0078568D01*
X0129972Y0078850D01*
X0129972Y0080350D01*
X0126689Y0080350D01*
X0126689Y0080528D01*
X0129972Y0080528D01*
X0129972Y0082027D01*
X0129863Y0082434D01*
X0129655Y0082794D01*
X0130733Y0083873D01*
X0130733Y0084746D01*
X0131514Y0084746D01*
X0132140Y0084120D01*
X0133933Y0084120D01*
X0134808Y0084995D01*
X0135230Y0084573D01*
X0137023Y0084573D01*
X0137488Y0085038D01*
X0149059Y0085038D01*
X0149583Y0084514D01*
X0149583Y0067845D01*
X0150579Y0066849D01*
X0155549Y0061879D01*
X0155480Y0061947D02*
X0148048Y0061947D01*
X0146849Y0063146D02*
X0154282Y0063146D01*
X0153083Y0064344D02*
X0145651Y0064344D01*
X0149583Y0067940D02*
X0135657Y0067940D01*
X0134459Y0069138D02*
X0149583Y0069138D01*
X0149583Y0070337D02*
X0133260Y0070337D01*
X0132062Y0071535D02*
X0149583Y0071535D01*
X0149583Y0072734D02*
X0130863Y0072734D01*
X0130772Y0073932D02*
X0149583Y0073932D01*
X0149583Y0075131D02*
X0130772Y0075131D01*
X0130772Y0076330D02*
X0149583Y0076330D01*
X0149583Y0077528D02*
X0130772Y0077528D01*
X0129939Y0078727D02*
X0149583Y0078727D01*
X0149583Y0079925D02*
X0129972Y0079925D01*
X0129972Y0081124D02*
X0149583Y0081124D01*
X0149583Y0082322D02*
X0129893Y0082322D01*
X0130381Y0083521D02*
X0149583Y0083521D01*
X0149377Y0084719D02*
X0137169Y0084719D01*
X0135084Y0084719D02*
X0134532Y0084719D01*
X0131541Y0084719D02*
X0130733Y0084719D01*
X0128794Y0087116D02*
X0118357Y0087116D01*
X0118357Y0088315D02*
X0132005Y0088315D01*
X0134144Y0089513D02*
X0118357Y0089513D01*
X0118357Y0090712D02*
X0135342Y0090712D01*
X0136093Y0091910D02*
X0118357Y0091910D01*
X0117216Y0085918D02*
X0126656Y0085918D01*
X0126404Y0084719D02*
X0116017Y0084719D01*
X0114819Y0083521D02*
X0126756Y0083521D01*
X0126689Y0082322D02*
X0126511Y0082322D01*
X0126511Y0081124D02*
X0126689Y0081124D01*
X0119554Y0082322D02*
X0118882Y0082322D01*
X0114554Y0082322D02*
X0113928Y0082322D01*
X0108268Y0081695D02*
X0108268Y0060114D01*
X0107904Y0060477D01*
X0102973Y0060477D01*
X0102270Y0059774D01*
X0102270Y0054449D01*
X0102720Y0053999D01*
X0102488Y0053865D01*
X0102190Y0053567D01*
X0101979Y0053202D01*
X0101870Y0052795D01*
X0101870Y0050803D01*
X0105054Y0050803D01*
X0105054Y0050035D01*
X0101870Y0050035D01*
X0101870Y0048043D01*
X0101979Y0047636D01*
X0102190Y0047271D01*
X0102488Y0046973D01*
X0102852Y0046763D01*
X0103259Y0046654D01*
X0105054Y0046654D01*
X0105054Y0050035D01*
X0105823Y0050035D01*
X0105823Y0046654D01*
X0107618Y0046654D01*
X0108025Y0046763D01*
X0108268Y0046903D01*
X0108268Y0038831D01*
X0109205Y0037894D01*
X0130155Y0037894D01*
X0130039Y0037875D01*
X0129306Y0037637D01*
X0128618Y0037287D01*
X0127994Y0036834D01*
X0127449Y0036288D01*
X0126996Y0035664D01*
X0126646Y0034977D01*
X0126407Y0034243D01*
X0126287Y0033482D01*
X0126287Y0033480D01*
X0130802Y0033480D01*
X0130802Y0032712D01*
X0126287Y0032712D01*
X0126287Y0032710D01*
X0126407Y0031949D01*
X0126646Y0031215D01*
X0126996Y0030528D01*
X0127449Y0029904D01*
X0127994Y0029359D01*
X0128618Y0028905D01*
X0128844Y0028791D01*
X0122551Y0028791D01*
X0123736Y0029281D01*
X0125002Y0030547D01*
X0125687Y0032201D01*
X0125687Y0033991D01*
X0125002Y0035645D01*
X0123736Y0036911D01*
X0122082Y0037596D01*
X0120291Y0037596D01*
X0118638Y0036911D01*
X0117372Y0035645D01*
X0116687Y0033991D01*
X0116687Y0032201D01*
X0117372Y0030547D01*
X0118638Y0029281D01*
X0119822Y0028791D01*
X0112551Y0028791D01*
X0113736Y0029281D01*
X0115002Y0030547D01*
X0115687Y0032201D01*
X0115687Y0033991D01*
X0115002Y0035645D01*
X0113736Y0036911D01*
X0112082Y0037596D01*
X0110291Y0037596D01*
X0108638Y0036911D01*
X0107372Y0035645D01*
X0106687Y0033991D01*
X0106687Y0032201D01*
X0107372Y0030547D01*
X0108638Y0029281D01*
X0109822Y0028791D01*
X0077794Y0028791D01*
X0079667Y0030671D01*
X0087906Y0040740D01*
X0095126Y0051563D01*
X0101258Y0063037D01*
X0106244Y0075054D01*
X0106244Y0075054D01*
X0108268Y0081695D01*
X0108268Y0081124D02*
X0108094Y0081124D01*
X0108268Y0079925D02*
X0107728Y0079925D01*
X0107363Y0078727D02*
X0108268Y0078727D01*
X0108268Y0077528D02*
X0106998Y0077528D01*
X0106633Y0076330D02*
X0108268Y0076330D01*
X0108268Y0075131D02*
X0106268Y0075131D01*
X0105779Y0073932D02*
X0108268Y0073932D01*
X0108268Y0072734D02*
X0105281Y0072734D01*
X0104784Y0071535D02*
X0108268Y0071535D01*
X0108268Y0070337D02*
X0104287Y0070337D01*
X0103790Y0069138D02*
X0108268Y0069138D01*
X0108268Y0067940D02*
X0103292Y0067940D01*
X0102795Y0066741D02*
X0108268Y0066741D01*
X0108268Y0065543D02*
X0102298Y0065543D01*
X0101801Y0064344D02*
X0108268Y0064344D01*
X0108268Y0063146D02*
X0101303Y0063146D01*
X0101258Y0063037D02*
X0101258Y0063037D01*
X0100676Y0061947D02*
X0108268Y0061947D01*
X0108268Y0060749D02*
X0100035Y0060749D01*
X0099395Y0059550D02*
X0102270Y0059550D01*
X0102270Y0058352D02*
X0098754Y0058352D01*
X0098114Y0057153D02*
X0102270Y0057153D01*
X0102270Y0055955D02*
X0097473Y0055955D01*
X0096833Y0054756D02*
X0102270Y0054756D01*
X0102185Y0053558D02*
X0096192Y0053558D01*
X0095552Y0052359D02*
X0101870Y0052359D01*
X0101870Y0051161D02*
X0094858Y0051161D01*
X0095126Y0051563D02*
X0095126Y0051563D01*
X0094059Y0049962D02*
X0101870Y0049962D01*
X0101870Y0048764D02*
X0093259Y0048764D01*
X0092460Y0047565D02*
X0102020Y0047565D01*
X0100494Y0045168D02*
X0108268Y0045168D01*
X0108268Y0043970D02*
X0102927Y0043970D01*
X0102560Y0044385D02*
X0102560Y0044385D01*
X0104636Y0042041D01*
X0105385Y0039002D01*
X0105385Y0039002D01*
X0104636Y0035962D01*
X0102560Y0033618D01*
X0102560Y0033618D01*
X0102560Y0033618D01*
X0099633Y0032508D01*
X0099633Y0032508D01*
X0096525Y0032886D01*
X0096525Y0032886D01*
X0093948Y0034664D01*
X0093948Y0034664D01*
X0093948Y0034664D01*
X0092493Y0037436D01*
X0092493Y0040567D01*
X0093948Y0043339D01*
X0093948Y0043339D01*
X0096525Y0045117D01*
X0096525Y0045117D01*
X0099633Y0045495D01*
X0099633Y0045495D01*
X0102560Y0044385D01*
X0103989Y0042771D02*
X0108268Y0042771D01*
X0108268Y0041573D02*
X0104751Y0041573D01*
X0104636Y0042041D02*
X0104636Y0042041D01*
X0105047Y0040374D02*
X0108268Y0040374D01*
X0108268Y0039176D02*
X0105342Y0039176D01*
X0105133Y0037977D02*
X0109122Y0037977D01*
X0108505Y0036779D02*
X0104837Y0036779D01*
X0104298Y0035580D02*
X0107345Y0035580D01*
X0106848Y0034382D02*
X0103236Y0034382D01*
X0101412Y0033183D02*
X0106687Y0033183D01*
X0106776Y0031985D02*
X0080742Y0031985D01*
X0081722Y0033183D02*
X0096094Y0033183D01*
X0094357Y0034382D02*
X0082703Y0034382D01*
X0083684Y0035580D02*
X0093467Y0035580D01*
X0092838Y0036779D02*
X0084665Y0036779D01*
X0085646Y0037977D02*
X0092493Y0037977D01*
X0092493Y0039176D02*
X0086626Y0039176D01*
X0087607Y0040374D02*
X0092493Y0040374D01*
X0093021Y0041573D02*
X0088462Y0041573D01*
X0087906Y0040740D02*
X0087906Y0040740D01*
X0089261Y0042771D02*
X0093650Y0042771D01*
X0094862Y0043970D02*
X0090061Y0043970D01*
X0090860Y0045168D02*
X0096943Y0045168D01*
X0091660Y0046367D02*
X0108268Y0046367D01*
X0105823Y0047565D02*
X0105054Y0047565D01*
X0105054Y0048764D02*
X0105823Y0048764D01*
X0105823Y0049962D02*
X0105054Y0049962D01*
X0116904Y0054756D02*
X0133571Y0054756D01*
X0132998Y0055955D02*
X0116645Y0055955D01*
X0116718Y0057153D02*
X0116718Y0057153D01*
X0116718Y0058352D02*
X0116718Y0058352D01*
X0116718Y0059550D02*
X0116718Y0059550D01*
X0118873Y0057153D02*
X0120324Y0057153D01*
X0123112Y0057153D02*
X0133029Y0057153D01*
X0134228Y0058352D02*
X0124463Y0058352D01*
X0124887Y0059550D02*
X0126076Y0059550D01*
X0128206Y0061663D02*
X0127221Y0062647D01*
X0123841Y0062647D01*
X0124404Y0063211D01*
X0124887Y0064375D01*
X0124887Y0065636D01*
X0124404Y0066800D01*
X0123699Y0067505D01*
X0124404Y0068211D01*
X0124526Y0068506D01*
X0126963Y0068506D01*
X0133805Y0061663D01*
X0128206Y0061663D01*
X0127921Y0061947D02*
X0133521Y0061947D01*
X0132323Y0063146D02*
X0124339Y0063146D01*
X0124874Y0064344D02*
X0131124Y0064344D01*
X0129926Y0065543D02*
X0124887Y0065543D01*
X0124429Y0066741D02*
X0128727Y0066741D01*
X0127528Y0067940D02*
X0124133Y0067940D01*
X0116718Y0070006D02*
X0116718Y0070006D01*
X0116718Y0075005D01*
X0116718Y0075005D01*
X0116718Y0071437D01*
X0116718Y0070006D01*
X0116718Y0070337D02*
X0116718Y0070337D01*
X0116718Y0071535D02*
X0116718Y0071535D01*
X0116718Y0072734D02*
X0116718Y0072734D01*
X0116718Y0073932D02*
X0116718Y0073932D01*
X0136856Y0066741D02*
X0150686Y0066741D01*
X0151885Y0065543D02*
X0138054Y0065543D01*
X0137450Y0057153D02*
X0141539Y0057153D01*
X0142738Y0055955D02*
X0137328Y0055955D01*
X0136754Y0054756D02*
X0143936Y0054756D01*
X0144466Y0053558D02*
X0117273Y0053558D01*
X0117273Y0052359D02*
X0145277Y0052359D01*
X0145257Y0051161D02*
X0117273Y0051161D01*
X0117716Y0049962D02*
X0145257Y0049962D01*
X0145257Y0048764D02*
X0117938Y0048764D01*
X0118505Y0036779D02*
X0113868Y0036779D01*
X0115028Y0035580D02*
X0117345Y0035580D01*
X0116848Y0034382D02*
X0115525Y0034382D01*
X0115687Y0033183D02*
X0116687Y0033183D01*
X0116776Y0031985D02*
X0115597Y0031985D01*
X0115101Y0030786D02*
X0117273Y0030786D01*
X0118331Y0029588D02*
X0114042Y0029588D01*
X0108331Y0029588D02*
X0078588Y0029588D01*
X0079667Y0030671D02*
X0079667Y0030671D01*
X0079761Y0030786D02*
X0107273Y0030786D01*
X0124042Y0029588D02*
X0127765Y0029588D01*
X0126864Y0030786D02*
X0125101Y0030786D01*
X0125597Y0031985D02*
X0126402Y0031985D01*
X0125687Y0033183D02*
X0130802Y0033183D01*
X0131571Y0033183D02*
X0136319Y0033183D01*
X0136319Y0031985D02*
X0135972Y0031985D01*
X0135509Y0030786D02*
X0136982Y0030786D01*
X0134608Y0029588D02*
X0212014Y0029588D01*
X0210841Y0030786D02*
X0156177Y0030786D01*
X0155803Y0030786D02*
X0155625Y0030786D01*
X0155251Y0030786D02*
X0146177Y0030786D01*
X0145803Y0030786D02*
X0145625Y0030786D01*
X0145251Y0030786D02*
X0143285Y0030786D01*
X0145625Y0031985D02*
X0145803Y0031985D01*
X0145803Y0033183D02*
X0145625Y0033183D01*
X0145625Y0034382D02*
X0145803Y0034382D01*
X0148491Y0031985D02*
X0148503Y0031985D01*
X0152925Y0031985D02*
X0152938Y0031985D01*
X0155625Y0031985D02*
X0155803Y0031985D01*
X0155803Y0033183D02*
X0155625Y0033183D01*
X0155625Y0034382D02*
X0155803Y0034382D01*
X0155803Y0034622D02*
X0155625Y0034622D01*
X0155625Y0039444D01*
X0155803Y0039444D01*
X0155803Y0035768D01*
X0155803Y0034622D01*
X0155803Y0035580D02*
X0155625Y0035580D01*
X0155625Y0036779D02*
X0155803Y0036779D01*
X0155803Y0037977D02*
X0155625Y0037977D01*
X0155625Y0039176D02*
X0155803Y0039176D01*
X0158491Y0031985D02*
X0158503Y0031985D01*
X0162925Y0031985D02*
X0209860Y0031985D01*
X0178377Y0088315D02*
X0169571Y0088315D01*
X0169834Y0089513D02*
X0178063Y0089513D01*
X0177750Y0090712D02*
X0169834Y0090712D01*
X0169834Y0091910D02*
X0177436Y0091910D01*
X0177229Y0093109D02*
X0169342Y0093109D01*
X0169434Y0094307D02*
X0177007Y0094307D01*
X0176785Y0095506D02*
X0169434Y0095506D01*
X0169434Y0096704D02*
X0176563Y0096704D01*
X0166551Y0089513D02*
X0166373Y0089513D01*
X0166373Y0088315D02*
X0166551Y0088315D01*
X0163353Y0088315D02*
X0163142Y0088315D01*
X0135418Y0036779D02*
X0134434Y0036779D01*
X0135420Y0035580D02*
X0136319Y0035580D01*
X0136319Y0034382D02*
X0135921Y0034382D01*
X0127940Y0036779D02*
X0123868Y0036779D01*
X0125028Y0035580D02*
X0126953Y0035580D01*
X0126452Y0034382D02*
X0125525Y0034382D01*
X0105315Y0186593D02*
X0095875Y0186593D01*
X0095185Y0187791D02*
X0105315Y0187791D01*
X0105629Y0188990D02*
X0101566Y0188990D01*
X0102560Y0189367D02*
X0102560Y0189367D01*
X0103288Y0190188D02*
X0187186Y0190188D01*
X0186862Y0190412D02*
X0186862Y0190412D01*
X0186862Y0190412D01*
X0186350Y0191387D02*
X0104349Y0191387D01*
X0104636Y0191710D02*
X0104636Y0191710D01*
X0104852Y0192585D02*
X0185721Y0192585D01*
X0185407Y0193784D02*
X0105147Y0193784D01*
X0105385Y0194750D02*
X0105385Y0194750D01*
X0105328Y0194982D02*
X0185407Y0194982D01*
X0185407Y0196181D02*
X0105032Y0196181D01*
X0104737Y0197379D02*
X0185965Y0197379D01*
X0186594Y0198578D02*
X0103937Y0198578D01*
X0102876Y0199776D02*
X0187860Y0199776D01*
X0186862Y0199087D02*
X0186862Y0199087D01*
X0189438Y0200865D02*
X0189438Y0200865D01*
X0099633Y0188256D02*
X0099633Y0188256D01*
X0096525Y0188634D02*
X0096525Y0188634D01*
X0096009Y0188990D02*
X0094494Y0188990D01*
X0094273Y0190188D02*
X0093804Y0190188D01*
X0093948Y0190412D02*
X0093948Y0190412D01*
X0093948Y0190412D01*
X0093437Y0191387D02*
X0093114Y0191387D01*
X0092654Y0192185D02*
X0092654Y0192185D01*
X0092808Y0192585D02*
X0092364Y0192585D01*
X0092493Y0193784D02*
X0091497Y0193784D01*
X0090629Y0194982D02*
X0092493Y0194982D01*
X0092493Y0196181D02*
X0089761Y0196181D01*
X0088893Y0197379D02*
X0093052Y0197379D01*
X0093681Y0198578D02*
X0088025Y0198578D01*
X0087157Y0199776D02*
X0094947Y0199776D01*
X0093948Y0199087D02*
X0093948Y0199087D01*
X0093948Y0199087D01*
D26*
X0145793Y0176797D02*
X0145793Y0169907D01*
X0149238Y0166462D01*
X0149238Y0153175D01*
X0151206Y0153175D01*
X0151206Y0167446D01*
X0147761Y0170891D01*
X0147761Y0176797D01*
X0145793Y0176797D01*
X0145793Y0176670D02*
X0147761Y0176670D01*
X0147761Y0176471D02*
X0145793Y0176471D01*
X0145793Y0176273D02*
X0147761Y0176273D01*
X0147761Y0176074D02*
X0145793Y0176074D01*
X0145793Y0175876D02*
X0147761Y0175876D01*
X0147761Y0175677D02*
X0145793Y0175677D01*
X0145793Y0175479D02*
X0147761Y0175479D01*
X0147761Y0175280D02*
X0145793Y0175280D01*
X0145793Y0175081D02*
X0147761Y0175081D01*
X0147761Y0174883D02*
X0145793Y0174883D01*
X0145793Y0174684D02*
X0147761Y0174684D01*
X0147761Y0174486D02*
X0145793Y0174486D01*
X0145793Y0174287D02*
X0147761Y0174287D01*
X0147761Y0174089D02*
X0145793Y0174089D01*
X0145793Y0173890D02*
X0147761Y0173890D01*
X0147761Y0173692D02*
X0145793Y0173692D01*
X0145793Y0173493D02*
X0147761Y0173493D01*
X0147761Y0173295D02*
X0145793Y0173295D01*
X0145793Y0173096D02*
X0147761Y0173096D01*
X0147761Y0172898D02*
X0145793Y0172898D01*
X0145793Y0172699D02*
X0147761Y0172699D01*
X0147761Y0172501D02*
X0145793Y0172501D01*
X0145793Y0172302D02*
X0147761Y0172302D01*
X0147761Y0172104D02*
X0145793Y0172104D01*
X0145793Y0171905D02*
X0147761Y0171905D01*
X0147761Y0171707D02*
X0145793Y0171707D01*
X0145793Y0171508D02*
X0147761Y0171508D01*
X0147761Y0171310D02*
X0145793Y0171310D01*
X0145793Y0171111D02*
X0147761Y0171111D01*
X0147761Y0170913D02*
X0145793Y0170913D01*
X0145793Y0170714D02*
X0147939Y0170714D01*
X0148137Y0170516D02*
X0145793Y0170516D01*
X0145793Y0170317D02*
X0148336Y0170317D01*
X0148534Y0170119D02*
X0145793Y0170119D01*
X0145793Y0169920D02*
X0148733Y0169920D01*
X0148931Y0169722D02*
X0145978Y0169722D01*
X0146177Y0169523D02*
X0149130Y0169523D01*
X0149328Y0169325D02*
X0146375Y0169325D01*
X0146574Y0169126D02*
X0149527Y0169126D01*
X0149725Y0168928D02*
X0146772Y0168928D01*
X0146971Y0168729D02*
X0149924Y0168729D01*
X0150122Y0168531D02*
X0147169Y0168531D01*
X0147368Y0168332D02*
X0150321Y0168332D01*
X0150519Y0168134D02*
X0147566Y0168134D01*
X0147765Y0167935D02*
X0150718Y0167935D01*
X0150916Y0167737D02*
X0147963Y0167737D01*
X0148162Y0167538D02*
X0151115Y0167538D01*
X0151206Y0167340D02*
X0148360Y0167340D01*
X0148559Y0167141D02*
X0151206Y0167141D01*
X0151206Y0166943D02*
X0148757Y0166943D01*
X0148956Y0166744D02*
X0151206Y0166744D01*
X0151206Y0166545D02*
X0149155Y0166545D01*
X0149238Y0166347D02*
X0151206Y0166347D01*
X0151206Y0166148D02*
X0149238Y0166148D01*
X0149238Y0165950D02*
X0151206Y0165950D01*
X0151206Y0165751D02*
X0149238Y0165751D01*
X0149238Y0165553D02*
X0151206Y0165553D01*
X0151206Y0165354D02*
X0149238Y0165354D01*
X0149238Y0165156D02*
X0151206Y0165156D01*
X0151206Y0164957D02*
X0149238Y0164957D01*
X0149238Y0164759D02*
X0151206Y0164759D01*
X0151206Y0164560D02*
X0149238Y0164560D01*
X0149238Y0164362D02*
X0151206Y0164362D01*
X0151206Y0164163D02*
X0149238Y0164163D01*
X0149238Y0163965D02*
X0151206Y0163965D01*
X0151206Y0163766D02*
X0149238Y0163766D01*
X0149238Y0163568D02*
X0151206Y0163568D01*
X0151206Y0163369D02*
X0149238Y0163369D01*
X0149238Y0163171D02*
X0151206Y0163171D01*
X0151206Y0162972D02*
X0149238Y0162972D01*
X0149238Y0162774D02*
X0151206Y0162774D01*
X0151206Y0162575D02*
X0149238Y0162575D01*
X0149238Y0162377D02*
X0151206Y0162377D01*
X0151206Y0162178D02*
X0149238Y0162178D01*
X0149238Y0161980D02*
X0151206Y0161980D01*
X0151206Y0161781D02*
X0149238Y0161781D01*
X0149238Y0161583D02*
X0151206Y0161583D01*
X0151206Y0161384D02*
X0149238Y0161384D01*
X0149238Y0161186D02*
X0151206Y0161186D01*
X0151206Y0160987D02*
X0149238Y0160987D01*
X0149238Y0160789D02*
X0151206Y0160789D01*
X0151206Y0160590D02*
X0149238Y0160590D01*
X0149238Y0160392D02*
X0151206Y0160392D01*
X0151206Y0160193D02*
X0149238Y0160193D01*
X0149238Y0159995D02*
X0151206Y0159995D01*
X0151206Y0159796D02*
X0149238Y0159796D01*
X0149238Y0159598D02*
X0151206Y0159598D01*
X0151206Y0159399D02*
X0149238Y0159399D01*
X0149238Y0159201D02*
X0151206Y0159201D01*
X0151206Y0159002D02*
X0149238Y0159002D01*
X0149238Y0158804D02*
X0151206Y0158804D01*
X0151206Y0158605D02*
X0149238Y0158605D01*
X0149238Y0158407D02*
X0151206Y0158407D01*
X0151206Y0158208D02*
X0149238Y0158208D01*
X0149238Y0158010D02*
X0151206Y0158010D01*
X0151206Y0157811D02*
X0149238Y0157811D01*
X0149238Y0157612D02*
X0151206Y0157612D01*
X0151206Y0157414D02*
X0149238Y0157414D01*
X0149238Y0157215D02*
X0151206Y0157215D01*
X0151206Y0157017D02*
X0149238Y0157017D01*
X0149238Y0156818D02*
X0151206Y0156818D01*
X0151206Y0156620D02*
X0149238Y0156620D01*
X0149238Y0156421D02*
X0151206Y0156421D01*
X0151206Y0156223D02*
X0149238Y0156223D01*
X0149238Y0156024D02*
X0151206Y0156024D01*
X0151206Y0155826D02*
X0149238Y0155826D01*
X0149238Y0155627D02*
X0151206Y0155627D01*
X0151206Y0155429D02*
X0149238Y0155429D01*
X0149238Y0155230D02*
X0151206Y0155230D01*
X0151206Y0155032D02*
X0149238Y0155032D01*
X0149238Y0154833D02*
X0151206Y0154833D01*
X0151206Y0154635D02*
X0149238Y0154635D01*
X0149238Y0154436D02*
X0151206Y0154436D01*
X0151206Y0154238D02*
X0149238Y0154238D01*
X0149238Y0154039D02*
X0151206Y0154039D01*
X0151206Y0153841D02*
X0149238Y0153841D01*
X0149238Y0153642D02*
X0151206Y0153642D01*
X0151206Y0153444D02*
X0149238Y0153444D01*
X0149238Y0153245D02*
X0151206Y0153245D01*
D27*
X0150222Y0154159D03*
X0146777Y0175320D03*
D28*
X0141364Y0138903D02*
X0141364Y0123647D01*
X0140380Y0122663D01*
X0136443Y0122663D01*
X0135458Y0123647D01*
X0135458Y0127092D01*
X0130537Y0132013D01*
X0130537Y0137427D01*
X0129061Y0138903D01*
X0125616Y0138903D01*
X0122171Y0129946D02*
X0122171Y0125616D01*
X0137919Y0125124D02*
X0137919Y0129946D01*
X0140380Y0122663D02*
X0141364Y0121679D01*
X0156128Y0121679D01*
X0159572Y0117742D02*
X0176305Y0117742D01*
X0176779Y0118055D02*
X0175715Y0118055D01*
X0175753Y0117057D02*
X0176782Y0117057D01*
X0176785Y0116058D02*
X0175791Y0116058D01*
X0175828Y0115060D02*
X0176788Y0115060D01*
X0176791Y0114061D02*
X0175888Y0114061D01*
X0175855Y0114360D02*
X0175430Y0125616D01*
X0176779Y0125616D01*
X0176774Y0120329D01*
X0176771Y0120327D01*
X0176773Y0119710D01*
X0176773Y0119090D01*
X0176775Y0119088D01*
X0176794Y0113205D01*
X0178102Y0100270D01*
X0180662Y0087524D01*
X0184452Y0075088D01*
X0189434Y0063080D01*
X0190993Y0060163D01*
X0190031Y0060163D01*
X0185632Y0070532D01*
X0184275Y0074512D01*
X0184275Y0074798D01*
X0184127Y0074946D01*
X0181997Y0081193D01*
X0179147Y0092090D01*
X0177096Y0103165D01*
X0175855Y0114360D01*
X0175998Y0113063D02*
X0176809Y0113063D01*
X0176794Y0113205D02*
X0176794Y0113205D01*
X0176910Y0112064D02*
X0176109Y0112064D01*
X0176220Y0111066D02*
X0177010Y0111066D01*
X0177111Y0110067D02*
X0176330Y0110067D01*
X0176441Y0109068D02*
X0177212Y0109068D01*
X0177313Y0108070D02*
X0176552Y0108070D01*
X0176662Y0107071D02*
X0177414Y0107071D01*
X0177515Y0106073D02*
X0176773Y0106073D01*
X0176884Y0105074D02*
X0177616Y0105074D01*
X0177717Y0104076D02*
X0176995Y0104076D01*
X0177112Y0103077D02*
X0177818Y0103077D01*
X0177919Y0102079D02*
X0177297Y0102079D01*
X0177482Y0101080D02*
X0178020Y0101080D01*
X0178102Y0100270D02*
X0178102Y0100270D01*
X0178140Y0100082D02*
X0177667Y0100082D01*
X0177851Y0099083D02*
X0178340Y0099083D01*
X0178541Y0098085D02*
X0178036Y0098085D01*
X0178221Y0097086D02*
X0178741Y0097086D01*
X0178942Y0096088D02*
X0178406Y0096088D01*
X0178591Y0095089D02*
X0179142Y0095089D01*
X0179343Y0094091D02*
X0178776Y0094091D01*
X0178961Y0093092D02*
X0179544Y0093092D01*
X0179744Y0092094D02*
X0179146Y0092094D01*
X0179407Y0091095D02*
X0179945Y0091095D01*
X0180145Y0090097D02*
X0179668Y0090097D01*
X0179929Y0089098D02*
X0180346Y0089098D01*
X0180190Y0088100D02*
X0180547Y0088100D01*
X0180662Y0087524D02*
X0180662Y0087524D01*
X0180791Y0087101D02*
X0180452Y0087101D01*
X0180713Y0086103D02*
X0181095Y0086103D01*
X0180974Y0085104D02*
X0181400Y0085104D01*
X0181235Y0084106D02*
X0181704Y0084106D01*
X0181496Y0083107D02*
X0182008Y0083107D01*
X0181757Y0082109D02*
X0182312Y0082109D01*
X0182025Y0081110D02*
X0182617Y0081110D01*
X0182366Y0080112D02*
X0182921Y0080112D01*
X0182706Y0079113D02*
X0183225Y0079113D01*
X0183046Y0078115D02*
X0183529Y0078115D01*
X0183387Y0077116D02*
X0183834Y0077116D01*
X0183727Y0076118D02*
X0184138Y0076118D01*
X0184068Y0075119D02*
X0184442Y0075119D01*
X0184452Y0075088D02*
X0184452Y0075088D01*
X0184408Y0074121D02*
X0184853Y0074121D01*
X0184749Y0073122D02*
X0185267Y0073122D01*
X0185089Y0072124D02*
X0185682Y0072124D01*
X0185429Y0071125D02*
X0186096Y0071125D01*
X0185804Y0070127D02*
X0186510Y0070127D01*
X0186227Y0069128D02*
X0186924Y0069128D01*
X0186651Y0068130D02*
X0187339Y0068130D01*
X0187075Y0067131D02*
X0187753Y0067131D01*
X0187498Y0066132D02*
X0188167Y0066132D01*
X0187922Y0065134D02*
X0188582Y0065134D01*
X0188346Y0064135D02*
X0188996Y0064135D01*
X0188769Y0063137D02*
X0189410Y0063137D01*
X0189193Y0062138D02*
X0189937Y0062138D01*
X0190084Y0061147D02*
X0190542Y0060690D01*
X0190542Y0047333D01*
X0180734Y0037525D01*
X0176297Y0037525D01*
X0173352Y0040470D01*
X0167446Y0042623D02*
X0167358Y0042535D01*
X0167446Y0042623D02*
X0167446Y0042939D01*
X0166954Y0043431D01*
X0151698Y0043431D01*
X0150714Y0042446D01*
X0150714Y0039533D01*
X0148622Y0049828D02*
X0158588Y0049828D01*
X0160065Y0051305D01*
X0160065Y0059767D01*
X0151283Y0068549D01*
X0151283Y0085218D01*
X0149763Y0086738D01*
X0136127Y0086738D01*
X0158588Y0114986D02*
X0158588Y0116757D01*
X0159572Y0117742D01*
X0175678Y0119054D02*
X0176775Y0119054D01*
X0176772Y0120052D02*
X0175640Y0120052D01*
X0175602Y0121051D02*
X0176775Y0121051D01*
X0176776Y0122049D02*
X0175565Y0122049D01*
X0175527Y0123048D02*
X0176777Y0123048D01*
X0176778Y0124046D02*
X0175489Y0124046D01*
X0175452Y0125045D02*
X0176779Y0125045D01*
X0189617Y0061140D02*
X0190471Y0061140D01*
D29*
X0160065Y0158096D02*
X0156128Y0158096D01*
X0156128Y0160557D01*
X0161049Y0160557D01*
X0162033Y0159572D01*
X0165478Y0159572D01*
X0165478Y0158588D01*
X0160557Y0158588D01*
X0160065Y0158096D01*
X0160269Y0158301D02*
X0156128Y0158301D01*
X0156128Y0158699D02*
X0165478Y0158699D01*
X0165478Y0159098D02*
X0156128Y0159098D01*
X0156128Y0159496D02*
X0165478Y0159496D01*
X0161711Y0159895D02*
X0156128Y0159895D01*
X0156128Y0160293D02*
X0161312Y0160293D01*
M02*
