G75*
%MOIN*%
%OFA0B0*%
%FSLAX25Y25*%
%IPPOS*%
%LPD*%
%AMOC8*
5,1,8,0,0,1.08239X$1,22.5*
%
%ADD10C,0.00000*%
%ADD11C,0.00039*%
%ADD12R,0.03543X0.02756*%
%ADD13R,0.05906X0.05118*%
%ADD14R,0.02756X0.03543*%
%ADD15R,0.02362X0.03150*%
%ADD16C,0.00227*%
%ADD17R,0.11811X0.10236*%
%ADD18R,0.09016X0.32520*%
%ADD19R,0.07874X0.07874*%
%ADD20R,0.02953X0.02992*%
%ADD21R,0.03937X0.04331*%
%ADD22C,0.04331*%
%ADD23R,0.01400X0.04600*%
%ADD24R,0.03150X0.02362*%
%ADD25R,0.03937X0.03937*%
%ADD26R,0.04724X0.04724*%
%ADD27R,0.02953X0.02756*%
%ADD28R,0.03346X0.03543*%
%ADD29C,0.03937*%
%ADD30R,0.03465X0.00906*%
%ADD31R,0.18110X0.18110*%
%ADD32R,0.00906X0.03465*%
%ADD33R,0.04134X0.08661*%
%ADD34R,0.03937X0.04134*%
%ADD35C,0.00748*%
%ADD36C,0.00748*%
%ADD37R,0.02500X0.05000*%
%ADD38C,0.06600*%
%ADD39R,0.02756X0.02953*%
%ADD40R,0.05000X0.02500*%
%ADD41C,0.04000*%
%ADD42C,0.00200*%
%ADD43C,0.00600*%
%ADD44C,0.02400*%
%ADD45C,0.01929*%
%ADD46C,0.01200*%
%ADD47C,0.01709*%
%ADD48C,0.00800*%
%ADD49C,0.01000*%
%ADD50C,0.01600*%
%ADD51C,0.00400*%
D10*
X0073943Y0027191D02*
X0216659Y0027191D01*
X0178274Y0119711D02*
X0178317Y0122928D01*
X0178438Y0126143D01*
X0178637Y0129354D01*
X0178915Y0132559D01*
X0179271Y0135756D01*
X0179705Y0138944D01*
X0180216Y0142120D01*
X0180805Y0145283D01*
X0181471Y0148431D01*
X0182214Y0151561D01*
X0183032Y0154672D01*
X0183927Y0157763D01*
X0184896Y0160830D01*
X0185941Y0163873D01*
X0187059Y0166890D01*
X0188250Y0169878D01*
X0189514Y0172837D01*
X0190850Y0175764D01*
X0192257Y0178657D01*
X0193734Y0181515D01*
X0195280Y0184336D01*
X0196895Y0187119D01*
X0198577Y0189861D01*
X0200326Y0192562D01*
X0202140Y0195219D01*
X0204018Y0197831D01*
X0205960Y0200396D01*
X0207964Y0202913D01*
X0210028Y0205381D01*
X0212152Y0207797D01*
X0214334Y0210161D01*
X0216574Y0212471D01*
X0218869Y0214725D01*
X0221219Y0216923D01*
X0223621Y0219063D01*
X0226075Y0221143D01*
X0228579Y0223163D01*
X0231131Y0225121D01*
X0233731Y0227017D01*
X0236376Y0228848D01*
X0239065Y0230615D01*
X0241796Y0232315D01*
X0244568Y0233948D01*
X0247379Y0235512D01*
X0250228Y0237008D01*
X0253112Y0238434D01*
X0256030Y0239789D01*
X0256029Y0239789D02*
X0034572Y0239789D01*
X0112328Y0119710D02*
X0112279Y0116500D01*
X0112151Y0113291D01*
X0111945Y0110087D01*
X0111661Y0106888D01*
X0111299Y0103698D01*
X0110860Y0100517D01*
X0110343Y0097348D01*
X0109749Y0094193D01*
X0109078Y0091053D01*
X0108331Y0087930D01*
X0107508Y0084826D01*
X0106610Y0081743D01*
X0105637Y0078684D01*
X0104589Y0075648D01*
X0103468Y0072639D01*
X0102273Y0069659D01*
X0101007Y0066708D01*
X0099669Y0063789D01*
X0098260Y0060904D01*
X0096781Y0058054D01*
X0095233Y0055241D01*
X0093617Y0052466D01*
X0091934Y0049731D01*
X0090185Y0047039D01*
X0088371Y0044390D01*
X0086492Y0041785D01*
X0084551Y0039228D01*
X0082548Y0036718D01*
X0080484Y0034258D01*
X0078361Y0031849D01*
X0076180Y0029493D01*
X0073942Y0027190D01*
X0112328Y0119711D02*
X0112285Y0122928D01*
X0112164Y0126143D01*
X0111965Y0129354D01*
X0111687Y0132559D01*
X0111331Y0135756D01*
X0110897Y0138944D01*
X0110386Y0142120D01*
X0109797Y0145283D01*
X0109131Y0148431D01*
X0108388Y0151561D01*
X0107570Y0154672D01*
X0106675Y0157763D01*
X0105706Y0160830D01*
X0104661Y0163873D01*
X0103543Y0166890D01*
X0102352Y0169878D01*
X0101088Y0172837D01*
X0099752Y0175764D01*
X0098345Y0178657D01*
X0096868Y0181515D01*
X0095322Y0184336D01*
X0093707Y0187119D01*
X0092025Y0189861D01*
X0090276Y0192562D01*
X0088462Y0195219D01*
X0086584Y0197831D01*
X0084642Y0200396D01*
X0082638Y0202913D01*
X0080574Y0205381D01*
X0078450Y0207797D01*
X0076268Y0210161D01*
X0074028Y0212471D01*
X0071733Y0214725D01*
X0069383Y0216923D01*
X0066981Y0219063D01*
X0064527Y0221143D01*
X0062023Y0223163D01*
X0059471Y0225121D01*
X0056871Y0227017D01*
X0054226Y0228848D01*
X0051537Y0230615D01*
X0048806Y0232315D01*
X0046034Y0233948D01*
X0043223Y0235512D01*
X0040374Y0237008D01*
X0037490Y0238434D01*
X0034572Y0239789D01*
X0178273Y0119710D02*
X0178322Y0116500D01*
X0178450Y0113291D01*
X0178656Y0110087D01*
X0178940Y0106888D01*
X0179302Y0103698D01*
X0179741Y0100517D01*
X0180258Y0097348D01*
X0180852Y0094193D01*
X0181523Y0091053D01*
X0182270Y0087930D01*
X0183093Y0084826D01*
X0183991Y0081743D01*
X0184964Y0078684D01*
X0186012Y0075648D01*
X0187133Y0072639D01*
X0188328Y0069659D01*
X0189594Y0066708D01*
X0190932Y0063789D01*
X0192341Y0060904D01*
X0193820Y0058054D01*
X0195368Y0055241D01*
X0196984Y0052466D01*
X0198667Y0049731D01*
X0200416Y0047039D01*
X0202230Y0044390D01*
X0204109Y0041785D01*
X0206050Y0039228D01*
X0208053Y0036718D01*
X0210117Y0034258D01*
X0212240Y0031849D01*
X0214421Y0029493D01*
X0216659Y0027190D01*
D11*
X0186836Y0039002D02*
X0186838Y0039142D01*
X0186844Y0039282D01*
X0186854Y0039421D01*
X0186868Y0039560D01*
X0186886Y0039699D01*
X0186907Y0039837D01*
X0186933Y0039975D01*
X0186963Y0040112D01*
X0186996Y0040247D01*
X0187034Y0040382D01*
X0187075Y0040516D01*
X0187120Y0040649D01*
X0187168Y0040780D01*
X0187221Y0040909D01*
X0187277Y0041038D01*
X0187336Y0041164D01*
X0187400Y0041289D01*
X0187466Y0041412D01*
X0187537Y0041533D01*
X0187610Y0041652D01*
X0187687Y0041769D01*
X0187768Y0041883D01*
X0187851Y0041995D01*
X0187938Y0042105D01*
X0188028Y0042213D01*
X0188120Y0042317D01*
X0188216Y0042419D01*
X0188315Y0042519D01*
X0188416Y0042615D01*
X0188520Y0042709D01*
X0188627Y0042799D01*
X0188736Y0042886D01*
X0188848Y0042971D01*
X0188962Y0043052D01*
X0189078Y0043130D01*
X0189196Y0043204D01*
X0189317Y0043275D01*
X0189439Y0043343D01*
X0189564Y0043407D01*
X0189690Y0043468D01*
X0189817Y0043525D01*
X0189947Y0043578D01*
X0190078Y0043628D01*
X0190210Y0043673D01*
X0190343Y0043716D01*
X0190478Y0043754D01*
X0190613Y0043788D01*
X0190750Y0043819D01*
X0190887Y0043846D01*
X0191025Y0043868D01*
X0191164Y0043887D01*
X0191303Y0043902D01*
X0191442Y0043913D01*
X0191582Y0043920D01*
X0191722Y0043923D01*
X0191862Y0043922D01*
X0192002Y0043917D01*
X0192141Y0043908D01*
X0192281Y0043895D01*
X0192420Y0043878D01*
X0192558Y0043857D01*
X0192696Y0043833D01*
X0192833Y0043804D01*
X0192969Y0043772D01*
X0193104Y0043735D01*
X0193238Y0043695D01*
X0193371Y0043651D01*
X0193502Y0043603D01*
X0193632Y0043552D01*
X0193761Y0043497D01*
X0193888Y0043438D01*
X0194013Y0043375D01*
X0194136Y0043310D01*
X0194258Y0043240D01*
X0194377Y0043167D01*
X0194495Y0043091D01*
X0194610Y0043012D01*
X0194723Y0042929D01*
X0194833Y0042843D01*
X0194941Y0042754D01*
X0195046Y0042662D01*
X0195149Y0042567D01*
X0195249Y0042469D01*
X0195346Y0042369D01*
X0195440Y0042265D01*
X0195532Y0042159D01*
X0195620Y0042051D01*
X0195705Y0041940D01*
X0195787Y0041826D01*
X0195866Y0041710D01*
X0195941Y0041593D01*
X0196013Y0041473D01*
X0196081Y0041351D01*
X0196146Y0041227D01*
X0196208Y0041101D01*
X0196266Y0040974D01*
X0196320Y0040845D01*
X0196371Y0040714D01*
X0196417Y0040582D01*
X0196460Y0040449D01*
X0196500Y0040315D01*
X0196535Y0040180D01*
X0196567Y0040043D01*
X0196594Y0039906D01*
X0196618Y0039768D01*
X0196638Y0039630D01*
X0196654Y0039491D01*
X0196666Y0039351D01*
X0196674Y0039212D01*
X0196678Y0039072D01*
X0196678Y0038932D01*
X0196674Y0038792D01*
X0196666Y0038653D01*
X0196654Y0038513D01*
X0196638Y0038374D01*
X0196618Y0038236D01*
X0196594Y0038098D01*
X0196567Y0037961D01*
X0196535Y0037824D01*
X0196500Y0037689D01*
X0196460Y0037555D01*
X0196417Y0037422D01*
X0196371Y0037290D01*
X0196320Y0037159D01*
X0196266Y0037030D01*
X0196208Y0036903D01*
X0196146Y0036777D01*
X0196081Y0036653D01*
X0196013Y0036531D01*
X0195941Y0036411D01*
X0195866Y0036294D01*
X0195787Y0036178D01*
X0195705Y0036064D01*
X0195620Y0035953D01*
X0195532Y0035845D01*
X0195440Y0035739D01*
X0195346Y0035635D01*
X0195249Y0035535D01*
X0195149Y0035437D01*
X0195046Y0035342D01*
X0194941Y0035250D01*
X0194833Y0035161D01*
X0194723Y0035075D01*
X0194610Y0034992D01*
X0194495Y0034913D01*
X0194377Y0034837D01*
X0194258Y0034764D01*
X0194136Y0034694D01*
X0194013Y0034629D01*
X0193888Y0034566D01*
X0193761Y0034507D01*
X0193632Y0034452D01*
X0193502Y0034401D01*
X0193371Y0034353D01*
X0193238Y0034309D01*
X0193104Y0034269D01*
X0192969Y0034232D01*
X0192833Y0034200D01*
X0192696Y0034171D01*
X0192558Y0034147D01*
X0192420Y0034126D01*
X0192281Y0034109D01*
X0192141Y0034096D01*
X0192002Y0034087D01*
X0191862Y0034082D01*
X0191722Y0034081D01*
X0191582Y0034084D01*
X0191442Y0034091D01*
X0191303Y0034102D01*
X0191164Y0034117D01*
X0191025Y0034136D01*
X0190887Y0034158D01*
X0190750Y0034185D01*
X0190613Y0034216D01*
X0190478Y0034250D01*
X0190343Y0034288D01*
X0190210Y0034331D01*
X0190078Y0034376D01*
X0189947Y0034426D01*
X0189817Y0034479D01*
X0189690Y0034536D01*
X0189564Y0034597D01*
X0189439Y0034661D01*
X0189317Y0034729D01*
X0189196Y0034800D01*
X0189078Y0034874D01*
X0188962Y0034952D01*
X0188848Y0035033D01*
X0188736Y0035118D01*
X0188627Y0035205D01*
X0188520Y0035295D01*
X0188416Y0035389D01*
X0188315Y0035485D01*
X0188216Y0035585D01*
X0188120Y0035687D01*
X0188028Y0035791D01*
X0187938Y0035899D01*
X0187851Y0036009D01*
X0187768Y0036121D01*
X0187687Y0036235D01*
X0187610Y0036352D01*
X0187537Y0036471D01*
X0187466Y0036592D01*
X0187400Y0036715D01*
X0187336Y0036840D01*
X0187277Y0036966D01*
X0187221Y0037095D01*
X0187168Y0037224D01*
X0187120Y0037355D01*
X0187075Y0037488D01*
X0187034Y0037622D01*
X0186996Y0037757D01*
X0186963Y0037892D01*
X0186933Y0038029D01*
X0186907Y0038167D01*
X0186886Y0038305D01*
X0186868Y0038444D01*
X0186854Y0038583D01*
X0186844Y0038722D01*
X0186838Y0038862D01*
X0186836Y0039002D01*
X0093923Y0039002D02*
X0093925Y0039142D01*
X0093931Y0039282D01*
X0093941Y0039421D01*
X0093955Y0039560D01*
X0093973Y0039699D01*
X0093994Y0039837D01*
X0094020Y0039975D01*
X0094050Y0040112D01*
X0094083Y0040247D01*
X0094121Y0040382D01*
X0094162Y0040516D01*
X0094207Y0040649D01*
X0094255Y0040780D01*
X0094308Y0040909D01*
X0094364Y0041038D01*
X0094423Y0041164D01*
X0094487Y0041289D01*
X0094553Y0041412D01*
X0094624Y0041533D01*
X0094697Y0041652D01*
X0094774Y0041769D01*
X0094855Y0041883D01*
X0094938Y0041995D01*
X0095025Y0042105D01*
X0095115Y0042213D01*
X0095207Y0042317D01*
X0095303Y0042419D01*
X0095402Y0042519D01*
X0095503Y0042615D01*
X0095607Y0042709D01*
X0095714Y0042799D01*
X0095823Y0042886D01*
X0095935Y0042971D01*
X0096049Y0043052D01*
X0096165Y0043130D01*
X0096283Y0043204D01*
X0096404Y0043275D01*
X0096526Y0043343D01*
X0096651Y0043407D01*
X0096777Y0043468D01*
X0096904Y0043525D01*
X0097034Y0043578D01*
X0097165Y0043628D01*
X0097297Y0043673D01*
X0097430Y0043716D01*
X0097565Y0043754D01*
X0097700Y0043788D01*
X0097837Y0043819D01*
X0097974Y0043846D01*
X0098112Y0043868D01*
X0098251Y0043887D01*
X0098390Y0043902D01*
X0098529Y0043913D01*
X0098669Y0043920D01*
X0098809Y0043923D01*
X0098949Y0043922D01*
X0099089Y0043917D01*
X0099228Y0043908D01*
X0099368Y0043895D01*
X0099507Y0043878D01*
X0099645Y0043857D01*
X0099783Y0043833D01*
X0099920Y0043804D01*
X0100056Y0043772D01*
X0100191Y0043735D01*
X0100325Y0043695D01*
X0100458Y0043651D01*
X0100589Y0043603D01*
X0100719Y0043552D01*
X0100848Y0043497D01*
X0100975Y0043438D01*
X0101100Y0043375D01*
X0101223Y0043310D01*
X0101345Y0043240D01*
X0101464Y0043167D01*
X0101582Y0043091D01*
X0101697Y0043012D01*
X0101810Y0042929D01*
X0101920Y0042843D01*
X0102028Y0042754D01*
X0102133Y0042662D01*
X0102236Y0042567D01*
X0102336Y0042469D01*
X0102433Y0042369D01*
X0102527Y0042265D01*
X0102619Y0042159D01*
X0102707Y0042051D01*
X0102792Y0041940D01*
X0102874Y0041826D01*
X0102953Y0041710D01*
X0103028Y0041593D01*
X0103100Y0041473D01*
X0103168Y0041351D01*
X0103233Y0041227D01*
X0103295Y0041101D01*
X0103353Y0040974D01*
X0103407Y0040845D01*
X0103458Y0040714D01*
X0103504Y0040582D01*
X0103547Y0040449D01*
X0103587Y0040315D01*
X0103622Y0040180D01*
X0103654Y0040043D01*
X0103681Y0039906D01*
X0103705Y0039768D01*
X0103725Y0039630D01*
X0103741Y0039491D01*
X0103753Y0039351D01*
X0103761Y0039212D01*
X0103765Y0039072D01*
X0103765Y0038932D01*
X0103761Y0038792D01*
X0103753Y0038653D01*
X0103741Y0038513D01*
X0103725Y0038374D01*
X0103705Y0038236D01*
X0103681Y0038098D01*
X0103654Y0037961D01*
X0103622Y0037824D01*
X0103587Y0037689D01*
X0103547Y0037555D01*
X0103504Y0037422D01*
X0103458Y0037290D01*
X0103407Y0037159D01*
X0103353Y0037030D01*
X0103295Y0036903D01*
X0103233Y0036777D01*
X0103168Y0036653D01*
X0103100Y0036531D01*
X0103028Y0036411D01*
X0102953Y0036294D01*
X0102874Y0036178D01*
X0102792Y0036064D01*
X0102707Y0035953D01*
X0102619Y0035845D01*
X0102527Y0035739D01*
X0102433Y0035635D01*
X0102336Y0035535D01*
X0102236Y0035437D01*
X0102133Y0035342D01*
X0102028Y0035250D01*
X0101920Y0035161D01*
X0101810Y0035075D01*
X0101697Y0034992D01*
X0101582Y0034913D01*
X0101464Y0034837D01*
X0101345Y0034764D01*
X0101223Y0034694D01*
X0101100Y0034629D01*
X0100975Y0034566D01*
X0100848Y0034507D01*
X0100719Y0034452D01*
X0100589Y0034401D01*
X0100458Y0034353D01*
X0100325Y0034309D01*
X0100191Y0034269D01*
X0100056Y0034232D01*
X0099920Y0034200D01*
X0099783Y0034171D01*
X0099645Y0034147D01*
X0099507Y0034126D01*
X0099368Y0034109D01*
X0099228Y0034096D01*
X0099089Y0034087D01*
X0098949Y0034082D01*
X0098809Y0034081D01*
X0098669Y0034084D01*
X0098529Y0034091D01*
X0098390Y0034102D01*
X0098251Y0034117D01*
X0098112Y0034136D01*
X0097974Y0034158D01*
X0097837Y0034185D01*
X0097700Y0034216D01*
X0097565Y0034250D01*
X0097430Y0034288D01*
X0097297Y0034331D01*
X0097165Y0034376D01*
X0097034Y0034426D01*
X0096904Y0034479D01*
X0096777Y0034536D01*
X0096651Y0034597D01*
X0096526Y0034661D01*
X0096404Y0034729D01*
X0096283Y0034800D01*
X0096165Y0034874D01*
X0096049Y0034952D01*
X0095935Y0035033D01*
X0095823Y0035118D01*
X0095714Y0035205D01*
X0095607Y0035295D01*
X0095503Y0035389D01*
X0095402Y0035485D01*
X0095303Y0035585D01*
X0095207Y0035687D01*
X0095115Y0035791D01*
X0095025Y0035899D01*
X0094938Y0036009D01*
X0094855Y0036121D01*
X0094774Y0036235D01*
X0094697Y0036352D01*
X0094624Y0036471D01*
X0094553Y0036592D01*
X0094487Y0036715D01*
X0094423Y0036840D01*
X0094364Y0036966D01*
X0094308Y0037095D01*
X0094255Y0037224D01*
X0094207Y0037355D01*
X0094162Y0037488D01*
X0094121Y0037622D01*
X0094083Y0037757D01*
X0094050Y0037892D01*
X0094020Y0038029D01*
X0093994Y0038167D01*
X0093973Y0038305D01*
X0093955Y0038444D01*
X0093941Y0038583D01*
X0093931Y0038722D01*
X0093925Y0038862D01*
X0093923Y0039002D01*
X0093923Y0194750D02*
X0093925Y0194890D01*
X0093931Y0195030D01*
X0093941Y0195169D01*
X0093955Y0195308D01*
X0093973Y0195447D01*
X0093994Y0195585D01*
X0094020Y0195723D01*
X0094050Y0195860D01*
X0094083Y0195995D01*
X0094121Y0196130D01*
X0094162Y0196264D01*
X0094207Y0196397D01*
X0094255Y0196528D01*
X0094308Y0196657D01*
X0094364Y0196786D01*
X0094423Y0196912D01*
X0094487Y0197037D01*
X0094553Y0197160D01*
X0094624Y0197281D01*
X0094697Y0197400D01*
X0094774Y0197517D01*
X0094855Y0197631D01*
X0094938Y0197743D01*
X0095025Y0197853D01*
X0095115Y0197961D01*
X0095207Y0198065D01*
X0095303Y0198167D01*
X0095402Y0198267D01*
X0095503Y0198363D01*
X0095607Y0198457D01*
X0095714Y0198547D01*
X0095823Y0198634D01*
X0095935Y0198719D01*
X0096049Y0198800D01*
X0096165Y0198878D01*
X0096283Y0198952D01*
X0096404Y0199023D01*
X0096526Y0199091D01*
X0096651Y0199155D01*
X0096777Y0199216D01*
X0096904Y0199273D01*
X0097034Y0199326D01*
X0097165Y0199376D01*
X0097297Y0199421D01*
X0097430Y0199464D01*
X0097565Y0199502D01*
X0097700Y0199536D01*
X0097837Y0199567D01*
X0097974Y0199594D01*
X0098112Y0199616D01*
X0098251Y0199635D01*
X0098390Y0199650D01*
X0098529Y0199661D01*
X0098669Y0199668D01*
X0098809Y0199671D01*
X0098949Y0199670D01*
X0099089Y0199665D01*
X0099228Y0199656D01*
X0099368Y0199643D01*
X0099507Y0199626D01*
X0099645Y0199605D01*
X0099783Y0199581D01*
X0099920Y0199552D01*
X0100056Y0199520D01*
X0100191Y0199483D01*
X0100325Y0199443D01*
X0100458Y0199399D01*
X0100589Y0199351D01*
X0100719Y0199300D01*
X0100848Y0199245D01*
X0100975Y0199186D01*
X0101100Y0199123D01*
X0101223Y0199058D01*
X0101345Y0198988D01*
X0101464Y0198915D01*
X0101582Y0198839D01*
X0101697Y0198760D01*
X0101810Y0198677D01*
X0101920Y0198591D01*
X0102028Y0198502D01*
X0102133Y0198410D01*
X0102236Y0198315D01*
X0102336Y0198217D01*
X0102433Y0198117D01*
X0102527Y0198013D01*
X0102619Y0197907D01*
X0102707Y0197799D01*
X0102792Y0197688D01*
X0102874Y0197574D01*
X0102953Y0197458D01*
X0103028Y0197341D01*
X0103100Y0197221D01*
X0103168Y0197099D01*
X0103233Y0196975D01*
X0103295Y0196849D01*
X0103353Y0196722D01*
X0103407Y0196593D01*
X0103458Y0196462D01*
X0103504Y0196330D01*
X0103547Y0196197D01*
X0103587Y0196063D01*
X0103622Y0195928D01*
X0103654Y0195791D01*
X0103681Y0195654D01*
X0103705Y0195516D01*
X0103725Y0195378D01*
X0103741Y0195239D01*
X0103753Y0195099D01*
X0103761Y0194960D01*
X0103765Y0194820D01*
X0103765Y0194680D01*
X0103761Y0194540D01*
X0103753Y0194401D01*
X0103741Y0194261D01*
X0103725Y0194122D01*
X0103705Y0193984D01*
X0103681Y0193846D01*
X0103654Y0193709D01*
X0103622Y0193572D01*
X0103587Y0193437D01*
X0103547Y0193303D01*
X0103504Y0193170D01*
X0103458Y0193038D01*
X0103407Y0192907D01*
X0103353Y0192778D01*
X0103295Y0192651D01*
X0103233Y0192525D01*
X0103168Y0192401D01*
X0103100Y0192279D01*
X0103028Y0192159D01*
X0102953Y0192042D01*
X0102874Y0191926D01*
X0102792Y0191812D01*
X0102707Y0191701D01*
X0102619Y0191593D01*
X0102527Y0191487D01*
X0102433Y0191383D01*
X0102336Y0191283D01*
X0102236Y0191185D01*
X0102133Y0191090D01*
X0102028Y0190998D01*
X0101920Y0190909D01*
X0101810Y0190823D01*
X0101697Y0190740D01*
X0101582Y0190661D01*
X0101464Y0190585D01*
X0101345Y0190512D01*
X0101223Y0190442D01*
X0101100Y0190377D01*
X0100975Y0190314D01*
X0100848Y0190255D01*
X0100719Y0190200D01*
X0100589Y0190149D01*
X0100458Y0190101D01*
X0100325Y0190057D01*
X0100191Y0190017D01*
X0100056Y0189980D01*
X0099920Y0189948D01*
X0099783Y0189919D01*
X0099645Y0189895D01*
X0099507Y0189874D01*
X0099368Y0189857D01*
X0099228Y0189844D01*
X0099089Y0189835D01*
X0098949Y0189830D01*
X0098809Y0189829D01*
X0098669Y0189832D01*
X0098529Y0189839D01*
X0098390Y0189850D01*
X0098251Y0189865D01*
X0098112Y0189884D01*
X0097974Y0189906D01*
X0097837Y0189933D01*
X0097700Y0189964D01*
X0097565Y0189998D01*
X0097430Y0190036D01*
X0097297Y0190079D01*
X0097165Y0190124D01*
X0097034Y0190174D01*
X0096904Y0190227D01*
X0096777Y0190284D01*
X0096651Y0190345D01*
X0096526Y0190409D01*
X0096404Y0190477D01*
X0096283Y0190548D01*
X0096165Y0190622D01*
X0096049Y0190700D01*
X0095935Y0190781D01*
X0095823Y0190866D01*
X0095714Y0190953D01*
X0095607Y0191043D01*
X0095503Y0191137D01*
X0095402Y0191233D01*
X0095303Y0191333D01*
X0095207Y0191435D01*
X0095115Y0191539D01*
X0095025Y0191647D01*
X0094938Y0191757D01*
X0094855Y0191869D01*
X0094774Y0191983D01*
X0094697Y0192100D01*
X0094624Y0192219D01*
X0094553Y0192340D01*
X0094487Y0192463D01*
X0094423Y0192588D01*
X0094364Y0192714D01*
X0094308Y0192843D01*
X0094255Y0192972D01*
X0094207Y0193103D01*
X0094162Y0193236D01*
X0094121Y0193370D01*
X0094083Y0193505D01*
X0094050Y0193640D01*
X0094020Y0193777D01*
X0093994Y0193915D01*
X0093973Y0194053D01*
X0093955Y0194192D01*
X0093941Y0194331D01*
X0093931Y0194470D01*
X0093925Y0194610D01*
X0093923Y0194750D01*
X0186836Y0194750D02*
X0186838Y0194890D01*
X0186844Y0195030D01*
X0186854Y0195169D01*
X0186868Y0195308D01*
X0186886Y0195447D01*
X0186907Y0195585D01*
X0186933Y0195723D01*
X0186963Y0195860D01*
X0186996Y0195995D01*
X0187034Y0196130D01*
X0187075Y0196264D01*
X0187120Y0196397D01*
X0187168Y0196528D01*
X0187221Y0196657D01*
X0187277Y0196786D01*
X0187336Y0196912D01*
X0187400Y0197037D01*
X0187466Y0197160D01*
X0187537Y0197281D01*
X0187610Y0197400D01*
X0187687Y0197517D01*
X0187768Y0197631D01*
X0187851Y0197743D01*
X0187938Y0197853D01*
X0188028Y0197961D01*
X0188120Y0198065D01*
X0188216Y0198167D01*
X0188315Y0198267D01*
X0188416Y0198363D01*
X0188520Y0198457D01*
X0188627Y0198547D01*
X0188736Y0198634D01*
X0188848Y0198719D01*
X0188962Y0198800D01*
X0189078Y0198878D01*
X0189196Y0198952D01*
X0189317Y0199023D01*
X0189439Y0199091D01*
X0189564Y0199155D01*
X0189690Y0199216D01*
X0189817Y0199273D01*
X0189947Y0199326D01*
X0190078Y0199376D01*
X0190210Y0199421D01*
X0190343Y0199464D01*
X0190478Y0199502D01*
X0190613Y0199536D01*
X0190750Y0199567D01*
X0190887Y0199594D01*
X0191025Y0199616D01*
X0191164Y0199635D01*
X0191303Y0199650D01*
X0191442Y0199661D01*
X0191582Y0199668D01*
X0191722Y0199671D01*
X0191862Y0199670D01*
X0192002Y0199665D01*
X0192141Y0199656D01*
X0192281Y0199643D01*
X0192420Y0199626D01*
X0192558Y0199605D01*
X0192696Y0199581D01*
X0192833Y0199552D01*
X0192969Y0199520D01*
X0193104Y0199483D01*
X0193238Y0199443D01*
X0193371Y0199399D01*
X0193502Y0199351D01*
X0193632Y0199300D01*
X0193761Y0199245D01*
X0193888Y0199186D01*
X0194013Y0199123D01*
X0194136Y0199058D01*
X0194258Y0198988D01*
X0194377Y0198915D01*
X0194495Y0198839D01*
X0194610Y0198760D01*
X0194723Y0198677D01*
X0194833Y0198591D01*
X0194941Y0198502D01*
X0195046Y0198410D01*
X0195149Y0198315D01*
X0195249Y0198217D01*
X0195346Y0198117D01*
X0195440Y0198013D01*
X0195532Y0197907D01*
X0195620Y0197799D01*
X0195705Y0197688D01*
X0195787Y0197574D01*
X0195866Y0197458D01*
X0195941Y0197341D01*
X0196013Y0197221D01*
X0196081Y0197099D01*
X0196146Y0196975D01*
X0196208Y0196849D01*
X0196266Y0196722D01*
X0196320Y0196593D01*
X0196371Y0196462D01*
X0196417Y0196330D01*
X0196460Y0196197D01*
X0196500Y0196063D01*
X0196535Y0195928D01*
X0196567Y0195791D01*
X0196594Y0195654D01*
X0196618Y0195516D01*
X0196638Y0195378D01*
X0196654Y0195239D01*
X0196666Y0195099D01*
X0196674Y0194960D01*
X0196678Y0194820D01*
X0196678Y0194680D01*
X0196674Y0194540D01*
X0196666Y0194401D01*
X0196654Y0194261D01*
X0196638Y0194122D01*
X0196618Y0193984D01*
X0196594Y0193846D01*
X0196567Y0193709D01*
X0196535Y0193572D01*
X0196500Y0193437D01*
X0196460Y0193303D01*
X0196417Y0193170D01*
X0196371Y0193038D01*
X0196320Y0192907D01*
X0196266Y0192778D01*
X0196208Y0192651D01*
X0196146Y0192525D01*
X0196081Y0192401D01*
X0196013Y0192279D01*
X0195941Y0192159D01*
X0195866Y0192042D01*
X0195787Y0191926D01*
X0195705Y0191812D01*
X0195620Y0191701D01*
X0195532Y0191593D01*
X0195440Y0191487D01*
X0195346Y0191383D01*
X0195249Y0191283D01*
X0195149Y0191185D01*
X0195046Y0191090D01*
X0194941Y0190998D01*
X0194833Y0190909D01*
X0194723Y0190823D01*
X0194610Y0190740D01*
X0194495Y0190661D01*
X0194377Y0190585D01*
X0194258Y0190512D01*
X0194136Y0190442D01*
X0194013Y0190377D01*
X0193888Y0190314D01*
X0193761Y0190255D01*
X0193632Y0190200D01*
X0193502Y0190149D01*
X0193371Y0190101D01*
X0193238Y0190057D01*
X0193104Y0190017D01*
X0192969Y0189980D01*
X0192833Y0189948D01*
X0192696Y0189919D01*
X0192558Y0189895D01*
X0192420Y0189874D01*
X0192281Y0189857D01*
X0192141Y0189844D01*
X0192002Y0189835D01*
X0191862Y0189830D01*
X0191722Y0189829D01*
X0191582Y0189832D01*
X0191442Y0189839D01*
X0191303Y0189850D01*
X0191164Y0189865D01*
X0191025Y0189884D01*
X0190887Y0189906D01*
X0190750Y0189933D01*
X0190613Y0189964D01*
X0190478Y0189998D01*
X0190343Y0190036D01*
X0190210Y0190079D01*
X0190078Y0190124D01*
X0189947Y0190174D01*
X0189817Y0190227D01*
X0189690Y0190284D01*
X0189564Y0190345D01*
X0189439Y0190409D01*
X0189317Y0190477D01*
X0189196Y0190548D01*
X0189078Y0190622D01*
X0188962Y0190700D01*
X0188848Y0190781D01*
X0188736Y0190866D01*
X0188627Y0190953D01*
X0188520Y0191043D01*
X0188416Y0191137D01*
X0188315Y0191233D01*
X0188216Y0191333D01*
X0188120Y0191435D01*
X0188028Y0191539D01*
X0187938Y0191647D01*
X0187851Y0191757D01*
X0187768Y0191869D01*
X0187687Y0191983D01*
X0187610Y0192100D01*
X0187537Y0192219D01*
X0187466Y0192340D01*
X0187400Y0192463D01*
X0187336Y0192588D01*
X0187277Y0192714D01*
X0187221Y0192843D01*
X0187168Y0192972D01*
X0187120Y0193103D01*
X0187075Y0193236D01*
X0187034Y0193370D01*
X0186996Y0193505D01*
X0186963Y0193640D01*
X0186933Y0193777D01*
X0186907Y0193915D01*
X0186886Y0194053D01*
X0186868Y0194192D01*
X0186854Y0194331D01*
X0186844Y0194470D01*
X0186838Y0194610D01*
X0186836Y0194750D01*
D12*
X0134966Y0184277D03*
X0130045Y0184277D03*
X0125124Y0184277D03*
X0125124Y0179159D03*
X0130045Y0179159D03*
X0134966Y0179159D03*
X0140872Y0147860D03*
X0140872Y0142742D03*
X0145301Y0135065D03*
X0145301Y0129946D03*
X0151698Y0129946D03*
X0151698Y0135065D03*
X0129553Y0135065D03*
X0129553Y0129946D03*
X0125124Y0142742D03*
X0125124Y0147860D03*
X0152191Y0107998D03*
X0158096Y0107998D03*
X0158096Y0102880D03*
X0152191Y0102880D03*
X0155143Y0095694D03*
X0155143Y0090576D03*
X0143824Y0090576D03*
X0143824Y0095694D03*
X0126108Y0095694D03*
X0126108Y0090576D03*
X0164002Y0102880D03*
X0164002Y0107998D03*
X0171383Y0095694D03*
X0171383Y0090576D03*
X0164494Y0075517D03*
X0164494Y0070399D03*
X0178765Y0070399D03*
X0178765Y0075517D03*
D13*
X0185163Y0208490D03*
X0185163Y0215970D03*
D14*
X0163608Y0178765D03*
X0158490Y0178765D03*
X0158490Y0167939D03*
X0163608Y0167939D03*
X0163608Y0162033D03*
X0158490Y0162033D03*
X0169317Y0162033D03*
X0174435Y0162033D03*
X0174435Y0156128D03*
X0169317Y0156128D03*
X0171285Y0084769D03*
X0176403Y0084769D03*
X0162131Y0053765D03*
X0157013Y0053765D03*
X0127191Y0052289D03*
X0122072Y0052289D03*
D15*
X0158096Y0156128D03*
X0164002Y0156128D03*
X0167939Y0167939D03*
X0173844Y0167939D03*
X0164002Y0173844D03*
X0158096Y0173844D03*
D16*
X0150866Y0173278D02*
X0150866Y0170118D01*
X0150866Y0173278D02*
X0151900Y0173278D01*
X0151900Y0170118D01*
X0150866Y0170118D01*
X0150866Y0170334D02*
X0151900Y0170334D01*
X0151900Y0170550D02*
X0150866Y0170550D01*
X0150866Y0170766D02*
X0151900Y0170766D01*
X0151900Y0170982D02*
X0150866Y0170982D01*
X0150866Y0171198D02*
X0151900Y0171198D01*
X0151900Y0171414D02*
X0150866Y0171414D01*
X0150866Y0171630D02*
X0151900Y0171630D01*
X0151900Y0171846D02*
X0150866Y0171846D01*
X0150866Y0172062D02*
X0151900Y0172062D01*
X0151900Y0172278D02*
X0150866Y0172278D01*
X0150866Y0172494D02*
X0151900Y0172494D01*
X0151900Y0172710D02*
X0150866Y0172710D01*
X0150866Y0172926D02*
X0151900Y0172926D01*
X0151900Y0173142D02*
X0150866Y0173142D01*
X0147717Y0173278D02*
X0147717Y0170118D01*
X0147717Y0173278D02*
X0148751Y0173278D01*
X0148751Y0170118D01*
X0147717Y0170118D01*
X0147717Y0170334D02*
X0148751Y0170334D01*
X0148751Y0170550D02*
X0147717Y0170550D01*
X0147717Y0170766D02*
X0148751Y0170766D01*
X0148751Y0170982D02*
X0147717Y0170982D01*
X0147717Y0171198D02*
X0148751Y0171198D01*
X0148751Y0171414D02*
X0147717Y0171414D01*
X0147717Y0171630D02*
X0148751Y0171630D01*
X0148751Y0171846D02*
X0147717Y0171846D01*
X0147717Y0172062D02*
X0148751Y0172062D01*
X0148751Y0172278D02*
X0147717Y0172278D01*
X0147717Y0172494D02*
X0148751Y0172494D01*
X0148751Y0172710D02*
X0147717Y0172710D01*
X0147717Y0172926D02*
X0148751Y0172926D01*
X0148751Y0173142D02*
X0147717Y0173142D01*
X0144567Y0173278D02*
X0144567Y0170118D01*
X0144567Y0173278D02*
X0145601Y0173278D01*
X0145601Y0170118D01*
X0144567Y0170118D01*
X0144567Y0170334D02*
X0145601Y0170334D01*
X0145601Y0170550D02*
X0144567Y0170550D01*
X0144567Y0170766D02*
X0145601Y0170766D01*
X0145601Y0170982D02*
X0144567Y0170982D01*
X0144567Y0171198D02*
X0145601Y0171198D01*
X0145601Y0171414D02*
X0144567Y0171414D01*
X0144567Y0171630D02*
X0145601Y0171630D01*
X0145601Y0171846D02*
X0144567Y0171846D01*
X0144567Y0172062D02*
X0145601Y0172062D01*
X0145601Y0172278D02*
X0144567Y0172278D01*
X0144567Y0172494D02*
X0145601Y0172494D01*
X0145601Y0172710D02*
X0144567Y0172710D01*
X0144567Y0172926D02*
X0145601Y0172926D01*
X0145601Y0173142D02*
X0144567Y0173142D01*
X0141418Y0173278D02*
X0141418Y0170118D01*
X0141418Y0173278D02*
X0142452Y0173278D01*
X0142452Y0170118D01*
X0141418Y0170118D01*
X0141418Y0170334D02*
X0142452Y0170334D01*
X0142452Y0170550D02*
X0141418Y0170550D01*
X0141418Y0170766D02*
X0142452Y0170766D01*
X0142452Y0170982D02*
X0141418Y0170982D01*
X0141418Y0171198D02*
X0142452Y0171198D01*
X0142452Y0171414D02*
X0141418Y0171414D01*
X0141418Y0171630D02*
X0142452Y0171630D01*
X0142452Y0171846D02*
X0141418Y0171846D01*
X0141418Y0172062D02*
X0142452Y0172062D01*
X0142452Y0172278D02*
X0141418Y0172278D01*
X0141418Y0172494D02*
X0142452Y0172494D01*
X0142452Y0172710D02*
X0141418Y0172710D01*
X0141418Y0172926D02*
X0142452Y0172926D01*
X0142452Y0173142D02*
X0141418Y0173142D01*
X0138268Y0173278D02*
X0138268Y0170118D01*
X0138268Y0173278D02*
X0139302Y0173278D01*
X0139302Y0170118D01*
X0138268Y0170118D01*
X0138268Y0170334D02*
X0139302Y0170334D01*
X0139302Y0170550D02*
X0138268Y0170550D01*
X0138268Y0170766D02*
X0139302Y0170766D01*
X0139302Y0170982D02*
X0138268Y0170982D01*
X0138268Y0171198D02*
X0139302Y0171198D01*
X0139302Y0171414D02*
X0138268Y0171414D01*
X0138268Y0171630D02*
X0139302Y0171630D01*
X0139302Y0171846D02*
X0138268Y0171846D01*
X0138268Y0172062D02*
X0139302Y0172062D01*
X0139302Y0172278D02*
X0138268Y0172278D01*
X0138268Y0172494D02*
X0139302Y0172494D01*
X0139302Y0172710D02*
X0138268Y0172710D01*
X0138268Y0172926D02*
X0139302Y0172926D01*
X0139302Y0173142D02*
X0138268Y0173142D01*
X0139302Y0158042D02*
X0139302Y0154882D01*
X0138268Y0154882D01*
X0138268Y0158042D01*
X0139302Y0158042D01*
X0139302Y0155098D02*
X0138268Y0155098D01*
X0138268Y0155314D02*
X0139302Y0155314D01*
X0139302Y0155530D02*
X0138268Y0155530D01*
X0138268Y0155746D02*
X0139302Y0155746D01*
X0139302Y0155962D02*
X0138268Y0155962D01*
X0138268Y0156178D02*
X0139302Y0156178D01*
X0139302Y0156394D02*
X0138268Y0156394D01*
X0138268Y0156610D02*
X0139302Y0156610D01*
X0139302Y0156826D02*
X0138268Y0156826D01*
X0138268Y0157042D02*
X0139302Y0157042D01*
X0139302Y0157258D02*
X0138268Y0157258D01*
X0138268Y0157474D02*
X0139302Y0157474D01*
X0139302Y0157690D02*
X0138268Y0157690D01*
X0138268Y0157906D02*
X0139302Y0157906D01*
X0142452Y0158042D02*
X0142452Y0154882D01*
X0141418Y0154882D01*
X0141418Y0158042D01*
X0142452Y0158042D01*
X0142452Y0155098D02*
X0141418Y0155098D01*
X0141418Y0155314D02*
X0142452Y0155314D01*
X0142452Y0155530D02*
X0141418Y0155530D01*
X0141418Y0155746D02*
X0142452Y0155746D01*
X0142452Y0155962D02*
X0141418Y0155962D01*
X0141418Y0156178D02*
X0142452Y0156178D01*
X0142452Y0156394D02*
X0141418Y0156394D01*
X0141418Y0156610D02*
X0142452Y0156610D01*
X0142452Y0156826D02*
X0141418Y0156826D01*
X0141418Y0157042D02*
X0142452Y0157042D01*
X0142452Y0157258D02*
X0141418Y0157258D01*
X0141418Y0157474D02*
X0142452Y0157474D01*
X0142452Y0157690D02*
X0141418Y0157690D01*
X0141418Y0157906D02*
X0142452Y0157906D01*
X0145601Y0158042D02*
X0145601Y0154882D01*
X0144567Y0154882D01*
X0144567Y0158042D01*
X0145601Y0158042D01*
X0145601Y0155098D02*
X0144567Y0155098D01*
X0144567Y0155314D02*
X0145601Y0155314D01*
X0145601Y0155530D02*
X0144567Y0155530D01*
X0144567Y0155746D02*
X0145601Y0155746D01*
X0145601Y0155962D02*
X0144567Y0155962D01*
X0144567Y0156178D02*
X0145601Y0156178D01*
X0145601Y0156394D02*
X0144567Y0156394D01*
X0144567Y0156610D02*
X0145601Y0156610D01*
X0145601Y0156826D02*
X0144567Y0156826D01*
X0144567Y0157042D02*
X0145601Y0157042D01*
X0145601Y0157258D02*
X0144567Y0157258D01*
X0144567Y0157474D02*
X0145601Y0157474D01*
X0145601Y0157690D02*
X0144567Y0157690D01*
X0144567Y0157906D02*
X0145601Y0157906D01*
X0148751Y0158042D02*
X0148751Y0154882D01*
X0147717Y0154882D01*
X0147717Y0158042D01*
X0148751Y0158042D01*
X0148751Y0155098D02*
X0147717Y0155098D01*
X0147717Y0155314D02*
X0148751Y0155314D01*
X0148751Y0155530D02*
X0147717Y0155530D01*
X0147717Y0155746D02*
X0148751Y0155746D01*
X0148751Y0155962D02*
X0147717Y0155962D01*
X0147717Y0156178D02*
X0148751Y0156178D01*
X0148751Y0156394D02*
X0147717Y0156394D01*
X0147717Y0156610D02*
X0148751Y0156610D01*
X0148751Y0156826D02*
X0147717Y0156826D01*
X0147717Y0157042D02*
X0148751Y0157042D01*
X0148751Y0157258D02*
X0147717Y0157258D01*
X0147717Y0157474D02*
X0148751Y0157474D01*
X0148751Y0157690D02*
X0147717Y0157690D01*
X0147717Y0157906D02*
X0148751Y0157906D01*
X0151900Y0158042D02*
X0151900Y0154882D01*
X0150866Y0154882D01*
X0150866Y0158042D01*
X0151900Y0158042D01*
X0151900Y0155098D02*
X0150866Y0155098D01*
X0150866Y0155314D02*
X0151900Y0155314D01*
X0151900Y0155530D02*
X0150866Y0155530D01*
X0150866Y0155746D02*
X0151900Y0155746D01*
X0151900Y0155962D02*
X0150866Y0155962D01*
X0150866Y0156178D02*
X0151900Y0156178D01*
X0151900Y0156394D02*
X0150866Y0156394D01*
X0150866Y0156610D02*
X0151900Y0156610D01*
X0151900Y0156826D02*
X0150866Y0156826D01*
X0150866Y0157042D02*
X0151900Y0157042D01*
X0151900Y0157258D02*
X0150866Y0157258D01*
X0150866Y0157474D02*
X0151900Y0157474D01*
X0151900Y0157690D02*
X0150866Y0157690D01*
X0150866Y0157906D02*
X0151900Y0157906D01*
D17*
X0145084Y0164080D03*
D18*
X0119297Y0208293D03*
X0171305Y0208293D03*
D19*
X0166462Y0232899D03*
X0126108Y0232899D03*
X0097565Y0219120D03*
X0097565Y0207309D03*
D20*
X0158588Y0121482D03*
X0163509Y0121482D03*
X0163509Y0114986D03*
X0158588Y0114986D03*
D21*
X0152191Y0114887D03*
X0152191Y0121580D03*
X0137919Y0097466D03*
X0137919Y0090773D03*
D22*
X0140714Y0039533D03*
X0140714Y0034533D03*
X0145714Y0034533D03*
X0150714Y0034533D03*
X0150714Y0039533D03*
X0145714Y0039533D03*
X0155714Y0039533D03*
X0160714Y0039533D03*
X0160714Y0034533D03*
X0155714Y0034533D03*
D23*
X0140519Y0128706D03*
X0135319Y0128706D03*
X0135319Y0136306D03*
X0137919Y0136306D03*
X0140519Y0136306D03*
X0124771Y0136306D03*
X0122171Y0136306D03*
X0119571Y0136306D03*
X0119571Y0128706D03*
X0124771Y0128706D03*
D24*
X0130045Y0142348D03*
X0130045Y0148254D03*
X0145793Y0148254D03*
X0145793Y0142348D03*
D25*
X0158588Y0135458D03*
X0117250Y0114789D03*
X0117250Y0108883D03*
X0117250Y0102978D03*
D26*
X0105439Y0057899D03*
X0105439Y0049631D03*
D27*
X0160852Y0091167D03*
X0160852Y0095104D03*
X0166167Y0095104D03*
X0166167Y0091167D03*
D28*
X0169100Y0070006D03*
X0173667Y0070006D03*
D29*
X0121718Y0070006D03*
X0121718Y0075006D03*
X0121718Y0080006D03*
X0116718Y0080006D03*
X0116718Y0075006D03*
X0116718Y0070006D03*
X0116718Y0065006D03*
X0121718Y0065006D03*
X0121718Y0060006D03*
X0116718Y0060006D03*
D30*
X0132171Y0062820D03*
X0132171Y0064395D03*
X0132171Y0065970D03*
X0132171Y0067545D03*
X0132171Y0069120D03*
X0132171Y0070694D03*
X0132171Y0072269D03*
X0132171Y0073844D03*
X0132171Y0075419D03*
X0132171Y0076994D03*
X0132171Y0078569D03*
X0132171Y0080143D03*
X0155478Y0080143D03*
X0155478Y0078569D03*
X0155478Y0076994D03*
X0155478Y0075419D03*
X0155478Y0073844D03*
X0155478Y0072269D03*
X0155478Y0070694D03*
X0155478Y0069120D03*
X0155478Y0067545D03*
X0155478Y0065970D03*
X0155478Y0064395D03*
X0155478Y0062820D03*
D31*
X0143824Y0071482D03*
D32*
X0143037Y0083135D03*
X0141462Y0083135D03*
X0139887Y0083135D03*
X0138313Y0083135D03*
X0136738Y0083135D03*
X0135163Y0083135D03*
X0144612Y0083135D03*
X0146187Y0083135D03*
X0147761Y0083135D03*
X0149336Y0083135D03*
X0150911Y0083135D03*
X0152486Y0083135D03*
X0152486Y0059828D03*
X0150911Y0059828D03*
X0149336Y0059828D03*
X0147761Y0059828D03*
X0146187Y0059828D03*
X0144612Y0059828D03*
X0143037Y0059828D03*
X0141462Y0059828D03*
X0139887Y0059828D03*
X0138313Y0059828D03*
X0136738Y0059828D03*
X0135163Y0059828D03*
D33*
X0172958Y0057702D03*
X0184572Y0057702D03*
D34*
X0178765Y0063706D03*
D35*
X0147525Y0177584D02*
X0146029Y0177584D01*
X0146029Y0179159D02*
X0147525Y0179159D01*
X0147565Y0181029D02*
X0147565Y0182013D01*
X0145990Y0182013D02*
X0145990Y0181029D01*
X0142643Y0181029D02*
X0142643Y0182013D01*
X0141069Y0182013D02*
X0141069Y0181029D01*
X0141108Y0179159D02*
X0142604Y0179159D01*
X0142604Y0177584D02*
X0141108Y0177584D01*
D36*
X0141069Y0183883D03*
X0142643Y0183883D03*
X0145990Y0183883D03*
X0147565Y0183883D03*
D37*
X0169120Y0118234D03*
X0172663Y0118234D03*
X0151822Y0049828D03*
X0148622Y0049828D03*
D38*
X0131187Y0033096D03*
X0121187Y0033096D03*
X0111187Y0033096D03*
D39*
X0132013Y0090281D03*
X0132013Y0095990D03*
D40*
X0110360Y0171580D03*
X0110360Y0175124D03*
D41*
X0143824Y0187624D02*
X0143824Y0189592D01*
X0125124Y0208293D01*
X0119297Y0208293D01*
D42*
X0142348Y0187131D02*
X0145301Y0187131D01*
X0145301Y0186639D01*
X0144317Y0185655D01*
X0144317Y0182210D01*
X0146285Y0182210D01*
X0146285Y0180734D01*
X0142348Y0180734D01*
X0142348Y0183194D01*
X0140380Y0183194D01*
X0140380Y0184671D01*
X0142348Y0184671D01*
X0142348Y0187131D01*
X0142348Y0186992D02*
X0145301Y0186992D01*
X0145301Y0186794D02*
X0142348Y0186794D01*
X0142348Y0186595D02*
X0145257Y0186595D01*
X0145058Y0186397D02*
X0142348Y0186397D01*
X0142348Y0186198D02*
X0144860Y0186198D01*
X0144661Y0186000D02*
X0142348Y0186000D01*
X0142348Y0185801D02*
X0144463Y0185801D01*
X0144317Y0185603D02*
X0142348Y0185603D01*
X0142348Y0185404D02*
X0144317Y0185404D01*
X0144317Y0185206D02*
X0142348Y0185206D01*
X0142348Y0185007D02*
X0144317Y0185007D01*
X0144317Y0184809D02*
X0142348Y0184809D01*
X0142348Y0183022D02*
X0144317Y0183022D01*
X0144317Y0183220D02*
X0140380Y0183220D01*
X0140380Y0183419D02*
X0144317Y0183419D01*
X0144317Y0183617D02*
X0140380Y0183617D01*
X0140380Y0183816D02*
X0144317Y0183816D01*
X0144317Y0184014D02*
X0140380Y0184014D01*
X0140380Y0184213D02*
X0144317Y0184213D01*
X0144317Y0184412D02*
X0140380Y0184412D01*
X0140380Y0184610D02*
X0144317Y0184610D01*
X0145301Y0184610D02*
X0149730Y0184610D01*
X0149730Y0184671D02*
X0149730Y0180734D01*
X0147269Y0180734D01*
X0147269Y0183194D01*
X0145301Y0183194D01*
X0145301Y0184671D01*
X0149730Y0184671D01*
X0149730Y0184412D02*
X0145301Y0184412D01*
X0145301Y0184213D02*
X0149730Y0184213D01*
X0149730Y0184014D02*
X0145301Y0184014D01*
X0145301Y0183816D02*
X0149730Y0183816D01*
X0149730Y0183617D02*
X0145301Y0183617D01*
X0145301Y0183419D02*
X0149730Y0183419D01*
X0149730Y0183220D02*
X0145301Y0183220D01*
X0144317Y0182823D02*
X0142348Y0182823D01*
X0142348Y0182625D02*
X0144317Y0182625D01*
X0144317Y0182426D02*
X0142348Y0182426D01*
X0142348Y0182228D02*
X0144317Y0182228D01*
X0146285Y0182029D02*
X0142348Y0182029D01*
X0142348Y0181831D02*
X0146285Y0181831D01*
X0146285Y0181632D02*
X0142348Y0181632D01*
X0142348Y0181434D02*
X0146285Y0181434D01*
X0146285Y0181235D02*
X0142348Y0181235D01*
X0142348Y0181037D02*
X0146285Y0181037D01*
X0146285Y0180838D02*
X0142348Y0180838D01*
X0141364Y0180838D02*
X0115773Y0180838D01*
X0115773Y0180640D02*
X0139301Y0180640D01*
X0139395Y0180734D02*
X0132998Y0174336D01*
X0115773Y0174336D01*
X0115773Y0181718D01*
X0138411Y0181718D01*
X0138903Y0182210D01*
X0141364Y0182210D01*
X0141364Y0180734D01*
X0139395Y0180734D01*
X0139103Y0180441D02*
X0115773Y0180441D01*
X0115773Y0180243D02*
X0138904Y0180243D01*
X0138706Y0180044D02*
X0115773Y0180044D01*
X0115773Y0179846D02*
X0138507Y0179846D01*
X0138309Y0179647D02*
X0115773Y0179647D01*
X0115773Y0179449D02*
X0138110Y0179449D01*
X0137912Y0179250D02*
X0115773Y0179250D01*
X0115773Y0179052D02*
X0137713Y0179052D01*
X0137515Y0178853D02*
X0115773Y0178853D01*
X0115773Y0178655D02*
X0137316Y0178655D01*
X0137118Y0178456D02*
X0115773Y0178456D01*
X0115773Y0178258D02*
X0136919Y0178258D01*
X0136721Y0178059D02*
X0115773Y0178059D01*
X0115773Y0177861D02*
X0136522Y0177861D01*
X0136324Y0177662D02*
X0115773Y0177662D01*
X0115773Y0177464D02*
X0136125Y0177464D01*
X0135927Y0177265D02*
X0115773Y0177265D01*
X0115773Y0177067D02*
X0135728Y0177067D01*
X0135530Y0176868D02*
X0115773Y0176868D01*
X0115773Y0176670D02*
X0135331Y0176670D01*
X0135132Y0176471D02*
X0115773Y0176471D01*
X0115773Y0176273D02*
X0134934Y0176273D01*
X0134735Y0176074D02*
X0115773Y0176074D01*
X0115773Y0175876D02*
X0134537Y0175876D01*
X0134338Y0175677D02*
X0115773Y0175677D01*
X0115773Y0175479D02*
X0134140Y0175479D01*
X0133941Y0175280D02*
X0115773Y0175280D01*
X0115773Y0175081D02*
X0133743Y0175081D01*
X0133544Y0174883D02*
X0115773Y0174883D01*
X0115773Y0174684D02*
X0133346Y0174684D01*
X0133147Y0174486D02*
X0115773Y0174486D01*
X0115773Y0181037D02*
X0141364Y0181037D01*
X0141364Y0181235D02*
X0115773Y0181235D01*
X0115773Y0181434D02*
X0141364Y0181434D01*
X0141364Y0181632D02*
X0115773Y0181632D01*
X0137427Y0177289D02*
X0137427Y0169907D01*
X0139395Y0169907D01*
X0139395Y0177781D01*
X0140380Y0178765D01*
X0142840Y0178765D01*
X0142840Y0179750D01*
X0139887Y0179750D01*
X0137427Y0177289D01*
X0137427Y0177265D02*
X0139395Y0177265D01*
X0139395Y0177067D02*
X0137427Y0177067D01*
X0137427Y0176868D02*
X0139395Y0176868D01*
X0139395Y0176670D02*
X0137427Y0176670D01*
X0137427Y0176471D02*
X0139395Y0176471D01*
X0139395Y0176273D02*
X0137427Y0176273D01*
X0137427Y0176074D02*
X0139395Y0176074D01*
X0139395Y0175876D02*
X0137427Y0175876D01*
X0137427Y0175677D02*
X0139395Y0175677D01*
X0139395Y0175479D02*
X0137427Y0175479D01*
X0137427Y0175280D02*
X0139395Y0175280D01*
X0139395Y0175081D02*
X0137427Y0175081D01*
X0137427Y0174883D02*
X0139395Y0174883D01*
X0139395Y0174684D02*
X0137427Y0174684D01*
X0137427Y0174486D02*
X0139395Y0174486D01*
X0139395Y0174287D02*
X0137427Y0174287D01*
X0137427Y0174089D02*
X0139395Y0174089D01*
X0139395Y0173890D02*
X0137427Y0173890D01*
X0137427Y0173692D02*
X0139395Y0173692D01*
X0139395Y0173493D02*
X0137427Y0173493D01*
X0137427Y0173295D02*
X0139395Y0173295D01*
X0139395Y0173096D02*
X0137427Y0173096D01*
X0137427Y0172898D02*
X0139395Y0172898D01*
X0139395Y0172699D02*
X0137427Y0172699D01*
X0137427Y0172501D02*
X0139395Y0172501D01*
X0139395Y0172302D02*
X0137427Y0172302D01*
X0137427Y0172104D02*
X0139395Y0172104D01*
X0139395Y0171905D02*
X0137427Y0171905D01*
X0137427Y0171707D02*
X0139395Y0171707D01*
X0139395Y0171508D02*
X0137427Y0171508D01*
X0137427Y0171310D02*
X0139395Y0171310D01*
X0139395Y0171111D02*
X0137427Y0171111D01*
X0137427Y0170913D02*
X0139395Y0170913D01*
X0139395Y0170714D02*
X0137427Y0170714D01*
X0137427Y0170516D02*
X0139395Y0170516D01*
X0139395Y0170317D02*
X0137427Y0170317D01*
X0137427Y0170119D02*
X0139395Y0170119D01*
X0139395Y0169920D02*
X0137427Y0169920D01*
X0140872Y0169920D02*
X0145793Y0169920D01*
X0145793Y0169907D02*
X0140872Y0169907D01*
X0140872Y0177289D01*
X0141364Y0177781D01*
X0142840Y0177781D01*
X0143332Y0177289D01*
X0143332Y0173844D01*
X0143824Y0173352D01*
X0145793Y0173352D01*
X0145793Y0169907D01*
X0145793Y0170119D02*
X0140872Y0170119D01*
X0140872Y0170317D02*
X0145793Y0170317D01*
X0145793Y0170516D02*
X0140872Y0170516D01*
X0140872Y0170714D02*
X0145793Y0170714D01*
X0145793Y0170913D02*
X0140872Y0170913D01*
X0140872Y0171111D02*
X0145793Y0171111D01*
X0145793Y0171310D02*
X0140872Y0171310D01*
X0140872Y0171508D02*
X0145793Y0171508D01*
X0145793Y0171707D02*
X0140872Y0171707D01*
X0140872Y0171905D02*
X0145793Y0171905D01*
X0145793Y0172104D02*
X0140872Y0172104D01*
X0140872Y0172302D02*
X0145793Y0172302D01*
X0145793Y0172501D02*
X0140872Y0172501D01*
X0140872Y0172699D02*
X0145793Y0172699D01*
X0145793Y0172898D02*
X0140872Y0172898D01*
X0140872Y0173096D02*
X0145793Y0173096D01*
X0145793Y0173295D02*
X0140872Y0173295D01*
X0140872Y0173493D02*
X0143683Y0173493D01*
X0143484Y0173692D02*
X0140872Y0173692D01*
X0140872Y0173890D02*
X0143332Y0173890D01*
X0143332Y0174089D02*
X0140872Y0174089D01*
X0140872Y0174287D02*
X0143332Y0174287D01*
X0143332Y0174486D02*
X0140872Y0174486D01*
X0140872Y0174684D02*
X0143332Y0174684D01*
X0143332Y0174883D02*
X0140872Y0174883D01*
X0140872Y0175081D02*
X0143332Y0175081D01*
X0143332Y0175280D02*
X0140872Y0175280D01*
X0140872Y0175479D02*
X0143332Y0175479D01*
X0143332Y0175677D02*
X0140872Y0175677D01*
X0140872Y0175876D02*
X0143332Y0175876D01*
X0143332Y0176074D02*
X0140872Y0176074D01*
X0140872Y0176273D02*
X0143332Y0176273D01*
X0143332Y0176471D02*
X0140872Y0176471D01*
X0140872Y0176670D02*
X0143332Y0176670D01*
X0143332Y0176868D02*
X0140872Y0176868D01*
X0140872Y0177067D02*
X0143332Y0177067D01*
X0143332Y0177265D02*
X0140872Y0177265D01*
X0141046Y0177464D02*
X0143158Y0177464D01*
X0142959Y0177662D02*
X0141245Y0177662D01*
X0140269Y0178655D02*
X0138792Y0178655D01*
X0138594Y0178456D02*
X0140070Y0178456D01*
X0139872Y0178258D02*
X0138395Y0178258D01*
X0138197Y0178059D02*
X0139673Y0178059D01*
X0139475Y0177861D02*
X0137998Y0177861D01*
X0137800Y0177662D02*
X0139395Y0177662D01*
X0139395Y0177464D02*
X0137601Y0177464D01*
X0138991Y0178853D02*
X0142840Y0178853D01*
X0142840Y0179052D02*
X0139190Y0179052D01*
X0139388Y0179250D02*
X0142840Y0179250D01*
X0142840Y0179449D02*
X0139587Y0179449D01*
X0139785Y0179647D02*
X0142840Y0179647D01*
X0145301Y0179647D02*
X0151309Y0179647D01*
X0151206Y0179750D02*
X0145301Y0179750D01*
X0145301Y0178765D01*
X0150714Y0178765D01*
X0152683Y0176797D01*
X0152683Y0173646D01*
X0152713Y0173615D01*
X0152713Y0171924D01*
X0152762Y0171876D01*
X0154159Y0171876D01*
X0154159Y0176797D01*
X0151206Y0179750D01*
X0151507Y0179449D02*
X0145301Y0179449D01*
X0145301Y0179250D02*
X0151706Y0179250D01*
X0151904Y0179052D02*
X0145301Y0179052D01*
X0145301Y0178853D02*
X0152103Y0178853D01*
X0152301Y0178655D02*
X0150825Y0178655D01*
X0151023Y0178456D02*
X0152500Y0178456D01*
X0152698Y0178258D02*
X0151222Y0178258D01*
X0151420Y0178059D02*
X0152897Y0178059D01*
X0153095Y0177861D02*
X0151619Y0177861D01*
X0151817Y0177662D02*
X0153294Y0177662D01*
X0153492Y0177464D02*
X0152016Y0177464D01*
X0152214Y0177265D02*
X0153691Y0177265D01*
X0153889Y0177067D02*
X0152413Y0177067D01*
X0152611Y0176868D02*
X0154088Y0176868D01*
X0154159Y0176670D02*
X0152683Y0176670D01*
X0152683Y0176471D02*
X0154159Y0176471D01*
X0154159Y0176273D02*
X0152683Y0176273D01*
X0152683Y0176074D02*
X0154159Y0176074D01*
X0154159Y0175876D02*
X0152683Y0175876D01*
X0152683Y0175677D02*
X0154159Y0175677D01*
X0154159Y0175479D02*
X0152683Y0175479D01*
X0152683Y0175280D02*
X0154159Y0175280D01*
X0154159Y0175081D02*
X0152683Y0175081D01*
X0152683Y0174883D02*
X0154159Y0174883D01*
X0154159Y0174684D02*
X0152683Y0174684D01*
X0152683Y0174486D02*
X0154159Y0174486D01*
X0154159Y0174287D02*
X0152683Y0174287D01*
X0152683Y0174089D02*
X0154159Y0174089D01*
X0154159Y0173890D02*
X0152683Y0173890D01*
X0152683Y0173692D02*
X0154159Y0173692D01*
X0154159Y0173493D02*
X0152713Y0173493D01*
X0152713Y0173295D02*
X0154159Y0173295D01*
X0154159Y0173096D02*
X0152713Y0173096D01*
X0152713Y0172898D02*
X0154159Y0172898D01*
X0154159Y0172699D02*
X0152713Y0172699D01*
X0152713Y0172501D02*
X0154159Y0172501D01*
X0154159Y0172302D02*
X0152713Y0172302D01*
X0152713Y0172104D02*
X0154159Y0172104D01*
X0154159Y0171905D02*
X0152732Y0171905D01*
X0148138Y0174336D02*
X0145301Y0174336D01*
X0145301Y0177781D01*
X0148254Y0177781D01*
X0148254Y0175892D01*
X0148138Y0175776D01*
X0148138Y0174336D01*
X0148138Y0174486D02*
X0145301Y0174486D01*
X0145301Y0174684D02*
X0148138Y0174684D01*
X0148138Y0174883D02*
X0145301Y0174883D01*
X0145301Y0175081D02*
X0148138Y0175081D01*
X0148138Y0175280D02*
X0145301Y0175280D01*
X0145301Y0175479D02*
X0148138Y0175479D01*
X0148138Y0175677D02*
X0145301Y0175677D01*
X0145301Y0175876D02*
X0148237Y0175876D01*
X0148254Y0176074D02*
X0145301Y0176074D01*
X0145301Y0176273D02*
X0148254Y0176273D01*
X0148254Y0176471D02*
X0145301Y0176471D01*
X0145301Y0176670D02*
X0148254Y0176670D01*
X0148254Y0176868D02*
X0145301Y0176868D01*
X0145301Y0177067D02*
X0148254Y0177067D01*
X0148254Y0177265D02*
X0145301Y0177265D01*
X0145301Y0177464D02*
X0148254Y0177464D01*
X0148254Y0177662D02*
X0145301Y0177662D01*
X0147269Y0180838D02*
X0149730Y0180838D01*
X0149730Y0181037D02*
X0147269Y0181037D01*
X0147269Y0181235D02*
X0149730Y0181235D01*
X0149730Y0181434D02*
X0147269Y0181434D01*
X0147269Y0181632D02*
X0149730Y0181632D01*
X0149730Y0181831D02*
X0147269Y0181831D01*
X0147269Y0182029D02*
X0149730Y0182029D01*
X0149730Y0182228D02*
X0147269Y0182228D01*
X0147269Y0182426D02*
X0149730Y0182426D01*
X0149730Y0182625D02*
X0147269Y0182625D01*
X0147269Y0182823D02*
X0149730Y0182823D01*
X0149730Y0183022D02*
X0147269Y0183022D01*
X0141364Y0182029D02*
X0138722Y0182029D01*
X0138524Y0181831D02*
X0141364Y0181831D01*
X0147269Y0158096D02*
X0152191Y0158096D01*
X0152191Y0153175D01*
X0147269Y0153175D01*
X0147269Y0158096D01*
X0147269Y0158010D02*
X0152191Y0158010D01*
X0152191Y0157811D02*
X0147269Y0157811D01*
X0147269Y0157612D02*
X0152191Y0157612D01*
X0152191Y0157414D02*
X0147269Y0157414D01*
X0147269Y0157215D02*
X0152191Y0157215D01*
X0152191Y0157017D02*
X0147269Y0157017D01*
X0147269Y0156818D02*
X0152191Y0156818D01*
X0152191Y0156620D02*
X0147269Y0156620D01*
X0147269Y0156421D02*
X0152191Y0156421D01*
X0152191Y0156223D02*
X0147269Y0156223D01*
X0147269Y0156024D02*
X0152191Y0156024D01*
X0152191Y0155826D02*
X0147269Y0155826D01*
X0147269Y0155627D02*
X0152191Y0155627D01*
X0152191Y0155429D02*
X0147269Y0155429D01*
X0147269Y0155230D02*
X0152191Y0155230D01*
X0152191Y0155032D02*
X0147269Y0155032D01*
X0147269Y0154833D02*
X0152191Y0154833D01*
X0152191Y0154635D02*
X0147269Y0154635D01*
X0147269Y0154436D02*
X0152191Y0154436D01*
X0152191Y0154238D02*
X0147269Y0154238D01*
X0147269Y0154039D02*
X0152191Y0154039D01*
X0152191Y0153841D02*
X0147269Y0153841D01*
X0147269Y0153642D02*
X0152191Y0153642D01*
X0152191Y0153444D02*
X0147269Y0153444D01*
X0147269Y0153245D02*
X0152191Y0153245D01*
D43*
X0137919Y0133490D02*
X0137023Y0132594D01*
X0135546Y0132594D01*
X0135246Y0132894D01*
X0133702Y0132894D01*
X0133313Y0132506D01*
X0123155Y0132506D01*
X0122171Y0133490D01*
X0122171Y0136306D01*
X0149784Y0110360D02*
X0164986Y0110360D01*
X0165070Y0110276D01*
X0166146Y0110276D01*
X0166673Y0109748D01*
X0166673Y0108564D01*
X0167338Y0107899D01*
X0164002Y0107998D02*
X0158096Y0107998D01*
X0152191Y0107998D01*
X0149336Y0107998D01*
X0146496Y0105157D01*
X0146496Y0088555D01*
X0144612Y0086671D01*
X0144612Y0083135D01*
X0146187Y0083135D02*
X0146187Y0086549D01*
X0147696Y0088058D01*
X0147696Y0101436D01*
X0148746Y0102486D01*
X0149388Y0098549D02*
X0149561Y0098549D01*
X0149388Y0098549D02*
X0148896Y0098057D01*
X0148896Y0087561D01*
X0147761Y0086426D01*
X0147761Y0083135D01*
X0149336Y0083135D02*
X0149336Y0086304D01*
X0149504Y0086472D01*
X0149750Y0086718D01*
X0149996Y0086964D01*
X0150096Y0087064D01*
X0150096Y0087104D01*
X0151206Y0088214D01*
X0151660Y0085768D02*
X0150911Y0085018D01*
X0150911Y0083135D01*
X0151660Y0085768D02*
X0152697Y0085768D01*
X0153175Y0086246D01*
X0153175Y0086432D01*
X0155143Y0086738D02*
X0155143Y0090576D01*
X0152781Y0090576D01*
X0152683Y0090675D01*
X0155143Y0086738D02*
X0155635Y0086246D01*
X0157604Y0086246D01*
X0158588Y0085261D01*
X0158588Y0081324D01*
X0157112Y0081324D01*
X0156128Y0082309D01*
X0155747Y0082309D01*
X0155478Y0080143D02*
X0157407Y0080143D01*
X0158588Y0081324D01*
X0160065Y0081104D02*
X0157529Y0078569D01*
X0155478Y0078569D01*
X0155478Y0076994D02*
X0157652Y0076994D01*
X0161265Y0080607D01*
X0161265Y0087311D01*
X0163328Y0089375D01*
X0163328Y0093939D01*
X0164494Y0095104D01*
X0166167Y0095104D01*
X0169317Y0090576D02*
X0168543Y0089803D01*
X0168543Y0089416D01*
X0168016Y0088889D01*
X0164676Y0088889D01*
X0162465Y0086677D01*
X0162465Y0080110D01*
X0157774Y0075419D01*
X0155478Y0075419D01*
X0155478Y0073844D02*
X0157896Y0073844D01*
X0163665Y0079613D01*
X0163665Y0083785D01*
X0164649Y0084769D01*
X0171285Y0084769D01*
X0171383Y0090576D02*
X0169317Y0090576D01*
X0160852Y0091167D02*
X0160448Y0090763D01*
X0160448Y0090675D01*
X0160852Y0091167D02*
X0160852Y0089002D01*
X0160065Y0088214D01*
X0160065Y0081104D01*
X0143824Y0071482D02*
X0138903Y0076403D01*
X0139887Y0077387D01*
X0139887Y0083135D01*
X0135163Y0083135D02*
X0135163Y0085065D01*
X0133943Y0086285D01*
X0133037Y0086285D01*
X0132959Y0086285D01*
X0132013Y0087230D01*
X0132013Y0090281D01*
X0129454Y0087230D02*
X0127092Y0087230D01*
X0126108Y0088214D01*
X0126108Y0090576D01*
X0129454Y0087230D02*
X0132171Y0084513D01*
X0132171Y0080143D01*
X0129061Y0081324D02*
X0129061Y0075911D01*
X0129553Y0075419D01*
X0132171Y0075419D01*
X0129061Y0081324D02*
X0127511Y0082874D01*
X0127511Y0083712D01*
X0128569Y0084769D01*
X0127511Y0082874D02*
X0117323Y0082874D01*
X0116718Y0082269D01*
X0116718Y0080006D01*
X0128076Y0067053D02*
X0130143Y0069120D01*
X0132171Y0069120D01*
X0132171Y0065970D02*
X0130288Y0065970D01*
X0129539Y0065221D01*
X0129539Y0056975D01*
X0128081Y0055518D01*
X0119715Y0055518D01*
X0112387Y0048190D01*
X0112387Y0038943D01*
X0113805Y0037525D01*
X0120202Y0037525D01*
X0121187Y0036541D01*
X0121187Y0033096D01*
X0111187Y0033096D02*
X0111187Y0048687D01*
X0119218Y0056718D01*
X0127584Y0056718D01*
X0128076Y0057210D01*
X0128076Y0067053D01*
X0135163Y0059828D02*
X0135163Y0056226D01*
X0135163Y0053962D01*
X0133490Y0052289D01*
X0127191Y0052289D01*
X0125326Y0049172D02*
X0129534Y0049172D01*
X0130734Y0050372D01*
X0135261Y0050372D01*
X0135805Y0049828D01*
X0138517Y0049828D01*
X0139024Y0050335D01*
X0139024Y0054769D01*
X0139887Y0055632D01*
X0139887Y0059828D01*
X0141462Y0059828D02*
X0141462Y0055510D01*
X0140224Y0054272D01*
X0140224Y0049838D01*
X0138893Y0048507D01*
X0135429Y0048507D01*
X0134764Y0049172D01*
X0131231Y0049172D01*
X0130031Y0047972D01*
X0125823Y0047972D01*
X0123958Y0046107D01*
X0122624Y0046107D01*
X0121959Y0046772D01*
X0120414Y0046772D01*
X0118550Y0044907D01*
X0115281Y0044907D01*
X0116718Y0046107D02*
X0115773Y0047052D01*
X0115773Y0048844D01*
X0116718Y0046107D02*
X0118053Y0046107D01*
X0119917Y0047972D01*
X0122456Y0047972D01*
X0122997Y0047430D01*
X0123584Y0047430D01*
X0125326Y0049172D01*
X0126320Y0046772D02*
X0124455Y0044907D01*
X0121187Y0044907D01*
X0126320Y0046772D02*
X0127864Y0046772D01*
X0128529Y0046107D01*
X0129864Y0046107D01*
X0131728Y0047972D01*
X0134267Y0047972D01*
X0134932Y0047307D01*
X0139390Y0047307D01*
X0141424Y0049341D01*
X0141424Y0053775D01*
X0143037Y0055388D01*
X0143037Y0059828D01*
X0144612Y0059828D02*
X0144612Y0055266D01*
X0142624Y0053278D01*
X0142624Y0048844D01*
X0139887Y0046107D01*
X0134435Y0046107D01*
X0133770Y0046772D01*
X0132225Y0046772D01*
X0130361Y0044907D01*
X0127092Y0044907D01*
X0132998Y0044907D02*
X0140872Y0044907D01*
X0143824Y0047860D01*
X0143824Y0052781D01*
X0146187Y0055143D01*
X0146187Y0059828D01*
X0147761Y0059828D02*
X0147761Y0056718D01*
X0148746Y0055734D01*
X0152486Y0054946D02*
X0152486Y0059828D01*
X0154651Y0058194D02*
X0155478Y0059021D01*
X0155478Y0062820D01*
X0155478Y0064395D02*
X0157361Y0064395D01*
X0158110Y0063646D01*
X0158110Y0061995D01*
X0157604Y0061489D01*
X0157604Y0059110D01*
X0162131Y0059277D02*
X0162131Y0053765D01*
X0164959Y0050938D01*
X0164959Y0050739D01*
X0157013Y0053765D02*
X0154159Y0053765D01*
X0153667Y0053765D01*
X0152486Y0054946D01*
X0162131Y0059277D02*
X0163509Y0060655D01*
X0165858Y0060655D01*
X0165970Y0060767D01*
X0114701Y0054838D02*
X0114701Y0053898D01*
X0110434Y0049631D01*
X0105439Y0049631D01*
X0105439Y0057210D02*
X0105439Y0057899D01*
X0113805Y0105931D02*
X0119710Y0105931D01*
X0121163Y0107383D01*
X0146808Y0107383D01*
X0149784Y0110360D01*
X0172368Y0114297D02*
X0172663Y0114592D01*
X0172663Y0118234D01*
X0142643Y0183883D02*
X0143824Y0185065D01*
X0143824Y0187624D01*
D44*
X0125124Y0179159D02*
X0123647Y0180635D01*
X0110458Y0180635D01*
X0106423Y0184671D01*
X0106423Y0204848D01*
X0103962Y0207309D01*
X0097565Y0207309D01*
D45*
X0085754Y0216659D03*
X0071974Y0229454D03*
X0087230Y0231423D03*
X0119218Y0230439D03*
X0119218Y0233391D03*
X0119218Y0236344D03*
X0133982Y0236344D03*
X0133982Y0233391D03*
X0133982Y0230439D03*
X0132506Y0218628D03*
X0144809Y0208293D03*
X0146285Y0217151D03*
X0157604Y0209277D03*
X0156620Y0195990D03*
X0155635Y0188116D03*
X0152191Y0184671D03*
X0153175Y0181226D03*
X0150222Y0176305D03*
X0154651Y0170891D03*
X0154651Y0168431D03*
X0144809Y0167939D03*
X0140872Y0167939D03*
X0140872Y0164002D03*
X0144809Y0164002D03*
X0144809Y0160065D03*
X0140872Y0160065D03*
X0145301Y0152683D03*
X0140380Y0151206D03*
X0136443Y0146285D03*
X0136935Y0141856D03*
X0141364Y0138903D03*
X0150714Y0139887D03*
X0156128Y0146777D03*
X0166931Y0153151D03*
X0168431Y0145793D03*
X0170891Y0134474D03*
X0165478Y0132998D03*
X0169415Y0125616D03*
X0172368Y0114297D03*
X0168431Y0112328D03*
X0167338Y0107899D03*
X0173352Y0106915D03*
X0166079Y0095104D03*
X0160448Y0090675D03*
X0152683Y0090675D03*
X0151206Y0088214D03*
X0153175Y0086432D03*
X0155747Y0082309D03*
X0148746Y0076403D03*
X0143824Y0076403D03*
X0138903Y0076403D03*
X0138903Y0071482D03*
X0138903Y0066561D03*
X0143824Y0066561D03*
X0148746Y0066561D03*
X0148746Y0071482D03*
X0143824Y0071482D03*
X0157604Y0059110D03*
X0154651Y0058194D03*
X0154159Y0053765D03*
X0148746Y0055734D03*
X0148622Y0049828D03*
X0157112Y0046383D03*
X0164959Y0050739D03*
X0167358Y0042535D03*
X0173352Y0040470D03*
X0176797Y0039986D03*
X0179750Y0039986D03*
X0175813Y0034080D03*
X0170891Y0031128D03*
X0184671Y0032112D03*
X0202387Y0033096D03*
X0193037Y0049336D03*
X0186639Y0049336D03*
X0181226Y0047368D03*
X0177781Y0049336D03*
X0174828Y0046876D03*
X0165970Y0060767D03*
X0170399Y0063608D03*
X0170891Y0066069D03*
X0167939Y0066069D03*
X0164986Y0066069D03*
X0162033Y0066069D03*
X0161049Y0073943D03*
X0166462Y0079848D03*
X0169415Y0076895D03*
X0170891Y0073943D03*
X0167939Y0073943D03*
X0173844Y0073943D03*
X0176797Y0073943D03*
X0173844Y0077387D03*
X0178273Y0079848D03*
X0182210Y0073943D03*
X0182702Y0070990D03*
X0182702Y0068037D03*
X0182702Y0065084D03*
X0173844Y0066069D03*
X0136935Y0051797D03*
X0135163Y0056226D03*
X0131521Y0055734D03*
X0125616Y0059179D03*
X0124631Y0067545D03*
X0114701Y0054838D03*
X0118234Y0050813D03*
X0115773Y0048844D03*
X0115281Y0044907D03*
X0121187Y0044907D03*
X0127092Y0044907D03*
X0132998Y0044907D03*
X0116265Y0035065D03*
X0116265Y0029651D03*
X0098549Y0051797D03*
X0105439Y0057210D03*
X0087722Y0034080D03*
X0128569Y0084769D03*
X0133037Y0086285D03*
X0136127Y0086738D03*
X0137919Y0090675D03*
X0149561Y0098549D03*
X0148746Y0102486D03*
X0136443Y0111836D03*
X0141364Y0112820D03*
X0138411Y0118234D03*
X0137919Y0125124D03*
X0134474Y0131029D03*
X0129553Y0126600D03*
X0122171Y0125616D03*
X0117212Y0132960D03*
X0125616Y0138903D03*
X0119710Y0146285D03*
X0132506Y0157112D03*
X0129553Y0165478D03*
X0124139Y0168431D03*
X0125616Y0175813D03*
X0129553Y0175813D03*
X0121679Y0175813D03*
X0117742Y0175813D03*
X0104454Y0178765D03*
X0103470Y0175813D03*
X0101994Y0180734D03*
X0102978Y0185163D03*
X0099041Y0185163D03*
X0110852Y0190576D03*
X0110852Y0195498D03*
X0126600Y0198943D03*
X0127584Y0190576D03*
X0133490Y0190576D03*
X0138411Y0176305D03*
X0149730Y0188608D03*
X0171876Y0179257D03*
X0177781Y0175320D03*
X0184671Y0179257D03*
X0182210Y0168431D03*
X0174435Y0162033D03*
X0151698Y0129946D03*
X0148254Y0127584D03*
X0157604Y0126600D03*
X0156128Y0121679D03*
X0158588Y0114986D03*
X0132998Y0103470D03*
X0126108Y0101994D03*
X0113805Y0105931D03*
X0128076Y0113313D03*
X0130537Y0118234D03*
X0123155Y0159572D03*
X0194513Y0226009D03*
X0198943Y0232899D03*
X0204848Y0221088D03*
X0218628Y0230439D03*
X0151698Y0228470D03*
D46*
X0158265Y0228540D02*
X0131588Y0228540D01*
X0131536Y0228345D02*
X0131645Y0228752D01*
X0131645Y0232299D01*
X0126708Y0232299D01*
X0126708Y0227362D01*
X0130256Y0227362D01*
X0130662Y0227471D01*
X0131027Y0227682D01*
X0131325Y0227980D01*
X0131536Y0228345D01*
X0131645Y0229739D02*
X0158265Y0229739D01*
X0158265Y0230937D02*
X0131645Y0230937D01*
X0131645Y0232136D02*
X0158265Y0232136D01*
X0158265Y0233334D02*
X0126708Y0233334D01*
X0126708Y0233499D02*
X0131645Y0233499D01*
X0131645Y0237047D01*
X0131536Y0237454D01*
X0131325Y0237819D01*
X0131027Y0238117D01*
X0130902Y0238189D01*
X0158265Y0238189D01*
X0158265Y0227724D01*
X0162202Y0223787D01*
X0162202Y0188354D01*
X0163256Y0187300D01*
X0179019Y0187300D01*
X0180073Y0188354D01*
X0180073Y0202064D01*
X0192306Y0202064D01*
X0193361Y0203118D01*
X0193361Y0211991D01*
X0192306Y0213046D01*
X0189674Y0213046D01*
X0189716Y0213200D01*
X0189716Y0215370D01*
X0185763Y0215370D01*
X0185763Y0216570D01*
X0189716Y0216570D01*
X0189716Y0218740D01*
X0189607Y0219147D01*
X0189396Y0219512D01*
X0189098Y0219809D01*
X0188733Y0220020D01*
X0188326Y0220129D01*
X0185763Y0220129D01*
X0185763Y0216570D01*
X0184563Y0216570D01*
X0184563Y0215370D01*
X0180610Y0215370D01*
X0180610Y0213200D01*
X0180652Y0213046D01*
X0180073Y0213046D01*
X0180073Y0227247D01*
X0176628Y0230692D01*
X0176628Y0238189D01*
X0248672Y0238189D01*
X0236984Y0231391D01*
X0225741Y0223174D01*
X0225741Y0223174D01*
X0215414Y0213831D01*
X0206116Y0203464D01*
X0206116Y0203464D01*
X0197947Y0192185D01*
X0197947Y0192185D01*
X0193620Y0184671D01*
X0153667Y0184671D01*
X0153667Y0179127D01*
X0151745Y0181050D01*
X0149539Y0181050D01*
X0149539Y0181521D01*
X0147585Y0181521D01*
X0147585Y0181521D01*
X0149539Y0181521D01*
X0149539Y0182273D01*
X0149404Y0182775D01*
X0149304Y0182948D01*
X0149404Y0183122D01*
X0149539Y0183624D01*
X0149539Y0183883D01*
X0148213Y0183883D01*
X0148212Y0183884D01*
X0149539Y0183884D01*
X0149539Y0184143D01*
X0149404Y0184645D01*
X0149144Y0185096D01*
X0148777Y0185463D01*
X0148327Y0185723D01*
X0147824Y0185857D01*
X0147565Y0185857D01*
X0147565Y0185100D01*
X0147564Y0185100D01*
X0147564Y0185857D01*
X0147305Y0185857D01*
X0146803Y0185723D01*
X0146777Y0185708D01*
X0146752Y0185723D01*
X0146513Y0185787D01*
X0146537Y0185811D01*
X0147024Y0186987D01*
X0147024Y0190229D01*
X0146537Y0191405D01*
X0126936Y0211006D01*
X0125760Y0211493D01*
X0125005Y0211493D01*
X0125005Y0225050D01*
X0124302Y0225753D01*
X0114292Y0225753D01*
X0113589Y0225050D01*
X0113589Y0191536D01*
X0114292Y0190833D01*
X0124302Y0190833D01*
X0125005Y0191536D01*
X0125005Y0203886D01*
X0140624Y0188267D01*
X0140624Y0186987D01*
X0141045Y0185971D01*
X0139841Y0185971D01*
X0139080Y0185209D01*
X0139080Y0183510D01*
X0138365Y0183510D01*
X0138338Y0183483D01*
X0138338Y0184188D01*
X0135055Y0184188D01*
X0135055Y0184366D01*
X0134877Y0184366D01*
X0134877Y0184188D01*
X0131594Y0184188D01*
X0130134Y0184188D01*
X0130134Y0184366D01*
X0134877Y0184366D01*
X0134877Y0187255D01*
X0132984Y0187255D01*
X0132577Y0187146D01*
X0132505Y0187105D01*
X0132434Y0187146D01*
X0132027Y0187255D01*
X0130134Y0187255D01*
X0130134Y0184366D01*
X0129956Y0184366D01*
X0129956Y0184188D01*
X0128495Y0184188D01*
X0125213Y0184188D01*
X0125213Y0184366D01*
X0129956Y0184366D01*
X0129956Y0187255D01*
X0128063Y0187255D01*
X0127656Y0187146D01*
X0127584Y0187105D01*
X0127513Y0187146D01*
X0127106Y0187255D01*
X0125213Y0187255D01*
X0125213Y0184366D01*
X0125035Y0184366D01*
X0125035Y0187255D01*
X0123141Y0187255D01*
X0122734Y0187146D01*
X0122370Y0186935D01*
X0122072Y0186638D01*
X0121861Y0186273D01*
X0121752Y0185866D01*
X0121752Y0184366D01*
X0125035Y0184366D01*
X0125035Y0184188D01*
X0121752Y0184188D01*
X0121752Y0183035D01*
X0111452Y0183035D01*
X0108823Y0185665D01*
X0108823Y0205325D01*
X0108457Y0206208D01*
X0107782Y0206883D01*
X0105322Y0209343D01*
X0104440Y0209709D01*
X0102702Y0209709D01*
X0102702Y0211743D01*
X0101999Y0212446D01*
X0093130Y0212446D01*
X0092428Y0211743D01*
X0092428Y0202875D01*
X0093130Y0202172D01*
X0101999Y0202172D01*
X0102702Y0202875D01*
X0102702Y0204909D01*
X0102968Y0204909D01*
X0104023Y0203854D01*
X0104023Y0198481D01*
X0102560Y0200133D01*
X0099633Y0201243D01*
X0096525Y0200865D01*
X0093948Y0199087D01*
X0092493Y0196315D01*
X0092493Y0193184D01*
X0093948Y0190412D01*
X0096525Y0188634D01*
X0099633Y0188256D01*
X0102560Y0189367D01*
X0104023Y0191018D01*
X0104023Y0184193D01*
X0104388Y0183311D01*
X0109099Y0178601D01*
X0109981Y0178235D01*
X0114473Y0178235D01*
X0114473Y0174336D01*
X0114460Y0174336D01*
X0114460Y0175099D01*
X0110385Y0175099D01*
X0110385Y0175149D01*
X0110335Y0175149D01*
X0110335Y0177974D01*
X0107649Y0177974D01*
X0107242Y0177865D01*
X0106877Y0177654D01*
X0106580Y0177356D01*
X0106369Y0176991D01*
X0106260Y0176584D01*
X0106260Y0175149D01*
X0110335Y0175149D01*
X0110335Y0175099D01*
X0106260Y0175099D01*
X0106260Y0174336D01*
X0102173Y0174336D01*
X0099604Y0180117D01*
X0092654Y0192185D01*
X0084486Y0203464D01*
X0075188Y0213831D01*
X0064861Y0223174D01*
X0064861Y0223174D01*
X0053617Y0231391D01*
X0041930Y0238189D01*
X0121314Y0238189D01*
X0121188Y0238117D01*
X0120891Y0237819D01*
X0120680Y0237454D01*
X0120571Y0237047D01*
X0120571Y0233499D01*
X0125508Y0233499D01*
X0125508Y0232299D01*
X0126708Y0232299D01*
X0126708Y0233499D01*
X0125508Y0233334D02*
X0050276Y0233334D01*
X0052337Y0232136D02*
X0120571Y0232136D01*
X0120571Y0232299D02*
X0120571Y0228752D01*
X0120680Y0228345D01*
X0120891Y0227980D01*
X0121188Y0227682D01*
X0121553Y0227471D01*
X0121960Y0227362D01*
X0125508Y0227362D01*
X0125508Y0232299D01*
X0120571Y0232299D01*
X0120571Y0230937D02*
X0054238Y0230937D01*
X0053617Y0231391D02*
X0053617Y0231391D01*
X0055878Y0229739D02*
X0120571Y0229739D01*
X0120627Y0228540D02*
X0057518Y0228540D01*
X0059158Y0227342D02*
X0158647Y0227342D01*
X0159846Y0226143D02*
X0060798Y0226143D01*
X0062438Y0224945D02*
X0113589Y0224945D01*
X0113589Y0223746D02*
X0102951Y0223746D01*
X0102993Y0223674D02*
X0102782Y0224039D01*
X0102484Y0224337D01*
X0102119Y0224548D01*
X0101712Y0224657D01*
X0098165Y0224657D01*
X0098165Y0219720D01*
X0103102Y0219720D01*
X0103102Y0223267D01*
X0102993Y0223674D01*
X0103102Y0222548D02*
X0113589Y0222548D01*
X0113589Y0221349D02*
X0103102Y0221349D01*
X0103102Y0220151D02*
X0113589Y0220151D01*
X0113589Y0218952D02*
X0098165Y0218952D01*
X0098165Y0218520D02*
X0098165Y0219720D01*
X0096965Y0219720D01*
X0096965Y0224657D01*
X0093417Y0224657D01*
X0093010Y0224548D01*
X0092645Y0224337D01*
X0092347Y0224039D01*
X0092137Y0223674D01*
X0092028Y0223267D01*
X0092028Y0219720D01*
X0096965Y0219720D01*
X0096965Y0218520D01*
X0098165Y0218520D01*
X0103102Y0218520D01*
X0103102Y0214972D01*
X0102993Y0214565D01*
X0102782Y0214200D01*
X0102484Y0213902D01*
X0102119Y0213692D01*
X0101712Y0213583D01*
X0098165Y0213583D01*
X0098165Y0218520D01*
X0098165Y0217754D02*
X0096965Y0217754D01*
X0096965Y0218520D02*
X0096965Y0213583D01*
X0093417Y0213583D01*
X0093010Y0213692D01*
X0092645Y0213902D01*
X0092347Y0214200D01*
X0092137Y0214565D01*
X0092028Y0214972D01*
X0092028Y0218520D01*
X0096965Y0218520D01*
X0096965Y0218952D02*
X0069527Y0218952D01*
X0070852Y0217754D02*
X0092028Y0217754D01*
X0092028Y0216555D02*
X0072177Y0216555D01*
X0073501Y0215357D02*
X0092028Y0215357D01*
X0092389Y0214158D02*
X0074826Y0214158D01*
X0075188Y0213831D02*
X0075188Y0213831D01*
X0075969Y0212960D02*
X0113589Y0212960D01*
X0113589Y0214158D02*
X0102740Y0214158D01*
X0103102Y0215357D02*
X0113589Y0215357D01*
X0113589Y0216555D02*
X0103102Y0216555D01*
X0103102Y0217754D02*
X0113589Y0217754D01*
X0113589Y0211761D02*
X0102683Y0211761D01*
X0102702Y0210563D02*
X0113589Y0210563D01*
X0113589Y0209364D02*
X0105271Y0209364D01*
X0106499Y0208166D02*
X0113589Y0208166D01*
X0113589Y0206967D02*
X0107698Y0206967D01*
X0108639Y0205769D02*
X0113589Y0205769D01*
X0113589Y0204570D02*
X0108823Y0204570D01*
X0108823Y0203372D02*
X0113589Y0203372D01*
X0113589Y0202173D02*
X0108823Y0202173D01*
X0108823Y0200975D02*
X0113589Y0200975D01*
X0113589Y0199776D02*
X0108823Y0199776D01*
X0108823Y0198578D02*
X0113589Y0198578D01*
X0113589Y0197379D02*
X0108823Y0197379D01*
X0108823Y0196181D02*
X0113589Y0196181D01*
X0113589Y0194982D02*
X0108823Y0194982D01*
X0108823Y0193784D02*
X0113589Y0193784D01*
X0113589Y0192585D02*
X0108823Y0192585D01*
X0108823Y0191387D02*
X0113738Y0191387D01*
X0108823Y0190188D02*
X0138703Y0190188D01*
X0139901Y0188990D02*
X0108823Y0188990D01*
X0108823Y0187791D02*
X0140624Y0187791D01*
X0140788Y0186593D02*
X0138044Y0186593D01*
X0138018Y0186638D02*
X0137720Y0186935D01*
X0137355Y0187146D01*
X0136948Y0187255D01*
X0135055Y0187255D01*
X0135055Y0184366D01*
X0138338Y0184366D01*
X0138338Y0185866D01*
X0138229Y0186273D01*
X0138018Y0186638D01*
X0138338Y0185394D02*
X0139264Y0185394D01*
X0139080Y0184196D02*
X0135055Y0184196D01*
X0134877Y0184196D02*
X0130134Y0184196D01*
X0129956Y0184196D02*
X0125213Y0184196D01*
X0125035Y0184196D02*
X0110292Y0184196D01*
X0109094Y0185394D02*
X0121752Y0185394D01*
X0122046Y0186593D02*
X0108823Y0186593D01*
X0104703Y0182997D02*
X0097945Y0182997D01*
X0097255Y0184196D02*
X0104023Y0184196D01*
X0104023Y0185394D02*
X0096565Y0185394D01*
X0095875Y0186593D02*
X0104023Y0186593D01*
X0104023Y0187791D02*
X0095185Y0187791D01*
X0094494Y0188990D02*
X0096009Y0188990D01*
X0096525Y0188634D02*
X0096525Y0188634D01*
X0094273Y0190188D02*
X0093804Y0190188D01*
X0093948Y0190412D02*
X0093948Y0190412D01*
X0093948Y0190412D01*
X0093437Y0191387D02*
X0093114Y0191387D01*
X0092654Y0192185D02*
X0092654Y0192185D01*
X0092808Y0192585D02*
X0092364Y0192585D01*
X0092493Y0193784D02*
X0091497Y0193784D01*
X0090629Y0194982D02*
X0092493Y0194982D01*
X0092493Y0196181D02*
X0089761Y0196181D01*
X0088893Y0197379D02*
X0093052Y0197379D01*
X0093681Y0198578D02*
X0088025Y0198578D01*
X0087157Y0199776D02*
X0094947Y0199776D01*
X0093948Y0199087D02*
X0093948Y0199087D01*
X0093948Y0199087D01*
X0093129Y0202173D02*
X0085421Y0202173D01*
X0086289Y0200975D02*
X0097424Y0200975D01*
X0100340Y0200975D02*
X0104023Y0200975D01*
X0104023Y0202173D02*
X0102000Y0202173D01*
X0102702Y0203372D02*
X0104023Y0203372D01*
X0103307Y0204570D02*
X0102702Y0204570D01*
X0102876Y0199776D02*
X0104023Y0199776D01*
X0104023Y0198578D02*
X0103937Y0198578D01*
X0104023Y0190188D02*
X0103288Y0190188D01*
X0102560Y0189367D02*
X0102560Y0189367D01*
X0101566Y0188990D02*
X0104023Y0188990D01*
X0099633Y0188256D02*
X0099633Y0188256D01*
X0098636Y0181799D02*
X0105901Y0181799D01*
X0107100Y0180600D02*
X0099326Y0180600D01*
X0099604Y0180117D02*
X0099604Y0180117D01*
X0099922Y0179401D02*
X0108298Y0179401D01*
X0110385Y0177974D02*
X0110385Y0175149D01*
X0114460Y0175149D01*
X0114460Y0176584D01*
X0114351Y0176991D01*
X0114140Y0177356D01*
X0113842Y0177654D01*
X0113477Y0177865D01*
X0113070Y0177974D01*
X0110385Y0177974D01*
X0110385Y0177004D02*
X0110335Y0177004D01*
X0110335Y0175806D02*
X0110385Y0175806D01*
X0106260Y0175806D02*
X0101520Y0175806D01*
X0102053Y0174607D02*
X0106260Y0174607D01*
X0106377Y0177004D02*
X0100987Y0177004D01*
X0100455Y0178203D02*
X0114473Y0178203D01*
X0114473Y0177004D02*
X0114343Y0177004D01*
X0114460Y0175806D02*
X0114473Y0175806D01*
X0114460Y0174607D02*
X0114473Y0174607D01*
X0114460Y0171876D02*
X0136127Y0171876D01*
X0136127Y0169369D01*
X0136888Y0168607D01*
X0137579Y0168607D01*
X0137579Y0164680D01*
X0144484Y0164680D01*
X0144484Y0163480D01*
X0145684Y0163480D01*
X0145684Y0159755D01*
X0145084Y0159755D01*
X0144484Y0159755D01*
X0144484Y0163480D01*
X0137579Y0163480D01*
X0137579Y0159209D01*
X0136955Y0158586D01*
X0136955Y0154339D01*
X0137185Y0154109D01*
X0137185Y0153227D01*
X0132827Y0148869D01*
X0132820Y0148862D01*
X0132820Y0149932D01*
X0132117Y0150635D01*
X0127973Y0150635D01*
X0127584Y0150246D01*
X0127392Y0150438D01*
X0122855Y0150438D01*
X0122152Y0149735D01*
X0122152Y0149561D01*
X0120441Y0149561D01*
X0119329Y0148450D01*
X0118814Y0148450D01*
X0117546Y0147182D01*
X0117546Y0145388D01*
X0118814Y0144120D01*
X0120607Y0144120D01*
X0121875Y0145388D01*
X0121875Y0145904D01*
X0121932Y0145961D01*
X0122175Y0145961D01*
X0122836Y0145301D01*
X0122152Y0144617D01*
X0122152Y0140867D01*
X0122855Y0140164D01*
X0123815Y0140164D01*
X0123451Y0139800D01*
X0123451Y0139722D01*
X0123368Y0139805D01*
X0121334Y0139805D01*
X0121253Y0139886D01*
X0120888Y0140096D01*
X0120482Y0140205D01*
X0119571Y0140205D01*
X0119571Y0136306D01*
X0119571Y0136306D01*
X0119571Y0140205D01*
X0118660Y0140205D01*
X0118253Y0140096D01*
X0117888Y0139886D01*
X0117591Y0139588D01*
X0117380Y0139223D01*
X0117271Y0138816D01*
X0117271Y0136306D01*
X0119571Y0136306D01*
X0119571Y0136305D01*
X0117271Y0136305D01*
X0117271Y0135124D01*
X0116315Y0135124D01*
X0115047Y0133856D01*
X0115047Y0132063D01*
X0116315Y0130795D01*
X0116831Y0130795D01*
X0117671Y0129955D01*
X0117671Y0125908D01*
X0118374Y0125206D01*
X0120006Y0125206D01*
X0120006Y0125012D01*
X0119879Y0124885D01*
X0119879Y0117794D01*
X0119715Y0117957D01*
X0114784Y0117957D01*
X0114081Y0117255D01*
X0114081Y0112323D01*
X0114568Y0111836D01*
X0114081Y0111349D01*
X0114081Y0108095D01*
X0113391Y0108095D01*
X0113907Y0113200D01*
X0113926Y0119046D01*
X0113929Y0119049D01*
X0113928Y0119709D01*
X0113930Y0120368D01*
X0113928Y0120371D01*
X0113921Y0126675D01*
X0112457Y0140524D01*
X0109560Y0154145D01*
X0109560Y0154145D01*
X0105260Y0167391D01*
X0103267Y0171876D01*
X0106260Y0171876D01*
X0106260Y0171605D01*
X0110335Y0171605D01*
X0110335Y0171555D01*
X0110385Y0171555D01*
X0110385Y0168730D01*
X0113070Y0168730D01*
X0113477Y0168839D01*
X0113842Y0169050D01*
X0114140Y0169348D01*
X0114351Y0169713D01*
X0114460Y0170120D01*
X0114460Y0171555D01*
X0110385Y0171555D01*
X0110385Y0171605D01*
X0114460Y0171605D01*
X0114460Y0171876D01*
X0114460Y0171012D02*
X0136127Y0171012D01*
X0136127Y0169813D02*
X0114378Y0169813D01*
X0110385Y0169813D02*
X0110335Y0169813D01*
X0110335Y0168730D02*
X0110335Y0171555D01*
X0106260Y0171555D01*
X0106260Y0170120D01*
X0106369Y0169713D01*
X0106580Y0169348D01*
X0106877Y0169050D01*
X0107242Y0168839D01*
X0107649Y0168730D01*
X0110335Y0168730D01*
X0110335Y0171012D02*
X0110385Y0171012D01*
X0106260Y0171012D02*
X0103650Y0171012D01*
X0104183Y0169813D02*
X0106342Y0169813D01*
X0104716Y0168615D02*
X0136880Y0168615D01*
X0137579Y0167416D02*
X0105248Y0167416D01*
X0105260Y0167391D02*
X0105260Y0167391D01*
X0105641Y0166218D02*
X0137579Y0166218D01*
X0137579Y0165019D02*
X0106030Y0165019D01*
X0106419Y0163821D02*
X0144484Y0163821D01*
X0144484Y0164680D02*
X0144484Y0168607D01*
X0145684Y0168607D01*
X0145684Y0164680D01*
X0152590Y0164680D01*
X0152590Y0164785D01*
X0153051Y0164323D01*
X0153988Y0163386D01*
X0155912Y0163386D01*
X0155912Y0159764D01*
X0156296Y0159380D01*
X0156296Y0158781D01*
X0155715Y0158199D01*
X0155715Y0157928D01*
X0154398Y0157928D01*
X0153491Y0157020D01*
X0153491Y0158635D01*
X0152729Y0159396D01*
X0152590Y0159396D01*
X0152590Y0163480D01*
X0145684Y0163480D01*
X0145684Y0164680D01*
X0144484Y0164680D01*
X0144484Y0165019D02*
X0145684Y0165019D01*
X0145684Y0163821D02*
X0153553Y0163821D01*
X0152590Y0162622D02*
X0155912Y0162622D01*
X0155912Y0161424D02*
X0152590Y0161424D01*
X0152590Y0160225D02*
X0155912Y0160225D01*
X0156296Y0159027D02*
X0153098Y0159027D01*
X0153491Y0157828D02*
X0154298Y0157828D01*
X0155143Y0156128D02*
X0153175Y0154159D01*
X0150222Y0154159D01*
X0148604Y0151875D02*
X0152729Y0151875D01*
X0153213Y0152359D01*
X0153920Y0152359D01*
X0155715Y0154154D01*
X0155715Y0154056D01*
X0156418Y0153353D01*
X0159774Y0153353D01*
X0160477Y0154056D01*
X0160477Y0158199D01*
X0160119Y0158558D01*
X0160290Y0158728D01*
X0160290Y0159061D01*
X0160365Y0159061D01*
X0160725Y0159422D01*
X0160725Y0154398D01*
X0161780Y0153343D01*
X0164766Y0153343D01*
X0164766Y0152255D01*
X0166034Y0150987D01*
X0167827Y0150987D01*
X0168415Y0151575D01*
X0172046Y0151575D01*
X0172538Y0152067D01*
X0172538Y0152067D01*
X0173476Y0153004D01*
X0173476Y0153156D01*
X0176310Y0153156D01*
X0177013Y0153859D01*
X0177013Y0158396D01*
X0176329Y0159080D01*
X0177013Y0159764D01*
X0177013Y0164302D01*
X0176310Y0165005D01*
X0176235Y0165005D01*
X0176235Y0165633D01*
X0176113Y0165755D01*
X0176225Y0165867D01*
X0176225Y0170010D01*
X0175522Y0170713D01*
X0172166Y0170713D01*
X0171881Y0170429D01*
X0170197Y0172113D01*
X0167995Y0172113D01*
X0166383Y0173726D01*
X0166383Y0175916D01*
X0166274Y0176025D01*
X0166477Y0176376D01*
X0166586Y0176783D01*
X0166586Y0178676D01*
X0163697Y0178676D01*
X0163697Y0178854D01*
X0166586Y0178854D01*
X0166586Y0180748D01*
X0166477Y0181155D01*
X0166266Y0181519D01*
X0165968Y0181817D01*
X0165603Y0182028D01*
X0165196Y0182137D01*
X0163697Y0182137D01*
X0163697Y0178854D01*
X0163519Y0178854D01*
X0163519Y0182137D01*
X0162019Y0182137D01*
X0161612Y0182028D01*
X0161247Y0181817D01*
X0160950Y0181519D01*
X0160815Y0181287D01*
X0160365Y0181737D01*
X0156615Y0181737D01*
X0156128Y0181250D01*
X0156128Y0182210D01*
X0192203Y0182210D01*
X0190997Y0180117D01*
X0185342Y0167391D01*
X0185342Y0167391D01*
X0181042Y0154145D01*
X0178144Y0140524D01*
X0176913Y0128872D01*
X0175134Y0130651D01*
X0174138Y0131646D01*
X0154670Y0131646D01*
X0154670Y0131821D01*
X0153986Y0132505D01*
X0154670Y0133190D01*
X0154670Y0133265D01*
X0155420Y0133265D01*
X0155420Y0132993D01*
X0156123Y0132290D01*
X0161054Y0132290D01*
X0161757Y0132993D01*
X0161757Y0137924D01*
X0161054Y0138627D01*
X0156123Y0138627D01*
X0155420Y0137924D01*
X0155420Y0137258D01*
X0154398Y0137258D01*
X0154375Y0137235D01*
X0153967Y0137643D01*
X0149430Y0137643D01*
X0148727Y0136940D01*
X0148727Y0134205D01*
X0148272Y0134205D01*
X0148272Y0136940D01*
X0147569Y0137643D01*
X0147101Y0137643D01*
X0147101Y0139967D01*
X0147865Y0139967D01*
X0148568Y0140670D01*
X0148568Y0144026D01*
X0148283Y0144311D01*
X0149968Y0145995D01*
X0149968Y0150512D01*
X0149382Y0151097D01*
X0148604Y0151875D01*
X0148644Y0151836D02*
X0165185Y0151836D01*
X0164766Y0153034D02*
X0154596Y0153034D01*
X0155143Y0156128D02*
X0158096Y0156128D01*
X0158096Y0159080D01*
X0158490Y0159474D01*
X0158490Y0162033D01*
X0160290Y0159027D02*
X0160725Y0159027D01*
X0160725Y0157828D02*
X0160477Y0157828D01*
X0160477Y0156630D02*
X0160725Y0156630D01*
X0160725Y0155431D02*
X0160477Y0155431D01*
X0160477Y0154233D02*
X0160890Y0154233D01*
X0164002Y0156127D02*
X0164002Y0156128D01*
X0166783Y0156128D01*
X0166783Y0156217D01*
X0169227Y0156217D01*
X0169227Y0156039D01*
X0166783Y0156039D01*
X0166783Y0156127D01*
X0164002Y0156127D01*
X0169228Y0156217D02*
X0169228Y0158661D01*
X0169228Y0161944D01*
X0169406Y0161944D01*
X0169406Y0156217D01*
X0169228Y0156217D01*
X0169228Y0156630D02*
X0169406Y0156630D01*
X0169406Y0157828D02*
X0169228Y0157828D01*
X0169228Y0159027D02*
X0169406Y0159027D01*
X0169406Y0160225D02*
X0169228Y0160225D01*
X0169228Y0161424D02*
X0169406Y0161424D01*
X0169227Y0161944D02*
X0163697Y0161944D01*
X0163697Y0162122D01*
X0166586Y0162122D01*
X0169227Y0162122D01*
X0169227Y0161944D01*
X0173844Y0165478D02*
X0174435Y0164887D01*
X0174435Y0162033D01*
X0174435Y0156128D01*
X0177013Y0156630D02*
X0181848Y0156630D01*
X0182238Y0157828D02*
X0177013Y0157828D01*
X0176382Y0159027D02*
X0182627Y0159027D01*
X0183016Y0160225D02*
X0177013Y0160225D01*
X0177013Y0161424D02*
X0183405Y0161424D01*
X0183794Y0162622D02*
X0177013Y0162622D01*
X0177013Y0163821D02*
X0184183Y0163821D01*
X0184572Y0165019D02*
X0176235Y0165019D01*
X0176225Y0166218D02*
X0184961Y0166218D01*
X0185353Y0167416D02*
X0176225Y0167416D01*
X0176225Y0168615D02*
X0185886Y0168615D01*
X0186418Y0169813D02*
X0176225Y0169813D01*
X0173844Y0167939D02*
X0173844Y0165478D01*
X0171298Y0171012D02*
X0186951Y0171012D01*
X0187484Y0172210D02*
X0167898Y0172210D01*
X0166699Y0173409D02*
X0188016Y0173409D01*
X0188549Y0174607D02*
X0166383Y0174607D01*
X0166383Y0175806D02*
X0189082Y0175806D01*
X0189614Y0177004D02*
X0166586Y0177004D01*
X0166586Y0178203D02*
X0190147Y0178203D01*
X0190680Y0179401D02*
X0166586Y0179401D01*
X0166586Y0180600D02*
X0191276Y0180600D01*
X0190997Y0180117D02*
X0190997Y0180117D01*
X0191966Y0181799D02*
X0165987Y0181799D01*
X0163697Y0181799D02*
X0163519Y0181799D01*
X0163519Y0180600D02*
X0163697Y0180600D01*
X0163697Y0179401D02*
X0163519Y0179401D01*
X0161229Y0181799D02*
X0156128Y0181799D01*
X0153667Y0181799D02*
X0149539Y0181799D01*
X0149332Y0182997D02*
X0153667Y0182997D01*
X0153667Y0184196D02*
X0149525Y0184196D01*
X0148846Y0185394D02*
X0194037Y0185394D01*
X0194727Y0186593D02*
X0146861Y0186593D01*
X0147024Y0187791D02*
X0162765Y0187791D01*
X0162202Y0188990D02*
X0147024Y0188990D01*
X0147024Y0190188D02*
X0162202Y0190188D01*
X0162202Y0191387D02*
X0146545Y0191387D01*
X0145357Y0192585D02*
X0162202Y0192585D01*
X0162202Y0193784D02*
X0144158Y0193784D01*
X0142960Y0194982D02*
X0162202Y0194982D01*
X0162202Y0196181D02*
X0141761Y0196181D01*
X0140563Y0197379D02*
X0162202Y0197379D01*
X0162202Y0198578D02*
X0139364Y0198578D01*
X0138166Y0199776D02*
X0162202Y0199776D01*
X0162202Y0200975D02*
X0136967Y0200975D01*
X0135769Y0202173D02*
X0162202Y0202173D01*
X0162202Y0203372D02*
X0134570Y0203372D01*
X0133372Y0204570D02*
X0162202Y0204570D01*
X0162202Y0205769D02*
X0132173Y0205769D01*
X0130975Y0206967D02*
X0162202Y0206967D01*
X0162202Y0208166D02*
X0129776Y0208166D01*
X0128578Y0209364D02*
X0162202Y0209364D01*
X0162202Y0210563D02*
X0127379Y0210563D01*
X0125005Y0211761D02*
X0162202Y0211761D01*
X0162202Y0212960D02*
X0125005Y0212960D01*
X0125005Y0214158D02*
X0162202Y0214158D01*
X0162202Y0215357D02*
X0125005Y0215357D01*
X0125005Y0216555D02*
X0162202Y0216555D01*
X0162202Y0217754D02*
X0125005Y0217754D01*
X0125005Y0218952D02*
X0162202Y0218952D01*
X0162202Y0220151D02*
X0125005Y0220151D01*
X0125005Y0221349D02*
X0162202Y0221349D01*
X0162202Y0222548D02*
X0125005Y0222548D01*
X0125005Y0223746D02*
X0162202Y0223746D01*
X0161044Y0224945D02*
X0125005Y0224945D01*
X0125508Y0228540D02*
X0126708Y0228540D01*
X0126708Y0229739D02*
X0125508Y0229739D01*
X0125508Y0230937D02*
X0126708Y0230937D01*
X0126708Y0232136D02*
X0125508Y0232136D01*
X0120571Y0234533D02*
X0048215Y0234533D01*
X0046155Y0235732D02*
X0120571Y0235732D01*
X0120571Y0236930D02*
X0044094Y0236930D01*
X0042034Y0238129D02*
X0121209Y0238129D01*
X0131006Y0238129D02*
X0158265Y0238129D01*
X0158265Y0236930D02*
X0131645Y0236930D01*
X0131645Y0235732D02*
X0158265Y0235732D01*
X0158265Y0234533D02*
X0131645Y0234533D01*
X0160065Y0234533D02*
X0160925Y0234533D01*
X0160925Y0233499D02*
X0165862Y0233499D01*
X0165862Y0232299D01*
X0160925Y0232299D01*
X0160925Y0228752D01*
X0161034Y0228345D01*
X0161245Y0227980D01*
X0161543Y0227682D01*
X0161908Y0227471D01*
X0162315Y0227362D01*
X0165862Y0227362D01*
X0165862Y0232299D01*
X0167062Y0232299D01*
X0167062Y0227362D01*
X0170610Y0227362D01*
X0171017Y0227471D01*
X0171382Y0227682D01*
X0171680Y0227980D01*
X0171890Y0228345D01*
X0171999Y0228752D01*
X0171999Y0232299D01*
X0167062Y0232299D01*
X0167062Y0233499D01*
X0171999Y0233499D01*
X0171999Y0237047D01*
X0171890Y0237454D01*
X0171680Y0237819D01*
X0171382Y0238117D01*
X0171256Y0238189D01*
X0174828Y0238189D01*
X0174828Y0229946D01*
X0178273Y0226502D01*
X0178273Y0211246D01*
X0180610Y0211246D01*
X0180610Y0209090D01*
X0184563Y0209090D01*
X0184563Y0207890D01*
X0180610Y0207890D01*
X0180610Y0205720D01*
X0180719Y0205313D01*
X0180930Y0204948D01*
X0181228Y0204650D01*
X0181593Y0204440D01*
X0182000Y0204331D01*
X0184563Y0204331D01*
X0184563Y0207890D01*
X0185763Y0207890D01*
X0185763Y0209090D01*
X0189716Y0209090D01*
X0189716Y0211246D01*
X0191561Y0211246D01*
X0191561Y0203864D01*
X0178273Y0203864D01*
X0178273Y0189100D01*
X0164002Y0189100D01*
X0164002Y0224533D01*
X0160065Y0228470D01*
X0160065Y0238189D01*
X0161668Y0238189D01*
X0161543Y0238117D01*
X0161245Y0237819D01*
X0161034Y0237454D01*
X0160925Y0237047D01*
X0160925Y0233499D01*
X0160065Y0233334D02*
X0165862Y0233334D01*
X0165862Y0232136D02*
X0167062Y0232136D01*
X0167062Y0233334D02*
X0174828Y0233334D01*
X0174828Y0232136D02*
X0171999Y0232136D01*
X0171999Y0230937D02*
X0174828Y0230937D01*
X0175036Y0229739D02*
X0171999Y0229739D01*
X0171943Y0228540D02*
X0176234Y0228540D01*
X0177433Y0227342D02*
X0161193Y0227342D01*
X0160982Y0228540D02*
X0160065Y0228540D01*
X0160065Y0229739D02*
X0160925Y0229739D01*
X0160925Y0230937D02*
X0160065Y0230937D01*
X0160065Y0232136D02*
X0160925Y0232136D01*
X0160925Y0235732D02*
X0160065Y0235732D01*
X0160065Y0236930D02*
X0160925Y0236930D01*
X0161564Y0238129D02*
X0160065Y0238129D01*
X0165862Y0230937D02*
X0167062Y0230937D01*
X0167062Y0229739D02*
X0165862Y0229739D01*
X0165862Y0228540D02*
X0167062Y0228540D01*
X0166586Y0226153D02*
X0166179Y0226044D01*
X0165814Y0225833D01*
X0165517Y0225535D01*
X0165306Y0225170D01*
X0165197Y0224763D01*
X0165197Y0208893D01*
X0170705Y0208893D01*
X0170705Y0226153D01*
X0166586Y0226153D01*
X0166551Y0226143D02*
X0162391Y0226143D01*
X0163590Y0224945D02*
X0165245Y0224945D01*
X0165197Y0223746D02*
X0164002Y0223746D01*
X0164002Y0222548D02*
X0165197Y0222548D01*
X0165197Y0221349D02*
X0164002Y0221349D01*
X0164002Y0220151D02*
X0165197Y0220151D01*
X0165197Y0218952D02*
X0164002Y0218952D01*
X0164002Y0217754D02*
X0165197Y0217754D01*
X0165197Y0216555D02*
X0164002Y0216555D01*
X0164002Y0215357D02*
X0165197Y0215357D01*
X0165197Y0214158D02*
X0164002Y0214158D01*
X0164002Y0212960D02*
X0165197Y0212960D01*
X0165197Y0211761D02*
X0164002Y0211761D01*
X0164002Y0210563D02*
X0165197Y0210563D01*
X0165197Y0209364D02*
X0164002Y0209364D01*
X0164002Y0208166D02*
X0170705Y0208166D01*
X0170705Y0207693D02*
X0165197Y0207693D01*
X0165197Y0191822D01*
X0165306Y0191415D01*
X0165517Y0191051D01*
X0165814Y0190753D01*
X0166179Y0190542D01*
X0166586Y0190433D01*
X0170705Y0190433D01*
X0170705Y0207693D01*
X0171905Y0207693D01*
X0171905Y0208893D01*
X0177413Y0208893D01*
X0177413Y0224763D01*
X0177304Y0225170D01*
X0177093Y0225535D01*
X0176795Y0225833D01*
X0176430Y0226044D01*
X0176023Y0226153D01*
X0171905Y0226153D01*
X0171905Y0208893D01*
X0170705Y0208893D01*
X0170705Y0207693D01*
X0170705Y0206967D02*
X0171905Y0206967D01*
X0171905Y0207693D02*
X0171905Y0190433D01*
X0176023Y0190433D01*
X0176430Y0190542D01*
X0176795Y0190753D01*
X0177093Y0191051D01*
X0177304Y0191415D01*
X0177413Y0191822D01*
X0177413Y0207693D01*
X0171905Y0207693D01*
X0171905Y0208166D02*
X0184563Y0208166D01*
X0184563Y0206967D02*
X0185763Y0206967D01*
X0185763Y0207890D02*
X0185763Y0204331D01*
X0188326Y0204331D01*
X0188733Y0204440D01*
X0189098Y0204650D01*
X0189396Y0204948D01*
X0189607Y0205313D01*
X0189716Y0205720D01*
X0189716Y0207890D01*
X0185763Y0207890D01*
X0185763Y0208166D02*
X0191561Y0208166D01*
X0191561Y0209364D02*
X0189716Y0209364D01*
X0189716Y0210563D02*
X0191561Y0210563D01*
X0193361Y0210563D02*
X0212483Y0210563D01*
X0213557Y0211761D02*
X0193361Y0211761D01*
X0192392Y0212960D02*
X0214632Y0212960D01*
X0215414Y0213831D02*
X0215414Y0213831D01*
X0215414Y0213831D01*
X0215775Y0214158D02*
X0189716Y0214158D01*
X0189716Y0215357D02*
X0217100Y0215357D01*
X0218425Y0216555D02*
X0185763Y0216555D01*
X0185763Y0217754D02*
X0184563Y0217754D01*
X0184563Y0216570D02*
X0184563Y0220129D01*
X0182000Y0220129D01*
X0181593Y0220020D01*
X0181228Y0219809D01*
X0180930Y0219512D01*
X0180719Y0219147D01*
X0180610Y0218740D01*
X0180610Y0216570D01*
X0184563Y0216570D01*
X0184563Y0216555D02*
X0180073Y0216555D01*
X0180073Y0215357D02*
X0180610Y0215357D01*
X0180610Y0214158D02*
X0180073Y0214158D01*
X0178273Y0214158D02*
X0177413Y0214158D01*
X0177413Y0212960D02*
X0178273Y0212960D01*
X0178273Y0211761D02*
X0177413Y0211761D01*
X0177413Y0210563D02*
X0180610Y0210563D01*
X0180610Y0209364D02*
X0177413Y0209364D01*
X0177413Y0206967D02*
X0180610Y0206967D01*
X0180610Y0205769D02*
X0177413Y0205769D01*
X0177413Y0204570D02*
X0181367Y0204570D01*
X0184563Y0204570D02*
X0185763Y0204570D01*
X0185763Y0205769D02*
X0184563Y0205769D01*
X0188959Y0204570D02*
X0191561Y0204570D01*
X0191561Y0205769D02*
X0189716Y0205769D01*
X0189716Y0206967D02*
X0191561Y0206967D01*
X0193361Y0206967D02*
X0209258Y0206967D01*
X0208183Y0205769D02*
X0193361Y0205769D01*
X0193361Y0204570D02*
X0207108Y0204570D01*
X0206049Y0203372D02*
X0193361Y0203372D01*
X0192416Y0202173D02*
X0205181Y0202173D01*
X0204313Y0200975D02*
X0193253Y0200975D01*
X0192546Y0201243D02*
X0195473Y0200133D01*
X0195473Y0200133D01*
X0197549Y0197789D01*
X0197549Y0197789D01*
X0198298Y0194750D01*
X0197549Y0191710D01*
X0195473Y0189367D01*
X0195473Y0189367D01*
X0195473Y0189367D01*
X0192546Y0188256D01*
X0192546Y0188256D01*
X0189438Y0188634D01*
X0189438Y0188634D01*
X0186862Y0190412D01*
X0186862Y0190412D01*
X0186862Y0190412D01*
X0185407Y0193184D01*
X0185407Y0196315D01*
X0186862Y0199087D01*
X0186862Y0199087D01*
X0189438Y0200865D01*
X0189438Y0200865D01*
X0192546Y0201243D01*
X0192546Y0201243D01*
X0190337Y0200975D02*
X0180073Y0200975D01*
X0180073Y0199776D02*
X0187860Y0199776D01*
X0186862Y0199087D02*
X0186862Y0199087D01*
X0186594Y0198578D02*
X0180073Y0198578D01*
X0180073Y0197379D02*
X0185965Y0197379D01*
X0185407Y0196181D02*
X0180073Y0196181D01*
X0180073Y0194982D02*
X0185407Y0194982D01*
X0185407Y0193784D02*
X0180073Y0193784D01*
X0180073Y0192585D02*
X0185721Y0192585D01*
X0186350Y0191387D02*
X0180073Y0191387D01*
X0180073Y0190188D02*
X0187186Y0190188D01*
X0188922Y0188990D02*
X0180073Y0188990D01*
X0179510Y0187791D02*
X0195417Y0187791D01*
X0196107Y0188990D02*
X0194479Y0188990D01*
X0196201Y0190188D02*
X0196797Y0190188D01*
X0197263Y0191387D02*
X0197488Y0191387D01*
X0197549Y0191710D02*
X0197549Y0191710D01*
X0197765Y0192585D02*
X0198237Y0192585D01*
X0198060Y0193784D02*
X0199105Y0193784D01*
X0198241Y0194982D02*
X0199973Y0194982D01*
X0200841Y0196181D02*
X0197946Y0196181D01*
X0197650Y0197379D02*
X0201709Y0197379D01*
X0202577Y0198578D02*
X0196851Y0198578D01*
X0195789Y0199776D02*
X0203445Y0199776D01*
X0210333Y0208166D02*
X0193361Y0208166D01*
X0193361Y0209364D02*
X0211408Y0209364D01*
X0219750Y0217754D02*
X0189716Y0217754D01*
X0189659Y0218952D02*
X0221074Y0218952D01*
X0222399Y0220151D02*
X0180073Y0220151D01*
X0180073Y0221349D02*
X0223724Y0221349D01*
X0225049Y0222548D02*
X0180073Y0222548D01*
X0180073Y0223746D02*
X0226524Y0223746D01*
X0228164Y0224945D02*
X0180073Y0224945D01*
X0180073Y0226143D02*
X0229804Y0226143D01*
X0231444Y0227342D02*
X0179978Y0227342D01*
X0178780Y0228540D02*
X0233084Y0228540D01*
X0234724Y0229739D02*
X0177581Y0229739D01*
X0176628Y0230937D02*
X0236364Y0230937D01*
X0236984Y0231391D02*
X0236984Y0231391D01*
X0238265Y0232136D02*
X0176628Y0232136D01*
X0176628Y0233334D02*
X0240326Y0233334D01*
X0242386Y0234533D02*
X0176628Y0234533D01*
X0176628Y0235732D02*
X0244447Y0235732D01*
X0246507Y0236930D02*
X0176628Y0236930D01*
X0176628Y0238129D02*
X0248568Y0238129D01*
X0185763Y0218952D02*
X0184563Y0218952D01*
X0180667Y0218952D02*
X0180073Y0218952D01*
X0180073Y0217754D02*
X0180610Y0217754D01*
X0178273Y0217754D02*
X0177413Y0217754D01*
X0177413Y0218952D02*
X0178273Y0218952D01*
X0178273Y0220151D02*
X0177413Y0220151D01*
X0177413Y0221349D02*
X0178273Y0221349D01*
X0178273Y0222548D02*
X0177413Y0222548D01*
X0177413Y0223746D02*
X0178273Y0223746D01*
X0178273Y0224945D02*
X0177364Y0224945D01*
X0178273Y0226143D02*
X0176058Y0226143D01*
X0171905Y0226143D02*
X0170705Y0226143D01*
X0170705Y0224945D02*
X0171905Y0224945D01*
X0171905Y0223746D02*
X0170705Y0223746D01*
X0170705Y0222548D02*
X0171905Y0222548D01*
X0171905Y0221349D02*
X0170705Y0221349D01*
X0170705Y0220151D02*
X0171905Y0220151D01*
X0171905Y0218952D02*
X0170705Y0218952D01*
X0170705Y0217754D02*
X0171905Y0217754D01*
X0171905Y0216555D02*
X0170705Y0216555D01*
X0170705Y0215357D02*
X0171905Y0215357D01*
X0171905Y0214158D02*
X0170705Y0214158D01*
X0170705Y0212960D02*
X0171905Y0212960D01*
X0171905Y0211761D02*
X0170705Y0211761D01*
X0170705Y0210563D02*
X0171905Y0210563D01*
X0171905Y0209364D02*
X0170705Y0209364D01*
X0170705Y0205769D02*
X0171905Y0205769D01*
X0171905Y0204570D02*
X0170705Y0204570D01*
X0170705Y0203372D02*
X0171905Y0203372D01*
X0171905Y0202173D02*
X0170705Y0202173D01*
X0170705Y0200975D02*
X0171905Y0200975D01*
X0171905Y0199776D02*
X0170705Y0199776D01*
X0170705Y0198578D02*
X0171905Y0198578D01*
X0171905Y0197379D02*
X0170705Y0197379D01*
X0170705Y0196181D02*
X0171905Y0196181D01*
X0171905Y0194982D02*
X0170705Y0194982D01*
X0170705Y0193784D02*
X0171905Y0193784D01*
X0171905Y0192585D02*
X0170705Y0192585D01*
X0170705Y0191387D02*
X0171905Y0191387D01*
X0177287Y0191387D02*
X0178273Y0191387D01*
X0178273Y0192585D02*
X0177413Y0192585D01*
X0177413Y0193784D02*
X0178273Y0193784D01*
X0178273Y0194982D02*
X0177413Y0194982D01*
X0177413Y0196181D02*
X0178273Y0196181D01*
X0178273Y0197379D02*
X0177413Y0197379D01*
X0177413Y0198578D02*
X0178273Y0198578D01*
X0178273Y0199776D02*
X0177413Y0199776D01*
X0177413Y0200975D02*
X0178273Y0200975D01*
X0178273Y0202173D02*
X0177413Y0202173D01*
X0177413Y0203372D02*
X0178273Y0203372D01*
X0165197Y0203372D02*
X0164002Y0203372D01*
X0164002Y0204570D02*
X0165197Y0204570D01*
X0165197Y0205769D02*
X0164002Y0205769D01*
X0164002Y0206967D02*
X0165197Y0206967D01*
X0165197Y0202173D02*
X0164002Y0202173D01*
X0164002Y0200975D02*
X0165197Y0200975D01*
X0165197Y0199776D02*
X0164002Y0199776D01*
X0164002Y0198578D02*
X0165197Y0198578D01*
X0165197Y0197379D02*
X0164002Y0197379D01*
X0164002Y0196181D02*
X0165197Y0196181D01*
X0165197Y0194982D02*
X0164002Y0194982D01*
X0164002Y0193784D02*
X0165197Y0193784D01*
X0165197Y0192585D02*
X0164002Y0192585D01*
X0164002Y0191387D02*
X0165323Y0191387D01*
X0164002Y0190188D02*
X0178273Y0190188D01*
X0156362Y0171125D02*
X0156129Y0170991D01*
X0155831Y0170693D01*
X0155621Y0170328D01*
X0155512Y0169921D01*
X0155512Y0168028D01*
X0158401Y0168028D01*
X0158401Y0167850D01*
X0155512Y0167850D01*
X0155512Y0166586D01*
X0155314Y0166586D01*
X0153791Y0168109D01*
X0153791Y0171554D01*
X0153469Y0171876D01*
X0155715Y0171876D01*
X0155715Y0171772D01*
X0156362Y0171125D01*
X0156166Y0171012D02*
X0153791Y0171012D01*
X0153791Y0169813D02*
X0155512Y0169813D01*
X0155512Y0168615D02*
X0153791Y0168615D01*
X0154483Y0167416D02*
X0155512Y0167416D01*
X0145684Y0167416D02*
X0144484Y0167416D01*
X0144484Y0166218D02*
X0145684Y0166218D01*
X0145684Y0162622D02*
X0144484Y0162622D01*
X0144484Y0161424D02*
X0145684Y0161424D01*
X0145684Y0160225D02*
X0144484Y0160225D01*
X0145084Y0159755D02*
X0145084Y0156462D01*
X0145084Y0156462D01*
X0145084Y0153169D01*
X0144342Y0153169D01*
X0143906Y0153286D01*
X0143535Y0153501D01*
X0143535Y0153267D01*
X0144767Y0152035D01*
X0146571Y0152035D01*
X0145969Y0152636D01*
X0145969Y0153208D01*
X0145826Y0153169D01*
X0145084Y0153169D01*
X0145084Y0156462D01*
X0145084Y0156462D01*
X0145084Y0159755D01*
X0145084Y0159027D02*
X0145084Y0159027D01*
X0145084Y0157828D02*
X0145084Y0157828D01*
X0145084Y0156630D02*
X0145084Y0156630D01*
X0145084Y0155431D02*
X0145084Y0155431D01*
X0145084Y0154233D02*
X0145084Y0154233D01*
X0145969Y0153034D02*
X0143767Y0153034D01*
X0141639Y0150637D02*
X0139120Y0150637D01*
X0138921Y0150438D02*
X0140380Y0151896D01*
X0141838Y0150438D01*
X0138921Y0150438D01*
X0140319Y0151836D02*
X0140440Y0151836D01*
X0136992Y0153034D02*
X0109796Y0153034D01*
X0110051Y0151836D02*
X0135793Y0151836D01*
X0134595Y0150637D02*
X0110306Y0150637D01*
X0110561Y0149439D02*
X0120318Y0149439D01*
X0121187Y0147761D02*
X0119710Y0146285D01*
X0121187Y0147761D02*
X0125025Y0147761D01*
X0125124Y0147860D01*
X0125222Y0147761D01*
X0127092Y0147761D01*
X0127584Y0148254D01*
X0130045Y0148254D01*
X0132820Y0149439D02*
X0133396Y0149439D01*
X0136443Y0146285D02*
X0138017Y0147860D01*
X0140872Y0147860D01*
X0140970Y0147761D01*
X0142840Y0147761D01*
X0143332Y0148254D01*
X0145793Y0148254D01*
X0149968Y0148240D02*
X0179786Y0148240D01*
X0179531Y0147042D02*
X0149968Y0147042D01*
X0149815Y0145843D02*
X0179276Y0145843D01*
X0179021Y0144645D02*
X0148617Y0144645D01*
X0148568Y0143446D02*
X0178766Y0143446D01*
X0178511Y0142248D02*
X0148568Y0142248D01*
X0148568Y0141049D02*
X0178256Y0141049D01*
X0178144Y0140524D02*
X0178144Y0140524D01*
X0178073Y0139851D02*
X0147101Y0139851D01*
X0147101Y0138652D02*
X0177946Y0138652D01*
X0177820Y0137454D02*
X0161757Y0137454D01*
X0161757Y0136255D02*
X0177693Y0136255D01*
X0177566Y0135057D02*
X0161757Y0135057D01*
X0161757Y0133858D02*
X0177440Y0133858D01*
X0177313Y0132660D02*
X0161424Y0132660D01*
X0158588Y0135458D02*
X0155143Y0135458D01*
X0154750Y0135065D01*
X0151698Y0135065D01*
X0148727Y0135057D02*
X0148272Y0135057D01*
X0148272Y0136255D02*
X0148727Y0136255D01*
X0149241Y0137454D02*
X0147758Y0137454D01*
X0145301Y0135065D02*
X0145301Y0141856D01*
X0145793Y0142348D01*
X0143332Y0142348D01*
X0142840Y0142840D01*
X0140970Y0142840D01*
X0140872Y0142742D01*
X0139563Y0140164D02*
X0139199Y0139800D01*
X0139199Y0139722D01*
X0139116Y0139805D01*
X0137082Y0139805D01*
X0137001Y0139886D01*
X0136636Y0140096D01*
X0136230Y0140205D01*
X0135319Y0140205D01*
X0135319Y0136306D01*
X0135319Y0136306D01*
X0135319Y0140205D01*
X0134408Y0140205D01*
X0134001Y0140096D01*
X0133636Y0139886D01*
X0133339Y0139588D01*
X0133128Y0139223D01*
X0133019Y0138816D01*
X0133019Y0136306D01*
X0135319Y0136306D01*
X0135319Y0136305D01*
X0133019Y0136305D01*
X0133019Y0134332D01*
X0132692Y0134005D01*
X0132524Y0134005D01*
X0132524Y0136940D01*
X0131821Y0137643D01*
X0131353Y0137643D01*
X0131353Y0139967D01*
X0132117Y0139967D01*
X0132820Y0140670D01*
X0132820Y0140748D01*
X0133168Y0140748D01*
X0134105Y0141685D01*
X0135090Y0142670D01*
X0135090Y0144577D01*
X0135546Y0144120D01*
X0137339Y0144120D01*
X0138552Y0145333D01*
X0138584Y0145301D01*
X0137900Y0144617D01*
X0137900Y0140867D01*
X0138603Y0140164D01*
X0139563Y0140164D01*
X0139250Y0139851D02*
X0137037Y0139851D01*
X0137900Y0141049D02*
X0133469Y0141049D01*
X0133601Y0139851D02*
X0131353Y0139851D01*
X0131353Y0138652D02*
X0133019Y0138652D01*
X0133019Y0137454D02*
X0132010Y0137454D01*
X0132524Y0136255D02*
X0133019Y0136255D01*
X0133019Y0135057D02*
X0132524Y0135057D01*
X0129553Y0135065D02*
X0129553Y0141856D01*
X0130045Y0142348D01*
X0127584Y0142348D01*
X0127191Y0142742D01*
X0125124Y0142742D01*
X0122152Y0142248D02*
X0112091Y0142248D01*
X0111836Y0143446D02*
X0122152Y0143446D01*
X0122180Y0144645D02*
X0121131Y0144645D01*
X0121875Y0145843D02*
X0122294Y0145843D01*
X0118289Y0144645D02*
X0111581Y0144645D01*
X0111326Y0145843D02*
X0117546Y0145843D01*
X0117546Y0147042D02*
X0111071Y0147042D01*
X0110816Y0148240D02*
X0118604Y0148240D01*
X0122152Y0141049D02*
X0112346Y0141049D01*
X0112529Y0139851D02*
X0117853Y0139851D01*
X0117271Y0138652D02*
X0112655Y0138652D01*
X0112782Y0137454D02*
X0117271Y0137454D01*
X0117271Y0136255D02*
X0112909Y0136255D01*
X0113035Y0135057D02*
X0116247Y0135057D01*
X0115049Y0133858D02*
X0113162Y0133858D01*
X0113289Y0132660D02*
X0115047Y0132660D01*
X0115649Y0131461D02*
X0113415Y0131461D01*
X0113542Y0130263D02*
X0117364Y0130263D01*
X0117671Y0129064D02*
X0113669Y0129064D01*
X0113795Y0127866D02*
X0117671Y0127866D01*
X0117671Y0126667D02*
X0113921Y0126667D01*
X0113923Y0125468D02*
X0118111Y0125468D01*
X0119879Y0124270D02*
X0113924Y0124270D01*
X0113925Y0123071D02*
X0119879Y0123071D01*
X0119879Y0121873D02*
X0113926Y0121873D01*
X0113927Y0120674D02*
X0119879Y0120674D01*
X0119879Y0119476D02*
X0113929Y0119476D01*
X0113924Y0118277D02*
X0119879Y0118277D01*
X0121679Y0115773D02*
X0121679Y0124139D01*
X0122663Y0125124D01*
X0123509Y0123424D02*
X0123479Y0123394D01*
X0123479Y0115028D01*
X0122424Y0113973D01*
X0122424Y0113973D01*
X0121440Y0112989D01*
X0120418Y0112989D01*
X0120418Y0112323D01*
X0119931Y0111836D01*
X0120418Y0111349D01*
X0120418Y0110683D01*
X0145441Y0110683D01*
X0149022Y0114264D01*
X0149022Y0117550D01*
X0149472Y0118000D01*
X0149240Y0118135D01*
X0148942Y0118433D01*
X0148731Y0118797D01*
X0148622Y0119204D01*
X0148622Y0121196D01*
X0151806Y0121196D01*
X0151806Y0121965D01*
X0148622Y0121965D01*
X0148622Y0123324D01*
X0139180Y0123324D01*
X0138815Y0122959D01*
X0138300Y0122959D01*
X0137680Y0122339D01*
X0125854Y0122339D01*
X0124800Y0123394D01*
X0124770Y0123424D01*
X0123509Y0123424D01*
X0123479Y0123071D02*
X0125122Y0123071D01*
X0126600Y0124139D02*
X0136935Y0124139D01*
X0137919Y0125124D01*
X0139887Y0125124D01*
X0140519Y0125755D01*
X0141150Y0125124D01*
X0151206Y0125124D01*
X0151698Y0125616D01*
X0151698Y0129946D01*
X0148727Y0130263D02*
X0148672Y0130263D01*
X0148672Y0130035D02*
X0148672Y0130806D01*
X0148727Y0130806D01*
X0148727Y0128071D01*
X0149430Y0127369D01*
X0149898Y0127369D01*
X0149898Y0126924D01*
X0142419Y0126924D01*
X0142419Y0127416D01*
X0142547Y0127288D01*
X0142912Y0127078D01*
X0143318Y0126969D01*
X0145212Y0126968D01*
X0145212Y0129857D01*
X0145390Y0129857D01*
X0145390Y0126968D01*
X0147283Y0126969D01*
X0147690Y0127078D01*
X0148055Y0127288D01*
X0148353Y0127586D01*
X0148563Y0127951D01*
X0148672Y0128358D01*
X0148672Y0129857D01*
X0145390Y0129857D01*
X0145390Y0130035D01*
X0148672Y0130035D01*
X0148672Y0129064D02*
X0148727Y0129064D01*
X0148933Y0127866D02*
X0148514Y0127866D01*
X0145390Y0127866D02*
X0145212Y0127866D01*
X0145212Y0129064D02*
X0145390Y0129064D01*
X0140519Y0128706D02*
X0140519Y0125755D01*
X0138928Y0123071D02*
X0148622Y0123071D01*
X0148622Y0120674D02*
X0123479Y0120674D01*
X0123479Y0119476D02*
X0148622Y0119476D01*
X0149097Y0118277D02*
X0123479Y0118277D01*
X0123479Y0117079D02*
X0149022Y0117079D01*
X0149022Y0115880D02*
X0123479Y0115880D01*
X0123133Y0114682D02*
X0149022Y0114682D01*
X0148241Y0113483D02*
X0121934Y0113483D01*
X0120694Y0114789D02*
X0121679Y0115773D01*
X0120694Y0114789D02*
X0117250Y0114789D01*
X0114081Y0114682D02*
X0113912Y0114682D01*
X0113916Y0115880D02*
X0114081Y0115880D01*
X0114081Y0117079D02*
X0113920Y0117079D01*
X0113908Y0113483D02*
X0114081Y0113483D01*
X0113907Y0113200D02*
X0113907Y0113200D01*
X0113815Y0112285D02*
X0114120Y0112285D01*
X0114081Y0111086D02*
X0113694Y0111086D01*
X0113573Y0109888D02*
X0114081Y0109888D01*
X0114081Y0108689D02*
X0113451Y0108689D01*
X0117250Y0108883D02*
X0146187Y0108883D01*
X0152191Y0114887D01*
X0158490Y0114887D01*
X0158588Y0114986D01*
X0155912Y0116687D02*
X0155359Y0116687D01*
X0155359Y0117550D01*
X0154909Y0118000D01*
X0155141Y0118135D01*
X0155439Y0118433D01*
X0155650Y0118797D01*
X0155759Y0119204D01*
X0155759Y0119514D01*
X0155912Y0119514D01*
X0155912Y0119489D01*
X0156615Y0118786D01*
X0160562Y0118786D01*
X0160766Y0118990D01*
X0161051Y0118706D01*
X0161415Y0118495D01*
X0161822Y0118386D01*
X0163371Y0118386D01*
X0163371Y0121344D01*
X0163648Y0121344D01*
X0163648Y0121620D01*
X0166586Y0121620D01*
X0166586Y0123189D01*
X0166477Y0123596D01*
X0166266Y0123960D01*
X0165968Y0124258D01*
X0165603Y0124469D01*
X0165196Y0124578D01*
X0163648Y0124578D01*
X0163648Y0121620D01*
X0163371Y0121620D01*
X0163371Y0124578D01*
X0161822Y0124578D01*
X0161415Y0124469D01*
X0161051Y0124258D01*
X0160766Y0123974D01*
X0160562Y0124178D01*
X0156615Y0124178D01*
X0156280Y0123843D01*
X0155759Y0123843D01*
X0155759Y0123956D01*
X0155650Y0124363D01*
X0155439Y0124728D01*
X0155141Y0125026D01*
X0154777Y0125237D01*
X0154370Y0125346D01*
X0153498Y0125346D01*
X0153498Y0127369D01*
X0153967Y0127369D01*
X0154670Y0128071D01*
X0154670Y0128246D01*
X0172730Y0128246D01*
X0174193Y0126783D01*
X0173730Y0126320D01*
X0173730Y0126283D01*
X0173705Y0126255D01*
X0173730Y0125584D01*
X0173730Y0124912D01*
X0173757Y0124885D01*
X0173868Y0121934D01*
X0170916Y0121934D01*
X0170891Y0121909D01*
X0170867Y0121934D01*
X0167373Y0121934D01*
X0166670Y0121231D01*
X0166670Y0120034D01*
X0166586Y0120034D01*
X0166586Y0121344D01*
X0163648Y0121344D01*
X0163648Y0118386D01*
X0164662Y0118386D01*
X0164662Y0117682D01*
X0161536Y0117682D01*
X0161049Y0117195D01*
X0160562Y0117682D01*
X0156615Y0117682D01*
X0155912Y0116979D01*
X0155912Y0116687D01*
X0156012Y0117079D02*
X0155359Y0117079D01*
X0155284Y0118277D02*
X0164662Y0118277D01*
X0163648Y0119476D02*
X0163371Y0119476D01*
X0163371Y0120674D02*
X0163648Y0120674D01*
X0163648Y0121873D02*
X0163371Y0121873D01*
X0163371Y0123071D02*
X0163648Y0123071D01*
X0163648Y0124270D02*
X0163371Y0124270D01*
X0161071Y0124270D02*
X0155675Y0124270D01*
X0153498Y0125468D02*
X0173730Y0125468D01*
X0173780Y0124270D02*
X0165948Y0124270D01*
X0166586Y0123071D02*
X0173825Y0123071D01*
X0169120Y0118234D02*
X0166954Y0118234D01*
X0166462Y0117742D01*
X0166462Y0115773D01*
X0165675Y0114986D01*
X0163509Y0114986D01*
X0166186Y0113186D02*
X0166420Y0113186D01*
X0167208Y0113973D01*
X0167768Y0114534D01*
X0170203Y0114534D01*
X0170203Y0113400D01*
X0171471Y0112132D01*
X0173264Y0112132D01*
X0174279Y0113147D01*
X0175217Y0104678D01*
X0166973Y0104678D01*
X0166973Y0104755D01*
X0166289Y0105439D01*
X0166585Y0105735D01*
X0168234Y0105735D01*
X0169502Y0107003D01*
X0169502Y0108796D01*
X0168234Y0110064D01*
X0168173Y0110064D01*
X0168173Y0110370D01*
X0167646Y0110897D01*
X0166767Y0111776D01*
X0165691Y0111776D01*
X0165607Y0111860D01*
X0154994Y0111860D01*
X0155359Y0112225D01*
X0155359Y0113087D01*
X0155912Y0113087D01*
X0155912Y0112993D01*
X0156615Y0112290D01*
X0160562Y0112290D01*
X0161049Y0112777D01*
X0161536Y0112290D01*
X0165483Y0112290D01*
X0166186Y0112993D01*
X0166186Y0113186D01*
X0166718Y0113483D02*
X0170203Y0113483D01*
X0171319Y0112285D02*
X0155359Y0112285D01*
X0155759Y0119476D02*
X0155925Y0119476D01*
X0151806Y0121873D02*
X0123479Y0121873D01*
X0126600Y0124139D02*
X0125616Y0125124D01*
X0124771Y0125969D01*
X0124771Y0128706D01*
X0126671Y0127416D02*
X0126799Y0127288D01*
X0127164Y0127078D01*
X0127570Y0126969D01*
X0129464Y0126968D01*
X0129464Y0129857D01*
X0129642Y0129857D01*
X0129642Y0126968D01*
X0131535Y0126969D01*
X0131942Y0127078D01*
X0132307Y0127288D01*
X0132605Y0127586D01*
X0132815Y0127951D01*
X0132924Y0128358D01*
X0132924Y0129518D01*
X0133419Y0129023D01*
X0133419Y0125939D01*
X0127346Y0125939D01*
X0126671Y0126614D01*
X0126671Y0127416D01*
X0126671Y0126667D02*
X0133419Y0126667D01*
X0133419Y0127866D02*
X0132766Y0127866D01*
X0132924Y0129064D02*
X0133378Y0129064D01*
X0135319Y0128706D02*
X0135319Y0130184D01*
X0134474Y0131029D01*
X0137919Y0133490D02*
X0138411Y0132998D01*
X0137919Y0133490D02*
X0137919Y0136306D01*
X0135319Y0137454D02*
X0135319Y0137454D01*
X0135319Y0138652D02*
X0135319Y0138652D01*
X0135319Y0139851D02*
X0135319Y0139851D01*
X0134668Y0142248D02*
X0137900Y0142248D01*
X0137900Y0143446D02*
X0135090Y0143446D01*
X0137863Y0144645D02*
X0137928Y0144645D01*
X0137061Y0154233D02*
X0109531Y0154233D01*
X0109142Y0155431D02*
X0136955Y0155431D01*
X0136955Y0156630D02*
X0108753Y0156630D01*
X0108364Y0157828D02*
X0136955Y0157828D01*
X0137396Y0159027D02*
X0107975Y0159027D01*
X0107586Y0160225D02*
X0137579Y0160225D01*
X0137579Y0161424D02*
X0107197Y0161424D01*
X0106808Y0162622D02*
X0137579Y0162622D01*
X0149842Y0150637D02*
X0180296Y0150637D01*
X0180041Y0149439D02*
X0149968Y0149439D01*
X0154156Y0137454D02*
X0155420Y0137454D01*
X0155753Y0132660D02*
X0154140Y0132660D01*
X0154464Y0127866D02*
X0173111Y0127866D01*
X0174077Y0126667D02*
X0153498Y0126667D01*
X0166586Y0121873D02*
X0167312Y0121873D01*
X0166670Y0120674D02*
X0166586Y0120674D01*
X0167457Y0111086D02*
X0174507Y0111086D01*
X0174640Y0109888D02*
X0168410Y0109888D01*
X0169502Y0108689D02*
X0174773Y0108689D01*
X0174906Y0107491D02*
X0169502Y0107491D01*
X0168792Y0106292D02*
X0175038Y0106292D01*
X0175171Y0105094D02*
X0166634Y0105094D01*
X0166973Y0101278D02*
X0175716Y0101278D01*
X0177360Y0092402D01*
X0177324Y0092341D01*
X0177486Y0091719D01*
X0177603Y0091088D01*
X0177662Y0091047D01*
X0178460Y0087996D01*
X0178399Y0088032D01*
X0177992Y0088141D01*
X0176492Y0088141D01*
X0176492Y0084858D01*
X0176314Y0084858D01*
X0176314Y0088141D01*
X0174815Y0088141D01*
X0174408Y0088032D01*
X0174043Y0087821D01*
X0173745Y0087523D01*
X0173610Y0087291D01*
X0173160Y0087741D01*
X0169410Y0087741D01*
X0168707Y0087038D01*
X0168707Y0086269D01*
X0164178Y0086269D01*
X0165298Y0087389D01*
X0168637Y0087389D01*
X0169165Y0087916D01*
X0169247Y0087998D01*
X0173652Y0087998D01*
X0174355Y0088701D01*
X0174355Y0092451D01*
X0173905Y0092902D01*
X0174138Y0093036D01*
X0174435Y0093334D01*
X0174646Y0093699D01*
X0174755Y0094106D01*
X0174755Y0095605D01*
X0171473Y0095605D01*
X0171473Y0095783D01*
X0174755Y0095783D01*
X0174755Y0097283D01*
X0174646Y0097690D01*
X0174435Y0098055D01*
X0174138Y0098353D01*
X0173773Y0098563D01*
X0173366Y0098672D01*
X0171472Y0098672D01*
X0171472Y0095784D01*
X0171294Y0095784D01*
X0171294Y0098672D01*
X0169401Y0098672D01*
X0168994Y0098563D01*
X0168629Y0098353D01*
X0168331Y0098055D01*
X0168121Y0097690D01*
X0168119Y0097682D01*
X0164193Y0097682D01*
X0163509Y0096998D01*
X0162825Y0097682D01*
X0158879Y0097682D01*
X0158508Y0097311D01*
X0158406Y0097690D01*
X0158195Y0098055D01*
X0157897Y0098353D01*
X0157533Y0098563D01*
X0157126Y0098672D01*
X0155232Y0098672D01*
X0155232Y0095784D01*
X0155054Y0095784D01*
X0155054Y0098672D01*
X0153161Y0098672D01*
X0152754Y0098563D01*
X0152389Y0098353D01*
X0152091Y0098055D01*
X0151881Y0097690D01*
X0151772Y0097283D01*
X0151772Y0095783D01*
X0155054Y0095783D01*
X0155054Y0095605D01*
X0151772Y0095605D01*
X0151772Y0094106D01*
X0151881Y0093699D01*
X0152091Y0093334D01*
X0152389Y0093036D01*
X0152622Y0092902D01*
X0152560Y0092839D01*
X0151786Y0092839D01*
X0150518Y0091571D01*
X0150518Y0090379D01*
X0150396Y0090379D01*
X0150396Y0096384D01*
X0150457Y0096384D01*
X0151725Y0097652D01*
X0151725Y0099445D01*
X0151269Y0099902D01*
X0152102Y0099902D01*
X0152102Y0102790D01*
X0152280Y0102790D01*
X0152280Y0099902D01*
X0154173Y0099902D01*
X0154580Y0100011D01*
X0154945Y0100221D01*
X0155143Y0100420D01*
X0155342Y0100221D01*
X0155707Y0100011D01*
X0156114Y0099902D01*
X0158007Y0099902D01*
X0158007Y0102790D01*
X0158185Y0102790D01*
X0158185Y0099902D01*
X0160078Y0099902D01*
X0160485Y0100011D01*
X0160850Y0100221D01*
X0161148Y0100519D01*
X0161282Y0100752D01*
X0161733Y0100302D01*
X0166270Y0100302D01*
X0166973Y0101005D01*
X0166973Y0101278D01*
X0168244Y0097903D02*
X0158283Y0097903D01*
X0158185Y0100300D02*
X0158007Y0100300D01*
X0158007Y0101498D02*
X0158185Y0101498D01*
X0158185Y0102697D02*
X0158007Y0102697D01*
X0158007Y0102791D02*
X0154724Y0102791D01*
X0152280Y0102791D01*
X0152280Y0102969D01*
X0158007Y0102969D01*
X0158007Y0102791D01*
X0155263Y0100300D02*
X0155023Y0100300D01*
X0155054Y0097903D02*
X0155232Y0097903D01*
X0155232Y0096704D02*
X0155054Y0096704D01*
X0152004Y0097903D02*
X0151725Y0097903D01*
X0151725Y0099101D02*
X0176119Y0099101D01*
X0176341Y0097903D02*
X0174523Y0097903D01*
X0174755Y0096704D02*
X0176563Y0096704D01*
X0176785Y0095506D02*
X0174755Y0095506D01*
X0174755Y0094307D02*
X0177007Y0094307D01*
X0177229Y0093109D02*
X0174210Y0093109D01*
X0174355Y0091910D02*
X0177436Y0091910D01*
X0177750Y0090712D02*
X0174355Y0090712D01*
X0174355Y0089513D02*
X0178063Y0089513D01*
X0178377Y0088315D02*
X0173968Y0088315D01*
X0176314Y0087116D02*
X0176492Y0087116D01*
X0176492Y0085918D02*
X0176314Y0085918D01*
X0176314Y0084680D02*
X0176492Y0084680D01*
X0176492Y0081398D01*
X0177992Y0081398D01*
X0178399Y0081507D01*
X0178764Y0081717D01*
X0179061Y0082015D01*
X0179272Y0082380D01*
X0179381Y0082787D01*
X0179381Y0084476D01*
X0180192Y0081375D01*
X0180161Y0081311D01*
X0180368Y0080703D01*
X0180531Y0080081D01*
X0180592Y0080045D01*
X0181159Y0078384D01*
X0181155Y0078386D01*
X0180748Y0078495D01*
X0178854Y0078495D01*
X0178854Y0075606D01*
X0178676Y0075606D01*
X0178676Y0075428D01*
X0175394Y0075428D01*
X0175394Y0073929D01*
X0175503Y0073522D01*
X0175588Y0073374D01*
X0171788Y0073374D01*
X0171383Y0072970D01*
X0170979Y0073374D01*
X0167671Y0073374D01*
X0167756Y0073522D01*
X0167865Y0073929D01*
X0167865Y0075428D01*
X0164583Y0075428D01*
X0164583Y0075606D01*
X0167865Y0075606D01*
X0167865Y0077106D01*
X0167756Y0077513D01*
X0167546Y0077878D01*
X0167248Y0078176D01*
X0166883Y0078386D01*
X0166476Y0078495D01*
X0164669Y0078495D01*
X0165165Y0078991D01*
X0165165Y0083164D01*
X0165270Y0083269D01*
X0168707Y0083269D01*
X0168707Y0082501D01*
X0169410Y0081798D01*
X0173160Y0081798D01*
X0173610Y0082248D01*
X0173745Y0082015D01*
X0174043Y0081717D01*
X0174408Y0081507D01*
X0174815Y0081398D01*
X0176314Y0081398D01*
X0176314Y0084680D01*
X0176314Y0083521D02*
X0176492Y0083521D01*
X0176492Y0082322D02*
X0176314Y0082322D01*
X0179239Y0082322D02*
X0179944Y0082322D01*
X0180225Y0081124D02*
X0165165Y0081124D01*
X0165165Y0082322D02*
X0168886Y0082322D01*
X0165165Y0079925D02*
X0180633Y0079925D01*
X0181042Y0078727D02*
X0164900Y0078727D01*
X0167748Y0077528D02*
X0175512Y0077528D01*
X0175503Y0077513D02*
X0175394Y0077106D01*
X0175394Y0075606D01*
X0178676Y0075606D01*
X0178676Y0078495D01*
X0176783Y0078495D01*
X0176376Y0078386D01*
X0176011Y0078176D01*
X0175713Y0077878D01*
X0175503Y0077513D01*
X0175394Y0076330D02*
X0167865Y0076330D01*
X0167865Y0075131D02*
X0175394Y0075131D01*
X0175394Y0073932D02*
X0167865Y0073932D01*
X0161366Y0073287D02*
X0160633Y0072554D01*
X0160469Y0072390D01*
X0158810Y0072390D01*
X0158810Y0072637D01*
X0161122Y0074949D01*
X0161122Y0073929D01*
X0161231Y0073522D01*
X0161366Y0073287D01*
X0161122Y0073932D02*
X0160106Y0073932D01*
X0160813Y0072734D02*
X0158907Y0072734D01*
X0158410Y0068204D02*
X0159977Y0066637D01*
X0170979Y0066637D01*
X0171383Y0067041D01*
X0171788Y0066637D01*
X0175397Y0066637D01*
X0175397Y0063590D01*
X0175236Y0063633D01*
X0173392Y0063633D01*
X0173392Y0058136D01*
X0172525Y0058136D01*
X0172525Y0063633D01*
X0170681Y0063633D01*
X0170274Y0063524D01*
X0169909Y0063313D01*
X0169611Y0063015D01*
X0169400Y0062651D01*
X0169291Y0062244D01*
X0169291Y0058136D01*
X0172525Y0058136D01*
X0172525Y0057269D01*
X0173392Y0057269D01*
X0173392Y0051772D01*
X0175236Y0051772D01*
X0175643Y0051881D01*
X0176008Y0052091D01*
X0176305Y0052389D01*
X0176413Y0052575D01*
X0181118Y0052575D01*
X0181225Y0052389D01*
X0181523Y0052091D01*
X0181888Y0051881D01*
X0182295Y0051772D01*
X0184139Y0051772D01*
X0184139Y0057269D01*
X0185006Y0057269D01*
X0185006Y0058136D01*
X0184139Y0058136D01*
X0184139Y0063633D01*
X0182295Y0063633D01*
X0182134Y0063590D01*
X0182134Y0072554D01*
X0181674Y0073014D01*
X0181817Y0073157D01*
X0182028Y0073522D01*
X0182137Y0073929D01*
X0182137Y0075428D01*
X0178854Y0075428D01*
X0178854Y0075606D01*
X0182106Y0075606D01*
X0183818Y0070582D01*
X0183792Y0070516D01*
X0184043Y0069925D01*
X0184250Y0069317D01*
X0184314Y0069285D01*
X0186712Y0063633D01*
X0185006Y0063633D01*
X0185006Y0058136D01*
X0188239Y0058136D01*
X0188239Y0060034D01*
X0188331Y0059817D01*
X0188331Y0059459D01*
X0188595Y0059195D01*
X0188741Y0058851D01*
X0188876Y0058796D01*
X0188876Y0050040D01*
X0183071Y0044235D01*
X0168719Y0044235D01*
X0168255Y0044699D01*
X0166986Y0044699D01*
X0166986Y0048196D01*
X0166232Y0048950D01*
X0167124Y0049842D01*
X0167124Y0051635D01*
X0165856Y0052903D01*
X0165115Y0052903D01*
X0164709Y0053309D01*
X0164709Y0056034D01*
X0164006Y0056737D01*
X0163631Y0056737D01*
X0163631Y0058656D01*
X0164131Y0059155D01*
X0164521Y0059155D01*
X0165073Y0058602D01*
X0166867Y0058602D01*
X0168135Y0059870D01*
X0168135Y0061664D01*
X0166867Y0062931D01*
X0165073Y0062931D01*
X0164297Y0062155D01*
X0162888Y0062155D01*
X0161510Y0060777D01*
X0160631Y0059898D01*
X0160631Y0056737D01*
X0160256Y0056737D01*
X0159572Y0056053D01*
X0158888Y0056737D01*
X0156255Y0056737D01*
X0156585Y0057068D01*
X0156707Y0056946D01*
X0158501Y0056946D01*
X0159768Y0058214D01*
X0159768Y0060007D01*
X0159104Y0060671D01*
X0159104Y0060867D01*
X0159610Y0061374D01*
X0159610Y0064267D01*
X0158861Y0065017D01*
X0158410Y0065467D01*
X0158410Y0068204D01*
X0158410Y0067940D02*
X0158674Y0067940D01*
X0158410Y0066741D02*
X0159872Y0066741D01*
X0158410Y0065543D02*
X0175397Y0065543D01*
X0175397Y0064344D02*
X0159533Y0064344D01*
X0159610Y0063146D02*
X0169741Y0063146D01*
X0169291Y0061947D02*
X0167851Y0061947D01*
X0168135Y0060749D02*
X0169291Y0060749D01*
X0169291Y0059550D02*
X0167815Y0059550D01*
X0169291Y0058352D02*
X0163631Y0058352D01*
X0163631Y0057153D02*
X0169291Y0057153D01*
X0169291Y0057269D02*
X0169291Y0053161D01*
X0169400Y0052754D01*
X0169611Y0052389D01*
X0169909Y0052091D01*
X0170274Y0051881D01*
X0170681Y0051772D01*
X0172525Y0051772D01*
X0172525Y0057269D01*
X0169291Y0057269D01*
X0169291Y0055955D02*
X0164709Y0055955D01*
X0164709Y0054756D02*
X0169291Y0054756D01*
X0169291Y0053558D02*
X0164709Y0053558D01*
X0166399Y0052359D02*
X0169641Y0052359D01*
X0167124Y0051161D02*
X0188876Y0051161D01*
X0188876Y0052359D02*
X0187890Y0052359D01*
X0187920Y0052389D02*
X0188130Y0052754D01*
X0188239Y0053161D01*
X0188239Y0057269D01*
X0185006Y0057269D01*
X0185006Y0051772D01*
X0186850Y0051772D01*
X0187257Y0051881D01*
X0187622Y0052091D01*
X0187920Y0052389D01*
X0188239Y0053558D02*
X0188876Y0053558D01*
X0188876Y0054756D02*
X0188239Y0054756D01*
X0188239Y0055955D02*
X0188876Y0055955D01*
X0188876Y0057153D02*
X0188239Y0057153D01*
X0188239Y0058352D02*
X0188876Y0058352D01*
X0188331Y0059550D02*
X0188239Y0059550D01*
X0185006Y0059550D02*
X0184139Y0059550D01*
X0184139Y0058352D02*
X0185006Y0058352D01*
X0185006Y0057153D02*
X0184139Y0057153D01*
X0184139Y0055955D02*
X0185006Y0055955D01*
X0185006Y0054756D02*
X0184139Y0054756D01*
X0184139Y0053558D02*
X0185006Y0053558D01*
X0185006Y0052359D02*
X0184139Y0052359D01*
X0181255Y0052359D02*
X0176276Y0052359D01*
X0173392Y0052359D02*
X0172525Y0052359D01*
X0172525Y0053558D02*
X0173392Y0053558D01*
X0173392Y0054756D02*
X0172525Y0054756D01*
X0172525Y0055955D02*
X0173392Y0055955D01*
X0173392Y0057153D02*
X0172525Y0057153D01*
X0172525Y0058352D02*
X0173392Y0058352D01*
X0173392Y0059550D02*
X0172525Y0059550D01*
X0172525Y0060749D02*
X0173392Y0060749D01*
X0173392Y0061947D02*
X0172525Y0061947D01*
X0172525Y0063146D02*
X0173392Y0063146D01*
X0171683Y0066741D02*
X0171084Y0066741D01*
X0162680Y0061947D02*
X0159610Y0061947D01*
X0159104Y0060749D02*
X0161482Y0060749D01*
X0160631Y0059550D02*
X0159768Y0059550D01*
X0159768Y0058352D02*
X0160631Y0058352D01*
X0160631Y0057153D02*
X0158708Y0057153D01*
X0150986Y0056896D02*
X0150986Y0054325D01*
X0151783Y0053528D01*
X0146875Y0053528D01*
X0146172Y0052825D01*
X0146172Y0046831D01*
X0146875Y0046128D01*
X0153569Y0046128D01*
X0154272Y0046831D01*
X0154272Y0047828D01*
X0161697Y0047828D01*
X0162986Y0046539D01*
X0162986Y0042021D01*
X0162620Y0042386D01*
X0161384Y0042898D01*
X0160045Y0042898D01*
X0158808Y0042386D01*
X0158497Y0042075D01*
X0158114Y0042458D01*
X0157498Y0042870D01*
X0156812Y0043154D01*
X0156085Y0043298D01*
X0155803Y0043298D01*
X0155803Y0039622D01*
X0155625Y0039622D01*
X0155625Y0043298D01*
X0155343Y0043298D01*
X0154616Y0043154D01*
X0153931Y0042870D01*
X0153314Y0042458D01*
X0152931Y0042075D01*
X0152620Y0042386D01*
X0151384Y0042898D01*
X0150045Y0042898D01*
X0148808Y0042386D01*
X0148214Y0041792D01*
X0147620Y0042386D01*
X0146384Y0042898D01*
X0145045Y0042898D01*
X0143808Y0042386D01*
X0143214Y0041792D01*
X0142620Y0042386D01*
X0141384Y0042898D01*
X0140045Y0042898D01*
X0138808Y0042386D01*
X0137861Y0041439D01*
X0137349Y0040202D01*
X0137349Y0038864D01*
X0137861Y0037627D01*
X0138455Y0037033D01*
X0137861Y0036439D01*
X0137349Y0035202D01*
X0137349Y0033864D01*
X0137861Y0032627D01*
X0138808Y0031680D01*
X0140045Y0031168D01*
X0141384Y0031168D01*
X0142620Y0031680D01*
X0142931Y0031991D01*
X0143314Y0031608D01*
X0143931Y0031196D01*
X0144616Y0030912D01*
X0145343Y0030768D01*
X0145625Y0030768D01*
X0145625Y0034444D01*
X0145803Y0034444D01*
X0145803Y0030768D01*
X0146085Y0030768D01*
X0146812Y0030912D01*
X0147498Y0031196D01*
X0148114Y0031608D01*
X0148497Y0031991D01*
X0148714Y0031774D01*
X0148714Y0031283D01*
X0151207Y0028791D01*
X0133530Y0028791D01*
X0133755Y0028905D01*
X0134379Y0029359D01*
X0134924Y0029904D01*
X0135377Y0030528D01*
X0135728Y0031215D01*
X0135966Y0031949D01*
X0136087Y0032710D01*
X0136087Y0032712D01*
X0131571Y0032712D01*
X0131571Y0033480D01*
X0136087Y0033480D01*
X0136087Y0033482D01*
X0135966Y0034243D01*
X0135728Y0034977D01*
X0135377Y0035664D01*
X0134924Y0036288D01*
X0134379Y0036834D01*
X0133755Y0037287D01*
X0133068Y0037637D01*
X0132334Y0037875D01*
X0131572Y0037996D01*
X0131571Y0037996D01*
X0131571Y0033480D01*
X0130802Y0033480D01*
X0130802Y0032712D01*
X0126287Y0032712D01*
X0126287Y0032710D01*
X0126407Y0031949D01*
X0126646Y0031215D01*
X0126996Y0030528D01*
X0127449Y0029904D01*
X0127994Y0029359D01*
X0128618Y0028905D01*
X0128844Y0028791D01*
X0122551Y0028791D01*
X0123736Y0029281D01*
X0125002Y0030547D01*
X0125687Y0032201D01*
X0125687Y0033991D01*
X0125002Y0035645D01*
X0123736Y0036911D01*
X0122374Y0037475D01*
X0121808Y0038041D01*
X0121702Y0038147D01*
X0120824Y0039025D01*
X0114426Y0039025D01*
X0113887Y0039565D01*
X0113887Y0043240D01*
X0114384Y0042743D01*
X0116178Y0042743D01*
X0116842Y0043407D01*
X0119171Y0043407D01*
X0119398Y0043634D01*
X0120290Y0042743D01*
X0122083Y0042743D01*
X0122748Y0043407D01*
X0125077Y0043407D01*
X0125304Y0043634D01*
X0126196Y0042743D01*
X0127989Y0042743D01*
X0128653Y0043407D01*
X0130982Y0043407D01*
X0131209Y0043634D01*
X0132101Y0042743D01*
X0133894Y0042743D01*
X0134559Y0043407D01*
X0141493Y0043407D01*
X0144446Y0046360D01*
X0145324Y0047239D01*
X0145324Y0052160D01*
X0146808Y0053643D01*
X0147291Y0054127D01*
X0147849Y0053569D01*
X0149642Y0053569D01*
X0150910Y0054837D01*
X0150910Y0056630D01*
X0150645Y0056896D01*
X0150986Y0056896D01*
X0150986Y0055955D02*
X0150910Y0055955D01*
X0150829Y0054756D02*
X0150986Y0054756D01*
X0151753Y0053558D02*
X0146722Y0053558D01*
X0146808Y0053643D02*
X0146808Y0053643D01*
X0146172Y0052359D02*
X0145524Y0052359D01*
X0145324Y0051161D02*
X0146172Y0051161D01*
X0146172Y0049962D02*
X0145324Y0049962D01*
X0145324Y0048764D02*
X0146172Y0048764D01*
X0146172Y0047565D02*
X0145324Y0047565D01*
X0144453Y0046367D02*
X0146637Y0046367D01*
X0143254Y0045168D02*
X0162986Y0045168D01*
X0162986Y0043970D02*
X0142056Y0043970D01*
X0141691Y0042771D02*
X0144738Y0042771D01*
X0146691Y0042771D02*
X0149738Y0042771D01*
X0151691Y0042771D02*
X0153783Y0042771D01*
X0155625Y0042771D02*
X0155803Y0042771D01*
X0155803Y0041573D02*
X0155625Y0041573D01*
X0155625Y0040374D02*
X0155803Y0040374D01*
X0155803Y0039444D02*
X0155803Y0035768D01*
X0155803Y0034622D01*
X0155625Y0034622D01*
X0155625Y0039444D01*
X0155803Y0039444D01*
X0155803Y0039176D02*
X0155625Y0039176D01*
X0155625Y0037977D02*
X0155803Y0037977D01*
X0155803Y0036779D02*
X0155625Y0036779D01*
X0155625Y0035580D02*
X0155803Y0035580D01*
X0157645Y0042771D02*
X0159738Y0042771D01*
X0161691Y0042771D02*
X0162986Y0042771D01*
X0166986Y0045168D02*
X0184004Y0045168D01*
X0185203Y0046367D02*
X0166986Y0046367D01*
X0166986Y0047565D02*
X0186401Y0047565D01*
X0187600Y0048764D02*
X0166418Y0048764D01*
X0167124Y0049962D02*
X0188798Y0049962D01*
X0191210Y0047565D02*
X0198142Y0047565D01*
X0198942Y0046367D02*
X0190011Y0046367D01*
X0189856Y0045168D02*
X0188813Y0045168D01*
X0189438Y0045117D02*
X0187255Y0043610D01*
X0191281Y0047636D01*
X0192276Y0048632D01*
X0192276Y0057549D01*
X0195475Y0051563D01*
X0202695Y0040740D01*
X0210935Y0030671D01*
X0212808Y0028791D01*
X0164493Y0028791D01*
X0165814Y0030112D01*
X0166986Y0031283D01*
X0166986Y0038770D01*
X0168918Y0038770D01*
X0169382Y0039235D01*
X0171526Y0039235D01*
X0172455Y0038305D01*
X0174249Y0038305D01*
X0175517Y0039573D01*
X0175517Y0040835D01*
X0183071Y0040835D01*
X0184479Y0040835D01*
X0186727Y0043083D01*
X0185407Y0040567D01*
X0185407Y0037436D01*
X0186862Y0034664D01*
X0189438Y0032886D01*
X0192546Y0032508D01*
X0195473Y0033618D01*
X0195473Y0033618D01*
X0197549Y0035962D01*
X0198298Y0039002D01*
X0197549Y0042041D01*
X0197549Y0042041D01*
X0195473Y0044385D01*
X0192546Y0045495D01*
X0189438Y0045117D01*
X0189438Y0045117D01*
X0187775Y0043970D02*
X0187614Y0043970D01*
X0186564Y0042771D02*
X0186416Y0042771D01*
X0185934Y0041573D02*
X0185217Y0041573D01*
X0185407Y0040374D02*
X0175517Y0040374D01*
X0175119Y0039176D02*
X0185407Y0039176D01*
X0185407Y0037977D02*
X0166986Y0037977D01*
X0166986Y0036779D02*
X0185752Y0036779D01*
X0186381Y0035580D02*
X0166986Y0035580D01*
X0166986Y0034382D02*
X0187271Y0034382D01*
X0186862Y0034664D02*
X0186862Y0034664D01*
X0186862Y0034664D01*
X0189007Y0033183D02*
X0166986Y0033183D01*
X0166986Y0031985D02*
X0209860Y0031985D01*
X0208879Y0033183D02*
X0194325Y0033183D01*
X0192546Y0032508D02*
X0192546Y0032508D01*
X0189438Y0032886D02*
X0189438Y0032886D01*
X0196149Y0034382D02*
X0207898Y0034382D01*
X0206918Y0035580D02*
X0197211Y0035580D01*
X0197549Y0035962D02*
X0197549Y0035962D01*
X0197751Y0036779D02*
X0205937Y0036779D01*
X0204956Y0037977D02*
X0198046Y0037977D01*
X0198256Y0039176D02*
X0203975Y0039176D01*
X0202994Y0040374D02*
X0197960Y0040374D01*
X0197665Y0041573D02*
X0202140Y0041573D01*
X0201340Y0042771D02*
X0196903Y0042771D01*
X0195841Y0043970D02*
X0200541Y0043970D01*
X0199741Y0045168D02*
X0193407Y0045168D01*
X0192546Y0045495D02*
X0192546Y0045495D01*
X0191281Y0047636D02*
X0191281Y0047636D01*
X0192276Y0048764D02*
X0197342Y0048764D01*
X0196543Y0049962D02*
X0192276Y0049962D01*
X0192276Y0051161D02*
X0195743Y0051161D01*
X0195050Y0052359D02*
X0192276Y0052359D01*
X0192276Y0053558D02*
X0194409Y0053558D01*
X0193769Y0054756D02*
X0192276Y0054756D01*
X0192276Y0055955D02*
X0193128Y0055955D01*
X0192488Y0057153D02*
X0192276Y0057153D01*
X0185006Y0060749D02*
X0184139Y0060749D01*
X0184139Y0061947D02*
X0185006Y0061947D01*
X0185006Y0063146D02*
X0184139Y0063146D01*
X0182134Y0064344D02*
X0186410Y0064344D01*
X0185902Y0065543D02*
X0182134Y0065543D01*
X0182134Y0066741D02*
X0185393Y0066741D01*
X0184885Y0067940D02*
X0182134Y0067940D01*
X0182134Y0069138D02*
X0184376Y0069138D01*
X0183868Y0070337D02*
X0182134Y0070337D01*
X0182134Y0071535D02*
X0183493Y0071535D01*
X0183085Y0072734D02*
X0181954Y0072734D01*
X0182137Y0073932D02*
X0182676Y0073932D01*
X0182268Y0075131D02*
X0182137Y0075131D01*
X0178854Y0076330D02*
X0178676Y0076330D01*
X0178676Y0077528D02*
X0178854Y0077528D01*
X0179381Y0083521D02*
X0179631Y0083521D01*
X0168785Y0087116D02*
X0165025Y0087116D01*
X0171294Y0096704D02*
X0171472Y0096704D01*
X0171472Y0097903D02*
X0171294Y0097903D01*
X0175897Y0100300D02*
X0160929Y0100300D01*
X0152280Y0100300D02*
X0152102Y0100300D01*
X0152102Y0101498D02*
X0152280Y0101498D01*
X0152280Y0102697D02*
X0152102Y0102697D01*
X0151772Y0096704D02*
X0150777Y0096704D01*
X0150396Y0095506D02*
X0151772Y0095506D01*
X0151772Y0094307D02*
X0150396Y0094307D01*
X0150396Y0093109D02*
X0152317Y0093109D01*
X0150857Y0091910D02*
X0150396Y0091910D01*
X0150396Y0090712D02*
X0150518Y0090712D01*
X0143913Y0095784D02*
X0143735Y0095784D01*
X0143735Y0098672D01*
X0141842Y0098672D01*
X0141487Y0098577D01*
X0141487Y0099842D01*
X0141378Y0100249D01*
X0141168Y0100614D01*
X0140870Y0100912D01*
X0140505Y0101122D01*
X0140098Y0101231D01*
X0138303Y0101231D01*
X0138303Y0097850D01*
X0137535Y0097850D01*
X0137535Y0101231D01*
X0135740Y0101231D01*
X0135333Y0101122D01*
X0134968Y0100912D01*
X0134670Y0100614D01*
X0134459Y0100249D01*
X0134350Y0099842D01*
X0134350Y0098204D01*
X0133888Y0098666D01*
X0130138Y0098666D01*
X0129435Y0097963D01*
X0129435Y0097448D01*
X0129370Y0097690D01*
X0129160Y0098055D01*
X0128862Y0098353D01*
X0128497Y0098563D01*
X0128090Y0098672D01*
X0126197Y0098672D01*
X0126197Y0095784D01*
X0126019Y0095784D01*
X0126019Y0098672D01*
X0124126Y0098672D01*
X0123719Y0098563D01*
X0123354Y0098353D01*
X0123056Y0098055D01*
X0122845Y0097690D01*
X0122736Y0097283D01*
X0122736Y0095783D01*
X0126019Y0095783D01*
X0126019Y0095605D01*
X0122736Y0095605D01*
X0122736Y0094106D01*
X0122845Y0093699D01*
X0123056Y0093334D01*
X0123354Y0093036D01*
X0123587Y0092902D01*
X0123136Y0092451D01*
X0123136Y0088701D01*
X0123839Y0087998D01*
X0124608Y0087998D01*
X0124608Y0087593D01*
X0125487Y0086714D01*
X0125592Y0086609D01*
X0126469Y0085731D01*
X0126404Y0085666D01*
X0126404Y0084726D01*
X0126052Y0084374D01*
X0116702Y0084374D01*
X0115218Y0082891D01*
X0115218Y0082814D01*
X0114923Y0082692D01*
X0114032Y0081800D01*
X0113550Y0080636D01*
X0113550Y0079375D01*
X0114032Y0078211D01*
X0114457Y0077786D01*
X0114443Y0077777D01*
X0113946Y0077280D01*
X0113556Y0076696D01*
X0113287Y0076046D01*
X0113150Y0075357D01*
X0113150Y0075006D01*
X0116718Y0075006D01*
X0116718Y0075005D01*
X0116718Y0075005D01*
X0116718Y0070006D01*
X0116718Y0070006D01*
X0116718Y0073574D01*
X0116718Y0075005D01*
X0113150Y0075005D01*
X0113150Y0074654D01*
X0113287Y0073965D01*
X0113556Y0073315D01*
X0113946Y0072731D01*
X0114171Y0072506D01*
X0113946Y0072280D01*
X0113556Y0071696D01*
X0113287Y0071046D01*
X0113150Y0070357D01*
X0113150Y0070006D01*
X0116718Y0070006D01*
X0116718Y0070005D01*
X0113150Y0070005D01*
X0113150Y0069654D01*
X0113287Y0068965D01*
X0113556Y0068315D01*
X0113946Y0067731D01*
X0114443Y0067234D01*
X0114457Y0067225D01*
X0114032Y0066800D01*
X0113550Y0065636D01*
X0113550Y0064375D01*
X0114032Y0063211D01*
X0114457Y0062786D01*
X0114443Y0062777D01*
X0113946Y0062280D01*
X0113556Y0061696D01*
X0113287Y0061046D01*
X0113150Y0060357D01*
X0113150Y0060006D01*
X0116718Y0060006D01*
X0116718Y0060005D01*
X0116718Y0060005D01*
X0116718Y0056437D01*
X0116367Y0056437D01*
X0116112Y0056488D01*
X0116489Y0056111D01*
X0116816Y0056437D01*
X0116718Y0056437D01*
X0116718Y0060005D01*
X0113150Y0060005D01*
X0113150Y0059654D01*
X0113287Y0058965D01*
X0113556Y0058315D01*
X0113946Y0057731D01*
X0114443Y0057234D01*
X0114790Y0057002D01*
X0113804Y0057002D01*
X0112536Y0055734D01*
X0112536Y0053941D01*
X0112580Y0053898D01*
X0109813Y0051131D01*
X0109001Y0051131D01*
X0109001Y0052491D01*
X0108298Y0053194D01*
X0102579Y0053194D01*
X0101876Y0052491D01*
X0101876Y0046772D01*
X0102579Y0046069D01*
X0108298Y0046069D01*
X0109001Y0046772D01*
X0109001Y0048131D01*
X0109687Y0048131D01*
X0109687Y0037345D01*
X0108638Y0036911D01*
X0107372Y0035645D01*
X0106687Y0033991D01*
X0106687Y0032201D01*
X0107372Y0030547D01*
X0108638Y0029281D01*
X0109822Y0028791D01*
X0077794Y0028791D01*
X0079667Y0030671D01*
X0087906Y0040740D01*
X0095126Y0051563D01*
X0101258Y0063037D01*
X0106244Y0075054D01*
X0106244Y0075054D01*
X0110036Y0087500D01*
X0112599Y0100255D01*
X0112599Y0100255D01*
X0112954Y0103766D01*
X0113681Y0103766D01*
X0113681Y0103362D01*
X0116865Y0103362D01*
X0116865Y0102594D01*
X0113681Y0102594D01*
X0113681Y0100799D01*
X0113790Y0100392D01*
X0114001Y0100027D01*
X0114299Y0099729D01*
X0114664Y0099518D01*
X0115070Y0099409D01*
X0116865Y0099409D01*
X0116865Y0102594D01*
X0117634Y0102594D01*
X0117634Y0103362D01*
X0120818Y0103362D01*
X0120818Y0104917D01*
X0121210Y0105309D01*
X0121784Y0105883D01*
X0145101Y0105883D01*
X0144996Y0105779D01*
X0144996Y0098672D01*
X0143913Y0098672D01*
X0143913Y0095784D01*
X0143913Y0096704D02*
X0143735Y0096704D01*
X0143735Y0097903D02*
X0143913Y0097903D01*
X0144996Y0099101D02*
X0141487Y0099101D01*
X0141349Y0100300D02*
X0144996Y0100300D01*
X0144996Y0101498D02*
X0120818Y0101498D01*
X0120818Y0100799D02*
X0120818Y0102594D01*
X0117634Y0102594D01*
X0117634Y0099409D01*
X0119429Y0099409D01*
X0119836Y0099518D01*
X0120201Y0099729D01*
X0120498Y0100027D01*
X0120709Y0100392D01*
X0120818Y0100799D01*
X0120656Y0100300D02*
X0134489Y0100300D01*
X0134350Y0099101D02*
X0112367Y0099101D01*
X0112603Y0100300D02*
X0113843Y0100300D01*
X0113681Y0101498D02*
X0112725Y0101498D01*
X0112846Y0102697D02*
X0116865Y0102697D01*
X0117634Y0102697D02*
X0144996Y0102697D01*
X0144996Y0103895D02*
X0120818Y0103895D01*
X0120995Y0105094D02*
X0144996Y0105094D01*
X0145844Y0111086D02*
X0120418Y0111086D01*
X0120380Y0112285D02*
X0147042Y0112285D01*
X0138303Y0100300D02*
X0137535Y0100300D01*
X0137535Y0099101D02*
X0138303Y0099101D01*
X0138303Y0097903D02*
X0137535Y0097903D01*
X0129435Y0097903D02*
X0129248Y0097903D01*
X0126197Y0097903D02*
X0126019Y0097903D01*
X0126019Y0096704D02*
X0126197Y0096704D01*
X0122968Y0097903D02*
X0112126Y0097903D01*
X0111885Y0096704D02*
X0122736Y0096704D01*
X0122736Y0095506D02*
X0111645Y0095506D01*
X0111404Y0094307D02*
X0122736Y0094307D01*
X0123281Y0093109D02*
X0111163Y0093109D01*
X0110922Y0091910D02*
X0123136Y0091910D01*
X0123136Y0090712D02*
X0110682Y0090712D01*
X0110441Y0089513D02*
X0123136Y0089513D01*
X0123523Y0088315D02*
X0110200Y0088315D01*
X0110036Y0087500D02*
X0110036Y0087500D01*
X0109919Y0087116D02*
X0125085Y0087116D01*
X0126283Y0085918D02*
X0109554Y0085918D01*
X0109189Y0084719D02*
X0126397Y0084719D01*
X0126890Y0081374D02*
X0124581Y0081374D01*
X0124887Y0080636D01*
X0124887Y0079375D01*
X0124404Y0078211D01*
X0123699Y0077505D01*
X0124404Y0076800D01*
X0124887Y0075636D01*
X0124887Y0074375D01*
X0124404Y0073211D01*
X0123699Y0072505D01*
X0124404Y0071800D01*
X0124887Y0070636D01*
X0124887Y0069375D01*
X0124404Y0068211D01*
X0123699Y0067505D01*
X0124404Y0066800D01*
X0124887Y0065636D01*
X0124887Y0064375D01*
X0124404Y0063211D01*
X0123699Y0062506D01*
X0124404Y0061800D01*
X0124887Y0060636D01*
X0124887Y0059375D01*
X0124407Y0058218D01*
X0126576Y0058218D01*
X0126576Y0067674D01*
X0128643Y0069741D01*
X0129239Y0070336D01*
X0129239Y0073919D01*
X0128931Y0073919D01*
X0128053Y0074798D01*
X0127561Y0075290D01*
X0127561Y0080703D01*
X0126890Y0081374D01*
X0127140Y0081124D02*
X0124685Y0081124D01*
X0124887Y0079925D02*
X0127561Y0079925D01*
X0127561Y0078727D02*
X0124618Y0078727D01*
X0123722Y0077528D02*
X0127561Y0077528D01*
X0127561Y0076330D02*
X0124599Y0076330D01*
X0124887Y0075131D02*
X0127719Y0075131D01*
X0128918Y0073932D02*
X0124703Y0073932D01*
X0123928Y0072734D02*
X0129239Y0072734D01*
X0129239Y0071535D02*
X0124514Y0071535D01*
X0124887Y0070337D02*
X0129239Y0070337D01*
X0128041Y0069138D02*
X0124789Y0069138D01*
X0124133Y0067940D02*
X0126842Y0067940D01*
X0126576Y0066741D02*
X0124429Y0066741D01*
X0124887Y0065543D02*
X0126576Y0065543D01*
X0126576Y0064344D02*
X0124874Y0064344D01*
X0124339Y0063146D02*
X0126576Y0063146D01*
X0126576Y0061947D02*
X0124257Y0061947D01*
X0124840Y0060749D02*
X0126576Y0060749D01*
X0126576Y0059550D02*
X0124887Y0059550D01*
X0124463Y0058352D02*
X0126576Y0058352D01*
X0129505Y0054821D02*
X0130160Y0055475D01*
X0131039Y0056354D01*
X0131039Y0061168D01*
X0133510Y0061168D01*
X0133510Y0057634D01*
X0132998Y0057123D01*
X0132998Y0055329D01*
X0133663Y0054665D01*
X0133663Y0054584D01*
X0132868Y0053789D01*
X0129768Y0053789D01*
X0129768Y0054558D01*
X0129505Y0054821D01*
X0129570Y0054756D02*
X0133571Y0054756D01*
X0132998Y0055955D02*
X0130639Y0055955D01*
X0131039Y0057153D02*
X0133029Y0057153D01*
X0133510Y0058352D02*
X0131039Y0058352D01*
X0131039Y0059550D02*
X0133510Y0059550D01*
X0133510Y0060749D02*
X0131039Y0060749D01*
X0137328Y0056896D02*
X0137328Y0055329D01*
X0136663Y0054665D01*
X0136663Y0053341D01*
X0135784Y0052462D01*
X0135194Y0051872D01*
X0135883Y0051872D01*
X0136426Y0051328D01*
X0137524Y0051328D01*
X0137524Y0055391D01*
X0138387Y0056254D01*
X0138387Y0056896D01*
X0137363Y0056896D01*
X0137328Y0056896D01*
X0137328Y0055955D02*
X0138089Y0055955D01*
X0137524Y0054756D02*
X0136754Y0054756D01*
X0136663Y0053558D02*
X0137524Y0053558D01*
X0137524Y0052359D02*
X0135681Y0052359D01*
X0133923Y0042771D02*
X0139738Y0042771D01*
X0137994Y0041573D02*
X0113887Y0041573D01*
X0113887Y0042771D02*
X0114356Y0042771D01*
X0116206Y0042771D02*
X0120261Y0042771D01*
X0122112Y0042771D02*
X0126167Y0042771D01*
X0128017Y0042771D02*
X0132072Y0042771D01*
X0131692Y0037977D02*
X0137716Y0037977D01*
X0137349Y0039176D02*
X0114276Y0039176D01*
X0113887Y0040374D02*
X0137420Y0040374D01*
X0138200Y0036779D02*
X0134434Y0036779D01*
X0135420Y0035580D02*
X0137505Y0035580D01*
X0137349Y0034382D02*
X0135921Y0034382D01*
X0137631Y0033183D02*
X0131571Y0033183D01*
X0130802Y0033183D02*
X0125687Y0033183D01*
X0126287Y0033480D02*
X0130802Y0033480D01*
X0130802Y0037996D01*
X0130801Y0037996D01*
X0130039Y0037875D01*
X0129306Y0037637D01*
X0128618Y0037287D01*
X0127994Y0036834D01*
X0127449Y0036288D01*
X0126996Y0035664D01*
X0126646Y0034977D01*
X0126407Y0034243D01*
X0126287Y0033482D01*
X0126287Y0033480D01*
X0126452Y0034382D02*
X0125525Y0034382D01*
X0125028Y0035580D02*
X0126953Y0035580D01*
X0127940Y0036779D02*
X0123868Y0036779D01*
X0121872Y0037977D02*
X0130682Y0037977D01*
X0130802Y0037977D02*
X0131571Y0037977D01*
X0131571Y0036779D02*
X0130802Y0036779D01*
X0130802Y0035580D02*
X0131571Y0035580D01*
X0131571Y0034382D02*
X0130802Y0034382D01*
X0126864Y0030786D02*
X0125101Y0030786D01*
X0125597Y0031985D02*
X0126402Y0031985D01*
X0127765Y0029588D02*
X0124042Y0029588D01*
X0119822Y0028791D02*
X0112551Y0028791D01*
X0113736Y0029281D01*
X0115002Y0030547D01*
X0115687Y0032201D01*
X0115687Y0033991D01*
X0115002Y0035645D01*
X0114621Y0036025D01*
X0117752Y0036025D01*
X0117372Y0035645D01*
X0116687Y0033991D01*
X0116687Y0032201D01*
X0117372Y0030547D01*
X0118638Y0029281D01*
X0119822Y0028791D01*
X0118331Y0029588D02*
X0114042Y0029588D01*
X0115101Y0030786D02*
X0117273Y0030786D01*
X0116776Y0031985D02*
X0115597Y0031985D01*
X0115687Y0033183D02*
X0116687Y0033183D01*
X0116848Y0034382D02*
X0115525Y0034382D01*
X0115028Y0035580D02*
X0117345Y0035580D01*
X0109687Y0037977D02*
X0105133Y0037977D01*
X0105385Y0039002D02*
X0104636Y0042041D01*
X0104636Y0042041D01*
X0102560Y0044385D01*
X0102560Y0044385D01*
X0099633Y0045495D01*
X0099633Y0045495D01*
X0096525Y0045117D01*
X0093948Y0043339D01*
X0092493Y0040567D01*
X0092493Y0037436D01*
X0093948Y0034664D01*
X0093948Y0034664D01*
X0093948Y0034664D01*
X0096525Y0032886D01*
X0099633Y0032508D01*
X0102560Y0033618D01*
X0102560Y0033618D01*
X0102560Y0033618D01*
X0104636Y0035962D01*
X0105385Y0039002D01*
X0105385Y0039002D01*
X0105342Y0039176D02*
X0109687Y0039176D01*
X0109687Y0040374D02*
X0105047Y0040374D01*
X0104751Y0041573D02*
X0109687Y0041573D01*
X0109687Y0042771D02*
X0103989Y0042771D01*
X0102927Y0043970D02*
X0109687Y0043970D01*
X0109687Y0045168D02*
X0100494Y0045168D01*
X0102282Y0046367D02*
X0091660Y0046367D01*
X0092460Y0047565D02*
X0101876Y0047565D01*
X0101876Y0048764D02*
X0093259Y0048764D01*
X0094059Y0049962D02*
X0101876Y0049962D01*
X0101876Y0051161D02*
X0094858Y0051161D01*
X0095126Y0051563D02*
X0095126Y0051563D01*
X0095552Y0052359D02*
X0101876Y0052359D01*
X0102579Y0054337D02*
X0108298Y0054337D01*
X0109001Y0055040D01*
X0109001Y0060758D01*
X0108298Y0061461D01*
X0102579Y0061461D01*
X0101876Y0060758D01*
X0101876Y0055040D01*
X0102579Y0054337D01*
X0102160Y0054756D02*
X0096833Y0054756D01*
X0096192Y0053558D02*
X0112239Y0053558D01*
X0112536Y0054756D02*
X0108717Y0054756D01*
X0109001Y0055955D02*
X0112757Y0055955D01*
X0114564Y0057153D02*
X0109001Y0057153D01*
X0109001Y0058352D02*
X0113541Y0058352D01*
X0113170Y0059550D02*
X0109001Y0059550D01*
X0109001Y0060749D02*
X0113228Y0060749D01*
X0113724Y0061947D02*
X0100676Y0061947D01*
X0101258Y0063037D02*
X0101258Y0063037D01*
X0101303Y0063146D02*
X0114097Y0063146D01*
X0113562Y0064344D02*
X0101801Y0064344D01*
X0102298Y0065543D02*
X0113550Y0065543D01*
X0114008Y0066741D02*
X0102795Y0066741D01*
X0103292Y0067940D02*
X0113806Y0067940D01*
X0113252Y0069138D02*
X0103790Y0069138D01*
X0104287Y0070337D02*
X0113150Y0070337D01*
X0113489Y0071535D02*
X0104784Y0071535D01*
X0105281Y0072734D02*
X0113944Y0072734D01*
X0113300Y0073932D02*
X0105779Y0073932D01*
X0106268Y0075131D02*
X0113150Y0075131D01*
X0113404Y0076330D02*
X0106633Y0076330D01*
X0106998Y0077528D02*
X0114194Y0077528D01*
X0113818Y0078727D02*
X0107363Y0078727D01*
X0107728Y0079925D02*
X0113550Y0079925D01*
X0113752Y0081124D02*
X0108094Y0081124D01*
X0108459Y0082322D02*
X0114554Y0082322D01*
X0115848Y0083521D02*
X0108824Y0083521D01*
X0116718Y0073932D02*
X0116718Y0073932D01*
X0116718Y0072734D02*
X0116718Y0072734D01*
X0116718Y0071535D02*
X0116718Y0071535D01*
X0116718Y0070337D02*
X0116718Y0070337D01*
X0116718Y0059550D02*
X0116718Y0059550D01*
X0116718Y0058352D02*
X0116718Y0058352D01*
X0116718Y0057153D02*
X0116718Y0057153D01*
X0119094Y0052776D02*
X0119094Y0052378D01*
X0121983Y0052378D01*
X0121983Y0052200D01*
X0119094Y0052200D01*
X0119094Y0050307D01*
X0119204Y0049900D01*
X0119414Y0049535D01*
X0119477Y0049472D01*
X0119296Y0049472D01*
X0118417Y0048593D01*
X0117938Y0048114D01*
X0117938Y0049741D01*
X0116998Y0050680D01*
X0119094Y0052776D01*
X0118678Y0052359D02*
X0121983Y0052359D01*
X0119094Y0051161D02*
X0117479Y0051161D01*
X0117716Y0049962D02*
X0119187Y0049962D01*
X0118588Y0048764D02*
X0117938Y0048764D01*
X0111041Y0052359D02*
X0109001Y0052359D01*
X0109001Y0051161D02*
X0109842Y0051161D01*
X0109687Y0047565D02*
X0109001Y0047565D01*
X0108595Y0046367D02*
X0109687Y0046367D01*
X0101876Y0055955D02*
X0097473Y0055955D01*
X0098114Y0057153D02*
X0101876Y0057153D01*
X0101876Y0058352D02*
X0098754Y0058352D01*
X0099395Y0059550D02*
X0101876Y0059550D01*
X0101876Y0060749D02*
X0100035Y0060749D01*
X0096943Y0045168D02*
X0090860Y0045168D01*
X0090061Y0043970D02*
X0094862Y0043970D01*
X0093948Y0043339D02*
X0093948Y0043339D01*
X0093650Y0042771D02*
X0089261Y0042771D01*
X0088462Y0041573D02*
X0093021Y0041573D01*
X0092493Y0040374D02*
X0087607Y0040374D01*
X0087906Y0040740D02*
X0087906Y0040740D01*
X0086626Y0039176D02*
X0092493Y0039176D01*
X0092493Y0037977D02*
X0085646Y0037977D01*
X0084665Y0036779D02*
X0092838Y0036779D01*
X0093467Y0035580D02*
X0083684Y0035580D01*
X0082703Y0034382D02*
X0094357Y0034382D01*
X0096094Y0033183D02*
X0081722Y0033183D01*
X0080742Y0031985D02*
X0106776Y0031985D01*
X0106687Y0033183D02*
X0101412Y0033183D01*
X0099633Y0032508D02*
X0099633Y0032508D01*
X0096525Y0032886D02*
X0096525Y0032886D01*
X0103236Y0034382D02*
X0106848Y0034382D01*
X0107345Y0035580D02*
X0104298Y0035580D01*
X0104837Y0036779D02*
X0108505Y0036779D01*
X0107273Y0030786D02*
X0079761Y0030786D01*
X0079667Y0030671D02*
X0079667Y0030671D01*
X0078588Y0029588D02*
X0108331Y0029588D01*
X0096525Y0045117D02*
X0096525Y0045117D01*
X0134608Y0029588D02*
X0150410Y0029588D01*
X0149211Y0030786D02*
X0146177Y0030786D01*
X0145803Y0030786D02*
X0145625Y0030786D01*
X0145251Y0030786D02*
X0135509Y0030786D01*
X0135972Y0031985D02*
X0138503Y0031985D01*
X0142925Y0031985D02*
X0142938Y0031985D01*
X0145625Y0031985D02*
X0145803Y0031985D01*
X0145803Y0033183D02*
X0145625Y0033183D01*
X0145625Y0034382D02*
X0145803Y0034382D01*
X0148491Y0031985D02*
X0148503Y0031985D01*
X0153807Y0046367D02*
X0162986Y0046367D01*
X0161960Y0047565D02*
X0154272Y0047565D01*
X0169323Y0039176D02*
X0171585Y0039176D01*
X0166489Y0030786D02*
X0210841Y0030786D01*
X0212014Y0029588D02*
X0165290Y0029588D01*
X0195473Y0044385D02*
X0195473Y0044385D01*
X0152267Y0070882D02*
X0144424Y0070882D01*
X0144424Y0062761D01*
X0143224Y0062761D01*
X0143224Y0070882D01*
X0135103Y0070882D01*
X0135103Y0072082D01*
X0143224Y0072082D01*
X0143224Y0070882D01*
X0144424Y0070882D01*
X0144424Y0072082D01*
X0144424Y0080203D01*
X0143224Y0080203D01*
X0143224Y0072082D01*
X0144424Y0072082D01*
X0152146Y0072082D01*
X0152146Y0071606D01*
X0152255Y0071199D01*
X0152267Y0071178D01*
X0152267Y0070882D01*
X0152165Y0071535D02*
X0144424Y0071535D01*
X0144424Y0070337D02*
X0143224Y0070337D01*
X0143224Y0071535D02*
X0135103Y0071535D01*
X0143224Y0072734D02*
X0144424Y0072734D01*
X0144424Y0073932D02*
X0143224Y0073932D01*
X0143224Y0075131D02*
X0144424Y0075131D01*
X0144424Y0076330D02*
X0143224Y0076330D01*
X0143224Y0077528D02*
X0144424Y0077528D01*
X0144424Y0078727D02*
X0143224Y0078727D01*
X0143224Y0079925D02*
X0144424Y0079925D01*
X0144424Y0069138D02*
X0143224Y0069138D01*
X0143224Y0067940D02*
X0144424Y0067940D01*
X0144424Y0066741D02*
X0143224Y0066741D01*
X0143224Y0065543D02*
X0144424Y0065543D01*
X0144424Y0064344D02*
X0143224Y0064344D01*
X0143224Y0063146D02*
X0144424Y0063146D01*
X0117634Y0100300D02*
X0116865Y0100300D01*
X0116865Y0101498D02*
X0117634Y0101498D01*
X0119571Y0128706D02*
X0119571Y0130601D01*
X0117212Y0132960D01*
X0119571Y0137454D02*
X0119571Y0137454D01*
X0119571Y0138652D02*
X0119571Y0138652D01*
X0119571Y0139851D02*
X0119571Y0139851D01*
X0121288Y0139851D02*
X0123502Y0139851D01*
X0129464Y0129064D02*
X0129642Y0129064D01*
X0129642Y0127866D02*
X0129464Y0127866D01*
X0173417Y0112285D02*
X0174374Y0112285D01*
X0176721Y0129064D02*
X0176933Y0129064D01*
X0177060Y0130263D02*
X0175522Y0130263D01*
X0175134Y0130651D02*
X0175134Y0130651D01*
X0174324Y0131461D02*
X0177186Y0131461D01*
X0180551Y0151836D02*
X0172307Y0151836D01*
X0173476Y0153034D02*
X0180806Y0153034D01*
X0181042Y0154145D02*
X0181042Y0154145D01*
X0181070Y0154233D02*
X0177013Y0154233D01*
X0177013Y0155431D02*
X0181459Y0155431D01*
X0153667Y0179401D02*
X0153393Y0179401D01*
X0153667Y0180600D02*
X0152194Y0180600D01*
X0147564Y0185394D02*
X0147565Y0185394D01*
X0137504Y0191387D02*
X0124855Y0191387D01*
X0125005Y0192585D02*
X0136306Y0192585D01*
X0135107Y0193784D02*
X0125005Y0193784D01*
X0125005Y0194982D02*
X0133909Y0194982D01*
X0132710Y0196181D02*
X0125005Y0196181D01*
X0125005Y0197379D02*
X0131512Y0197379D01*
X0130313Y0198578D02*
X0125005Y0198578D01*
X0125005Y0199776D02*
X0129115Y0199776D01*
X0127916Y0200975D02*
X0125005Y0200975D01*
X0125005Y0202173D02*
X0126718Y0202173D01*
X0125519Y0203372D02*
X0125005Y0203372D01*
X0125035Y0186593D02*
X0125213Y0186593D01*
X0125213Y0185394D02*
X0125035Y0185394D01*
X0129956Y0185394D02*
X0130134Y0185394D01*
X0130134Y0186593D02*
X0129956Y0186593D01*
X0134877Y0186593D02*
X0135055Y0186593D01*
X0135055Y0185394D02*
X0134877Y0185394D01*
X0098165Y0214158D02*
X0096965Y0214158D01*
X0096965Y0215357D02*
X0098165Y0215357D01*
X0098165Y0216555D02*
X0096965Y0216555D01*
X0096965Y0220151D02*
X0098165Y0220151D01*
X0098165Y0221349D02*
X0096965Y0221349D01*
X0096965Y0222548D02*
X0098165Y0222548D01*
X0098165Y0223746D02*
X0096965Y0223746D01*
X0092178Y0223746D02*
X0064078Y0223746D01*
X0065553Y0222548D02*
X0092028Y0222548D01*
X0092028Y0221349D02*
X0066878Y0221349D01*
X0068202Y0220151D02*
X0092028Y0220151D01*
X0092446Y0211761D02*
X0077044Y0211761D01*
X0078119Y0210563D02*
X0092428Y0210563D01*
X0092428Y0209364D02*
X0079194Y0209364D01*
X0080269Y0208166D02*
X0092428Y0208166D01*
X0092428Y0206967D02*
X0081344Y0206967D01*
X0082419Y0205769D02*
X0092428Y0205769D01*
X0092428Y0204570D02*
X0083494Y0204570D01*
X0084486Y0203464D02*
X0084486Y0203464D01*
X0084553Y0203372D02*
X0092428Y0203372D01*
X0171999Y0234533D02*
X0174828Y0234533D01*
X0174828Y0235732D02*
X0171999Y0235732D01*
X0171999Y0236930D02*
X0174828Y0236930D01*
X0174828Y0238129D02*
X0171361Y0238129D01*
X0177413Y0216555D02*
X0178273Y0216555D01*
X0178273Y0215357D02*
X0177413Y0215357D01*
D47*
X0146777Y0175320D03*
X0150222Y0154159D03*
D48*
X0147782Y0150435D02*
X0144104Y0150435D01*
X0141935Y0152604D01*
X0141935Y0156462D01*
X0138785Y0156462D02*
X0138785Y0152565D01*
X0133490Y0147269D01*
X0133490Y0143332D01*
X0132506Y0142348D01*
X0130045Y0142348D01*
X0140872Y0142742D02*
X0140872Y0144317D01*
X0142037Y0145482D01*
X0147191Y0145482D01*
X0148368Y0146658D01*
X0148368Y0149849D01*
X0147782Y0150435D01*
X0154651Y0164986D02*
X0163017Y0164986D01*
X0163608Y0165576D01*
X0163608Y0167939D01*
X0167332Y0170513D02*
X0169534Y0170513D01*
X0171663Y0168384D01*
X0171663Y0165950D01*
X0171876Y0165737D01*
X0171876Y0153667D01*
X0171383Y0153175D01*
X0166954Y0153175D01*
X0166931Y0153151D01*
X0154651Y0164986D02*
X0152191Y0167446D01*
X0152191Y0170891D01*
X0151383Y0171698D01*
X0149238Y0172702D02*
X0149238Y0175320D01*
X0150222Y0176305D01*
X0149238Y0172702D02*
X0148234Y0171698D01*
X0164002Y0173844D02*
X0167332Y0170513D01*
X0148746Y0130045D02*
X0145399Y0130045D01*
X0145301Y0129946D01*
X0148746Y0130045D02*
X0148746Y0128076D01*
X0148254Y0127584D01*
X0166079Y0095104D02*
X0166167Y0095104D01*
X0143824Y0090576D02*
X0143824Y0087722D01*
X0142840Y0086738D01*
X0139395Y0086738D01*
X0138313Y0085655D01*
X0138313Y0083135D01*
D49*
X0136127Y0086738D02*
X0135950Y0086738D01*
X0134491Y0088197D01*
X0134491Y0092213D01*
X0134474Y0092230D01*
X0134474Y0094612D01*
X0133096Y0095990D01*
X0132013Y0095990D01*
X0137919Y0090773D02*
X0137919Y0090675D01*
X0144612Y0072269D02*
X0155478Y0072269D01*
X0144612Y0072269D02*
X0143824Y0071482D01*
X0164986Y0040970D02*
X0166003Y0040970D01*
X0166503Y0040470D01*
X0168214Y0040470D01*
X0168678Y0040935D01*
X0172887Y0040935D01*
X0173352Y0040470D01*
X0167358Y0042535D02*
X0183775Y0042535D01*
X0190576Y0049336D01*
X0190576Y0060655D01*
X0190084Y0061147D01*
X0190471Y0061140D02*
X0189617Y0061140D01*
X0189937Y0062138D02*
X0189193Y0062138D01*
X0189434Y0063080D02*
X0190993Y0060163D01*
X0190031Y0060163D01*
X0185632Y0070532D01*
X0184275Y0074512D01*
X0184275Y0074798D01*
X0184127Y0074946D01*
X0181997Y0081193D01*
X0179147Y0092090D01*
X0177096Y0103165D01*
X0175855Y0114360D01*
X0175430Y0125616D01*
X0176779Y0125616D01*
X0176774Y0120329D01*
X0176771Y0120327D01*
X0176773Y0119710D01*
X0176773Y0119090D01*
X0176775Y0119088D01*
X0176794Y0113205D01*
X0178102Y0100270D01*
X0180662Y0087524D01*
X0184452Y0075088D01*
X0189434Y0063080D01*
X0189410Y0063137D02*
X0188769Y0063137D01*
X0188996Y0064135D02*
X0188346Y0064135D01*
X0188582Y0065134D02*
X0187922Y0065134D01*
X0188167Y0066132D02*
X0187498Y0066132D01*
X0187753Y0067131D02*
X0187075Y0067131D01*
X0187339Y0068130D02*
X0186651Y0068130D01*
X0186924Y0069128D02*
X0186227Y0069128D01*
X0186510Y0070127D02*
X0185804Y0070127D01*
X0186096Y0071125D02*
X0185429Y0071125D01*
X0185682Y0072124D02*
X0185089Y0072124D01*
X0185267Y0073122D02*
X0184749Y0073122D01*
X0184853Y0074121D02*
X0184408Y0074121D01*
X0184452Y0075088D02*
X0184452Y0075088D01*
X0184442Y0075119D02*
X0184068Y0075119D01*
X0184138Y0076118D02*
X0183727Y0076118D01*
X0183834Y0077116D02*
X0183387Y0077116D01*
X0183529Y0078115D02*
X0183046Y0078115D01*
X0183225Y0079113D02*
X0182706Y0079113D01*
X0182921Y0080112D02*
X0182366Y0080112D01*
X0182617Y0081110D02*
X0182025Y0081110D01*
X0182589Y0081127D02*
X0182589Y0081127D01*
X0182312Y0082109D02*
X0181757Y0082109D01*
X0182008Y0083107D02*
X0181496Y0083107D01*
X0181704Y0084106D02*
X0181235Y0084106D01*
X0181400Y0085104D02*
X0180974Y0085104D01*
X0181095Y0086103D02*
X0180713Y0086103D01*
X0180791Y0087101D02*
X0180452Y0087101D01*
X0180662Y0087524D02*
X0180662Y0087524D01*
X0180547Y0088100D02*
X0180190Y0088100D01*
X0180346Y0089098D02*
X0179929Y0089098D01*
X0180145Y0090097D02*
X0179668Y0090097D01*
X0179407Y0091095D02*
X0179945Y0091095D01*
X0179744Y0092094D02*
X0179146Y0092094D01*
X0178961Y0093092D02*
X0179544Y0093092D01*
X0179343Y0094091D02*
X0178776Y0094091D01*
X0178591Y0095089D02*
X0179142Y0095089D01*
X0178942Y0096088D02*
X0178406Y0096088D01*
X0178221Y0097086D02*
X0178741Y0097086D01*
X0178541Y0098085D02*
X0178036Y0098085D01*
X0177851Y0099083D02*
X0178340Y0099083D01*
X0178140Y0100082D02*
X0177667Y0100082D01*
X0178102Y0100270D02*
X0178102Y0100270D01*
X0178020Y0101080D02*
X0177482Y0101080D01*
X0177297Y0102079D02*
X0177919Y0102079D01*
X0177818Y0103077D02*
X0177112Y0103077D01*
X0177289Y0102978D02*
X0164100Y0102978D01*
X0164002Y0102880D01*
X0176995Y0104076D02*
X0177717Y0104076D01*
X0177616Y0105074D02*
X0176884Y0105074D01*
X0176773Y0106073D02*
X0177515Y0106073D01*
X0177414Y0107071D02*
X0176662Y0107071D01*
X0176552Y0108070D02*
X0177313Y0108070D01*
X0177212Y0109068D02*
X0176441Y0109068D01*
X0176330Y0110067D02*
X0177111Y0110067D01*
X0177010Y0111066D02*
X0176220Y0111066D01*
X0176109Y0112064D02*
X0176910Y0112064D01*
X0176809Y0113063D02*
X0175998Y0113063D01*
X0176794Y0113205D02*
X0176794Y0113205D01*
X0176791Y0114061D02*
X0175888Y0114061D01*
X0175828Y0115060D02*
X0176788Y0115060D01*
X0176785Y0116058D02*
X0175791Y0116058D01*
X0175753Y0117057D02*
X0176782Y0117057D01*
X0176779Y0118055D02*
X0175715Y0118055D01*
X0175678Y0119054D02*
X0176775Y0119054D01*
X0176772Y0120052D02*
X0175640Y0120052D01*
X0175602Y0121051D02*
X0176775Y0121051D01*
X0176776Y0122049D02*
X0175565Y0122049D01*
X0175527Y0123048D02*
X0176777Y0123048D01*
X0176778Y0124046D02*
X0175489Y0124046D01*
X0175452Y0125045D02*
X0176779Y0125045D01*
X0176305Y0125616D02*
X0176305Y0127076D01*
X0173434Y0129946D01*
X0151698Y0129946D01*
X0150714Y0132506D02*
X0151698Y0133490D01*
X0151698Y0135065D01*
X0150714Y0132506D02*
X0138903Y0132506D01*
X0138411Y0132998D01*
X0140519Y0136306D02*
X0140519Y0138058D01*
X0141364Y0138903D01*
X0125616Y0138903D02*
X0124771Y0138058D01*
X0124771Y0136306D01*
X0122171Y0125616D02*
X0122663Y0125124D01*
X0125616Y0125124D01*
X0156128Y0121679D02*
X0156324Y0121482D01*
X0158588Y0121482D01*
X0163608Y0167939D02*
X0167939Y0167939D01*
X0163608Y0167939D02*
X0163608Y0169809D01*
X0162033Y0171383D01*
X0158588Y0171383D01*
X0158096Y0171876D01*
X0158096Y0173844D01*
X0158096Y0176305D01*
X0158490Y0176698D01*
X0158490Y0178765D01*
D50*
X0162525Y0049828D02*
X0151822Y0049828D01*
X0162525Y0049828D02*
X0164986Y0047368D01*
X0164986Y0040970D01*
X0164986Y0032112D01*
X0163509Y0030635D01*
X0152191Y0030635D01*
X0150714Y0032112D01*
X0150714Y0034533D01*
D51*
X0176797Y0062036D02*
X0176797Y0068037D01*
X0172368Y0068037D01*
X0172368Y0071974D01*
X0180734Y0071974D01*
X0180734Y0062036D01*
X0176797Y0062036D01*
X0176797Y0062260D02*
X0180734Y0062260D01*
X0180734Y0062658D02*
X0176797Y0062658D01*
X0176797Y0063057D02*
X0180734Y0063057D01*
X0180734Y0063455D02*
X0176797Y0063455D01*
X0176797Y0063854D02*
X0180734Y0063854D01*
X0180734Y0064252D02*
X0176797Y0064252D01*
X0176797Y0064651D02*
X0180734Y0064651D01*
X0180734Y0065049D02*
X0176797Y0065049D01*
X0176797Y0065448D02*
X0180734Y0065448D01*
X0180734Y0065846D02*
X0176797Y0065846D01*
X0176797Y0066245D02*
X0180734Y0066245D01*
X0180734Y0066643D02*
X0176797Y0066643D01*
X0176797Y0067042D02*
X0180734Y0067042D01*
X0180734Y0067440D02*
X0176797Y0067440D01*
X0176797Y0067839D02*
X0180734Y0067839D01*
X0180734Y0068237D02*
X0172368Y0068237D01*
X0172368Y0068636D02*
X0180734Y0068636D01*
X0180734Y0069034D02*
X0172368Y0069034D01*
X0172368Y0069433D02*
X0180734Y0069433D01*
X0180734Y0069831D02*
X0172368Y0069831D01*
X0172368Y0070230D02*
X0180734Y0070230D01*
X0180734Y0070628D02*
X0172368Y0070628D01*
X0172368Y0071027D02*
X0180734Y0071027D01*
X0180734Y0071425D02*
X0172368Y0071425D01*
X0172368Y0071824D02*
X0180734Y0071824D01*
X0181164Y0072958D02*
X0181148Y0072974D01*
X0171953Y0072974D01*
X0171938Y0072958D01*
X0170829Y0072958D01*
X0170813Y0072974D01*
X0161619Y0072974D01*
X0161603Y0072958D01*
X0161541Y0072958D01*
X0160572Y0071990D01*
X0153667Y0071990D01*
X0153667Y0072591D01*
X0157542Y0072591D01*
X0157694Y0072744D01*
X0158352Y0072744D01*
X0158566Y0072958D01*
X0158588Y0072958D01*
X0164002Y0078372D01*
X0181585Y0078372D01*
X0183431Y0072958D01*
X0181164Y0072958D01*
X0183138Y0073816D02*
X0159446Y0073816D01*
X0159048Y0073418D02*
X0183274Y0073418D01*
X0183410Y0073019D02*
X0158649Y0073019D01*
X0157571Y0072621D02*
X0161204Y0072621D01*
X0160805Y0072222D02*
X0153667Y0072222D01*
X0153680Y0070969D02*
X0156016Y0070969D01*
X0156037Y0070990D01*
X0161049Y0070990D01*
X0162033Y0071974D01*
X0170399Y0071974D01*
X0170399Y0068037D01*
X0160557Y0068037D01*
X0158588Y0070006D01*
X0157909Y0070006D01*
X0157542Y0070372D01*
X0153680Y0070372D01*
X0153680Y0070969D01*
X0153680Y0070628D02*
X0170399Y0070628D01*
X0170399Y0070230D02*
X0157684Y0070230D01*
X0158762Y0069831D02*
X0170399Y0069831D01*
X0170399Y0069433D02*
X0159161Y0069433D01*
X0159559Y0069034D02*
X0170399Y0069034D01*
X0170399Y0068636D02*
X0159958Y0068636D01*
X0160356Y0068237D02*
X0170399Y0068237D01*
X0170399Y0071027D02*
X0161086Y0071027D01*
X0161484Y0071425D02*
X0170399Y0071425D01*
X0170399Y0071824D02*
X0161883Y0071824D01*
X0159845Y0074215D02*
X0183002Y0074215D01*
X0182867Y0074613D02*
X0160243Y0074613D01*
X0160642Y0075012D02*
X0182731Y0075012D01*
X0182595Y0075410D02*
X0161040Y0075410D01*
X0161439Y0075809D02*
X0182459Y0075809D01*
X0182323Y0076207D02*
X0161837Y0076207D01*
X0162236Y0076606D02*
X0182187Y0076606D01*
X0182051Y0077004D02*
X0162634Y0077004D01*
X0163033Y0077403D02*
X0181916Y0077403D01*
X0181780Y0077801D02*
X0163431Y0077801D01*
X0163830Y0078200D02*
X0181644Y0078200D01*
M02*
