G75*
%MOIN*%
%OFA0B0*%
%FSLAX25Y25*%
%IPPOS*%
%LPD*%
%AMOC8*
5,1,8,0,0,1.08239X$1,22.5*
%
%ADD10C,0.00000*%
%ADD11C,0.00039*%
%ADD12C,0.00787*%
%ADD13C,0.00500*%
%ADD14C,0.00200*%
%ADD15C,0.00800*%
%ADD16C,0.00600*%
D10*
X0032750Y0016500D02*
X0032750Y0027524D01*
X0032750Y0016500D02*
X0272907Y0016500D01*
X0272907Y0027524D01*
X0272907Y0027523D02*
X0270093Y0029042D01*
X0267315Y0030628D01*
X0264577Y0032281D01*
X0261880Y0034000D01*
X0259225Y0035784D01*
X0256614Y0037631D01*
X0254048Y0039541D01*
X0251530Y0041513D01*
X0249060Y0043545D01*
X0246640Y0045636D01*
X0244271Y0047785D01*
X0241954Y0049991D01*
X0239692Y0052252D01*
X0237485Y0054567D01*
X0235335Y0056935D01*
X0233243Y0059354D01*
X0231210Y0061823D01*
X0229237Y0064341D01*
X0227326Y0066905D01*
X0225477Y0069515D01*
X0223692Y0072169D01*
X0221972Y0074866D01*
X0220318Y0077603D01*
X0218730Y0080380D01*
X0217210Y0083194D01*
X0215758Y0086044D01*
X0214376Y0088928D01*
X0213064Y0091845D01*
X0211823Y0094793D01*
X0210654Y0097770D01*
X0209557Y0100775D01*
X0208533Y0103805D01*
X0207582Y0106859D01*
X0206706Y0109935D01*
X0205905Y0113031D01*
X0205179Y0116146D01*
X0204528Y0119278D01*
X0203953Y0122424D01*
X0203455Y0125583D01*
X0203033Y0128754D01*
X0202688Y0131934D01*
X0202420Y0135121D01*
X0202229Y0138314D01*
X0202115Y0141510D01*
X0202079Y0144708D01*
X0202120Y0147906D01*
X0202239Y0151103D01*
X0202435Y0154295D01*
X0103222Y0154295D01*
X0103223Y0154295D02*
X0103419Y0151103D01*
X0103538Y0147906D01*
X0103579Y0144708D01*
X0103543Y0141510D01*
X0103429Y0138314D01*
X0103238Y0135121D01*
X0102970Y0131934D01*
X0102625Y0128754D01*
X0102203Y0125583D01*
X0101705Y0122424D01*
X0101130Y0119278D01*
X0100479Y0116146D01*
X0099753Y0113031D01*
X0098952Y0109935D01*
X0098076Y0106859D01*
X0097125Y0103805D01*
X0096101Y0100775D01*
X0095004Y0097770D01*
X0093835Y0094793D01*
X0092594Y0091845D01*
X0091282Y0088928D01*
X0089900Y0086044D01*
X0088448Y0083194D01*
X0086928Y0080380D01*
X0085340Y0077603D01*
X0083686Y0074866D01*
X0081966Y0072169D01*
X0080181Y0069515D01*
X0078332Y0066905D01*
X0076421Y0064341D01*
X0074448Y0061823D01*
X0072415Y0059354D01*
X0070323Y0056935D01*
X0068173Y0054567D01*
X0065966Y0052252D01*
X0063704Y0049991D01*
X0061387Y0047785D01*
X0059018Y0045636D01*
X0056598Y0043545D01*
X0054128Y0041513D01*
X0051610Y0039541D01*
X0049044Y0037631D01*
X0046433Y0035784D01*
X0043778Y0034000D01*
X0041081Y0032281D01*
X0038343Y0030628D01*
X0035565Y0029042D01*
X0032751Y0027523D01*
D11*
X0040624Y0026343D02*
X0040626Y0026496D01*
X0040632Y0026650D01*
X0040642Y0026803D01*
X0040656Y0026955D01*
X0040674Y0027108D01*
X0040696Y0027259D01*
X0040721Y0027410D01*
X0040751Y0027561D01*
X0040785Y0027711D01*
X0040822Y0027859D01*
X0040863Y0028007D01*
X0040908Y0028153D01*
X0040957Y0028299D01*
X0041010Y0028443D01*
X0041066Y0028585D01*
X0041126Y0028726D01*
X0041190Y0028866D01*
X0041257Y0029004D01*
X0041328Y0029140D01*
X0041403Y0029274D01*
X0041480Y0029406D01*
X0041562Y0029536D01*
X0041646Y0029664D01*
X0041734Y0029790D01*
X0041825Y0029913D01*
X0041919Y0030034D01*
X0042017Y0030152D01*
X0042117Y0030268D01*
X0042221Y0030381D01*
X0042327Y0030492D01*
X0042436Y0030600D01*
X0042548Y0030705D01*
X0042662Y0030806D01*
X0042780Y0030905D01*
X0042899Y0031001D01*
X0043021Y0031094D01*
X0043146Y0031183D01*
X0043273Y0031270D01*
X0043402Y0031352D01*
X0043533Y0031432D01*
X0043666Y0031508D01*
X0043801Y0031581D01*
X0043938Y0031650D01*
X0044077Y0031715D01*
X0044217Y0031777D01*
X0044359Y0031835D01*
X0044502Y0031890D01*
X0044647Y0031941D01*
X0044793Y0031988D01*
X0044940Y0032031D01*
X0045088Y0032070D01*
X0045237Y0032106D01*
X0045387Y0032137D01*
X0045538Y0032165D01*
X0045689Y0032189D01*
X0045842Y0032209D01*
X0045994Y0032225D01*
X0046147Y0032237D01*
X0046300Y0032245D01*
X0046453Y0032249D01*
X0046607Y0032249D01*
X0046760Y0032245D01*
X0046913Y0032237D01*
X0047066Y0032225D01*
X0047218Y0032209D01*
X0047371Y0032189D01*
X0047522Y0032165D01*
X0047673Y0032137D01*
X0047823Y0032106D01*
X0047972Y0032070D01*
X0048120Y0032031D01*
X0048267Y0031988D01*
X0048413Y0031941D01*
X0048558Y0031890D01*
X0048701Y0031835D01*
X0048843Y0031777D01*
X0048983Y0031715D01*
X0049122Y0031650D01*
X0049259Y0031581D01*
X0049394Y0031508D01*
X0049527Y0031432D01*
X0049658Y0031352D01*
X0049787Y0031270D01*
X0049914Y0031183D01*
X0050039Y0031094D01*
X0050161Y0031001D01*
X0050280Y0030905D01*
X0050398Y0030806D01*
X0050512Y0030705D01*
X0050624Y0030600D01*
X0050733Y0030492D01*
X0050839Y0030381D01*
X0050943Y0030268D01*
X0051043Y0030152D01*
X0051141Y0030034D01*
X0051235Y0029913D01*
X0051326Y0029790D01*
X0051414Y0029664D01*
X0051498Y0029536D01*
X0051580Y0029406D01*
X0051657Y0029274D01*
X0051732Y0029140D01*
X0051803Y0029004D01*
X0051870Y0028866D01*
X0051934Y0028726D01*
X0051994Y0028585D01*
X0052050Y0028443D01*
X0052103Y0028299D01*
X0052152Y0028153D01*
X0052197Y0028007D01*
X0052238Y0027859D01*
X0052275Y0027711D01*
X0052309Y0027561D01*
X0052339Y0027410D01*
X0052364Y0027259D01*
X0052386Y0027108D01*
X0052404Y0026955D01*
X0052418Y0026803D01*
X0052428Y0026650D01*
X0052434Y0026496D01*
X0052436Y0026343D01*
X0052434Y0026190D01*
X0052428Y0026036D01*
X0052418Y0025883D01*
X0052404Y0025731D01*
X0052386Y0025578D01*
X0052364Y0025427D01*
X0052339Y0025276D01*
X0052309Y0025125D01*
X0052275Y0024975D01*
X0052238Y0024827D01*
X0052197Y0024679D01*
X0052152Y0024533D01*
X0052103Y0024387D01*
X0052050Y0024243D01*
X0051994Y0024101D01*
X0051934Y0023960D01*
X0051870Y0023820D01*
X0051803Y0023682D01*
X0051732Y0023546D01*
X0051657Y0023412D01*
X0051580Y0023280D01*
X0051498Y0023150D01*
X0051414Y0023022D01*
X0051326Y0022896D01*
X0051235Y0022773D01*
X0051141Y0022652D01*
X0051043Y0022534D01*
X0050943Y0022418D01*
X0050839Y0022305D01*
X0050733Y0022194D01*
X0050624Y0022086D01*
X0050512Y0021981D01*
X0050398Y0021880D01*
X0050280Y0021781D01*
X0050161Y0021685D01*
X0050039Y0021592D01*
X0049914Y0021503D01*
X0049787Y0021416D01*
X0049658Y0021334D01*
X0049527Y0021254D01*
X0049394Y0021178D01*
X0049259Y0021105D01*
X0049122Y0021036D01*
X0048983Y0020971D01*
X0048843Y0020909D01*
X0048701Y0020851D01*
X0048558Y0020796D01*
X0048413Y0020745D01*
X0048267Y0020698D01*
X0048120Y0020655D01*
X0047972Y0020616D01*
X0047823Y0020580D01*
X0047673Y0020549D01*
X0047522Y0020521D01*
X0047371Y0020497D01*
X0047218Y0020477D01*
X0047066Y0020461D01*
X0046913Y0020449D01*
X0046760Y0020441D01*
X0046607Y0020437D01*
X0046453Y0020437D01*
X0046300Y0020441D01*
X0046147Y0020449D01*
X0045994Y0020461D01*
X0045842Y0020477D01*
X0045689Y0020497D01*
X0045538Y0020521D01*
X0045387Y0020549D01*
X0045237Y0020580D01*
X0045088Y0020616D01*
X0044940Y0020655D01*
X0044793Y0020698D01*
X0044647Y0020745D01*
X0044502Y0020796D01*
X0044359Y0020851D01*
X0044217Y0020909D01*
X0044077Y0020971D01*
X0043938Y0021036D01*
X0043801Y0021105D01*
X0043666Y0021178D01*
X0043533Y0021254D01*
X0043402Y0021334D01*
X0043273Y0021416D01*
X0043146Y0021503D01*
X0043021Y0021592D01*
X0042899Y0021685D01*
X0042780Y0021781D01*
X0042662Y0021880D01*
X0042548Y0021981D01*
X0042436Y0022086D01*
X0042327Y0022194D01*
X0042221Y0022305D01*
X0042117Y0022418D01*
X0042017Y0022534D01*
X0041919Y0022652D01*
X0041825Y0022773D01*
X0041734Y0022896D01*
X0041646Y0023022D01*
X0041562Y0023150D01*
X0041480Y0023280D01*
X0041403Y0023412D01*
X0041328Y0023546D01*
X0041257Y0023682D01*
X0041190Y0023820D01*
X0041126Y0023960D01*
X0041066Y0024101D01*
X0041010Y0024243D01*
X0040957Y0024387D01*
X0040908Y0024533D01*
X0040863Y0024679D01*
X0040822Y0024827D01*
X0040785Y0024975D01*
X0040751Y0025125D01*
X0040721Y0025276D01*
X0040696Y0025427D01*
X0040674Y0025578D01*
X0040656Y0025731D01*
X0040642Y0025883D01*
X0040632Y0026036D01*
X0040626Y0026190D01*
X0040624Y0026343D01*
X0109521Y0142484D02*
X0109523Y0142637D01*
X0109529Y0142791D01*
X0109539Y0142944D01*
X0109553Y0143096D01*
X0109571Y0143249D01*
X0109593Y0143400D01*
X0109618Y0143551D01*
X0109648Y0143702D01*
X0109682Y0143852D01*
X0109719Y0144000D01*
X0109760Y0144148D01*
X0109805Y0144294D01*
X0109854Y0144440D01*
X0109907Y0144584D01*
X0109963Y0144726D01*
X0110023Y0144867D01*
X0110087Y0145007D01*
X0110154Y0145145D01*
X0110225Y0145281D01*
X0110300Y0145415D01*
X0110377Y0145547D01*
X0110459Y0145677D01*
X0110543Y0145805D01*
X0110631Y0145931D01*
X0110722Y0146054D01*
X0110816Y0146175D01*
X0110914Y0146293D01*
X0111014Y0146409D01*
X0111118Y0146522D01*
X0111224Y0146633D01*
X0111333Y0146741D01*
X0111445Y0146846D01*
X0111559Y0146947D01*
X0111677Y0147046D01*
X0111796Y0147142D01*
X0111918Y0147235D01*
X0112043Y0147324D01*
X0112170Y0147411D01*
X0112299Y0147493D01*
X0112430Y0147573D01*
X0112563Y0147649D01*
X0112698Y0147722D01*
X0112835Y0147791D01*
X0112974Y0147856D01*
X0113114Y0147918D01*
X0113256Y0147976D01*
X0113399Y0148031D01*
X0113544Y0148082D01*
X0113690Y0148129D01*
X0113837Y0148172D01*
X0113985Y0148211D01*
X0114134Y0148247D01*
X0114284Y0148278D01*
X0114435Y0148306D01*
X0114586Y0148330D01*
X0114739Y0148350D01*
X0114891Y0148366D01*
X0115044Y0148378D01*
X0115197Y0148386D01*
X0115350Y0148390D01*
X0115504Y0148390D01*
X0115657Y0148386D01*
X0115810Y0148378D01*
X0115963Y0148366D01*
X0116115Y0148350D01*
X0116268Y0148330D01*
X0116419Y0148306D01*
X0116570Y0148278D01*
X0116720Y0148247D01*
X0116869Y0148211D01*
X0117017Y0148172D01*
X0117164Y0148129D01*
X0117310Y0148082D01*
X0117455Y0148031D01*
X0117598Y0147976D01*
X0117740Y0147918D01*
X0117880Y0147856D01*
X0118019Y0147791D01*
X0118156Y0147722D01*
X0118291Y0147649D01*
X0118424Y0147573D01*
X0118555Y0147493D01*
X0118684Y0147411D01*
X0118811Y0147324D01*
X0118936Y0147235D01*
X0119058Y0147142D01*
X0119177Y0147046D01*
X0119295Y0146947D01*
X0119409Y0146846D01*
X0119521Y0146741D01*
X0119630Y0146633D01*
X0119736Y0146522D01*
X0119840Y0146409D01*
X0119940Y0146293D01*
X0120038Y0146175D01*
X0120132Y0146054D01*
X0120223Y0145931D01*
X0120311Y0145805D01*
X0120395Y0145677D01*
X0120477Y0145547D01*
X0120554Y0145415D01*
X0120629Y0145281D01*
X0120700Y0145145D01*
X0120767Y0145007D01*
X0120831Y0144867D01*
X0120891Y0144726D01*
X0120947Y0144584D01*
X0121000Y0144440D01*
X0121049Y0144294D01*
X0121094Y0144148D01*
X0121135Y0144000D01*
X0121172Y0143852D01*
X0121206Y0143702D01*
X0121236Y0143551D01*
X0121261Y0143400D01*
X0121283Y0143249D01*
X0121301Y0143096D01*
X0121315Y0142944D01*
X0121325Y0142791D01*
X0121331Y0142637D01*
X0121333Y0142484D01*
X0121331Y0142331D01*
X0121325Y0142177D01*
X0121315Y0142024D01*
X0121301Y0141872D01*
X0121283Y0141719D01*
X0121261Y0141568D01*
X0121236Y0141417D01*
X0121206Y0141266D01*
X0121172Y0141116D01*
X0121135Y0140968D01*
X0121094Y0140820D01*
X0121049Y0140674D01*
X0121000Y0140528D01*
X0120947Y0140384D01*
X0120891Y0140242D01*
X0120831Y0140101D01*
X0120767Y0139961D01*
X0120700Y0139823D01*
X0120629Y0139687D01*
X0120554Y0139553D01*
X0120477Y0139421D01*
X0120395Y0139291D01*
X0120311Y0139163D01*
X0120223Y0139037D01*
X0120132Y0138914D01*
X0120038Y0138793D01*
X0119940Y0138675D01*
X0119840Y0138559D01*
X0119736Y0138446D01*
X0119630Y0138335D01*
X0119521Y0138227D01*
X0119409Y0138122D01*
X0119295Y0138021D01*
X0119177Y0137922D01*
X0119058Y0137826D01*
X0118936Y0137733D01*
X0118811Y0137644D01*
X0118684Y0137557D01*
X0118555Y0137475D01*
X0118424Y0137395D01*
X0118291Y0137319D01*
X0118156Y0137246D01*
X0118019Y0137177D01*
X0117880Y0137112D01*
X0117740Y0137050D01*
X0117598Y0136992D01*
X0117455Y0136937D01*
X0117310Y0136886D01*
X0117164Y0136839D01*
X0117017Y0136796D01*
X0116869Y0136757D01*
X0116720Y0136721D01*
X0116570Y0136690D01*
X0116419Y0136662D01*
X0116268Y0136638D01*
X0116115Y0136618D01*
X0115963Y0136602D01*
X0115810Y0136590D01*
X0115657Y0136582D01*
X0115504Y0136578D01*
X0115350Y0136578D01*
X0115197Y0136582D01*
X0115044Y0136590D01*
X0114891Y0136602D01*
X0114739Y0136618D01*
X0114586Y0136638D01*
X0114435Y0136662D01*
X0114284Y0136690D01*
X0114134Y0136721D01*
X0113985Y0136757D01*
X0113837Y0136796D01*
X0113690Y0136839D01*
X0113544Y0136886D01*
X0113399Y0136937D01*
X0113256Y0136992D01*
X0113114Y0137050D01*
X0112974Y0137112D01*
X0112835Y0137177D01*
X0112698Y0137246D01*
X0112563Y0137319D01*
X0112430Y0137395D01*
X0112299Y0137475D01*
X0112170Y0137557D01*
X0112043Y0137644D01*
X0111918Y0137733D01*
X0111796Y0137826D01*
X0111677Y0137922D01*
X0111559Y0138021D01*
X0111445Y0138122D01*
X0111333Y0138227D01*
X0111224Y0138335D01*
X0111118Y0138446D01*
X0111014Y0138559D01*
X0110914Y0138675D01*
X0110816Y0138793D01*
X0110722Y0138914D01*
X0110631Y0139037D01*
X0110543Y0139163D01*
X0110459Y0139291D01*
X0110377Y0139421D01*
X0110300Y0139553D01*
X0110225Y0139687D01*
X0110154Y0139823D01*
X0110087Y0139961D01*
X0110023Y0140101D01*
X0109963Y0140242D01*
X0109907Y0140384D01*
X0109854Y0140528D01*
X0109805Y0140674D01*
X0109760Y0140820D01*
X0109719Y0140968D01*
X0109682Y0141116D01*
X0109648Y0141266D01*
X0109618Y0141417D01*
X0109593Y0141568D01*
X0109571Y0141719D01*
X0109553Y0141872D01*
X0109539Y0142024D01*
X0109529Y0142177D01*
X0109523Y0142331D01*
X0109521Y0142484D01*
X0184324Y0142484D02*
X0184326Y0142637D01*
X0184332Y0142791D01*
X0184342Y0142944D01*
X0184356Y0143096D01*
X0184374Y0143249D01*
X0184396Y0143400D01*
X0184421Y0143551D01*
X0184451Y0143702D01*
X0184485Y0143852D01*
X0184522Y0144000D01*
X0184563Y0144148D01*
X0184608Y0144294D01*
X0184657Y0144440D01*
X0184710Y0144584D01*
X0184766Y0144726D01*
X0184826Y0144867D01*
X0184890Y0145007D01*
X0184957Y0145145D01*
X0185028Y0145281D01*
X0185103Y0145415D01*
X0185180Y0145547D01*
X0185262Y0145677D01*
X0185346Y0145805D01*
X0185434Y0145931D01*
X0185525Y0146054D01*
X0185619Y0146175D01*
X0185717Y0146293D01*
X0185817Y0146409D01*
X0185921Y0146522D01*
X0186027Y0146633D01*
X0186136Y0146741D01*
X0186248Y0146846D01*
X0186362Y0146947D01*
X0186480Y0147046D01*
X0186599Y0147142D01*
X0186721Y0147235D01*
X0186846Y0147324D01*
X0186973Y0147411D01*
X0187102Y0147493D01*
X0187233Y0147573D01*
X0187366Y0147649D01*
X0187501Y0147722D01*
X0187638Y0147791D01*
X0187777Y0147856D01*
X0187917Y0147918D01*
X0188059Y0147976D01*
X0188202Y0148031D01*
X0188347Y0148082D01*
X0188493Y0148129D01*
X0188640Y0148172D01*
X0188788Y0148211D01*
X0188937Y0148247D01*
X0189087Y0148278D01*
X0189238Y0148306D01*
X0189389Y0148330D01*
X0189542Y0148350D01*
X0189694Y0148366D01*
X0189847Y0148378D01*
X0190000Y0148386D01*
X0190153Y0148390D01*
X0190307Y0148390D01*
X0190460Y0148386D01*
X0190613Y0148378D01*
X0190766Y0148366D01*
X0190918Y0148350D01*
X0191071Y0148330D01*
X0191222Y0148306D01*
X0191373Y0148278D01*
X0191523Y0148247D01*
X0191672Y0148211D01*
X0191820Y0148172D01*
X0191967Y0148129D01*
X0192113Y0148082D01*
X0192258Y0148031D01*
X0192401Y0147976D01*
X0192543Y0147918D01*
X0192683Y0147856D01*
X0192822Y0147791D01*
X0192959Y0147722D01*
X0193094Y0147649D01*
X0193227Y0147573D01*
X0193358Y0147493D01*
X0193487Y0147411D01*
X0193614Y0147324D01*
X0193739Y0147235D01*
X0193861Y0147142D01*
X0193980Y0147046D01*
X0194098Y0146947D01*
X0194212Y0146846D01*
X0194324Y0146741D01*
X0194433Y0146633D01*
X0194539Y0146522D01*
X0194643Y0146409D01*
X0194743Y0146293D01*
X0194841Y0146175D01*
X0194935Y0146054D01*
X0195026Y0145931D01*
X0195114Y0145805D01*
X0195198Y0145677D01*
X0195280Y0145547D01*
X0195357Y0145415D01*
X0195432Y0145281D01*
X0195503Y0145145D01*
X0195570Y0145007D01*
X0195634Y0144867D01*
X0195694Y0144726D01*
X0195750Y0144584D01*
X0195803Y0144440D01*
X0195852Y0144294D01*
X0195897Y0144148D01*
X0195938Y0144000D01*
X0195975Y0143852D01*
X0196009Y0143702D01*
X0196039Y0143551D01*
X0196064Y0143400D01*
X0196086Y0143249D01*
X0196104Y0143096D01*
X0196118Y0142944D01*
X0196128Y0142791D01*
X0196134Y0142637D01*
X0196136Y0142484D01*
X0196134Y0142331D01*
X0196128Y0142177D01*
X0196118Y0142024D01*
X0196104Y0141872D01*
X0196086Y0141719D01*
X0196064Y0141568D01*
X0196039Y0141417D01*
X0196009Y0141266D01*
X0195975Y0141116D01*
X0195938Y0140968D01*
X0195897Y0140820D01*
X0195852Y0140674D01*
X0195803Y0140528D01*
X0195750Y0140384D01*
X0195694Y0140242D01*
X0195634Y0140101D01*
X0195570Y0139961D01*
X0195503Y0139823D01*
X0195432Y0139687D01*
X0195357Y0139553D01*
X0195280Y0139421D01*
X0195198Y0139291D01*
X0195114Y0139163D01*
X0195026Y0139037D01*
X0194935Y0138914D01*
X0194841Y0138793D01*
X0194743Y0138675D01*
X0194643Y0138559D01*
X0194539Y0138446D01*
X0194433Y0138335D01*
X0194324Y0138227D01*
X0194212Y0138122D01*
X0194098Y0138021D01*
X0193980Y0137922D01*
X0193861Y0137826D01*
X0193739Y0137733D01*
X0193614Y0137644D01*
X0193487Y0137557D01*
X0193358Y0137475D01*
X0193227Y0137395D01*
X0193094Y0137319D01*
X0192959Y0137246D01*
X0192822Y0137177D01*
X0192683Y0137112D01*
X0192543Y0137050D01*
X0192401Y0136992D01*
X0192258Y0136937D01*
X0192113Y0136886D01*
X0191967Y0136839D01*
X0191820Y0136796D01*
X0191672Y0136757D01*
X0191523Y0136721D01*
X0191373Y0136690D01*
X0191222Y0136662D01*
X0191071Y0136638D01*
X0190918Y0136618D01*
X0190766Y0136602D01*
X0190613Y0136590D01*
X0190460Y0136582D01*
X0190307Y0136578D01*
X0190153Y0136578D01*
X0190000Y0136582D01*
X0189847Y0136590D01*
X0189694Y0136602D01*
X0189542Y0136618D01*
X0189389Y0136638D01*
X0189238Y0136662D01*
X0189087Y0136690D01*
X0188937Y0136721D01*
X0188788Y0136757D01*
X0188640Y0136796D01*
X0188493Y0136839D01*
X0188347Y0136886D01*
X0188202Y0136937D01*
X0188059Y0136992D01*
X0187917Y0137050D01*
X0187777Y0137112D01*
X0187638Y0137177D01*
X0187501Y0137246D01*
X0187366Y0137319D01*
X0187233Y0137395D01*
X0187102Y0137475D01*
X0186973Y0137557D01*
X0186846Y0137644D01*
X0186721Y0137733D01*
X0186599Y0137826D01*
X0186480Y0137922D01*
X0186362Y0138021D01*
X0186248Y0138122D01*
X0186136Y0138227D01*
X0186027Y0138335D01*
X0185921Y0138446D01*
X0185817Y0138559D01*
X0185717Y0138675D01*
X0185619Y0138793D01*
X0185525Y0138914D01*
X0185434Y0139037D01*
X0185346Y0139163D01*
X0185262Y0139291D01*
X0185180Y0139421D01*
X0185103Y0139553D01*
X0185028Y0139687D01*
X0184957Y0139823D01*
X0184890Y0139961D01*
X0184826Y0140101D01*
X0184766Y0140242D01*
X0184710Y0140384D01*
X0184657Y0140528D01*
X0184608Y0140674D01*
X0184563Y0140820D01*
X0184522Y0140968D01*
X0184485Y0141116D01*
X0184451Y0141266D01*
X0184421Y0141417D01*
X0184396Y0141568D01*
X0184374Y0141719D01*
X0184356Y0141872D01*
X0184342Y0142024D01*
X0184332Y0142177D01*
X0184326Y0142331D01*
X0184324Y0142484D01*
X0253222Y0026343D02*
X0253224Y0026496D01*
X0253230Y0026650D01*
X0253240Y0026803D01*
X0253254Y0026955D01*
X0253272Y0027108D01*
X0253294Y0027259D01*
X0253319Y0027410D01*
X0253349Y0027561D01*
X0253383Y0027711D01*
X0253420Y0027859D01*
X0253461Y0028007D01*
X0253506Y0028153D01*
X0253555Y0028299D01*
X0253608Y0028443D01*
X0253664Y0028585D01*
X0253724Y0028726D01*
X0253788Y0028866D01*
X0253855Y0029004D01*
X0253926Y0029140D01*
X0254001Y0029274D01*
X0254078Y0029406D01*
X0254160Y0029536D01*
X0254244Y0029664D01*
X0254332Y0029790D01*
X0254423Y0029913D01*
X0254517Y0030034D01*
X0254615Y0030152D01*
X0254715Y0030268D01*
X0254819Y0030381D01*
X0254925Y0030492D01*
X0255034Y0030600D01*
X0255146Y0030705D01*
X0255260Y0030806D01*
X0255378Y0030905D01*
X0255497Y0031001D01*
X0255619Y0031094D01*
X0255744Y0031183D01*
X0255871Y0031270D01*
X0256000Y0031352D01*
X0256131Y0031432D01*
X0256264Y0031508D01*
X0256399Y0031581D01*
X0256536Y0031650D01*
X0256675Y0031715D01*
X0256815Y0031777D01*
X0256957Y0031835D01*
X0257100Y0031890D01*
X0257245Y0031941D01*
X0257391Y0031988D01*
X0257538Y0032031D01*
X0257686Y0032070D01*
X0257835Y0032106D01*
X0257985Y0032137D01*
X0258136Y0032165D01*
X0258287Y0032189D01*
X0258440Y0032209D01*
X0258592Y0032225D01*
X0258745Y0032237D01*
X0258898Y0032245D01*
X0259051Y0032249D01*
X0259205Y0032249D01*
X0259358Y0032245D01*
X0259511Y0032237D01*
X0259664Y0032225D01*
X0259816Y0032209D01*
X0259969Y0032189D01*
X0260120Y0032165D01*
X0260271Y0032137D01*
X0260421Y0032106D01*
X0260570Y0032070D01*
X0260718Y0032031D01*
X0260865Y0031988D01*
X0261011Y0031941D01*
X0261156Y0031890D01*
X0261299Y0031835D01*
X0261441Y0031777D01*
X0261581Y0031715D01*
X0261720Y0031650D01*
X0261857Y0031581D01*
X0261992Y0031508D01*
X0262125Y0031432D01*
X0262256Y0031352D01*
X0262385Y0031270D01*
X0262512Y0031183D01*
X0262637Y0031094D01*
X0262759Y0031001D01*
X0262878Y0030905D01*
X0262996Y0030806D01*
X0263110Y0030705D01*
X0263222Y0030600D01*
X0263331Y0030492D01*
X0263437Y0030381D01*
X0263541Y0030268D01*
X0263641Y0030152D01*
X0263739Y0030034D01*
X0263833Y0029913D01*
X0263924Y0029790D01*
X0264012Y0029664D01*
X0264096Y0029536D01*
X0264178Y0029406D01*
X0264255Y0029274D01*
X0264330Y0029140D01*
X0264401Y0029004D01*
X0264468Y0028866D01*
X0264532Y0028726D01*
X0264592Y0028585D01*
X0264648Y0028443D01*
X0264701Y0028299D01*
X0264750Y0028153D01*
X0264795Y0028007D01*
X0264836Y0027859D01*
X0264873Y0027711D01*
X0264907Y0027561D01*
X0264937Y0027410D01*
X0264962Y0027259D01*
X0264984Y0027108D01*
X0265002Y0026955D01*
X0265016Y0026803D01*
X0265026Y0026650D01*
X0265032Y0026496D01*
X0265034Y0026343D01*
X0265032Y0026190D01*
X0265026Y0026036D01*
X0265016Y0025883D01*
X0265002Y0025731D01*
X0264984Y0025578D01*
X0264962Y0025427D01*
X0264937Y0025276D01*
X0264907Y0025125D01*
X0264873Y0024975D01*
X0264836Y0024827D01*
X0264795Y0024679D01*
X0264750Y0024533D01*
X0264701Y0024387D01*
X0264648Y0024243D01*
X0264592Y0024101D01*
X0264532Y0023960D01*
X0264468Y0023820D01*
X0264401Y0023682D01*
X0264330Y0023546D01*
X0264255Y0023412D01*
X0264178Y0023280D01*
X0264096Y0023150D01*
X0264012Y0023022D01*
X0263924Y0022896D01*
X0263833Y0022773D01*
X0263739Y0022652D01*
X0263641Y0022534D01*
X0263541Y0022418D01*
X0263437Y0022305D01*
X0263331Y0022194D01*
X0263222Y0022086D01*
X0263110Y0021981D01*
X0262996Y0021880D01*
X0262878Y0021781D01*
X0262759Y0021685D01*
X0262637Y0021592D01*
X0262512Y0021503D01*
X0262385Y0021416D01*
X0262256Y0021334D01*
X0262125Y0021254D01*
X0261992Y0021178D01*
X0261857Y0021105D01*
X0261720Y0021036D01*
X0261581Y0020971D01*
X0261441Y0020909D01*
X0261299Y0020851D01*
X0261156Y0020796D01*
X0261011Y0020745D01*
X0260865Y0020698D01*
X0260718Y0020655D01*
X0260570Y0020616D01*
X0260421Y0020580D01*
X0260271Y0020549D01*
X0260120Y0020521D01*
X0259969Y0020497D01*
X0259816Y0020477D01*
X0259664Y0020461D01*
X0259511Y0020449D01*
X0259358Y0020441D01*
X0259205Y0020437D01*
X0259051Y0020437D01*
X0258898Y0020441D01*
X0258745Y0020449D01*
X0258592Y0020461D01*
X0258440Y0020477D01*
X0258287Y0020497D01*
X0258136Y0020521D01*
X0257985Y0020549D01*
X0257835Y0020580D01*
X0257686Y0020616D01*
X0257538Y0020655D01*
X0257391Y0020698D01*
X0257245Y0020745D01*
X0257100Y0020796D01*
X0256957Y0020851D01*
X0256815Y0020909D01*
X0256675Y0020971D01*
X0256536Y0021036D01*
X0256399Y0021105D01*
X0256264Y0021178D01*
X0256131Y0021254D01*
X0256000Y0021334D01*
X0255871Y0021416D01*
X0255744Y0021503D01*
X0255619Y0021592D01*
X0255497Y0021685D01*
X0255378Y0021781D01*
X0255260Y0021880D01*
X0255146Y0021981D01*
X0255034Y0022086D01*
X0254925Y0022194D01*
X0254819Y0022305D01*
X0254715Y0022418D01*
X0254615Y0022534D01*
X0254517Y0022652D01*
X0254423Y0022773D01*
X0254332Y0022896D01*
X0254244Y0023022D01*
X0254160Y0023150D01*
X0254078Y0023280D01*
X0254001Y0023412D01*
X0253926Y0023546D01*
X0253855Y0023682D01*
X0253788Y0023820D01*
X0253724Y0023960D01*
X0253664Y0024101D01*
X0253608Y0024243D01*
X0253555Y0024387D01*
X0253506Y0024533D01*
X0253461Y0024679D01*
X0253420Y0024827D01*
X0253383Y0024975D01*
X0253349Y0025125D01*
X0253319Y0025276D01*
X0253294Y0025427D01*
X0253272Y0025578D01*
X0253254Y0025731D01*
X0253240Y0025883D01*
X0253230Y0026036D01*
X0253224Y0026190D01*
X0253222Y0026343D01*
D12*
X0221559Y0057563D02*
X0221561Y0057602D01*
X0221567Y0057641D01*
X0221577Y0057679D01*
X0221590Y0057716D01*
X0221607Y0057751D01*
X0221627Y0057785D01*
X0221651Y0057816D01*
X0221678Y0057845D01*
X0221707Y0057871D01*
X0221739Y0057894D01*
X0221773Y0057914D01*
X0221809Y0057930D01*
X0221846Y0057942D01*
X0221885Y0057951D01*
X0221924Y0057956D01*
X0221963Y0057957D01*
X0222002Y0057954D01*
X0222041Y0057947D01*
X0222078Y0057936D01*
X0222115Y0057922D01*
X0222150Y0057904D01*
X0222183Y0057883D01*
X0222214Y0057858D01*
X0222242Y0057831D01*
X0222267Y0057801D01*
X0222289Y0057768D01*
X0222308Y0057734D01*
X0222323Y0057698D01*
X0222335Y0057660D01*
X0222343Y0057622D01*
X0222347Y0057583D01*
X0222347Y0057543D01*
X0222343Y0057504D01*
X0222335Y0057466D01*
X0222323Y0057428D01*
X0222308Y0057392D01*
X0222289Y0057358D01*
X0222267Y0057325D01*
X0222242Y0057295D01*
X0222214Y0057268D01*
X0222183Y0057243D01*
X0222150Y0057222D01*
X0222115Y0057204D01*
X0222078Y0057190D01*
X0222041Y0057179D01*
X0222002Y0057172D01*
X0221963Y0057169D01*
X0221924Y0057170D01*
X0221885Y0057175D01*
X0221846Y0057184D01*
X0221809Y0057196D01*
X0221773Y0057212D01*
X0221739Y0057232D01*
X0221707Y0057255D01*
X0221678Y0057281D01*
X0221651Y0057310D01*
X0221627Y0057341D01*
X0221607Y0057375D01*
X0221590Y0057410D01*
X0221577Y0057447D01*
X0221567Y0057485D01*
X0221561Y0057524D01*
X0221559Y0057563D01*
D13*
X0213882Y0059630D02*
X0196559Y0059630D01*
X0196559Y0047819D02*
X0213882Y0047819D01*
D14*
X0215288Y0061324D02*
X0215777Y0061324D01*
X0215820Y0061326D01*
X0215862Y0061331D01*
X0215904Y0061341D01*
X0215944Y0061353D01*
X0215984Y0061370D01*
X0216022Y0061390D01*
X0216057Y0061412D01*
X0216091Y0061438D01*
X0216123Y0061467D01*
X0216152Y0061499D01*
X0216178Y0061533D01*
X0216200Y0061569D01*
X0216220Y0061606D01*
X0216237Y0061646D01*
X0216249Y0061686D01*
X0216259Y0061728D01*
X0216264Y0061770D01*
X0216266Y0061813D01*
X0216266Y0063036D01*
X0216264Y0063079D01*
X0216259Y0063121D01*
X0216249Y0063163D01*
X0216237Y0063203D01*
X0216220Y0063243D01*
X0216200Y0063281D01*
X0216178Y0063316D01*
X0216152Y0063350D01*
X0216123Y0063382D01*
X0216091Y0063411D01*
X0216057Y0063437D01*
X0216022Y0063459D01*
X0215984Y0063479D01*
X0215944Y0063496D01*
X0215904Y0063508D01*
X0215862Y0063518D01*
X0215820Y0063523D01*
X0215777Y0063525D01*
X0215777Y0063524D02*
X0215288Y0063524D01*
X0214337Y0063036D02*
X0214335Y0062993D01*
X0214330Y0062951D01*
X0214320Y0062909D01*
X0214308Y0062869D01*
X0214291Y0062829D01*
X0214271Y0062792D01*
X0214249Y0062756D01*
X0214223Y0062722D01*
X0214194Y0062690D01*
X0214162Y0062661D01*
X0214128Y0062635D01*
X0214093Y0062613D01*
X0214055Y0062593D01*
X0214015Y0062576D01*
X0213975Y0062564D01*
X0213933Y0062554D01*
X0213891Y0062549D01*
X0213848Y0062547D01*
X0213805Y0062549D01*
X0213763Y0062554D01*
X0213721Y0062564D01*
X0213681Y0062576D01*
X0213641Y0062593D01*
X0213604Y0062613D01*
X0213568Y0062635D01*
X0213534Y0062661D01*
X0213502Y0062690D01*
X0213473Y0062722D01*
X0213447Y0062756D01*
X0213425Y0062792D01*
X0213405Y0062829D01*
X0213388Y0062869D01*
X0213376Y0062909D01*
X0213366Y0062951D01*
X0213361Y0062993D01*
X0213359Y0063036D01*
X0213361Y0063079D01*
X0213366Y0063121D01*
X0213376Y0063163D01*
X0213388Y0063203D01*
X0213405Y0063243D01*
X0213425Y0063281D01*
X0213447Y0063316D01*
X0213473Y0063350D01*
X0213502Y0063382D01*
X0213534Y0063411D01*
X0213568Y0063437D01*
X0213604Y0063459D01*
X0213641Y0063479D01*
X0213681Y0063496D01*
X0213721Y0063508D01*
X0213763Y0063518D01*
X0213805Y0063523D01*
X0213848Y0063525D01*
X0213891Y0063523D01*
X0213933Y0063518D01*
X0213975Y0063508D01*
X0214015Y0063496D01*
X0214055Y0063479D01*
X0214093Y0063459D01*
X0214128Y0063437D01*
X0214162Y0063411D01*
X0214194Y0063382D01*
X0214223Y0063350D01*
X0214249Y0063316D01*
X0214271Y0063281D01*
X0214291Y0063243D01*
X0214308Y0063203D01*
X0214320Y0063163D01*
X0214330Y0063121D01*
X0214335Y0063079D01*
X0214337Y0063036D01*
X0214459Y0061936D02*
X0214457Y0061888D01*
X0214451Y0061840D01*
X0214442Y0061793D01*
X0214429Y0061747D01*
X0214412Y0061702D01*
X0214392Y0061659D01*
X0214369Y0061617D01*
X0214342Y0061577D01*
X0214313Y0061539D01*
X0214280Y0061504D01*
X0214245Y0061471D01*
X0214207Y0061442D01*
X0214167Y0061415D01*
X0214125Y0061392D01*
X0214082Y0061372D01*
X0214037Y0061355D01*
X0213991Y0061342D01*
X0213944Y0061333D01*
X0213896Y0061327D01*
X0213848Y0061325D01*
X0213800Y0061327D01*
X0213752Y0061333D01*
X0213705Y0061342D01*
X0213659Y0061355D01*
X0213614Y0061372D01*
X0213571Y0061392D01*
X0213529Y0061415D01*
X0213489Y0061442D01*
X0213451Y0061471D01*
X0213416Y0061504D01*
X0213383Y0061539D01*
X0213354Y0061577D01*
X0213327Y0061617D01*
X0213304Y0061659D01*
X0213284Y0061702D01*
X0213267Y0061747D01*
X0213254Y0061793D01*
X0213245Y0061840D01*
X0213239Y0061888D01*
X0213237Y0061936D01*
X0213239Y0061984D01*
X0213245Y0062032D01*
X0213254Y0062079D01*
X0213267Y0062125D01*
X0213284Y0062170D01*
X0213304Y0062213D01*
X0213327Y0062255D01*
X0213354Y0062295D01*
X0213383Y0062333D01*
X0213416Y0062368D01*
X0213451Y0062401D01*
X0213489Y0062430D01*
X0213529Y0062457D01*
X0213571Y0062480D01*
X0213614Y0062500D01*
X0213659Y0062517D01*
X0213705Y0062530D01*
X0213752Y0062539D01*
X0213800Y0062545D01*
X0213848Y0062547D01*
X0213896Y0062545D01*
X0213944Y0062539D01*
X0213991Y0062530D01*
X0214037Y0062517D01*
X0214082Y0062500D01*
X0214125Y0062480D01*
X0214167Y0062457D01*
X0214207Y0062430D01*
X0214245Y0062401D01*
X0214280Y0062368D01*
X0214313Y0062333D01*
X0214342Y0062295D01*
X0214369Y0062255D01*
X0214392Y0062213D01*
X0214412Y0062170D01*
X0214429Y0062125D01*
X0214442Y0062079D01*
X0214451Y0062032D01*
X0214457Y0061984D01*
X0214459Y0061936D01*
X0217132Y0061324D02*
X0217620Y0061324D01*
X0217376Y0061324D02*
X0217376Y0063524D01*
X0217620Y0063524D02*
X0217132Y0063524D01*
X0141300Y0061857D02*
X0139100Y0061857D01*
X0139100Y0061246D02*
X0139100Y0062468D01*
X0139100Y0063650D02*
X0139102Y0063711D01*
X0139108Y0063773D01*
X0139117Y0063833D01*
X0139131Y0063893D01*
X0139148Y0063952D01*
X0139169Y0064010D01*
X0139193Y0064066D01*
X0139221Y0064121D01*
X0139252Y0064174D01*
X0139287Y0064225D01*
X0139324Y0064273D01*
X0139365Y0064319D01*
X0139409Y0064363D01*
X0139455Y0064404D01*
X0139503Y0064441D01*
X0139554Y0064476D01*
X0139607Y0064507D01*
X0139662Y0064535D01*
X0139718Y0064559D01*
X0139776Y0064580D01*
X0139835Y0064597D01*
X0139895Y0064611D01*
X0139955Y0064620D01*
X0140017Y0064626D01*
X0140078Y0064628D01*
X0140689Y0064628D01*
X0140737Y0064626D01*
X0140785Y0064620D01*
X0140832Y0064611D01*
X0140878Y0064598D01*
X0140923Y0064581D01*
X0140966Y0064561D01*
X0141008Y0064538D01*
X0141048Y0064511D01*
X0141086Y0064482D01*
X0141121Y0064449D01*
X0141154Y0064414D01*
X0141183Y0064376D01*
X0141210Y0064336D01*
X0141233Y0064294D01*
X0141253Y0064251D01*
X0141270Y0064206D01*
X0141283Y0064160D01*
X0141292Y0064113D01*
X0141298Y0064065D01*
X0141300Y0064017D01*
X0141298Y0063969D01*
X0141292Y0063921D01*
X0141283Y0063874D01*
X0141270Y0063828D01*
X0141253Y0063783D01*
X0141233Y0063740D01*
X0141210Y0063698D01*
X0141183Y0063658D01*
X0141154Y0063620D01*
X0141121Y0063585D01*
X0141086Y0063552D01*
X0141048Y0063523D01*
X0141008Y0063496D01*
X0140966Y0063473D01*
X0140923Y0063453D01*
X0140878Y0063436D01*
X0140832Y0063423D01*
X0140785Y0063414D01*
X0140737Y0063408D01*
X0140689Y0063406D01*
X0140567Y0063406D01*
X0140524Y0063408D01*
X0140482Y0063413D01*
X0140440Y0063423D01*
X0140400Y0063435D01*
X0140360Y0063452D01*
X0140323Y0063472D01*
X0140287Y0063494D01*
X0140253Y0063520D01*
X0140221Y0063549D01*
X0140192Y0063581D01*
X0140166Y0063615D01*
X0140144Y0063650D01*
X0140124Y0063688D01*
X0140107Y0063728D01*
X0140095Y0063768D01*
X0140085Y0063810D01*
X0140080Y0063852D01*
X0140078Y0063895D01*
X0140078Y0064628D01*
X0141300Y0061857D02*
X0140811Y0061246D01*
X0141300Y0059711D02*
X0141298Y0059759D01*
X0141292Y0059807D01*
X0141283Y0059854D01*
X0141270Y0059900D01*
X0141253Y0059945D01*
X0141233Y0059988D01*
X0141210Y0060030D01*
X0141183Y0060070D01*
X0141154Y0060108D01*
X0141121Y0060143D01*
X0141086Y0060176D01*
X0141048Y0060205D01*
X0141008Y0060232D01*
X0140966Y0060255D01*
X0140923Y0060275D01*
X0140878Y0060292D01*
X0140832Y0060305D01*
X0140785Y0060314D01*
X0140737Y0060320D01*
X0140689Y0060322D01*
X0140641Y0060320D01*
X0140593Y0060314D01*
X0140546Y0060305D01*
X0140500Y0060292D01*
X0140455Y0060275D01*
X0140412Y0060255D01*
X0140370Y0060232D01*
X0140330Y0060205D01*
X0140292Y0060176D01*
X0140257Y0060143D01*
X0140224Y0060108D01*
X0140195Y0060070D01*
X0140168Y0060030D01*
X0140145Y0059988D01*
X0140125Y0059945D01*
X0140108Y0059900D01*
X0140095Y0059854D01*
X0140086Y0059807D01*
X0140080Y0059759D01*
X0140078Y0059711D01*
X0140078Y0059100D01*
X0140078Y0059833D02*
X0139100Y0060322D01*
X0139100Y0059100D02*
X0141300Y0059100D01*
X0141300Y0059711D01*
X0133800Y0059711D02*
X0133800Y0059100D01*
X0131600Y0059100D01*
X0132578Y0059100D02*
X0132578Y0059711D01*
X0132578Y0059833D02*
X0131600Y0060322D01*
X0131600Y0061246D02*
X0131600Y0062468D01*
X0131600Y0061857D02*
X0133800Y0061857D01*
X0133311Y0061246D01*
X0133800Y0059711D02*
X0133798Y0059759D01*
X0133792Y0059807D01*
X0133783Y0059854D01*
X0133770Y0059900D01*
X0133753Y0059945D01*
X0133733Y0059988D01*
X0133710Y0060030D01*
X0133683Y0060070D01*
X0133654Y0060108D01*
X0133621Y0060143D01*
X0133586Y0060176D01*
X0133548Y0060205D01*
X0133508Y0060232D01*
X0133466Y0060255D01*
X0133423Y0060275D01*
X0133378Y0060292D01*
X0133332Y0060305D01*
X0133285Y0060314D01*
X0133237Y0060320D01*
X0133189Y0060322D01*
X0133141Y0060320D01*
X0133093Y0060314D01*
X0133046Y0060305D01*
X0133000Y0060292D01*
X0132955Y0060275D01*
X0132912Y0060255D01*
X0132870Y0060232D01*
X0132830Y0060205D01*
X0132792Y0060176D01*
X0132757Y0060143D01*
X0132724Y0060108D01*
X0132695Y0060070D01*
X0132668Y0060030D01*
X0132645Y0059988D01*
X0132625Y0059945D01*
X0132608Y0059900D01*
X0132595Y0059854D01*
X0132586Y0059807D01*
X0132580Y0059759D01*
X0132578Y0059711D01*
X0132211Y0063406D02*
X0132163Y0063408D01*
X0132115Y0063414D01*
X0132068Y0063423D01*
X0132022Y0063436D01*
X0131977Y0063453D01*
X0131934Y0063473D01*
X0131892Y0063496D01*
X0131852Y0063523D01*
X0131814Y0063552D01*
X0131779Y0063585D01*
X0131746Y0063620D01*
X0131717Y0063658D01*
X0131690Y0063698D01*
X0131667Y0063740D01*
X0131647Y0063783D01*
X0131630Y0063828D01*
X0131617Y0063874D01*
X0131608Y0063921D01*
X0131602Y0063969D01*
X0131600Y0064017D01*
X0131602Y0064065D01*
X0131608Y0064113D01*
X0131617Y0064160D01*
X0131630Y0064206D01*
X0131647Y0064251D01*
X0131667Y0064294D01*
X0131690Y0064336D01*
X0131717Y0064376D01*
X0131746Y0064414D01*
X0131779Y0064449D01*
X0131814Y0064482D01*
X0131852Y0064511D01*
X0131892Y0064538D01*
X0131934Y0064561D01*
X0131977Y0064581D01*
X0132022Y0064598D01*
X0132068Y0064611D01*
X0132115Y0064620D01*
X0132163Y0064626D01*
X0132211Y0064628D01*
X0132259Y0064626D01*
X0132307Y0064620D01*
X0132354Y0064611D01*
X0132400Y0064598D01*
X0132445Y0064581D01*
X0132488Y0064561D01*
X0132530Y0064538D01*
X0132570Y0064511D01*
X0132608Y0064482D01*
X0132643Y0064449D01*
X0132676Y0064414D01*
X0132705Y0064376D01*
X0132732Y0064336D01*
X0132755Y0064294D01*
X0132775Y0064251D01*
X0132792Y0064206D01*
X0132805Y0064160D01*
X0132814Y0064113D01*
X0132820Y0064065D01*
X0132822Y0064017D01*
X0132820Y0063969D01*
X0132814Y0063921D01*
X0132805Y0063874D01*
X0132792Y0063828D01*
X0132775Y0063783D01*
X0132755Y0063740D01*
X0132732Y0063698D01*
X0132705Y0063658D01*
X0132676Y0063620D01*
X0132643Y0063585D01*
X0132608Y0063552D01*
X0132570Y0063523D01*
X0132530Y0063496D01*
X0132488Y0063473D01*
X0132445Y0063453D01*
X0132400Y0063436D01*
X0132354Y0063423D01*
X0132307Y0063414D01*
X0132259Y0063408D01*
X0132211Y0063406D01*
X0133311Y0063528D02*
X0133268Y0063530D01*
X0133226Y0063535D01*
X0133184Y0063545D01*
X0133144Y0063557D01*
X0133104Y0063574D01*
X0133067Y0063594D01*
X0133031Y0063616D01*
X0132997Y0063642D01*
X0132965Y0063671D01*
X0132936Y0063703D01*
X0132910Y0063737D01*
X0132888Y0063773D01*
X0132868Y0063810D01*
X0132851Y0063850D01*
X0132839Y0063890D01*
X0132829Y0063932D01*
X0132824Y0063974D01*
X0132822Y0064017D01*
X0132824Y0064060D01*
X0132829Y0064102D01*
X0132839Y0064144D01*
X0132851Y0064184D01*
X0132868Y0064224D01*
X0132888Y0064262D01*
X0132910Y0064297D01*
X0132936Y0064331D01*
X0132965Y0064363D01*
X0132997Y0064392D01*
X0133031Y0064418D01*
X0133067Y0064440D01*
X0133104Y0064460D01*
X0133144Y0064477D01*
X0133184Y0064489D01*
X0133226Y0064499D01*
X0133268Y0064504D01*
X0133311Y0064506D01*
X0133354Y0064504D01*
X0133396Y0064499D01*
X0133438Y0064489D01*
X0133478Y0064477D01*
X0133518Y0064460D01*
X0133556Y0064440D01*
X0133591Y0064418D01*
X0133625Y0064392D01*
X0133657Y0064363D01*
X0133686Y0064331D01*
X0133712Y0064297D01*
X0133734Y0064262D01*
X0133754Y0064224D01*
X0133771Y0064184D01*
X0133783Y0064144D01*
X0133793Y0064102D01*
X0133798Y0064060D01*
X0133800Y0064017D01*
X0133798Y0063974D01*
X0133793Y0063932D01*
X0133783Y0063890D01*
X0133771Y0063850D01*
X0133754Y0063810D01*
X0133734Y0063773D01*
X0133712Y0063737D01*
X0133686Y0063703D01*
X0133657Y0063671D01*
X0133625Y0063642D01*
X0133591Y0063616D01*
X0133556Y0063594D01*
X0133518Y0063574D01*
X0133478Y0063557D01*
X0133438Y0063545D01*
X0133396Y0063535D01*
X0133354Y0063530D01*
X0133311Y0063528D01*
X0125089Y0058311D02*
X0125087Y0058354D01*
X0125082Y0058396D01*
X0125072Y0058438D01*
X0125060Y0058478D01*
X0125043Y0058518D01*
X0125023Y0058556D01*
X0125001Y0058591D01*
X0124975Y0058625D01*
X0124946Y0058657D01*
X0124914Y0058686D01*
X0124880Y0058712D01*
X0124845Y0058734D01*
X0124807Y0058754D01*
X0124767Y0058771D01*
X0124727Y0058783D01*
X0124685Y0058793D01*
X0124643Y0058798D01*
X0124600Y0058800D01*
X0125089Y0058311D02*
X0125087Y0058268D01*
X0125082Y0058225D01*
X0125072Y0058183D01*
X0125060Y0058142D01*
X0125043Y0058103D01*
X0125024Y0058064D01*
X0125001Y0058028D01*
X0124975Y0057994D01*
X0124946Y0057962D01*
X0124914Y0057933D01*
X0124880Y0057906D01*
X0124844Y0057883D01*
X0124172Y0057517D01*
X0124417Y0056600D02*
X0124480Y0056602D01*
X0124542Y0056608D01*
X0124604Y0056617D01*
X0124666Y0056630D01*
X0124726Y0056647D01*
X0124785Y0056668D01*
X0124843Y0056692D01*
X0124899Y0056720D01*
X0124954Y0056751D01*
X0125007Y0056785D01*
X0125057Y0056822D01*
X0125105Y0056862D01*
X0125150Y0056906D01*
X0124172Y0057517D02*
X0124136Y0057494D01*
X0124102Y0057467D01*
X0124070Y0057438D01*
X0124041Y0057406D01*
X0124015Y0057372D01*
X0123992Y0057336D01*
X0123973Y0057297D01*
X0123956Y0057258D01*
X0123944Y0057217D01*
X0123934Y0057175D01*
X0123929Y0057132D01*
X0123927Y0057089D01*
X0123928Y0057089D02*
X0123930Y0057046D01*
X0123935Y0057004D01*
X0123945Y0056962D01*
X0123957Y0056922D01*
X0123974Y0056882D01*
X0123994Y0056844D01*
X0124016Y0056809D01*
X0124042Y0056775D01*
X0124071Y0056743D01*
X0124103Y0056714D01*
X0124137Y0056688D01*
X0124173Y0056666D01*
X0124210Y0056646D01*
X0124250Y0056629D01*
X0124290Y0056617D01*
X0124332Y0056607D01*
X0124374Y0056602D01*
X0124417Y0056600D01*
X0123284Y0056600D02*
X0123040Y0056600D01*
X0122997Y0056602D01*
X0122955Y0056607D01*
X0122913Y0056617D01*
X0122873Y0056629D01*
X0122833Y0056646D01*
X0122796Y0056666D01*
X0122760Y0056688D01*
X0122726Y0056714D01*
X0122694Y0056743D01*
X0122665Y0056775D01*
X0122639Y0056809D01*
X0122617Y0056844D01*
X0122597Y0056882D01*
X0122580Y0056922D01*
X0122568Y0056962D01*
X0122558Y0057004D01*
X0122553Y0057046D01*
X0122551Y0057089D01*
X0122551Y0058800D01*
X0121550Y0058311D02*
X0120939Y0058800D01*
X0120939Y0056600D01*
X0121550Y0056600D02*
X0120328Y0056600D01*
X0124050Y0058617D02*
X0124098Y0058650D01*
X0124148Y0058681D01*
X0124201Y0058709D01*
X0124255Y0058732D01*
X0124310Y0058753D01*
X0124367Y0058770D01*
X0124424Y0058783D01*
X0124482Y0058792D01*
X0124541Y0058798D01*
X0124600Y0058800D01*
X0134078Y0079100D02*
X0135300Y0079100D01*
X0134261Y0080322D01*
X0134628Y0081300D02*
X0134680Y0081298D01*
X0134732Y0081292D01*
X0134784Y0081283D01*
X0134834Y0081269D01*
X0134884Y0081252D01*
X0134932Y0081231D01*
X0134978Y0081207D01*
X0135022Y0081180D01*
X0135065Y0081149D01*
X0135105Y0081115D01*
X0135142Y0081079D01*
X0135176Y0081039D01*
X0135208Y0080997D01*
X0135236Y0080954D01*
X0135261Y0080908D01*
X0135283Y0080860D01*
X0135301Y0080811D01*
X0134261Y0080322D02*
X0134228Y0080356D01*
X0134198Y0080393D01*
X0134170Y0080433D01*
X0134146Y0080474D01*
X0134126Y0080517D01*
X0134109Y0080562D01*
X0134095Y0080608D01*
X0134086Y0080655D01*
X0134080Y0080702D01*
X0134078Y0080750D01*
X0134080Y0080795D01*
X0134086Y0080841D01*
X0134095Y0080885D01*
X0134108Y0080929D01*
X0134124Y0080971D01*
X0134144Y0081012D01*
X0134168Y0081051D01*
X0134194Y0081088D01*
X0134223Y0081123D01*
X0134255Y0081155D01*
X0134290Y0081184D01*
X0134327Y0081210D01*
X0134366Y0081234D01*
X0134407Y0081254D01*
X0134449Y0081270D01*
X0134493Y0081283D01*
X0134537Y0081292D01*
X0134583Y0081298D01*
X0134628Y0081300D01*
X0136301Y0081300D02*
X0136301Y0079589D01*
X0136303Y0079546D01*
X0136308Y0079504D01*
X0136318Y0079462D01*
X0136330Y0079422D01*
X0136347Y0079382D01*
X0136367Y0079344D01*
X0136389Y0079309D01*
X0136415Y0079275D01*
X0136444Y0079243D01*
X0136476Y0079214D01*
X0136510Y0079188D01*
X0136546Y0079166D01*
X0136583Y0079146D01*
X0136623Y0079129D01*
X0136663Y0079117D01*
X0136705Y0079107D01*
X0136747Y0079102D01*
X0136790Y0079100D01*
X0137034Y0079100D01*
X0137678Y0079589D02*
X0137680Y0079546D01*
X0137685Y0079504D01*
X0137695Y0079462D01*
X0137707Y0079422D01*
X0137724Y0079382D01*
X0137744Y0079344D01*
X0137766Y0079309D01*
X0137792Y0079275D01*
X0137821Y0079243D01*
X0137853Y0079214D01*
X0137887Y0079188D01*
X0137923Y0079166D01*
X0137960Y0079146D01*
X0138000Y0079129D01*
X0138040Y0079117D01*
X0138082Y0079107D01*
X0138124Y0079102D01*
X0138167Y0079100D01*
X0137677Y0079589D02*
X0137679Y0079632D01*
X0137684Y0079675D01*
X0137694Y0079717D01*
X0137706Y0079758D01*
X0137723Y0079797D01*
X0137742Y0079836D01*
X0137765Y0079872D01*
X0137791Y0079906D01*
X0137820Y0079938D01*
X0137852Y0079967D01*
X0137886Y0079994D01*
X0137922Y0080017D01*
X0138594Y0080383D01*
X0138350Y0081300D02*
X0138291Y0081298D01*
X0138232Y0081292D01*
X0138174Y0081283D01*
X0138117Y0081270D01*
X0138060Y0081253D01*
X0138005Y0081232D01*
X0137951Y0081209D01*
X0137898Y0081181D01*
X0137848Y0081150D01*
X0137800Y0081117D01*
X0138594Y0080383D02*
X0138630Y0080406D01*
X0138664Y0080433D01*
X0138696Y0080462D01*
X0138725Y0080494D01*
X0138751Y0080528D01*
X0138774Y0080564D01*
X0138793Y0080603D01*
X0138810Y0080642D01*
X0138822Y0080683D01*
X0138832Y0080725D01*
X0138837Y0080768D01*
X0138839Y0080811D01*
X0138837Y0080854D01*
X0138832Y0080896D01*
X0138822Y0080938D01*
X0138810Y0080978D01*
X0138793Y0081018D01*
X0138773Y0081056D01*
X0138751Y0081091D01*
X0138725Y0081125D01*
X0138696Y0081157D01*
X0138664Y0081186D01*
X0138630Y0081212D01*
X0138595Y0081234D01*
X0138557Y0081254D01*
X0138517Y0081271D01*
X0138477Y0081283D01*
X0138435Y0081293D01*
X0138393Y0081298D01*
X0138350Y0081300D01*
X0138900Y0079406D02*
X0138855Y0079362D01*
X0138807Y0079322D01*
X0138757Y0079285D01*
X0138704Y0079251D01*
X0138649Y0079220D01*
X0138593Y0079192D01*
X0138535Y0079168D01*
X0138476Y0079147D01*
X0138416Y0079130D01*
X0138354Y0079117D01*
X0138292Y0079108D01*
X0138230Y0079102D01*
X0138167Y0079100D01*
X0085078Y0044556D02*
X0084100Y0044556D01*
X0084589Y0044922D02*
X0084589Y0043700D01*
X0086300Y0044189D01*
X0086300Y0042699D02*
X0084589Y0042699D01*
X0084546Y0042697D01*
X0084504Y0042692D01*
X0084462Y0042682D01*
X0084422Y0042670D01*
X0084382Y0042653D01*
X0084345Y0042633D01*
X0084309Y0042611D01*
X0084275Y0042585D01*
X0084243Y0042556D01*
X0084214Y0042524D01*
X0084188Y0042490D01*
X0084166Y0042455D01*
X0084146Y0042417D01*
X0084129Y0042377D01*
X0084117Y0042337D01*
X0084107Y0042295D01*
X0084102Y0042253D01*
X0084100Y0042210D01*
X0084100Y0041966D01*
X0084589Y0041322D02*
X0084546Y0041320D01*
X0084504Y0041315D01*
X0084462Y0041305D01*
X0084422Y0041293D01*
X0084382Y0041276D01*
X0084345Y0041256D01*
X0084309Y0041234D01*
X0084275Y0041208D01*
X0084243Y0041179D01*
X0084214Y0041147D01*
X0084188Y0041113D01*
X0084166Y0041078D01*
X0084146Y0041040D01*
X0084129Y0041000D01*
X0084117Y0040960D01*
X0084107Y0040918D01*
X0084102Y0040876D01*
X0084100Y0040833D01*
X0084589Y0041323D02*
X0084632Y0041321D01*
X0084675Y0041316D01*
X0084717Y0041306D01*
X0084758Y0041294D01*
X0084797Y0041277D01*
X0084836Y0041258D01*
X0084872Y0041235D01*
X0084906Y0041209D01*
X0084938Y0041180D01*
X0084967Y0041148D01*
X0084994Y0041114D01*
X0085017Y0041078D01*
X0085383Y0040406D01*
X0086300Y0040650D02*
X0086298Y0040709D01*
X0086292Y0040768D01*
X0086283Y0040826D01*
X0086270Y0040883D01*
X0086253Y0040940D01*
X0086232Y0040995D01*
X0086209Y0041049D01*
X0086181Y0041101D01*
X0086150Y0041152D01*
X0086117Y0041200D01*
X0085383Y0040406D02*
X0085406Y0040370D01*
X0085433Y0040336D01*
X0085462Y0040304D01*
X0085494Y0040275D01*
X0085528Y0040249D01*
X0085564Y0040226D01*
X0085603Y0040207D01*
X0085642Y0040190D01*
X0085683Y0040178D01*
X0085725Y0040168D01*
X0085768Y0040163D01*
X0085811Y0040161D01*
X0085854Y0040163D01*
X0085896Y0040168D01*
X0085938Y0040178D01*
X0085978Y0040190D01*
X0086018Y0040207D01*
X0086056Y0040227D01*
X0086091Y0040249D01*
X0086125Y0040275D01*
X0086157Y0040304D01*
X0086186Y0040336D01*
X0086212Y0040370D01*
X0086234Y0040406D01*
X0086254Y0040443D01*
X0086271Y0040483D01*
X0086283Y0040523D01*
X0086293Y0040565D01*
X0086298Y0040607D01*
X0086300Y0040650D01*
X0084406Y0040100D02*
X0084362Y0040145D01*
X0084322Y0040193D01*
X0084285Y0040243D01*
X0084251Y0040296D01*
X0084220Y0040351D01*
X0084192Y0040407D01*
X0084168Y0040465D01*
X0084147Y0040524D01*
X0084130Y0040585D01*
X0084117Y0040646D01*
X0084108Y0040708D01*
X0084102Y0040770D01*
X0084100Y0040833D01*
X0124282Y0119100D02*
X0125504Y0119100D01*
X0124893Y0119100D02*
X0124893Y0121300D01*
X0125504Y0120811D01*
X0127039Y0121300D02*
X0126991Y0121298D01*
X0126943Y0121292D01*
X0126896Y0121283D01*
X0126850Y0121270D01*
X0126805Y0121253D01*
X0126762Y0121233D01*
X0126720Y0121210D01*
X0126680Y0121183D01*
X0126642Y0121154D01*
X0126607Y0121121D01*
X0126574Y0121086D01*
X0126545Y0121048D01*
X0126518Y0121008D01*
X0126495Y0120966D01*
X0126475Y0120923D01*
X0126458Y0120878D01*
X0126445Y0120832D01*
X0126436Y0120785D01*
X0126430Y0120737D01*
X0126428Y0120689D01*
X0126430Y0120641D01*
X0126436Y0120593D01*
X0126445Y0120546D01*
X0126458Y0120500D01*
X0126475Y0120455D01*
X0126495Y0120412D01*
X0126518Y0120370D01*
X0126545Y0120330D01*
X0126574Y0120292D01*
X0126607Y0120257D01*
X0126642Y0120224D01*
X0126680Y0120195D01*
X0126720Y0120168D01*
X0126762Y0120145D01*
X0126805Y0120125D01*
X0126850Y0120108D01*
X0126896Y0120095D01*
X0126943Y0120086D01*
X0126991Y0120080D01*
X0127039Y0120078D01*
X0127650Y0120078D01*
X0126917Y0120078D02*
X0126428Y0119100D01*
X0127650Y0119100D02*
X0127650Y0121300D01*
X0127039Y0121300D01*
X0127650Y0125350D02*
X0127650Y0127550D01*
X0127039Y0127550D01*
X0126991Y0127548D01*
X0126943Y0127542D01*
X0126896Y0127533D01*
X0126850Y0127520D01*
X0126805Y0127503D01*
X0126762Y0127483D01*
X0126720Y0127460D01*
X0126680Y0127433D01*
X0126642Y0127404D01*
X0126607Y0127371D01*
X0126574Y0127336D01*
X0126545Y0127298D01*
X0126518Y0127258D01*
X0126495Y0127216D01*
X0126475Y0127173D01*
X0126458Y0127128D01*
X0126445Y0127082D01*
X0126436Y0127035D01*
X0126430Y0126987D01*
X0126428Y0126939D01*
X0126430Y0126891D01*
X0126436Y0126843D01*
X0126445Y0126796D01*
X0126458Y0126750D01*
X0126475Y0126705D01*
X0126495Y0126662D01*
X0126518Y0126620D01*
X0126545Y0126580D01*
X0126574Y0126542D01*
X0126607Y0126507D01*
X0126642Y0126474D01*
X0126680Y0126445D01*
X0126720Y0126418D01*
X0126762Y0126395D01*
X0126805Y0126375D01*
X0126850Y0126358D01*
X0126896Y0126345D01*
X0126943Y0126336D01*
X0126991Y0126330D01*
X0127039Y0126328D01*
X0127650Y0126328D01*
X0126917Y0126328D02*
X0126428Y0125350D01*
X0125504Y0125350D02*
X0124465Y0126572D01*
X0124832Y0127550D02*
X0124884Y0127548D01*
X0124936Y0127542D01*
X0124988Y0127533D01*
X0125038Y0127519D01*
X0125088Y0127502D01*
X0125136Y0127481D01*
X0125182Y0127457D01*
X0125226Y0127430D01*
X0125269Y0127399D01*
X0125309Y0127365D01*
X0125346Y0127329D01*
X0125380Y0127289D01*
X0125412Y0127247D01*
X0125440Y0127204D01*
X0125465Y0127158D01*
X0125487Y0127110D01*
X0125505Y0127061D01*
X0124465Y0126572D02*
X0124432Y0126606D01*
X0124402Y0126643D01*
X0124374Y0126683D01*
X0124350Y0126724D01*
X0124330Y0126767D01*
X0124313Y0126812D01*
X0124299Y0126858D01*
X0124290Y0126905D01*
X0124284Y0126952D01*
X0124282Y0127000D01*
X0124284Y0127045D01*
X0124290Y0127091D01*
X0124299Y0127135D01*
X0124312Y0127179D01*
X0124328Y0127221D01*
X0124348Y0127262D01*
X0124372Y0127301D01*
X0124398Y0127338D01*
X0124427Y0127373D01*
X0124459Y0127405D01*
X0124494Y0127434D01*
X0124531Y0127460D01*
X0124570Y0127484D01*
X0124611Y0127504D01*
X0124653Y0127520D01*
X0124697Y0127533D01*
X0124741Y0127542D01*
X0124787Y0127548D01*
X0124832Y0127550D01*
X0124282Y0125350D02*
X0125504Y0125350D01*
D15*
X0128951Y0123744D02*
X0128951Y0129256D01*
X0141549Y0129256D01*
X0141549Y0123744D01*
X0128951Y0123744D01*
X0128951Y0123006D02*
X0128951Y0117494D01*
X0141549Y0117494D01*
X0141549Y0123006D01*
X0128951Y0123006D01*
X0120250Y0120250D02*
X0115250Y0120250D01*
X0115250Y0110250D01*
X0120250Y0110250D01*
X0120250Y0120250D01*
X0132000Y0078000D02*
X0138500Y0078000D01*
X0138560Y0077998D01*
X0138621Y0077993D01*
X0138680Y0077984D01*
X0138739Y0077971D01*
X0138798Y0077955D01*
X0138855Y0077935D01*
X0138910Y0077912D01*
X0138965Y0077885D01*
X0139017Y0077856D01*
X0139068Y0077823D01*
X0139117Y0077787D01*
X0139163Y0077749D01*
X0139207Y0077707D01*
X0139249Y0077663D01*
X0139287Y0077617D01*
X0139323Y0077568D01*
X0139356Y0077517D01*
X0139385Y0077465D01*
X0139412Y0077410D01*
X0139435Y0077355D01*
X0139455Y0077298D01*
X0139471Y0077239D01*
X0139484Y0077180D01*
X0139493Y0077121D01*
X0139498Y0077060D01*
X0139500Y0077000D01*
X0132000Y0078000D02*
X0131940Y0077998D01*
X0131879Y0077993D01*
X0131820Y0077984D01*
X0131761Y0077971D01*
X0131702Y0077955D01*
X0131645Y0077935D01*
X0131590Y0077912D01*
X0131535Y0077885D01*
X0131483Y0077856D01*
X0131432Y0077823D01*
X0131383Y0077787D01*
X0131337Y0077749D01*
X0131293Y0077707D01*
X0131251Y0077663D01*
X0131213Y0077617D01*
X0131177Y0077568D01*
X0131144Y0077517D01*
X0131115Y0077465D01*
X0131088Y0077410D01*
X0131065Y0077355D01*
X0131045Y0077298D01*
X0131029Y0077239D01*
X0131016Y0077180D01*
X0131007Y0077121D01*
X0131002Y0077060D01*
X0131000Y0077000D01*
X0131000Y0071000D02*
X0131002Y0070940D01*
X0131007Y0070879D01*
X0131016Y0070820D01*
X0131029Y0070761D01*
X0131045Y0070702D01*
X0131065Y0070645D01*
X0131088Y0070590D01*
X0131115Y0070535D01*
X0131144Y0070483D01*
X0131177Y0070432D01*
X0131213Y0070383D01*
X0131251Y0070337D01*
X0131293Y0070293D01*
X0131337Y0070251D01*
X0131383Y0070213D01*
X0131432Y0070177D01*
X0131483Y0070144D01*
X0131535Y0070115D01*
X0131590Y0070088D01*
X0131645Y0070065D01*
X0131702Y0070045D01*
X0131761Y0070029D01*
X0131820Y0070016D01*
X0131879Y0070007D01*
X0131940Y0070002D01*
X0132000Y0070000D01*
X0138500Y0070000D01*
X0138560Y0070002D01*
X0138621Y0070007D01*
X0138680Y0070016D01*
X0138739Y0070029D01*
X0138798Y0070045D01*
X0138855Y0070065D01*
X0138910Y0070088D01*
X0138965Y0070115D01*
X0139017Y0070144D01*
X0139068Y0070177D01*
X0139117Y0070213D01*
X0139163Y0070251D01*
X0139207Y0070293D01*
X0139249Y0070337D01*
X0139287Y0070383D01*
X0139323Y0070432D01*
X0139356Y0070483D01*
X0139385Y0070535D01*
X0139412Y0070590D01*
X0139435Y0070645D01*
X0139455Y0070702D01*
X0139471Y0070761D01*
X0139484Y0070820D01*
X0139493Y0070879D01*
X0139498Y0070940D01*
X0139500Y0071000D01*
X0137494Y0057799D02*
X0137494Y0045201D01*
X0143006Y0045201D01*
X0143006Y0057799D01*
X0137494Y0057799D01*
X0135781Y0057770D02*
X0130270Y0057770D01*
X0130270Y0045171D01*
X0135781Y0045171D01*
X0135781Y0057770D01*
X0124750Y0055500D02*
X0118250Y0055500D01*
X0118190Y0055498D01*
X0118129Y0055493D01*
X0118070Y0055484D01*
X0118011Y0055471D01*
X0117952Y0055455D01*
X0117895Y0055435D01*
X0117840Y0055412D01*
X0117785Y0055385D01*
X0117733Y0055356D01*
X0117682Y0055323D01*
X0117633Y0055287D01*
X0117587Y0055249D01*
X0117543Y0055207D01*
X0117501Y0055163D01*
X0117463Y0055117D01*
X0117427Y0055068D01*
X0117394Y0055017D01*
X0117365Y0054965D01*
X0117338Y0054910D01*
X0117315Y0054855D01*
X0117295Y0054798D01*
X0117279Y0054739D01*
X0117266Y0054680D01*
X0117257Y0054621D01*
X0117252Y0054560D01*
X0117250Y0054500D01*
X0124750Y0055500D02*
X0124810Y0055498D01*
X0124871Y0055493D01*
X0124930Y0055484D01*
X0124989Y0055471D01*
X0125048Y0055455D01*
X0125105Y0055435D01*
X0125160Y0055412D01*
X0125215Y0055385D01*
X0125267Y0055356D01*
X0125318Y0055323D01*
X0125367Y0055287D01*
X0125413Y0055249D01*
X0125457Y0055207D01*
X0125499Y0055163D01*
X0125537Y0055117D01*
X0125573Y0055068D01*
X0125606Y0055017D01*
X0125635Y0054965D01*
X0125662Y0054910D01*
X0125685Y0054855D01*
X0125705Y0054798D01*
X0125721Y0054739D01*
X0125734Y0054680D01*
X0125743Y0054621D01*
X0125748Y0054560D01*
X0125750Y0054500D01*
X0125750Y0048500D02*
X0125748Y0048440D01*
X0125743Y0048379D01*
X0125734Y0048320D01*
X0125721Y0048261D01*
X0125705Y0048202D01*
X0125685Y0048145D01*
X0125662Y0048090D01*
X0125635Y0048035D01*
X0125606Y0047983D01*
X0125573Y0047932D01*
X0125537Y0047883D01*
X0125499Y0047837D01*
X0125457Y0047793D01*
X0125413Y0047751D01*
X0125367Y0047713D01*
X0125318Y0047677D01*
X0125267Y0047644D01*
X0125215Y0047615D01*
X0125160Y0047588D01*
X0125105Y0047565D01*
X0125048Y0047545D01*
X0124989Y0047529D01*
X0124930Y0047516D01*
X0124871Y0047507D01*
X0124810Y0047502D01*
X0124750Y0047500D01*
X0118250Y0047500D01*
X0118190Y0047502D01*
X0118129Y0047507D01*
X0118070Y0047516D01*
X0118011Y0047529D01*
X0117952Y0047545D01*
X0117895Y0047565D01*
X0117840Y0047588D01*
X0117785Y0047615D01*
X0117733Y0047644D01*
X0117682Y0047677D01*
X0117633Y0047713D01*
X0117587Y0047751D01*
X0117543Y0047793D01*
X0117501Y0047837D01*
X0117463Y0047883D01*
X0117427Y0047932D01*
X0117394Y0047983D01*
X0117365Y0048035D01*
X0117338Y0048090D01*
X0117315Y0048145D01*
X0117295Y0048202D01*
X0117279Y0048261D01*
X0117266Y0048320D01*
X0117257Y0048379D01*
X0117252Y0048440D01*
X0117250Y0048500D01*
X0083000Y0052000D02*
X0083000Y0041000D01*
X0082998Y0040940D01*
X0082993Y0040879D01*
X0082984Y0040820D01*
X0082971Y0040761D01*
X0082955Y0040702D01*
X0082935Y0040645D01*
X0082912Y0040590D01*
X0082885Y0040535D01*
X0082856Y0040483D01*
X0082823Y0040432D01*
X0082787Y0040383D01*
X0082749Y0040337D01*
X0082707Y0040293D01*
X0082663Y0040251D01*
X0082617Y0040213D01*
X0082568Y0040177D01*
X0082517Y0040144D01*
X0082465Y0040115D01*
X0082410Y0040088D01*
X0082355Y0040065D01*
X0082298Y0040045D01*
X0082239Y0040029D01*
X0082180Y0040016D01*
X0082121Y0040007D01*
X0082060Y0040002D01*
X0082000Y0040000D01*
X0076000Y0040000D01*
X0075940Y0040002D01*
X0075879Y0040007D01*
X0075820Y0040016D01*
X0075761Y0040029D01*
X0075702Y0040045D01*
X0075645Y0040065D01*
X0075590Y0040088D01*
X0075535Y0040115D01*
X0075483Y0040144D01*
X0075432Y0040177D01*
X0075383Y0040213D01*
X0075337Y0040251D01*
X0075293Y0040293D01*
X0075251Y0040337D01*
X0075213Y0040383D01*
X0075177Y0040432D01*
X0075144Y0040483D01*
X0075115Y0040535D01*
X0075088Y0040590D01*
X0075065Y0040645D01*
X0075045Y0040702D01*
X0075029Y0040761D01*
X0075016Y0040820D01*
X0075007Y0040879D01*
X0075002Y0040940D01*
X0075000Y0041000D01*
X0075000Y0052000D01*
X0075002Y0052060D01*
X0075007Y0052121D01*
X0075016Y0052180D01*
X0075029Y0052239D01*
X0075045Y0052298D01*
X0075065Y0052355D01*
X0075088Y0052410D01*
X0075115Y0052465D01*
X0075144Y0052517D01*
X0075177Y0052568D01*
X0075213Y0052617D01*
X0075251Y0052663D01*
X0075293Y0052707D01*
X0075337Y0052749D01*
X0075383Y0052787D01*
X0075432Y0052823D01*
X0075483Y0052856D01*
X0075535Y0052885D01*
X0075590Y0052912D01*
X0075645Y0052935D01*
X0075702Y0052955D01*
X0075761Y0052971D01*
X0075820Y0052984D01*
X0075879Y0052993D01*
X0075940Y0052998D01*
X0076000Y0053000D01*
X0082000Y0053000D01*
X0082060Y0052998D01*
X0082121Y0052993D01*
X0082180Y0052984D01*
X0082239Y0052971D01*
X0082298Y0052955D01*
X0082355Y0052935D01*
X0082410Y0052912D01*
X0082465Y0052885D01*
X0082517Y0052856D01*
X0082568Y0052823D01*
X0082617Y0052787D01*
X0082663Y0052749D01*
X0082707Y0052707D01*
X0082749Y0052663D01*
X0082787Y0052617D01*
X0082823Y0052568D01*
X0082856Y0052517D01*
X0082885Y0052465D01*
X0082912Y0052410D01*
X0082935Y0052355D01*
X0082955Y0052298D01*
X0082971Y0052239D01*
X0082984Y0052180D01*
X0082993Y0052121D01*
X0082998Y0052060D01*
X0083000Y0052000D01*
D16*
X0117878Y0121050D02*
X0119322Y0121050D01*
X0119370Y0121052D01*
X0119417Y0121058D01*
X0119464Y0121068D01*
X0119510Y0121081D01*
X0119554Y0121099D01*
X0119597Y0121120D01*
X0119638Y0121144D01*
X0119677Y0121172D01*
X0119713Y0121203D01*
X0119747Y0121237D01*
X0119778Y0121273D01*
X0119806Y0121312D01*
X0119830Y0121353D01*
X0119851Y0121396D01*
X0119869Y0121440D01*
X0119882Y0121486D01*
X0119892Y0121533D01*
X0119898Y0121580D01*
X0119900Y0121628D01*
X0119900Y0122206D01*
X0119900Y0123464D02*
X0118744Y0123464D01*
X0118744Y0124331D01*
X0118745Y0124331D02*
X0118743Y0124376D01*
X0118738Y0124421D01*
X0118729Y0124466D01*
X0118717Y0124510D01*
X0118701Y0124552D01*
X0118682Y0124593D01*
X0118660Y0124633D01*
X0118635Y0124671D01*
X0118607Y0124706D01*
X0118576Y0124740D01*
X0118542Y0124771D01*
X0118507Y0124799D01*
X0118469Y0124824D01*
X0118429Y0124846D01*
X0118388Y0124865D01*
X0118346Y0124881D01*
X0118302Y0124893D01*
X0118257Y0124902D01*
X0118212Y0124907D01*
X0118167Y0124909D01*
X0118167Y0124908D02*
X0117878Y0124908D01*
X0117878Y0124909D02*
X0117830Y0124907D01*
X0117783Y0124901D01*
X0117736Y0124891D01*
X0117690Y0124878D01*
X0117646Y0124860D01*
X0117603Y0124839D01*
X0117562Y0124815D01*
X0117523Y0124787D01*
X0117487Y0124756D01*
X0117453Y0124722D01*
X0117422Y0124686D01*
X0117394Y0124647D01*
X0117370Y0124606D01*
X0117349Y0124563D01*
X0117331Y0124519D01*
X0117318Y0124473D01*
X0117308Y0124426D01*
X0117302Y0124379D01*
X0117300Y0124331D01*
X0117300Y0123464D01*
X0117300Y0122206D02*
X0117300Y0121628D01*
X0117302Y0121583D01*
X0117307Y0121538D01*
X0117316Y0121493D01*
X0117328Y0121449D01*
X0117344Y0121407D01*
X0117363Y0121366D01*
X0117385Y0121326D01*
X0117410Y0121288D01*
X0117438Y0121253D01*
X0117469Y0121219D01*
X0117503Y0121188D01*
X0117538Y0121160D01*
X0117576Y0121135D01*
X0117616Y0121113D01*
X0117657Y0121094D01*
X0117699Y0121078D01*
X0117743Y0121066D01*
X0117788Y0121057D01*
X0117833Y0121052D01*
X0117878Y0121050D01*
X0119900Y0123464D02*
X0119900Y0124908D01*
M02*
