%
M48
M72
T01C0.0122
T02C0.0276
T03C0.0787
%
T01
X24963Y3025
X25025Y2088
X24525Y1963
X23400Y1900
X22400Y1900
X21713Y1900
X20775Y2315
X19963Y2069
X19775Y2525
X19838Y3150
X20525Y3400
X21150Y3400
X20525Y4088
X20213Y4338
X19650Y4338
X19588Y4011
X20025Y3871
X18588Y3088
X18400Y3713
X16775Y3400
X15400Y4025
X15400Y4463
X16030Y4707
X16525Y4588
X17565Y4929
X17775Y4708
X17736Y5184
X17525Y5400
X17775Y5650
X18525Y6213
X19838Y5025
X20150Y4963
X20588Y5213
X20775Y4963
X22088Y5525
X20650Y6088
X18838Y7338
X17963Y7400
X17338Y7650
X16088Y8463
X15025Y8650
X13900Y8525
X13650Y8400
X13150Y8650
X12525Y8284
X12842Y7766
X12900Y7275
X12963Y6900
X13338Y6463
X14400Y6025
X15338Y6588
X15900Y5463
X14403Y4775
X13775Y3713
X14025Y3213
X14213Y2338
X15338Y2838
X18713Y2338
X24338Y4213
X16025Y9275
X16025Y9775
X16213Y10088
X16650Y10150
X17088Y10088
X17588Y10025
X17338Y10525
X17400Y11025
X18213Y10588
X18275Y10025
X18963Y10088
X19150Y10650
X20025Y10463
X20213Y10838
X20400Y10213
X17650Y11838
X17588Y12588
X18588Y12525
X19525Y12338
X17775Y14025
X16775Y13338
X16463Y13338
X16150Y13338
X15838Y13338
X15525Y13338
X15588Y12775
X14963Y12713
X15150Y11650
X14775Y11650
X14370Y11745
X15525Y11650
X13588Y10838
X13275Y10838
X12400Y10900
X12775Y11463
X12473Y11687
X12775Y11775
X12713Y12213
X12713Y12588
X11588Y12213
X11400Y11150
X13088Y9400
X13088Y9150
X10900Y9088
X10900Y8400
X10463Y7963
X10213Y7213
X9963Y6525
X10650Y6525
X9963Y5900
X9338Y5650
X8588Y5588
X8275Y5588
X7963Y5588
X7650Y5588
X7338Y5588
X6900Y4338
X6588Y4338
X6588Y4025
X6900Y4025
X6275Y4025
X6275Y4338
X9025Y2650
X9025Y2275
X9650Y2275
X9650Y2650
X9650Y3025
X9025Y3025
X9025Y3400
X10713Y3275
X10775Y3650
X11963Y3275
X11588Y4650
X11525Y5025
T02
X23960Y2581
X23460Y2581
X22960Y2581
X22460Y2581
X21960Y2581
X21960Y3081
X22460Y3081
X22960Y3081
X23460Y3081
X23960Y3081
T03
X7999Y2831
X6425Y2831
X16070Y14248
X14495Y14248
M30
