<svg version="1.1" xmlns="http://www.w3.org/2000/svg" xmlns:xlink="http://www.w3.org/1999/xlink" stroke-linecap="round" stroke-linejoin="round" stroke-width="0" fill-rule="evenodd" width="2.0686in" height="1.5379in" viewBox="352.3 212.8 2068.6 1537.9" id="f4MGAXX5w4ETRAt-aXHy"><defs><circle cx="0" cy="0" r="6.1" id="f4MGAXX5w4ETRAt-aXHy_pad-1"/><circle cx="0" cy="0" r="6.9" id="f4MGAXX5w4ETRAt-aXHy_pad-2"/><circle cx="0" cy="0" r="7.5" id="f4MGAXX5w4ETRAt-aXHy_pad-3"/><circle cx="0" cy="0" r="10" id="f4MGAXX5w4ETRAt-aXHy_pad-4"/><circle cx="0" cy="0" r="19.7" id="f4MGAXX5w4ETRAt-aXHy_pad-5"/><circle cx="0" cy="0" r="20" id="f4MGAXX5w4ETRAt-aXHy_pad-6"/></defs><g transform="translate(0,1963.5) scale(1,-1)" fill="currentColor" stroke="currentColor"><use xlink:href="#f4MGAXX5w4ETRAt-aXHy_pad-1" x="1726.5" y="631.3"/><use xlink:href="#f4MGAXX5w4ETRAt-aXHy_pad-1" x="1651.5" y="631.3"/><use xlink:href="#f4MGAXX5w4ETRAt-aXHy_pad-1" x="1576.5" y="631.3"/><use xlink:href="#f4MGAXX5w4ETRAt-aXHy_pad-1" x="1576.5" y="706.3"/><use xlink:href="#f4MGAXX5w4ETRAt-aXHy_pad-1" x="1576.5" y="775"/><use xlink:href="#f4MGAXX5w4ETRAt-aXHy_pad-1" x="1651.5" y="775"/><use xlink:href="#f4MGAXX5w4ETRAt-aXHy_pad-1" x="1651.5" y="706.3"/><use xlink:href="#f4MGAXX5w4ETRAt-aXHy_pad-1" x="1726.5" y="706.3"/><use xlink:href="#f4MGAXX5w4ETRAt-aXHy_pad-1" x="1726.5" y="775"/><use xlink:href="#f4MGAXX5w4ETRAt-aXHy_pad-2" x="2395.3" y="1600"/><use xlink:href="#f4MGAXX5w4ETRAt-aXHy_pad-2" x="2245.3" y="1556.3"/><use xlink:href="#f4MGAXX5w4ETRAt-aXHy_pad-2" x="2276.5" y="1443.8"/><use xlink:href="#f4MGAXX5w4ETRAt-aXHy_pad-2" x="2070.3" y="1368.8"/><use xlink:href="#f4MGAXX5w4ETRAt-aXHy_pad-2" x="2014" y="1362.5"/><use xlink:href="#f4MGAXX5w4ETRAt-aXHy_pad-2" x="1976.5" y="1381.3"/><use xlink:href="#f4MGAXX5w4ETRAt-aXHy_pad-2" x="1996.1" y="1406.3"/><use xlink:href="#f4MGAXX5w4ETRAt-aXHy_pad-2" x="1951.5" y="1406.3"/><use xlink:href="#f4MGAXX5w4ETRAt-aXHy_pad-2" x="1942.9" y="1437.5"/><use xlink:href="#f4MGAXX5w4ETRAt-aXHy_pad-2" x="1907.8" y="1462.5"/><use xlink:href="#f4MGAXX5w4ETRAt-aXHy_pad-2" x="1914" y="1518.8"/><use xlink:href="#f4MGAXX5w4ETRAt-aXHy_pad-2" x="1864" y="1512.5"/><use xlink:href="#f4MGAXX5w4ETRAt-aXHy_pad-2" x="1857.8" y="1537.5"/><use xlink:href="#f4MGAXX5w4ETRAt-aXHy_pad-2" x="1806" y="1562.5"/><use xlink:href="#f4MGAXX5w4ETRAt-aXHy_pad-2" x="1789" y="1581.3"/><use xlink:href="#f4MGAXX5w4ETRAt-aXHy_pad-2" x="1782.8" y="1550"/><use xlink:href="#f4MGAXX5w4ETRAt-aXHy_pad-2" x="1720.3" y="1568.8"/><use xlink:href="#f4MGAXX5w4ETRAt-aXHy_pad-2" x="1701.5" y="1543.8"/><use xlink:href="#f4MGAXX5w4ETRAt-aXHy_pad-2" x="1720.3" y="1481.3"/><use xlink:href="#f4MGAXX5w4ETRAt-aXHy_pad-2" x="1801.5" y="1456.3"/><use xlink:href="#f4MGAXX5w4ETRAt-aXHy_pad-2" x="1789" y="1375"/><use xlink:href="#f4MGAXX5w4ETRAt-aXHy_pad-2" x="1782.8" y="1281.3"/><use xlink:href="#f4MGAXX5w4ETRAt-aXHy_pad-2" x="1914" y="1350"/><use xlink:href="#f4MGAXX5w4ETRAt-aXHy_pad-2" x="1996.1" y="1275"/><use xlink:href="#f4MGAXX5w4ETRAt-aXHy_pad-2" x="2000.1" y="1248.6"/><use xlink:href="#f4MGAXX5w4ETRAt-aXHy_pad-2" x="2070.3" y="1231.3"/><use xlink:href="#f4MGAXX5w4ETRAt-aXHy_pad-2" x="2107.8" y="1268.8"/><use xlink:href="#f4MGAXX5w4ETRAt-aXHy_pad-2" x="2229.7" y="1193.6"/><use xlink:href="#f4MGAXX5w4ETRAt-aXHy_pad-2" x="2326.5" y="1118.8"/><use xlink:href="#f4MGAXX5w4ETRAt-aXHy_pad-2" x="2414" y="1131.3"/><use xlink:href="#f4MGAXX5w4ETRAt-aXHy_pad-2" x="2307.8" y="1050"/><use xlink:href="#f4MGAXX5w4ETRAt-aXHy_pad-2" x="2135.9" y="1006.3"/><use xlink:href="#f4MGAXX5w4ETRAt-aXHy_pad-2" x="2120.3" y="1075"/><use xlink:href="#f4MGAXX5w4ETRAt-aXHy_pad-2" x="1998.4" y="1093.8"/><use xlink:href="#f4MGAXX5w4ETRAt-aXHy_pad-2" x="1976.5" y="1037.5"/><use xlink:href="#f4MGAXX5w4ETRAt-aXHy_pad-2" x="1950.1" y="1038.9"/><use xlink:href="#f4MGAXX5w4ETRAt-aXHy_pad-2" x="1939" y="1082.1"/><use xlink:href="#f4MGAXX5w4ETRAt-aXHy_pad-2" x="1876.5" y="1106.3"/><use xlink:href="#f4MGAXX5w4ETRAt-aXHy_pad-2" x="1801.5" y="1106.3"/><use xlink:href="#f4MGAXX5w4ETRAt-aXHy_pad-2" x="1695.3" y="1150"/><use xlink:href="#f4MGAXX5w4ETRAt-aXHy_pad-2" x="1676.5" y="1118.8"/><use xlink:href="#f4MGAXX5w4ETRAt-aXHy_pad-2" x="1639" y="1150"/><use xlink:href="#f4MGAXX5w4ETRAt-aXHy_pad-2" x="1595.3" y="1131.3"/><use xlink:href="#f4MGAXX5w4ETRAt-aXHy_pad-2" x="1620.3" y="1081.3"/><use xlink:href="#f4MGAXX5w4ETRAt-aXHy_pad-2" x="1582.8" y="1056.3"/><use xlink:href="#f4MGAXX5w4ETRAt-aXHy_pad-2" x="1476.5" y="1062.5"/><use xlink:href="#f4MGAXX5w4ETRAt-aXHy_pad-2" x="1377.3" y="953.6"/><use xlink:href="#f4MGAXX5w4ETRAt-aXHy_pad-2" x="1308.8" y="1052.4"/><use xlink:href="#f4MGAXX5w4ETRAt-aXHy_pad-2" x="1301.5" y="1125"/><use xlink:href="#f4MGAXX5w4ETRAt-aXHy_pad-2" x="1251.5" y="1125"/><use xlink:href="#f4MGAXX5w4ETRAt-aXHy_pad-2" x="1239" y="1150"/><use xlink:href="#f4MGAXX5w4ETRAt-aXHy_pad-2" x="1239" y="1200"/><use xlink:href="#f4MGAXX5w4ETRAt-aXHy_pad-2" x="1289" y="1181.3"/><use xlink:href="#f4MGAXX5w4ETRAt-aXHy_pad-2" x="1332.8" y="1225"/><use xlink:href="#f4MGAXX5w4ETRAt-aXHy_pad-2" x="1351.5" y="1268.8"/><use xlink:href="#f4MGAXX5w4ETRAt-aXHy_pad-2" x="1332.8" y="1287.5"/><use xlink:href="#f4MGAXX5w4ETRAt-aXHy_pad-2" x="1364" y="1306.3"/><use xlink:href="#f4MGAXX5w4ETRAt-aXHy_pad-2" x="1451.5" y="1331.3"/><use xlink:href="#f4MGAXX5w4ETRAt-aXHy_pad-2" x="1476.5" y="1287.5"/><use xlink:href="#f4MGAXX5w4ETRAt-aXHy_pad-2" x="1370.3" y="1400"/><use xlink:href="#f4MGAXX5w4ETRAt-aXHy_pad-2" x="1339" y="1399.9"/><use xlink:href="#f4MGAXX5w4ETRAt-aXHy_pad-2" x="1182.8" y="1468.8"/><use xlink:href="#f4MGAXX5w4ETRAt-aXHy_pad-2" x="1182.8" y="1500"/><use xlink:href="#f4MGAXX5w4ETRAt-aXHy_pad-2" x="1239" y="1537.5"/><use xlink:href="#f4MGAXX5w4ETRAt-aXHy_pad-2" x="1239" y="1591.5"/><use xlink:href="#f4MGAXX5w4ETRAt-aXHy_pad-2" x="1326.5" y="1537.5"/><use xlink:href="#f4MGAXX5w4ETRAt-aXHy_pad-2" x="1357.8" y="1581.3"/><use xlink:href="#f4MGAXX5w4ETRAt-aXHy_pad-2" x="1301.5" y="1658.5"/><use xlink:href="#f4MGAXX5w4ETRAt-aXHy_pad-2" x="1176.5" y="1712.5"/><use xlink:href="#f4MGAXX5w4ETRAt-aXHy_pad-2" x="1157.8" y="1731.3"/><use xlink:href="#f4MGAXX5w4ETRAt-aXHy_pad-2" x="1101.5" y="1737.5"/><use xlink:href="#f4MGAXX5w4ETRAt-aXHy_pad-2" x="1089" y="1712.5"/><use xlink:href="#f4MGAXX5w4ETRAt-aXHy_pad-2" x="1039" y="1737.5"/><use xlink:href="#f4MGAXX5w4ETRAt-aXHy_pad-2" x="1114" y="1658.5"/><use xlink:href="#f4MGAXX5w4ETRAt-aXHy_pad-2" x="1114" y="1587.5"/><use xlink:href="#f4MGAXX5w4ETRAt-aXHy_pad-2" x="1051.5" y="1543.8"/><use xlink:href="#f4MGAXX5w4ETRAt-aXHy_pad-2" x="964" y="1518.8"/><use xlink:href="#f4MGAXX5w4ETRAt-aXHy_pad-2" x="951.5" y="1487.5"/><use xlink:href="#f4MGAXX5w4ETRAt-aXHy_pad-2" x="895.3" y="1543.8"/><use xlink:href="#f4MGAXX5w4ETRAt-aXHy_pad-2" x="895.3" y="1575"/><use xlink:href="#f4MGAXX5w4ETRAt-aXHy_pad-2" x="895.3" y="1606.3"/><use xlink:href="#f4MGAXX5w4ETRAt-aXHy_pad-2" x="907.8" y="1662.5"/><use xlink:href="#f4MGAXX5w4ETRAt-aXHy_pad-2" x="926.5" y="1725"/><use xlink:href="#f4MGAXX5w4ETRAt-aXHy_pad-2" x="845.3" y="1725"/><use xlink:href="#f4MGAXX5w4ETRAt-aXHy_pad-2" x="714" y="1662.5"/><use xlink:href="#f4MGAXX5w4ETRAt-aXHy_pad-2" x="807.8" y="1600"/><use xlink:href="#f4MGAXX5w4ETRAt-aXHy_pad-2" x="738.8" y="1512.5"/><use xlink:href="#f4MGAXX5w4ETRAt-aXHy_pad-2" x="707.8" y="1512.5"/><use xlink:href="#f4MGAXX5w4ETRAt-aXHy_pad-2" x="707.8" y="1456.3"/><use xlink:href="#f4MGAXX5w4ETRAt-aXHy_pad-2" x="701.5" y="1412.5"/><use xlink:href="#f4MGAXX5w4ETRAt-aXHy_pad-2" x="814" y="1325"/><use xlink:href="#f4MGAXX5w4ETRAt-aXHy_pad-2" x="839" y="1300"/><use xlink:href="#f4MGAXX5w4ETRAt-aXHy_pad-2" x="895.3" y="1268.8"/><use xlink:href="#f4MGAXX5w4ETRAt-aXHy_pad-2" x="895.3" y="1243.8"/><use xlink:href="#f4MGAXX5w4ETRAt-aXHy_pad-2" x="895.3" y="1218.8"/><use xlink:href="#f4MGAXX5w4ETRAt-aXHy_pad-2" x="976.5" y="1175"/><use xlink:href="#f4MGAXX5w4ETRAt-aXHy_pad-2" x="988.1" y="1144"/><use xlink:href="#f4MGAXX5w4ETRAt-aXHy_pad-2" x="982.8" y="1118.8"/><use xlink:href="#f4MGAXX5w4ETRAt-aXHy_pad-2" x="982.8" y="1089.2"/><use xlink:href="#f4MGAXX5w4ETRAt-aXHy_pad-2" x="1020.3" y="1037.5"/><use xlink:href="#f4MGAXX5w4ETRAt-aXHy_pad-2" x="1039" y="1068.8"/><use xlink:href="#f4MGAXX5w4ETRAt-aXHy_pad-2" x="1101.5" y="1068.8"/><use xlink:href="#f4MGAXX5w4ETRAt-aXHy_pad-2" x="1095.3" y="1031.3"/><use xlink:href="#f4MGAXX5w4ETRAt-aXHy_pad-2" x="1157.8" y="978.9"/><use xlink:href="#f4MGAXX5w4ETRAt-aXHy_pad-2" x="1114" y="1106.5"/><use xlink:href="#f4MGAXX5w4ETRAt-aXHy_pad-2" x="1114.3" y="1162.5"/><use xlink:href="#f4MGAXX5w4ETRAt-aXHy_pad-2" x="1076.5" y="1212.5"/><use xlink:href="#f4MGAXX5w4ETRAt-aXHy_pad-2" x="1045.3" y="1268.8"/><use xlink:href="#f4MGAXX5w4ETRAt-aXHy_pad-2" x="1095.3" y="1300"/><use xlink:href="#f4MGAXX5w4ETRAt-aXHy_pad-2" x="1126.5" y="1362.5"/><use xlink:href="#f4MGAXX5w4ETRAt-aXHy_pad-2" x="939" y="1356.3"/><use xlink:href="#f4MGAXX5w4ETRAt-aXHy_pad-2" x="845.3" y="1375"/><use xlink:href="#f4MGAXX5w4ETRAt-aXHy_pad-2" x="845.3" y="1406.3"/><use xlink:href="#f4MGAXX5w4ETRAt-aXHy_pad-2" x="714" y="1262.5"/><use xlink:href="#f4MGAXX5w4ETRAt-aXHy_pad-2" x="707.8" y="1150"/><use xlink:href="#f4MGAXX5w4ETRAt-aXHy_pad-2" x="607.8" y="1143.8"/><use xlink:href="#f4MGAXX5w4ETRAt-aXHy_pad-2" x="620.3" y="1062.5"/><use xlink:href="#f4MGAXX5w4ETRAt-aXHy_pad-2" x="551.5" y="950"/><use xlink:href="#f4MGAXX5w4ETRAt-aXHy_pad-2" x="420.3" y="1056.3"/><use xlink:href="#f4MGAXX5w4ETRAt-aXHy_pad-2" x="414" y="1137.5"/><use xlink:href="#f4MGAXX5w4ETRAt-aXHy_pad-2" x="789" y="1031.3"/><use xlink:href="#f4MGAXX5w4ETRAt-aXHy_pad-2" x="871.5" y="950"/><use xlink:href="#f4MGAXX5w4ETRAt-aXHy_pad-2" x="856.4" y="907.6"/><use xlink:href="#f4MGAXX5w4ETRAt-aXHy_pad-2" x="970.3" y="951.9"/><use xlink:href="#f4MGAXX5w4ETRAt-aXHy_pad-2" x="989" y="1012.5"/><use xlink:href="#f4MGAXX5w4ETRAt-aXHy_pad-2" x="920.3" y="1125"/><use xlink:href="#f4MGAXX5w4ETRAt-aXHy_pad-2" x="932.8" y="728.5"/><use xlink:href="#f4MGAXX5w4ETRAt-aXHy_pad-2" x="1017.1" y="725"/><use xlink:href="#f4MGAXX5w4ETRAt-aXHy_pad-2" x="1057.8" y="728.5"/><use xlink:href="#f4MGAXX5w4ETRAt-aXHy_pad-2" x="1098.4" y="688.9"/><use xlink:href="#f4MGAXX5w4ETRAt-aXHy_pad-2" x="1082.8" y="668.8"/><use xlink:href="#f4MGAXX5w4ETRAt-aXHy_pad-2" x="1082.8" y="643.5"/><use xlink:href="#f4MGAXX5w4ETRAt-aXHy_pad-2" x="1082.8" y="618.2"/><use xlink:href="#f4MGAXX5w4ETRAt-aXHy_pad-2" x="982.8" y="636.6"/><use xlink:href="#f4MGAXX5w4ETRAt-aXHy_pad-2" x="920.3" y="643.8"/><use xlink:href="#f4MGAXX5w4ETRAt-aXHy_pad-2" x="857.8" y="643.8"/><use xlink:href="#f4MGAXX5w4ETRAt-aXHy_pad-2" x="795.3" y="643.8"/><use xlink:href="#f4MGAXX5w4ETRAt-aXHy_pad-2" x="626.5" y="519.6"/><use xlink:href="#f4MGAXX5w4ETRAt-aXHy_pad-2" x="645.3" y="467.9"/><use xlink:href="#f4MGAXX5w4ETRAt-aXHy_pad-2" x="601.5" y="393.8"/><use xlink:href="#f4MGAXX5w4ETRAt-aXHy_pad-2" x="664" y="350"/><use xlink:href="#f4MGAXX5w4ETRAt-aXHy_pad-2" x="732.8" y="462.5"/><use xlink:href="#f4MGAXX5w4ETRAt-aXHy_pad-2" x="901.5" y="387.5"/><use xlink:href="#f4MGAXX5w4ETRAt-aXHy_pad-2" x="897.3" y="362.2"/><use xlink:href="#f4MGAXX5w4ETRAt-aXHy_pad-2" x="914" y="412.8"/><use xlink:href="#f4MGAXX5w4ETRAt-aXHy_pad-2" x="1001.5" y="412.8"/><use xlink:href="#f4MGAXX5w4ETRAt-aXHy_pad-2" x="1001.5" y="387.5"/><use xlink:href="#f4MGAXX5w4ETRAt-aXHy_pad-2" x="1027.9" y="388.9"/><use xlink:href="#f4MGAXX5w4ETRAt-aXHy_pad-2" x="1076.5" y="375"/><use xlink:href="#f4MGAXX5w4ETRAt-aXHy_pad-2" x="990.1" y="319.8"/><use xlink:href="#f4MGAXX5w4ETRAt-aXHy_pad-2" x="1226.7" y="375"/><use xlink:href="#f4MGAXX5w4ETRAt-aXHy_pad-2" x="1226.2" y="450"/><use xlink:href="#f4MGAXX5w4ETRAt-aXHy_pad-2" x="1251.5" y="453.9"/><use xlink:href="#f4MGAXX5w4ETRAt-aXHy_pad-2" x="1207.2" y="507.1"/><use xlink:href="#f4MGAXX5w4ETRAt-aXHy_pad-2" x="1181.9" y="507.1"/><use xlink:href="#f4MGAXX5w4ETRAt-aXHy_pad-2" x="1315.4" y="623.6"/><use xlink:href="#f4MGAXX5w4ETRAt-aXHy_pad-2" x="1300.6" y="644.6"/><use xlink:href="#f4MGAXX5w4ETRAt-aXHy_pad-2" x="1282.8" y="662.5"/><use xlink:href="#f4MGAXX5w4ETRAt-aXHy_pad-2" x="1252" y="668.2"/><use xlink:href="#f4MGAXX5w4ETRAt-aXHy_pad-2" x="1240.4" y="692.4"/><use xlink:href="#f4MGAXX5w4ETRAt-aXHy_pad-2" x="1214" y="693.8"/><use xlink:href="#f4MGAXX5w4ETRAt-aXHy_pad-2" x="1340.7" y="618.8"/><use xlink:href="#f4MGAXX5w4ETRAt-aXHy_pad-2" x="1458.3" y="593.8"/><use xlink:href="#f4MGAXX5w4ETRAt-aXHy_pad-2" x="1520.3" y="581.3"/><use xlink:href="#f4MGAXX5w4ETRAt-aXHy_pad-2" x="1671.1" y="498"/><use xlink:href="#f4MGAXX5w4ETRAt-aXHy_pad-2" x="1714" y="518.8"/><use xlink:href="#f4MGAXX5w4ETRAt-aXHy_pad-2" x="1739.3" y="512.5"/><use xlink:href="#f4MGAXX5w4ETRAt-aXHy_pad-2" x="1714" y="475"/><use xlink:href="#f4MGAXX5w4ETRAt-aXHy_pad-2" x="1670.3" y="472.7"/><use xlink:href="#f4MGAXX5w4ETRAt-aXHy_pad-2" x="1670.3" y="443.8"/><use xlink:href="#f4MGAXX5w4ETRAt-aXHy_pad-2" x="1628" y="364.1"/><use xlink:href="#f4MGAXX5w4ETRAt-aXHy_pad-2" x="1576.8" y="315.1"/><use xlink:href="#f4MGAXX5w4ETRAt-aXHy_pad-2" x="1514" y="411.6"/><use xlink:href="#f4MGAXX5w4ETRAt-aXHy_pad-2" x="1482.8" y="411.6"/><use xlink:href="#f4MGAXX5w4ETRAt-aXHy_pad-2" x="1632.8" y="219.7"/><use xlink:href="#f4MGAXX5w4ETRAt-aXHy_pad-2" x="1770.3" y="256.3"/><use xlink:href="#f4MGAXX5w4ETRAt-aXHy_pad-2" x="1895.3" y="361.6"/><use xlink:href="#f4MGAXX5w4ETRAt-aXHy_pad-2" x="1927.9" y="388.9"/><use xlink:href="#f4MGAXX5w4ETRAt-aXHy_pad-2" x="1839" y="400.9"/><use xlink:href="#f4MGAXX5w4ETRAt-aXHy_pad-2" x="1814" y="437.5"/><use xlink:href="#f4MGAXX5w4ETRAt-aXHy_pad-2" x="1789" y="412.5"/><use xlink:href="#f4MGAXX5w4ETRAt-aXHy_pad-2" x="1789" y="550"/><use xlink:href="#f4MGAXX5w4ETRAt-aXHy_pad-2" x="1801.5" y="861.9"/><use xlink:href="#f4MGAXX5w4ETRAt-aXHy_pad-2" x="1695.3" y="856.3"/><use xlink:href="#f4MGAXX5w4ETRAt-aXHy_pad-2" x="1664" y="875"/><use xlink:href="#f4MGAXX5w4ETRAt-aXHy_pad-2" x="1801.5" y="968.8"/><use xlink:href="#f4MGAXX5w4ETRAt-aXHy_pad-2" x="1989" y="1012.5"/><use xlink:href="#f4MGAXX5w4ETRAt-aXHy_pad-2" x="2026.5" y="1156.3"/><use xlink:href="#f4MGAXX5w4ETRAt-aXHy_pad-2" x="2070.3" y="1168.8"/><use xlink:href="#f4MGAXX5w4ETRAt-aXHy_pad-2" x="2039" y="1437.5"/><use xlink:href="#f4MGAXX5w4ETRAt-aXHy_pad-2" x="2032.8" y="1512.5"/><use xlink:href="#f4MGAXX5w4ETRAt-aXHy_pad-2" x="2014.3" y="1572.4"/><use xlink:href="#f4MGAXX5w4ETRAt-aXHy_pad-2" x="1989" y="1575"/><use xlink:href="#f4MGAXX5w4ETRAt-aXHy_pad-2" x="1964" y="1568.8"/><use xlink:href="#f4MGAXX5w4ETRAt-aXHy_pad-2" x="1938.7" y="1575"/><use xlink:href="#f4MGAXX5w4ETRAt-aXHy_pad-2" x="1914" y="1625"/><use xlink:href="#f4MGAXX5w4ETRAt-aXHy_pad-2" x="1964" y="1652.6"/><use xlink:href="#f4MGAXX5w4ETRAt-aXHy_pad-2" x="1983" y="1675"/><use xlink:href="#f4MGAXX5w4ETRAt-aXHy_pad-2" x="2008.9" y="1681.3"/><use xlink:href="#f4MGAXX5w4ETRAt-aXHy_pad-2" x="2020.3" y="1743.8"/><use xlink:href="#f4MGAXX5w4ETRAt-aXHy_pad-2" x="1926.5" y="1668.8"/><use xlink:href="#f4MGAXX5w4ETRAt-aXHy_pad-2" x="1889" y="1692.4"/><use xlink:href="#f4MGAXX5w4ETRAt-aXHy_pad-2" x="1844" y="1670"/><use xlink:href="#f4MGAXX5w4ETRAt-aXHy_pad-2" x="1720.3" y="1631.3"/><use xlink:href="#f4MGAXX5w4ETRAt-aXHy_pad-2" x="1714" y="1687.5"/><use xlink:href="#f4MGAXX5w4ETRAt-aXHy_pad-2" x="1620.3" y="1606.3"/><use xlink:href="#f4MGAXX5w4ETRAt-aXHy_pad-2" x="1620.3" y="1575"/><use xlink:href="#f4MGAXX5w4ETRAt-aXHy_pad-2" x="1539" y="1618.8"/><use xlink:href="#f4MGAXX5w4ETRAt-aXHy_pad-2" x="1526.5" y="1693.8"/><use xlink:href="#f4MGAXX5w4ETRAt-aXHy_pad-2" x="1470.3" y="1737.5"/><use xlink:href="#f4MGAXX5w4ETRAt-aXHy_pad-2" x="1457.8" y="1600"/><use xlink:href="#f4MGAXX5w4ETRAt-aXHy_pad-2" x="2064" y="1581.3"/><use xlink:href="#f4MGAXX5w4ETRAt-aXHy_pad-2" x="2257.8" y="1718.8"/><use xlink:href="#f4MGAXX5w4ETRAt-aXHy_pad-2" x="370.3" y="1581.3"/><use xlink:href="#f4MGAXX5w4ETRAt-aXHy_pad-2" x="445.3" y="1675"/><use xlink:href="#f4MGAXX5w4ETRAt-aXHy_pad-2" x="489" y="1625"/><use xlink:href="#f4MGAXX5w4ETRAt-aXHy_pad-2" x="614" y="1737.5"/><use xlink:href="#f4MGAXX5w4ETRAt-aXHy_pad-2" x="2414" y="1225"/><use xlink:href="#f4MGAXX5w4ETRAt-aXHy_pad-3" x="428.5" y="240.6"/><use xlink:href="#f4MGAXX5w4ETRAt-aXHy_pad-3" x="2091" y="235"/><use xlink:href="#f4MGAXX5w4ETRAt-aXHy_pad-3" x="2091" y="265"/><use xlink:href="#f4MGAXX5w4ETRAt-aXHy_pad-3" x="2091" y="295"/><use xlink:href="#f4MGAXX5w4ETRAt-aXHy_pad-3" x="2091" y="325"/><use xlink:href="#f4MGAXX5w4ETRAt-aXHy_pad-3" x="2091" y="355"/><use xlink:href="#f4MGAXX5w4ETRAt-aXHy_pad-3" x="2091" y="385"/><use xlink:href="#f4MGAXX5w4ETRAt-aXHy_pad-3" x="2091" y="415"/><use xlink:href="#f4MGAXX5w4ETRAt-aXHy_pad-3" x="2091" y="445"/><use xlink:href="#f4MGAXX5w4ETRAt-aXHy_pad-3" x="2091" y="475"/><use xlink:href="#f4MGAXX5w4ETRAt-aXHy_pad-3" x="2091" y="505"/><use xlink:href="#f4MGAXX5w4ETRAt-aXHy_pad-3" x="2091" y="535"/><use xlink:href="#f4MGAXX5w4ETRAt-aXHy_pad-3" x="2091" y="565"/><use xlink:href="#f4MGAXX5w4ETRAt-aXHy_pad-3" x="2091" y="595"/><use xlink:href="#f4MGAXX5w4ETRAt-aXHy_pad-3" x="2091" y="625"/><use xlink:href="#f4MGAXX5w4ETRAt-aXHy_pad-3" x="2091" y="655"/><use xlink:href="#f4MGAXX5w4ETRAt-aXHy_pad-3" x="2061" y="655"/><use xlink:href="#f4MGAXX5w4ETRAt-aXHy_pad-3" x="2031" y="655"/><use xlink:href="#f4MGAXX5w4ETRAt-aXHy_pad-3" x="2001" y="655"/><use xlink:href="#f4MGAXX5w4ETRAt-aXHy_pad-3" x="1971" y="655"/><use xlink:href="#f4MGAXX5w4ETRAt-aXHy_pad-3" x="1941" y="655"/><use xlink:href="#f4MGAXX5w4ETRAt-aXHy_pad-3" x="1911" y="655"/><use xlink:href="#f4MGAXX5w4ETRAt-aXHy_pad-3" x="1881" y="655"/><use xlink:href="#f4MGAXX5w4ETRAt-aXHy_pad-3" x="1851" y="655"/><use xlink:href="#f4MGAXX5w4ETRAt-aXHy_pad-3" x="1824.1" y="655"/><use xlink:href="#f4MGAXX5w4ETRAt-aXHy_pad-3" x="1922.3" y="612.5"/><use xlink:href="#f4MGAXX5w4ETRAt-aXHy_pad-3" x="2022.3" y="593.8"/><use xlink:href="#f4MGAXX5w4ETRAt-aXHy_pad-3" x="2034.8" y="518.8"/><use xlink:href="#f4MGAXX5w4ETRAt-aXHy_pad-3" x="1928.5" y="418.8"/><use xlink:href="#f4MGAXX5w4ETRAt-aXHy_pad-3" x="2034.8" y="393.8"/><use xlink:href="#f4MGAXX5w4ETRAt-aXHy_pad-3" x="2159" y="444"/><use xlink:href="#f4MGAXX5w4ETRAt-aXHy_pad-3" x="1803.5" y="337.5"/><use xlink:href="#f4MGAXX5w4ETRAt-aXHy_pad-3" x="1741" y="350"/><use xlink:href="#f4MGAXX5w4ETRAt-aXHy_pad-3" x="1728.5" y="262.5"/><use xlink:href="#f4MGAXX5w4ETRAt-aXHy_pad-3" x="1797.3" y="256.3"/><use xlink:href="#f4MGAXX5w4ETRAt-aXHy_pad-3" x="1478.5" y="337.5"/><use xlink:href="#f4MGAXX5w4ETRAt-aXHy_pad-3" x="1416" y="406.3"/><use xlink:href="#f4MGAXX5w4ETRAt-aXHy_pad-3" x="1309.8" y="406.3"/><use xlink:href="#f4MGAXX5w4ETRAt-aXHy_pad-3" x="1109.8" y="256.3"/><use xlink:href="#f4MGAXX5w4ETRAt-aXHy_pad-3" x="1062.9" y="346.9"/><use xlink:href="#f4MGAXX5w4ETRAt-aXHy_pad-3" x="897.3" y="450"/><use xlink:href="#f4MGAXX5w4ETRAt-aXHy_pad-3" x="822.3" y="356.3"/><use xlink:href="#f4MGAXX5w4ETRAt-aXHy_pad-3" x="778.5" y="334.4"/><use xlink:href="#f4MGAXX5w4ETRAt-aXHy_pad-3" x="731.6" y="362.5"/><use xlink:href="#f4MGAXX5w4ETRAt-aXHy_pad-3" x="662.9" y="315.6"/><use xlink:href="#f4MGAXX5w4ETRAt-aXHy_pad-3" x="628.5" y="331.3"/><use xlink:href="#f4MGAXX5w4ETRAt-aXHy_pad-3" x="572.3" y="393.8"/><use xlink:href="#f4MGAXX5w4ETRAt-aXHy_pad-3" x="459.8" y="512.5"/><use xlink:href="#f4MGAXX5w4ETRAt-aXHy_pad-3" x="422.3" y="468.8"/><use xlink:href="#f4MGAXX5w4ETRAt-aXHy_pad-3" x="591" y="587.5"/><use xlink:href="#f4MGAXX5w4ETRAt-aXHy_pad-3" x="534.8" y="637.5"/><use xlink:href="#f4MGAXX5w4ETRAt-aXHy_pad-3" x="416" y="737.5"/><use xlink:href="#f4MGAXX5w4ETRAt-aXHy_pad-3" x="359.8" y="787.5"/><use xlink:href="#f4MGAXX5w4ETRAt-aXHy_pad-3" x="609.8" y="825"/><use xlink:href="#f4MGAXX5w4ETRAt-aXHy_pad-3" x="691" y="862.5"/><use xlink:href="#f4MGAXX5w4ETRAt-aXHy_pad-3" x="791" y="925"/><use xlink:href="#f4MGAXX5w4ETRAt-aXHy_pad-3" x="797.3" y="975"/><use xlink:href="#f4MGAXX5w4ETRAt-aXHy_pad-3" x="1009.8" y="975"/><use xlink:href="#f4MGAXX5w4ETRAt-aXHy_pad-3" x="1134.8" y="900"/><use xlink:href="#f4MGAXX5w4ETRAt-aXHy_pad-3" x="1178.5" y="868.8"/><use xlink:href="#f4MGAXX5w4ETRAt-aXHy_pad-3" x="1272.3" y="893.8"/><use xlink:href="#f4MGAXX5w4ETRAt-aXHy_pad-3" x="1409.8" y="900"/><use xlink:href="#f4MGAXX5w4ETRAt-aXHy_pad-3" x="1447.3" y="793.8"/><use xlink:href="#f4MGAXX5w4ETRAt-aXHy_pad-3" x="1534.8" y="825"/><use xlink:href="#f4MGAXX5w4ETRAt-aXHy_pad-3" x="1653.5" y="918.8"/><use xlink:href="#f4MGAXX5w4ETRAt-aXHy_pad-3" x="1653.5" y="956.3"/><use xlink:href="#f4MGAXX5w4ETRAt-aXHy_pad-3" x="1911" y="775"/><use xlink:href="#f4MGAXX5w4ETRAt-aXHy_pad-3" x="1941" y="775"/><use xlink:href="#f4MGAXX5w4ETRAt-aXHy_pad-3" x="1971" y="775"/><use xlink:href="#f4MGAXX5w4ETRAt-aXHy_pad-3" x="2061" y="775"/><use xlink:href="#f4MGAXX5w4ETRAt-aXHy_pad-3" x="2091" y="775"/><use xlink:href="#f4MGAXX5w4ETRAt-aXHy_pad-3" x="2091" y="805"/><use xlink:href="#f4MGAXX5w4ETRAt-aXHy_pad-3" x="2151" y="835"/><use xlink:href="#f4MGAXX5w4ETRAt-aXHy_pad-3" x="2181" y="835"/><use xlink:href="#f4MGAXX5w4ETRAt-aXHy_pad-3" x="2211" y="835"/><use xlink:href="#f4MGAXX5w4ETRAt-aXHy_pad-3" x="2241" y="835"/><use xlink:href="#f4MGAXX5w4ETRAt-aXHy_pad-3" x="2271" y="835"/><use xlink:href="#f4MGAXX5w4ETRAt-aXHy_pad-3" x="2301" y="835"/><use xlink:href="#f4MGAXX5w4ETRAt-aXHy_pad-3" x="2331" y="835"/><use xlink:href="#f4MGAXX5w4ETRAt-aXHy_pad-3" x="2361" y="835"/><use xlink:href="#f4MGAXX5w4ETRAt-aXHy_pad-3" x="2391" y="835"/><use xlink:href="#f4MGAXX5w4ETRAt-aXHy_pad-3" x="2366" y="881.3"/><use xlink:href="#f4MGAXX5w4ETRAt-aXHy_pad-3" x="2297.3" y="925"/><use xlink:href="#f4MGAXX5w4ETRAt-aXHy_pad-3" x="2272.3" y="881.3"/><use xlink:href="#f4MGAXX5w4ETRAt-aXHy_pad-3" x="2191" y="906.3"/><use xlink:href="#f4MGAXX5w4ETRAt-aXHy_pad-3" x="1359.8" y="575"/><use xlink:href="#f4MGAXX5w4ETRAt-aXHy_pad-3" x="1297.3" y="575"/><use xlink:href="#f4MGAXX5w4ETRAt-aXHy_pad-3" x="1222.3" y="750"/><use xlink:href="#f4MGAXX5w4ETRAt-aXHy_pad-3" x="1034.8" y="587.5"/><use xlink:href="#f4MGAXX5w4ETRAt-aXHy_pad-3" x="716" y="706.3"/><use xlink:href="#f4MGAXX5w4ETRAt-aXHy_pad-3" x="787.9" y="281.3"/><use xlink:href="#f4MGAXX5w4ETRAt-aXHy_pad-3" x="791" y="237.5"/><use xlink:href="#f4MGAXX5w4ETRAt-aXHy_pad-3" x="1228.5" y="237.5"/><use xlink:href="#f4MGAXX5w4ETRAt-aXHy_pad-3" x="1328.5" y="237.5"/><use xlink:href="#f4MGAXX5w4ETRAt-aXHy_pad-4" x="1839" y="262.5"/><use xlink:href="#f4MGAXX5w4ETRAt-aXHy_pad-4" x="1889" y="262.5"/><use xlink:href="#f4MGAXX5w4ETRAt-aXHy_pad-4" x="1939" y="262.5"/><use xlink:href="#f4MGAXX5w4ETRAt-aXHy_pad-4" x="1989" y="262.5"/><use xlink:href="#f4MGAXX5w4ETRAt-aXHy_pad-4" x="2039" y="262.5"/><use xlink:href="#f4MGAXX5w4ETRAt-aXHy_pad-4" x="2039" y="312.5"/><use xlink:href="#f4MGAXX5w4ETRAt-aXHy_pad-4" x="1989" y="312.5"/><use xlink:href="#f4MGAXX5w4ETRAt-aXHy_pad-4" x="1939" y="312.5"/><use xlink:href="#f4MGAXX5w4ETRAt-aXHy_pad-4" x="1889" y="312.5"/><use xlink:href="#f4MGAXX5w4ETRAt-aXHy_pad-4" x="1839" y="312.5"/><use xlink:href="#f4MGAXX5w4ETRAt-aXHy_pad-5" x="639" y="262.5"/><use xlink:href="#f4MGAXX5w4ETRAt-aXHy_pad-5" x="739" y="262.5"/><use xlink:href="#f4MGAXX5w4ETRAt-aXHy_pad-5" x="839" y="262.5"/><use xlink:href="#f4MGAXX5w4ETRAt-aXHy_pad-5" x="939" y="262.5"/><use xlink:href="#f4MGAXX5w4ETRAt-aXHy_pad-5" x="1039" y="262.5"/><use xlink:href="#f4MGAXX5w4ETRAt-aXHy_pad-5" x="1176.5" y="262.5"/><use xlink:href="#f4MGAXX5w4ETRAt-aXHy_pad-5" x="1276.5" y="262.5"/><use xlink:href="#f4MGAXX5w4ETRAt-aXHy_pad-5" x="1376.5" y="262.5"/><use xlink:href="#f4MGAXX5w4ETRAt-aXHy_pad-5" x="1476.5" y="262.5"/><use xlink:href="#f4MGAXX5w4ETRAt-aXHy_pad-5" x="2386.4" y="1306.4"/><use xlink:href="#f4MGAXX5w4ETRAt-aXHy_pad-5" x="2386.4" y="1406.4"/><use xlink:href="#f4MGAXX5w4ETRAt-aXHy_pad-6" x="2132.8" y="1425"/><use xlink:href="#f4MGAXX5w4ETRAt-aXHy_pad-6" x="2132.8" y="1625"/></g></svg>