<svg version="1.1" xmlns="http://www.w3.org/2000/svg" xmlns:xlink="http://www.w3.org/1999/xlink" stroke-linecap="round" stroke-linejoin="round" stroke-width="0" fill-rule="evenodd" width="2.16536in" height="1.57481in" viewBox="276.495 199.995 2165.36 1574.81" id="ENiJ6pmxjFQV17rKNxY2"><defs><rect x="-21.685" y="-23.655" width="43.37" height="47.31" id="ENiJ6pmxjFQV17rKNxY2_pad-12"/><rect x="-13.81" y="-17.75" width="27.62" height="35.5" id="ENiJ6pmxjFQV17rKNxY2_pad-13"/><rect x="-23.655" y="-21.685" width="47.31" height="43.37" id="ENiJ6pmxjFQV17rKNxY2_pad-14"/><rect x="-35.465" y="-41.37" width="70.93" height="82.74" id="ENiJ6pmxjFQV17rKNxY2_pad-15"/><rect x="-25.62" y="-25.62" width="51.24" height="51.24" id="ENiJ6pmxjFQV17rKNxY2_pad-16"/><circle cx="0" cy="0" r="52" id="ENiJ6pmxjFQV17rKNxY2_pad-17"/><polygon points="51.99989,21.53906 21.53906,51.99989 -21.53906,51.99989 -51.99989,21.53906 -51.99989,-21.53906 -21.53906,-51.99989 21.53906,-51.99989 51.99989,-21.53906" id="ENiJ6pmxjFQV17rKNxY2_pad-18"/><rect x="-12.825" y="-25.62" width="25.65" height="51.24" id="ENiJ6pmxjFQV17rKNxY2_pad-19"/><rect x="-14.5" y="-22" width="29" height="44" id="ENiJ6pmxjFQV17rKNxY2_pad-20"/><rect x="-12" y="-15.78" width="24" height="31.56" id="ENiJ6pmxjFQV17rKNxY2_pad-21"/><rect x="-19.715" y="-15.78" width="39.43" height="31.56" id="ENiJ6pmxjFQV17rKNxY2_pad-22"/><rect x="-16.765" y="-15.78" width="33.53" height="31.56" id="ENiJ6pmxjFQV17rKNxY2_pad-23"/><rect x="-37.435" y="-21.685" width="74.87" height="43.37" id="ENiJ6pmxjFQV17rKNxY2_pad-24"/><rect x="-18.73" y="-19.715" width="37.46" height="39.43" id="ENiJ6pmxjFQV17rKNxY2_pad-25"/><circle cx="0" cy="0" r="22" id="ENiJ6pmxjFQV17rKNxY2_pad-26"/><rect x="-15.78" y="-19.715" width="31.56" height="39.43" id="ENiJ6pmxjFQV17rKNxY2_pad-27"/><rect x="-17.75" y="-17.75" width="35.5" height="35.5" id="ENiJ6pmxjFQV17rKNxY2_pad-28"/><rect x="-33.5" y="-25" width="67" height="50" id="ENiJ6pmxjFQV17rKNxY2_pad-29"/><rect x="-36" y="-3" width="72" height="6" id="ENiJ6pmxjFQV17rKNxY2_pad-30"/><rect x="-31.53" y="-47.275" width="63.06" height="94.55" id="ENiJ6pmxjFQV17rKNxY2_pad-31"/><rect x="-29.56" y="-29.56" width="59.12" height="59.12" id="ENiJ6pmxjFQV17rKNxY2_pad-32"/><rect x="-27" y="-14.5" width="54" height="29" id="ENiJ6pmxjFQV17rKNxY2_pad-33"/><rect x="-13.81" y="-13.81" width="27.62" height="27.62" id="ENiJ6pmxjFQV17rKNxY2_pad-34"/><rect x="-31.135" y="-103.575" width="62.27" height="207.15" id="ENiJ6pmxjFQV17rKNxY2_pad-36"/><rect x="-23.655" y="-41.37" width="47.31" height="82.74" id="ENiJ6pmxjFQV17rKNxY2_pad-37"/><rect x="-45.7" y="-32.905" width="91.4" height="65.81" id="ENiJ6pmxjFQV17rKNxY2_pad-38"/><rect x="-37.435" y="-33.495" width="74.87" height="66.99" id="ENiJ6pmxjFQV17rKNxY2_pad-39"/><rect x="-41.37" y="-41.37" width="82.74" height="82.74" id="ENiJ6pmxjFQV17rKNxY2_pad-40"/><rect x="-14.5" y="-27" width="29" height="54" id="ENiJ6pmxjFQV17rKNxY2_pad-41"/><rect x="-2.5" y="-2.5" width="5" height="5" id="ENiJ6pmxjFQV17rKNxY2_pad-42"/><circle cx="0" cy="0" r="35" id="ENiJ6pmxjFQV17rKNxY2_pad-43"/><rect x="-19.325" y="-6.53" width="38.65" height="13.06" id="ENiJ6pmxjFQV17rKNxY2_pad-44"/><rect x="-92.55" y="-92.55" width="185.1" height="185.1" id="ENiJ6pmxjFQV17rKNxY2_pad-45"/><rect x="-6.53" y="-19.325" width="13.06" height="38.65" id="ENiJ6pmxjFQV17rKNxY2_pad-46"/><rect x="-15.19" y="-21.685" width="30.38" height="43.37" id="ENiJ6pmxjFQV17rKNxY2_pad-49"/><rect x="-9.875" y="-12.04" width="19.75" height="24.08" id="ENiJ6pmxjFQV17rKNxY2_pad-50"/></defs><g transform="translate(0,1974.8) scale(1,-1)" fill="currentColor" stroke="currentColor"><path d="M 355.24 200 2363.11 200 2365.01 200.02 2366.91 200.09 2368.81 200.21 2370.71 200.37 2372.6 200.57 2374.49 200.83 2376.37 201.12 2378.24 201.47 2380.1 201.86 2381.95 202.29 2383.8 202.77 2385.63 203.29 2387.44 203.85 2389.24 204.46 2391.03 205.12 2392.8 205.81 2394.56 206.55 2396.29 207.33 2398.01 208.16 2399.7 209.02 2401.38 209.92 2403.03 210.87 2404.66 211.85 2406.26 212.88 2407.84 213.94 2409.39 215.04 2410.92 216.17 2412.42 217.35 2413.88 218.56 2415.32 219.8 2416.73 221.08 2418.11 222.39 2419.46 223.74 2420.77 225.12 2422.05 226.53 2423.29 227.97 2424.5 229.43 2425.68 230.93 2426.81 232.46 2427.91 234.01 2428.97 235.59 2430 237.19 2430.98 238.82 2431.93 240.47 2432.83 242.15 2433.69 243.84 2434.52 245.56 2435.3 247.29 2436.04 249.05 2436.73 250.82 2437.39 252.61 2438 254.41 2438.56 256.22 2439.08 258.05 2439.56 259.9 2439.99 261.75 2440.38 263.61 2440.73 265.48 2441.02 267.36 2441.28 269.25 2441.48 271.14 2441.64 273.04 2441.76 274.94 2441.83 276.84 2441.85 278.74 2441.85 1696.06 M 2311.93 1696.06 2311.95 1697.49 2312.01 1698.92 2312.11 1700.34 2312.25 1701.76 2312.43 1703.18 2312.65 1704.6 2312.9 1706 2313.2 1707.4 2313.54 1708.79 2313.91 1710.17 2314.33 1711.54 2314.78 1712.89 2315.27 1714.23 2315.79 1715.56 2316.35 1716.88 2316.95 1718.17 2317.59 1719.45 2318.26 1720.72 2318.97 1721.96 2319.71 1723.18 2320.48 1724.38 2321.29 1725.56 2322.13 1726.72 2323 1727.85 2323.9 1728.96 2324.84 1730.04 2325.8 1731.1 2326.79 1732.12 2327.82 1733.12 2328.86 1734.09 2329.94 1735.04 2331.04 1735.95 2332.17 1736.83 2333.32 1737.67 2334.49 1738.49 2335.69 1739.27 2336.9 1740.02 2338.14 1740.74 2339.4 1741.42 2340.67 1742.06 2341.97 1742.67 2343.28 1743.24 2344.6 1743.78 2345.94 1744.27 2347.29 1744.74 2348.66 1745.16 2350.04 1745.54 2351.42 1745.89 2352.82 1746.19 2354.22 1746.46 2355.63 1746.69 2357.05 1746.88 2358.47 1747.03 2359.9 1747.14 2361.32 1747.21 2362.75 1747.24 2364.18 1747.23 2365.61 1747.18 2367.04 1747.09 2368.46 1746.96 2369.88 1746.79 2371.29 1746.58 2372.7 1746.33 2374.1 1746.05 2375.49 1745.72 2376.87 1745.35 2378.24 1744.95 2379.6 1744.51 2380.95 1744.03 2382.28 1743.51 2383.6 1742.96 2384.9 1742.37 2386.19 1741.74 2387.45 1741.08 2388.7 1740.38 2389.93 1739.65 2391.13 1738.89 2392.32 1738.09 2393.48 1737.25 2394.62 1736.39 2395.73 1735.49 2396.82 1734.57 2397.88 1733.61 2398.92 1732.63 2399.93 1731.61 2400.9 1730.57 2401.85 1729.5 2402.77 1728.41 2403.66 1727.29 2404.52 1726.14 2405.34 1724.98 2406.13 1723.78 2406.89 1722.57 2407.61 1721.34 2408.3 1720.09 2408.95 1718.82 2409.57 1717.53 2410.15 1716.22 2410.7 1714.9 2411.2 1713.56 2411.67 1712.21 2412.11 1710.85 2412.5 1709.48 2412.85 1708.09 2413.17 1706.7 2413.45 1705.3 2413.69 1703.89 2413.89 1702.47 2414.05 1701.05 2414.17 1699.63 2414.25 1698.2 2414.29 1696.77 2414.29 1695.35 2414.25 1693.92 2414.17 1692.49 2414.05 1691.07 2413.89 1689.65 2413.69 1688.23 2413.45 1686.82 2413.17 1685.42 2412.85 1684.03 2412.5 1682.64 2412.11 1681.27 2411.67 1679.91 2411.2 1678.56 2410.7 1677.22 2410.15 1675.9 2409.57 1674.59 2408.95 1673.3 2408.3 1672.03 2407.61 1670.78 2406.89 1669.55 2406.13 1668.34 2405.34 1667.14 2404.52 1665.98 2403.66 1664.83 2402.77 1663.71 2401.85 1662.62 2400.9 1661.55 2399.93 1660.51 2398.92 1659.49 2397.88 1658.51 2396.82 1657.55 2395.73 1656.63 2394.62 1655.73 2393.48 1654.87 2392.32 1654.03 2391.13 1653.23 2389.93 1652.47 2388.7 1651.74 2387.45 1651.04 2386.19 1650.38 2384.9 1649.75 2383.6 1649.16 2382.28 1648.61 2380.95 1648.09 2379.6 1647.61 2378.24 1647.17 2376.87 1646.77 2375.49 1646.4 2374.1 1646.07 2372.7 1645.79 2371.29 1645.54 2369.88 1645.33 2368.46 1645.16 2367.04 1645.03 2365.61 1644.94 2364.18 1644.89 2362.75 1644.88 2361.32 1644.91 2359.9 1644.98 2358.47 1645.09 2357.05 1645.24 2355.63 1645.43 2354.22 1645.66 2352.82 1645.93 2351.42 1646.23 2350.04 1646.58 2348.66 1646.96 2347.29 1647.38 2345.94 1647.85 2344.6 1648.34 2343.28 1648.88 2341.97 1649.45 2340.67 1650.06 2339.4 1650.7 2338.14 1651.38 2336.9 1652.1 2335.69 1652.85 2334.49 1653.63 2333.32 1654.45 2332.17 1655.29 2331.04 1656.17 2329.94 1657.08 2328.86 1658.03 2327.82 1659 2326.79 1660 2325.8 1661.02 2324.84 1662.08 2323.9 1663.16 2323 1664.27 2322.13 1665.4 2321.29 1666.56 2320.48 1667.74 2319.71 1668.94 2318.97 1670.16 2318.26 1671.4 2317.59 1672.67 2316.95 1673.95 2316.35 1675.24 2315.79 1676.56 2315.27 1677.89 2314.78 1679.23 2314.33 1680.58 2313.91 1681.95 2313.54 1683.33 2313.2 1684.72 2312.9 1686.12 2312.65 1687.52 2312.43 1688.94 2312.25 1690.36 2312.11 1691.78 2312.01 1693.2 2311.95 1694.63 2311.93 1696.06 M 2363.11 1774.8 2365.01 1774.78 2366.91 1774.71 2368.81 1774.59 2370.71 1774.43 2372.6 1774.23 2374.49 1773.97 2376.37 1773.68 2378.24 1773.33 2380.1 1772.94 2381.95 1772.51 2383.8 1772.03 2385.63 1771.51 2387.44 1770.95 2389.24 1770.34 2391.03 1769.68 2392.8 1768.99 2394.56 1768.25 2396.29 1767.47 2398.01 1766.64 2399.7 1765.78 2401.38 1764.88 2403.03 1763.93 2404.66 1762.95 2406.26 1761.92 2407.84 1760.86 2409.39 1759.76 2410.92 1758.63 2412.42 1757.45 2413.88 1756.24 2415.32 1755 2416.73 1753.72 2418.11 1752.41 2419.46 1751.06 2420.77 1749.68 2422.05 1748.27 2423.29 1746.83 2424.5 1745.37 2425.68 1743.87 2426.81 1742.34 2427.91 1740.79 2428.97 1739.21 2430 1737.61 2430.98 1735.98 2431.93 1734.33 2432.83 1732.65 2433.69 1730.96 2434.52 1729.24 2435.3 1727.51 2436.04 1725.75 2436.73 1723.98 2437.39 1722.19 2438 1720.39 2438.56 1718.58 2439.08 1716.75 2439.56 1714.9 2439.99 1713.05 2440.38 1711.19 2440.73 1709.32 2441.02 1707.44 2441.28 1705.55 2441.48 1703.66 2441.64 1701.76 2441.76 1699.86 2441.83 1697.96 2441.85 1696.06 M 2363.11 1774.8 355.24 1774.8 M 304.06 1696.06 304.08 1697.49 304.14 1698.92 304.24 1700.34 304.38 1701.76 304.56 1703.18 304.78 1704.6 305.03 1706 305.33 1707.4 305.67 1708.79 306.04 1710.17 306.46 1711.54 306.91 1712.89 307.4 1714.23 307.92 1715.56 308.48 1716.88 309.08 1718.17 309.72 1719.45 310.39 1720.72 311.1 1721.96 311.84 1723.18 312.61 1724.38 313.42 1725.56 314.26 1726.72 315.13 1727.85 316.03 1728.96 316.97 1730.04 317.93 1731.1 318.92 1732.12 319.95 1733.12 320.99 1734.09 322.07 1735.04 323.17 1735.95 324.3 1736.83 325.45 1737.67 326.62 1738.49 327.82 1739.27 329.03 1740.02 330.27 1740.74 331.53 1741.42 332.8 1742.06 334.1 1742.67 335.41 1743.24 336.73 1743.78 338.07 1744.27 339.42 1744.74 340.79 1745.16 342.17 1745.54 343.55 1745.89 344.95 1746.19 346.35 1746.46 347.76 1746.69 349.18 1746.88 350.6 1747.03 352.03 1747.14 353.45 1747.21 354.88 1747.24 356.31 1747.23 357.74 1747.18 359.17 1747.09 360.59 1746.96 362.01 1746.79 363.42 1746.58 364.83 1746.33 366.23 1746.05 367.62 1745.72 369 1745.35 370.37 1744.95 371.73 1744.51 373.08 1744.03 374.41 1743.51 375.73 1742.96 377.03 1742.37 378.32 1741.74 379.58 1741.08 380.83 1740.38 382.06 1739.65 383.26 1738.89 384.45 1738.09 385.61 1737.25 386.75 1736.39 387.86 1735.49 388.95 1734.57 390.01 1733.61 391.05 1732.63 392.06 1731.61 393.03 1730.57 393.98 1729.5 394.9 1728.41 395.79 1727.29 396.65 1726.14 397.47 1724.98 398.26 1723.78 399.02 1722.57 399.74 1721.34 400.43 1720.09 401.08 1718.82 401.7 1717.53 402.28 1716.22 402.83 1714.9 403.33 1713.56 403.8 1712.21 404.24 1710.85 404.63 1709.48 404.98 1708.09 405.3 1706.7 405.58 1705.3 405.82 1703.89 406.02 1702.47 406.18 1701.05 406.3 1699.63 406.38 1698.2 406.42 1696.77 406.42 1695.35 406.38 1693.92 406.3 1692.49 406.18 1691.07 406.02 1689.65 405.82 1688.23 405.58 1686.82 405.3 1685.42 404.98 1684.03 404.63 1682.64 404.24 1681.27 403.8 1679.91 403.33 1678.56 402.83 1677.22 402.28 1675.9 401.7 1674.59 401.08 1673.3 400.43 1672.03 399.74 1670.78 399.02 1669.55 398.26 1668.34 397.47 1667.14 396.65 1665.98 395.79 1664.83 394.9 1663.71 393.98 1662.62 393.03 1661.55 392.06 1660.51 391.05 1659.49 390.01 1658.51 388.95 1657.55 387.86 1656.63 386.75 1655.73 385.61 1654.87 384.45 1654.03 383.26 1653.23 382.06 1652.47 380.83 1651.74 379.58 1651.04 378.32 1650.38 377.03 1649.75 375.73 1649.16 374.41 1648.61 373.08 1648.09 371.73 1647.61 370.37 1647.17 369 1646.77 367.62 1646.4 366.23 1646.07 364.83 1645.79 363.42 1645.54 362.01 1645.33 360.59 1645.16 359.17 1645.03 357.74 1644.94 356.31 1644.89 354.88 1644.88 353.45 1644.91 352.03 1644.98 350.6 1645.09 349.18 1645.24 347.76 1645.43 346.35 1645.66 344.95 1645.93 343.55 1646.23 342.17 1646.58 340.79 1646.96 339.42 1647.38 338.07 1647.85 336.73 1648.34 335.41 1648.88 334.1 1649.45 332.8 1650.06 331.53 1650.7 330.27 1651.38 329.03 1652.1 327.82 1652.85 326.62 1653.63 325.45 1654.45 324.3 1655.29 323.17 1656.17 322.07 1657.08 320.99 1658.03 319.95 1659 318.92 1660 317.93 1661.02 316.97 1662.08 316.03 1663.16 315.13 1664.27 314.26 1665.4 313.42 1666.56 312.61 1667.74 311.84 1668.94 311.1 1670.16 310.39 1671.4 309.72 1672.67 309.08 1673.95 308.48 1675.24 307.92 1676.56 307.4 1677.89 306.91 1679.23 306.46 1680.58 306.04 1681.95 305.67 1683.33 305.33 1684.72 305.03 1686.12 304.78 1687.52 304.56 1688.94 304.38 1690.36 304.24 1691.78 304.14 1693.2 304.08 1694.63 304.06 1696.06 M 276.5 1696.06 276.5 278.74 M 304.06 278.74 304.08 280.17 304.14 281.6 304.24 283.02 304.38 284.44 304.56 285.86 304.78 287.28 305.03 288.68 305.33 290.08 305.67 291.47 306.04 292.85 306.46 294.22 306.91 295.57 307.4 296.91 307.92 298.24 308.48 299.56 309.08 300.85 309.72 302.13 310.39 303.4 311.1 304.64 311.84 305.86 312.61 307.06 313.42 308.24 314.26 309.4 315.13 310.53 316.03 311.64 316.97 312.72 317.93 313.78 318.92 314.8 319.95 315.8 320.99 316.77 322.07 317.72 323.17 318.63 324.3 319.51 325.45 320.35 326.62 321.17 327.82 321.95 329.03 322.7 330.27 323.42 331.53 324.1 332.8 324.74 334.1 325.35 335.41 325.92 336.73 326.46 338.07 326.95 339.42 327.42 340.79 327.84 342.17 328.22 343.55 328.57 344.95 328.87 346.35 329.14 347.76 329.37 349.18 329.56 350.6 329.71 352.03 329.82 353.45 329.89 354.88 329.92 356.31 329.91 357.74 329.86 359.17 329.77 360.59 329.64 362.01 329.47 363.42 329.26 364.83 329.01 366.23 328.73 367.62 328.4 369 328.03 370.37 327.63 371.73 327.19 373.08 326.71 374.41 326.19 375.73 325.64 377.03 325.05 378.32 324.42 379.58 323.76 380.83 323.06 382.06 322.33 383.26 321.57 384.45 320.77 385.61 319.93 386.75 319.07 387.86 318.17 388.95 317.25 390.01 316.29 391.05 315.31 392.06 314.29 393.03 313.25 393.98 312.18 394.9 311.09 395.79 309.97 396.65 308.82 397.47 307.66 398.26 306.46 399.02 305.25 399.74 304.02 400.43 302.77 401.08 301.5 401.7 300.21 402.28 298.9 402.83 297.58 403.33 296.24 403.8 294.89 404.24 293.53 404.63 292.16 404.98 290.77 405.3 289.38 405.58 287.98 405.82 286.57 406.02 285.15 406.18 283.73 406.3 282.31 406.38 280.88 406.42 279.45 406.42 278.03 406.38 276.6 406.3 275.17 406.18 273.75 406.02 272.33 405.82 270.91 405.58 269.5 405.3 268.1 404.98 266.71 404.63 265.32 404.24 263.95 403.8 262.59 403.33 261.24 402.83 259.9 402.28 258.58 401.7 257.27 401.08 255.98 400.43 254.71 399.74 253.46 399.02 252.23 398.26 251.02 397.47 249.82 396.65 248.66 395.79 247.51 394.9 246.39 393.98 245.3 393.03 244.23 392.06 243.19 391.05 242.17 390.01 241.19 388.95 240.23 387.86 239.31 386.75 238.41 385.61 237.55 384.45 236.71 383.26 235.91 382.06 235.15 380.83 234.42 379.58 233.72 378.32 233.06 377.03 232.43 375.73 231.84 374.41 231.29 373.08 230.77 371.73 230.29 370.37 229.85 369 229.45 367.62 229.08 366.23 228.75 364.83 228.47 363.42 228.22 362.01 228.01 360.59 227.84 359.17 227.71 357.74 227.62 356.31 227.57 354.88 227.56 353.45 227.59 352.03 227.66 350.6 227.77 349.18 227.92 347.76 228.11 346.35 228.34 344.95 228.61 343.55 228.91 342.17 229.26 340.79 229.64 339.42 230.06 338.07 230.53 336.73 231.02 335.41 231.56 334.1 232.13 332.8 232.74 331.53 233.38 330.27 234.06 329.03 234.78 327.82 235.53 326.62 236.31 325.45 237.13 324.3 237.97 323.17 238.85 322.07 239.76 320.99 240.71 319.95 241.68 318.92 242.68 317.93 243.7 316.97 244.76 316.03 245.84 315.13 246.95 314.26 248.08 313.42 249.24 312.61 250.42 311.84 251.62 311.1 252.84 310.39 254.08 309.72 255.35 309.08 256.63 308.48 257.92 307.92 259.24 307.4 260.57 306.91 261.91 306.46 263.26 306.04 264.63 305.67 266.01 305.33 267.4 305.03 268.8 304.78 270.2 304.56 271.62 304.38 273.04 304.24 274.46 304.14 275.88 304.08 277.31 304.06 278.74 M 276.5 278.74 276.52 276.84 276.59 274.94 276.71 273.04 276.87 271.14 277.07 269.25 277.33 267.36 277.62 265.48 277.97 263.61 278.36 261.75 278.79 259.9 279.27 258.05 279.79 256.22 280.35 254.41 280.96 252.61 281.62 250.82 282.31 249.05 283.05 247.29 283.83 245.56 284.66 243.84 285.52 242.15 286.42 240.47 287.37 238.82 288.35 237.19 289.38 235.59 290.44 234.01 291.54 232.46 292.67 230.93 293.85 229.43 295.06 227.97 296.3 226.53 297.58 225.12 298.89 223.74 300.24 222.39 301.62 221.08 303.03 219.8 304.47 218.56 305.93 217.35 307.43 216.17 308.96 215.04 310.51 213.94 312.09 212.88 313.69 211.85 315.32 210.87 316.97 209.92 318.65 209.02 320.34 208.16 322.06 207.33 323.79 206.55 325.55 205.81 327.32 205.12 329.11 204.46 330.91 203.85 332.72 203.29 334.55 202.77 336.4 202.29 338.25 201.86 340.11 201.47 341.98 201.12 343.86 200.83 345.75 200.57 347.64 200.37 349.54 200.21 351.44 200.09 353.34 200.02 355.24 200 M 1878.86 514.96 1878.88 516.39 1878.94 517.82 1879.04 519.24 1879.18 520.66 1879.36 522.08 1879.58 523.5 1879.83 524.9 1880.13 526.3 1880.47 527.69 1880.84 529.07 1881.26 530.44 1881.71 531.79 1882.2 533.13 1882.72 534.46 1883.28 535.78 1883.88 537.07 1884.52 538.35 1885.19 539.62 1885.9 540.86 1886.64 542.08 1887.41 543.28 1888.22 544.46 1889.06 545.62 1889.93 546.75 1890.83 547.86 1891.77 548.94 1892.73 550 1893.72 551.02 1894.75 552.02 1895.79 552.99 1896.87 553.94 1897.97 554.85 1899.1 555.73 1900.25 556.57 1901.42 557.39 1902.62 558.17 1903.83 558.92 1905.07 559.64 1906.33 560.32 1907.6 560.96 1908.9 561.57 1910.21 562.14 1911.53 562.68 1912.87 563.17 1914.22 563.64 1915.59 564.06 1916.97 564.44 1918.35 564.79 1919.75 565.09 1921.15 565.36 1922.56 565.59 1923.98 565.78 1925.4 565.93 1926.83 566.04 1928.25 566.11 1929.68 566.14 1931.11 566.13 1932.54 566.08 1933.97 565.99 1935.39 565.86 1936.81 565.69 1938.22 565.48 1939.63 565.23 1941.03 564.95 1942.42 564.62 1943.8 564.25 1945.17 563.85 1946.53 563.41 1947.88 562.93 1949.21 562.41 1950.53 561.86 1951.83 561.27 1953.12 560.64 1954.38 559.98 1955.63 559.28 1956.86 558.55 1958.06 557.79 1959.25 556.99 1960.41 556.15 1961.55 555.29 1962.66 554.39 1963.75 553.47 1964.81 552.51 1965.85 551.53 1966.86 550.51 1967.83 549.47 1968.78 548.4 1969.7 547.31 1970.59 546.19 1971.45 545.04 1972.27 543.88 1973.06 542.68 1973.82 541.47 1974.54 540.24 1975.23 538.99 1975.88 537.72 1976.5 536.43 1977.08 535.12 1977.63 533.8 1978.13 532.46 1978.6 531.11 1979.04 529.75 1979.43 528.38 1979.78 526.99 1980.1 525.6 1980.38 524.2 1980.62 522.79 1980.82 521.37 1980.98 519.95 1981.1 518.53 1981.18 517.1 1981.22 515.67 1981.22 514.25 1981.18 512.82 1981.1 511.39 1980.98 509.97 1980.82 508.55 1980.62 507.13 1980.38 505.72 1980.1 504.32 1979.78 502.93 1979.43 501.54 1979.04 500.17 1978.6 498.81 1978.13 497.46 1977.63 496.12 1977.08 494.8 1976.5 493.49 1975.88 492.2 1975.23 490.93 1974.54 489.68 1973.82 488.45 1973.06 487.24 1972.27 486.04 1971.45 484.88 1970.59 483.73 1969.7 482.61 1968.78 481.52 1967.83 480.45 1966.86 479.41 1965.85 478.39 1964.81 477.41 1963.75 476.45 1962.66 475.53 1961.55 474.63 1960.41 473.77 1959.25 472.93 1958.06 472.13 1956.86 471.37 1955.63 470.64 1954.38 469.94 1953.12 469.28 1951.83 468.65 1950.53 468.06 1949.21 467.51 1947.88 466.99 1946.53 466.51 1945.17 466.07 1943.8 465.67 1942.42 465.3 1941.03 464.97 1939.63 464.69 1938.22 464.44 1936.81 464.23 1935.39 464.06 1933.97 463.93 1932.54 463.84 1931.11 463.79 1929.68 463.78 1928.25 463.81 1926.83 463.88 1925.4 463.99 1923.98 464.14 1922.56 464.33 1921.15 464.56 1919.75 464.83 1918.35 465.13 1916.97 465.48 1915.59 465.86 1914.22 466.28 1912.87 466.75 1911.53 467.24 1910.21 467.78 1908.9 468.35 1907.6 468.96 1906.33 469.6 1905.07 470.28 1903.83 471 1902.62 471.75 1901.42 472.53 1900.25 473.35 1899.1 474.19 1897.97 475.07 1896.87 475.98 1895.79 476.93 1894.75 477.9 1893.72 478.9 1892.73 479.92 1891.77 480.98 1890.83 482.06 1889.93 483.17 1889.06 484.3 1888.22 485.46 1887.41 486.64 1886.64 487.84 1885.9 489.06 1885.19 490.3 1884.52 491.57 1883.88 492.85 1883.28 494.14 1882.72 495.46 1882.2 496.79 1881.71 498.13 1881.26 499.48 1880.84 500.85 1880.47 502.23 1880.13 503.62 1879.83 505.02 1879.58 506.42 1879.36 507.84 1879.18 509.26 1879.04 510.68 1878.94 512.1 1878.88 513.53 1878.86 514.96 M 355.24 1774.8 353.34 1774.78 351.44 1774.71 349.54 1774.59 347.64 1774.43 345.75 1774.23 343.86 1773.97 341.98 1773.68 340.11 1773.33 338.25 1772.94 336.4 1772.51 334.55 1772.03 332.72 1771.51 330.91 1770.95 329.11 1770.34 327.32 1769.68 325.55 1768.99 323.79 1768.25 322.06 1767.47 320.34 1766.64 318.65 1765.78 316.97 1764.88 315.32 1763.93 313.69 1762.95 312.09 1761.92 310.51 1760.86 308.96 1759.76 307.43 1758.63 305.93 1757.45 304.47 1756.24 303.03 1755 301.62 1753.72 300.24 1752.41 298.89 1751.06 297.58 1749.68 296.3 1748.27 295.06 1746.83 293.85 1745.37 292.67 1743.87 291.54 1742.34 290.44 1740.79 289.38 1739.21 288.35 1737.61 287.37 1735.98 286.42 1734.33 285.52 1732.65 284.66 1730.96 283.83 1729.24 283.05 1727.51 282.31 1725.75 281.62 1723.98 280.96 1722.19 280.35 1720.39 279.79 1718.58 279.27 1716.75 278.79 1714.9 278.36 1713.05 277.97 1711.19 277.62 1709.32 277.33 1707.44 277.07 1705.55 276.87 1703.66 276.71 1701.76 276.59 1699.86 276.52 1697.96 276.5 1696.06" fill="none" stroke-width="0.01"/><path d="M 1192.89 1408.61 1244.17 1408.61 1244.17 1391.19 1192.89 1391.19 1192.89 1408.61 M 1192.89 1400.5 1244.17 1400.5 M 1244.17 1371.21 1192.89 1371.21 M 1244.17 1371.21 1244.17 1353.79 1192.89 1353.79 1192.89 1371.21 M 1192.89 1363.1 1244.17 1363.1 M 1244.17 1333.81 1192.89 1333.81 M 1244.17 1333.81 1244.17 1316.39 1192.89 1316.39 1192.89 1333.81 M 1192.89 1325.7 1244.17 1325.7 M 1283.83 1333.81 1335.11 1333.81 1335.11 1316.39 1283.83 1316.39 1283.83 1333.81 M 1283.83 1325.7 1335.11 1325.7 M 1335.11 1371.21 1283.83 1371.21 M 1335.11 1371.21 1335.11 1353.79 1283.83 1353.79 1283.83 1371.21 M 1283.83 1363.1 1335.11 1363.1 M 1335.11 1408.61 1283.83 1408.61 M 1335.11 1408.61 1335.11 1391.19 1283.83 1391.19 1283.83 1408.61 M 1283.83 1400.5 1335.11 1400.5" fill="none" stroke-width="9.8"/><use xlink:href="#ENiJ6pmxjFQV17rKNxY2_pad-12" x="1395.25" y="1435.29"/><use xlink:href="#ENiJ6pmxjFQV17rKNxY2_pad-12" x="1395.25" y="1502.21"/><use xlink:href="#ENiJ6pmxjFQV17rKNxY2_pad-12" x="1301.5" y="1591.54"/><use xlink:href="#ENiJ6pmxjFQV17rKNxY2_pad-12" x="1239" y="1591.54"/><use xlink:href="#ENiJ6pmxjFQV17rKNxY2_pad-12" x="1176.5" y="1591.54"/><use xlink:href="#ENiJ6pmxjFQV17rKNxY2_pad-12" x="1114" y="1591.54"/><use xlink:href="#ENiJ6pmxjFQV17rKNxY2_pad-12" x="1051.5" y="1591.54"/><use xlink:href="#ENiJ6pmxjFQV17rKNxY2_pad-12" x="1051.5" y="1658.46"/><use xlink:href="#ENiJ6pmxjFQV17rKNxY2_pad-12" x="1114" y="1658.46"/><use xlink:href="#ENiJ6pmxjFQV17rKNxY2_pad-12" x="1176.5" y="1658.46"/><use xlink:href="#ENiJ6pmxjFQV17rKNxY2_pad-12" x="1239" y="1658.46"/><use xlink:href="#ENiJ6pmxjFQV17rKNxY2_pad-12" x="1301.5" y="1658.46"/><use xlink:href="#ENiJ6pmxjFQV17rKNxY2_pad-12" x="1676.5" y="1658.46"/><use xlink:href="#ENiJ6pmxjFQV17rKNxY2_pad-12" x="1676.5" y="1591.54"/><use xlink:href="#ENiJ6pmxjFQV17rKNxY2_pad-12" x="1414" y="1295.96"/><use xlink:href="#ENiJ6pmxjFQV17rKNxY2_pad-12" x="1414" y="1229.04"/><use xlink:href="#ENiJ6pmxjFQV17rKNxY2_pad-12" x="1852" y="1209.04"/><use xlink:href="#ENiJ6pmxjFQV17rKNxY2_pad-12" x="1852" y="1275.96"/><use xlink:href="#ENiJ6pmxjFQV17rKNxY2_pad-12" x="332.75" y="552.21"/><use xlink:href="#ENiJ6pmxjFQV17rKNxY2_pad-12" x="332.75" y="485.29"/><use xlink:href="#ENiJ6pmxjFQV17rKNxY2_pad-13" x="1159.47" y="1100"/><use xlink:href="#ENiJ6pmxjFQV17rKNxY2_pad-13" x="1159.47" y="1150"/><use xlink:href="#ENiJ6pmxjFQV17rKNxY2_pad-13" x="1218.53" y="1150"/><use xlink:href="#ENiJ6pmxjFQV17rKNxY2_pad-13" x="1218.53" y="1100"/><use xlink:href="#ENiJ6pmxjFQV17rKNxY2_pad-14" x="1219.34" y="1037.87"/><use xlink:href="#ENiJ6pmxjFQV17rKNxY2_pad-14" x="1152.41" y="1037.87"/><use xlink:href="#ENiJ6pmxjFQV17rKNxY2_pad-14" x="1310.41" y="953.62"/><use xlink:href="#ENiJ6pmxjFQV17rKNxY2_pad-14" x="1377.34" y="953.62"/><use xlink:href="#ENiJ6pmxjFQV17rKNxY2_pad-14" x="1355.54" y="1087.5"/><use xlink:href="#ENiJ6pmxjFQV17rKNxY2_pad-14" x="1355.54" y="1150"/><use xlink:href="#ENiJ6pmxjFQV17rKNxY2_pad-14" x="1422.46" y="1150"/><use xlink:href="#ENiJ6pmxjFQV17rKNxY2_pad-14" x="1422.46" y="1087.5"/><use xlink:href="#ENiJ6pmxjFQV17rKNxY2_pad-14" x="1284.96" y="1250"/><use xlink:href="#ENiJ6pmxjFQV17rKNxY2_pad-14" x="1218.04" y="1250"/><use xlink:href="#ENiJ6pmxjFQV17rKNxY2_pad-14" x="1244.29" y="1491.13"/><use xlink:href="#ENiJ6pmxjFQV17rKNxY2_pad-14" x="1311.21" y="1491.13"/><use xlink:href="#ENiJ6pmxjFQV17rKNxY2_pad-14" x="2036.79" y="1037.5"/><use xlink:href="#ENiJ6pmxjFQV17rKNxY2_pad-14" x="2103.71" y="1037.5"/><use xlink:href="#ENiJ6pmxjFQV17rKNxY2_pad-14" x="2168.04" y="1037.5"/><use xlink:href="#ENiJ6pmxjFQV17rKNxY2_pad-14" x="2168.04" y="1093.75"/><use xlink:href="#ENiJ6pmxjFQV17rKNxY2_pad-14" x="2234.96" y="1093.75"/><use xlink:href="#ENiJ6pmxjFQV17rKNxY2_pad-14" x="2234.96" y="1037.5"/><use xlink:href="#ENiJ6pmxjFQV17rKNxY2_pad-14" x="2234.96" y="1150"/><use xlink:href="#ENiJ6pmxjFQV17rKNxY2_pad-14" x="2168.04" y="1150"/><use xlink:href="#ENiJ6pmxjFQV17rKNxY2_pad-14" x="2168.04" y="1206.25"/><use xlink:href="#ENiJ6pmxjFQV17rKNxY2_pad-14" x="2168.04" y="1262.5"/><use xlink:href="#ENiJ6pmxjFQV17rKNxY2_pad-14" x="2234.96" y="1262.5"/><use xlink:href="#ENiJ6pmxjFQV17rKNxY2_pad-14" x="2234.96" y="1206.25"/><use xlink:href="#ENiJ6pmxjFQV17rKNxY2_pad-15" x="1614" y="1244.39"/><use xlink:href="#ENiJ6pmxjFQV17rKNxY2_pad-15" x="1614" y="1480.61"/><use xlink:href="#ENiJ6pmxjFQV17rKNxY2_pad-16" x="332.75" y="728.84"/><use xlink:href="#ENiJ6pmxjFQV17rKNxY2_pad-16" x="332.75" y="646.16"/><use xlink:href="#ENiJ6pmxjFQV17rKNxY2_pad-17" x="2132.75" y="1625"/><use xlink:href="#ENiJ6pmxjFQV17rKNxY2_pad-18" x="2132.75" y="1425"/><use xlink:href="#ENiJ6pmxjFQV17rKNxY2_pad-19" x="2102.4" y="1219.81"/><use xlink:href="#ENiJ6pmxjFQV17rKNxY2_pad-19" x="2027.6" y="1219.81"/><use xlink:href="#ENiJ6pmxjFQV17rKNxY2_pad-19" x="2027.6" y="1117.44"/><use xlink:href="#ENiJ6pmxjFQV17rKNxY2_pad-19" x="2065" y="1117.44"/><use xlink:href="#ENiJ6pmxjFQV17rKNxY2_pad-19" x="2102.4" y="1117.44"/><use xlink:href="#ENiJ6pmxjFQV17rKNxY2_pad-20" x="1564" y="1585.63"/><use xlink:href="#ENiJ6pmxjFQV17rKNxY2_pad-20" x="1526.6" y="1664.37"/><use xlink:href="#ENiJ6pmxjFQV17rKNxY2_pad-20" x="1451.4" y="1664.37"/><use xlink:href="#ENiJ6pmxjFQV17rKNxY2_pad-20" x="1376.6" y="1664.37"/><use xlink:href="#ENiJ6pmxjFQV17rKNxY2_pad-20" x="1414" y="1585.63"/><use xlink:href="#ENiJ6pmxjFQV17rKNxY2_pad-20" x="1601.4" y="1664.37"/><use xlink:href="#ENiJ6pmxjFQV17rKNxY2_pad-21" x="1149.78" y="1512.39"/><use xlink:href="#ENiJ6pmxjFQV17rKNxY2_pad-21" x="1112.37" y="1512.39"/><use xlink:href="#ENiJ6pmxjFQV17rKNxY2_pad-21" x="1074.97" y="1512.39"/><use xlink:href="#ENiJ6pmxjFQV17rKNxY2_pad-21" x="1074.97" y="1420.86"/><use xlink:href="#ENiJ6pmxjFQV17rKNxY2_pad-21" x="1112.37" y="1420.86"/><use xlink:href="#ENiJ6pmxjFQV17rKNxY2_pad-21" x="1149.78" y="1420.86"/><use xlink:href="#ENiJ6pmxjFQV17rKNxY2_pad-22" x="1451.5" y="963.09"/><use xlink:href="#ENiJ6pmxjFQV17rKNxY2_pad-22" x="1501.5" y="963.09"/><use xlink:href="#ENiJ6pmxjFQV17rKNxY2_pad-22" x="1501.5" y="911.91"/><use xlink:href="#ENiJ6pmxjFQV17rKNxY2_pad-22" x="1451.5" y="911.91"/><use xlink:href="#ENiJ6pmxjFQV17rKNxY2_pad-22" x="1695.25" y="905.66"/><use xlink:href="#ENiJ6pmxjFQV17rKNxY2_pad-22" x="1745.25" y="905.66"/><use xlink:href="#ENiJ6pmxjFQV17rKNxY2_pad-22" x="1801.5" y="913.09"/><use xlink:href="#ENiJ6pmxjFQV17rKNxY2_pad-22" x="1851.5" y="913.09"/><use xlink:href="#ENiJ6pmxjFQV17rKNxY2_pad-22" x="1851.5" y="861.91"/><use xlink:href="#ENiJ6pmxjFQV17rKNxY2_pad-22" x="1801.5" y="861.91"/><use xlink:href="#ENiJ6pmxjFQV17rKNxY2_pad-22" x="1876.5" y="775.59"/><use xlink:href="#ENiJ6pmxjFQV17rKNxY2_pad-22" x="1876.5" y="724.41"/><use xlink:href="#ENiJ6pmxjFQV17rKNxY2_pad-22" x="2001.5" y="724.41"/><use xlink:href="#ENiJ6pmxjFQV17rKNxY2_pad-22" x="2001.5" y="775.59"/><use xlink:href="#ENiJ6pmxjFQV17rKNxY2_pad-22" x="2001.5" y="861.91"/><use xlink:href="#ENiJ6pmxjFQV17rKNxY2_pad-22" x="2051.5" y="861.91"/><use xlink:href="#ENiJ6pmxjFQV17rKNxY2_pad-22" x="2101.5" y="861.91"/><use xlink:href="#ENiJ6pmxjFQV17rKNxY2_pad-22" x="2101.5" y="913.09"/><use xlink:href="#ENiJ6pmxjFQV17rKNxY2_pad-22" x="2051.5" y="913.09"/><use xlink:href="#ENiJ6pmxjFQV17rKNxY2_pad-22" x="2001.5" y="913.09"/><use xlink:href="#ENiJ6pmxjFQV17rKNxY2_pad-22" x="1965" y="1130.53"/><use xlink:href="#ENiJ6pmxjFQV17rKNxY2_pad-22" x="1965" y="1181.72"/><use xlink:href="#ENiJ6pmxjFQV17rKNxY2_pad-22" x="1745.25" y="956.84"/><use xlink:href="#ENiJ6pmxjFQV17rKNxY2_pad-22" x="1695.25" y="956.84"/><use xlink:href="#ENiJ6pmxjFQV17rKNxY2_pad-22" x="976.5" y="606.84"/><use xlink:href="#ENiJ6pmxjFQV17rKNxY2_pad-22" x="914" y="606.84"/><use xlink:href="#ENiJ6pmxjFQV17rKNxY2_pad-22" x="851.5" y="606.84"/><use xlink:href="#ENiJ6pmxjFQV17rKNxY2_pad-22" x="851.5" y="555.66"/><use xlink:href="#ENiJ6pmxjFQV17rKNxY2_pad-22" x="914" y="555.66"/><use xlink:href="#ENiJ6pmxjFQV17rKNxY2_pad-22" x="976.5" y="555.66"/><use xlink:href="#ENiJ6pmxjFQV17rKNxY2_pad-22" x="789" y="555.66"/><use xlink:href="#ENiJ6pmxjFQV17rKNxY2_pad-22" x="789" y="606.84"/><use xlink:href="#ENiJ6pmxjFQV17rKNxY2_pad-23" x="1841.71" y="968.75"/><use xlink:href="#ENiJ6pmxjFQV17rKNxY2_pad-23" x="1898.79" y="968.75"/><use xlink:href="#ENiJ6pmxjFQV17rKNxY2_pad-23" x="1899.93" y="907.19"/><use xlink:href="#ENiJ6pmxjFQV17rKNxY2_pad-23" x="1899.93" y="867.81"/><use xlink:href="#ENiJ6pmxjFQV17rKNxY2_pad-23" x="1953.07" y="867.81"/><use xlink:href="#ENiJ6pmxjFQV17rKNxY2_pad-23" x="1953.07" y="907.19"/><use xlink:href="#ENiJ6pmxjFQV17rKNxY2_pad-24" x="1401.5" y="849.21"/><use xlink:href="#ENiJ6pmxjFQV17rKNxY2_pad-24" x="1401.5" y="750.79"/><use xlink:href="#ENiJ6pmxjFQV17rKNxY2_pad-25" x="1572.42" y="912.5"/><use xlink:href="#ENiJ6pmxjFQV17rKNxY2_pad-25" x="1618.08" y="912.5"/><use xlink:href="#ENiJ6pmxjFQV17rKNxY2_pad-25" x="1916.17" y="725"/><use xlink:href="#ENiJ6pmxjFQV17rKNxY2_pad-25" x="1961.83" y="725"/><use xlink:href="#ENiJ6pmxjFQV17rKNxY2_pad-26" x="1939" y="312.5"/><use xlink:href="#ENiJ6pmxjFQV17rKNxY2_pad-26" x="1889" y="312.5"/><use xlink:href="#ENiJ6pmxjFQV17rKNxY2_pad-26" x="1839" y="312.5"/><use xlink:href="#ENiJ6pmxjFQV17rKNxY2_pad-26" x="1839" y="262.5"/><use xlink:href="#ENiJ6pmxjFQV17rKNxY2_pad-26" x="1889" y="262.5"/><use xlink:href="#ENiJ6pmxjFQV17rKNxY2_pad-26" x="1939" y="262.5"/><use xlink:href="#ENiJ6pmxjFQV17rKNxY2_pad-26" x="1989" y="262.5"/><use xlink:href="#ENiJ6pmxjFQV17rKNxY2_pad-26" x="2039" y="262.5"/><use xlink:href="#ENiJ6pmxjFQV17rKNxY2_pad-26" x="2039" y="312.5"/><use xlink:href="#ENiJ6pmxjFQV17rKNxY2_pad-26" x="1989" y="312.5"/><use xlink:href="#ENiJ6pmxjFQV17rKNxY2_pad-27" x="1627.97" y="315.12"/><use xlink:href="#ENiJ6pmxjFQV17rKNxY2_pad-27" x="1627.97" y="364.13"/><use xlink:href="#ENiJ6pmxjFQV17rKNxY2_pad-27" x="1576.78" y="364.13"/><use xlink:href="#ENiJ6pmxjFQV17rKNxY2_pad-27" x="1576.78" y="315.12"/><use xlink:href="#ENiJ6pmxjFQV17rKNxY2_pad-27" x="1576.78" y="266.12"/><use xlink:href="#ENiJ6pmxjFQV17rKNxY2_pad-27" x="1627.97" y="266.12"/><use xlink:href="#ENiJ6pmxjFQV17rKNxY2_pad-27" x="1458.34" y="593.75"/><use xlink:href="#ENiJ6pmxjFQV17rKNxY2_pad-27" x="1407.16" y="593.75"/><use xlink:href="#ENiJ6pmxjFQV17rKNxY2_pad-27" x="1327.09" y="775"/><use xlink:href="#ENiJ6pmxjFQV17rKNxY2_pad-27" x="1327.09" y="825"/><use xlink:href="#ENiJ6pmxjFQV17rKNxY2_pad-27" x="1275.91" y="825"/><use xlink:href="#ENiJ6pmxjFQV17rKNxY2_pad-27" x="1275.91" y="775"/><use xlink:href="#ENiJ6pmxjFQV17rKNxY2_pad-27" x="764.59" y="462.5"/><use xlink:href="#ENiJ6pmxjFQV17rKNxY2_pad-27" x="713.41" y="462.5"/><use xlink:href="#ENiJ6pmxjFQV17rKNxY2_pad-27" x="713.41" y="406.25"/><use xlink:href="#ENiJ6pmxjFQV17rKNxY2_pad-27" x="764.59" y="406.25"/><use xlink:href="#ENiJ6pmxjFQV17rKNxY2_pad-27" x="552.09" y="900"/><use xlink:href="#ENiJ6pmxjFQV17rKNxY2_pad-27" x="552.09" y="950"/><use xlink:href="#ENiJ6pmxjFQV17rKNxY2_pad-27" x="500.91" y="950"/><use xlink:href="#ENiJ6pmxjFQV17rKNxY2_pad-27" x="500.91" y="900"/><use xlink:href="#ENiJ6pmxjFQV17rKNxY2_pad-27" x="1050.91" y="1243.75"/><use xlink:href="#ENiJ6pmxjFQV17rKNxY2_pad-27" x="1102.09" y="1243.75"/><use xlink:href="#ENiJ6pmxjFQV17rKNxY2_pad-28" x="901.5" y="1320.28"/><use xlink:href="#ENiJ6pmxjFQV17rKNxY2_pad-28" x="776.5" y="1320.28"/><use xlink:href="#ENiJ6pmxjFQV17rKNxY2_pad-28" x="776.5" y="1495.28"/><use xlink:href="#ENiJ6pmxjFQV17rKNxY2_pad-28" x="901.5" y="1495.28"/><use xlink:href="#ENiJ6pmxjFQV17rKNxY2_pad-28" x="1559" y="956.25"/><use xlink:href="#ENiJ6pmxjFQV17rKNxY2_pad-28" x="1619" y="956.25"/><use xlink:href="#ENiJ6pmxjFQV17rKNxY2_pad-29" x="2376.5" y="957.5"/><use xlink:href="#ENiJ6pmxjFQV17rKNxY2_pad-29" x="2376.5" y="1017.5"/><use xlink:href="#ENiJ6pmxjFQV17rKNxY2_pad-30" x="2376.5" y="987.5"/><use xlink:href="#ENiJ6pmxjFQV17rKNxY2_pad-31" x="505.24" y="751.28"/><use xlink:href="#ENiJ6pmxjFQV17rKNxY2_pad-31" x="505.24" y="487.5"/><use xlink:href="#ENiJ6pmxjFQV17rKNxY2_pad-32" x="1850.62" y="1347.17"/><use xlink:href="#ENiJ6pmxjFQV17rKNxY2_pad-32" x="1850.62" y="1492.83"/><use xlink:href="#ENiJ6pmxjFQV17rKNxY2_pad-33" x="1535.38" y="1119.62"/><use xlink:href="#ENiJ6pmxjFQV17rKNxY2_pad-33" x="1535.38" y="1087.62"/><use xlink:href="#ENiJ6pmxjFQV17rKNxY2_pad-33" x="1535.38" y="1055.62"/><use xlink:href="#ENiJ6pmxjFQV17rKNxY2_pad-33" x="1057.75" y="878.5"/><use xlink:href="#ENiJ6pmxjFQV17rKNxY2_pad-33" x="1057.75" y="846.5"/><use xlink:href="#ENiJ6pmxjFQV17rKNxY2_pad-33" x="995.25" y="846.5"/><use xlink:href="#ENiJ6pmxjFQV17rKNxY2_pad-33" x="995.25" y="878.5"/><use xlink:href="#ENiJ6pmxjFQV17rKNxY2_pad-33" x="932.75" y="878.5"/><use xlink:href="#ENiJ6pmxjFQV17rKNxY2_pad-33" x="932.75" y="846.5"/><use xlink:href="#ENiJ6pmxjFQV17rKNxY2_pad-33" x="870.25" y="846.5"/><use xlink:href="#ENiJ6pmxjFQV17rKNxY2_pad-33" x="870.25" y="878.5"/><use xlink:href="#ENiJ6pmxjFQV17rKNxY2_pad-33" x="807.75" y="878.5"/><use xlink:href="#ENiJ6pmxjFQV17rKNxY2_pad-33" x="807.75" y="846.5"/><use xlink:href="#ENiJ6pmxjFQV17rKNxY2_pad-33" x="745.25" y="846.5"/><use xlink:href="#ENiJ6pmxjFQV17rKNxY2_pad-33" x="745.25" y="878.5"/><use xlink:href="#ENiJ6pmxjFQV17rKNxY2_pad-33" x="932.75" y="728.5"/><use xlink:href="#ENiJ6pmxjFQV17rKNxY2_pad-33" x="932.75" y="696.5"/><use xlink:href="#ENiJ6pmxjFQV17rKNxY2_pad-33" x="995.25" y="696.5"/><use xlink:href="#ENiJ6pmxjFQV17rKNxY2_pad-33" x="995.25" y="728.5"/><use xlink:href="#ENiJ6pmxjFQV17rKNxY2_pad-33" x="1057.75" y="728.5"/><use xlink:href="#ENiJ6pmxjFQV17rKNxY2_pad-33" x="1057.75" y="696.5"/><use xlink:href="#ENiJ6pmxjFQV17rKNxY2_pad-34" x="981.12" y="1575.57"/><use xlink:href="#ENiJ6pmxjFQV17rKNxY2_pad-34" x="981.12" y="1662.18"/><path d="M 659.82 429.08 646.82 429.08 646.82 407.82 668.08 407.82 668.08 420.82 659.82 420.82 659.82 429.08 M 659.82 428.8 646.82 428.8 M 646.82 428.42 659.82 428.42 M 659.82 428.05 646.82 428.05 M 646.82 427.67 659.82 427.67 M 659.82 427.29 646.82 427.29 M 646.82 426.91 659.82 426.91 M 659.82 426.53 646.82 426.53 M 646.82 426.15 659.82 426.15 M 659.82 425.77 646.82 425.77 M 646.82 425.39 659.82 425.39 M 659.82 425.02 646.82 425.02 M 646.82 424.64 659.82 424.64 M 659.82 424.26 646.82 424.26 M 646.82 423.88 659.82 423.88 M 659.82 423.5 646.82 423.5 M 646.82 423.12 659.82 423.12 M 659.82 422.74 646.82 422.74 M 646.82 422.36 659.82 422.36 M 659.82 421.98 646.82 421.98 M 646.82 421.61 659.82 421.61 M 659.82 421.23 646.82 421.23 M 646.82 420.85 659.82 420.85 M 668.08 420.47 646.82 420.47 M 646.82 420.09 668.08 420.09 M 668.08 419.71 646.82 419.71 M 646.82 419.33 668.08 419.33 M 668.08 418.95 646.82 418.95 M 646.82 418.58 668.08 418.58 M 668.08 418.2 646.82 418.2 M 646.82 417.82 668.08 417.82 M 668.08 417.44 646.82 417.44 M 646.82 417.06 668.08 417.06 M 668.08 416.68 646.82 416.68 M 646.82 416.3 668.08 416.3 M 668.08 415.92 646.82 415.92 M 646.82 415.55 668.08 415.55 M 668.08 415.17 646.82 415.17 M 646.82 414.79 668.08 414.79 M 668.08 414.41 646.82 414.41 M 646.82 414.03 668.08 414.03 M 668.08 413.65 646.82 413.65 M 646.82 413.27 668.08 413.27 M 668.08 412.89 646.82 412.89 M 646.82 412.51 668.08 412.51 M 668.08 412.14 646.82 412.14 M 646.82 411.76 668.08 411.76 M 668.08 411.38 646.82 411.38 M 646.82 411 668.08 411 M 668.08 410.62 646.82 410.62 M 646.82 410.24 668.08 410.24 M 668.08 409.86 646.82 409.86 M 646.82 409.48 668.08 409.48 M 668.08 409.11 646.82 409.11 M 646.82 408.73 668.08 408.73 M 668.08 408.35 646.82 408.35 M 646.82 407.97 668.08 407.97 M 668.08 404.68 668.08 391.68 659.82 391.68 646.82 391.68 M 646.82 392.06 668.08 392.06 M 668.08 392.44 646.82 392.44 M 646.82 392.82 668.08 392.82 M 668.08 393.2 646.82 393.2 M 646.82 393.57 668.08 393.57 M 668.08 393.95 646.82 393.95 M 646.82 394.33 668.08 394.33 M 668.08 394.71 646.82 394.71 M 646.82 395.09 668.08 395.09 M 668.08 395.47 646.82 395.47 M 646.82 395.85 668.08 395.85 M 668.08 396.23 646.82 396.23 M 646.82 396.6 668.08 396.6 M 668.08 396.98 646.82 396.98 M 646.82 397.36 668.08 397.36 M 668.08 397.74 646.82 397.74 M 646.82 398.12 668.08 398.12 M 668.08 398.5 646.82 398.5 M 646.82 398.88 668.08 398.88 M 668.08 399.26 646.82 399.26 M 646.82 399.63 668.08 399.63 M 668.08 400.01 646.82 400.01 M 646.82 400.39 668.08 400.39 M 668.08 400.77 646.82 400.77 M 646.82 401.15 668.08 401.15 M 668.08 401.53 646.82 401.53 M 646.82 401.91 668.08 401.91 M 668.08 402.29 646.82 402.29 M 646.82 402.67 668.08 402.67 M 668.08 403.04 646.82 403.04 M 646.82 403.42 668.08 403.42 M 668.08 403.8 646.82 403.8 M 646.82 404.18 668.08 404.18 M 668.08 404.56 646.82 404.56 M 646.82 404.68 646.82 383.42 659.82 383.42 659.82 391.68 M 659.82 391.3 646.82 391.3 M 646.82 390.92 659.82 390.92 M 659.82 390.54 646.82 390.54 M 646.82 390.16 659.82 390.16 M 659.82 389.79 646.82 389.79 M 646.82 389.41 659.82 389.41 M 659.82 389.03 646.82 389.03 M 646.82 388.65 659.82 388.65 M 659.82 388.27 646.82 388.27 M 646.82 387.89 659.82 387.89 M 659.82 387.51 646.82 387.51 M 646.82 387.13 659.82 387.13 M 659.82 386.76 646.82 386.76 M 646.82 386.38 659.82 386.38 M 659.82 386 646.82 386 M 646.82 385.62 659.82 385.62 M 659.82 385.24 646.82 385.24 M 646.82 384.86 659.82 384.86 M 659.82 384.48 646.82 384.48 M 646.82 384.1 659.82 384.1 M 659.82 383.72 646.82 383.72 M 643.68 383.72 630.68 383.72 M 630.68 383.42 643.68 383.42 643.68 404.68 622.42 404.68 622.42 391.68 630.68 391.68 643.68 391.68 M 643.68 392.06 622.42 392.06 M 622.42 392.44 643.68 392.44 M 643.68 392.82 622.42 392.82 M 622.42 393.2 643.68 393.2 M 643.68 393.57 622.42 393.57 M 622.42 393.95 643.68 393.95 M 643.68 394.33 622.42 394.33 M 622.42 394.71 643.68 394.71 M 643.68 395.09 622.42 395.09 M 622.42 395.47 643.68 395.47 M 643.68 395.85 622.42 395.85 M 622.42 396.23 643.68 396.23 M 643.68 396.6 622.42 396.6 M 622.42 396.98 643.68 396.98 M 643.68 397.36 622.42 397.36 M 622.42 397.74 643.68 397.74 M 643.68 398.12 622.42 398.12 M 622.42 398.5 643.68 398.5 M 643.68 398.88 622.42 398.88 M 622.42 399.26 643.68 399.26 M 643.68 399.63 622.42 399.63 M 622.42 400.01 643.68 400.01 M 643.68 400.39 622.42 400.39 M 622.42 400.77 643.68 400.77 M 643.68 401.15 622.42 401.15 M 622.42 401.53 643.68 401.53 M 643.68 401.91 622.42 401.91 M 622.42 402.29 643.68 402.29 M 643.68 402.67 622.42 402.67 M 622.42 403.04 643.68 403.04 M 643.68 403.42 622.42 403.42 M 622.42 403.8 643.68 403.8 M 643.68 404.18 622.42 404.18 M 622.42 404.56 643.68 404.56 M 646.82 404.68 668.08 404.68 M 643.68 407.82 643.68 429.08 630.68 429.08 630.68 420.82 622.42 420.82 622.42 407.82 643.68 407.82 M 643.68 407.97 622.42 407.97 M 622.42 408.35 643.68 408.35 M 643.68 408.73 622.42 408.73 M 622.42 409.11 643.68 409.11 M 643.68 409.48 622.42 409.48 M 622.42 409.86 643.68 409.86 M 643.68 410.24 622.42 410.24 M 622.42 410.62 643.68 410.62 M 643.68 411 622.42 411 M 622.42 411.38 643.68 411.38 M 643.68 411.76 622.42 411.76 M 622.42 412.14 643.68 412.14 M 643.68 412.51 622.42 412.51 M 622.42 412.89 643.68 412.89 M 643.68 413.27 622.42 413.27 M 622.42 413.65 643.68 413.65 M 643.68 414.03 622.42 414.03 M 622.42 414.41 643.68 414.41 M 643.68 414.79 622.42 414.79 M 622.42 415.17 643.68 415.17 M 643.68 415.55 622.42 415.55 M 622.42 415.92 643.68 415.92 M 643.68 416.3 622.42 416.3 M 622.42 416.68 643.68 416.68 M 643.68 417.06 622.42 417.06 M 622.42 417.44 643.68 417.44 M 643.68 417.82 622.42 417.82 M 622.42 418.2 643.68 418.2 M 643.68 418.58 622.42 418.58 M 622.42 418.95 643.68 418.95 M 643.68 419.33 622.42 419.33 M 622.42 419.71 643.68 419.71 M 643.68 420.09 622.42 420.09 M 622.42 420.47 643.68 420.47 M 643.68 420.85 630.68 420.85 M 630.68 421.23 643.68 421.23 M 643.68 421.61 630.68 421.61 M 630.68 421.98 643.68 421.98 M 643.68 422.36 630.68 422.36 M 630.68 422.74 643.68 422.74 M 643.68 423.12 630.68 423.12 M 630.68 423.5 643.68 423.5 M 643.68 423.88 630.68 423.88 M 630.68 424.26 643.68 424.26 M 643.68 424.64 630.68 424.64 M 630.68 425.02 643.68 425.02 M 643.68 425.39 630.68 425.39 M 630.68 425.77 643.68 425.77 M 643.68 426.15 630.68 426.15 M 630.68 426.53 643.68 426.53 M 643.68 426.91 630.68 426.91 M 630.68 427.29 643.68 427.29 M 643.68 427.67 630.68 427.67 M 630.68 428.05 643.68 428.05 M 643.68 428.42 630.68 428.42 M 630.68 428.8 643.68 428.8 M 643.68 391.3 630.68 391.3 M 630.68 390.92 643.68 390.92 M 643.68 390.54 630.68 390.54 M 630.68 390.16 643.68 390.16 M 643.68 389.79 630.68 389.79 M 630.68 389.41 643.68 389.41 M 643.68 389.03 630.68 389.03 M 630.68 388.65 643.68 388.65 M 643.68 388.27 630.68 388.27 M 630.68 387.89 643.68 387.89 M 643.68 387.51 630.68 387.51 M 630.68 387.13 643.68 387.13 M 643.68 386.76 630.68 386.76 M 630.68 386.38 643.68 386.38 M 643.68 386 630.68 386 M 630.68 385.62 643.68 385.62 M 643.68 385.24 630.68 385.24 M 630.68 384.86 643.68 384.86 M 643.68 384.48 630.68 384.48 M 630.68 384.1 643.68 384.1 M 630.68 383.42 630.68 391.68 M 1167.19 389.69 1175.46 389.69 1175.46 397.95 1188.45 397.95 1188.45 376.69 1167.19 376.69 1167.19 389.69 M 1167.19 389.41 1188.45 389.41 M 1188.45 389.79 1175.46 389.79 M 1175.46 390.16 1188.45 390.16 M 1188.45 390.54 1175.46 390.54 M 1175.46 390.92 1188.45 390.92 M 1188.45 391.3 1175.46 391.3 M 1175.46 391.68 1188.45 391.68 M 1188.45 392.06 1175.46 392.06 M 1175.46 392.44 1188.45 392.44 M 1188.45 392.82 1175.46 392.82 M 1175.46 393.2 1188.45 393.2 M 1188.45 393.57 1175.46 393.57 M 1175.46 393.95 1188.45 393.95 M 1188.45 394.33 1175.46 394.33 M 1175.46 394.71 1188.45 394.71 M 1188.45 395.09 1175.46 395.09 M 1175.46 395.47 1188.45 395.47 M 1188.45 395.85 1175.46 395.85 M 1175.46 396.23 1188.45 396.23 M 1188.45 396.6 1175.46 396.6 M 1175.46 396.98 1188.45 396.98 M 1188.45 397.36 1175.46 397.36 M 1175.46 397.74 1188.45 397.74 M 1191.6 397.74 1204.59 397.74 M 1204.59 397.95 1191.6 397.95 1191.6 376.69 1212.86 376.69 1212.86 389.69 1204.59 389.69 1204.59 397.95 M 1204.59 397.36 1191.6 397.36 M 1191.6 396.98 1204.59 396.98 M 1204.59 396.6 1191.6 396.6 M 1191.6 396.23 1204.59 396.23 M 1204.59 395.85 1191.6 395.85 M 1191.6 395.47 1204.59 395.47 M 1204.59 395.09 1191.6 395.09 M 1191.6 394.71 1204.59 394.71 M 1204.59 394.33 1191.6 394.33 M 1191.6 393.95 1204.59 393.95 M 1204.59 393.57 1191.6 393.57 M 1191.6 393.2 1204.59 393.2 M 1204.59 392.82 1191.6 392.82 M 1191.6 392.44 1204.59 392.44 M 1204.59 392.06 1191.6 392.06 M 1191.6 391.68 1204.59 391.68 M 1204.59 391.3 1191.6 391.3 M 1191.6 390.92 1204.59 390.92 M 1204.59 390.54 1191.6 390.54 M 1191.6 390.16 1204.59 390.16 M 1204.59 389.79 1191.6 389.79 M 1191.6 389.41 1212.86 389.41 M 1212.86 389.03 1191.6 389.03 M 1191.6 388.65 1212.86 388.65 M 1212.86 388.27 1191.6 388.27 M 1191.6 387.89 1212.86 387.89 M 1212.86 387.51 1191.6 387.51 M 1191.6 387.13 1212.86 387.13 M 1212.86 386.76 1191.6 386.76 M 1191.6 386.38 1212.86 386.38 M 1212.86 386 1191.6 386 M 1191.6 385.62 1212.86 385.62 M 1212.86 385.24 1191.6 385.24 M 1191.6 384.86 1212.86 384.86 M 1212.86 384.48 1191.6 384.48 M 1191.6 384.1 1212.86 384.1 M 1212.86 383.72 1191.6 383.72 M 1191.6 383.35 1212.86 383.35 M 1212.86 382.97 1191.6 382.97 M 1191.6 382.59 1212.86 382.59 M 1212.86 382.21 1191.6 382.21 M 1191.6 381.83 1212.86 381.83 M 1212.86 381.45 1191.6 381.45 M 1191.6 381.07 1212.86 381.07 M 1212.86 380.69 1191.6 380.69 M 1191.6 380.32 1212.86 380.32 M 1212.86 379.94 1191.6 379.94 M 1191.6 379.56 1212.86 379.56 M 1212.86 379.18 1191.6 379.18 M 1191.6 378.8 1212.86 378.8 M 1212.86 378.42 1191.6 378.42 M 1191.6 378.04 1212.86 378.04 M 1212.86 377.66 1191.6 377.66 M 1191.6 377.28 1212.86 377.28 M 1212.86 376.91 1191.6 376.91 M 1188.45 376.91 1167.19 376.91 M 1167.19 377.28 1188.45 377.28 M 1188.45 377.66 1167.19 377.66 M 1167.19 378.04 1188.45 378.04 M 1188.45 378.42 1167.19 378.42 M 1167.19 378.8 1188.45 378.8 M 1188.45 379.18 1167.19 379.18 M 1167.19 379.56 1188.45 379.56 M 1188.45 379.94 1167.19 379.94 M 1167.19 380.32 1188.45 380.32 M 1188.45 380.69 1167.19 380.69 M 1167.19 381.07 1188.45 381.07 M 1188.45 381.45 1167.19 381.45 M 1167.19 381.83 1188.45 381.83 M 1188.45 382.21 1167.19 382.21 M 1167.19 382.59 1188.45 382.59 M 1188.45 382.97 1167.19 382.97 M 1167.19 383.35 1188.45 383.35 M 1188.45 383.72 1167.19 383.72 M 1167.19 384.1 1188.45 384.1 M 1188.45 384.48 1167.19 384.48 M 1167.19 384.86 1188.45 384.86 M 1188.45 385.24 1167.19 385.24 M 1167.19 385.62 1188.45 385.62 M 1188.45 386 1167.19 386 M 1167.19 386.38 1188.45 386.38 M 1188.45 386.76 1167.19 386.76 M 1167.19 387.13 1188.45 387.13 M 1188.45 387.51 1167.19 387.51 M 1167.19 387.89 1188.45 387.89 M 1188.45 388.27 1167.19 388.27 M 1167.19 388.65 1188.45 388.65 M 1188.45 389.03 1167.19 389.03 M 1167.19 373.55 1167.19 360.55 1175.46 360.55 1175.46 352.29 1188.45 352.29 1188.45 373.55 1167.19 373.55 M 1167.19 373.5 1188.45 373.5 M 1188.45 373.12 1167.19 373.12 M 1167.19 372.74 1188.45 372.74 M 1188.45 372.36 1167.19 372.36 M 1167.19 371.98 1188.45 371.98 M 1188.45 371.6 1167.19 371.6 M 1167.19 371.22 1188.45 371.22 M 1188.45 370.85 1167.19 370.85 M 1167.19 370.47 1188.45 370.47 M 1188.45 370.09 1167.19 370.09 M 1167.19 369.71 1188.45 369.71 M 1188.45 369.33 1167.19 369.33 M 1167.19 368.95 1188.45 368.95 M 1188.45 368.57 1167.19 368.57 M 1167.19 368.19 1188.45 368.19 M 1188.45 367.81 1167.19 367.81 M 1167.19 367.44 1188.45 367.44 M 1188.45 367.06 1167.19 367.06 M 1167.19 366.68 1188.45 366.68 M 1188.45 366.3 1167.19 366.3 M 1167.19 365.92 1188.45 365.92 M 1188.45 365.54 1167.19 365.54 M 1167.19 365.16 1188.45 365.16 M 1188.45 364.78 1167.19 364.78 M 1167.19 364.41 1188.45 364.41 M 1188.45 364.03 1167.19 364.03 M 1167.19 363.65 1188.45 363.65 M 1188.45 363.27 1167.19 363.27 M 1167.19 362.89 1188.45 362.89 M 1188.45 362.51 1167.19 362.51 M 1167.19 362.13 1188.45 362.13 M 1188.45 361.75 1167.19 361.75 M 1167.19 361.37 1188.45 361.37 M 1188.45 361 1167.19 361 M 1167.19 360.62 1188.45 360.62 M 1188.45 360.24 1175.46 360.24 M 1175.46 359.86 1188.45 359.86 M 1188.45 359.48 1175.46 359.48 M 1175.46 359.1 1188.45 359.1 M 1188.45 358.72 1175.46 358.72 M 1175.46 358.34 1188.45 358.34 M 1188.45 357.97 1175.46 357.97 M 1175.46 357.59 1188.45 357.59 M 1188.45 357.21 1175.46 357.21 M 1175.46 356.83 1188.45 356.83 M 1188.45 356.45 1175.46 356.45 M 1175.46 356.07 1188.45 356.07 M 1188.45 355.69 1175.46 355.69 M 1175.46 355.31 1188.45 355.31 M 1188.45 354.93 1175.46 354.93 M 1175.46 354.56 1188.45 354.56 M 1188.45 354.18 1175.46 354.18 M 1175.46 353.8 1188.45 353.8 M 1188.45 353.42 1175.46 353.42 M 1175.46 353.04 1188.45 353.04 M 1188.45 352.66 1175.46 352.66 M 1191.6 352.66 1204.59 352.66 M 1204.59 352.29 1191.6 352.29 1191.6 373.55 1212.86 373.55 1212.86 360.55 1204.59 360.55 1204.59 352.29 M 1204.59 353.04 1191.6 353.04 M 1191.6 353.42 1204.59 353.42 M 1204.59 353.8 1191.6 353.8 M 1191.6 354.18 1204.59 354.18 M 1204.59 354.56 1191.6 354.56 M 1191.6 354.93 1204.59 354.93 M 1204.59 355.31 1191.6 355.31 M 1191.6 355.69 1204.59 355.69 M 1204.59 356.07 1191.6 356.07 M 1191.6 356.45 1204.59 356.45 M 1204.59 356.83 1191.6 356.83 M 1191.6 357.21 1204.59 357.21 M 1204.59 357.59 1191.6 357.59 M 1191.6 357.97 1204.59 357.97 M 1204.59 358.34 1191.6 358.34 M 1191.6 358.72 1204.59 358.72 M 1204.59 359.1 1191.6 359.1 M 1191.6 359.48 1204.59 359.48 M 1204.59 359.86 1191.6 359.86 M 1191.6 360.24 1204.59 360.24 M 1212.86 360.62 1191.6 360.62 M 1191.6 361 1212.86 361 M 1212.86 361.37 1191.6 361.37 M 1191.6 361.75 1212.86 361.75 M 1212.86 362.13 1191.6 362.13 M 1191.6 362.51 1212.86 362.51 M 1212.86 362.89 1191.6 362.89 M 1191.6 363.27 1212.86 363.27 M 1212.86 363.65 1191.6 363.65 M 1191.6 364.03 1212.86 364.03 M 1212.86 364.41 1191.6 364.41 M 1191.6 364.78 1212.86 364.78 M 1212.86 365.16 1191.6 365.16 M 1191.6 365.54 1212.86 365.54 M 1212.86 365.92 1191.6 365.92 M 1191.6 366.3 1212.86 366.3 M 1212.86 366.68 1191.6 366.68 M 1191.6 367.06 1212.86 367.06 M 1212.86 367.44 1191.6 367.44 M 1191.6 367.81 1212.86 367.81 M 1212.86 368.19 1191.6 368.19 M 1191.6 368.57 1212.86 368.57 M 1212.86 368.95 1191.6 368.95 M 1191.6 369.33 1212.86 369.33 M 1212.86 369.71 1191.6 369.71 M 1191.6 370.09 1212.86 370.09 M 1212.86 370.47 1191.6 370.47 M 1191.6 370.85 1212.86 370.85 M 1212.86 371.22 1191.6 371.22 M 1191.6 371.6 1212.86 371.6 M 1212.86 371.98 1191.6 371.98 M 1191.6 372.36 1212.86 372.36 M 1212.86 372.74 1191.6 372.74 M 1191.6 373.12 1212.86 373.12 M 1212.86 373.5 1191.6 373.5" fill="none" stroke-width="0.39"/><use xlink:href="#ENiJ6pmxjFQV17rKNxY2_pad-36" x="466.26" y="1198.43"/><use xlink:href="#ENiJ6pmxjFQV17rKNxY2_pad-36" x="636.74" y="1301.57"/><use xlink:href="#ENiJ6pmxjFQV17rKNxY2_pad-36" x="466.26" y="1448.43"/><use xlink:href="#ENiJ6pmxjFQV17rKNxY2_pad-36" x="636.74" y="1551.57"/><use xlink:href="#ENiJ6pmxjFQV17rKNxY2_pad-37" x="776.5" y="1420.47"/><use xlink:href="#ENiJ6pmxjFQV17rKNxY2_pad-37" x="901.5" y="1420.47"/><use xlink:href="#ENiJ6pmxjFQV17rKNxY2_pad-37" x="901.5" y="1245.47"/><use xlink:href="#ENiJ6pmxjFQV17rKNxY2_pad-37" x="776.5" y="1245.47"/><use xlink:href="#ENiJ6pmxjFQV17rKNxY2_pad-38" x="725.06" y="1596"/><use xlink:href="#ENiJ6pmxjFQV17rKNxY2_pad-38" x="885.69" y="1596"/><use xlink:href="#ENiJ6pmxjFQV17rKNxY2_pad-39" x="1001.5" y="1430.12"/><use xlink:href="#ENiJ6pmxjFQV17rKNxY2_pad-39" x="1001.5" y="1319.88"/><use xlink:href="#ENiJ6pmxjFQV17rKNxY2_pad-40" x="351.5" y="1066.14"/><use xlink:href="#ENiJ6pmxjFQV17rKNxY2_pad-40" x="351.5" y="908.66"/><use xlink:href="#ENiJ6pmxjFQV17rKNxY2_pad-41" x="1104.25" y="375"/><use xlink:href="#ENiJ6pmxjFQV17rKNxY2_pad-41" x="1136.25" y="375"/><use xlink:href="#ENiJ6pmxjFQV17rKNxY2_pad-41" x="2064.5" y="717"/><use xlink:href="#ENiJ6pmxjFQV17rKNxY2_pad-42" x="2169" y="434.5"/><use xlink:href="#ENiJ6pmxjFQV17rKNxY2_pad-43" x="1476.5" y="262.5"/><use xlink:href="#ENiJ6pmxjFQV17rKNxY2_pad-43" x="1376.5" y="262.5"/><use xlink:href="#ENiJ6pmxjFQV17rKNxY2_pad-43" x="1276.5" y="262.5"/><use xlink:href="#ENiJ6pmxjFQV17rKNxY2_pad-43" x="1176.5" y="262.5"/><use xlink:href="#ENiJ6pmxjFQV17rKNxY2_pad-43" x="1039" y="262.5"/><use xlink:href="#ENiJ6pmxjFQV17rKNxY2_pad-43" x="939" y="262.5"/><use xlink:href="#ENiJ6pmxjFQV17rKNxY2_pad-43" x="839" y="262.5"/><use xlink:href="#ENiJ6pmxjFQV17rKNxY2_pad-43" x="739" y="262.5"/><use xlink:href="#ENiJ6pmxjFQV17rKNxY2_pad-43" x="639" y="262.5"/><use xlink:href="#ENiJ6pmxjFQV17rKNxY2_pad-43" x="2386.37" y="1306.37"/><use xlink:href="#ENiJ6pmxjFQV17rKNxY2_pad-43" x="2386.37" y="1406.38"/><use xlink:href="#ENiJ6pmxjFQV17rKNxY2_pad-44" x="1768.04" y="792.86"/><use xlink:href="#ENiJ6pmxjFQV17rKNxY2_pad-44" x="1768.04" y="777.12"/><use xlink:href="#ENiJ6pmxjFQV17rKNxY2_pad-44" x="1768.04" y="761.37"/><use xlink:href="#ENiJ6pmxjFQV17rKNxY2_pad-44" x="1768.04" y="745.62"/><use xlink:href="#ENiJ6pmxjFQV17rKNxY2_pad-44" x="1768.04" y="729.87"/><use xlink:href="#ENiJ6pmxjFQV17rKNxY2_pad-44" x="1768.04" y="714.12"/><use xlink:href="#ENiJ6pmxjFQV17rKNxY2_pad-44" x="1768.04" y="698.38"/><use xlink:href="#ENiJ6pmxjFQV17rKNxY2_pad-44" x="1768.04" y="682.63"/><use xlink:href="#ENiJ6pmxjFQV17rKNxY2_pad-44" x="1768.04" y="666.88"/><use xlink:href="#ENiJ6pmxjFQV17rKNxY2_pad-44" x="1768.04" y="651.13"/><use xlink:href="#ENiJ6pmxjFQV17rKNxY2_pad-44" x="1768.04" y="635.38"/><use xlink:href="#ENiJ6pmxjFQV17rKNxY2_pad-44" x="1768.04" y="619.64"/><use xlink:href="#ENiJ6pmxjFQV17rKNxY2_pad-44" x="1534.96" y="619.64"/><use xlink:href="#ENiJ6pmxjFQV17rKNxY2_pad-44" x="1534.96" y="635.38"/><use xlink:href="#ENiJ6pmxjFQV17rKNxY2_pad-44" x="1534.96" y="651.13"/><use xlink:href="#ENiJ6pmxjFQV17rKNxY2_pad-44" x="1534.96" y="666.88"/><use xlink:href="#ENiJ6pmxjFQV17rKNxY2_pad-44" x="1534.96" y="682.63"/><use xlink:href="#ENiJ6pmxjFQV17rKNxY2_pad-44" x="1534.96" y="698.38"/><use xlink:href="#ENiJ6pmxjFQV17rKNxY2_pad-44" x="1534.96" y="714.12"/><use xlink:href="#ENiJ6pmxjFQV17rKNxY2_pad-44" x="1534.96" y="729.87"/><use xlink:href="#ENiJ6pmxjFQV17rKNxY2_pad-44" x="1534.96" y="745.62"/><use xlink:href="#ENiJ6pmxjFQV17rKNxY2_pad-44" x="1534.96" y="761.37"/><use xlink:href="#ENiJ6pmxjFQV17rKNxY2_pad-44" x="1534.96" y="777.12"/><use xlink:href="#ENiJ6pmxjFQV17rKNxY2_pad-44" x="1534.96" y="792.86"/><use xlink:href="#ENiJ6pmxjFQV17rKNxY2_pad-45" x="1651.5" y="706.25"/><use xlink:href="#ENiJ6pmxjFQV17rKNxY2_pad-46" x="1643.63" y="822.79"/><use xlink:href="#ENiJ6pmxjFQV17rKNxY2_pad-46" x="1659.37" y="822.79"/><use xlink:href="#ENiJ6pmxjFQV17rKNxY2_pad-46" x="1675.12" y="822.79"/><use xlink:href="#ENiJ6pmxjFQV17rKNxY2_pad-46" x="1690.87" y="822.79"/><use xlink:href="#ENiJ6pmxjFQV17rKNxY2_pad-46" x="1706.62" y="822.79"/><use xlink:href="#ENiJ6pmxjFQV17rKNxY2_pad-46" x="1722.37" y="822.79"/><use xlink:href="#ENiJ6pmxjFQV17rKNxY2_pad-46" x="1738.11" y="822.79"/><use xlink:href="#ENiJ6pmxjFQV17rKNxY2_pad-46" x="1627.88" y="822.79"/><use xlink:href="#ENiJ6pmxjFQV17rKNxY2_pad-46" x="1612.13" y="822.79"/><use xlink:href="#ENiJ6pmxjFQV17rKNxY2_pad-46" x="1596.38" y="822.79"/><use xlink:href="#ENiJ6pmxjFQV17rKNxY2_pad-46" x="1580.63" y="822.79"/><use xlink:href="#ENiJ6pmxjFQV17rKNxY2_pad-46" x="1564.89" y="822.79"/><use xlink:href="#ENiJ6pmxjFQV17rKNxY2_pad-46" x="1564.89" y="589.71"/><use xlink:href="#ENiJ6pmxjFQV17rKNxY2_pad-46" x="1580.63" y="589.71"/><use xlink:href="#ENiJ6pmxjFQV17rKNxY2_pad-46" x="1596.38" y="589.71"/><use xlink:href="#ENiJ6pmxjFQV17rKNxY2_pad-46" x="1612.13" y="589.71"/><use xlink:href="#ENiJ6pmxjFQV17rKNxY2_pad-46" x="1627.88" y="589.71"/><use xlink:href="#ENiJ6pmxjFQV17rKNxY2_pad-46" x="1643.63" y="589.71"/><use xlink:href="#ENiJ6pmxjFQV17rKNxY2_pad-46" x="1659.37" y="589.71"/><use xlink:href="#ENiJ6pmxjFQV17rKNxY2_pad-46" x="1675.12" y="589.71"/><use xlink:href="#ENiJ6pmxjFQV17rKNxY2_pad-46" x="1690.87" y="589.71"/><use xlink:href="#ENiJ6pmxjFQV17rKNxY2_pad-46" x="1706.62" y="589.71"/><use xlink:href="#ENiJ6pmxjFQV17rKNxY2_pad-46" x="1722.37" y="589.71"/><use xlink:href="#ENiJ6pmxjFQV17rKNxY2_pad-46" x="1738.11" y="589.71"/><path d="M 1135.77 1142.83 1092.83 1142.83 M 1135.77 1142.83 1135.77 1130.99 1092.83 1130.99 1092.83 1142.83 M 1092.83 1138.49 1135.77 1138.49 M 1135.77 1168.42 1092.83 1168.42 M 1135.77 1168.42 1135.77 1156.58 1092.83 1156.58 1092.83 1168.42 M 1092.83 1164.08 1135.77 1164.08 M 1135.77 1194.01 1092.83 1194.01 M 1135.77 1194.01 1135.77 1182.17 1092.83 1182.17 1092.83 1194.01 M 1092.83 1189.67 1135.77 1189.67 M 1060.17 1182.17 1017.23 1182.17 1017.23 1194.01 1060.17 1194.01 1060.17 1182.17 M 1060.17 1189.67 1017.23 1189.67 M 1017.23 1156.58 1060.17 1156.58 M 1017.23 1156.58 1017.23 1168.42 1060.17 1168.42 1060.17 1156.58 M 1060.17 1164.08 1017.23 1164.08 M 1017.23 1130.99 1060.17 1130.99 M 1017.23 1130.99 1017.23 1142.83 1060.17 1142.83 1060.17 1130.99 M 1060.17 1138.49 1017.23 1138.49" fill="none" stroke-width="7.9"/><path d="M 1830.64 1554.08 1830.64 1578.1 M 1830.64 1554.08 1821.18 1554.08 1821.18 1578.1 1830.64 1578.1 M 1830.64 1560.86 1821.18 1560.86 M 1821.18 1567.64 1830.64 1567.64 M 1830.64 1574.42 1821.18 1574.42 M 1856.23 1578.1 1856.23 1554.08 1846.77 1554.08 1846.77 1578.1 1856.23 1578.1 M 1856.23 1560.86 1846.77 1560.86 M 1846.77 1567.64 1856.23 1567.64 M 1856.23 1574.42 1846.77 1574.42 M 1881.82 1578.1 1881.82 1554.08 1872.36 1554.08 1872.36 1578.1 1881.82 1578.1 M 1881.82 1560.86 1872.36 1560.86 M 1872.36 1567.64 1881.82 1567.64 M 1881.82 1574.42 1872.36 1574.42 M 1872.36 1634.4 1872.36 1658.42 1881.82 1658.42 1881.82 1634.4 1872.36 1634.4 M 1872.36 1641.18 1881.82 1641.18 M 1881.82 1647.96 1872.36 1647.96 M 1872.36 1654.74 1881.82 1654.74 M 1846.77 1658.42 1846.77 1634.4 M 1846.77 1658.42 1856.23 1658.42 1856.23 1634.4 1846.77 1634.4 M 1846.77 1641.18 1856.23 1641.18 M 1856.23 1647.96 1846.77 1647.96 M 1846.77 1654.74 1856.23 1654.74 M 1821.18 1658.42 1821.18 1634.4 M 1821.18 1658.42 1830.64 1658.42 1830.64 1634.4 1821.18 1634.4 M 1821.18 1641.18 1830.64 1641.18 M 1830.64 1647.96 1821.18 1647.96 M 1821.18 1654.74 1830.64 1654.74" fill="none" stroke-width="7.14"/><use xlink:href="#ENiJ6pmxjFQV17rKNxY2_pad-49" x="1832.21" y="1606.25"/><use xlink:href="#ENiJ6pmxjFQV17rKNxY2_pad-49" x="1870.79" y="1606.25"/><use xlink:href="#ENiJ6pmxjFQV17rKNxY2_pad-50" x="1791.56" y="1600.39"/><use xlink:href="#ENiJ6pmxjFQV17rKNxY2_pad-50" x="1764" y="1630.86"/><use xlink:href="#ENiJ6pmxjFQV17rKNxY2_pad-50" x="1736.44" y="1600.39"/><use xlink:href="#ENiJ6pmxjFQV17rKNxY2_pad-50" x="1764" y="1549.61"/><use xlink:href="#ENiJ6pmxjFQV17rKNxY2_pad-50" x="1736.44" y="1681.64"/><use xlink:href="#ENiJ6pmxjFQV17rKNxY2_pad-50" x="1791.56" y="1681.64"/></g></svg>