G75*
%MOIN*%
%OFA0B0*%
%FSLAX25Y25*%
%IPPOS*%
%LPD*%
%AMOC8*
5,1,8,0,0,1.08239X$1,22.5*
%
%ADD10C,0.00600*%
%ADD11C,0.00581*%
%ADD12R,0.03937X0.04331*%
%ADD13R,0.02362X0.03150*%
%ADD14R,0.04331X0.03937*%
%ADD15R,0.06693X0.07874*%
%ADD16C,0.00039*%
%ADD17R,0.04724X0.04724*%
%ADD18R,0.02165X0.04724*%
%ADD19R,0.02500X0.04000*%
%ADD20R,0.02000X0.02756*%
%ADD21R,0.03543X0.02756*%
%ADD22R,0.02953X0.02756*%
%ADD23R,0.07087X0.03937*%
%ADD24R,0.03346X0.03543*%
%ADD25R,0.02756X0.03543*%
%ADD26R,0.03150X0.03150*%
%ADD27R,0.05906X0.09055*%
%ADD28R,0.02343X0.00792*%
%ADD29R,0.00792X0.02343*%
%ADD30R,0.05202X0.05202*%
%ADD31R,0.05512X0.05512*%
%ADD32R,0.02362X0.02362*%
%ADD33R,0.05827X0.20315*%
%ADD34R,0.04331X0.07874*%
%ADD35R,0.08740X0.06181*%
%ADD36R,0.07087X0.06299*%
%ADD37R,0.02500X0.05000*%
%ADD38R,0.00100X0.00100*%
D10*
X0028250Y0020400D02*
X0244785Y0020400D01*
X0244785Y0177880D01*
X0028250Y0177880D01*
X0028250Y0020400D01*
D11*
X0119889Y0133781D02*
X0125017Y0133781D01*
X0125017Y0132039D01*
X0119889Y0132039D01*
X0119889Y0133781D01*
X0119889Y0132591D02*
X0125017Y0132591D01*
X0125017Y0133143D02*
X0119889Y0133143D01*
X0119889Y0133695D02*
X0125017Y0133695D01*
X0125017Y0137521D02*
X0119889Y0137521D01*
X0125017Y0137521D02*
X0125017Y0135779D01*
X0119889Y0135779D01*
X0119889Y0137521D01*
X0119889Y0136331D02*
X0125017Y0136331D01*
X0125017Y0136883D02*
X0119889Y0136883D01*
X0119889Y0137435D02*
X0125017Y0137435D01*
X0125017Y0141261D02*
X0119889Y0141261D01*
X0125017Y0141261D02*
X0125017Y0139519D01*
X0119889Y0139519D01*
X0119889Y0141261D01*
X0119889Y0140071D02*
X0125017Y0140071D01*
X0125017Y0140623D02*
X0119889Y0140623D01*
X0119889Y0141175D02*
X0125017Y0141175D01*
X0128983Y0141261D02*
X0134111Y0141261D01*
X0134111Y0139519D01*
X0128983Y0139519D01*
X0128983Y0141261D01*
X0128983Y0140071D02*
X0134111Y0140071D01*
X0134111Y0140623D02*
X0128983Y0140623D01*
X0128983Y0141175D02*
X0134111Y0141175D01*
X0134111Y0137521D02*
X0128983Y0137521D01*
X0134111Y0137521D02*
X0134111Y0135779D01*
X0128983Y0135779D01*
X0128983Y0137521D01*
X0128983Y0136331D02*
X0134111Y0136331D01*
X0134111Y0136883D02*
X0128983Y0136883D01*
X0128983Y0137435D02*
X0134111Y0137435D01*
X0134111Y0133781D02*
X0128983Y0133781D01*
X0134111Y0133781D02*
X0134111Y0132039D01*
X0128983Y0132039D01*
X0128983Y0133781D01*
X0128983Y0132591D02*
X0134111Y0132591D01*
X0134111Y0133143D02*
X0128983Y0133143D01*
X0128983Y0133695D02*
X0134111Y0133695D01*
D12*
X0142000Y0129996D03*
X0142000Y0123304D03*
X0140125Y0143929D03*
X0140125Y0150621D03*
X0130750Y0159554D03*
X0124500Y0159554D03*
X0118250Y0159554D03*
X0112000Y0159554D03*
X0105750Y0159554D03*
X0105750Y0166246D03*
X0112000Y0166246D03*
X0118250Y0166246D03*
X0124500Y0166246D03*
X0130750Y0166246D03*
X0168250Y0166246D03*
X0168250Y0159554D03*
X0185800Y0146121D03*
X0185800Y0139429D03*
D13*
X0122453Y0115400D03*
X0122453Y0110400D03*
X0116547Y0110400D03*
X0116547Y0115400D03*
D14*
X0115841Y0104187D03*
X0122534Y0104187D03*
X0131641Y0095762D03*
X0138334Y0095762D03*
X0136154Y0109150D03*
X0136154Y0115400D03*
X0142846Y0115400D03*
X0142846Y0109150D03*
X0129096Y0125400D03*
X0122404Y0125400D03*
X0125029Y0149513D03*
X0131721Y0149513D03*
X0217504Y0126012D03*
X0224196Y0126012D03*
X0224196Y0119762D03*
X0217504Y0119762D03*
X0217504Y0113512D03*
X0224196Y0113512D03*
X0224196Y0107262D03*
X0217504Y0107262D03*
X0041596Y0032900D03*
X0034904Y0032900D03*
D15*
X0162000Y0124839D03*
X0162000Y0148461D03*
D16*
X0181403Y0163426D02*
X0182308Y0163426D01*
X0182308Y0165158D01*
X0180733Y0165158D01*
X0180733Y0164253D01*
X0181403Y0164253D01*
X0181403Y0163426D01*
X0181403Y0163440D02*
X0182308Y0163440D01*
X0182308Y0163478D02*
X0181403Y0163478D01*
X0181403Y0163516D02*
X0182308Y0163516D01*
X0182308Y0163554D02*
X0181403Y0163554D01*
X0181403Y0163592D02*
X0182308Y0163592D01*
X0182308Y0163630D02*
X0181403Y0163630D01*
X0181403Y0163667D02*
X0182308Y0163667D01*
X0182308Y0163705D02*
X0181403Y0163705D01*
X0181403Y0163743D02*
X0182308Y0163743D01*
X0182308Y0163781D02*
X0181403Y0163781D01*
X0181403Y0163819D02*
X0182308Y0163819D01*
X0182308Y0163857D02*
X0181403Y0163857D01*
X0181403Y0163895D02*
X0182308Y0163895D01*
X0182308Y0163933D02*
X0181403Y0163933D01*
X0181403Y0163970D02*
X0182308Y0163970D01*
X0182308Y0164008D02*
X0181403Y0164008D01*
X0181403Y0164046D02*
X0182308Y0164046D01*
X0182308Y0164084D02*
X0181403Y0164084D01*
X0181403Y0164122D02*
X0182308Y0164122D01*
X0182308Y0164160D02*
X0181403Y0164160D01*
X0181403Y0164198D02*
X0182308Y0164198D01*
X0182308Y0164236D02*
X0181403Y0164236D01*
X0180733Y0164274D02*
X0182308Y0164274D01*
X0182308Y0164311D02*
X0180733Y0164311D01*
X0180733Y0164349D02*
X0182308Y0164349D01*
X0182308Y0164387D02*
X0180733Y0164387D01*
X0180733Y0164425D02*
X0182308Y0164425D01*
X0182308Y0164463D02*
X0180733Y0164463D01*
X0180733Y0164501D02*
X0182308Y0164501D01*
X0182308Y0164539D02*
X0180733Y0164539D01*
X0180733Y0164577D02*
X0182308Y0164577D01*
X0182308Y0164614D02*
X0180733Y0164614D01*
X0180733Y0164652D02*
X0182308Y0164652D01*
X0182308Y0164690D02*
X0180733Y0164690D01*
X0180733Y0164728D02*
X0182308Y0164728D01*
X0182308Y0164766D02*
X0180733Y0164766D01*
X0180733Y0164804D02*
X0182308Y0164804D01*
X0182308Y0164842D02*
X0180733Y0164842D01*
X0180733Y0164880D02*
X0182308Y0164880D01*
X0182308Y0164918D02*
X0180733Y0164918D01*
X0180733Y0164955D02*
X0182308Y0164955D01*
X0182308Y0164993D02*
X0180733Y0164993D01*
X0180733Y0165031D02*
X0182308Y0165031D01*
X0182308Y0165069D02*
X0180733Y0165069D01*
X0180733Y0165107D02*
X0182308Y0165107D01*
X0182308Y0165145D02*
X0180733Y0165145D01*
X0180733Y0165867D02*
X0180733Y0166772D01*
X0181403Y0166772D01*
X0181403Y0167599D01*
X0182308Y0167599D01*
X0182308Y0165867D01*
X0180733Y0165867D01*
X0180733Y0165902D02*
X0182308Y0165902D01*
X0182308Y0165940D02*
X0180733Y0165940D01*
X0180733Y0165978D02*
X0182308Y0165978D01*
X0182308Y0166016D02*
X0180733Y0166016D01*
X0180733Y0166054D02*
X0182308Y0166054D01*
X0182308Y0166092D02*
X0180733Y0166092D01*
X0180733Y0166130D02*
X0182308Y0166130D01*
X0182308Y0166168D02*
X0180733Y0166168D01*
X0180733Y0166205D02*
X0182308Y0166205D01*
X0182308Y0166243D02*
X0180733Y0166243D01*
X0180733Y0166281D02*
X0182308Y0166281D01*
X0182308Y0166319D02*
X0180733Y0166319D01*
X0180733Y0166357D02*
X0182308Y0166357D01*
X0182308Y0166395D02*
X0180733Y0166395D01*
X0180733Y0166433D02*
X0182308Y0166433D01*
X0182308Y0166471D02*
X0180733Y0166471D01*
X0180733Y0166509D02*
X0182308Y0166509D01*
X0182308Y0166546D02*
X0180733Y0166546D01*
X0180733Y0166584D02*
X0182308Y0166584D01*
X0182308Y0166622D02*
X0180733Y0166622D01*
X0180733Y0166660D02*
X0182308Y0166660D01*
X0182308Y0166698D02*
X0180733Y0166698D01*
X0180733Y0166736D02*
X0182308Y0166736D01*
X0182308Y0166774D02*
X0181403Y0166774D01*
X0181403Y0166812D02*
X0182308Y0166812D01*
X0182308Y0166849D02*
X0181403Y0166849D01*
X0181403Y0166887D02*
X0182308Y0166887D01*
X0182308Y0166925D02*
X0181403Y0166925D01*
X0181403Y0166963D02*
X0182308Y0166963D01*
X0182308Y0167001D02*
X0181403Y0167001D01*
X0181403Y0167039D02*
X0182308Y0167039D01*
X0182308Y0167077D02*
X0181403Y0167077D01*
X0181403Y0167115D02*
X0182308Y0167115D01*
X0182308Y0167153D02*
X0181403Y0167153D01*
X0181403Y0167190D02*
X0182308Y0167190D01*
X0182308Y0167228D02*
X0181403Y0167228D01*
X0181403Y0167266D02*
X0182308Y0167266D01*
X0182308Y0167304D02*
X0181403Y0167304D01*
X0181403Y0167342D02*
X0182308Y0167342D01*
X0182308Y0167380D02*
X0181403Y0167380D01*
X0181403Y0167418D02*
X0182308Y0167418D01*
X0182308Y0167456D02*
X0181403Y0167456D01*
X0181403Y0167493D02*
X0182308Y0167493D01*
X0182308Y0167531D02*
X0181403Y0167531D01*
X0181403Y0167569D02*
X0182308Y0167569D01*
X0183017Y0167569D02*
X0183922Y0167569D01*
X0183922Y0167599D02*
X0183017Y0167599D01*
X0183017Y0165867D01*
X0184592Y0165867D01*
X0184592Y0166772D01*
X0183922Y0166772D01*
X0183922Y0167599D01*
X0183922Y0167531D02*
X0183017Y0167531D01*
X0183017Y0167493D02*
X0183922Y0167493D01*
X0183922Y0167456D02*
X0183017Y0167456D01*
X0183017Y0167418D02*
X0183922Y0167418D01*
X0183922Y0167380D02*
X0183017Y0167380D01*
X0183017Y0167342D02*
X0183922Y0167342D01*
X0183922Y0167304D02*
X0183017Y0167304D01*
X0183017Y0167266D02*
X0183922Y0167266D01*
X0183922Y0167228D02*
X0183017Y0167228D01*
X0183017Y0167190D02*
X0183922Y0167190D01*
X0183922Y0167153D02*
X0183017Y0167153D01*
X0183017Y0167115D02*
X0183922Y0167115D01*
X0183922Y0167077D02*
X0183017Y0167077D01*
X0183017Y0167039D02*
X0183922Y0167039D01*
X0183922Y0167001D02*
X0183017Y0167001D01*
X0183017Y0166963D02*
X0183922Y0166963D01*
X0183922Y0166925D02*
X0183017Y0166925D01*
X0183017Y0166887D02*
X0183922Y0166887D01*
X0183922Y0166849D02*
X0183017Y0166849D01*
X0183017Y0166812D02*
X0183922Y0166812D01*
X0183922Y0166774D02*
X0183017Y0166774D01*
X0183017Y0166736D02*
X0184592Y0166736D01*
X0184592Y0166698D02*
X0183017Y0166698D01*
X0183017Y0166660D02*
X0184592Y0166660D01*
X0184592Y0166622D02*
X0183017Y0166622D01*
X0183017Y0166584D02*
X0184592Y0166584D01*
X0184592Y0166546D02*
X0183017Y0166546D01*
X0183017Y0166509D02*
X0184592Y0166509D01*
X0184592Y0166471D02*
X0183017Y0166471D01*
X0183017Y0166433D02*
X0184592Y0166433D01*
X0184592Y0166395D02*
X0183017Y0166395D01*
X0183017Y0166357D02*
X0184592Y0166357D01*
X0184592Y0166319D02*
X0183017Y0166319D01*
X0183017Y0166281D02*
X0184592Y0166281D01*
X0184592Y0166243D02*
X0183017Y0166243D01*
X0183017Y0166205D02*
X0184592Y0166205D01*
X0184592Y0166168D02*
X0183017Y0166168D01*
X0183017Y0166130D02*
X0184592Y0166130D01*
X0184592Y0166092D02*
X0183017Y0166092D01*
X0183017Y0166054D02*
X0184592Y0166054D01*
X0184592Y0166016D02*
X0183017Y0166016D01*
X0183017Y0165978D02*
X0184592Y0165978D01*
X0184592Y0165940D02*
X0183017Y0165940D01*
X0183017Y0165902D02*
X0184592Y0165902D01*
X0184592Y0165158D02*
X0184592Y0164253D01*
X0183922Y0164253D01*
X0183922Y0163426D01*
X0183017Y0163426D01*
X0183017Y0165158D01*
X0184592Y0165158D01*
X0184592Y0165145D02*
X0183017Y0165145D01*
X0183017Y0165107D02*
X0184592Y0165107D01*
X0184592Y0165069D02*
X0183017Y0165069D01*
X0183017Y0165031D02*
X0184592Y0165031D01*
X0184592Y0164993D02*
X0183017Y0164993D01*
X0183017Y0164955D02*
X0184592Y0164955D01*
X0184592Y0164918D02*
X0183017Y0164918D01*
X0183017Y0164880D02*
X0184592Y0164880D01*
X0184592Y0164842D02*
X0183017Y0164842D01*
X0183017Y0164804D02*
X0184592Y0164804D01*
X0184592Y0164766D02*
X0183017Y0164766D01*
X0183017Y0164728D02*
X0184592Y0164728D01*
X0184592Y0164690D02*
X0183017Y0164690D01*
X0183017Y0164652D02*
X0184592Y0164652D01*
X0184592Y0164614D02*
X0183017Y0164614D01*
X0183017Y0164577D02*
X0184592Y0164577D01*
X0184592Y0164539D02*
X0183017Y0164539D01*
X0183017Y0164501D02*
X0184592Y0164501D01*
X0184592Y0164463D02*
X0183017Y0164463D01*
X0183017Y0164425D02*
X0184592Y0164425D01*
X0184592Y0164387D02*
X0183017Y0164387D01*
X0183017Y0164349D02*
X0184592Y0164349D01*
X0184592Y0164311D02*
X0183017Y0164311D01*
X0183017Y0164274D02*
X0184592Y0164274D01*
X0183922Y0164236D02*
X0183017Y0164236D01*
X0183017Y0164198D02*
X0183922Y0164198D01*
X0183922Y0164160D02*
X0183017Y0164160D01*
X0183017Y0164122D02*
X0183922Y0164122D01*
X0183922Y0164084D02*
X0183017Y0164084D01*
X0183017Y0164046D02*
X0183922Y0164046D01*
X0183922Y0164008D02*
X0183017Y0164008D01*
X0183017Y0163970D02*
X0183922Y0163970D01*
X0183922Y0163933D02*
X0183017Y0163933D01*
X0183017Y0163895D02*
X0183922Y0163895D01*
X0183922Y0163857D02*
X0183017Y0163857D01*
X0183017Y0163819D02*
X0183922Y0163819D01*
X0183922Y0163781D02*
X0183017Y0163781D01*
X0183017Y0163743D02*
X0183922Y0163743D01*
X0183922Y0163705D02*
X0183017Y0163705D01*
X0183017Y0163667D02*
X0183922Y0163667D01*
X0183922Y0163630D02*
X0183017Y0163630D01*
X0183017Y0163592D02*
X0183922Y0163592D01*
X0183922Y0163554D02*
X0183017Y0163554D01*
X0183017Y0163516D02*
X0183922Y0163516D01*
X0183922Y0163478D02*
X0183017Y0163478D01*
X0183017Y0163440D02*
X0183922Y0163440D01*
X0190121Y0164253D02*
X0190790Y0164253D01*
X0190790Y0163426D01*
X0191696Y0163426D01*
X0191696Y0165158D01*
X0190121Y0165158D01*
X0190121Y0164253D01*
X0190121Y0164274D02*
X0191696Y0164274D01*
X0191696Y0164311D02*
X0190121Y0164311D01*
X0190121Y0164349D02*
X0191696Y0164349D01*
X0191696Y0164387D02*
X0190121Y0164387D01*
X0190121Y0164425D02*
X0191696Y0164425D01*
X0191696Y0164463D02*
X0190121Y0164463D01*
X0190121Y0164501D02*
X0191696Y0164501D01*
X0191696Y0164539D02*
X0190121Y0164539D01*
X0190121Y0164577D02*
X0191696Y0164577D01*
X0191696Y0164614D02*
X0190121Y0164614D01*
X0190121Y0164652D02*
X0191696Y0164652D01*
X0191696Y0164690D02*
X0190121Y0164690D01*
X0190121Y0164728D02*
X0191696Y0164728D01*
X0191696Y0164766D02*
X0190121Y0164766D01*
X0190121Y0164804D02*
X0191696Y0164804D01*
X0191696Y0164842D02*
X0190121Y0164842D01*
X0190121Y0164880D02*
X0191696Y0164880D01*
X0191696Y0164918D02*
X0190121Y0164918D01*
X0190121Y0164955D02*
X0191696Y0164955D01*
X0191696Y0164993D02*
X0190121Y0164993D01*
X0190121Y0165031D02*
X0191696Y0165031D01*
X0191696Y0165069D02*
X0190121Y0165069D01*
X0190121Y0165107D02*
X0191696Y0165107D01*
X0191696Y0165145D02*
X0190121Y0165145D01*
X0190121Y0165867D02*
X0190121Y0166772D01*
X0190790Y0166772D01*
X0190790Y0167599D01*
X0191696Y0167599D01*
X0191696Y0165867D01*
X0190121Y0165867D01*
X0190121Y0165902D02*
X0191696Y0165902D01*
X0191696Y0165940D02*
X0190121Y0165940D01*
X0190121Y0165978D02*
X0191696Y0165978D01*
X0191696Y0166016D02*
X0190121Y0166016D01*
X0190121Y0166054D02*
X0191696Y0166054D01*
X0191696Y0166092D02*
X0190121Y0166092D01*
X0190121Y0166130D02*
X0191696Y0166130D01*
X0191696Y0166168D02*
X0190121Y0166168D01*
X0190121Y0166205D02*
X0191696Y0166205D01*
X0191696Y0166243D02*
X0190121Y0166243D01*
X0190121Y0166281D02*
X0191696Y0166281D01*
X0191696Y0166319D02*
X0190121Y0166319D01*
X0190121Y0166357D02*
X0191696Y0166357D01*
X0191696Y0166395D02*
X0190121Y0166395D01*
X0190121Y0166433D02*
X0191696Y0166433D01*
X0191696Y0166471D02*
X0190121Y0166471D01*
X0190121Y0166509D02*
X0191696Y0166509D01*
X0191696Y0166546D02*
X0190121Y0166546D01*
X0190121Y0166584D02*
X0191696Y0166584D01*
X0191696Y0166622D02*
X0190121Y0166622D01*
X0190121Y0166660D02*
X0191696Y0166660D01*
X0191696Y0166698D02*
X0190121Y0166698D01*
X0190121Y0166736D02*
X0191696Y0166736D01*
X0191696Y0166774D02*
X0190790Y0166774D01*
X0190790Y0166812D02*
X0191696Y0166812D01*
X0191696Y0166849D02*
X0190790Y0166849D01*
X0190790Y0166887D02*
X0191696Y0166887D01*
X0191696Y0166925D02*
X0190790Y0166925D01*
X0190790Y0166963D02*
X0191696Y0166963D01*
X0191696Y0167001D02*
X0190790Y0167001D01*
X0190790Y0167039D02*
X0191696Y0167039D01*
X0191696Y0167077D02*
X0190790Y0167077D01*
X0190790Y0167115D02*
X0191696Y0167115D01*
X0191696Y0167153D02*
X0190790Y0167153D01*
X0190790Y0167190D02*
X0191696Y0167190D01*
X0191696Y0167228D02*
X0190790Y0167228D01*
X0190790Y0167266D02*
X0191696Y0167266D01*
X0191696Y0167304D02*
X0190790Y0167304D01*
X0190790Y0167342D02*
X0191696Y0167342D01*
X0191696Y0167380D02*
X0190790Y0167380D01*
X0190790Y0167418D02*
X0191696Y0167418D01*
X0191696Y0167456D02*
X0190790Y0167456D01*
X0190790Y0167493D02*
X0191696Y0167493D01*
X0191696Y0167531D02*
X0190790Y0167531D01*
X0190790Y0167569D02*
X0191696Y0167569D01*
X0192404Y0167569D02*
X0193310Y0167569D01*
X0193310Y0167599D02*
X0192404Y0167599D01*
X0192404Y0165867D01*
X0193979Y0165867D01*
X0193979Y0166772D01*
X0193310Y0166772D01*
X0193310Y0167599D01*
X0193310Y0167531D02*
X0192404Y0167531D01*
X0192404Y0167493D02*
X0193310Y0167493D01*
X0193310Y0167456D02*
X0192404Y0167456D01*
X0192404Y0167418D02*
X0193310Y0167418D01*
X0193310Y0167380D02*
X0192404Y0167380D01*
X0192404Y0167342D02*
X0193310Y0167342D01*
X0193310Y0167304D02*
X0192404Y0167304D01*
X0192404Y0167266D02*
X0193310Y0167266D01*
X0193310Y0167228D02*
X0192404Y0167228D01*
X0192404Y0167190D02*
X0193310Y0167190D01*
X0193310Y0167153D02*
X0192404Y0167153D01*
X0192404Y0167115D02*
X0193310Y0167115D01*
X0193310Y0167077D02*
X0192404Y0167077D01*
X0192404Y0167039D02*
X0193310Y0167039D01*
X0193310Y0167001D02*
X0192404Y0167001D01*
X0192404Y0166963D02*
X0193310Y0166963D01*
X0193310Y0166925D02*
X0192404Y0166925D01*
X0192404Y0166887D02*
X0193310Y0166887D01*
X0193310Y0166849D02*
X0192404Y0166849D01*
X0192404Y0166812D02*
X0193310Y0166812D01*
X0193310Y0166774D02*
X0192404Y0166774D01*
X0192404Y0166736D02*
X0193979Y0166736D01*
X0193979Y0166698D02*
X0192404Y0166698D01*
X0192404Y0166660D02*
X0193979Y0166660D01*
X0193979Y0166622D02*
X0192404Y0166622D01*
X0192404Y0166584D02*
X0193979Y0166584D01*
X0193979Y0166546D02*
X0192404Y0166546D01*
X0192404Y0166509D02*
X0193979Y0166509D01*
X0193979Y0166471D02*
X0192404Y0166471D01*
X0192404Y0166433D02*
X0193979Y0166433D01*
X0193979Y0166395D02*
X0192404Y0166395D01*
X0192404Y0166357D02*
X0193979Y0166357D01*
X0193979Y0166319D02*
X0192404Y0166319D01*
X0192404Y0166281D02*
X0193979Y0166281D01*
X0193979Y0166243D02*
X0192404Y0166243D01*
X0192404Y0166205D02*
X0193979Y0166205D01*
X0193979Y0166168D02*
X0192404Y0166168D01*
X0192404Y0166130D02*
X0193979Y0166130D01*
X0193979Y0166092D02*
X0192404Y0166092D01*
X0192404Y0166054D02*
X0193979Y0166054D01*
X0193979Y0166016D02*
X0192404Y0166016D01*
X0192404Y0165978D02*
X0193979Y0165978D01*
X0193979Y0165940D02*
X0192404Y0165940D01*
X0192404Y0165902D02*
X0193979Y0165902D01*
X0193979Y0165158D02*
X0193979Y0164253D01*
X0193310Y0164253D01*
X0193310Y0163426D01*
X0192404Y0163426D01*
X0192404Y0165158D01*
X0193979Y0165158D01*
X0193979Y0165145D02*
X0192404Y0165145D01*
X0192404Y0165107D02*
X0193979Y0165107D01*
X0193979Y0165069D02*
X0192404Y0165069D01*
X0192404Y0165031D02*
X0193979Y0165031D01*
X0193979Y0164993D02*
X0192404Y0164993D01*
X0192404Y0164955D02*
X0193979Y0164955D01*
X0193979Y0164918D02*
X0192404Y0164918D01*
X0192404Y0164880D02*
X0193979Y0164880D01*
X0193979Y0164842D02*
X0192404Y0164842D01*
X0192404Y0164804D02*
X0193979Y0164804D01*
X0193979Y0164766D02*
X0192404Y0164766D01*
X0192404Y0164728D02*
X0193979Y0164728D01*
X0193979Y0164690D02*
X0192404Y0164690D01*
X0192404Y0164652D02*
X0193979Y0164652D01*
X0193979Y0164614D02*
X0192404Y0164614D01*
X0192404Y0164577D02*
X0193979Y0164577D01*
X0193979Y0164539D02*
X0192404Y0164539D01*
X0192404Y0164501D02*
X0193979Y0164501D01*
X0193979Y0164463D02*
X0192404Y0164463D01*
X0192404Y0164425D02*
X0193979Y0164425D01*
X0193979Y0164387D02*
X0192404Y0164387D01*
X0192404Y0164349D02*
X0193979Y0164349D01*
X0193979Y0164311D02*
X0192404Y0164311D01*
X0192404Y0164274D02*
X0193979Y0164274D01*
X0193310Y0164236D02*
X0192404Y0164236D01*
X0192404Y0164198D02*
X0193310Y0164198D01*
X0193310Y0164160D02*
X0192404Y0164160D01*
X0192404Y0164122D02*
X0193310Y0164122D01*
X0193310Y0164084D02*
X0192404Y0164084D01*
X0192404Y0164046D02*
X0193310Y0164046D01*
X0193310Y0164008D02*
X0192404Y0164008D01*
X0192404Y0163970D02*
X0193310Y0163970D01*
X0193310Y0163933D02*
X0192404Y0163933D01*
X0192404Y0163895D02*
X0193310Y0163895D01*
X0193310Y0163857D02*
X0192404Y0163857D01*
X0192404Y0163819D02*
X0193310Y0163819D01*
X0193310Y0163781D02*
X0192404Y0163781D01*
X0192404Y0163743D02*
X0193310Y0163743D01*
X0193310Y0163705D02*
X0192404Y0163705D01*
X0192404Y0163667D02*
X0193310Y0163667D01*
X0193310Y0163630D02*
X0192404Y0163630D01*
X0192404Y0163592D02*
X0193310Y0163592D01*
X0193310Y0163554D02*
X0192404Y0163554D01*
X0192404Y0163516D02*
X0193310Y0163516D01*
X0193310Y0163478D02*
X0192404Y0163478D01*
X0192404Y0163440D02*
X0193310Y0163440D01*
X0191696Y0163440D02*
X0190790Y0163440D01*
X0190790Y0163478D02*
X0191696Y0163478D01*
X0191696Y0163516D02*
X0190790Y0163516D01*
X0190790Y0163554D02*
X0191696Y0163554D01*
X0191696Y0163592D02*
X0190790Y0163592D01*
X0190790Y0163630D02*
X0191696Y0163630D01*
X0191696Y0163667D02*
X0190790Y0163667D01*
X0190790Y0163705D02*
X0191696Y0163705D01*
X0191696Y0163743D02*
X0190790Y0163743D01*
X0190790Y0163781D02*
X0191696Y0163781D01*
X0191696Y0163819D02*
X0190790Y0163819D01*
X0190790Y0163857D02*
X0191696Y0163857D01*
X0191696Y0163895D02*
X0190790Y0163895D01*
X0190790Y0163933D02*
X0191696Y0163933D01*
X0191696Y0163970D02*
X0190790Y0163970D01*
X0190790Y0164008D02*
X0191696Y0164008D01*
X0191696Y0164046D02*
X0190790Y0164046D01*
X0190790Y0164084D02*
X0191696Y0164084D01*
X0191696Y0164122D02*
X0190790Y0164122D01*
X0190790Y0164160D02*
X0191696Y0164160D01*
X0191696Y0164198D02*
X0190790Y0164198D01*
X0190790Y0164236D02*
X0191696Y0164236D01*
X0120862Y0039999D02*
X0119957Y0039999D01*
X0119957Y0038266D01*
X0121532Y0038266D01*
X0121532Y0039172D01*
X0120862Y0039172D01*
X0120862Y0039999D01*
X0120862Y0039985D02*
X0119957Y0039985D01*
X0119957Y0039947D02*
X0120862Y0039947D01*
X0120862Y0039909D02*
X0119957Y0039909D01*
X0119957Y0039871D02*
X0120862Y0039871D01*
X0120862Y0039833D02*
X0119957Y0039833D01*
X0119957Y0039795D02*
X0120862Y0039795D01*
X0120862Y0039757D02*
X0119957Y0039757D01*
X0119957Y0039720D02*
X0120862Y0039720D01*
X0120862Y0039682D02*
X0119957Y0039682D01*
X0119957Y0039644D02*
X0120862Y0039644D01*
X0120862Y0039606D02*
X0119957Y0039606D01*
X0119957Y0039568D02*
X0120862Y0039568D01*
X0120862Y0039530D02*
X0119957Y0039530D01*
X0119957Y0039492D02*
X0120862Y0039492D01*
X0120862Y0039454D02*
X0119957Y0039454D01*
X0119957Y0039416D02*
X0120862Y0039416D01*
X0120862Y0039379D02*
X0119957Y0039379D01*
X0119957Y0039341D02*
X0120862Y0039341D01*
X0120862Y0039303D02*
X0119957Y0039303D01*
X0119957Y0039265D02*
X0120862Y0039265D01*
X0120862Y0039227D02*
X0119957Y0039227D01*
X0119957Y0039189D02*
X0120862Y0039189D01*
X0121532Y0039151D02*
X0119957Y0039151D01*
X0119957Y0039113D02*
X0121532Y0039113D01*
X0121532Y0039076D02*
X0119957Y0039076D01*
X0119957Y0039038D02*
X0121532Y0039038D01*
X0121532Y0039000D02*
X0119957Y0039000D01*
X0119957Y0038962D02*
X0121532Y0038962D01*
X0121532Y0038924D02*
X0119957Y0038924D01*
X0119957Y0038886D02*
X0121532Y0038886D01*
X0121532Y0038848D02*
X0119957Y0038848D01*
X0119957Y0038810D02*
X0121532Y0038810D01*
X0121532Y0038772D02*
X0119957Y0038772D01*
X0119957Y0038735D02*
X0121532Y0038735D01*
X0121532Y0038697D02*
X0119957Y0038697D01*
X0119957Y0038659D02*
X0121532Y0038659D01*
X0121532Y0038621D02*
X0119957Y0038621D01*
X0119957Y0038583D02*
X0121532Y0038583D01*
X0121532Y0038545D02*
X0119957Y0038545D01*
X0119957Y0038507D02*
X0121532Y0038507D01*
X0121532Y0038469D02*
X0119957Y0038469D01*
X0119957Y0038432D02*
X0121532Y0038432D01*
X0121532Y0038394D02*
X0119957Y0038394D01*
X0119957Y0038356D02*
X0121532Y0038356D01*
X0121532Y0038318D02*
X0119957Y0038318D01*
X0119957Y0038280D02*
X0121532Y0038280D01*
X0121532Y0037558D02*
X0121532Y0036652D01*
X0120862Y0036652D01*
X0120862Y0035825D01*
X0119957Y0035825D01*
X0119957Y0037558D01*
X0121532Y0037558D01*
X0121532Y0037522D02*
X0119957Y0037522D01*
X0119957Y0037485D02*
X0121532Y0037485D01*
X0121532Y0037447D02*
X0119957Y0037447D01*
X0119957Y0037409D02*
X0121532Y0037409D01*
X0121532Y0037371D02*
X0119957Y0037371D01*
X0119957Y0037333D02*
X0121532Y0037333D01*
X0121532Y0037295D02*
X0119957Y0037295D01*
X0119957Y0037257D02*
X0121532Y0037257D01*
X0121532Y0037219D02*
X0119957Y0037219D01*
X0119957Y0037181D02*
X0121532Y0037181D01*
X0121532Y0037144D02*
X0119957Y0037144D01*
X0119957Y0037106D02*
X0121532Y0037106D01*
X0121532Y0037068D02*
X0119957Y0037068D01*
X0119957Y0037030D02*
X0121532Y0037030D01*
X0121532Y0036992D02*
X0119957Y0036992D01*
X0119957Y0036954D02*
X0121532Y0036954D01*
X0121532Y0036916D02*
X0119957Y0036916D01*
X0119957Y0036878D02*
X0121532Y0036878D01*
X0121532Y0036841D02*
X0119957Y0036841D01*
X0119957Y0036803D02*
X0121532Y0036803D01*
X0121532Y0036765D02*
X0119957Y0036765D01*
X0119957Y0036727D02*
X0121532Y0036727D01*
X0121532Y0036689D02*
X0119957Y0036689D01*
X0119957Y0036651D02*
X0120862Y0036651D01*
X0120862Y0036613D02*
X0119957Y0036613D01*
X0119957Y0036575D02*
X0120862Y0036575D01*
X0120862Y0036537D02*
X0119957Y0036537D01*
X0119957Y0036500D02*
X0120862Y0036500D01*
X0120862Y0036462D02*
X0119957Y0036462D01*
X0119957Y0036424D02*
X0120862Y0036424D01*
X0120862Y0036386D02*
X0119957Y0036386D01*
X0119957Y0036348D02*
X0120862Y0036348D01*
X0120862Y0036310D02*
X0119957Y0036310D01*
X0119957Y0036272D02*
X0120862Y0036272D01*
X0120862Y0036234D02*
X0119957Y0036234D01*
X0119957Y0036197D02*
X0120862Y0036197D01*
X0120862Y0036159D02*
X0119957Y0036159D01*
X0119957Y0036121D02*
X0120862Y0036121D01*
X0120862Y0036083D02*
X0119957Y0036083D01*
X0119957Y0036045D02*
X0120862Y0036045D01*
X0120862Y0036007D02*
X0119957Y0036007D01*
X0119957Y0035969D02*
X0120862Y0035969D01*
X0120862Y0035931D02*
X0119957Y0035931D01*
X0119957Y0035893D02*
X0120862Y0035893D01*
X0120862Y0035856D02*
X0119957Y0035856D01*
X0119248Y0035856D02*
X0118343Y0035856D01*
X0118343Y0035825D02*
X0119248Y0035825D01*
X0119248Y0037558D01*
X0117673Y0037558D01*
X0117673Y0036652D01*
X0118343Y0036652D01*
X0118343Y0035825D01*
X0118343Y0035893D02*
X0119248Y0035893D01*
X0119248Y0035931D02*
X0118343Y0035931D01*
X0118343Y0035969D02*
X0119248Y0035969D01*
X0119248Y0036007D02*
X0118343Y0036007D01*
X0118343Y0036045D02*
X0119248Y0036045D01*
X0119248Y0036083D02*
X0118343Y0036083D01*
X0118343Y0036121D02*
X0119248Y0036121D01*
X0119248Y0036159D02*
X0118343Y0036159D01*
X0118343Y0036197D02*
X0119248Y0036197D01*
X0119248Y0036234D02*
X0118343Y0036234D01*
X0118343Y0036272D02*
X0119248Y0036272D01*
X0119248Y0036310D02*
X0118343Y0036310D01*
X0118343Y0036348D02*
X0119248Y0036348D01*
X0119248Y0036386D02*
X0118343Y0036386D01*
X0118343Y0036424D02*
X0119248Y0036424D01*
X0119248Y0036462D02*
X0118343Y0036462D01*
X0118343Y0036500D02*
X0119248Y0036500D01*
X0119248Y0036537D02*
X0118343Y0036537D01*
X0118343Y0036575D02*
X0119248Y0036575D01*
X0119248Y0036613D02*
X0118343Y0036613D01*
X0118343Y0036651D02*
X0119248Y0036651D01*
X0119248Y0036689D02*
X0117673Y0036689D01*
X0117673Y0036727D02*
X0119248Y0036727D01*
X0119248Y0036765D02*
X0117673Y0036765D01*
X0117673Y0036803D02*
X0119248Y0036803D01*
X0119248Y0036841D02*
X0117673Y0036841D01*
X0117673Y0036878D02*
X0119248Y0036878D01*
X0119248Y0036916D02*
X0117673Y0036916D01*
X0117673Y0036954D02*
X0119248Y0036954D01*
X0119248Y0036992D02*
X0117673Y0036992D01*
X0117673Y0037030D02*
X0119248Y0037030D01*
X0119248Y0037068D02*
X0117673Y0037068D01*
X0117673Y0037106D02*
X0119248Y0037106D01*
X0119248Y0037144D02*
X0117673Y0037144D01*
X0117673Y0037181D02*
X0119248Y0037181D01*
X0119248Y0037219D02*
X0117673Y0037219D01*
X0117673Y0037257D02*
X0119248Y0037257D01*
X0119248Y0037295D02*
X0117673Y0037295D01*
X0117673Y0037333D02*
X0119248Y0037333D01*
X0119248Y0037371D02*
X0117673Y0037371D01*
X0117673Y0037409D02*
X0119248Y0037409D01*
X0119248Y0037447D02*
X0117673Y0037447D01*
X0117673Y0037485D02*
X0119248Y0037485D01*
X0119248Y0037522D02*
X0117673Y0037522D01*
X0117673Y0038266D02*
X0117673Y0039172D01*
X0118343Y0039172D01*
X0118343Y0039999D01*
X0119248Y0039999D01*
X0119248Y0038266D01*
X0117673Y0038266D01*
X0117673Y0038280D02*
X0119248Y0038280D01*
X0119248Y0038318D02*
X0117673Y0038318D01*
X0117673Y0038356D02*
X0119248Y0038356D01*
X0119248Y0038394D02*
X0117673Y0038394D01*
X0117673Y0038432D02*
X0119248Y0038432D01*
X0119248Y0038469D02*
X0117673Y0038469D01*
X0117673Y0038507D02*
X0119248Y0038507D01*
X0119248Y0038545D02*
X0117673Y0038545D01*
X0117673Y0038583D02*
X0119248Y0038583D01*
X0119248Y0038621D02*
X0117673Y0038621D01*
X0117673Y0038659D02*
X0119248Y0038659D01*
X0119248Y0038697D02*
X0117673Y0038697D01*
X0117673Y0038735D02*
X0119248Y0038735D01*
X0119248Y0038772D02*
X0117673Y0038772D01*
X0117673Y0038810D02*
X0119248Y0038810D01*
X0119248Y0038848D02*
X0117673Y0038848D01*
X0117673Y0038886D02*
X0119248Y0038886D01*
X0119248Y0038924D02*
X0117673Y0038924D01*
X0117673Y0038962D02*
X0119248Y0038962D01*
X0119248Y0039000D02*
X0117673Y0039000D01*
X0117673Y0039038D02*
X0119248Y0039038D01*
X0119248Y0039076D02*
X0117673Y0039076D01*
X0117673Y0039113D02*
X0119248Y0039113D01*
X0119248Y0039151D02*
X0117673Y0039151D01*
X0118343Y0039189D02*
X0119248Y0039189D01*
X0119248Y0039227D02*
X0118343Y0039227D01*
X0118343Y0039265D02*
X0119248Y0039265D01*
X0119248Y0039303D02*
X0118343Y0039303D01*
X0118343Y0039341D02*
X0119248Y0039341D01*
X0119248Y0039379D02*
X0118343Y0039379D01*
X0118343Y0039416D02*
X0119248Y0039416D01*
X0119248Y0039454D02*
X0118343Y0039454D01*
X0118343Y0039492D02*
X0119248Y0039492D01*
X0119248Y0039530D02*
X0118343Y0039530D01*
X0118343Y0039568D02*
X0119248Y0039568D01*
X0119248Y0039606D02*
X0118343Y0039606D01*
X0118343Y0039644D02*
X0119248Y0039644D01*
X0119248Y0039682D02*
X0118343Y0039682D01*
X0118343Y0039720D02*
X0119248Y0039720D01*
X0119248Y0039757D02*
X0118343Y0039757D01*
X0118343Y0039795D02*
X0119248Y0039795D01*
X0119248Y0039833D02*
X0118343Y0039833D01*
X0118343Y0039871D02*
X0119248Y0039871D01*
X0119248Y0039909D02*
X0118343Y0039909D01*
X0118343Y0039947D02*
X0119248Y0039947D01*
X0119248Y0039985D02*
X0118343Y0039985D01*
D17*
X0042384Y0040400D03*
X0034116Y0040400D03*
D18*
X0203360Y0112144D03*
X0207100Y0112144D03*
X0210840Y0112144D03*
X0210840Y0122381D03*
X0203360Y0122381D03*
D19*
X0157000Y0158963D03*
X0153260Y0166837D03*
X0145740Y0166837D03*
X0138260Y0166837D03*
X0142000Y0158963D03*
X0160740Y0166837D03*
D20*
X0115578Y0151639D03*
X0111837Y0151639D03*
X0108097Y0151639D03*
X0108097Y0142486D03*
X0111837Y0142486D03*
X0115578Y0142486D03*
D21*
X0145750Y0096709D03*
X0150750Y0096709D03*
X0150750Y0091591D03*
X0145750Y0091591D03*
X0170125Y0090966D03*
X0175125Y0090966D03*
X0180750Y0091709D03*
X0185750Y0091709D03*
X0185750Y0086591D03*
X0180750Y0086591D03*
X0188250Y0077959D03*
X0188250Y0072841D03*
X0200750Y0072841D03*
X0200750Y0077959D03*
X0200750Y0086591D03*
X0205750Y0086591D03*
X0210750Y0086591D03*
X0210750Y0091709D03*
X0205750Y0091709D03*
X0200750Y0091709D03*
X0197100Y0113453D03*
X0197100Y0118572D03*
X0175125Y0096084D03*
X0170125Y0096084D03*
X0087625Y0062959D03*
X0081375Y0062959D03*
X0075125Y0062959D03*
X0075125Y0057841D03*
X0081375Y0057841D03*
X0087625Y0057841D03*
D22*
X0190593Y0087181D03*
X0190593Y0091119D03*
X0195907Y0091119D03*
X0195907Y0087181D03*
D23*
X0140750Y0085321D03*
X0140750Y0075479D03*
D24*
X0157842Y0091650D03*
X0162408Y0091650D03*
X0192217Y0072900D03*
X0196783Y0072900D03*
D25*
X0163397Y0036813D03*
X0163397Y0031912D03*
X0163397Y0027012D03*
X0158278Y0027012D03*
X0158278Y0031912D03*
X0158278Y0036813D03*
X0146434Y0059775D03*
X0141316Y0059775D03*
X0133309Y0077900D03*
X0133309Y0082900D03*
X0128191Y0082900D03*
X0128191Y0077900D03*
X0055809Y0090400D03*
X0055809Y0095400D03*
X0050691Y0095400D03*
X0050691Y0090400D03*
D26*
X0078250Y0132428D03*
X0090750Y0132428D03*
X0090750Y0149928D03*
X0078250Y0149928D03*
X0156500Y0096025D03*
X0162500Y0096025D03*
D27*
X0043250Y0087339D03*
X0043250Y0060961D03*
D28*
X0154478Y0062351D03*
X0154478Y0063926D03*
X0154478Y0065501D03*
X0154478Y0067075D03*
X0154478Y0068650D03*
X0154478Y0070225D03*
X0154478Y0071800D03*
X0154478Y0073375D03*
X0154478Y0074950D03*
X0154478Y0076524D03*
X0154478Y0078099D03*
X0154478Y0079674D03*
X0176997Y0079674D03*
X0176997Y0078099D03*
X0176997Y0076524D03*
X0176997Y0074950D03*
X0176997Y0073375D03*
X0176997Y0071800D03*
X0176997Y0070225D03*
X0176997Y0068650D03*
X0176997Y0067075D03*
X0176997Y0065501D03*
X0176997Y0063926D03*
X0176997Y0062351D03*
D29*
X0174399Y0059753D03*
X0172824Y0059753D03*
X0171249Y0059753D03*
X0169675Y0059753D03*
X0168100Y0059753D03*
X0166525Y0059753D03*
X0164950Y0059753D03*
X0163375Y0059753D03*
X0161800Y0059753D03*
X0160226Y0059753D03*
X0158651Y0059753D03*
X0157076Y0059753D03*
X0157076Y0082272D03*
X0158651Y0082272D03*
X0160226Y0082272D03*
X0161800Y0082272D03*
X0163375Y0082272D03*
X0164950Y0082272D03*
X0166525Y0082272D03*
X0168100Y0082272D03*
X0169675Y0082272D03*
X0171249Y0082272D03*
X0172824Y0082272D03*
X0174399Y0082272D03*
D30*
X0170265Y0075540D03*
X0170265Y0066485D03*
X0161210Y0066485D03*
X0161210Y0075540D03*
D31*
X0185662Y0115117D03*
X0185662Y0129683D03*
D32*
X0098712Y0157957D03*
X0098712Y0166618D03*
D33*
X0064274Y0155557D03*
X0047226Y0145243D03*
X0064274Y0130557D03*
X0047226Y0120243D03*
D34*
X0078250Y0124947D03*
X0090750Y0124947D03*
X0090750Y0142447D03*
X0078250Y0142447D03*
D35*
X0073106Y0160000D03*
X0089169Y0160000D03*
D36*
X0100750Y0143412D03*
X0100750Y0132388D03*
D37*
X0207050Y0072100D03*
D38*
X0217500Y0043850D03*
M02*
