<svg version="1.1" xmlns="http://www.w3.org/2000/svg" xmlns:xlink="http://www.w3.org/1999/xlink" stroke-linecap="round" stroke-linejoin="round" stroke-width="0" fill-rule="evenodd" width="2.2145799999999998in" height="2.12599in" viewBox="345.72 271.9 2214.58 2125.99" id="H7eB-VixWZxFsfuY2_wC"><defs><rect x="-29.53" y="-25.59" width="59.06" height="51.18" id="H7eB-VixWZxFsfuY2_wC_pad-12"/><rect x="-17.715" y="-13.78" width="35.43" height="27.56" id="H7eB-VixWZxFsfuY2_wC_pad-13"/><rect x="-11.81" y="-15.75" width="23.62" height="31.5" id="H7eB-VixWZxFsfuY2_wC_pad-14"/><circle cx="0" cy="0" r="21.655" id="H7eB-VixWZxFsfuY2_wC_pad-15"/><rect x="-19.685" y="-21.655" width="39.37" height="43.31" id="H7eB-VixWZxFsfuY2_wC_pad-16"/><circle cx="0" cy="0" r="19.685" id="H7eB-VixWZxFsfuY2_wC_pad-17"/><rect x="-13.78" y="-17.715" width="27.56" height="35.43" id="H7eB-VixWZxFsfuY2_wC_pad-18"/><circle cx="0" cy="0" r="4.135" id="H7eB-VixWZxFsfuY2_wC_pad-19"/><circle cx="0" cy="0" r="33" id="H7eB-VixWZxFsfuY2_wC_pad-20"/><rect x="-19.685" y="-19.685" width="39.37" height="39.37" id="H7eB-VixWZxFsfuY2_wC_pad-21"/><circle cx="0" cy="0" r="9.645" id="H7eB-VixWZxFsfuY2_wC_pad-24"/><circle cx="0" cy="0" r="8.545" id="H7eB-VixWZxFsfuY2_wC_pad-27"/></defs><g transform="translate(0,2669.79) scale(1,-1)" fill="currentColor" stroke="currentColor"><path d="M 739.43 271.91 2166.59 271.91 M 1782.74 1197.11 1783.17 1229.28 1784.38 1261.43 1786.37 1293.54 1789.15 1325.59 1792.71 1357.56 1797.05 1389.44 1802.16 1421.2 1808.05 1452.83 1814.71 1484.31 1822.14 1515.61 1830.32 1546.72 1839.27 1577.63 1848.96 1608.3 1859.41 1638.73 1870.59 1668.9 1882.5 1698.78 1895.14 1728.37 1908.5 1757.64 1922.57 1786.57 1937.34 1815.15 1952.8 1843.36 1968.95 1871.19 1985.77 1898.61 2003.26 1925.62 2021.4 1952.19 2040.18 1978.31 2059.6 2003.96 2079.64 2029.13 2100.28 2053.81 2121.52 2077.97 2143.34 2101.61 2165.74 2124.71 2188.69 2147.25 2212.19 2169.23 2236.21 2190.63 2260.75 2211.43 2285.79 2231.63 2311.31 2251.21 2337.31 2270.17 2363.76 2288.48 2390.65 2306.15 2417.96 2323.15 2445.68 2339.48 2473.79 2355.12 2502.28 2370.08 2531.12 2384.34 2560.3 2397.89 M 2560.29 2397.89 345.72 2397.89 M 1123.28 1197.1 1122.79 1165 1121.51 1132.91 1119.45 1100.87 1116.61 1068.88 1112.99 1036.98 1108.6 1005.17 1103.43 973.48 1097.49 941.93 1090.78 910.53 1083.31 879.3 1075.08 848.26 1066.1 817.43 1056.37 786.84 1045.89 756.48 1034.68 726.39 1022.73 696.59 1010.07 667.08 996.69 637.89 982.6 609.04 967.81 580.54 952.33 552.41 936.17 524.66 919.34 497.31 901.85 470.39 883.71 443.9 864.92 417.85 845.51 392.28 825.48 367.18 804.84 342.58 783.61 318.49 761.8 294.93 739.42 271.9 M 1123.28 1197.11 1122.85 1229.28 1121.64 1261.43 1119.65 1293.54 1116.87 1325.59 1113.31 1357.56 1108.97 1389.44 1103.86 1421.2 1097.97 1452.83 1091.31 1484.31 1083.88 1515.61 1075.7 1546.72 1066.75 1577.63 1057.06 1608.3 1046.61 1638.73 1035.43 1668.9 1023.52 1698.78 1010.88 1728.37 997.52 1757.64 983.45 1786.57 968.68 1815.15 953.22 1843.36 937.07 1871.19 920.25 1898.61 902.76 1925.62 884.62 1952.19 865.84 1978.31 846.42 2003.96 826.38 2029.13 805.74 2053.81 784.5 2077.97 762.68 2101.61 740.28 2124.71 717.33 2147.25 693.83 2169.23 669.81 2190.63 645.27 2211.43 620.23 2231.63 594.71 2251.21 568.71 2270.17 542.26 2288.48 515.37 2306.15 488.06 2323.15 460.34 2339.48 432.23 2355.12 403.74 2370.08 374.9 2384.34 345.72 2397.89 M 1782.73 1197.1 1783.22 1165 1784.5 1132.91 1786.56 1100.87 1789.4 1068.88 1793.02 1036.98 1797.41 1005.17 1802.58 973.48 1808.52 941.93 1815.23 910.53 1822.7 879.3 1830.93 848.26 1839.91 817.43 1849.64 786.84 1860.12 756.48 1871.33 726.39 1883.28 696.59 1895.94 667.08 1909.32 637.89 1923.41 609.04 1938.2 580.54 1953.68 552.41 1969.84 524.66 1986.67 497.31 2004.16 470.39 2022.3 443.9 2041.09 417.85 2060.5 392.28 2080.53 367.18 2101.17 342.58 2122.4 318.49 2144.21 294.93 2166.59 271.9" fill="none" stroke-width="0"/><path d="M 1868.36 390.02 1868.38 391.42 1868.44 392.82 1868.54 394.21 1868.68 395.6 1868.86 396.99 1869.07 398.37 1869.33 399.75 1869.63 401.12 1869.96 402.47 1870.34 403.82 1870.75 405.16 1871.2 406.49 1871.68 407.8 1872.21 409.09 1872.77 410.38 1873.36 411.64 1874 412.89 1874.66 414.12 1875.37 415.33 1876.1 416.52 1876.87 417.69 1877.68 418.83 1878.51 419.95 1879.38 421.05 1880.28 422.13 1881.2 423.17 1882.16 424.19 1883.15 425.19 1884.16 426.15 1885.2 427.09 1886.27 427.99 1887.36 428.86 1888.48 429.71 1889.62 430.52 1890.78 431.3 1891.96 432.04 1893.17 432.75 1894.39 433.43 1895.64 434.07 1896.9 434.68 1898.17 435.25 1899.47 435.78 1900.78 436.28 1902.1 436.73 1903.43 437.16 1904.78 437.54 1906.13 437.88 1907.5 438.19 1908.87 438.46 1910.25 438.68 1911.64 438.87 1913.03 439.02 1914.42 439.13 1915.82 439.2 1917.22 439.23 1918.62 439.22 1920.02 439.17 1921.41 439.08 1922.81 438.95 1924.2 438.78 1925.58 438.57 1926.96 438.33 1928.33 438.04 1929.69 437.72 1931.04 437.35 1932.38 436.95 1933.71 436.51 1935.02 436.03 1936.32 435.52 1937.61 434.97 1938.88 434.38 1940.13 433.75 1941.36 433.1 1942.58 432.4 1943.77 431.67 1944.95 430.91 1946.1 430.12 1947.23 429.29 1948.33 428.43 1949.41 427.54 1950.46 426.62 1951.49 425.67 1952.49 424.69 1953.46 423.69 1954.4 422.65 1955.32 421.59 1956.2 420.51 1957.05 419.4 1957.87 418.26 1958.66 417.1 1959.41 415.93 1960.13 414.73 1960.81 413.51 1961.46 412.27 1962.08 411.01 1962.66 409.74 1963.2 408.45 1963.71 407.14 1964.17 405.82 1964.6 404.49 1965 403.15 1965.35 401.8 1965.67 400.43 1965.94 399.06 1966.18 397.68 1966.38 396.3 1966.54 394.91 1966.66 393.51 1966.74 392.12 1966.78 390.72 1966.78 389.32 1966.74 387.92 1966.66 386.53 1966.54 385.13 1966.38 383.74 1966.18 382.36 1965.94 380.98 1965.67 379.61 1965.35 378.24 1965 376.89 1964.6 375.55 1964.17 374.22 1963.71 372.9 1963.2 371.59 1962.66 370.3 1962.08 369.03 1961.46 367.77 1960.81 366.53 1960.13 365.31 1959.41 364.11 1958.66 362.94 1957.87 361.78 1957.05 360.64 1956.2 359.53 1955.32 358.45 1954.4 357.39 1953.46 356.35 1952.49 355.35 1951.49 354.37 1950.46 353.42 1949.41 352.5 1948.33 351.61 1947.23 350.75 1946.1 349.92 1944.95 349.13 1943.77 348.37 1942.58 347.64 1941.36 346.94 1940.13 346.29 1938.88 345.66 1937.61 345.07 1936.32 344.52 1935.02 344.01 1933.71 343.53 1932.38 343.09 1931.04 342.69 1929.69 342.32 1928.33 342 1926.96 341.71 1925.58 341.47 1924.2 341.26 1922.81 341.09 1921.41 340.96 1920.02 340.87 1918.62 340.82 1917.22 340.81 1915.82 340.84 1914.42 340.91 1913.03 341.02 1911.64 341.17 1910.25 341.36 1908.87 341.58 1907.5 341.85 1906.13 342.16 1904.78 342.5 1903.43 342.88 1902.1 343.31 1900.78 343.76 1899.47 344.26 1898.17 344.79 1896.9 345.36 1895.64 345.97 1894.39 346.61 1893.17 347.29 1891.96 348 1890.78 348.74 1889.62 349.52 1888.48 350.33 1887.36 351.18 1886.27 352.05 1885.2 352.95 1884.16 353.89 1883.15 354.85 1882.16 355.85 1881.2 356.87 1880.28 357.91 1879.38 358.99 1878.51 360.09 1877.68 361.21 1876.87 362.35 1876.1 363.52 1875.37 364.71 1874.66 365.92 1874 367.15 1873.36 368.4 1872.77 369.66 1872.21 370.95 1871.68 372.24 1871.2 373.55 1870.75 374.88 1870.34 376.22 1869.96 377.57 1869.63 378.92 1869.33 380.29 1869.07 381.67 1868.86 383.05 1868.68 384.44 1868.54 385.83 1868.44 387.22 1868.38 388.62 1868.36 390.02 M 939.23 390.02 939.25 391.42 939.31 392.82 939.41 394.21 939.55 395.6 939.73 396.99 939.94 398.37 940.2 399.75 940.5 401.12 940.83 402.47 941.21 403.82 941.62 405.16 942.07 406.49 942.55 407.8 943.08 409.09 943.64 410.38 944.23 411.64 944.87 412.89 945.53 414.12 946.24 415.33 946.97 416.52 947.74 417.69 948.55 418.83 949.38 419.95 950.25 421.05 951.15 422.13 952.07 423.17 953.03 424.19 954.02 425.19 955.03 426.15 956.07 427.09 957.14 427.99 958.23 428.86 959.35 429.71 960.49 430.52 961.65 431.3 962.83 432.04 964.04 432.75 965.26 433.43 966.51 434.07 967.77 434.68 969.04 435.25 970.34 435.78 971.65 436.28 972.97 436.73 974.3 437.16 975.65 437.54 977 437.88 978.37 438.19 979.74 438.46 981.12 438.68 982.51 438.87 983.9 439.02 985.29 439.13 986.69 439.2 988.09 439.23 989.49 439.22 990.89 439.17 992.28 439.08 993.68 438.95 995.07 438.78 996.45 438.57 997.83 438.33 999.2 438.04 1000.56 437.72 1001.91 437.35 1003.25 436.95 1004.58 436.51 1005.89 436.03 1007.19 435.52 1008.48 434.97 1009.75 434.38 1011 433.75 1012.23 433.1 1013.45 432.4 1014.64 431.67 1015.82 430.91 1016.97 430.12 1018.1 429.29 1019.2 428.43 1020.28 427.54 1021.33 426.62 1022.36 425.67 1023.36 424.69 1024.33 423.69 1025.27 422.65 1026.19 421.59 1027.07 420.51 1027.92 419.4 1028.74 418.26 1029.53 417.1 1030.28 415.93 1031 414.73 1031.68 413.51 1032.33 412.27 1032.95 411.01 1033.53 409.74 1034.07 408.45 1034.58 407.14 1035.04 405.82 1035.47 404.49 1035.87 403.15 1036.22 401.8 1036.54 400.43 1036.81 399.06 1037.05 397.68 1037.25 396.3 1037.41 394.91 1037.53 393.51 1037.61 392.12 1037.65 390.72 1037.65 389.32 1037.61 387.92 1037.53 386.53 1037.41 385.13 1037.25 383.74 1037.05 382.36 1036.81 380.98 1036.54 379.61 1036.22 378.24 1035.87 376.89 1035.47 375.55 1035.04 374.22 1034.58 372.9 1034.07 371.59 1033.53 370.3 1032.95 369.03 1032.33 367.77 1031.68 366.53 1031 365.31 1030.28 364.11 1029.53 362.94 1028.74 361.78 1027.92 360.64 1027.07 359.53 1026.19 358.45 1025.27 357.39 1024.33 356.35 1023.36 355.35 1022.36 354.37 1021.33 353.42 1020.28 352.5 1019.2 351.61 1018.1 350.75 1016.97 349.92 1015.82 349.13 1014.64 348.37 1013.45 347.64 1012.23 346.94 1011 346.29 1009.75 345.66 1008.48 345.07 1007.19 344.52 1005.89 344.01 1004.58 343.53 1003.25 343.09 1001.91 342.69 1000.56 342.32 999.2 342 997.83 341.71 996.45 341.47 995.07 341.26 993.68 341.09 992.28 340.96 990.89 340.87 989.49 340.82 988.09 340.81 986.69 340.84 985.29 340.91 983.9 341.02 982.51 341.17 981.12 341.36 979.74 341.58 978.37 341.85 977 342.16 975.65 342.5 974.3 342.88 972.97 343.31 971.65 343.76 970.34 344.26 969.04 344.79 967.77 345.36 966.51 345.97 965.26 346.61 964.04 347.29 962.83 348 961.65 348.74 960.49 349.52 959.35 350.33 958.23 351.18 957.14 352.05 956.07 352.95 955.03 353.89 954.02 354.85 953.03 355.85 952.07 356.87 951.15 357.91 950.25 358.99 949.38 360.09 948.55 361.21 947.74 362.35 946.97 363.52 946.24 364.71 945.53 365.92 944.87 367.15 944.23 368.4 943.64 369.66 943.08 370.95 942.55 372.24 942.07 373.55 941.62 374.88 941.21 376.22 940.83 377.57 940.5 378.92 940.2 380.29 939.94 381.67 939.73 383.05 939.55 384.44 939.41 385.83 939.31 387.22 939.25 388.62 939.23 390.02 M 939.23 1947.5 939.25 1948.9 939.31 1950.3 939.41 1951.69 939.55 1953.08 939.73 1954.47 939.94 1955.85 940.2 1957.23 940.5 1958.6 940.83 1959.95 941.21 1961.3 941.62 1962.64 942.07 1963.97 942.55 1965.28 943.08 1966.57 943.64 1967.86 944.23 1969.12 944.87 1970.37 945.53 1971.6 946.24 1972.81 946.97 1974 947.74 1975.17 948.55 1976.31 949.38 1977.43 950.25 1978.53 951.15 1979.61 952.07 1980.65 953.03 1981.67 954.02 1982.67 955.03 1983.63 956.07 1984.57 957.14 1985.47 958.23 1986.34 959.35 1987.19 960.49 1988 961.65 1988.78 962.83 1989.52 964.04 1990.23 965.26 1990.91 966.51 1991.55 967.77 1992.16 969.04 1992.73 970.34 1993.26 971.65 1993.76 972.97 1994.21 974.3 1994.64 975.65 1995.02 977 1995.36 978.37 1995.67 979.74 1995.94 981.12 1996.16 982.51 1996.35 983.9 1996.5 985.29 1996.61 986.69 1996.68 988.09 1996.71 989.49 1996.7 990.89 1996.65 992.28 1996.56 993.68 1996.43 995.07 1996.26 996.45 1996.05 997.83 1995.81 999.2 1995.52 1000.56 1995.2 1001.91 1994.83 1003.25 1994.43 1004.58 1993.99 1005.89 1993.51 1007.19 1993 1008.48 1992.45 1009.75 1991.86 1011 1991.23 1012.23 1990.58 1013.45 1989.88 1014.64 1989.15 1015.82 1988.39 1016.97 1987.6 1018.1 1986.77 1019.2 1985.91 1020.28 1985.02 1021.33 1984.1 1022.36 1983.15 1023.36 1982.17 1024.33 1981.17 1025.27 1980.13 1026.19 1979.07 1027.07 1977.99 1027.92 1976.88 1028.74 1975.74 1029.53 1974.58 1030.28 1973.41 1031 1972.21 1031.68 1970.99 1032.33 1969.75 1032.95 1968.49 1033.53 1967.22 1034.07 1965.93 1034.58 1964.62 1035.04 1963.3 1035.47 1961.97 1035.87 1960.63 1036.22 1959.28 1036.54 1957.91 1036.81 1956.54 1037.05 1955.16 1037.25 1953.78 1037.41 1952.39 1037.53 1950.99 1037.61 1949.6 1037.65 1948.2 1037.65 1946.8 1037.61 1945.4 1037.53 1944.01 1037.41 1942.61 1037.25 1941.22 1037.05 1939.84 1036.81 1938.46 1036.54 1937.09 1036.22 1935.72 1035.87 1934.37 1035.47 1933.03 1035.04 1931.7 1034.58 1930.38 1034.07 1929.07 1033.53 1927.78 1032.95 1926.51 1032.33 1925.25 1031.68 1924.01 1031 1922.79 1030.28 1921.59 1029.53 1920.42 1028.74 1919.26 1027.92 1918.12 1027.07 1917.01 1026.19 1915.93 1025.27 1914.87 1024.33 1913.83 1023.36 1912.83 1022.36 1911.85 1021.33 1910.9 1020.28 1909.98 1019.2 1909.09 1018.1 1908.23 1016.97 1907.4 1015.82 1906.61 1014.64 1905.85 1013.45 1905.12 1012.23 1904.42 1011 1903.77 1009.75 1903.14 1008.48 1902.55 1007.19 1902 1005.89 1901.49 1004.58 1901.01 1003.25 1900.57 1001.91 1900.17 1000.56 1899.8 999.2 1899.48 997.83 1899.19 996.45 1898.95 995.07 1898.74 993.68 1898.57 992.28 1898.44 990.89 1898.35 989.49 1898.3 988.09 1898.29 986.69 1898.32 985.29 1898.39 983.9 1898.5 982.51 1898.65 981.12 1898.84 979.74 1899.06 978.37 1899.33 977 1899.64 975.65 1899.98 974.3 1900.36 972.97 1900.79 971.65 1901.24 970.34 1901.74 969.04 1902.27 967.77 1902.84 966.51 1903.45 965.26 1904.09 964.04 1904.77 962.83 1905.48 961.65 1906.22 960.49 1907 959.35 1907.81 958.23 1908.66 957.14 1909.53 956.07 1910.43 955.03 1911.37 954.02 1912.33 953.03 1913.33 952.07 1914.35 951.15 1915.39 950.25 1916.47 949.38 1917.57 948.55 1918.69 947.74 1919.83 946.97 1921 946.24 1922.19 945.53 1923.4 944.87 1924.63 944.23 1925.88 943.64 1927.14 943.08 1928.43 942.55 1929.72 942.07 1931.03 941.62 1932.36 941.21 1933.7 940.83 1935.05 940.5 1936.4 940.2 1937.77 939.94 1939.15 939.73 1940.53 939.55 1941.92 939.41 1943.31 939.31 1944.7 939.25 1946.1 939.23 1947.5 M 1868.36 1947.5 1868.38 1948.9 1868.44 1950.3 1868.54 1951.69 1868.68 1953.08 1868.86 1954.47 1869.07 1955.85 1869.33 1957.23 1869.63 1958.6 1869.96 1959.95 1870.34 1961.3 1870.75 1962.64 1871.2 1963.97 1871.68 1965.28 1872.21 1966.57 1872.77 1967.86 1873.36 1969.12 1874 1970.37 1874.66 1971.6 1875.37 1972.81 1876.1 1974 1876.87 1975.17 1877.68 1976.31 1878.51 1977.43 1879.38 1978.53 1880.28 1979.61 1881.2 1980.65 1882.16 1981.67 1883.15 1982.67 1884.16 1983.63 1885.2 1984.57 1886.27 1985.47 1887.36 1986.34 1888.48 1987.19 1889.62 1988 1890.78 1988.78 1891.96 1989.52 1893.17 1990.23 1894.39 1990.91 1895.64 1991.55 1896.9 1992.16 1898.17 1992.73 1899.47 1993.26 1900.78 1993.76 1902.1 1994.21 1903.43 1994.64 1904.78 1995.02 1906.13 1995.36 1907.5 1995.67 1908.87 1995.94 1910.25 1996.16 1911.64 1996.35 1913.03 1996.5 1914.42 1996.61 1915.82 1996.68 1917.22 1996.71 1918.62 1996.7 1920.02 1996.65 1921.41 1996.56 1922.81 1996.43 1924.2 1996.26 1925.58 1996.05 1926.96 1995.81 1928.33 1995.52 1929.69 1995.2 1931.04 1994.83 1932.38 1994.43 1933.71 1993.99 1935.02 1993.51 1936.32 1993 1937.61 1992.45 1938.88 1991.86 1940.13 1991.23 1941.36 1990.58 1942.58 1989.88 1943.77 1989.15 1944.95 1988.39 1946.1 1987.6 1947.23 1986.77 1948.33 1985.91 1949.41 1985.02 1950.46 1984.1 1951.49 1983.15 1952.49 1982.17 1953.46 1981.17 1954.4 1980.13 1955.32 1979.07 1956.2 1977.99 1957.05 1976.88 1957.87 1975.74 1958.66 1974.58 1959.41 1973.41 1960.13 1972.21 1960.81 1970.99 1961.46 1969.75 1962.08 1968.49 1962.66 1967.22 1963.2 1965.93 1963.71 1964.62 1964.17 1963.3 1964.6 1961.97 1965 1960.63 1965.35 1959.28 1965.67 1957.91 1965.94 1956.54 1966.18 1955.16 1966.38 1953.78 1966.54 1952.39 1966.66 1950.99 1966.74 1949.6 1966.78 1948.2 1966.78 1946.8 1966.74 1945.4 1966.66 1944.01 1966.54 1942.61 1966.38 1941.22 1966.18 1939.84 1965.94 1938.46 1965.67 1937.09 1965.35 1935.72 1965 1934.37 1964.6 1933.03 1964.17 1931.7 1963.71 1930.38 1963.2 1929.07 1962.66 1927.78 1962.08 1926.51 1961.46 1925.25 1960.81 1924.01 1960.13 1922.79 1959.41 1921.59 1958.66 1920.42 1957.87 1919.26 1957.05 1918.12 1956.2 1917.01 1955.32 1915.93 1954.4 1914.87 1953.46 1913.83 1952.49 1912.83 1951.49 1911.85 1950.46 1910.9 1949.41 1909.98 1948.33 1909.09 1947.23 1908.23 1946.1 1907.4 1944.95 1906.61 1943.77 1905.85 1942.58 1905.12 1941.36 1904.42 1940.13 1903.77 1938.88 1903.14 1937.61 1902.55 1936.32 1902 1935.02 1901.49 1933.71 1901.01 1932.38 1900.57 1931.04 1900.17 1929.69 1899.8 1928.33 1899.48 1926.96 1899.19 1925.58 1898.95 1924.2 1898.74 1922.81 1898.57 1921.41 1898.44 1920.02 1898.35 1918.62 1898.3 1917.22 1898.29 1915.82 1898.32 1914.42 1898.39 1913.03 1898.5 1911.64 1898.65 1910.25 1898.84 1908.87 1899.06 1907.5 1899.33 1906.13 1899.64 1904.78 1899.98 1903.43 1900.36 1902.1 1900.79 1900.78 1901.24 1899.47 1901.74 1898.17 1902.27 1896.9 1902.84 1895.64 1903.45 1894.39 1904.09 1893.17 1904.77 1891.96 1905.48 1890.78 1906.22 1889.62 1907 1888.48 1907.81 1887.36 1908.66 1886.27 1909.53 1885.2 1910.43 1884.16 1911.37 1883.15 1912.33 1882.16 1913.33 1881.2 1914.35 1880.28 1915.39 1879.38 1916.47 1878.51 1917.57 1877.68 1918.69 1876.87 1919.83 1876.1 1921 1875.37 1922.19 1874.66 1923.4 1874 1924.63 1873.36 1925.88 1872.77 1927.14 1872.21 1928.43 1871.68 1929.72 1871.2 1931.03 1870.75 1932.36 1870.34 1933.7 1869.96 1935.05 1869.63 1936.4 1869.33 1937.77 1869.07 1939.15 1868.86 1940.53 1868.68 1941.92 1868.54 1943.31 1868.44 1944.7 1868.38 1946.1 1868.36 1947.5" fill="none" stroke-width="0.39"/><use xlink:href="#H7eB-VixWZxFsfuY2_wC_pad-12" x="1334.9" y="1854.58"/><use xlink:href="#H7eB-VixWZxFsfuY2_wC_pad-12" x="1334.9" y="1779.78"/><use xlink:href="#H7eB-VixWZxFsfuY2_wC_pad-12" x="1256.16" y="1779.78"/><use xlink:href="#H7eB-VixWZxFsfuY2_wC_pad-12" x="1177.42" y="1779.78"/><use xlink:href="#H7eB-VixWZxFsfuY2_wC_pad-12" x="1177.42" y="1854.58"/><use xlink:href="#H7eB-VixWZxFsfuY2_wC_pad-12" x="1256.16" y="1854.58"/><use xlink:href="#H7eB-VixWZxFsfuY2_wC_pad-12" x="1098.68" y="1854.58"/><use xlink:href="#H7eB-VixWZxFsfuY2_wC_pad-12" x="1098.68" y="1779.78"/><use xlink:href="#H7eB-VixWZxFsfuY2_wC_pad-13" x="1580.96" y="1704.98"/><use xlink:href="#H7eB-VixWZxFsfuY2_wC_pad-13" x="1580.96" y="1653.8"/><use xlink:href="#H7eB-VixWZxFsfuY2_wC_pad-13" x="1580.96" y="1596.71"/><use xlink:href="#H7eB-VixWZxFsfuY2_wC_pad-13" x="1580.96" y="1545.53"/><use xlink:href="#H7eB-VixWZxFsfuY2_wC_pad-13" x="1640.02" y="1653.8"/><use xlink:href="#H7eB-VixWZxFsfuY2_wC_pad-13" x="1640.02" y="1704.98"/><use xlink:href="#H7eB-VixWZxFsfuY2_wC_pad-13" x="1379.19" y="1350.65"/><use xlink:href="#H7eB-VixWZxFsfuY2_wC_pad-13" x="1379.19" y="1299.46"/><use xlink:href="#H7eB-VixWZxFsfuY2_wC_pad-13" x="1221.71" y="1299.46"/><use xlink:href="#H7eB-VixWZxFsfuY2_wC_pad-13" x="1221.71" y="1350.65"/><use xlink:href="#H7eB-VixWZxFsfuY2_wC_pad-13" x="1521.91" y="1079.98"/><use xlink:href="#H7eB-VixWZxFsfuY2_wC_pad-13" x="1580.96" y="1079.98"/><use xlink:href="#H7eB-VixWZxFsfuY2_wC_pad-13" x="1580.96" y="1028.8"/><use xlink:href="#H7eB-VixWZxFsfuY2_wC_pad-13" x="1521.91" y="1028.8"/><use xlink:href="#H7eB-VixWZxFsfuY2_wC_pad-13" x="1605.57" y="956.94"/><use xlink:href="#H7eB-VixWZxFsfuY2_wC_pad-13" x="1605.57" y="905.76"/><use xlink:href="#H7eB-VixWZxFsfuY2_wC_pad-13" x="1664.62" y="905.76"/><use xlink:href="#H7eB-VixWZxFsfuY2_wC_pad-13" x="1664.62" y="956.94"/><use xlink:href="#H7eB-VixWZxFsfuY2_wC_pad-13" x="1640.02" y="1028.8"/><use xlink:href="#H7eB-VixWZxFsfuY2_wC_pad-13" x="1640.02" y="1079.98"/><use xlink:href="#H7eB-VixWZxFsfuY2_wC_pad-13" x="1266" y="804.39"/><use xlink:href="#H7eB-VixWZxFsfuY2_wC_pad-13" x="1266" y="753.2"/><use xlink:href="#H7eB-VixWZxFsfuY2_wC_pad-14" x="1577.02" y="1743.36"/><use xlink:href="#H7eB-VixWZxFsfuY2_wC_pad-14" x="1643.95" y="1743.36"/><use xlink:href="#H7eB-VixWZxFsfuY2_wC_pad-15" x="1607.14" y="395.33"/><use xlink:href="#H7eB-VixWZxFsfuY2_wC_pad-15" x="1557.14" y="395.33"/><use xlink:href="#H7eB-VixWZxFsfuY2_wC_pad-15" x="1507.14" y="395.33"/><use xlink:href="#H7eB-VixWZxFsfuY2_wC_pad-15" x="1457.14" y="395.33"/><use xlink:href="#H7eB-VixWZxFsfuY2_wC_pad-15" x="1407.14" y="395.33"/><use xlink:href="#H7eB-VixWZxFsfuY2_wC_pad-15" x="1407.14" y="345.33"/><use xlink:href="#H7eB-VixWZxFsfuY2_wC_pad-15" x="1457.14" y="345.33"/><use xlink:href="#H7eB-VixWZxFsfuY2_wC_pad-15" x="1507.14" y="345.33"/><use xlink:href="#H7eB-VixWZxFsfuY2_wC_pad-15" x="1557.14" y="345.33"/><use xlink:href="#H7eB-VixWZxFsfuY2_wC_pad-15" x="1607.14" y="345.33"/><use xlink:href="#H7eB-VixWZxFsfuY2_wC_pad-16" x="1054.39" y="504.19"/><use xlink:href="#H7eB-VixWZxFsfuY2_wC_pad-16" x="1054.39" y="571.12"/><use xlink:href="#H7eB-VixWZxFsfuY2_wC_pad-17" x="1167.18" y="600.06"/><use xlink:href="#H7eB-VixWZxFsfuY2_wC_pad-17" x="1167.18" y="650.06"/><use xlink:href="#H7eB-VixWZxFsfuY2_wC_pad-17" x="1167.18" y="700.06"/><use xlink:href="#H7eB-VixWZxFsfuY2_wC_pad-17" x="1167.18" y="750.06"/><use xlink:href="#H7eB-VixWZxFsfuY2_wC_pad-17" x="1167.18" y="800.06"/><use xlink:href="#H7eB-VixWZxFsfuY2_wC_pad-17" x="1217.18" y="800.06"/><use xlink:href="#H7eB-VixWZxFsfuY2_wC_pad-17" x="1217.18" y="750.06"/><use xlink:href="#H7eB-VixWZxFsfuY2_wC_pad-17" x="1217.18" y="700.06"/><use xlink:href="#H7eB-VixWZxFsfuY2_wC_pad-17" x="1217.18" y="650.06"/><use xlink:href="#H7eB-VixWZxFsfuY2_wC_pad-17" x="1217.18" y="600.06"/><use xlink:href="#H7eB-VixWZxFsfuY2_wC_pad-18" x="1575.06" y="537.65"/><use xlink:href="#H7eB-VixWZxFsfuY2_wC_pad-18" x="1626.24" y="537.65"/><use xlink:href="#H7eB-VixWZxFsfuY2_wC_pad-19" x="1631.16" y="1591.79"/><use xlink:href="#H7eB-VixWZxFsfuY2_wC_pad-19" x="1631.16" y="1609.5"/><use xlink:href="#H7eB-VixWZxFsfuY2_wC_pad-19" x="1648.87" y="1609.5"/><use xlink:href="#H7eB-VixWZxFsfuY2_wC_pad-19" x="1648.87" y="1591.79"/><use xlink:href="#H7eB-VixWZxFsfuY2_wC_pad-20" x="1311.87" y="330.96"/><use xlink:href="#H7eB-VixWZxFsfuY2_wC_pad-20" x="1211.87" y="330.96"/><use xlink:href="#H7eB-VixWZxFsfuY2_wC_pad-20" x="1111.87" y="330.96"/><use xlink:href="#H7eB-VixWZxFsfuY2_wC_pad-21" x="1152.81" y="449.07"/><use xlink:href="#H7eB-VixWZxFsfuY2_wC_pad-21" x="1211.87" y="449.07"/><use xlink:href="#H7eB-VixWZxFsfuY2_wC_pad-21" x="1270.92" y="449.07"/><use xlink:href="#H7eB-VixWZxFsfuY2_wC_pad-21" x="1329.98" y="449.07"/><path d="M 1351.63 562.26 1354.58 562.26 1359.5 567.18 1359.5 579.79 1369.35 589.63 1418.51 589.63 1456.81 551.33 1456.81 544.64 1467.77 533.68 1467.77 506.2 1467.57 506.01 1467.57 490.56 1478.5 479.64 1493.94 479.64 1497.83 483.52 1590.92 483.52 1614.78 507.39 1649.59 507.39 M 1694.15 562.26 1694.15 419.54 1669.94 395.33 1607.14 395.33 M 1645.14 383.33 1674.91 383.33 1706.15 414.57 1706.15 567.23 1684.36 589.02 1647.7 589.02 1538.83 697.9 1538.83 845.03 1550.39 856.6 1550.39 872.05 1539.47 882.97 1524.02 882.97 1523.2 882.14 1512.06 882.14 M 1531.75 864.32 1526.83 859.4 1526.83 691.29 1641.09 577.02 1679.39 577.02 1694.15 562.26 M 1659.7 606.55 1659.7 607.67 M 1659.7 606.55 1647.14 606.55 1550.83 702.87 1550.83 816.44 1557.47 823.09 M 1526.83 906.75 1379.19 906.75 1374.27 906.75 1330.37 862.85 1329.98 862.46 1300.45 862.46 1285.69 847.69 M 1217.18 800.06 1241.25 775.98 1287.44 775.98 1292.72 770.71 1292.72 722.04 1374.37 640.39 1438.34 640.39 1474.95 603.79 1563.35 603.79 1576.04 591.1 M 1546.51 581.94 1536.67 591.79 1469.98 591.79 1433.37 628.39 1364.47 628.39 1280.81 712.06 1275.84 712.06 1262.85 725.05 1262.85 750.06 1217.18 750.06 M 1262.85 750.06 1266 753.2 M 1275.84 700.06 1217.18 700.06 M 1275.84 700.06 1359.5 616.39 1428.4 616.39 1487.46 557.34 M 1468.81 556.3 1423.48 601.63 1275.84 601.63 1266 611.47 1241.39 611.47 1229.98 600.06 1217.18 600.06 M 1157.73 537.65 1147.01 548.38 M 1157.73 537.65 1157.73 488.44 M 1054.39 571.12 1054.39 572.1 M 1468.81 556.3 1468.81 549.62 1479.73 538.69 1495.18 538.69 1503.98 547.5 1526.83 547.5 1536.67 537.65 1541.59 537.65 1575.06 537.65 M 1645.14 383.33 1607.14 345.33 M 1605.57 905.76 1605.46 905.76 1604.48 906.75 M 1495.61 985.49 1495.61 990.34 1468.81 1017.13 1468.81 1032.58 1487.8 1051.57 1535.59 1051.57 1541.21 1057.2 1543.35 1057.2 1554.24 1068.09 1554.24 1097.48 1559.52 1102.76 1708.07 1102.76 1723.68 1118.36 1723.68 1142.97 M 1673.38 1078.99 1641 1078.99 1640.02 1079.98 M 1607.68 1046.3 1602.41 1051.57 1588.69 1051.57 1580.96 1059.31 1580.96 1079.98 M 1580.96 1059.31 1573.23 1051.57 1559.52 1051.57 1554.24 1046.3 1554.24 1032.59 1551.43 1029.78 1522.89 1029.78 1521.91 1028.8 1529.78 1028.8 1525.84 1024.86 1487.46 1024.86 M 1607.68 1032.59 1607.68 1046.3 M 1607.68 1032.59 1611.47 1028.8 1640.02 1028.8 M 1372.51 1748.28 1064.23 1748.28 1064.23 1817.18 1384.11 1817.18 1384.11 1781.69 1376.39 1781.69 1365.46 1770.77 1365.46 1755.32 1372.51 1748.28 M 1370.56 1750.23 1064.23 1750.23 M 1064.23 1756.21 1365.46 1756.21 M 1365.46 1762.2 1064.23 1762.2 M 1064.23 1768.18 1365.46 1768.18 M 1368.86 1774.17 1064.23 1774.17 M 1064.23 1780.15 1374.85 1780.15 M 1384.11 1786.14 1064.23 1786.14 M 1064.23 1792.12 1384.11 1792.12 M 1384.11 1798.11 1064.23 1798.11 M 1064.23 1804.09 1384.11 1804.09 M 1384.11 1810.08 1064.23 1810.08 M 1064.23 1816.06 1384.11 1816.06" fill="none" stroke-width="6"/><path d="M 1403.76 1782.69 1510.36 1782.69 1515.24 1777.81 1531.86 1777.81 1546.57 1763.1 1555.06 1763.1 1561.07 1769.11 1592.98 1769.11 1618.72 1743.36 1643.95 1743.36 1643.95 1708.91 1640.02 1704.98 M 1640.02 1653.8 1632.14 1653.8 1580.96 1704.98 1580.96 1739.43 1577.02 1743.36 1546.51 1743.36 1526.83 1763.05 1502.22 1763.05 M 1403.76 1782.69 1384.11 1763.05 M 1580.96 1653.8 1625.25 1609.5 1631.16 1609.5 M 1648.87 1609.5 1717.77 1609.5 1728.6 1620.33 1744.35 1620.33 M 1669.31 1531.51 1629.94 1531.51 1615.41 1516.98 1608.68 1523.72 1608.68 1568.99 1580.96 1596.71 M 1615.41 1516.98 1615.41 1320.13 1595.72 1300.45 1517.97 1300.45 1516.98 1299.46 M 1167.57 1301.99 1133.48 1301.99 M 1132.63 1309.97 1162.97 1309.97 M 1167.57 1305.37 1167.57 877.22 1123.28 832.93 1123.28 473.06 1123.13 472.9 1123.13 425.24 1123.28 425.09 1123.28 419.54 1128.83 419.54 1128.98 419.39 1176.64 419.39 1176.8 419.54 1187.88 419.54 1188.04 419.39 1235.69 419.39 1235.85 419.54 1246.94 419.54 1247.09 419.39 1294.75 419.39 1294.91 419.54 1305.99 419.54 1306.15 419.39 1353.8 419.39 1353.96 419.54 1477.61 419.54 1477.61 406.76 1475.49 401.63 1475.49 389.03 1477.61 383.9 1477.61 380.17 1423.48 380.17 1423.48 321.12 1379.19 321.12 1379.19 365.41 1349.66 394.94 1098.68 394.94 1098.68 832.93 1088.54 843.06 1098.42 875.49 1124.01 1002.85 1124.01 1002.85 1137.07 1132.1 1137.26 1191.29 1137.29 1191.32 1137.28 1197.09 1137.3 1202.86 1137.28 1202.88 1137.21 1266.64 1122.6 1404.92 1093.66 1540.93 1093.66 1540.93 1050.73 1673.19 1028.29 1723.68 1069.15 1723.68 1069.15 1753.2 1152.81 1753.2 1152.81 1338.07 1152.47 1337.74 1152.47 1321.46 1152.81 1321.12 1152.81 1320.13 1167.57 1305.37 M 1167.57 1294 1134.32 1294 M 1135.17 1286.01 1167.57 1286.01 M 1167.57 1278.03 1136.01 1278.03 M 1136.85 1270.04 1167.57 1270.04 M 1167.57 1262.06 1137.22 1262.06 M 1137.23 1254.07 1167.57 1254.07 M 1167.57 1246.09 1137.23 1246.09 M 1137.24 1238.1 1167.57 1238.1 M 1167.57 1230.12 1137.25 1230.12 M 1137.26 1222.13 1167.57 1222.13 M 1167.57 1214.15 1137.27 1214.15 M 1137.27 1206.16 1167.57 1206.16 M 1167.57 1198.18 1137.29 1198.18 M 1137.26 1190.19 1167.57 1190.19 M 1167.57 1182.21 1137.24 1182.21 M 1137.21 1174.22 1167.57 1174.22 M 1167.57 1166.24 1137.18 1166.24 M 1137.16 1158.25 1167.57 1158.25 M 1167.57 1150.27 1137.13 1150.27 M 1137.11 1142.28 1167.57 1142.28 M 1167.57 1134.3 1137.08 1134.3 M 1137.07 1132.1 1137.07 1132.1 M 1136.49 1126.31 1167.57 1126.31 M 1167.57 1118.33 1135.68 1118.33 M 1134.87 1110.34 1167.57 1110.34 M 1167.57 1102.36 1134.07 1102.36 M 1133.26 1094.37 1167.57 1094.37 M 1167.57 1086.39 1132.45 1086.39 M 1131.65 1078.4 1167.57 1078.4 M 1167.57 1070.42 1130.84 1070.42 M 1130.03 1062.43 1167.57 1062.43 M 1167.57 1054.45 1129.22 1054.45 M 1128.42 1046.46 1167.57 1046.46 M 1167.57 1038.48 1127.61 1038.48 M 1126.8 1030.49 1167.57 1030.49 M 1167.57 1022.51 1126 1022.51 M 1125.19 1014.52 1167.57 1014.52 M 1167.57 1006.54 1124.38 1006.54 M 1123.14 998.55 1167.57 998.55 M 1167.57 990.57 1121.54 990.57 M 1119.94 982.58 1167.57 982.58 M 1167.57 974.6 1118.33 974.6 M 1116.73 966.61 1167.57 966.61 M 1167.57 958.63 1115.12 958.63 M 1113.52 950.64 1167.57 950.64 M 1167.57 942.66 1111.92 942.66 M 1110.31 934.67 1167.57 934.67 M 1167.57 926.68 1108.71 926.68 M 1107.1 918.7 1167.57 918.7 M 1167.57 910.71 1105.5 910.71 M 1103.89 902.73 1167.57 902.73 M 1167.57 894.74 1102.29 894.74 M 1100.69 886.76 1167.57 886.76 M 1167.57 878.77 1099.08 878.77 M 1098.42 875.49 1098.42 875.49 M 1096.99 870.79 1161.14 870.79 M 1153.16 862.8 1094.56 862.8 M 1092.12 854.82 1145.17 854.82 M 1137.19 846.83 1089.69 846.83 M 1092.76 838.85 1129.2 838.85 M 1123.28 830.86 1098.68 830.86 M 1098.68 822.88 1123.28 822.88 M 1123.28 814.89 1098.68 814.89 M 1098.68 806.91 1123.28 806.91 M 1123.28 798.92 1098.68 798.92 M 1098.68 790.94 1123.28 790.94 M 1123.28 782.95 1098.68 782.95 M 1098.68 774.97 1123.28 774.97 M 1123.28 766.98 1098.68 766.98 M 1098.68 759 1123.28 759 M 1123.28 751.01 1098.68 751.01 M 1098.68 743.03 1123.28 743.03 M 1123.28 735.04 1098.68 735.04 M 1098.68 727.06 1123.28 727.06 M 1123.28 719.07 1098.68 719.07 M 1098.68 711.09 1123.28 711.09 M 1123.28 703.1 1098.68 703.1 M 1098.68 695.12 1123.28 695.12 M 1123.28 687.13 1098.68 687.13 M 1098.68 679.15 1123.28 679.15 M 1123.28 671.16 1098.68 671.16 M 1098.68 663.18 1123.28 663.18 M 1123.28 655.19 1098.68 655.19 M 1098.68 647.21 1123.28 647.21 M 1123.28 639.22 1098.68 639.22 M 1098.68 631.24 1123.28 631.24 M 1123.28 623.25 1098.68 623.25 M 1098.68 615.27 1123.28 615.27 M 1123.28 607.28 1098.68 607.28 M 1098.68 599.3 1123.28 599.3 M 1123.28 591.31 1098.68 591.31 M 1098.68 583.32 1123.28 583.32 M 1123.28 575.34 1098.68 575.34 M 1098.68 567.35 1123.28 567.35 M 1123.28 559.37 1098.68 559.37 M 1098.68 551.38 1123.28 551.38 M 1123.28 543.4 1098.68 543.4 M 1098.68 535.41 1123.28 535.41 M 1123.28 527.43 1098.68 527.43 M 1098.68 519.44 1123.28 519.44 M 1123.28 511.46 1098.68 511.46 M 1098.68 503.47 1123.28 503.47 M 1123.28 495.49 1098.68 495.49 M 1098.68 487.5 1123.28 487.5 M 1123.28 479.52 1098.68 479.52 M 1098.68 471.53 1123.13 471.53 M 1123.13 463.55 1098.68 463.55 M 1098.68 455.56 1123.13 455.56 M 1123.13 447.58 1098.68 447.58 M 1098.68 439.59 1123.13 439.59 M 1123.13 431.61 1098.68 431.61 M 1098.68 423.62 1123.28 423.62 M 1098.68 415.64 1477.61 415.64 M 1477.61 407.65 1098.68 407.65 M 1098.68 399.67 1475.49 399.67 M 1475.49 391.68 1352.92 391.68 M 1360.9 383.7 1477.61 383.7 M 1423.48 375.71 1368.89 375.71 M 1376.87 367.73 1423.48 367.73 M 1423.48 359.74 1379.19 359.74 M 1379.19 351.76 1423.48 351.76 M 1423.48 343.77 1379.19 343.77 M 1379.19 335.79 1423.48 335.79 M 1423.48 327.8 1379.19 327.8 M 1660.79 951.04 1669.54 951.04 1664.62 955.96 1664.62 956.94 M 1154.99 1317.96 1131.79 1317.96 M 1130.95 1325.94 1152.47 1325.94 M 1152.47 1333.93 1130.1 1333.93 M 1129.26 1341.91 1152.81 1341.91 M 1152.81 1349.9 1128.41 1349.9 M 1127.57 1357.88 1152.81 1357.88 M 1152.81 1365.87 1126.72 1365.87 M 1125.88 1373.85 1152.81 1373.85 M 1152.81 1381.84 1125.04 1381.84 M 1124.19 1389.82 1152.81 1389.82 M 1152.81 1397.81 1123.35 1397.81 M 1122.41 1405.79 1152.81 1405.79 M 1152.81 1413.78 1120.71 1413.78 M 1119.01 1421.76 1152.81 1421.76 M 1152.81 1429.75 1117.32 1429.75 M 1115.62 1437.73 1152.81 1437.73 M 1152.81 1445.72 1113.92 1445.72 M 1112.22 1453.7 1152.81 1453.7 M 1152.81 1461.69 1110.52 1461.69 M 1108.82 1469.67 1152.81 1469.67 M 1152.81 1477.66 1107.12 1477.66 M 1105.43 1485.64 1152.81 1485.64 M 1152.81 1493.63 1103.73 1493.63 M 1102.03 1501.61 1152.81 1501.61 M 1152.81 1509.6 1100.33 1509.6 M 1098.63 1517.58 1152.81 1517.58 M 1152.81 1525.57 1096.93 1525.57 M 1095.23 1533.55 1152.81 1533.55 M 1152.81 1541.54 1093.47 1541.54 M 1090.87 1549.52 1152.81 1549.52 M 1152.81 1557.51 1088.28 1557.51 M 1085.69 1565.49 1152.81 1565.49 M 1152.81 1573.48 1083.1 1573.48 M 1080.51 1581.46 1152.81 1581.46 M 1152.81 1589.45 1077.91 1589.45 M 1075.32 1597.43 1152.81 1597.43 M 1152.81 1605.42 1072.73 1605.42 M 1070.14 1613.4 1152.81 1613.4 M 1152.81 1621.39 1067.54 1621.39 M 1064.95 1629.37 1152.81 1629.37 M 1152.81 1637.36 1062.36 1637.36 M 1059.77 1645.34 1152.81 1645.34 M 1152.81 1653.33 1057.17 1653.33 M 1054.58 1661.32 1152.81 1661.32 M 1152.81 1669.3 1051.99 1669.3 M 1050.73 1673.19 1050.73 1673.19 M 1048.91 1677.29 1152.81 1677.29 M 1152.81 1685.27 1045.36 1685.27 M 1041.81 1693.26 1152.81 1693.26 M 1152.81 1701.24 1038.26 1701.24 M 1034.71 1709.23 1152.81 1709.23 M 1152.81 1717.21 1031.16 1717.21 M 1069.15 1725.2 1152.81 1725.2 M 1152.81 1733.18 1069.15 1733.18 M 1069.15 1741.17 1152.81 1741.17 M 1152.81 1749.15 1069.15 1749.15" fill="none" stroke-width="8"/><use xlink:href="#H7eB-VixWZxFsfuY2_wC_pad-24" x="1034.7" y="1758.13"/><use xlink:href="#H7eB-VixWZxFsfuY2_wC_pad-24" x="1044.54" y="1787.65"/><use xlink:href="#H7eB-VixWZxFsfuY2_wC_pad-24" x="1019.94" y="1807.34"/><use xlink:href="#H7eB-VixWZxFsfuY2_wC_pad-24" x="1029.78" y="1851.63"/><use xlink:href="#H7eB-VixWZxFsfuY2_wC_pad-24" x="990.41" y="1851.63"/><use xlink:href="#H7eB-VixWZxFsfuY2_wC_pad-24" x="1108.52" y="1905.76"/><use xlink:href="#H7eB-VixWZxFsfuY2_wC_pad-24" x="1108.52" y="1954.98"/><use xlink:href="#H7eB-VixWZxFsfuY2_wC_pad-24" x="1266" y="1989.43"/><use xlink:href="#H7eB-VixWZxFsfuY2_wC_pad-24" x="1275.84" y="1905.76"/><use xlink:href="#H7eB-VixWZxFsfuY2_wC_pad-24" x="1334.9" y="1905.76"/><use xlink:href="#H7eB-VixWZxFsfuY2_wC_pad-24" x="1384.11" y="1763.05"/><use xlink:href="#H7eB-VixWZxFsfuY2_wC_pad-24" x="1408.72" y="1679.39"/><use xlink:href="#H7eB-VixWZxFsfuY2_wC_pad-24" x="1448.09" y="1679.39"/><use xlink:href="#H7eB-VixWZxFsfuY2_wC_pad-24" x="1448.09" y="1640.02"/><use xlink:href="#H7eB-VixWZxFsfuY2_wC_pad-24" x="1408.72" y="1640.02"/><use xlink:href="#H7eB-VixWZxFsfuY2_wC_pad-24" x="1408.72" y="1600.65"/><use xlink:href="#H7eB-VixWZxFsfuY2_wC_pad-24" x="1448.09" y="1600.65"/><use xlink:href="#H7eB-VixWZxFsfuY2_wC_pad-24" x="1453.01" y="1526.83"/><use xlink:href="#H7eB-VixWZxFsfuY2_wC_pad-24" x="1403.8" y="1512.06"/><use xlink:href="#H7eB-VixWZxFsfuY2_wC_pad-24" x="1364.43" y="1462.85"/><use xlink:href="#H7eB-VixWZxFsfuY2_wC_pad-24" x="1369.35" y="1418.56"/><use xlink:href="#H7eB-VixWZxFsfuY2_wC_pad-24" x="1413.64" y="1389.03"/><use xlink:href="#H7eB-VixWZxFsfuY2_wC_pad-24" x="1507.14" y="1398.87"/><use xlink:href="#H7eB-VixWZxFsfuY2_wC_pad-24" x="1561.28" y="1467.77"/><use xlink:href="#H7eB-VixWZxFsfuY2_wC_pad-24" x="1669.31" y="1531.51"/><use xlink:href="#H7eB-VixWZxFsfuY2_wC_pad-24" x="1684.31" y="1457.93"/><use xlink:href="#H7eB-VixWZxFsfuY2_wC_pad-24" x="1708.91" y="1344.74"/><use xlink:href="#H7eB-VixWZxFsfuY2_wC_pad-24" x="1654.78" y="1329.98"/><use xlink:href="#H7eB-VixWZxFsfuY2_wC_pad-24" x="1694.15" y="1256.16"/><use xlink:href="#H7eB-VixWZxFsfuY2_wC_pad-24" x="1723.68" y="1142.97"/><use xlink:href="#H7eB-VixWZxFsfuY2_wC_pad-24" x="1684.31" y="1123.28"/><use xlink:href="#H7eB-VixWZxFsfuY2_wC_pad-24" x="1673.38" y="1078.99"/><use xlink:href="#H7eB-VixWZxFsfuY2_wC_pad-24" x="1733.52" y="1069.15"/><use xlink:href="#H7eB-VixWZxFsfuY2_wC_pad-24" x="1660.79" y="951.04"/><use xlink:href="#H7eB-VixWZxFsfuY2_wC_pad-24" x="1604.48" y="906.75"/><use xlink:href="#H7eB-VixWZxFsfuY2_wC_pad-24" x="1526.83" y="906.75"/><use xlink:href="#H7eB-VixWZxFsfuY2_wC_pad-24" x="1512.06" y="882.14"/><use xlink:href="#H7eB-VixWZxFsfuY2_wC_pad-24" x="1531.75" y="864.32"/><use xlink:href="#H7eB-VixWZxFsfuY2_wC_pad-24" x="1557.47" y="823.09"/><use xlink:href="#H7eB-VixWZxFsfuY2_wC_pad-24" x="1487.46" y="764.03"/><use xlink:href="#H7eB-VixWZxFsfuY2_wC_pad-24" x="1438.24" y="764.03"/><use xlink:href="#H7eB-VixWZxFsfuY2_wC_pad-24" x="1389.03" y="764.03"/><use xlink:href="#H7eB-VixWZxFsfuY2_wC_pad-24" x="1389.03" y="714.82"/><use xlink:href="#H7eB-VixWZxFsfuY2_wC_pad-24" x="1389.03" y="665.61"/><use xlink:href="#H7eB-VixWZxFsfuY2_wC_pad-24" x="1438.24" y="665.61"/><use xlink:href="#H7eB-VixWZxFsfuY2_wC_pad-24" x="1487.46" y="665.61"/><use xlink:href="#H7eB-VixWZxFsfuY2_wC_pad-24" x="1487.46" y="714.82"/><use xlink:href="#H7eB-VixWZxFsfuY2_wC_pad-24" x="1438.24" y="714.82"/><use xlink:href="#H7eB-VixWZxFsfuY2_wC_pad-24" x="1576.04" y="591.1"/><use xlink:href="#H7eB-VixWZxFsfuY2_wC_pad-24" x="1546.51" y="581.94"/><use xlink:href="#H7eB-VixWZxFsfuY2_wC_pad-24" x="1541.59" y="537.65"/><use xlink:href="#H7eB-VixWZxFsfuY2_wC_pad-24" x="1487.46" y="557.34"/><use xlink:href="#H7eB-VixWZxFsfuY2_wC_pad-24" x="1486.22" y="498.28"/><use xlink:href="#H7eB-VixWZxFsfuY2_wC_pad-24" x="1571.12" y="463.83"/><use xlink:href="#H7eB-VixWZxFsfuY2_wC_pad-24" x="1649.59" y="507.39"/><use xlink:href="#H7eB-VixWZxFsfuY2_wC_pad-24" x="1673.58" y="425.35"/><use xlink:href="#H7eB-VixWZxFsfuY2_wC_pad-24" x="1733.52" y="404.7"/><use xlink:href="#H7eB-VixWZxFsfuY2_wC_pad-24" x="1767.97" y="399.86"/><use xlink:href="#H7eB-VixWZxFsfuY2_wC_pad-24" x="1797.5" y="399.86"/><use xlink:href="#H7eB-VixWZxFsfuY2_wC_pad-24" x="1758.13" y="340.8"/><use xlink:href="#H7eB-VixWZxFsfuY2_wC_pad-24" x="1708.91" y="311.28"/><use xlink:href="#H7eB-VixWZxFsfuY2_wC_pad-24" x="1846.71" y="321.12"/><use xlink:href="#H7eB-VixWZxFsfuY2_wC_pad-24" x="2023.87" y="330.96"/><use xlink:href="#H7eB-VixWZxFsfuY2_wC_pad-24" x="1930.37" y="493.36"/><use xlink:href="#H7eB-VixWZxFsfuY2_wC_pad-24" x="1866.39" y="493.36"/><use xlink:href="#H7eB-VixWZxFsfuY2_wC_pad-24" x="1812.26" y="473.68"/><use xlink:href="#H7eB-VixWZxFsfuY2_wC_pad-24" x="1777.81" y="493.36"/><use xlink:href="#H7eB-VixWZxFsfuY2_wC_pad-24" x="1748.28" y="468.76"/><use xlink:href="#H7eB-VixWZxFsfuY2_wC_pad-24" x="1659.7" y="607.67"/><use xlink:href="#H7eB-VixWZxFsfuY2_wC_pad-24" x="1703.99" y="636.08"/><use xlink:href="#H7eB-VixWZxFsfuY2_wC_pad-24" x="1708.91" y="660.69"/><use xlink:href="#H7eB-VixWZxFsfuY2_wC_pad-24" x="1679.39" y="660.69"/><use xlink:href="#H7eB-VixWZxFsfuY2_wC_pad-24" x="1649.86" y="660.69"/><use xlink:href="#H7eB-VixWZxFsfuY2_wC_pad-24" x="1620.33" y="660.69"/><use xlink:href="#H7eB-VixWZxFsfuY2_wC_pad-24" x="1610.49" y="739.43"/><use xlink:href="#H7eB-VixWZxFsfuY2_wC_pad-24" x="1664.62" y="798.48"/><use xlink:href="#H7eB-VixWZxFsfuY2_wC_pad-24" x="1694.15" y="768.95"/><use xlink:href="#H7eB-VixWZxFsfuY2_wC_pad-24" x="1708.91" y="739.43"/><use xlink:href="#H7eB-VixWZxFsfuY2_wC_pad-24" x="1679.39" y="739.43"/><use xlink:href="#H7eB-VixWZxFsfuY2_wC_pad-24" x="1738.44" y="739.43"/><use xlink:href="#H7eB-VixWZxFsfuY2_wC_pad-24" x="1767.97" y="739.43"/><use xlink:href="#H7eB-VixWZxFsfuY2_wC_pad-24" x="1738.44" y="773.87"/><use xlink:href="#H7eB-VixWZxFsfuY2_wC_pad-24" x="1782.73" y="798.48"/><use xlink:href="#H7eB-VixWZxFsfuY2_wC_pad-24" x="1822.1" y="739.43"/><use xlink:href="#H7eB-VixWZxFsfuY2_wC_pad-24" x="1827.02" y="709.9"/><use xlink:href="#H7eB-VixWZxFsfuY2_wC_pad-24" x="1827.02" y="680.37"/><use xlink:href="#H7eB-VixWZxFsfuY2_wC_pad-24" x="1827.02" y="650.84"/><use xlink:href="#H7eB-VixWZxFsfuY2_wC_pad-24" x="1738.44" y="660.69"/><use xlink:href="#H7eB-VixWZxFsfuY2_wC_pad-24" x="1369.35" y="517.97"/><use xlink:href="#H7eB-VixWZxFsfuY2_wC_pad-24" x="1351.63" y="562.26"/><use xlink:href="#H7eB-VixWZxFsfuY2_wC_pad-24" x="1315.21" y="557.34"/><use xlink:href="#H7eB-VixWZxFsfuY2_wC_pad-24" x="1256.16" y="591.79"/><use xlink:href="#H7eB-VixWZxFsfuY2_wC_pad-24" x="1246.31" y="675.45"/><use xlink:href="#H7eB-VixWZxFsfuY2_wC_pad-24" x="1147.01" y="548.38"/><use xlink:href="#H7eB-VixWZxFsfuY2_wC_pad-24" x="1182.34" y="508.13"/><use xlink:href="#H7eB-VixWZxFsfuY2_wC_pad-24" x="1157.73" y="488.44"/><use xlink:href="#H7eB-VixWZxFsfuY2_wC_pad-24" x="1152.81" y="449.07"/><use xlink:href="#H7eB-VixWZxFsfuY2_wC_pad-24" x="1211.87" y="449.07"/><use xlink:href="#H7eB-VixWZxFsfuY2_wC_pad-24" x="1270.92" y="449.07"/><use xlink:href="#H7eB-VixWZxFsfuY2_wC_pad-24" x="1329.98" y="449.07"/><use xlink:href="#H7eB-VixWZxFsfuY2_wC_pad-24" x="1162.65" y="350.65"/><use xlink:href="#H7eB-VixWZxFsfuY2_wC_pad-24" x="1162.65" y="296.51"/><use xlink:href="#H7eB-VixWZxFsfuY2_wC_pad-24" x="985.49" y="517.97"/><use xlink:href="#H7eB-VixWZxFsfuY2_wC_pad-24" x="1054.39" y="572.1"/><use xlink:href="#H7eB-VixWZxFsfuY2_wC_pad-24" x="877.22" y="340.8"/><use xlink:href="#H7eB-VixWZxFsfuY2_wC_pad-24" x="1285.69" y="847.69"/><use xlink:href="#H7eB-VixWZxFsfuY2_wC_pad-24" x="1330.37" y="862.85"/><use xlink:href="#H7eB-VixWZxFsfuY2_wC_pad-24" x="1361.27" y="867.38"/><use xlink:href="#H7eB-VixWZxFsfuY2_wC_pad-24" x="1379.19" y="906.75"/><use xlink:href="#H7eB-VixWZxFsfuY2_wC_pad-24" x="1495.61" y="985.49"/><use xlink:href="#H7eB-VixWZxFsfuY2_wC_pad-24" x="1487.46" y="1024.86"/><use xlink:href="#H7eB-VixWZxFsfuY2_wC_pad-24" x="1364.43" y="1118.36"/><use xlink:href="#H7eB-VixWZxFsfuY2_wC_pad-24" x="1413.64" y="1128.2"/><use xlink:href="#H7eB-VixWZxFsfuY2_wC_pad-24" x="1384.11" y="1182.34"/><use xlink:href="#H7eB-VixWZxFsfuY2_wC_pad-24" x="1379.19" y="1251.24"/><use xlink:href="#H7eB-VixWZxFsfuY2_wC_pad-24" x="1344.74" y="1310.29"/><use xlink:href="#H7eB-VixWZxFsfuY2_wC_pad-24" x="1295.53" y="1266"/><use xlink:href="#H7eB-VixWZxFsfuY2_wC_pad-24" x="1221.71" y="1256.16"/><use xlink:href="#H7eB-VixWZxFsfuY2_wC_pad-24" x="1172.12" y="1329.6"/><use xlink:href="#H7eB-VixWZxFsfuY2_wC_pad-24" x="1256.16" y="1389.03"/><use xlink:href="#H7eB-VixWZxFsfuY2_wC_pad-24" x="1197.1" y="1462.85"/><use xlink:href="#H7eB-VixWZxFsfuY2_wC_pad-24" x="1325.06" y="1571.12"/><use xlink:href="#H7eB-VixWZxFsfuY2_wC_pad-24" x="1295.53" y="1654.78"/><use xlink:href="#H7eB-VixWZxFsfuY2_wC_pad-24" x="1241.39" y="1684.31"/><use xlink:href="#H7eB-VixWZxFsfuY2_wC_pad-24" x="1256.16" y="1758.13"/><use xlink:href="#H7eB-VixWZxFsfuY2_wC_pad-24" x="1295.53" y="1758.13"/><use xlink:href="#H7eB-VixWZxFsfuY2_wC_pad-24" x="1216.79" y="1758.13"/><use xlink:href="#H7eB-VixWZxFsfuY2_wC_pad-24" x="1177.42" y="1758.13"/><use xlink:href="#H7eB-VixWZxFsfuY2_wC_pad-24" x="1231.55" y="1595.72"/><use xlink:href="#H7eB-VixWZxFsfuY2_wC_pad-24" x="1502.22" y="1763.05"/><use xlink:href="#H7eB-VixWZxFsfuY2_wC_pad-24" x="1531.75" y="1812.26"/><use xlink:href="#H7eB-VixWZxFsfuY2_wC_pad-24" x="1521.91" y="1846.71"/><use xlink:href="#H7eB-VixWZxFsfuY2_wC_pad-24" x="1497.3" y="1886.08"/><use xlink:href="#H7eB-VixWZxFsfuY2_wC_pad-24" x="1556.35" y="1881.16"/><use xlink:href="#H7eB-VixWZxFsfuY2_wC_pad-24" x="1566.2" y="1959.9"/><use xlink:href="#H7eB-VixWZxFsfuY2_wC_pad-24" x="1576.04" y="2092.77"/><use xlink:href="#H7eB-VixWZxFsfuY2_wC_pad-24" x="1462.85" y="2171.51"/><use xlink:href="#H7eB-VixWZxFsfuY2_wC_pad-24" x="1448.09" y="2082.93"/><use xlink:href="#H7eB-VixWZxFsfuY2_wC_pad-24" x="1325.06" y="2186.28"/><use xlink:href="#H7eB-VixWZxFsfuY2_wC_pad-24" x="1339.82" y="2304.39"/><use xlink:href="#H7eB-VixWZxFsfuY2_wC_pad-24" x="1339.82" y="2333.91"/><use xlink:href="#H7eB-VixWZxFsfuY2_wC_pad-24" x="1339.82" y="2363.44"/><use xlink:href="#H7eB-VixWZxFsfuY2_wC_pad-24" x="1192.18" y="2363.44"/><use xlink:href="#H7eB-VixWZxFsfuY2_wC_pad-24" x="1192.18" y="2333.91"/><use xlink:href="#H7eB-VixWZxFsfuY2_wC_pad-24" x="1192.18" y="2304.39"/><use xlink:href="#H7eB-VixWZxFsfuY2_wC_pad-24" x="872.3" y="2314.23"/><use xlink:href="#H7eB-VixWZxFsfuY2_wC_pad-24" x="719.74" y="2294.54"/><use xlink:href="#H7eB-VixWZxFsfuY2_wC_pad-24" x="857.54" y="2166.59"/><use xlink:href="#H7eB-VixWZxFsfuY2_wC_pad-24" x="1516.98" y="2284.7"/><use xlink:href="#H7eB-VixWZxFsfuY2_wC_pad-24" x="1945.13" y="2260.09"/><use xlink:href="#H7eB-VixWZxFsfuY2_wC_pad-24" x="1989.43" y="2328.99"/><use xlink:href="#H7eB-VixWZxFsfuY2_wC_pad-24" x="2048.48" y="2210.88"/><use xlink:href="#H7eB-VixWZxFsfuY2_wC_pad-24" x="2186.28" y="2304.39"/><use xlink:href="#H7eB-VixWZxFsfuY2_wC_pad-24" x="1846.71" y="1792.57"/><use xlink:href="#H7eB-VixWZxFsfuY2_wC_pad-24" x="1777.81" y="1753.2"/><use xlink:href="#H7eB-VixWZxFsfuY2_wC_pad-24" x="1718.76" y="1792.57"/><use xlink:href="#H7eB-VixWZxFsfuY2_wC_pad-24" x="1822.1" y="1684.31"/><use xlink:href="#H7eB-VixWZxFsfuY2_wC_pad-24" x="1744.35" y="1620.33"/><use xlink:href="#H7eB-VixWZxFsfuY2_wC_pad-24" x="1546.51" y="1684.31"/><use xlink:href="#H7eB-VixWZxFsfuY2_wC_pad-24" x="1546.51" y="1708.91"/><use xlink:href="#H7eB-VixWZxFsfuY2_wC_pad-24" x="1516.98" y="1299.46"/><use xlink:href="#H7eB-VixWZxFsfuY2_wC_pad-24" x="1482.54" y="1275.84"/><use xlink:href="#H7eB-VixWZxFsfuY2_wC_pad-24" x="1576.04" y="1266"/><use xlink:href="#H7eB-VixWZxFsfuY2_wC_pad-24" x="1561.28" y="1216.79"/><use xlink:href="#H7eB-VixWZxFsfuY2_wC_pad-24" x="1585.88" y="1149.86"/><use xlink:href="#H7eB-VixWZxFsfuY2_wC_pad-24" x="1329.98" y="1034.7"/><use xlink:href="#H7eB-VixWZxFsfuY2_wC_pad-24" x="1261.08" y="1019.94"/><use xlink:href="#H7eB-VixWZxFsfuY2_wC_pad-24" x="1138.05" y="1059.31"/><use xlink:href="#H7eB-VixWZxFsfuY2_wC_pad-24" x="1280.76" y="1133.13"/><use xlink:href="#H7eB-VixWZxFsfuY2_wC_pad-24" x="1305.37" y="1182.34"/><path d="M 1347.43 1219.59 1357.38 1209.63 1396.75 1209.63 1406.6 1199.79 1547.66 1199.79 1552.31 1195.14 1570.24 1195.14 1582.92 1207.82 1582.92 1225.75 1570.24 1238.43 1552.31 1238.43 1547.66 1233.79 1430.64 1233.79 1430.64 1375.42 1435.28 1380.07 1435.28 1398 1422.6 1410.68 1404.67 1410.68 1391.99 1398 1391.99 1380.43 1380.08 1380.43 1380.08 1351.54 1378.3 1351.54 1378.3 1380.43 1362.74 1380.43 1362.74 1435.71 1368.24 1441.2 1373.39 1441.2 1386.07 1453.88 1386.07 1471.82 1373.39 1484.5 1355.46 1484.5 1342.78 1471.82 1342.78 1466.66 1337.28 1461.17 1326.74 1450.62 1326.74 1322.9 1326.69 1322.85 1322.37 1327.18 1322.37 1381.31 1312.41 1391.27 1297.65 1406.03 1269.77 1406.03 1265.12 1410.68 1247.19 1410.68 1234.51 1398 1234.51 1380.43 1222.6 1380.43 1222.6 1351.54 1220.82 1351.54 1220.82 1380.43 1201.89 1380.43 1197.82 1379.33 1194.17 1377.23 1191.19 1374.25 1190.5 1373.05 1190.5 1430.79 1200.91 1441.2 1206.07 1441.2 1218.75 1453.88 1218.75 1471.82 1206.07 1484.5 1188.14 1484.5 1175.46 1471.82 1175.46 1466.66 1168.81 1460.01 1168.81 1718.76 1444.93 1718.76 1444.93 1693.69 1479.38 1659.24 1479.38 1526.36 1486.99 1518.75 1517.45 1518.75 1525.06 1526.36 1525.06 1679.85 1517.45 1687.46 1490.61 1714.3 1490.61 1718.76 1551.24 1718.76 1551.24 1686.23 1558.08 1679.39 1551.24 1672.55 1551.24 1635.05 1558.27 1628.02 1584.11 1628.02 1589.64 1622.49 1558.27 1622.49 1551.24 1615.46 1551.24 1615.33 1547.28 1611.37 1547.28 1575.16 1551.87 1570.56 1550.44 1569.13 1548.33 1565.48 1547.24 1561.41 1547.24 1546.42 1580.07 1546.42 1580.07 1544.64 1547.24 1544.64 1547.24 1529.64 1548.33 1525.57 1550.44 1521.92 1553.42 1518.94 1557.07 1516.84 1561.14 1515.75 1580.07 1515.75 1580.07 1544.64 1581.85 1544.64 1581.85 1515.75 1594.02 1515.75 1599.41 1510.36 1599.41 1326.76 1589.1 1316.45 1530.61 1316.45 1525.95 1321.11 1508.02 1321.11 1495.34 1308.43 1495.34 1290.5 1508.02 1277.82 1525.95 1277.82 1532.58 1284.45 1602.35 1284.45 1611.72 1293.82 1611.72 1293.82 1622.04 1304.13 1631.41 1313.51 1631.41 1510.36 1636.56 1515.51 1654.7 1515.51 1660.34 1509.87 1678.27 1509.87 1690.95 1522.55 1690.95 1540.48 1678.27 1553.16 1660.34 1553.16 1654.7 1547.51 1624.68 1547.51 1624.68 1571.88 1660.58 1571.88 1668.78 1580.08 1668.78 1593.5 1724.4 1593.5 1732.48 1601.59 1735.38 1598.69 1753.31 1598.69 1765.99 1611.36 1765.99 1629.3 1753.31 1641.98 1735.38 1641.98 1729.73 1636.33 1721.97 1636.33 1712.6 1626.96 1711.14 1625.5 1655.69 1625.5 1655.56 1625.64 1642.19 1625.64 1640.02 1623.46 1637.84 1625.64 1631.75 1625.64 1629.37 1628.02 1662.7 1628.02 1669.73 1635.05 1669.73 1672.55 1662.89 1679.39 1669.73 1686.23 1669.73 1723.73 1667.76 1725.69 1667.76 1764.08 1660.73 1771.11 1627.17 1771.11 1620.39 1764.33 1599.6 1785.11 1561.28 1785.11 1561.28 1822.1 1922.03 1822.1 1909.97 1801.17 1853.42 1673.91 1853.42 1673.91 1810.42 1541.45 1781.44 1405.24 1767.48 1273.16 1760.97 1273.16 1760.7 1273.41 1753.98 1273.16 1747.26 1273.16 1747 1272.89 1746.63 1272.88 1742.06 1267.95 1737.3 1263.2 1737.3 1262.83 1737.05 1262.55 1737.3 1255.84 1737.3 1249.12 1737.57 1248.85 1739.62 1194.42 1588.68 1194.42 1578.72 1184.46 1568.88 1174.62 1568.88 1163.47 1564.24 1158.82 1564.24 1140.89 1576.92 1128.21 1594.85 1128.21 1607.53 1140.89 1607.53 1158.82 1605.93 1160.42 1710.51 1160.42 1702.03 1151.93 1702.03 1134 1708.68 1127.36 1708.68 1124.58 1701.86 1117.76 1553.3 1117.76 1544.55 1109 1541.73 1109.76 1522.8 1109.76 1522.8 1080.87 1521.02 1080.87 1521.02 1109.76 1502.08 1109.76 1498.01 1108.67 1494.36 1106.56 1491.39 1103.58 1489.28 1099.93 1488.19 1095.86 1488.19 1080.87 1521.01 1080.87 1521.01 1079.09 1488.19 1079.09 1488.19 1066.57 1481.59 1066.57 1472.8 1057.79 1472.8 1057.79 1462.6 1047.58 1462.6 1047.58 1453.81 1038.79 1453.81 1010.92 1473.96 990.77 1473.96 976.52 1486.64 963.84 1504.57 963.84 1517.25 976.52 1517.25 994.45 1508.69 1003.02 1544.59 1003.02 1549.1 1007.52 1550.44 1005.19 1553.42 1002.21 1557.07 1000.11 1561.14 999.02 1580.07 999.02 1580.07 1027.9 1581.85 1027.9 1581.85 999.02 1600.78 999.02 1604.85 1000.11 1608.5 1002.21 1611.48 1005.19 1612.82 1007.52 1617.33 1003.02 1662.7 1003.02 1669.73 1010.05 1669.73 1047.55 1662.89 1054.39 1665.85 1057.35 1682.34 1057.35 1695.02 1070.03 1695.02 1087.76 1714.28 1087.76 1723.07 1096.54 1723.07 1096.54 1729.89 1103.36 1738.68 1112.15 1738.68 1127.36 1742.79 1131.47 1753.36 1036.07 1752.96 1035.48 1754.13 1029.16 1754.83 1022.78 1755.39 1022.33 1773.6 924.02 1773.24 923.41 1774.86 917.19 1776.03 910.88 1776.62 910.47 1801.92 813.75 1801.61 813.11 1803.68 807.03 1805.31 800.81 1805.92 800.45 1838.18 705.82 1837.92 705.16 1840.43 699.25 1842.5 693.17 1843.14 692.85 1883.31 598.17 1883.31 594.59 1885.95 591.95 1887.41 588.51 1888.42 588.1 1888.42 480.37 1800.3 392.25 1770.01 392.25 1755.17 407.1 1755.17 413.67 1742.49 426.35 1724.55 426.35 1721.15 422.94 1721.15 573.44 1690.57 604.02 1681.35 604.02 1681.35 616.64 1668.67 629.31 1650.73 629.31 1648.16 626.74 1565.83 709.08 1565.83 801.44 1566.44 801.44 1579.12 814.12 1579.12 832.05 1566.44 844.73 1559.74 844.73 1565.39 850.39 1565.39 878.26 1556.61 887.05 1556.61 887.05 1554.47 889.18 1547.17 896.48 1548.47 897.78 1548.47 915.71 1535.79 928.39 1517.86 928.39 1511.22 921.75 1394.8 921.75 1388.15 928.39 1370.22 928.39 1357.54 915.71 1357.54 911.24 1330.8 884.49 1321.4 884.49 1314.36 877.46 1294.24 877.46 1286.12 869.34 1276.72 869.34 1264.04 856.66 1264.04 838.73 1268.6 834.17 1266.89 834.17 1266.89 805.28 1265.11 805.28 1265.11 834.17 1246.18 834.17 1242.11 833.07 1238.46 830.97 1235.48 827.99 1234.91 827.01 1223.48 831.74 1210.88 831.74 1199.23 826.92 1192.18 819.86 1185.13 826.92 1173.48 831.74 1160.88 831.74 1149.23 826.92 1140.32 818 1139.28 815.5 1139.28 826.3 1174.2 861.22 1183.57 870.59 1183.57 1310.44 1193.76 1320.63 1193.76 1324.47 1194.17 1324.06 1196.5 1322.72 1191.99 1318.21 1191.99 1280.71 1199.02 1273.69 1204.71 1273.69 1204.71 1269.77 1200.06 1265.12 1200.06 1247.19 1212.74 1234.51 1230.67 1234.51 1243.35 1247.19 1243.35 1265.12 1238.71 1269.77 1238.71 1273.69 1244.4 1273.69 1251.43 1280.71 1251.43 1318.21 1246.92 1322.72 1249.25 1324.06 1252.23 1327.04 1254.33 1330.69 1255.43 1334.76 1255.43 1349.76 1222.6 1349.76 1222.6 1351.54 1255.43 1351.54 1255.43 1366.53 1255.2 1367.39 1265.12 1367.39 1269.77 1372.03 1283.56 1372.03 1288.37 1367.23 1288.37 1313.09 1337.58 1263.88 1337.58 1229.43 1347.43 1219.59 M 1348.28 1218.73 1183.57 1218.73 M 1183.57 1230.71 1337.58 1230.71 M 1337.58 1242.7 1238.86 1242.7 M 1243.35 1254.68 1337.58 1254.68 M 1334.79 1266.67 1241.81 1266.67 M 1249.37 1278.66 1322.81 1278.66 M 1310.82 1290.64 1251.43 1290.64 M 1251.43 1302.63 1298.84 1302.63 M 1288.37 1314.61 1251.43 1314.61 M 1251.78 1326.6 1288.37 1326.6 M 1288.37 1338.58 1255.43 1338.58 M 1255.43 1362.55 1288.37 1362.55 M 1288.37 1350.57 1222.6 1350.57 M 1222.6 1362.55 1220.82 1362.55 M 1220.82 1374.54 1222.6 1374.54 M 1234.51 1386.52 1190.5 1386.52 M 1190.5 1374.54 1191.48 1374.54 M 1190.5 1398.51 1235.02 1398.51 M 1247.01 1410.49 1190.5 1410.49 M 1190.5 1422.48 1326.74 1422.48 M 1326.74 1434.46 1194.17 1434.46 M 1211.31 1446.45 1326.74 1446.45 M 1334.55 1458.43 1218.75 1458.43 M 1218.75 1470.42 1342.78 1470.42 M 1353.37 1482.4 1208.16 1482.4 M 1186.04 1482.4 1168.81 1482.4 M 1168.81 1470.42 1175.46 1470.42 M 1197.1 1462.85 1172.5 1438.24 1172.5 1329.98 1172.12 1329.6 M 1187.74 1314.61 1191.99 1314.61 M 1191.99 1302.63 1183.57 1302.63 M 1183.57 1290.64 1191.99 1290.64 M 1194.05 1278.66 1183.57 1278.66 M 1183.57 1266.67 1201.61 1266.67 M 1200.06 1254.68 1183.57 1254.68 M 1183.57 1242.7 1204.55 1242.7 M 1183.57 1206.74 1399.64 1206.74 M 1430.64 1242.7 1737.8 1242.7 M 1738.25 1230.71 1577.96 1230.71 M 1582.92 1218.73 1738.7 1218.73 M 1739.15 1206.74 1581.84 1206.74 M 1578.72 1184.46 1578.72 1184.46 M 1577.04 1182.77 1183.57 1182.77 M 1183.57 1170.79 1568.88 1170.79 M 1564.24 1158.8 1183.57 1158.8 M 1183.57 1146.82 1564.24 1146.82 M 1570.29 1134.83 1183.57 1134.83 M 1183.57 1122.85 1706.95 1122.85 M 1702.03 1134.83 1601.47 1134.83 M 1607.53 1146.82 1702.03 1146.82 M 1708.9 1158.8 1607.53 1158.8 M 1546.41 1110.86 1183.57 1110.86 M 1183.57 1098.88 1489 1098.88 M 1488.19 1086.89 1183.57 1086.89 M 1183.57 1074.91 1488.19 1074.91 M 1477.94 1062.92 1183.57 1062.92 M 1183.57 1050.94 1465.95 1050.94 M 1453.97 1038.95 1183.57 1038.95 M 1183.57 1026.97 1453.81 1026.97 M 1453.81 1014.98 1183.57 1014.98 M 1183.57 1003 1461.74 1003 M 1473.72 991.01 1183.57 991.01 M 1183.57 979.03 1473.96 979.03 M 1483.44 967.04 1183.57 967.04 M 1183.57 955.06 1571.85 955.06 M 1571.85 956.05 1571.85 941.06 1572.94 936.99 1575.05 933.34 1578.03 930.36 1580.35 929.02 1575.85 924.51 1575.85 887.01 1582.88 879.98 1628.25 879.98 1632.76 884.49 1634.1 882.16 1637.08 879.18 1640.73 877.07 1644.8 875.98 1663.73 875.98 1663.73 904.87 1665.51 904.87 1665.51 875.98 1684.45 875.98 1688.51 877.07 1692.16 879.18 1695.14 882.16 1697.25 885.81 1698.34 889.88 1698.34 904.87 1665.51 904.87 1665.51 906.65 1698.34 906.65 1698.34 921.65 1697.25 925.72 1695.14 929.37 1692.16 932.35 1689.83 933.69 1694.34 938.19 1694.34 975.69 1687.31 982.72 1641.93 982.72 1637.43 978.22 1636.09 980.55 1633.11 983.53 1629.46 985.63 1625.39 986.72 1606.46 986.72 1606.46 957.84 1604.68 957.84 1604.68 986.72 1585.74 986.72 1581.67 985.63 1578.03 983.53 1575.05 980.55 1572.94 976.9 1571.85 972.83 1571.85 957.83 1604.68 957.83 1604.68 956.05 1571.85 956.05 M 1571.85 967.04 1507.77 967.04 M 1517.25 979.03 1574.17 979.03 M 1580.07 1003 1581.85 1003 M 1581.85 1014.98 1580.07 1014.98 M 1580.07 1026.97 1581.85 1026.97 M 1609.29 1003 1758.97 1003 M 1756.75 1014.98 1669.73 1014.98 M 1669.73 1026.97 1754.37 1026.97 M 1753.04 1038.95 1669.73 1038.95 M 1666.34 1050.94 1751.71 1050.94 M 1750.38 1062.92 1687.92 1062.92 M 1695.02 1074.91 1749.06 1074.91 M 1747.73 1086.89 1695.02 1086.89 M 1725.41 1098.88 1746.4 1098.88 M 1745.07 1110.86 1737.39 1110.86 M 1738.68 1122.85 1743.74 1122.85 M 1739.6 1194.76 1183.57 1194.76 M 1322.95 1326.6 1326.74 1326.6 M 1326.74 1338.58 1322.37 1338.58 M 1322.37 1350.57 1326.74 1350.57 M 1326.74 1362.55 1322.37 1362.55 M 1322.37 1374.54 1326.74 1374.54 M 1326.74 1386.52 1317.16 1386.52 M 1326.74 1398.51 1305.17 1398.51 M 1326.74 1410.49 1265.31 1410.49 M 1344.74 1443.17 1344.74 1310.29 M 1378.3 1362.55 1380.08 1362.55 M 1380.08 1374.54 1378.3 1374.54 M 1391.99 1386.52 1362.74 1386.52 M 1362.74 1398.51 1392.5 1398.51 M 1404.49 1410.49 1362.74 1410.49 M 1362.74 1422.48 1599.41 1422.48 M 1599.41 1434.46 1362.74 1434.46 M 1378.63 1446.45 1599.41 1446.45 M 1599.41 1458.43 1386.07 1458.43 M 1386.07 1470.42 1599.41 1470.42 M 1599.41 1482.4 1375.49 1482.4 M 1364.43 1462.85 1344.74 1443.17 M 1422.79 1410.49 1599.41 1410.49 M 1599.41 1398.51 1434.77 1398.51 M 1435.28 1386.52 1599.41 1386.52 M 1599.41 1374.54 1430.64 1374.54 M 1430.64 1362.55 1599.41 1362.55 M 1599.41 1350.57 1430.64 1350.57 M 1430.64 1338.58 1599.41 1338.58 M 1599.24 1326.6 1430.64 1326.6 M 1430.64 1314.61 1501.52 1314.61 M 1495.34 1302.63 1430.64 1302.63 M 1430.64 1290.64 1495.34 1290.64 M 1507.18 1278.66 1430.64 1278.66 M 1430.64 1266.67 1740.77 1266.67 M 1737.3 1254.68 1430.64 1254.68 M 1526.79 1278.66 1768.06 1278.66 M 1769.33 1290.64 1608.54 1290.64 M 1620.53 1302.63 1770.6 1302.63 M 1771.86 1314.61 1631.41 1314.61 M 1631.41 1326.6 1773.13 1326.6 M 1774.4 1338.58 1631.41 1338.58 M 1631.41 1350.57 1775.66 1350.57 M 1776.93 1362.55 1631.41 1362.55 M 1631.41 1374.54 1778.2 1374.54 M 1779.46 1386.52 1631.41 1386.52 M 1631.41 1398.51 1780.73 1398.51 M 1781.44 1405.24 1781.44 1405.24 M 1782.56 1410.49 1631.41 1410.49 M 1631.41 1422.48 1785.11 1422.48 M 1787.66 1434.46 1631.41 1434.46 M 1631.41 1446.45 1790.21 1446.45 M 1792.76 1458.43 1631.41 1458.43 M 1631.41 1470.42 1795.31 1470.42 M 1797.86 1482.4 1631.41 1482.4 M 1631.41 1494.39 1800.41 1494.39 M 1802.96 1506.37 1631.41 1506.37 M 1599.41 1506.37 1168.81 1506.37 M 1168.81 1494.39 1599.41 1494.39 M 1581.85 1518.36 1580.07 1518.36 M 1580.07 1530.34 1581.85 1530.34 M 1581.85 1542.33 1580.07 1542.33 M 1547.24 1542.33 1525.06 1542.33 M 1525.06 1554.31 1547.24 1554.31 M 1548.8 1566.3 1525.06 1566.3 M 1525.06 1578.28 1547.28 1578.28 M 1547.28 1590.27 1525.06 1590.27 M 1525.06 1602.25 1547.28 1602.25 M 1550.15 1614.24 1525.06 1614.24 M 1525.06 1626.22 1585.91 1626.22 M 1631.16 1626.22 1711.86 1626.22 M 1731.61 1638.21 1669.73 1638.21 M 1669.73 1650.19 1845.72 1650.19 M 1841.83 1638.21 1757.08 1638.21 M 1765.99 1626.22 1837.94 1626.22 M 1834.05 1614.24 1765.99 1614.24 M 1756.88 1602.25 1830.16 1602.25 M 1826.27 1590.27 1668.78 1590.27 M 1666.98 1578.28 1822.38 1578.28 M 1818.48 1566.3 1624.68 1566.3 M 1624.68 1554.31 1814.59 1554.31 M 1810.7 1542.33 1689.1 1542.33 M 1690.95 1530.34 1808.06 1530.34 M 1810.42 1541.45 1810.42 1541.45 M 1805.51 1518.36 1686.76 1518.36 M 1554.44 1518.36 1168.81 1518.36 M 1168.81 1530.34 1479.38 1530.34 M 1479.38 1542.33 1168.81 1542.33 M 1168.81 1554.31 1479.38 1554.31 M 1479.38 1566.3 1168.81 1566.3 M 1168.81 1578.28 1479.38 1578.28 M 1479.38 1590.27 1168.81 1590.27 M 1168.81 1602.25 1479.38 1602.25 M 1479.38 1614.24 1168.81 1614.24 M 1168.81 1626.22 1479.38 1626.22 M 1479.38 1638.21 1168.81 1638.21 M 1168.81 1650.19 1479.38 1650.19 M 1476.44 1662.18 1168.81 1662.18 M 1168.81 1674.16 1464.45 1674.16 M 1452.47 1686.15 1168.81 1686.15 M 1168.81 1698.13 1444.93 1698.13 M 1444.93 1710.12 1168.81 1710.12 M 1049.23 1743.36 1021.73 1743.36 996.04 1801.17 926.54 1921.85 844.86 2034.64 751.88 2138.31 648.61 2231.74 648.61 2231.74 536.17 2313.91 419.3 2381.89 2486.72 2381.89 2369.84 2313.91 2257.41 2231.74 2257.41 2231.74 2154.14 2138.31 2061.16 2034.64 2061.16 2034.64 1979.47 1921.85 1979.47 1921.85 1936.2 1846.71 1536.67 1846.71 1536.67 1793.81 1521.87 1793.81 1516.99 1798.69 1399.11 1798.69 1399.11 1823.39 1390.32 1832.18 1380.43 1832.18 1380.43 1848.58 1340.9 1848.58 1340.9 1860.58 1380.43 1860.58 1380.43 1882.28 1379.33 1886.35 1377.23 1890 1374.25 1892.98 1370.6 1895.08 1366.53 1896.17 1340.9 1896.17 1340.9 1860.58 1328.9 1860.58 1328.9 1848.58 1289.37 1848.58 1262.16 1848.58 1262.16 1860.58 1328.9 1860.58 1328.9 1896.17 1303.26 1896.17 1299.19 1895.08 1295.55 1892.98 1295.53 1892.96 1295.51 1892.98 1291.86 1895.08 1287.79 1896.17 1262.16 1896.17 1262.16 1860.58 1250.16 1860.58 1250.16 1848.58 1222.94 1848.58 1183.42 1848.58 1183.42 1860.58 1250.16 1860.58 1250.16 1896.17 1224.52 1896.17 1220.45 1895.08 1216.81 1892.98 1216.79 1892.96 1216.77 1892.98 1213.12 1895.08 1209.05 1896.17 1183.42 1896.17 1183.42 1860.58 1171.42 1860.58 1171.42 1848.58 1104.68 1848.58 1104.68 1860.58 1131.89 1860.58 1171.42 1860.58 1171.42 1896.17 1145.78 1896.17 1141.71 1895.08 1138.07 1892.98 1138.05 1892.96 1138.03 1892.98 1134.38 1895.08 1130.31 1896.17 1104.68 1896.17 1104.68 1860.58 1092.68 1860.58 1092.68 1896.17 1067.04 1896.17 1062.97 1895.08 1059.33 1892.98 1056.35 1890 1054.24 1886.35 1053.15 1882.28 1053.15 1860.58 1092.68 1860.58 1092.68 1848.58 1053.15 1848.58 1053.15 1827.32 1049.23 1823.39 1049.23 1743.36 M 1049.23 1746.07 1020.53 1746.07 M 1015.2 1758.06 1049.23 1758.06 M 1049.23 1770.04 1009.87 1770.04 M 1004.55 1782.03 1049.23 1782.03 M 1049.23 1794.01 999.22 1794.01 M 996.04 1801.17 996.04 1801.17 M 993.26 1806 1049.23 1806 M 1049.23 1817.99 986.36 1817.99 M 979.45 1829.97 1053.15 1829.97 M 1053.15 1841.96 972.55 1841.96 M 965.65 1853.94 1092.68 1853.94 M 1092.68 1865.93 1104.68 1865.93 M 1104.68 1877.91 1092.68 1877.91 M 1092.68 1889.9 1104.68 1889.9 M 1104.68 1853.94 1171.42 1853.94 M 1171.42 1865.93 1183.42 1865.93 M 1183.42 1877.91 1171.42 1877.91 M 1171.42 1889.9 1183.42 1889.9 M 1183.42 1853.94 1250.16 1853.94 M 1250.16 1865.93 1262.16 1865.93 M 1262.16 1877.91 1250.16 1877.91 M 1250.16 1889.9 1262.16 1889.9 M 1262.16 1853.94 1328.9 1853.94 M 1328.9 1865.93 1340.9 1865.93 M 1340.9 1877.91 1328.9 1877.91 M 1328.9 1889.9 1340.9 1889.9 M 1340.9 1853.94 1940.37 1853.94 M 1947.27 1865.93 1380.43 1865.93 M 1380.43 1877.91 1954.17 1877.91 M 1961.07 1889.9 1944.79 1889.9 M 1954.73 1893.67 1954.73 1893.67 1975.49 1917.1 1982.98 1947.5 1975.49 1977.89 1954.73 2001.33 1925.46 2012.43 1925.46 2012.43 1894.38 2008.65 1868.62 1990.87 1868.62 1990.87 1854.07 1963.15 1854.07 1931.84 1868.62 1904.12 1894.38 1886.34 1925.46 1882.56 1954.73 1893.67 1954.73 1893.67 M 1962.01 1901.88 1967.97 1901.88 M 1972.63 1913.87 1974.88 1913.87 M 1975.49 1917.1 1975.49 1917.1 M 1977.65 1925.85 1982.37 1925.85 M 1980.6 1937.84 1991.05 1937.84 M 1982.41 1949.82 1999.73 1949.82 M 2008.41 1961.81 1979.46 1961.81 M 1976.5 1973.79 2017.09 1973.79 M 2025.77 1985.78 1968.51 1985.78 M 1975.49 1977.89 1975.49 1977.89 M 1957.89 1997.76 2034.45 1997.76 M 2043.13 2009.75 1932.53 2009.75 M 1954.73 2001.33 1954.73 2001.33 M 1903.37 2009.75 1003.4 2009.75 M 996.33 2012.43 965.25 2008.65 939.48 1990.87 924.93 1963.15 924.93 1931.84 939.48 1904.12 965.25 1886.34 996.33 1882.56 1025.6 1893.67 1046.36 1917.1 1053.85 1947.5 1046.36 1977.89 1046.36 1977.89 1025.6 2001.33 996.33 2012.43 M 974.24 2009.75 862.89 2009.75 M 854.21 2021.73 2051.81 2021.73 M 2060.49 2033.72 845.53 2033.72 M 844.86 2034.64 844.86 2034.64 M 834.94 2045.7 2071.08 2045.7 M 2081.83 2057.69 824.19 2057.69 M 813.44 2069.67 2092.58 2069.67 M 2103.33 2081.66 802.69 2081.66 M 791.94 2093.64 2114.08 2093.64 M 2124.83 2105.63 781.19 2105.63 M 770.44 2117.61 2135.57 2117.61 M 2146.32 2129.6 759.69 2129.6 M 751.88 2138.31 751.88 2138.31 M 748.26 2141.58 2157.75 2141.58 M 2154.14 2138.31 2154.14 2138.31 2154.14 2138.31 M 2171 2153.57 735.01 2153.57 M 721.77 2165.55 2184.25 2165.55 M 2197.5 2177.54 708.52 2177.54 M 695.27 2189.52 2210.74 2189.52 M 2223.99 2201.51 682.02 2201.51 M 668.78 2213.49 2237.24 2213.49 M 2250.49 2225.48 655.53 2225.48 M 640.78 2237.46 2265.24 2237.46 M 2281.64 2249.45 624.38 2249.45 M 607.98 2261.43 2298.04 2261.43 M 2314.44 2273.42 591.58 2273.42 M 575.18 2285.4 2330.84 2285.4 M 2347.24 2297.39 558.78 2297.39 M 542.38 2309.37 2363.64 2309.37 M 2369.84 2313.91 2369.84 2313.91 M 2382.65 2321.36 523.37 2321.36 M 536.17 2313.91 536.17 2313.91 M 502.76 2333.34 2403.26 2333.34 M 2423.86 2345.33 482.15 2345.33 M 461.55 2357.32 2444.47 2357.32 M 2465.07 2369.3 440.94 2369.3 M 420.34 2381.29 2485.68 2381.29 M 1925.46 1882.56 1925.46 1882.56 M 1894.38 1886.34 1894.38 1886.34 M 1889.22 1889.9 1377.29 1889.9 M 1380.43 1841.96 1536.67 1841.96 M 1536.67 1829.97 1392.53 1829.97 M 1399.11 1817.99 1536.67 1817.99 M 1536.67 1806 1399.11 1806 M 1521.66 1794.01 1536.67 1794.01 M 1561.28 1794.01 1906.8 1794.01 M 1909.97 1801.17 1909.97 1801.17 M 1912.76 1806 1561.28 1806 M 1561.28 1817.99 1919.66 1817.99 M 1901.47 1782.03 1602.68 1782.03 M 1614.67 1770.04 1626.11 1770.04 M 1661.8 1770.04 1896.14 1770.04 M 1890.82 1758.06 1667.76 1758.06 M 1667.76 1746.07 1885.49 1746.07 M 1880.16 1734.09 1667.76 1734.09 M 1669.73 1722.1 1874.84 1722.1 M 1869.51 1710.12 1669.73 1710.12 M 1669.73 1698.13 1864.18 1698.13 M 1858.86 1686.15 1669.65 1686.15 M 1668.11 1674.16 1853.53 1674.16 M 1849.61 1662.18 1669.73 1662.18 M 1552.86 1674.16 1525.06 1674.16 M 1525.06 1662.18 1551.24 1662.18 M 1551.24 1650.19 1525.06 1650.19 M 1525.06 1638.21 1551.24 1638.21 M 1551.32 1686.15 1518.76 1686.15 M 1506.78 1698.13 1551.24 1698.13 M 1551.24 1710.12 1494.79 1710.12 M 1525.06 1530.34 1547.24 1530.34 M 1622.04 1304.13 1622.04 1304.13 M 1522.8 1098.88 1521.02 1098.88 M 1521.02 1086.89 1522.8 1086.89 M 1508.71 1003 1552.63 1003 M 1604.68 979.03 1606.46 979.03 M 1606.46 967.04 1604.68 967.04 M 1636.96 979.03 1638.24 979.03 M 1691.01 979.03 1763.41 979.03 M 1761.19 991.01 1517.25 991.01 M 1571.85 943.07 1183.57 943.07 M 1183.57 931.09 1577.3 931.09 M 1575.85 919.1 1545.08 919.1 M 1548.47 907.12 1575.85 907.12 M 1575.85 895.13 1548.52 895.13 M 1560.51 883.15 1579.72 883.15 M 1565.39 871.16 1786.9 871.16 M 1790.04 859.18 1565.39 859.18 M 1562.2 847.19 1793.17 847.19 M 1796.31 835.21 1575.96 835.21 M 1579.12 823.22 1799.44 823.22 M 1802.25 811.24 1576.23 811.24 M 1565.83 799.25 1806.33 799.25 M 1810.42 787.27 1565.83 787.27 M 1565.83 775.28 1814.5 775.28 M 1818.59 763.3 1565.83 763.3 M 1565.83 751.31 1822.68 751.31 M 1826.76 739.32 1565.83 739.32 M 1565.83 727.34 1830.85 727.34 M 1834.93 715.35 1565.83 715.35 M 1571.54 703.37 1838.68 703.37 M 1843.76 691.38 1583.52 691.38 M 1595.51 679.4 1848.85 679.4 M 1853.93 667.41 1607.49 667.41 M 1619.48 655.43 1859.02 655.43 M 1864.1 643.44 1631.46 643.44 M 1643.45 631.46 1869.19 631.46 M 1874.27 619.47 1678.51 619.47 M 1681.35 607.49 1879.36 607.49 M 1883.31 595.5 1699.09 595.5 M 1711.07 583.52 1888.42 583.52 M 1888.42 571.53 1721.15 571.53 M 1721.15 559.55 1888.42 559.55 M 1888.42 547.56 1721.15 547.56 M 1721.15 535.58 1888.42 535.58 M 1888.42 523.59 1721.15 523.59 M 1721.15 511.61 1888.42 511.61 M 1888.42 499.62 1721.15 499.62 M 1721.15 487.64 1888.42 487.64 M 1883.7 475.65 1721.15 475.65 M 1721.15 463.67 1871.71 463.67 M 1859.73 451.68 1721.15 451.68 M 1721.15 439.7 1847.74 439.7 M 1835.76 427.71 1721.15 427.71 M 1711.87 399.08 1711.87 395.73 1724.55 383.05 1731.12 383.05 1745.97 368.21 1755.93 358.25 1814.38 358.25 1854.07 397.94 1854.07 374.36 1868.62 346.64 1894.38 328.86 1925.46 325.08 1954.73 336.18 1954.73 336.18 1975.49 359.62 1982.98 390.02 1975.49 420.41 1975.49 420.41 1954.73 443.85 1925.46 454.95 1909.09 452.96 1912.46 456.33 1922.42 466.29 1922.42 576.14 1954.75 515.63 2026.95 407.4 2109.35 306.71 2128.08 287.91 1335.3 287.91 1337.55 289.05 1343.79 293.59 1349.24 299.04 1353.77 305.28 1357.28 312.15 1359.66 319.49 1360.87 327.1 1360.87 327.12 1315.71 327.12 1315.71 334.8 1360.87 334.8 1360.87 334.82 1359.66 342.43 1357.28 349.77 1353.77 356.64 1349.24 362.88 1343.79 368.34 1337.55 372.87 1330.68 376.37 1323.34 378.75 1322.18 378.94 1343.03 378.94 1363.19 358.78 1363.19 314.49 1372.56 305.12 1430.11 305.12 1437.89 312.91 1439.31 311.96 1446.16 309.12 1453.43 307.68 1456.25 307.68 1456.25 344.44 1458.03 344.44 1458.03 307.68 1460.85 307.68 1468.12 309.12 1474.98 311.96 1481.14 316.08 1484.97 319.91 1488.08 316.8 1500.45 311.68 1513.84 311.68 1526.2 316.8 1529.31 319.91 1533.14 316.08 1539.31 311.96 1546.16 309.12 1553.43 307.68 1556.25 307.68 1556.25 344.44 1558.03 344.44 1558.03 307.68 1560.85 307.68 1568.12 309.12 1574.98 311.96 1581.14 316.08 1584.97 319.91 1588.08 316.8 1600.45 311.68 1613.84 311.68 1626.2 316.8 1635.67 326.27 1640.8 338.64 1640.8 352.02 1639.11 356.09 1651.35 368.33 1681.12 368.33 1711.87 399.08 M 1715.85 391.76 1704.55 391.76 M 1692.56 379.77 1734.41 379.77 M 1746.39 367.79 1650.81 367.79 M 1639.23 355.8 1863.81 355.8 M 1868.62 346.64 1868.62 346.64 1868.62 346.64 M 1872.71 343.82 1640.8 343.82 M 1637.98 331.83 1890.07 331.83 M 1894.38 328.86 1894.38 328.86 M 1925.46 325.08 1925.46 325.08 M 1943.25 331.83 2088.79 331.83 M 2078.98 343.82 1961.49 343.82 M 1972.11 355.8 2069.18 355.8 M 2059.37 367.79 1977.51 367.79 M 1975.49 359.62 1975.49 359.62 M 1980.46 379.77 2049.56 379.77 M 2039.75 391.76 1982.56 391.76 M 1979.6 403.74 2029.94 403.74 M 2021.4 415.73 1976.65 415.73 M 1969.03 427.71 2013.4 427.71 M 2005.41 439.7 1958.41 439.7 M 1954.73 443.85 1954.73 443.85 M 1934.07 451.68 1997.41 451.68 M 1989.42 463.67 1919.8 463.67 M 1912.46 456.33 1912.46 456.33 M 1925.46 454.95 1925.46 454.95 M 1922.42 475.65 1981.42 475.65 M 1973.42 487.64 1922.42 487.64 M 1922.42 499.62 1965.43 499.62 M 1957.43 511.61 1922.42 511.61 M 1922.42 523.59 1950.5 523.59 M 1944.09 535.58 1922.42 535.58 M 1922.42 547.56 1937.69 547.56 M 1931.28 559.55 1922.42 559.55 M 1922.42 571.53 1924.88 571.53 M 1823.77 415.73 1753.1 415.73 M 1758.52 403.74 1811.79 403.74 M 1835.9 379.77 1854.07 379.77 M 1854.07 391.76 1847.88 391.76 M 1857.52 367.79 1823.91 367.79 M 1679.15 448.74 1676.58 451.31 1509.94 451.31 1499.98 441.35 1490.14 431.51 1490.14 429.64 1484.24 435.54 1361.66 435.54 1361.66 473.73 1354.63 480.76 1305.32 480.76 1300.45 475.88 1295.58 480.76 1246.27 480.76 1241.39 475.88 1236.52 480.76 1187.21 480.76 1182.34 475.88 1179.06 479.16 1179.38 479.47 1179.38 497.41 1172.73 504.05 1172.73 543.87 1168.65 547.95 1168.65 557.34 1161.12 564.88 1163.67 564.37 1167.18 564.37 1167.18 600.05 1167.18 600.05 1167.18 564.37 1170.7 564.37 1177.59 565.74 1184.08 568.43 1189.93 572.34 1194.9 577.31 1194.99 577.44 1199.23 573.19 1210.88 568.37 1223.48 568.37 1235.13 573.19 1244.04 582.11 1248.87 593.75 1248.87 596.47 1259.79 596.47 1260.84 595.42 1260.84 595.42 1269.63 586.63 1345.13 586.63 1344.5 586 1344.5 583.91 1342.66 583.91 1329.98 571.23 1329.98 553.29 1342.66 540.61 1360.6 540.61 1373.28 553.29 1373.28 559.74 1374.5 560.97 1374.5 573.57 1375.56 574.63 1412.3 574.63 1441.81 545.12 1441.81 538.43 1452.77 527.47 1452.77 512.42 1452.57 512.22 1452.57 484.35 1461.36 475.56 1472.28 464.64 1500.16 464.64 1504.04 468.52 1597.13 468.52 1621 492.39 1633.98 492.39 1640.62 485.74 1658.56 485.74 1671.24 498.42 1671.24 516.35 1658.56 529.03 1656.02 529.03 1656.02 536.76 1627.13 536.76 1627.13 538.54 1656.02 538.54 1656.02 557.48 1654.93 561.55 1654.65 562.02 1673.17 562.02 1679.15 556.05 1679.15 448.74 M 1679.15 451.68 1361.66 451.68 M 1361.66 439.7 1498.33 439.7 M 1461.27 475.65 1359.74 475.65 M 1361.66 463.67 1679.15 463.67 M 1679.15 475.65 1604.26 475.65 M 1616.25 487.64 1638.73 487.64 M 1660.45 487.64 1679.15 487.64 M 1679.15 499.62 1671.24 499.62 M 1671.24 511.61 1679.15 511.61 M 1679.15 523.59 1663.99 523.59 M 1656.02 535.58 1679.15 535.58 M 1679.15 547.56 1656.02 547.56 M 1655.46 559.55 1675.65 559.55 M 1627.13 559.55 1625.35 559.55 M 1627.13 569.78 1627.13 538.54 1625.35 538.54 1625.35 571.37 1617.65 571.37 1617.65 579.26 1627.13 569.78 M 1625.37 571.53 1617.65 571.53 M 1625.35 547.56 1627.13 547.56 M 1555.49 618.79 1481.16 618.79 1453.34 646.61 1444.56 655.39 1380.58 655.39 1307.72 728.26 1307.72 776.93 1302.44 782.2 1298.96 785.68 1299.72 788.5 1299.72 803.5 1266.89 803.5 1266.89 805.28 1299.72 805.28 1299.72 820.27 1298.63 824.34 1296.55 827.94 1307.33 838.73 1307.33 847.46 1315.14 847.46 1321.4 841.2 1339.33 841.2 1348.08 849.95 1352.3 845.73 1370.23 845.73 1374.88 850.38 1490.59 850.38 1495.83 845.14 1495.83 678.45 1505.79 668.49 1555.49 618.79 M 1554.8 619.47 1480.48 619.47 M 1468.49 631.46 1542.82 631.46 M 1530.83 643.44 1456.51 643.44 M 1495.83 679.4 1356.57 679.4 M 1344.59 691.38 1495.83 691.38 M 1495.83 703.37 1332.6 703.37 M 1320.62 715.35 1495.83 715.35 M 1495.83 727.34 1308.63 727.34 M 1307.72 739.32 1495.83 739.32 M 1495.83 751.31 1307.72 751.31 M 1307.72 763.3 1495.83 763.3 M 1495.83 775.28 1307.72 775.28 M 1299.39 787.27 1495.83 787.27 M 1495.83 799.25 1299.72 799.25 M 1299.72 811.24 1495.83 811.24 M 1495.83 823.22 1298.93 823.22 M 1303.81 835.21 1495.83 835.21 M 1493.77 847.19 1371.69 847.19 M 1350.84 847.19 1345.32 847.19 M 1315.41 847.19 1307.33 847.19 M 1287.94 871.16 1183.57 871.16 M 1183.57 883.15 1320.05 883.15 M 1341.44 895.13 1183.57 895.13 M 1183.57 907.12 1353.42 907.12 M 1360.93 919.1 1183.57 919.1 M 1172.16 859.18 1266.56 859.18 M 1264.04 847.19 1160.17 847.19 M 1148.19 835.21 1267.56 835.21 M 1266.89 823.22 1265.11 823.22 M 1265.11 811.24 1266.89 811.24 M 1195.54 823.22 1188.82 823.22 M 1145.54 823.22 1139.28 823.22 M 1082.68 816.95 1082.68 601.14 1079.04 604.77 1029.73 604.77 1022.7 597.74 1022.7 544.49 1027.2 539.99 1024.88 538.65 1021.9 535.67 1019.79 532.02 1018.7 527.95 1018.7 508.03 1050.54 508.03 1050.54 500.35 1018.7 500.35 1018.7 480.43 1019.79 476.36 1021.9 472.71 1024.88 469.73 1028.52 467.63 1032.59 466.54 1050.54 466.54 1050.54 500.35 1058.23 500.35 1058.23 466.54 1076.18 466.54 1080.25 467.63 1082.68 469.03 1082.68 388.31 1092.05 378.94 1301.55 378.94 1300.39 378.75 1293.06 376.37 1286.18 372.87 1279.94 368.34 1274.49 362.88 1269.96 356.64 1266.46 349.77 1264.07 342.43 1262.87 334.82 1262.87 334.8 1308.02 334.8 1308.02 327.12 1262.87 327.12 1262.87 327.1 1264.07 319.49 1266.46 312.15 1269.96 305.28 1274.49 299.04 1279.94 293.59 1286.18 289.05 1288.44 287.91 1225.51 287.91 1237.36 292.81 1250.02 305.47 1256.87 322.01 1256.87 339.91 1250.02 356.45 1237.36 369.11 1220.82 375.96 1202.91 375.96 1186.38 369.11 1173.72 356.45 1166.87 339.91 1166.87 322.01 1173.72 305.47 1186.38 292.81 1198.22 287.91 1125.51 287.91 1137.36 292.81 1150.02 305.47 1156.87 322.01 1156.87 339.91 1150.02 356.45 1137.36 369.11 1120.82 375.96 1102.91 375.96 1086.38 369.11 1073.72 356.45 1066.87 339.91 1066.87 322.01 1073.72 305.47 1086.38 292.81 1098.22 287.91 777.94 287.91 796.67 306.71 879.06 407.4 951.26 515.63 1012.58 630.37 1062.44 750.54 1062.44 750.54 1082.68 816.95 M 1082.68 811.24 1080.94 811.24 M 1082.68 799.25 1077.28 799.25 M 1073.63 787.27 1082.68 787.27 M 1082.68 775.28 1069.98 775.28 M 1066.33 763.3 1082.68 763.3 M 1082.68 751.31 1062.68 751.31 M 1057.79 739.32 1082.68 739.32 M 1082.68 727.34 1052.81 727.34 M 1047.84 715.35 1082.68 715.35 M 1082.68 703.37 1042.87 703.37 M 1037.9 691.38 1082.68 691.38 M 1082.68 679.4 1032.92 679.4 M 1027.95 667.41 1082.68 667.41 M 1082.68 655.43 1022.98 655.43 M 1018.01 643.44 1082.68 643.44 M 1082.68 631.46 1013.03 631.46 M 1012.58 630.37 1012.58 630.37 M 1006.76 619.47 1082.68 619.47 M 1082.68 607.49 1000.35 607.49 M 993.95 595.5 1022.7 595.5 M 1022.7 583.52 987.54 583.52 M 981.14 571.53 1022.7 571.53 M 1022.7 559.55 974.73 559.55 M 968.33 547.56 1022.7 547.56 M 1021.85 535.58 961.92 535.58 M 955.52 523.59 1018.7 523.59 M 1018.7 511.61 948.58 511.61 M 951.26 515.63 951.26 515.63 M 940.59 499.62 1018.7 499.62 M 1018.7 487.64 932.59 487.64 M 924.6 475.65 1020.2 475.65 M 1004.94 451.68 1082.68 451.68 M 1082.68 439.7 1029.27 439.7 M 1025.6 443.85 1025.6 443.85 1046.36 420.41 1053.85 390.02 1053.85 390.02 1046.36 359.62 1025.6 336.18 1025.6 336.18 1025.6 336.18 996.33 325.08 996.33 325.08 965.25 328.86 965.25 328.86 939.48 346.64 939.48 346.64 939.48 346.64 924.93 374.36 924.93 405.67 939.48 433.39 939.48 433.39 965.25 451.17 965.25 451.17 996.33 454.95 996.33 454.95 1025.6 443.85 M 1039.89 427.71 1082.68 427.71 M 1082.68 415.73 1047.51 415.73 M 1046.36 420.41 1046.36 420.41 M 1050.47 403.74 1082.68 403.74 M 1082.68 391.76 1053.42 391.76 M 1051.33 379.77 1091.22 379.77 M 1085.05 367.79 1048.37 367.79 M 1042.98 355.8 1073.45 355.8 M 1068.48 343.82 1032.36 343.82 M 1014.12 331.83 1066.87 331.83 M 1067.76 319.85 807.42 319.85 M 817.22 331.83 960.94 331.83 M 943.57 343.82 827.03 343.82 M 836.84 355.8 934.67 355.8 M 928.38 367.79 846.65 367.79 M 856.46 379.77 924.93 379.77 M 924.93 391.76 866.26 391.76 M 876.07 403.74 924.93 403.74 M 930.21 415.73 884.62 415.73 M 879.06 407.4 879.06 407.4 M 892.61 427.71 936.5 427.71 M 948.62 439.7 900.61 439.7 M 908.6 451.68 969.43 451.68 M 916.6 463.67 1082.68 463.67 M 1058.23 475.65 1050.54 475.65 M 1050.54 487.64 1058.23 487.64 M 1058.23 499.62 1050.54 499.62 M 1169.04 547.56 1335.71 547.56 M 1329.98 559.55 1166.45 559.55 M 1167.18 571.53 1167.18 571.53 M 1167.18 583.52 1167.18 583.52 M 1167.18 595.5 1167.18 595.5 M 1188.73 571.53 1203.24 571.53 M 1231.12 571.53 1330.29 571.53 M 1342.28 583.52 1244.63 583.52 M 1248.87 595.5 1260.76 595.5 M 1282.06 616.63 1272.21 626.47 1238.41 626.47 1244.04 632.11 1248.87 643.75 1248.87 656.36 1244.04 668 1236.99 675.05 1244.04 682.11 1245.26 685.06 1269.63 685.06 1338.05 616.63 1282.06 616.63 M 1279.21 619.47 1335.21 619.47 M 1323.23 631.46 1243.39 631.46 M 1248.74 643.44 1311.24 643.44 M 1299.26 655.43 1248.87 655.43 M 1244.29 667.41 1287.27 667.41 M 1275.28 679.4 1241.33 679.4 M 1167.18 700.06 1167.18 700.06 1167.18 750.05 1167.18 750.05 1167.18 714.37 1167.18 700.06 M 1167.18 703.37 1167.18 703.37 M 1167.18 715.35 1167.18 715.35 M 1167.18 727.34 1167.18 727.34 M 1167.18 739.32 1167.18 739.32 M 1368.56 667.41 1506.86 667.41 M 1518.85 655.43 1380.54 655.43 M 1374.5 571.53 1415.39 571.53 M 1427.38 559.55 1373.28 559.55 M 1367.54 547.56 1439.36 547.56 M 1444.66 535.58 1172.73 535.58 M 1172.73 523.59 1452.77 523.59 M 1452.57 511.61 1172.73 511.61 M 1177.16 499.62 1452.57 499.62 M 1452.57 487.64 1179.38 487.64 M 1185.05 367.79 1138.68 367.79 M 1150.28 355.8 1173.45 355.8 M 1168.48 343.82 1155.25 343.82 M 1156.87 331.83 1166.87 331.83 M 1167.76 319.85 1155.97 319.85 M 1151.01 307.86 1172.73 307.86 M 1183.31 295.88 1140.42 295.88 M 1083.31 295.88 785.88 295.88 M 796.67 306.71 796.67 306.71 M 797.61 307.86 1072.73 307.86 M 1240.42 295.88 1277.65 295.88 M 1268.64 307.86 1251.01 307.86 M 1255.97 319.85 1264.02 319.85 M 1256.87 331.83 1308.02 331.83 M 1315.71 331.83 1363.19 331.83 M 1363.19 319.85 1359.72 319.85 M 1355.09 307.86 1369.82 307.86 M 1346.08 295.88 2120.14 295.88 M 2108.41 307.86 1561.77 307.86 M 1558.03 307.86 1556.25 307.86 M 1552.51 307.86 1461.77 307.86 M 1458.03 307.86 1456.25 307.86 M 1452.51 307.86 1432.85 307.86 M 1456.25 319.85 1458.03 319.85 M 1458.03 331.83 1456.25 331.83 M 1456.25 343.82 1458.03 343.82 M 1484.91 319.85 1485.03 319.85 M 1529.25 319.85 1529.38 319.85 M 1556.25 319.85 1558.03 319.85 M 1558.03 331.83 1556.25 331.83 M 1556.25 343.82 1558.03 343.82 M 1558.03 346.22 1556.25 346.22 1556.25 394.44 1558.03 394.44 1558.03 357.68 1558.03 346.22 M 1558.03 355.8 1556.25 355.8 M 1556.25 367.79 1558.03 367.79 M 1558.03 379.77 1556.25 379.77 M 1556.25 391.76 1558.03 391.76 M 1584.91 319.85 1585.03 319.85 M 1629.25 319.85 2098.6 319.85 M 1783.77 883.15 1695.71 883.15 M 1698.34 895.13 1780.63 895.13 M 1777.5 907.12 1698.34 907.12 M 1698.34 919.1 1774.36 919.1 M 1772.29 931.09 1693.42 931.09 M 1694.34 943.07 1770.07 943.07 M 1767.85 955.06 1694.34 955.06 M 1694.34 967.04 1765.63 967.04 M 1665.51 895.13 1663.73 895.13 M 1663.73 883.15 1665.51 883.15 M 1633.53 883.15 1631.42 883.15 M 1354.18 367.79 1344.34 367.79 M 1354.2 355.8 1363.19 355.8 M 1363.19 343.82 1359.21 343.82 M 1279.4 367.79 1238.68 367.79 M 1250.28 355.8 1269.53 355.8 M 1264.52 343.82 1255.25 343.82 M 1053.15 1865.93 958.75 1865.93 M 951.85 1877.91 1053.15 1877.91 M 1056.29 1889.9 1015.66 1889.9 M 1025.6 1893.67 1025.6 1893.67 M 1032.88 1901.88 1871.86 1901.88 M 1868.62 1904.12 1868.62 1904.12 1868.62 1904.12 M 1863.5 1913.87 1043.49 1913.87 M 1046.36 1917.1 1046.36 1917.1 M 1048.52 1925.85 1857.21 1925.85 M 1854.07 1937.84 1051.47 1937.84 M 1053.85 1947.5 1053.85 1947.5 M 1053.28 1949.82 1854.07 1949.82 M 1854.07 1961.81 1050.32 1961.81 M 1047.37 1973.79 1859.65 1973.79 M 1865.94 1985.78 1039.37 1985.78 M 1028.76 1997.76 1878.6 1997.76 M 1868.62 1990.87 1868.62 1990.87 M 1894.38 2008.65 1894.38 2008.65 M 996.33 1882.56 996.33 1882.56 M 965.25 1886.34 965.25 1886.34 M 960.09 1889.9 944.94 1889.9 M 942.73 1901.88 938.04 1901.88 M 939.48 1904.12 939.48 1904.12 939.48 1904.12 M 934.37 1913.87 931.14 1913.87 M 926.54 1921.85 926.54 1921.85 M 928.08 1925.85 923.64 1925.85 M 924.93 1937.84 914.97 1937.84 M 906.29 1949.82 924.93 1949.82 M 924.93 1961.81 897.61 1961.81 M 888.93 1973.79 930.52 1973.79 M 936.81 1985.78 880.25 1985.78 M 871.57 1997.76 949.47 1997.76 M 939.48 1990.87 939.48 1990.87 939.48 1990.87" fill="none" stroke-width="12"/><path d="M 1457.93 1767.97 1457.93 1699.07 1492.38 1664.62 1492.38 1531.75 1512.06 1531.75 1512.06 1674.46 1477.61 1708.91 1477.61 1767.97 1457.93 1767.97 M 1457.93 1766.7 1477.61 1766.7 M 1477.61 1764.71 1457.93 1764.71 M 1457.93 1762.73 1477.61 1762.73 M 1477.61 1760.74 1457.93 1760.74 M 1457.93 1758.76 1477.61 1758.76 M 1477.61 1756.77 1457.93 1756.77 M 1457.93 1754.79 1477.61 1754.79 M 1477.61 1752.8 1457.93 1752.8 M 1457.93 1750.81 1477.61 1750.81 M 1477.61 1748.83 1457.93 1748.83 M 1457.93 1746.84 1477.61 1746.84 M 1477.61 1744.86 1457.93 1744.86 M 1457.93 1742.87 1477.61 1742.87 M 1477.61 1740.89 1457.93 1740.89 M 1457.93 1738.9 1477.61 1738.9 M 1477.61 1736.92 1457.93 1736.92 M 1457.93 1734.93 1477.61 1734.93 M 1477.61 1732.95 1457.93 1732.95 M 1457.93 1730.96 1477.61 1730.96 M 1477.61 1728.98 1457.93 1728.98 M 1457.93 1726.99 1477.61 1726.99 M 1477.61 1725.01 1457.93 1725.01 M 1457.93 1723.02 1477.61 1723.02 M 1477.61 1721.04 1457.93 1721.04 M 1457.93 1719.05 1477.61 1719.05 M 1477.61 1717.07 1457.93 1717.07 M 1457.93 1715.08 1477.61 1715.08 M 1477.61 1713.1 1457.93 1713.1 M 1457.93 1711.11 1477.61 1711.11 M 1477.61 1709.13 1457.93 1709.13 M 1457.93 1707.14 1479.39 1707.14 M 1481.37 1705.16 1457.93 1705.16 M 1457.93 1703.17 1483.36 1703.17 M 1485.34 1701.19 1457.93 1701.19 M 1457.93 1699.2 1487.33 1699.2 M 1489.31 1697.22 1459.78 1697.22 M 1461.77 1695.23 1491.3 1695.23 M 1493.28 1693.25 1463.75 1693.25 M 1465.74 1691.26 1495.27 1691.26 M 1497.25 1689.28 1467.72 1689.28 M 1469.71 1687.29 1499.24 1687.29 M 1501.22 1685.31 1471.69 1685.31 M 1473.68 1683.32 1503.21 1683.32 M 1505.19 1681.34 1475.66 1681.34 M 1477.65 1679.35 1507.18 1679.35 M 1509.16 1677.37 1479.63 1677.37 M 1481.62 1675.38 1511.15 1675.38 M 1512.06 1673.4 1483.6 1673.4 M 1485.59 1671.41 1512.06 1671.41 M 1512.06 1669.43 1487.57 1669.43 M 1489.56 1667.44 1512.06 1667.44 M 1512.06 1665.45 1491.55 1665.45 M 1492.38 1663.47 1512.06 1663.47 M 1512.06 1661.48 1492.38 1661.48 M 1492.38 1659.5 1512.06 1659.5 M 1512.06 1657.51 1492.38 1657.51 M 1492.38 1655.53 1512.06 1655.53 M 1512.06 1653.54 1492.38 1653.54 M 1492.38 1651.56 1512.06 1651.56 M 1512.06 1649.57 1492.38 1649.57 M 1492.38 1647.59 1512.06 1647.59 M 1512.06 1645.6 1492.38 1645.6 M 1492.38 1643.62 1512.06 1643.62 M 1512.06 1641.63 1492.38 1641.63 M 1492.38 1639.65 1512.06 1639.65 M 1512.06 1637.66 1492.38 1637.66 M 1492.38 1635.68 1512.06 1635.68 M 1512.06 1633.69 1492.38 1633.69 M 1492.38 1631.71 1512.06 1631.71 M 1512.06 1629.72 1492.38 1629.72 M 1492.38 1627.74 1512.06 1627.74 M 1512.06 1625.75 1492.38 1625.75 M 1492.38 1623.77 1512.06 1623.77 M 1512.06 1621.78 1492.38 1621.78 M 1492.38 1619.8 1512.06 1619.8 M 1512.06 1617.81 1492.38 1617.81 M 1492.38 1615.83 1512.06 1615.83 M 1512.06 1613.84 1492.38 1613.84 M 1492.38 1611.86 1512.06 1611.86 M 1512.06 1609.87 1492.38 1609.87 M 1492.38 1607.89 1512.06 1607.89 M 1512.06 1605.9 1492.38 1605.9 M 1492.38 1603.92 1512.06 1603.92 M 1512.06 1601.93 1492.38 1601.93 M 1492.38 1599.95 1512.06 1599.95 M 1512.06 1597.96 1492.38 1597.96 M 1492.38 1595.98 1512.06 1595.98 M 1512.06 1593.99 1492.38 1593.99 M 1492.38 1592.01 1512.06 1592.01 M 1512.06 1590.02 1492.38 1590.02 M 1492.38 1588.04 1512.06 1588.04 M 1512.06 1586.05 1492.38 1586.05 M 1492.38 1584.07 1512.06 1584.07 M 1512.06 1582.08 1492.38 1582.08 M 1492.38 1580.1 1512.06 1580.1 M 1512.06 1578.11 1492.38 1578.11 M 1492.38 1576.12 1512.06 1576.12 M 1512.06 1574.14 1492.38 1574.14 M 1492.38 1572.15 1512.06 1572.15 M 1512.06 1570.17 1492.38 1570.17 M 1492.38 1568.18 1512.06 1568.18 M 1512.06 1566.2 1492.38 1566.2 M 1492.38 1564.21 1512.06 1564.21 M 1512.06 1562.23 1492.38 1562.23 M 1492.38 1560.24 1512.06 1560.24 M 1512.06 1558.26 1492.38 1558.26 M 1492.38 1556.27 1512.06 1556.27 M 1512.06 1554.29 1492.38 1554.29 M 1492.38 1552.3 1512.06 1552.3 M 1512.06 1550.32 1492.38 1550.32 M 1492.38 1548.33 1512.06 1548.33 M 1512.06 1546.35 1492.38 1546.35 M 1492.38 1544.36 1512.06 1544.36 M 1512.06 1542.38 1492.38 1542.38 M 1492.38 1540.39 1512.06 1540.39 M 1512.06 1538.41 1492.38 1538.41 M 1492.38 1536.42 1512.06 1536.42 M 1512.06 1534.44 1492.38 1534.44 M 1492.38 1532.45 1512.06 1532.45" fill="none" stroke-width="2"/><use xlink:href="#H7eB-VixWZxFsfuY2_wC_pad-27" x="1502.22" y="1541.59"/><use xlink:href="#H7eB-VixWZxFsfuY2_wC_pad-27" x="1467.77" y="1753.2"/><path d="M 1413.64 1389.03 1413.64 1236.47 1403.8 1226.63 1364.43 1226.63 1354.58 1236.47 1354.58 1270.92 1305.37 1320.13 1305.37 1374.27 1290.61 1389.03 1256.16 1389.03 M 1221.71 1299.46 1221.71 1256.16 M 1379.19 1251.24 1379.19 1299.46 M 1403.8 1226.63 1413.64 1216.79 1561.28 1216.79 M 1595.72 1177.42 1763.05 1177.42 M 1767.79 1180.55 1757.15 1180.55 M 1757.53 1170.57 1767.82 1170.57 M 1767.85 1160.58 1757.91 1160.58 M 1758.28 1150.6 1767.88 1150.6 M 1767.91 1140.61 1758.88 1140.61 M 1758.55 1143.6 1754.3 1256.16 1767.79 1256.16 1767.74 1203.29 1767.71 1203.27 1767.73 1197.1 1767.73 1190.9 1767.75 1190.88 1767.94 1132.05 1781.02 1002.7 1806.62 875.24 1844.52 750.88 1894.34 630.8 1909.93 601.63 1900.31 601.63 1856.32 705.32 1842.75 745.12 1842.75 747.98 1841.27 749.46 1819.97 811.93 1791.47 920.9 1770.96 1031.65 1758.55 1143.6 M 1759.98 1130.63 1768.09 1130.63 M 1767.94 1132.05 1767.94 1132.05 M 1769.1 1120.64 1761.09 1120.64 M 1762.2 1110.66 1770.1 1110.66 M 1771.11 1100.67 1763.3 1100.67 M 1764.41 1090.68 1772.12 1090.68 M 1773.13 1080.7 1765.52 1080.7 M 1766.62 1070.71 1774.14 1070.71 M 1775.15 1060.73 1767.73 1060.73 M 1768.84 1050.74 1776.16 1050.74 M 1777.17 1040.76 1769.95 1040.76 M 1771.12 1030.77 1778.18 1030.77 M 1779.19 1020.79 1772.97 1020.79 M 1774.82 1010.8 1780.2 1010.8 M 1781.02 1002.7 1781.02 1002.7 M 1781.4 1000.82 1776.67 1000.82 M 1778.51 990.83 1783.4 990.83 M 1785.41 980.85 1780.36 980.85 M 1782.21 970.86 1787.41 970.86 M 1789.42 960.88 1784.06 960.88 M 1785.91 950.89 1791.42 950.89 M 1793.43 940.91 1787.76 940.91 M 1789.61 930.92 1795.44 930.92 M 1797.44 920.94 1791.46 920.94 M 1794.07 910.95 1799.45 910.95 M 1801.45 900.97 1796.68 900.97 M 1799.29 890.98 1803.46 890.98 M 1801.9 881 1805.47 881 M 1806.62 875.24 1806.62 875.24 M 1807.91 871.01 1804.52 871.01 M 1807.13 861.03 1810.95 861.03 M 1809.74 851.04 1814 851.04 M 1812.35 841.06 1817.04 841.06 M 1814.96 831.07 1820.08 831.07 M 1817.57 821.09 1823.12 821.09 M 1820.25 811.1 1826.17 811.1 M 1823.66 801.12 1829.21 801.12 M 1827.06 791.13 1832.25 791.13 M 1830.46 781.15 1835.29 781.15 M 1833.87 771.16 1838.34 771.16 M 1837.27 761.18 1841.38 761.18 M 1840.68 751.19 1844.42 751.19 M 1844.52 750.88 1844.52 750.88 M 1844.08 741.21 1848.53 741.21 M 1847.49 731.22 1852.67 731.22 M 1850.89 721.24 1856.82 721.24 M 1854.29 711.25 1860.96 711.25 M 1858.04 701.27 1865.1 701.27 M 1862.27 691.28 1869.24 691.28 M 1866.51 681.3 1873.39 681.3 M 1870.75 671.31 1877.53 671.31 M 1874.98 661.32 1881.67 661.32 M 1879.22 651.34 1885.82 651.34 M 1883.46 641.35 1889.96 641.35 M 1887.69 631.37 1894.1 631.37 M 1891.93 621.38 1899.37 621.38 M 1900.84 611.47 1905.42 606.9 1905.42 473.33 1807.34 375.25 1762.97 375.25 1733.52 404.7 M 1674.46 426.23 1673.58 425.35 M 1674.46 426.23 1674.46 429.39 1669.54 434.31 1516.98 434.31 1507.14 424.46 1507.14 395.33 M 1486.22 498.28 1585.88 498.28 1600.65 513.05 1600.65 597.67 1512.83 685.49 1512.83 852.18 1497.63 867.38 1361.27 867.38 M 1585.88 1149.86 1585.88 1167.57 1595.72 1177.42 M 1756.78 1190.54 1767.75 1190.54 M 1767.72 1200.52 1756.4 1200.52 M 1756.02 1210.51 1767.75 1210.51 M 1767.76 1220.49 1755.65 1220.49 M 1755.27 1230.48 1767.77 1230.48 M 1767.78 1240.46 1754.89 1240.46 M 1754.52 1250.45 1767.79 1250.45 M 1896.17 611.4 1904.71 611.4" fill="none" stroke-width="10"/><path d="M 1600.65 1580.96 1561.28 1580.96 1561.28 1605.57 1610.49 1605.57 1620.33 1595.72 1654.78 1595.72 1654.78 1585.88 1605.57 1585.88 1600.65 1580.96 M 1602.69 1583.01 1561.28 1583.01 M 1561.28 1586.99 1654.78 1586.99 M 1654.78 1590.98 1561.28 1590.98 M 1561.28 1594.96 1654.78 1594.96 M 1617.11 1598.95 1561.28 1598.95 M 1561.28 1602.93 1613.12 1602.93" fill="none" stroke-width="4"/></g></svg>