<svg version="1.1" xmlns="http://www.w3.org/2000/svg" xmlns:xlink="http://www.w3.org/1999/xlink" stroke-linecap="round" stroke-linejoin="round" stroke-width="0" fill-rule="evenodd" width="2.2145799999999998in" height="2.12599in" viewBox="345.72 271.9 2214.58 2125.99" id="j_ApxthlTYLmtAfimA4L"><defs><rect x="-17.715" y="-13.78" width="35.43" height="27.56" id="j_ApxthlTYLmtAfimA4L_pad-12"/><rect x="-29.53" y="-25.59" width="59.06" height="51.18" id="j_ApxthlTYLmtAfimA4L_pad-13"/><rect x="-13.78" y="-17.715" width="27.56" height="35.43" id="j_ApxthlTYLmtAfimA4L_pad-14"/><rect x="-11.81" y="-15.75" width="23.62" height="31.5" id="j_ApxthlTYLmtAfimA4L_pad-15"/><rect x="-37.355" y="-32.375" width="74.71" height="64.75" id="j_ApxthlTYLmtAfimA4L_pad-16"/><rect x="-45.08" y="-162.6" width="90.16" height="325.2" id="j_ApxthlTYLmtAfimA4L_pad-18"/><rect x="-14.765" y="-14.96" width="29.53" height="29.92" id="j_ApxthlTYLmtAfimA4L_pad-19"/><rect x="-19.685" y="-21.655" width="39.37" height="43.31" id="j_ApxthlTYLmtAfimA4L_pad-20"/><rect x="-7" y="-23" width="14" height="46" id="j_ApxthlTYLmtAfimA4L_pad-21"/><rect x="-15.75" y="-11.81" width="31.5" height="23.62" id="j_ApxthlTYLmtAfimA4L_pad-22"/><rect x="-23.62" y="-23.62" width="47.24" height="47.24" id="j_ApxthlTYLmtAfimA4L_pad-23"/><rect x="-14.765" y="-13.78" width="29.53" height="27.56" id="j_ApxthlTYLmtAfimA4L_pad-24"/><rect x="-16.73" y="-17.715" width="33.46" height="35.43" id="j_ApxthlTYLmtAfimA4L_pad-25"/><rect x="-11.715" y="-3.96" width="23.43" height="7.92" id="j_ApxthlTYLmtAfimA4L_pad-26"/><rect x="-3.96" y="-11.715" width="7.92" height="23.43" id="j_ApxthlTYLmtAfimA4L_pad-27"/><rect x="-26.01" y="-26.01" width="52.02" height="52.02" id="j_ApxthlTYLmtAfimA4L_pad-28"/><rect x="-20.67" y="-43.305" width="41.34" height="86.61" id="j_ApxthlTYLmtAfimA4L_pad-29"/><rect x="-19.685" y="-20.67" width="39.37" height="41.34" id="j_ApxthlTYLmtAfimA4L_pad-30"/><circle cx="0" cy="0" r="3.74" id="j_ApxthlTYLmtAfimA4L_pad-32"/><rect x="-13.78" y="-14.765" width="27.56" height="29.53" id="j_ApxthlTYLmtAfimA4L_pad-33"/></defs><g transform="translate(0,2669.79) scale(1,-1)" fill="currentColor" stroke="currentColor"><path d="M 739.43 271.91 2166.59 271.91 M 1782.74 1197.11 1783.17 1229.28 1784.38 1261.43 1786.37 1293.54 1789.15 1325.59 1792.71 1357.56 1797.05 1389.44 1802.16 1421.2 1808.05 1452.83 1814.71 1484.31 1822.14 1515.61 1830.32 1546.72 1839.27 1577.63 1848.96 1608.3 1859.41 1638.73 1870.59 1668.9 1882.5 1698.78 1895.14 1728.37 1908.5 1757.64 1922.57 1786.57 1937.34 1815.15 1952.8 1843.36 1968.95 1871.19 1985.77 1898.61 2003.26 1925.62 2021.4 1952.19 2040.18 1978.31 2059.6 2003.96 2079.64 2029.13 2100.28 2053.81 2121.52 2077.97 2143.34 2101.61 2165.74 2124.71 2188.69 2147.25 2212.19 2169.23 2236.21 2190.63 2260.75 2211.43 2285.79 2231.63 2311.31 2251.21 2337.31 2270.17 2363.76 2288.48 2390.65 2306.15 2417.96 2323.15 2445.68 2339.48 2473.79 2355.12 2502.28 2370.08 2531.12 2384.34 2560.3 2397.89 M 2560.29 2397.89 345.72 2397.89 M 1123.28 1197.1 1122.79 1165 1121.51 1132.91 1119.45 1100.87 1116.61 1068.88 1112.99 1036.98 1108.6 1005.17 1103.43 973.48 1097.49 941.93 1090.78 910.53 1083.31 879.3 1075.08 848.26 1066.1 817.43 1056.37 786.84 1045.89 756.48 1034.68 726.39 1022.73 696.59 1010.07 667.08 996.69 637.89 982.6 609.04 967.81 580.54 952.33 552.41 936.17 524.66 919.34 497.31 901.85 470.39 883.71 443.9 864.92 417.85 845.51 392.28 825.48 367.18 804.84 342.58 783.61 318.49 761.8 294.93 739.42 271.9 M 1123.28 1197.11 1122.85 1229.28 1121.64 1261.43 1119.65 1293.54 1116.87 1325.59 1113.31 1357.56 1108.97 1389.44 1103.86 1421.2 1097.97 1452.83 1091.31 1484.31 1083.88 1515.61 1075.7 1546.72 1066.75 1577.63 1057.06 1608.3 1046.61 1638.73 1035.43 1668.9 1023.52 1698.78 1010.88 1728.37 997.52 1757.64 983.45 1786.57 968.68 1815.15 953.22 1843.36 937.07 1871.19 920.25 1898.61 902.76 1925.62 884.62 1952.19 865.84 1978.31 846.42 2003.96 826.38 2029.13 805.74 2053.81 784.5 2077.97 762.68 2101.61 740.28 2124.71 717.33 2147.25 693.83 2169.23 669.81 2190.63 645.27 2211.43 620.23 2231.63 594.71 2251.21 568.71 2270.17 542.26 2288.48 515.37 2306.15 488.06 2323.15 460.34 2339.48 432.23 2355.12 403.74 2370.08 374.9 2384.34 345.72 2397.89 M 1782.73 1197.1 1783.22 1165 1784.5 1132.91 1786.56 1100.87 1789.4 1068.88 1793.02 1036.98 1797.41 1005.17 1802.58 973.48 1808.52 941.93 1815.23 910.53 1822.7 879.3 1830.93 848.26 1839.91 817.43 1849.64 786.84 1860.12 756.48 1871.33 726.39 1883.28 696.59 1895.94 667.08 1909.32 637.89 1923.41 609.04 1938.2 580.54 1953.68 552.41 1969.84 524.66 1986.67 497.31 2004.16 470.39 2022.3 443.9 2041.09 417.85 2060.5 392.28 2080.53 367.18 2101.17 342.58 2122.4 318.49 2144.21 294.93 2166.59 271.9" fill="none" stroke-width="0"/><path d="M 1868.36 390.02 1868.38 391.42 1868.44 392.82 1868.54 394.21 1868.68 395.6 1868.86 396.99 1869.07 398.37 1869.33 399.75 1869.63 401.12 1869.96 402.47 1870.34 403.82 1870.75 405.16 1871.2 406.49 1871.68 407.8 1872.21 409.09 1872.77 410.38 1873.36 411.64 1874 412.89 1874.66 414.12 1875.37 415.33 1876.1 416.52 1876.87 417.69 1877.68 418.83 1878.51 419.95 1879.38 421.05 1880.28 422.13 1881.2 423.17 1882.16 424.19 1883.15 425.19 1884.16 426.15 1885.2 427.09 1886.27 427.99 1887.36 428.86 1888.48 429.71 1889.62 430.52 1890.78 431.3 1891.96 432.04 1893.17 432.75 1894.39 433.43 1895.64 434.07 1896.9 434.68 1898.17 435.25 1899.47 435.78 1900.78 436.28 1902.1 436.73 1903.43 437.16 1904.78 437.54 1906.13 437.88 1907.5 438.19 1908.87 438.46 1910.25 438.68 1911.64 438.87 1913.03 439.02 1914.42 439.13 1915.82 439.2 1917.22 439.23 1918.62 439.22 1920.02 439.17 1921.41 439.08 1922.81 438.95 1924.2 438.78 1925.58 438.57 1926.96 438.33 1928.33 438.04 1929.69 437.72 1931.04 437.35 1932.38 436.95 1933.71 436.51 1935.02 436.03 1936.32 435.52 1937.61 434.97 1938.88 434.38 1940.13 433.75 1941.36 433.1 1942.58 432.4 1943.77 431.67 1944.95 430.91 1946.1 430.12 1947.23 429.29 1948.33 428.43 1949.41 427.54 1950.46 426.62 1951.49 425.67 1952.49 424.69 1953.46 423.69 1954.4 422.65 1955.32 421.59 1956.2 420.51 1957.05 419.4 1957.87 418.26 1958.66 417.1 1959.41 415.93 1960.13 414.73 1960.81 413.51 1961.46 412.27 1962.08 411.01 1962.66 409.74 1963.2 408.45 1963.71 407.14 1964.17 405.82 1964.6 404.49 1965 403.15 1965.35 401.8 1965.67 400.43 1965.94 399.06 1966.18 397.68 1966.38 396.3 1966.54 394.91 1966.66 393.51 1966.74 392.12 1966.78 390.72 1966.78 389.32 1966.74 387.92 1966.66 386.53 1966.54 385.13 1966.38 383.74 1966.18 382.36 1965.94 380.98 1965.67 379.61 1965.35 378.24 1965 376.89 1964.6 375.55 1964.17 374.22 1963.71 372.9 1963.2 371.59 1962.66 370.3 1962.08 369.03 1961.46 367.77 1960.81 366.53 1960.13 365.31 1959.41 364.11 1958.66 362.94 1957.87 361.78 1957.05 360.64 1956.2 359.53 1955.32 358.45 1954.4 357.39 1953.46 356.35 1952.49 355.35 1951.49 354.37 1950.46 353.42 1949.41 352.5 1948.33 351.61 1947.23 350.75 1946.1 349.92 1944.95 349.13 1943.77 348.37 1942.58 347.64 1941.36 346.94 1940.13 346.29 1938.88 345.66 1937.61 345.07 1936.32 344.52 1935.02 344.01 1933.71 343.53 1932.38 343.09 1931.04 342.69 1929.69 342.32 1928.33 342 1926.96 341.71 1925.58 341.47 1924.2 341.26 1922.81 341.09 1921.41 340.96 1920.02 340.87 1918.62 340.82 1917.22 340.81 1915.82 340.84 1914.42 340.91 1913.03 341.02 1911.64 341.17 1910.25 341.36 1908.87 341.58 1907.5 341.85 1906.13 342.16 1904.78 342.5 1903.43 342.88 1902.1 343.31 1900.78 343.76 1899.47 344.26 1898.17 344.79 1896.9 345.36 1895.64 345.97 1894.39 346.61 1893.17 347.29 1891.96 348 1890.78 348.74 1889.62 349.52 1888.48 350.33 1887.36 351.18 1886.27 352.05 1885.2 352.95 1884.16 353.89 1883.15 354.85 1882.16 355.85 1881.2 356.87 1880.28 357.91 1879.38 358.99 1878.51 360.09 1877.68 361.21 1876.87 362.35 1876.1 363.52 1875.37 364.71 1874.66 365.92 1874 367.15 1873.36 368.4 1872.77 369.66 1872.21 370.95 1871.68 372.24 1871.2 373.55 1870.75 374.88 1870.34 376.22 1869.96 377.57 1869.63 378.92 1869.33 380.29 1869.07 381.67 1868.86 383.05 1868.68 384.44 1868.54 385.83 1868.44 387.22 1868.38 388.62 1868.36 390.02 M 939.23 390.02 939.25 391.42 939.31 392.82 939.41 394.21 939.55 395.6 939.73 396.99 939.94 398.37 940.2 399.75 940.5 401.12 940.83 402.47 941.21 403.82 941.62 405.16 942.07 406.49 942.55 407.8 943.08 409.09 943.64 410.38 944.23 411.64 944.87 412.89 945.53 414.12 946.24 415.33 946.97 416.52 947.74 417.69 948.55 418.83 949.38 419.95 950.25 421.05 951.15 422.13 952.07 423.17 953.03 424.19 954.02 425.19 955.03 426.15 956.07 427.09 957.14 427.99 958.23 428.86 959.35 429.71 960.49 430.52 961.65 431.3 962.83 432.04 964.04 432.75 965.26 433.43 966.51 434.07 967.77 434.68 969.04 435.25 970.34 435.78 971.65 436.28 972.97 436.73 974.3 437.16 975.65 437.54 977 437.88 978.37 438.19 979.74 438.46 981.12 438.68 982.51 438.87 983.9 439.02 985.29 439.13 986.69 439.2 988.09 439.23 989.49 439.22 990.89 439.17 992.28 439.08 993.68 438.95 995.07 438.78 996.45 438.57 997.83 438.33 999.2 438.04 1000.56 437.72 1001.91 437.35 1003.25 436.95 1004.58 436.51 1005.89 436.03 1007.19 435.52 1008.48 434.97 1009.75 434.38 1011 433.75 1012.23 433.1 1013.45 432.4 1014.64 431.67 1015.82 430.91 1016.97 430.12 1018.1 429.29 1019.2 428.43 1020.28 427.54 1021.33 426.62 1022.36 425.67 1023.36 424.69 1024.33 423.69 1025.27 422.65 1026.19 421.59 1027.07 420.51 1027.92 419.4 1028.74 418.26 1029.53 417.1 1030.28 415.93 1031 414.73 1031.68 413.51 1032.33 412.27 1032.95 411.01 1033.53 409.74 1034.07 408.45 1034.58 407.14 1035.04 405.82 1035.47 404.49 1035.87 403.15 1036.22 401.8 1036.54 400.43 1036.81 399.06 1037.05 397.68 1037.25 396.3 1037.41 394.91 1037.53 393.51 1037.61 392.12 1037.65 390.72 1037.65 389.32 1037.61 387.92 1037.53 386.53 1037.41 385.13 1037.25 383.74 1037.05 382.36 1036.81 380.98 1036.54 379.61 1036.22 378.24 1035.87 376.89 1035.47 375.55 1035.04 374.22 1034.58 372.9 1034.07 371.59 1033.53 370.3 1032.95 369.03 1032.33 367.77 1031.68 366.53 1031 365.31 1030.28 364.11 1029.53 362.94 1028.74 361.78 1027.92 360.64 1027.07 359.53 1026.19 358.45 1025.27 357.39 1024.33 356.35 1023.36 355.35 1022.36 354.37 1021.33 353.42 1020.28 352.5 1019.2 351.61 1018.1 350.75 1016.97 349.92 1015.82 349.13 1014.64 348.37 1013.45 347.64 1012.23 346.94 1011 346.29 1009.75 345.66 1008.48 345.07 1007.19 344.52 1005.89 344.01 1004.58 343.53 1003.25 343.09 1001.91 342.69 1000.56 342.32 999.2 342 997.83 341.71 996.45 341.47 995.07 341.26 993.68 341.09 992.28 340.96 990.89 340.87 989.49 340.82 988.09 340.81 986.69 340.84 985.29 340.91 983.9 341.02 982.51 341.17 981.12 341.36 979.74 341.58 978.37 341.85 977 342.16 975.65 342.5 974.3 342.88 972.97 343.31 971.65 343.76 970.34 344.26 969.04 344.79 967.77 345.36 966.51 345.97 965.26 346.61 964.04 347.29 962.83 348 961.65 348.74 960.49 349.52 959.35 350.33 958.23 351.18 957.14 352.05 956.07 352.95 955.03 353.89 954.02 354.85 953.03 355.85 952.07 356.87 951.15 357.91 950.25 358.99 949.38 360.09 948.55 361.21 947.74 362.35 946.97 363.52 946.24 364.71 945.53 365.92 944.87 367.15 944.23 368.4 943.64 369.66 943.08 370.95 942.55 372.24 942.07 373.55 941.62 374.88 941.21 376.22 940.83 377.57 940.5 378.92 940.2 380.29 939.94 381.67 939.73 383.05 939.55 384.44 939.41 385.83 939.31 387.22 939.25 388.62 939.23 390.02 M 939.23 1947.5 939.25 1948.9 939.31 1950.3 939.41 1951.69 939.55 1953.08 939.73 1954.47 939.94 1955.85 940.2 1957.23 940.5 1958.6 940.83 1959.95 941.21 1961.3 941.62 1962.64 942.07 1963.97 942.55 1965.28 943.08 1966.57 943.64 1967.86 944.23 1969.12 944.87 1970.37 945.53 1971.6 946.24 1972.81 946.97 1974 947.74 1975.17 948.55 1976.31 949.38 1977.43 950.25 1978.53 951.15 1979.61 952.07 1980.65 953.03 1981.67 954.02 1982.67 955.03 1983.63 956.07 1984.57 957.14 1985.47 958.23 1986.34 959.35 1987.19 960.49 1988 961.65 1988.78 962.83 1989.52 964.04 1990.23 965.26 1990.91 966.51 1991.55 967.77 1992.16 969.04 1992.73 970.34 1993.26 971.65 1993.76 972.97 1994.21 974.3 1994.64 975.65 1995.02 977 1995.36 978.37 1995.67 979.74 1995.94 981.12 1996.16 982.51 1996.35 983.9 1996.5 985.29 1996.61 986.69 1996.68 988.09 1996.71 989.49 1996.7 990.89 1996.65 992.28 1996.56 993.68 1996.43 995.07 1996.26 996.45 1996.05 997.83 1995.81 999.2 1995.52 1000.56 1995.2 1001.91 1994.83 1003.25 1994.43 1004.58 1993.99 1005.89 1993.51 1007.19 1993 1008.48 1992.45 1009.75 1991.86 1011 1991.23 1012.23 1990.58 1013.45 1989.88 1014.64 1989.15 1015.82 1988.39 1016.97 1987.6 1018.1 1986.77 1019.2 1985.91 1020.28 1985.02 1021.33 1984.1 1022.36 1983.15 1023.36 1982.17 1024.33 1981.17 1025.27 1980.13 1026.19 1979.07 1027.07 1977.99 1027.92 1976.88 1028.74 1975.74 1029.53 1974.58 1030.28 1973.41 1031 1972.21 1031.68 1970.99 1032.33 1969.75 1032.95 1968.49 1033.53 1967.22 1034.07 1965.93 1034.58 1964.62 1035.04 1963.3 1035.47 1961.97 1035.87 1960.63 1036.22 1959.28 1036.54 1957.91 1036.81 1956.54 1037.05 1955.16 1037.25 1953.78 1037.41 1952.39 1037.53 1950.99 1037.61 1949.6 1037.65 1948.2 1037.65 1946.8 1037.61 1945.4 1037.53 1944.01 1037.41 1942.61 1037.25 1941.22 1037.05 1939.84 1036.81 1938.46 1036.54 1937.09 1036.22 1935.72 1035.87 1934.37 1035.47 1933.03 1035.04 1931.7 1034.58 1930.38 1034.07 1929.07 1033.53 1927.78 1032.95 1926.51 1032.33 1925.25 1031.68 1924.01 1031 1922.79 1030.28 1921.59 1029.53 1920.42 1028.74 1919.26 1027.92 1918.12 1027.07 1917.01 1026.19 1915.93 1025.27 1914.87 1024.33 1913.83 1023.36 1912.83 1022.36 1911.85 1021.33 1910.9 1020.28 1909.98 1019.2 1909.09 1018.1 1908.23 1016.97 1907.4 1015.82 1906.61 1014.64 1905.85 1013.45 1905.12 1012.23 1904.42 1011 1903.77 1009.75 1903.14 1008.48 1902.55 1007.19 1902 1005.89 1901.49 1004.58 1901.01 1003.25 1900.57 1001.91 1900.17 1000.56 1899.8 999.2 1899.48 997.83 1899.19 996.45 1898.95 995.07 1898.74 993.68 1898.57 992.28 1898.44 990.89 1898.35 989.49 1898.3 988.09 1898.29 986.69 1898.32 985.29 1898.39 983.9 1898.5 982.51 1898.65 981.12 1898.84 979.74 1899.06 978.37 1899.33 977 1899.64 975.65 1899.98 974.3 1900.36 972.97 1900.79 971.65 1901.24 970.34 1901.74 969.04 1902.27 967.77 1902.84 966.51 1903.45 965.26 1904.09 964.04 1904.77 962.83 1905.48 961.65 1906.22 960.49 1907 959.35 1907.81 958.23 1908.66 957.14 1909.53 956.07 1910.43 955.03 1911.37 954.02 1912.33 953.03 1913.33 952.07 1914.35 951.15 1915.39 950.25 1916.47 949.38 1917.57 948.55 1918.69 947.74 1919.83 946.97 1921 946.24 1922.19 945.53 1923.4 944.87 1924.63 944.23 1925.88 943.64 1927.14 943.08 1928.43 942.55 1929.72 942.07 1931.03 941.62 1932.36 941.21 1933.7 940.83 1935.05 940.5 1936.4 940.2 1937.77 939.94 1939.15 939.73 1940.53 939.55 1941.92 939.41 1943.31 939.31 1944.7 939.25 1946.1 939.23 1947.5 M 1868.36 1947.5 1868.38 1948.9 1868.44 1950.3 1868.54 1951.69 1868.68 1953.08 1868.86 1954.47 1869.07 1955.85 1869.33 1957.23 1869.63 1958.6 1869.96 1959.95 1870.34 1961.3 1870.75 1962.64 1871.2 1963.97 1871.68 1965.28 1872.21 1966.57 1872.77 1967.86 1873.36 1969.12 1874 1970.37 1874.66 1971.6 1875.37 1972.81 1876.1 1974 1876.87 1975.17 1877.68 1976.31 1878.51 1977.43 1879.38 1978.53 1880.28 1979.61 1881.2 1980.65 1882.16 1981.67 1883.15 1982.67 1884.16 1983.63 1885.2 1984.57 1886.27 1985.47 1887.36 1986.34 1888.48 1987.19 1889.62 1988 1890.78 1988.78 1891.96 1989.52 1893.17 1990.23 1894.39 1990.91 1895.64 1991.55 1896.9 1992.16 1898.17 1992.73 1899.47 1993.26 1900.78 1993.76 1902.1 1994.21 1903.43 1994.64 1904.78 1995.02 1906.13 1995.36 1907.5 1995.67 1908.87 1995.94 1910.25 1996.16 1911.64 1996.35 1913.03 1996.5 1914.42 1996.61 1915.82 1996.68 1917.22 1996.71 1918.62 1996.7 1920.02 1996.65 1921.41 1996.56 1922.81 1996.43 1924.2 1996.26 1925.58 1996.05 1926.96 1995.81 1928.33 1995.52 1929.69 1995.2 1931.04 1994.83 1932.38 1994.43 1933.71 1993.99 1935.02 1993.51 1936.32 1993 1937.61 1992.45 1938.88 1991.86 1940.13 1991.23 1941.36 1990.58 1942.58 1989.88 1943.77 1989.15 1944.95 1988.39 1946.1 1987.6 1947.23 1986.77 1948.33 1985.91 1949.41 1985.02 1950.46 1984.1 1951.49 1983.15 1952.49 1982.17 1953.46 1981.17 1954.4 1980.13 1955.32 1979.07 1956.2 1977.99 1957.05 1976.88 1957.87 1975.74 1958.66 1974.58 1959.41 1973.41 1960.13 1972.21 1960.81 1970.99 1961.46 1969.75 1962.08 1968.49 1962.66 1967.22 1963.2 1965.93 1963.71 1964.62 1964.17 1963.3 1964.6 1961.97 1965 1960.63 1965.35 1959.28 1965.67 1957.91 1965.94 1956.54 1966.18 1955.16 1966.38 1953.78 1966.54 1952.39 1966.66 1950.99 1966.74 1949.6 1966.78 1948.2 1966.78 1946.8 1966.74 1945.4 1966.66 1944.01 1966.54 1942.61 1966.38 1941.22 1966.18 1939.84 1965.94 1938.46 1965.67 1937.09 1965.35 1935.72 1965 1934.37 1964.6 1933.03 1964.17 1931.7 1963.71 1930.38 1963.2 1929.07 1962.66 1927.78 1962.08 1926.51 1961.46 1925.25 1960.81 1924.01 1960.13 1922.79 1959.41 1921.59 1958.66 1920.42 1957.87 1919.26 1957.05 1918.12 1956.2 1917.01 1955.32 1915.93 1954.4 1914.87 1953.46 1913.83 1952.49 1912.83 1951.49 1911.85 1950.46 1910.9 1949.41 1909.98 1948.33 1909.09 1947.23 1908.23 1946.1 1907.4 1944.95 1906.61 1943.77 1905.85 1942.58 1905.12 1941.36 1904.42 1940.13 1903.77 1938.88 1903.14 1937.61 1902.55 1936.32 1902 1935.02 1901.49 1933.71 1901.01 1932.38 1900.57 1931.04 1900.17 1929.69 1899.8 1928.33 1899.48 1926.96 1899.19 1925.58 1898.95 1924.2 1898.74 1922.81 1898.57 1921.41 1898.44 1920.02 1898.35 1918.62 1898.3 1917.22 1898.29 1915.82 1898.32 1914.42 1898.39 1913.03 1898.5 1911.64 1898.65 1910.25 1898.84 1908.87 1899.06 1907.5 1899.33 1906.13 1899.64 1904.78 1899.98 1903.43 1900.36 1902.1 1900.79 1900.78 1901.24 1899.47 1901.74 1898.17 1902.27 1896.9 1902.84 1895.64 1903.45 1894.39 1904.09 1893.17 1904.77 1891.96 1905.48 1890.78 1906.22 1889.62 1907 1888.48 1907.81 1887.36 1908.66 1886.27 1909.53 1885.2 1910.43 1884.16 1911.37 1883.15 1912.33 1882.16 1913.33 1881.2 1914.35 1880.28 1915.39 1879.38 1916.47 1878.51 1917.57 1877.68 1918.69 1876.87 1919.83 1876.1 1921 1875.37 1922.19 1874.66 1923.4 1874 1924.63 1873.36 1925.88 1872.77 1927.14 1872.21 1928.43 1871.68 1929.72 1871.2 1931.03 1870.75 1932.36 1870.34 1933.7 1869.96 1935.05 1869.63 1936.4 1869.33 1937.77 1869.07 1939.15 1868.86 1940.53 1868.68 1941.92 1868.54 1943.31 1868.44 1944.7 1868.38 1946.1 1868.36 1947.5" fill="none" stroke-width="0.39"/><use xlink:href="#j_ApxthlTYLmtAfimA4L_pad-12" x="1349.66" y="1842.77"/><use xlink:href="#j_ApxthlTYLmtAfimA4L_pad-12" x="1300.45" y="1842.77"/><use xlink:href="#j_ApxthlTYLmtAfimA4L_pad-12" x="1251.24" y="1842.77"/><use xlink:href="#j_ApxthlTYLmtAfimA4L_pad-12" x="1251.24" y="1791.59"/><use xlink:href="#j_ApxthlTYLmtAfimA4L_pad-12" x="1300.45" y="1791.59"/><use xlink:href="#j_ApxthlTYLmtAfimA4L_pad-12" x="1349.66" y="1791.59"/><use xlink:href="#j_ApxthlTYLmtAfimA4L_pad-12" x="1408.72" y="1478.6"/><use xlink:href="#j_ApxthlTYLmtAfimA4L_pad-12" x="1408.72" y="1427.42"/><use xlink:href="#j_ApxthlTYLmtAfimA4L_pad-12" x="1453.01" y="1350.65"/><use xlink:href="#j_ApxthlTYLmtAfimA4L_pad-12" x="1453.01" y="1299.46"/><use xlink:href="#j_ApxthlTYLmtAfimA4L_pad-12" x="1516.98" y="1299.46"/><use xlink:href="#j_ApxthlTYLmtAfimA4L_pad-12" x="1516.98" y="1350.65"/><use xlink:href="#j_ApxthlTYLmtAfimA4L_pad-12" x="1295.53" y="1350.65"/><use xlink:href="#j_ApxthlTYLmtAfimA4L_pad-12" x="1295.53" y="1299.46"/><use xlink:href="#j_ApxthlTYLmtAfimA4L_pad-12" x="1251.24" y="1427.42"/><use xlink:href="#j_ApxthlTYLmtAfimA4L_pad-12" x="1251.24" y="1478.6"/><use xlink:href="#j_ApxthlTYLmtAfimA4L_pad-12" x="1521.91" y="1079.98"/><use xlink:href="#j_ApxthlTYLmtAfimA4L_pad-12" x="1580.96" y="1079.98"/><use xlink:href="#j_ApxthlTYLmtAfimA4L_pad-12" x="1580.96" y="1028.8"/><use xlink:href="#j_ApxthlTYLmtAfimA4L_pad-12" x="1521.91" y="1028.8"/><use xlink:href="#j_ApxthlTYLmtAfimA4L_pad-12" x="1551.43" y="956.94"/><use xlink:href="#j_ApxthlTYLmtAfimA4L_pad-12" x="1551.43" y="905.76"/><use xlink:href="#j_ApxthlTYLmtAfimA4L_pad-12" x="1438.24" y="905.76"/><use xlink:href="#j_ApxthlTYLmtAfimA4L_pad-12" x="1438.24" y="956.94"/><use xlink:href="#j_ApxthlTYLmtAfimA4L_pad-12" x="1261.08" y="956.94"/><use xlink:href="#j_ApxthlTYLmtAfimA4L_pad-12" x="1261.08" y="905.76"/><use xlink:href="#j_ApxthlTYLmtAfimA4L_pad-12" x="1640.02" y="1028.8"/><use xlink:href="#j_ApxthlTYLmtAfimA4L_pad-12" x="1640.02" y="1079.98"/><use xlink:href="#j_ApxthlTYLmtAfimA4L_pad-12" x="1713.83" y="956.94"/><use xlink:href="#j_ApxthlTYLmtAfimA4L_pad-12" x="1713.83" y="905.76"/><use xlink:href="#j_ApxthlTYLmtAfimA4L_pad-12" x="1644.94" y="755.17"/><use xlink:href="#j_ApxthlTYLmtAfimA4L_pad-12" x="1644.94" y="703.99"/><use xlink:href="#j_ApxthlTYLmtAfimA4L_pad-12" x="1787.65" y="703.99"/><use xlink:href="#j_ApxthlTYLmtAfimA4L_pad-12" x="1787.65" y="755.17"/><use xlink:href="#j_ApxthlTYLmtAfimA4L_pad-13" x="1851.63" y="2084.9"/><use xlink:href="#j_ApxthlTYLmtAfimA4L_pad-13" x="1851.63" y="2159.7"/><use xlink:href="#j_ApxthlTYLmtAfimA4L_pad-14" x="1636.08" y="1787.65"/><use xlink:href="#j_ApxthlTYLmtAfimA4L_pad-14" x="1584.9" y="1787.65"/><use xlink:href="#j_ApxthlTYLmtAfimA4L_pad-14" x="1584.9" y="1679.39"/><use xlink:href="#j_ApxthlTYLmtAfimA4L_pad-14" x="1636.08" y="1679.39"/><use xlink:href="#j_ApxthlTYLmtAfimA4L_pad-14" x="1636.08" y="1620.33"/><use xlink:href="#j_ApxthlTYLmtAfimA4L_pad-14" x="1584.9" y="1620.33"/><use xlink:href="#j_ApxthlTYLmtAfimA4L_pad-14" x="1693.17" y="1620.33"/><use xlink:href="#j_ApxthlTYLmtAfimA4L_pad-14" x="1744.35" y="1620.33"/><use xlink:href="#j_ApxthlTYLmtAfimA4L_pad-14" x="1744.35" y="1561.28"/><use xlink:href="#j_ApxthlTYLmtAfimA4L_pad-14" x="1693.17" y="1561.28"/><use xlink:href="#j_ApxthlTYLmtAfimA4L_pad-14" x="1712.85" y="847.69"/><use xlink:href="#j_ApxthlTYLmtAfimA4L_pad-14" x="1764.03" y="847.69"/><use xlink:href="#j_ApxthlTYLmtAfimA4L_pad-14" x="1621.31" y="537.65"/><use xlink:href="#j_ApxthlTYLmtAfimA4L_pad-14" x="1570.13" y="537.65"/><use xlink:href="#j_ApxthlTYLmtAfimA4L_pad-14" x="1271.91" y="522.89"/><use xlink:href="#j_ApxthlTYLmtAfimA4L_pad-14" x="1220.72" y="522.89"/><use xlink:href="#j_ApxthlTYLmtAfimA4L_pad-15" x="1580.96" y="1561.28"/><use xlink:href="#j_ApxthlTYLmtAfimA4L_pad-15" x="1640.02" y="1561.28"/><use xlink:href="#j_ApxthlTYLmtAfimA4L_pad-15" x="1679.39" y="1679.39"/><use xlink:href="#j_ApxthlTYLmtAfimA4L_pad-15" x="1738.44" y="1679.39"/><use xlink:href="#j_ApxthlTYLmtAfimA4L_pad-15" x="1640.02" y="1738.44"/><use xlink:href="#j_ApxthlTYLmtAfimA4L_pad-15" x="1580.96" y="1738.44"/><use xlink:href="#j_ApxthlTYLmtAfimA4L_pad-16" x="1450.83" y="1640.82"/><path d="M 1445.67 1701.18 1445.67 1732.78 1456.01 1732.78 1456.01 1701.18 1445.67 1701.18 M 1445.67 1703.34 1456.01 1703.34 M 1456.01 1705.5 1445.67 1705.5 M 1445.67 1707.66 1456.01 1707.66 M 1456.01 1709.82 1445.67 1709.82 M 1445.67 1711.98 1456.01 1711.98 M 1456.01 1714.14 1445.67 1714.14 M 1445.67 1716.3 1456.01 1716.3 M 1456.01 1718.46 1445.67 1718.46 M 1445.67 1720.62 1456.01 1720.62 M 1456.01 1722.78 1445.67 1722.78 M 1445.67 1724.94 1456.01 1724.94 M 1456.01 1727.1 1445.67 1727.1 M 1445.67 1729.26 1456.01 1729.26 M 1456.01 1731.42 1445.67 1731.42 M 1414.18 1732.78 1414.18 1701.18 M 1414.18 1732.78 1424.52 1732.78 1424.52 1701.18 1414.18 1701.18 M 1414.18 1703.34 1424.52 1703.34 M 1424.52 1705.5 1414.18 1705.5 M 1414.18 1707.66 1424.52 1707.66 M 1424.52 1709.82 1414.18 1709.82 M 1414.18 1711.98 1424.52 1711.98 M 1424.52 1714.14 1414.18 1714.14 M 1414.18 1716.3 1424.52 1716.3 M 1424.52 1718.46 1414.18 1718.46 M 1414.18 1720.62 1424.52 1720.62 M 1424.52 1722.78 1414.18 1722.78 M 1414.18 1724.94 1424.52 1724.94 M 1424.52 1727.1 1414.18 1727.1 M 1414.18 1729.26 1424.52 1729.26 M 1424.52 1731.42 1414.18 1731.42 M 1382.68 1732.78 1382.68 1701.18 M 1382.68 1732.78 1393.02 1732.78 1393.02 1701.18 1382.68 1701.18 M 1382.68 1703.34 1393.02 1703.34 M 1393.02 1705.5 1382.68 1705.5 M 1382.68 1707.66 1393.02 1707.66 M 1393.02 1709.82 1382.68 1709.82 M 1382.68 1711.98 1393.02 1711.98 M 1393.02 1714.14 1382.68 1714.14 M 1382.68 1716.3 1393.02 1716.3 M 1393.02 1718.46 1382.68 1718.46 M 1382.68 1720.62 1393.02 1720.62 M 1393.02 1722.78 1382.68 1722.78 M 1382.68 1724.94 1393.02 1724.94 M 1393.02 1727.1 1382.68 1727.1 M 1382.68 1729.26 1393.02 1729.26 M 1393.02 1731.42 1382.68 1731.42 M 1477.17 1732.78 1477.17 1701.18 M 1477.17 1732.78 1487.51 1732.78 1487.51 1701.18 1477.17 1701.18 M 1477.17 1703.34 1487.51 1703.34 M 1487.51 1705.5 1477.17 1705.5 M 1477.17 1707.66 1487.51 1707.66 M 1487.51 1709.82 1477.17 1709.82 M 1477.17 1711.98 1487.51 1711.98 M 1487.51 1714.14 1477.17 1714.14 M 1477.17 1716.3 1487.51 1716.3 M 1487.51 1718.46 1477.17 1718.46 M 1477.17 1720.62 1487.51 1720.62 M 1487.51 1722.78 1477.17 1722.78 M 1477.17 1724.94 1487.51 1724.94 M 1487.51 1727.1 1477.17 1727.1 M 1477.17 1729.26 1487.51 1729.26 M 1487.51 1731.42 1477.17 1731.42 M 1508.66 1732.78 1508.66 1701.18 M 1508.66 1732.78 1519 1732.78 1519 1701.18 1508.66 1701.18 M 1508.66 1703.34 1519 1703.34 M 1519 1705.5 1508.66 1705.5 M 1508.66 1707.66 1519 1707.66 M 1519 1709.82 1508.66 1709.82 M 1508.66 1711.98 1519 1711.98 M 1519 1714.14 1508.66 1714.14 M 1508.66 1716.3 1519 1716.3 M 1519 1718.46 1508.66 1718.46 M 1508.66 1720.62 1519 1720.62 M 1519 1722.78 1508.66 1722.78 M 1508.66 1724.94 1519 1724.94 M 1519 1727.1 1508.66 1727.1 M 1508.66 1729.26 1519 1729.26 M 1519 1731.42 1508.66 1731.42 M 1519 1580.42 1519 1548.82 1508.66 1548.82 1508.66 1580.42 1519 1580.42 M 1519 1550.98 1508.66 1550.98 M 1508.66 1553.14 1519 1553.14 M 1519 1555.3 1508.66 1555.3 M 1508.66 1557.46 1519 1557.46 M 1519 1559.62 1508.66 1559.62 M 1508.66 1561.78 1519 1561.78 M 1519 1563.94 1508.66 1563.94 M 1508.66 1566.1 1519 1566.1 M 1519 1568.26 1508.66 1568.26 M 1508.66 1570.42 1519 1570.42 M 1519 1572.58 1508.66 1572.58 M 1508.66 1574.74 1519 1574.74 M 1519 1576.9 1508.66 1576.9 M 1508.66 1579.06 1519 1579.06 M 1487.51 1580.42 1487.51 1548.82 1477.17 1548.82 1477.17 1580.42 1487.51 1580.42 M 1487.51 1550.98 1477.17 1550.98 M 1477.17 1553.14 1487.51 1553.14 M 1487.51 1555.3 1477.17 1555.3 M 1477.17 1557.46 1487.51 1557.46 M 1487.51 1559.62 1477.17 1559.62 M 1477.17 1561.78 1487.51 1561.78 M 1487.51 1563.94 1477.17 1563.94 M 1477.17 1566.1 1487.51 1566.1 M 1487.51 1568.26 1477.17 1568.26 M 1477.17 1570.42 1487.51 1570.42 M 1487.51 1572.58 1477.17 1572.58 M 1477.17 1574.74 1487.51 1574.74 M 1487.51 1576.9 1477.17 1576.9 M 1477.17 1579.06 1487.51 1579.06 M 1456.01 1580.42 1456.01 1548.82 1445.67 1548.82 1445.67 1580.42 1456.01 1580.42 M 1456.01 1550.98 1445.67 1550.98 M 1445.67 1553.14 1456.01 1553.14 M 1456.01 1555.3 1445.67 1555.3 M 1445.67 1557.46 1456.01 1557.46 M 1456.01 1559.62 1445.67 1559.62 M 1445.67 1561.78 1456.01 1561.78 M 1456.01 1563.94 1445.67 1563.94 M 1445.67 1566.1 1456.01 1566.1 M 1456.01 1568.26 1445.67 1568.26 M 1445.67 1570.42 1456.01 1570.42 M 1456.01 1572.58 1445.67 1572.58 M 1445.67 1574.74 1456.01 1574.74 M 1456.01 1576.9 1445.67 1576.9 M 1445.67 1579.06 1456.01 1579.06 M 1424.52 1580.42 1424.52 1548.82 1414.18 1548.82 1414.18 1580.42 1424.52 1580.42 M 1424.52 1550.98 1414.18 1550.98 M 1414.18 1553.14 1424.52 1553.14 M 1424.52 1555.3 1414.18 1555.3 M 1414.18 1557.46 1424.52 1557.46 M 1424.52 1559.62 1414.18 1559.62 M 1414.18 1561.78 1424.52 1561.78 M 1424.52 1563.94 1414.18 1563.94 M 1414.18 1566.1 1424.52 1566.1 M 1424.52 1568.26 1414.18 1568.26 M 1414.18 1570.42 1424.52 1570.42 M 1424.52 1572.58 1414.18 1572.58 M 1414.18 1574.74 1424.52 1574.74 M 1424.52 1576.9 1414.18 1576.9 M 1414.18 1579.06 1424.52 1579.06 M 1393.02 1580.42 1393.02 1548.82 1382.68 1548.82 1382.68 1580.42 1393.02 1580.42 M 1393.02 1550.98 1382.68 1550.98 M 1382.68 1553.14 1393.02 1553.14 M 1393.02 1555.3 1382.68 1555.3 M 1382.68 1557.46 1393.02 1557.46 M 1393.02 1559.62 1382.68 1559.62 M 1382.68 1561.78 1393.02 1561.78 M 1393.02 1563.94 1382.68 1563.94 M 1382.68 1566.1 1393.02 1566.1 M 1393.02 1568.26 1382.68 1568.26 M 1382.68 1570.42 1393.02 1570.42 M 1393.02 1572.58 1382.68 1572.58 M 1382.68 1574.74 1393.02 1574.74 M 1393.02 1576.9 1382.68 1576.9 M 1382.68 1579.06 1393.02 1579.06" fill="none" stroke-width="2.27"/><use xlink:href="#j_ApxthlTYLmtAfimA4L_pad-18" x="1192.97" y="2082.93"/><use xlink:href="#j_ApxthlTYLmtAfimA4L_pad-18" x="1713.05" y="2082.93"/><use xlink:href="#j_ApxthlTYLmtAfimA4L_pad-19" x="1635.09" y="1214.82"/><use xlink:href="#j_ApxthlTYLmtAfimA4L_pad-19" x="1585.88" y="1214.82"/><use xlink:href="#j_ApxthlTYLmtAfimA4L_pad-19" x="1585.88" y="1149.86"/><use xlink:href="#j_ApxthlTYLmtAfimA4L_pad-19" x="1635.09" y="1149.86"/><use xlink:href="#j_ApxthlTYLmtAfimA4L_pad-20" x="1521.91" y="1148.87"/><use xlink:href="#j_ApxthlTYLmtAfimA4L_pad-20" x="1521.91" y="1215.8"/><use xlink:href="#j_ApxthlTYLmtAfimA4L_pad-20" x="1379.19" y="974.66"/><use xlink:href="#j_ApxthlTYLmtAfimA4L_pad-20" x="1379.19" y="907.73"/><use xlink:href="#j_ApxthlTYLmtAfimA4L_pad-21" x="1405.19" y="1287.06"/><use xlink:href="#j_ApxthlTYLmtAfimA4L_pad-21" x="1353.19" y="1287.06"/><use xlink:href="#j_ApxthlTYLmtAfimA4L_pad-21" x="1353.19" y="1363.06"/><use xlink:href="#j_ApxthlTYLmtAfimA4L_pad-21" x="1379.19" y="1363.06"/><use xlink:href="#j_ApxthlTYLmtAfimA4L_pad-21" x="1405.19" y="1363.06"/><use xlink:href="#j_ApxthlTYLmtAfimA4L_pad-21" x="1247.71" y="1363.06"/><use xlink:href="#j_ApxthlTYLmtAfimA4L_pad-21" x="1221.71" y="1363.06"/><use xlink:href="#j_ApxthlTYLmtAfimA4L_pad-21" x="1195.71" y="1363.06"/><use xlink:href="#j_ApxthlTYLmtAfimA4L_pad-21" x="1195.71" y="1287.06"/><use xlink:href="#j_ApxthlTYLmtAfimA4L_pad-21" x="1247.71" y="1287.06"/><use xlink:href="#j_ApxthlTYLmtAfimA4L_pad-22" x="1300.45" y="1423.48"/><use xlink:href="#j_ApxthlTYLmtAfimA4L_pad-22" x="1300.45" y="1482.54"/><use xlink:href="#j_ApxthlTYLmtAfimA4L_pad-22" x="1457.93" y="1482.54"/><use xlink:href="#j_ApxthlTYLmtAfimA4L_pad-22" x="1457.93" y="1423.48"/><use xlink:href="#j_ApxthlTYLmtAfimA4L_pad-23" x="1054.39" y="578.99"/><use xlink:href="#j_ApxthlTYLmtAfimA4L_pad-23" x="1054.39" y="496.31"/><use xlink:href="#j_ApxthlTYLmtAfimA4L_pad-24" x="1608.52" y="911.67"/><use xlink:href="#j_ApxthlTYLmtAfimA4L_pad-24" x="1608.52" y="951.04"/><use xlink:href="#j_ApxthlTYLmtAfimA4L_pad-24" x="1661.67" y="951.04"/><use xlink:href="#j_ApxthlTYLmtAfimA4L_pad-24" x="1661.67" y="911.67"/><use xlink:href="#j_ApxthlTYLmtAfimA4L_pad-25" x="1691" y="700.06"/><use xlink:href="#j_ApxthlTYLmtAfimA4L_pad-25" x="1736.67" y="700.06"/><use xlink:href="#j_ApxthlTYLmtAfimA4L_pad-26" x="1550.84" y="706.94"/><use xlink:href="#j_ApxthlTYLmtAfimA4L_pad-26" x="1550.84" y="691.2"/><use xlink:href="#j_ApxthlTYLmtAfimA4L_pad-26" x="1550.84" y="675.45"/><use xlink:href="#j_ApxthlTYLmtAfimA4L_pad-26" x="1550.84" y="659.7"/><use xlink:href="#j_ApxthlTYLmtAfimA4L_pad-26" x="1550.84" y="643.95"/><use xlink:href="#j_ApxthlTYLmtAfimA4L_pad-26" x="1550.84" y="628.2"/><use xlink:href="#j_ApxthlTYLmtAfimA4L_pad-26" x="1550.84" y="722.69"/><use xlink:href="#j_ApxthlTYLmtAfimA4L_pad-26" x="1550.84" y="738.44"/><use xlink:href="#j_ApxthlTYLmtAfimA4L_pad-26" x="1550.84" y="754.19"/><use xlink:href="#j_ApxthlTYLmtAfimA4L_pad-26" x="1550.84" y="769.94"/><use xlink:href="#j_ApxthlTYLmtAfimA4L_pad-26" x="1550.84" y="785.69"/><use xlink:href="#j_ApxthlTYLmtAfimA4L_pad-26" x="1550.84" y="801.43"/><use xlink:href="#j_ApxthlTYLmtAfimA4L_pad-26" x="1325.65" y="801.43"/><use xlink:href="#j_ApxthlTYLmtAfimA4L_pad-26" x="1325.65" y="785.69"/><use xlink:href="#j_ApxthlTYLmtAfimA4L_pad-26" x="1325.65" y="769.94"/><use xlink:href="#j_ApxthlTYLmtAfimA4L_pad-26" x="1325.65" y="754.19"/><use xlink:href="#j_ApxthlTYLmtAfimA4L_pad-26" x="1325.65" y="738.44"/><use xlink:href="#j_ApxthlTYLmtAfimA4L_pad-26" x="1325.65" y="722.69"/><use xlink:href="#j_ApxthlTYLmtAfimA4L_pad-26" x="1325.65" y="706.94"/><use xlink:href="#j_ApxthlTYLmtAfimA4L_pad-26" x="1325.65" y="691.2"/><use xlink:href="#j_ApxthlTYLmtAfimA4L_pad-26" x="1325.65" y="675.45"/><use xlink:href="#j_ApxthlTYLmtAfimA4L_pad-26" x="1325.65" y="659.7"/><use xlink:href="#j_ApxthlTYLmtAfimA4L_pad-26" x="1325.65" y="643.95"/><use xlink:href="#j_ApxthlTYLmtAfimA4L_pad-26" x="1325.65" y="628.2"/><use xlink:href="#j_ApxthlTYLmtAfimA4L_pad-27" x="1351.63" y="602.22"/><use xlink:href="#j_ApxthlTYLmtAfimA4L_pad-27" x="1367.38" y="602.22"/><use xlink:href="#j_ApxthlTYLmtAfimA4L_pad-27" x="1383.13" y="602.22"/><use xlink:href="#j_ApxthlTYLmtAfimA4L_pad-27" x="1398.87" y="602.22"/><use xlink:href="#j_ApxthlTYLmtAfimA4L_pad-27" x="1414.62" y="602.22"/><use xlink:href="#j_ApxthlTYLmtAfimA4L_pad-27" x="1430.37" y="602.22"/><use xlink:href="#j_ApxthlTYLmtAfimA4L_pad-27" x="1446.12" y="602.22"/><use xlink:href="#j_ApxthlTYLmtAfimA4L_pad-27" x="1461.87" y="602.22"/><use xlink:href="#j_ApxthlTYLmtAfimA4L_pad-27" x="1477.61" y="602.22"/><use xlink:href="#j_ApxthlTYLmtAfimA4L_pad-27" x="1493.36" y="602.22"/><use xlink:href="#j_ApxthlTYLmtAfimA4L_pad-27" x="1509.11" y="602.22"/><use xlink:href="#j_ApxthlTYLmtAfimA4L_pad-27" x="1524.86" y="602.22"/><use xlink:href="#j_ApxthlTYLmtAfimA4L_pad-27" x="1524.86" y="827.42"/><use xlink:href="#j_ApxthlTYLmtAfimA4L_pad-27" x="1509.11" y="827.42"/><use xlink:href="#j_ApxthlTYLmtAfimA4L_pad-27" x="1493.36" y="827.42"/><use xlink:href="#j_ApxthlTYLmtAfimA4L_pad-27" x="1477.61" y="827.42"/><use xlink:href="#j_ApxthlTYLmtAfimA4L_pad-27" x="1461.87" y="827.42"/><use xlink:href="#j_ApxthlTYLmtAfimA4L_pad-27" x="1446.12" y="827.42"/><use xlink:href="#j_ApxthlTYLmtAfimA4L_pad-27" x="1430.37" y="827.42"/><use xlink:href="#j_ApxthlTYLmtAfimA4L_pad-27" x="1414.62" y="827.42"/><use xlink:href="#j_ApxthlTYLmtAfimA4L_pad-27" x="1398.87" y="827.42"/><use xlink:href="#j_ApxthlTYLmtAfimA4L_pad-27" x="1383.13" y="827.42"/><use xlink:href="#j_ApxthlTYLmtAfimA4L_pad-27" x="1367.38" y="827.42"/><use xlink:href="#j_ApxthlTYLmtAfimA4L_pad-27" x="1351.63" y="827.42"/><use xlink:href="#j_ApxthlTYLmtAfimA4L_pad-28" x="1392.97" y="760.09"/><use xlink:href="#j_ApxthlTYLmtAfimA4L_pad-28" x="1483.52" y="760.09"/><use xlink:href="#j_ApxthlTYLmtAfimA4L_pad-28" x="1483.52" y="669.54"/><use xlink:href="#j_ApxthlTYLmtAfimA4L_pad-28" x="1392.97" y="669.54"/><use xlink:href="#j_ApxthlTYLmtAfimA4L_pad-29" x="1729.58" y="577.02"/><use xlink:href="#j_ApxthlTYLmtAfimA4L_pad-29" x="1845.72" y="577.02"/><use xlink:href="#j_ApxthlTYLmtAfimA4L_pad-30" x="1787.65" y="637.06"/><path d="M 1475.25 1775.84 1460.29 1775.84 M 1460.29 1791.59 1475.25 1791.59 M 1475.65 1810.29 1475.65 1820.13 M 1459.9 1820.13 1459.9 1810.29 M 1426.43 1810.29 1426.43 1820.13 M 1410.69 1820.13 1410.69 1810.29 M 1411.08 1791.59 1426.04 1791.59 M 1426.04 1775.84 1411.08 1775.84" fill="none" stroke-width="7.48"/><use xlink:href="#j_ApxthlTYLmtAfimA4L_pad-32" x="1410.69" y="1838.83"/><use xlink:href="#j_ApxthlTYLmtAfimA4L_pad-32" x="1426.43" y="1838.83"/><use xlink:href="#j_ApxthlTYLmtAfimA4L_pad-32" x="1459.9" y="1838.83"/><use xlink:href="#j_ApxthlTYLmtAfimA4L_pad-32" x="1475.65" y="1838.83"/><use xlink:href="#j_ApxthlTYLmtAfimA4L_pad-33" x="1320.13" y="959.9"/><use xlink:href="#j_ApxthlTYLmtAfimA4L_pad-33" x="1320.13" y="902.81"/></g></svg>