<svg version="1.1" xmlns="http://www.w3.org/2000/svg" xmlns:xlink="http://www.w3.org/1999/xlink" stroke-linecap="round" stroke-linejoin="round" stroke-width="0" fill-rule="evenodd" width="1.4804000000000002in" height="2.0806999999999998in" viewBox="712.8 289.6 1480.4 2080.7" id="oFVtqxRxJGkx5Qs7Cr_D"><defs><circle cx="0" cy="0" r="6.1" id="oFVtqxRxJGkx5Qs7Cr_D_pad-1"/><circle cx="0" cy="0" r="6.9" id="oFVtqxRxJGkx5Qs7Cr_D_pad-2"/><circle cx="0" cy="0" r="10" id="oFVtqxRxJGkx5Qs7Cr_D_pad-3"/><circle cx="0" cy="0" r="13.8" id="oFVtqxRxJGkx5Qs7Cr_D_pad-4"/><circle cx="0" cy="0" r="19.7" id="oFVtqxRxJGkx5Qs7Cr_D_pad-5"/></defs><g transform="translate(0,2659.8999999999996) scale(1,-1)" fill="currentColor" stroke="currentColor"><use xlink:href="#oFVtqxRxJGkx5Qs7Cr_D_pad-1" x="1467.8" y="1753.2"/><use xlink:href="#oFVtqxRxJGkx5Qs7Cr_D_pad-1" x="1502.2" y="1541.6"/><use xlink:href="#oFVtqxRxJGkx5Qs7Cr_D_pad-2" x="877.2" y="340.8"/><use xlink:href="#oFVtqxRxJGkx5Qs7Cr_D_pad-2" x="985.5" y="518"/><use xlink:href="#oFVtqxRxJGkx5Qs7Cr_D_pad-2" x="1054.4" y="572.1"/><use xlink:href="#oFVtqxRxJGkx5Qs7Cr_D_pad-2" x="1147" y="548.4"/><use xlink:href="#oFVtqxRxJGkx5Qs7Cr_D_pad-2" x="1182.3" y="508.1"/><use xlink:href="#oFVtqxRxJGkx5Qs7Cr_D_pad-2" x="1157.7" y="488.4"/><use xlink:href="#oFVtqxRxJGkx5Qs7Cr_D_pad-2" x="1152.8" y="449.1"/><use xlink:href="#oFVtqxRxJGkx5Qs7Cr_D_pad-2" x="1211.9" y="449.1"/><use xlink:href="#oFVtqxRxJGkx5Qs7Cr_D_pad-2" x="1270.9" y="449.1"/><use xlink:href="#oFVtqxRxJGkx5Qs7Cr_D_pad-2" x="1330" y="449.1"/><use xlink:href="#oFVtqxRxJGkx5Qs7Cr_D_pad-2" x="1369.3" y="518"/><use xlink:href="#oFVtqxRxJGkx5Qs7Cr_D_pad-2" x="1351.6" y="562.3"/><use xlink:href="#oFVtqxRxJGkx5Qs7Cr_D_pad-2" x="1315.2" y="557.3"/><use xlink:href="#oFVtqxRxJGkx5Qs7Cr_D_pad-2" x="1256.2" y="591.8"/><use xlink:href="#oFVtqxRxJGkx5Qs7Cr_D_pad-2" x="1246.3" y="675.4"/><use xlink:href="#oFVtqxRxJGkx5Qs7Cr_D_pad-2" x="1389" y="665.6"/><use xlink:href="#oFVtqxRxJGkx5Qs7Cr_D_pad-2" x="1389" y="714.8"/><use xlink:href="#oFVtqxRxJGkx5Qs7Cr_D_pad-2" x="1389" y="764"/><use xlink:href="#oFVtqxRxJGkx5Qs7Cr_D_pad-2" x="1438.2" y="764"/><use xlink:href="#oFVtqxRxJGkx5Qs7Cr_D_pad-2" x="1487.5" y="764"/><use xlink:href="#oFVtqxRxJGkx5Qs7Cr_D_pad-2" x="1487.5" y="714.8"/><use xlink:href="#oFVtqxRxJGkx5Qs7Cr_D_pad-2" x="1438.2" y="714.8"/><use xlink:href="#oFVtqxRxJGkx5Qs7Cr_D_pad-2" x="1438.2" y="665.6"/><use xlink:href="#oFVtqxRxJGkx5Qs7Cr_D_pad-2" x="1487.5" y="665.6"/><use xlink:href="#oFVtqxRxJGkx5Qs7Cr_D_pad-2" x="1546.5" y="581.9"/><use xlink:href="#oFVtqxRxJGkx5Qs7Cr_D_pad-2" x="1576" y="591.1"/><use xlink:href="#oFVtqxRxJGkx5Qs7Cr_D_pad-2" x="1541.6" y="537.7"/><use xlink:href="#oFVtqxRxJGkx5Qs7Cr_D_pad-2" x="1487.5" y="557.3"/><use xlink:href="#oFVtqxRxJGkx5Qs7Cr_D_pad-2" x="1486.2" y="498.3"/><use xlink:href="#oFVtqxRxJGkx5Qs7Cr_D_pad-2" x="1571.1" y="463.8"/><use xlink:href="#oFVtqxRxJGkx5Qs7Cr_D_pad-2" x="1649.6" y="507.4"/><use xlink:href="#oFVtqxRxJGkx5Qs7Cr_D_pad-2" x="1673.6" y="425.3"/><use xlink:href="#oFVtqxRxJGkx5Qs7Cr_D_pad-2" x="1733.5" y="404.7"/><use xlink:href="#oFVtqxRxJGkx5Qs7Cr_D_pad-2" x="1768" y="399.9"/><use xlink:href="#oFVtqxRxJGkx5Qs7Cr_D_pad-2" x="1797.5" y="399.9"/><use xlink:href="#oFVtqxRxJGkx5Qs7Cr_D_pad-2" x="1758.1" y="340.8"/><use xlink:href="#oFVtqxRxJGkx5Qs7Cr_D_pad-2" x="1708.9" y="311.3"/><use xlink:href="#oFVtqxRxJGkx5Qs7Cr_D_pad-2" x="1846.7" y="321.1"/><use xlink:href="#oFVtqxRxJGkx5Qs7Cr_D_pad-2" x="1812.3" y="473.7"/><use xlink:href="#oFVtqxRxJGkx5Qs7Cr_D_pad-2" x="1777.8" y="493.4"/><use xlink:href="#oFVtqxRxJGkx5Qs7Cr_D_pad-2" x="1748.3" y="468.8"/><use xlink:href="#oFVtqxRxJGkx5Qs7Cr_D_pad-2" x="1866.4" y="493.4"/><use xlink:href="#oFVtqxRxJGkx5Qs7Cr_D_pad-2" x="1930.4" y="493.4"/><use xlink:href="#oFVtqxRxJGkx5Qs7Cr_D_pad-2" x="2023.9" y="331"/><use xlink:href="#oFVtqxRxJGkx5Qs7Cr_D_pad-2" x="1704" y="636.1"/><use xlink:href="#oFVtqxRxJGkx5Qs7Cr_D_pad-2" x="1708.9" y="660.7"/><use xlink:href="#oFVtqxRxJGkx5Qs7Cr_D_pad-2" x="1679.4" y="660.7"/><use xlink:href="#oFVtqxRxJGkx5Qs7Cr_D_pad-2" x="1649.9" y="660.7"/><use xlink:href="#oFVtqxRxJGkx5Qs7Cr_D_pad-2" x="1620.3" y="660.7"/><use xlink:href="#oFVtqxRxJGkx5Qs7Cr_D_pad-2" x="1659.7" y="607.7"/><use xlink:href="#oFVtqxRxJGkx5Qs7Cr_D_pad-2" x="1738.4" y="660.7"/><use xlink:href="#oFVtqxRxJGkx5Qs7Cr_D_pad-2" x="1738.4" y="739.4"/><use xlink:href="#oFVtqxRxJGkx5Qs7Cr_D_pad-2" x="1708.9" y="739.4"/><use xlink:href="#oFVtqxRxJGkx5Qs7Cr_D_pad-2" x="1679.4" y="739.4"/><use xlink:href="#oFVtqxRxJGkx5Qs7Cr_D_pad-2" x="1694.1" y="769"/><use xlink:href="#oFVtqxRxJGkx5Qs7Cr_D_pad-2" x="1664.6" y="798.5"/><use xlink:href="#oFVtqxRxJGkx5Qs7Cr_D_pad-2" x="1738.4" y="773.9"/><use xlink:href="#oFVtqxRxJGkx5Qs7Cr_D_pad-2" x="1768" y="739.4"/><use xlink:href="#oFVtqxRxJGkx5Qs7Cr_D_pad-2" x="1822.1" y="739.4"/><use xlink:href="#oFVtqxRxJGkx5Qs7Cr_D_pad-2" x="1827" y="709.9"/><use xlink:href="#oFVtqxRxJGkx5Qs7Cr_D_pad-2" x="1827" y="680.4"/><use xlink:href="#oFVtqxRxJGkx5Qs7Cr_D_pad-2" x="1827" y="650.8"/><use xlink:href="#oFVtqxRxJGkx5Qs7Cr_D_pad-2" x="1782.7" y="798.5"/><use xlink:href="#oFVtqxRxJGkx5Qs7Cr_D_pad-2" x="1610.5" y="739.4"/><use xlink:href="#oFVtqxRxJGkx5Qs7Cr_D_pad-2" x="1557.5" y="823.1"/><use xlink:href="#oFVtqxRxJGkx5Qs7Cr_D_pad-2" x="1531.7" y="864.3"/><use xlink:href="#oFVtqxRxJGkx5Qs7Cr_D_pad-2" x="1512.1" y="882.1"/><use xlink:href="#oFVtqxRxJGkx5Qs7Cr_D_pad-2" x="1526.8" y="906.7"/><use xlink:href="#oFVtqxRxJGkx5Qs7Cr_D_pad-2" x="1604.5" y="906.7"/><use xlink:href="#oFVtqxRxJGkx5Qs7Cr_D_pad-2" x="1660.8" y="951"/><use xlink:href="#oFVtqxRxJGkx5Qs7Cr_D_pad-2" x="1733.5" y="1069.1"/><use xlink:href="#oFVtqxRxJGkx5Qs7Cr_D_pad-2" x="1673.4" y="1079"/><use xlink:href="#oFVtqxRxJGkx5Qs7Cr_D_pad-2" x="1684.3" y="1123.3"/><use xlink:href="#oFVtqxRxJGkx5Qs7Cr_D_pad-2" x="1723.7" y="1143"/><use xlink:href="#oFVtqxRxJGkx5Qs7Cr_D_pad-2" x="1694.1" y="1256.2"/><use xlink:href="#oFVtqxRxJGkx5Qs7Cr_D_pad-2" x="1654.8" y="1330"/><use xlink:href="#oFVtqxRxJGkx5Qs7Cr_D_pad-2" x="1708.9" y="1344.7"/><use xlink:href="#oFVtqxRxJGkx5Qs7Cr_D_pad-2" x="1684.3" y="1457.9"/><use xlink:href="#oFVtqxRxJGkx5Qs7Cr_D_pad-2" x="1669.3" y="1531.5"/><use xlink:href="#oFVtqxRxJGkx5Qs7Cr_D_pad-2" x="1744.3" y="1620.3"/><use xlink:href="#oFVtqxRxJGkx5Qs7Cr_D_pad-2" x="1822.1" y="1684.3"/><use xlink:href="#oFVtqxRxJGkx5Qs7Cr_D_pad-2" x="1777.8" y="1753.2"/><use xlink:href="#oFVtqxRxJGkx5Qs7Cr_D_pad-2" x="1718.8" y="1792.6"/><use xlink:href="#oFVtqxRxJGkx5Qs7Cr_D_pad-2" x="1846.7" y="1792.6"/><use xlink:href="#oFVtqxRxJGkx5Qs7Cr_D_pad-2" x="1566.2" y="1959.9"/><use xlink:href="#oFVtqxRxJGkx5Qs7Cr_D_pad-2" x="1556.4" y="1881.2"/><use xlink:href="#oFVtqxRxJGkx5Qs7Cr_D_pad-2" x="1521.9" y="1846.7"/><use xlink:href="#oFVtqxRxJGkx5Qs7Cr_D_pad-2" x="1531.7" y="1812.3"/><use xlink:href="#oFVtqxRxJGkx5Qs7Cr_D_pad-2" x="1502.2" y="1763"/><use xlink:href="#oFVtqxRxJGkx5Qs7Cr_D_pad-2" x="1546.5" y="1708.9"/><use xlink:href="#oFVtqxRxJGkx5Qs7Cr_D_pad-2" x="1546.5" y="1684.3"/><use xlink:href="#oFVtqxRxJGkx5Qs7Cr_D_pad-2" x="1448.1" y="1679.4"/><use xlink:href="#oFVtqxRxJGkx5Qs7Cr_D_pad-2" x="1408.7" y="1679.4"/><use xlink:href="#oFVtqxRxJGkx5Qs7Cr_D_pad-2" x="1408.7" y="1640"/><use xlink:href="#oFVtqxRxJGkx5Qs7Cr_D_pad-2" x="1448.1" y="1640"/><use xlink:href="#oFVtqxRxJGkx5Qs7Cr_D_pad-2" x="1448.1" y="1600.6"/><use xlink:href="#oFVtqxRxJGkx5Qs7Cr_D_pad-2" x="1408.7" y="1600.6"/><use xlink:href="#oFVtqxRxJGkx5Qs7Cr_D_pad-2" x="1453" y="1526.8"/><use xlink:href="#oFVtqxRxJGkx5Qs7Cr_D_pad-2" x="1403.8" y="1512.1"/><use xlink:href="#oFVtqxRxJGkx5Qs7Cr_D_pad-2" x="1364.4" y="1462.9"/><use xlink:href="#oFVtqxRxJGkx5Qs7Cr_D_pad-2" x="1369.3" y="1418.6"/><use xlink:href="#oFVtqxRxJGkx5Qs7Cr_D_pad-2" x="1413.6" y="1389"/><use xlink:href="#oFVtqxRxJGkx5Qs7Cr_D_pad-2" x="1507.1" y="1398.9"/><use xlink:href="#oFVtqxRxJGkx5Qs7Cr_D_pad-2" x="1561.3" y="1467.8"/><use xlink:href="#oFVtqxRxJGkx5Qs7Cr_D_pad-2" x="1517" y="1299.5"/><use xlink:href="#oFVtqxRxJGkx5Qs7Cr_D_pad-2" x="1482.5" y="1275.8"/><use xlink:href="#oFVtqxRxJGkx5Qs7Cr_D_pad-2" x="1576" y="1266"/><use xlink:href="#oFVtqxRxJGkx5Qs7Cr_D_pad-2" x="1561.3" y="1216.8"/><use xlink:href="#oFVtqxRxJGkx5Qs7Cr_D_pad-2" x="1585.9" y="1149.9"/><use xlink:href="#oFVtqxRxJGkx5Qs7Cr_D_pad-2" x="1487.5" y="1024.9"/><use xlink:href="#oFVtqxRxJGkx5Qs7Cr_D_pad-2" x="1495.6" y="985.5"/><use xlink:href="#oFVtqxRxJGkx5Qs7Cr_D_pad-2" x="1379.2" y="906.7"/><use xlink:href="#oFVtqxRxJGkx5Qs7Cr_D_pad-2" x="1361.3" y="867.4"/><use xlink:href="#oFVtqxRxJGkx5Qs7Cr_D_pad-2" x="1330.4" y="862.8"/><use xlink:href="#oFVtqxRxJGkx5Qs7Cr_D_pad-2" x="1285.7" y="847.7"/><use xlink:href="#oFVtqxRxJGkx5Qs7Cr_D_pad-2" x="1261.1" y="1019.9"/><use xlink:href="#oFVtqxRxJGkx5Qs7Cr_D_pad-2" x="1330" y="1034.7"/><use xlink:href="#oFVtqxRxJGkx5Qs7Cr_D_pad-2" x="1364.4" y="1118.4"/><use xlink:href="#oFVtqxRxJGkx5Qs7Cr_D_pad-2" x="1413.6" y="1128.2"/><use xlink:href="#oFVtqxRxJGkx5Qs7Cr_D_pad-2" x="1384.1" y="1182.3"/><use xlink:href="#oFVtqxRxJGkx5Qs7Cr_D_pad-2" x="1379.2" y="1251.2"/><use xlink:href="#oFVtqxRxJGkx5Qs7Cr_D_pad-2" x="1344.7" y="1310.3"/><use xlink:href="#oFVtqxRxJGkx5Qs7Cr_D_pad-2" x="1295.5" y="1266"/><use xlink:href="#oFVtqxRxJGkx5Qs7Cr_D_pad-2" x="1221.7" y="1256.2"/><use xlink:href="#oFVtqxRxJGkx5Qs7Cr_D_pad-2" x="1172.1" y="1329.6"/><use xlink:href="#oFVtqxRxJGkx5Qs7Cr_D_pad-2" x="1256.2" y="1389"/><use xlink:href="#oFVtqxRxJGkx5Qs7Cr_D_pad-2" x="1197.1" y="1462.9"/><use xlink:href="#oFVtqxRxJGkx5Qs7Cr_D_pad-2" x="1325.1" y="1571.1"/><use xlink:href="#oFVtqxRxJGkx5Qs7Cr_D_pad-2" x="1295.5" y="1654.8"/><use xlink:href="#oFVtqxRxJGkx5Qs7Cr_D_pad-2" x="1241.4" y="1684.3"/><use xlink:href="#oFVtqxRxJGkx5Qs7Cr_D_pad-2" x="1256.2" y="1758.1"/><use xlink:href="#oFVtqxRxJGkx5Qs7Cr_D_pad-2" x="1295.5" y="1758.1"/><use xlink:href="#oFVtqxRxJGkx5Qs7Cr_D_pad-2" x="1216.8" y="1758.1"/><use xlink:href="#oFVtqxRxJGkx5Qs7Cr_D_pad-2" x="1177.4" y="1758.1"/><use xlink:href="#oFVtqxRxJGkx5Qs7Cr_D_pad-2" x="1044.5" y="1787.7"/><use xlink:href="#oFVtqxRxJGkx5Qs7Cr_D_pad-2" x="1034.7" y="1758.1"/><use xlink:href="#oFVtqxRxJGkx5Qs7Cr_D_pad-2" x="1019.9" y="1807.3"/><use xlink:href="#oFVtqxRxJGkx5Qs7Cr_D_pad-2" x="1029.8" y="1851.6"/><use xlink:href="#oFVtqxRxJGkx5Qs7Cr_D_pad-2" x="990.4" y="1851.6"/><use xlink:href="#oFVtqxRxJGkx5Qs7Cr_D_pad-2" x="1108.5" y="1955"/><use xlink:href="#oFVtqxRxJGkx5Qs7Cr_D_pad-2" x="1108.5" y="1905.8"/><use xlink:href="#oFVtqxRxJGkx5Qs7Cr_D_pad-2" x="1266" y="1989.4"/><use xlink:href="#oFVtqxRxJGkx5Qs7Cr_D_pad-2" x="1275.8" y="1905.8"/><use xlink:href="#oFVtqxRxJGkx5Qs7Cr_D_pad-2" x="1334.9" y="1905.8"/><use xlink:href="#oFVtqxRxJGkx5Qs7Cr_D_pad-2" x="1384.1" y="1763"/><use xlink:href="#oFVtqxRxJGkx5Qs7Cr_D_pad-2" x="1497.3" y="1886.1"/><use xlink:href="#oFVtqxRxJGkx5Qs7Cr_D_pad-2" x="1448.1" y="2082.9"/><use xlink:href="#oFVtqxRxJGkx5Qs7Cr_D_pad-2" x="1462.9" y="2171.5"/><use xlink:href="#oFVtqxRxJGkx5Qs7Cr_D_pad-2" x="1576" y="2092.8"/><use xlink:href="#oFVtqxRxJGkx5Qs7Cr_D_pad-2" x="1517" y="2284.7"/><use xlink:href="#oFVtqxRxJGkx5Qs7Cr_D_pad-2" x="1339.8" y="2304.4"/><use xlink:href="#oFVtqxRxJGkx5Qs7Cr_D_pad-2" x="1339.8" y="2333.9"/><use xlink:href="#oFVtqxRxJGkx5Qs7Cr_D_pad-2" x="1339.8" y="2363.4"/><use xlink:href="#oFVtqxRxJGkx5Qs7Cr_D_pad-2" x="1192.2" y="2363.4"/><use xlink:href="#oFVtqxRxJGkx5Qs7Cr_D_pad-2" x="1192.2" y="2333.9"/><use xlink:href="#oFVtqxRxJGkx5Qs7Cr_D_pad-2" x="1192.2" y="2304.4"/><use xlink:href="#oFVtqxRxJGkx5Qs7Cr_D_pad-2" x="1325.1" y="2186.3"/><use xlink:href="#oFVtqxRxJGkx5Qs7Cr_D_pad-2" x="857.5" y="2166.6"/><use xlink:href="#oFVtqxRxJGkx5Qs7Cr_D_pad-2" x="719.7" y="2294.5"/><use xlink:href="#oFVtqxRxJGkx5Qs7Cr_D_pad-2" x="872.3" y="2314.2"/><use xlink:href="#oFVtqxRxJGkx5Qs7Cr_D_pad-2" x="2186.3" y="2304.4"/><use xlink:href="#oFVtqxRxJGkx5Qs7Cr_D_pad-2" x="2048.5" y="2210.9"/><use xlink:href="#oFVtqxRxJGkx5Qs7Cr_D_pad-2" x="1945.1" y="2260.1"/><use xlink:href="#oFVtqxRxJGkx5Qs7Cr_D_pad-2" x="1989.4" y="2329"/><use xlink:href="#oFVtqxRxJGkx5Qs7Cr_D_pad-2" x="1231.6" y="1595.7"/><use xlink:href="#oFVtqxRxJGkx5Qs7Cr_D_pad-2" x="1305.4" y="1182.3"/><use xlink:href="#oFVtqxRxJGkx5Qs7Cr_D_pad-2" x="1280.8" y="1133.1"/><use xlink:href="#oFVtqxRxJGkx5Qs7Cr_D_pad-2" x="1138" y="1059.3"/><use xlink:href="#oFVtqxRxJGkx5Qs7Cr_D_pad-2" x="1162.7" y="350.6"/><use xlink:href="#oFVtqxRxJGkx5Qs7Cr_D_pad-2" x="1162.7" y="296.5"/><use xlink:href="#oFVtqxRxJGkx5Qs7Cr_D_pad-3" x="1167.2" y="600.1"/><use xlink:href="#oFVtqxRxJGkx5Qs7Cr_D_pad-3" x="1167.2" y="650.1"/><use xlink:href="#oFVtqxRxJGkx5Qs7Cr_D_pad-3" x="1167.2" y="700.1"/><use xlink:href="#oFVtqxRxJGkx5Qs7Cr_D_pad-3" x="1167.2" y="750.1"/><use xlink:href="#oFVtqxRxJGkx5Qs7Cr_D_pad-3" x="1167.2" y="800.1"/><use xlink:href="#oFVtqxRxJGkx5Qs7Cr_D_pad-3" x="1217.2" y="800.1"/><use xlink:href="#oFVtqxRxJGkx5Qs7Cr_D_pad-3" x="1217.2" y="750.1"/><use xlink:href="#oFVtqxRxJGkx5Qs7Cr_D_pad-3" x="1217.2" y="700.1"/><use xlink:href="#oFVtqxRxJGkx5Qs7Cr_D_pad-3" x="1217.2" y="650.1"/><use xlink:href="#oFVtqxRxJGkx5Qs7Cr_D_pad-3" x="1217.2" y="600.1"/><use xlink:href="#oFVtqxRxJGkx5Qs7Cr_D_pad-4" x="1407.1" y="395.3"/><use xlink:href="#oFVtqxRxJGkx5Qs7Cr_D_pad-4" x="1407.1" y="345.3"/><use xlink:href="#oFVtqxRxJGkx5Qs7Cr_D_pad-4" x="1457.1" y="345.3"/><use xlink:href="#oFVtqxRxJGkx5Qs7Cr_D_pad-4" x="1507.1" y="345.3"/><use xlink:href="#oFVtqxRxJGkx5Qs7Cr_D_pad-4" x="1507.1" y="395.3"/><use xlink:href="#oFVtqxRxJGkx5Qs7Cr_D_pad-4" x="1457.1" y="395.3"/><use xlink:href="#oFVtqxRxJGkx5Qs7Cr_D_pad-4" x="1557.1" y="395.3"/><use xlink:href="#oFVtqxRxJGkx5Qs7Cr_D_pad-4" x="1607.1" y="395.3"/><use xlink:href="#oFVtqxRxJGkx5Qs7Cr_D_pad-4" x="1607.1" y="345.3"/><use xlink:href="#oFVtqxRxJGkx5Qs7Cr_D_pad-4" x="1557.1" y="345.3"/><use xlink:href="#oFVtqxRxJGkx5Qs7Cr_D_pad-5" x="1111.9" y="331"/><use xlink:href="#oFVtqxRxJGkx5Qs7Cr_D_pad-5" x="1211.9" y="331"/><use xlink:href="#oFVtqxRxJGkx5Qs7Cr_D_pad-5" x="1311.9" y="331"/></g></svg>