<svg version="1.1" xmlns="http://www.w3.org/2000/svg" xmlns:xlink="http://www.w3.org/1999/xlink" stroke-linecap="round" stroke-linejoin="round" stroke-width="0" fill-rule="evenodd" width="2.2145799999999998in" height="2.12599in" viewBox="345.72 271.9 2214.58 2125.99" id="MgawPZ6VzXjvyb7edYKg"><defs><rect x="-7" y="-16.5" width="14" height="33" id="MgawPZ6VzXjvyb7edYKg_pad-15"/></defs><g transform="translate(0,2669.79) scale(1,-1)" fill="currentColor" stroke="currentColor"><path d="M 739.43 271.91 2166.59 271.91 M 1782.74 1197.11 1783.17 1229.28 1784.38 1261.43 1786.37 1293.54 1789.15 1325.59 1792.71 1357.56 1797.05 1389.44 1802.16 1421.2 1808.05 1452.83 1814.71 1484.31 1822.14 1515.61 1830.32 1546.72 1839.27 1577.63 1848.96 1608.3 1859.41 1638.73 1870.59 1668.9 1882.5 1698.78 1895.14 1728.37 1908.5 1757.64 1922.57 1786.57 1937.34 1815.15 1952.8 1843.36 1968.95 1871.19 1985.77 1898.61 2003.26 1925.62 2021.4 1952.19 2040.18 1978.31 2059.6 2003.96 2079.64 2029.13 2100.28 2053.81 2121.52 2077.97 2143.34 2101.61 2165.74 2124.71 2188.69 2147.25 2212.19 2169.23 2236.21 2190.63 2260.75 2211.43 2285.79 2231.63 2311.31 2251.21 2337.31 2270.17 2363.76 2288.48 2390.65 2306.15 2417.96 2323.15 2445.68 2339.48 2473.79 2355.12 2502.28 2370.08 2531.12 2384.34 2560.3 2397.89 M 2560.29 2397.89 345.72 2397.89 M 1123.28 1197.1 1122.79 1165 1121.51 1132.91 1119.45 1100.87 1116.61 1068.88 1112.99 1036.98 1108.6 1005.17 1103.43 973.48 1097.49 941.93 1090.78 910.53 1083.31 879.3 1075.08 848.26 1066.1 817.43 1056.37 786.84 1045.89 756.48 1034.68 726.39 1022.73 696.59 1010.07 667.08 996.69 637.89 982.6 609.04 967.81 580.54 952.33 552.41 936.17 524.66 919.34 497.31 901.85 470.39 883.71 443.9 864.92 417.85 845.51 392.28 825.48 367.18 804.84 342.58 783.61 318.49 761.8 294.93 739.42 271.9 M 1123.28 1197.11 1122.85 1229.28 1121.64 1261.43 1119.65 1293.54 1116.87 1325.59 1113.31 1357.56 1108.97 1389.44 1103.86 1421.2 1097.97 1452.83 1091.31 1484.31 1083.88 1515.61 1075.7 1546.72 1066.75 1577.63 1057.06 1608.3 1046.61 1638.73 1035.43 1668.9 1023.52 1698.78 1010.88 1728.37 997.52 1757.64 983.45 1786.57 968.68 1815.15 953.22 1843.36 937.07 1871.19 920.25 1898.61 902.76 1925.62 884.62 1952.19 865.84 1978.31 846.42 2003.96 826.38 2029.13 805.74 2053.81 784.5 2077.97 762.68 2101.61 740.28 2124.71 717.33 2147.25 693.83 2169.23 669.81 2190.63 645.27 2211.43 620.23 2231.63 594.71 2251.21 568.71 2270.17 542.26 2288.48 515.37 2306.15 488.06 2323.15 460.34 2339.48 432.23 2355.12 403.74 2370.08 374.9 2384.34 345.72 2397.89 M 1782.73 1197.1 1783.22 1165 1784.5 1132.91 1786.56 1100.87 1789.4 1068.88 1793.02 1036.98 1797.41 1005.17 1802.58 973.48 1808.52 941.93 1815.23 910.53 1822.7 879.3 1830.93 848.26 1839.91 817.43 1849.64 786.84 1860.12 756.48 1871.33 726.39 1883.28 696.59 1895.94 667.08 1909.32 637.89 1923.41 609.04 1938.2 580.54 1953.68 552.41 1969.84 524.66 1986.67 497.31 2004.16 470.39 2022.3 443.9 2041.09 417.85 2060.5 392.28 2080.53 367.18 2101.17 342.58 2122.4 318.49 2144.21 294.93 2166.59 271.9" fill="none" stroke-width="0"/><path d="M 1868.36 390.02 1868.38 391.42 1868.44 392.82 1868.54 394.21 1868.68 395.6 1868.86 396.99 1869.07 398.37 1869.33 399.75 1869.63 401.12 1869.96 402.47 1870.34 403.82 1870.75 405.16 1871.2 406.49 1871.68 407.8 1872.21 409.09 1872.77 410.38 1873.36 411.64 1874 412.89 1874.66 414.12 1875.37 415.33 1876.1 416.52 1876.87 417.69 1877.68 418.83 1878.51 419.95 1879.38 421.05 1880.28 422.13 1881.2 423.17 1882.16 424.19 1883.15 425.19 1884.16 426.15 1885.2 427.09 1886.27 427.99 1887.36 428.86 1888.48 429.71 1889.62 430.52 1890.78 431.3 1891.96 432.04 1893.17 432.75 1894.39 433.43 1895.64 434.07 1896.9 434.68 1898.17 435.25 1899.47 435.78 1900.78 436.28 1902.1 436.73 1903.43 437.16 1904.78 437.54 1906.13 437.88 1907.5 438.19 1908.87 438.46 1910.25 438.68 1911.64 438.87 1913.03 439.02 1914.42 439.13 1915.82 439.2 1917.22 439.23 1918.62 439.22 1920.02 439.17 1921.41 439.08 1922.81 438.95 1924.2 438.78 1925.58 438.57 1926.96 438.33 1928.33 438.04 1929.69 437.72 1931.04 437.35 1932.38 436.95 1933.71 436.51 1935.02 436.03 1936.32 435.52 1937.61 434.97 1938.88 434.38 1940.13 433.75 1941.36 433.1 1942.58 432.4 1943.77 431.67 1944.95 430.91 1946.1 430.12 1947.23 429.29 1948.33 428.43 1949.41 427.54 1950.46 426.62 1951.49 425.67 1952.49 424.69 1953.46 423.69 1954.4 422.65 1955.32 421.59 1956.2 420.51 1957.05 419.4 1957.87 418.26 1958.66 417.1 1959.41 415.93 1960.13 414.73 1960.81 413.51 1961.46 412.27 1962.08 411.01 1962.66 409.74 1963.2 408.45 1963.71 407.14 1964.17 405.82 1964.6 404.49 1965 403.15 1965.35 401.8 1965.67 400.43 1965.94 399.06 1966.18 397.68 1966.38 396.3 1966.54 394.91 1966.66 393.51 1966.74 392.12 1966.78 390.72 1966.78 389.32 1966.74 387.92 1966.66 386.53 1966.54 385.13 1966.38 383.74 1966.18 382.36 1965.94 380.98 1965.67 379.61 1965.35 378.24 1965 376.89 1964.6 375.55 1964.17 374.22 1963.71 372.9 1963.2 371.59 1962.66 370.3 1962.08 369.03 1961.46 367.77 1960.81 366.53 1960.13 365.31 1959.41 364.11 1958.66 362.94 1957.87 361.78 1957.05 360.64 1956.2 359.53 1955.32 358.45 1954.4 357.39 1953.46 356.35 1952.49 355.35 1951.49 354.37 1950.46 353.42 1949.41 352.5 1948.33 351.61 1947.23 350.75 1946.1 349.92 1944.95 349.13 1943.77 348.37 1942.58 347.64 1941.36 346.94 1940.13 346.29 1938.88 345.66 1937.61 345.07 1936.32 344.52 1935.02 344.01 1933.71 343.53 1932.38 343.09 1931.04 342.69 1929.69 342.32 1928.33 342 1926.96 341.71 1925.58 341.47 1924.2 341.26 1922.81 341.09 1921.41 340.96 1920.02 340.87 1918.62 340.82 1917.22 340.81 1915.82 340.84 1914.42 340.91 1913.03 341.02 1911.64 341.17 1910.25 341.36 1908.87 341.58 1907.5 341.85 1906.13 342.16 1904.78 342.5 1903.43 342.88 1902.1 343.31 1900.78 343.76 1899.47 344.26 1898.17 344.79 1896.9 345.36 1895.64 345.97 1894.39 346.61 1893.17 347.29 1891.96 348 1890.78 348.74 1889.62 349.52 1888.48 350.33 1887.36 351.18 1886.27 352.05 1885.2 352.95 1884.16 353.89 1883.15 354.85 1882.16 355.85 1881.2 356.87 1880.28 357.91 1879.38 358.99 1878.51 360.09 1877.68 361.21 1876.87 362.35 1876.1 363.52 1875.37 364.71 1874.66 365.92 1874 367.15 1873.36 368.4 1872.77 369.66 1872.21 370.95 1871.68 372.24 1871.2 373.55 1870.75 374.88 1870.34 376.22 1869.96 377.57 1869.63 378.92 1869.33 380.29 1869.07 381.67 1868.86 383.05 1868.68 384.44 1868.54 385.83 1868.44 387.22 1868.38 388.62 1868.36 390.02 M 939.23 390.02 939.25 391.42 939.31 392.82 939.41 394.21 939.55 395.6 939.73 396.99 939.94 398.37 940.2 399.75 940.5 401.12 940.83 402.47 941.21 403.82 941.62 405.16 942.07 406.49 942.55 407.8 943.08 409.09 943.64 410.38 944.23 411.64 944.87 412.89 945.53 414.12 946.24 415.33 946.97 416.52 947.74 417.69 948.55 418.83 949.38 419.95 950.25 421.05 951.15 422.13 952.07 423.17 953.03 424.19 954.02 425.19 955.03 426.15 956.07 427.09 957.14 427.99 958.23 428.86 959.35 429.71 960.49 430.52 961.65 431.3 962.83 432.04 964.04 432.75 965.26 433.43 966.51 434.07 967.77 434.68 969.04 435.25 970.34 435.78 971.65 436.28 972.97 436.73 974.3 437.16 975.65 437.54 977 437.88 978.37 438.19 979.74 438.46 981.12 438.68 982.51 438.87 983.9 439.02 985.29 439.13 986.69 439.2 988.09 439.23 989.49 439.22 990.89 439.17 992.28 439.08 993.68 438.95 995.07 438.78 996.45 438.57 997.83 438.33 999.2 438.04 1000.56 437.72 1001.91 437.35 1003.25 436.95 1004.58 436.51 1005.89 436.03 1007.19 435.52 1008.48 434.97 1009.75 434.38 1011 433.75 1012.23 433.1 1013.45 432.4 1014.64 431.67 1015.82 430.91 1016.97 430.12 1018.1 429.29 1019.2 428.43 1020.28 427.54 1021.33 426.62 1022.36 425.67 1023.36 424.69 1024.33 423.69 1025.27 422.65 1026.19 421.59 1027.07 420.51 1027.92 419.4 1028.74 418.26 1029.53 417.1 1030.28 415.93 1031 414.73 1031.68 413.51 1032.33 412.27 1032.95 411.01 1033.53 409.74 1034.07 408.45 1034.58 407.14 1035.04 405.82 1035.47 404.49 1035.87 403.15 1036.22 401.8 1036.54 400.43 1036.81 399.06 1037.05 397.68 1037.25 396.3 1037.41 394.91 1037.53 393.51 1037.61 392.12 1037.65 390.72 1037.65 389.32 1037.61 387.92 1037.53 386.53 1037.41 385.13 1037.25 383.74 1037.05 382.36 1036.81 380.98 1036.54 379.61 1036.22 378.24 1035.87 376.89 1035.47 375.55 1035.04 374.22 1034.58 372.9 1034.07 371.59 1033.53 370.3 1032.95 369.03 1032.33 367.77 1031.68 366.53 1031 365.31 1030.28 364.11 1029.53 362.94 1028.74 361.78 1027.92 360.64 1027.07 359.53 1026.19 358.45 1025.27 357.39 1024.33 356.35 1023.36 355.35 1022.36 354.37 1021.33 353.42 1020.28 352.5 1019.2 351.61 1018.1 350.75 1016.97 349.92 1015.82 349.13 1014.64 348.37 1013.45 347.64 1012.23 346.94 1011 346.29 1009.75 345.66 1008.48 345.07 1007.19 344.52 1005.89 344.01 1004.58 343.53 1003.25 343.09 1001.91 342.69 1000.56 342.32 999.2 342 997.83 341.71 996.45 341.47 995.07 341.26 993.68 341.09 992.28 340.96 990.89 340.87 989.49 340.82 988.09 340.81 986.69 340.84 985.29 340.91 983.9 341.02 982.51 341.17 981.12 341.36 979.74 341.58 978.37 341.85 977 342.16 975.65 342.5 974.3 342.88 972.97 343.31 971.65 343.76 970.34 344.26 969.04 344.79 967.77 345.36 966.51 345.97 965.26 346.61 964.04 347.29 962.83 348 961.65 348.74 960.49 349.52 959.35 350.33 958.23 351.18 957.14 352.05 956.07 352.95 955.03 353.89 954.02 354.85 953.03 355.85 952.07 356.87 951.15 357.91 950.25 358.99 949.38 360.09 948.55 361.21 947.74 362.35 946.97 363.52 946.24 364.71 945.53 365.92 944.87 367.15 944.23 368.4 943.64 369.66 943.08 370.95 942.55 372.24 942.07 373.55 941.62 374.88 941.21 376.22 940.83 377.57 940.5 378.92 940.2 380.29 939.94 381.67 939.73 383.05 939.55 384.44 939.41 385.83 939.31 387.22 939.25 388.62 939.23 390.02 M 939.23 1947.5 939.25 1948.9 939.31 1950.3 939.41 1951.69 939.55 1953.08 939.73 1954.47 939.94 1955.85 940.2 1957.23 940.5 1958.6 940.83 1959.95 941.21 1961.3 941.62 1962.64 942.07 1963.97 942.55 1965.28 943.08 1966.57 943.64 1967.86 944.23 1969.12 944.87 1970.37 945.53 1971.6 946.24 1972.81 946.97 1974 947.74 1975.17 948.55 1976.31 949.38 1977.43 950.25 1978.53 951.15 1979.61 952.07 1980.65 953.03 1981.67 954.02 1982.67 955.03 1983.63 956.07 1984.57 957.14 1985.47 958.23 1986.34 959.35 1987.19 960.49 1988 961.65 1988.78 962.83 1989.52 964.04 1990.23 965.26 1990.91 966.51 1991.55 967.77 1992.16 969.04 1992.73 970.34 1993.26 971.65 1993.76 972.97 1994.21 974.3 1994.64 975.65 1995.02 977 1995.36 978.37 1995.67 979.74 1995.94 981.12 1996.16 982.51 1996.35 983.9 1996.5 985.29 1996.61 986.69 1996.68 988.09 1996.71 989.49 1996.7 990.89 1996.65 992.28 1996.56 993.68 1996.43 995.07 1996.26 996.45 1996.05 997.83 1995.81 999.2 1995.52 1000.56 1995.2 1001.91 1994.83 1003.25 1994.43 1004.58 1993.99 1005.89 1993.51 1007.19 1993 1008.48 1992.45 1009.75 1991.86 1011 1991.23 1012.23 1990.58 1013.45 1989.88 1014.64 1989.15 1015.82 1988.39 1016.97 1987.6 1018.1 1986.77 1019.2 1985.91 1020.28 1985.02 1021.33 1984.1 1022.36 1983.15 1023.36 1982.17 1024.33 1981.17 1025.27 1980.13 1026.19 1979.07 1027.07 1977.99 1027.92 1976.88 1028.74 1975.74 1029.53 1974.58 1030.28 1973.41 1031 1972.21 1031.68 1970.99 1032.33 1969.75 1032.95 1968.49 1033.53 1967.22 1034.07 1965.93 1034.58 1964.62 1035.04 1963.3 1035.47 1961.97 1035.87 1960.63 1036.22 1959.28 1036.54 1957.91 1036.81 1956.54 1037.05 1955.16 1037.25 1953.78 1037.41 1952.39 1037.53 1950.99 1037.61 1949.6 1037.65 1948.2 1037.65 1946.8 1037.61 1945.4 1037.53 1944.01 1037.41 1942.61 1037.25 1941.22 1037.05 1939.84 1036.81 1938.46 1036.54 1937.09 1036.22 1935.72 1035.87 1934.37 1035.47 1933.03 1035.04 1931.7 1034.58 1930.38 1034.07 1929.07 1033.53 1927.78 1032.95 1926.51 1032.33 1925.25 1031.68 1924.01 1031 1922.79 1030.28 1921.59 1029.53 1920.42 1028.74 1919.26 1027.92 1918.12 1027.07 1917.01 1026.19 1915.93 1025.27 1914.87 1024.33 1913.83 1023.36 1912.83 1022.36 1911.85 1021.33 1910.9 1020.28 1909.98 1019.2 1909.09 1018.1 1908.23 1016.97 1907.4 1015.82 1906.61 1014.64 1905.85 1013.45 1905.12 1012.23 1904.42 1011 1903.77 1009.75 1903.14 1008.48 1902.55 1007.19 1902 1005.89 1901.49 1004.58 1901.01 1003.25 1900.57 1001.91 1900.17 1000.56 1899.8 999.2 1899.48 997.83 1899.19 996.45 1898.95 995.07 1898.74 993.68 1898.57 992.28 1898.44 990.89 1898.35 989.49 1898.3 988.09 1898.29 986.69 1898.32 985.29 1898.39 983.9 1898.5 982.51 1898.65 981.12 1898.84 979.74 1899.06 978.37 1899.33 977 1899.64 975.65 1899.98 974.3 1900.36 972.97 1900.79 971.65 1901.24 970.34 1901.74 969.04 1902.27 967.77 1902.84 966.51 1903.45 965.26 1904.09 964.04 1904.77 962.83 1905.48 961.65 1906.22 960.49 1907 959.35 1907.81 958.23 1908.66 957.14 1909.53 956.07 1910.43 955.03 1911.37 954.02 1912.33 953.03 1913.33 952.07 1914.35 951.15 1915.39 950.25 1916.47 949.38 1917.57 948.55 1918.69 947.74 1919.83 946.97 1921 946.24 1922.19 945.53 1923.4 944.87 1924.63 944.23 1925.88 943.64 1927.14 943.08 1928.43 942.55 1929.72 942.07 1931.03 941.62 1932.36 941.21 1933.7 940.83 1935.05 940.5 1936.4 940.2 1937.77 939.94 1939.15 939.73 1940.53 939.55 1941.92 939.41 1943.31 939.31 1944.7 939.25 1946.1 939.23 1947.5 M 1868.36 1947.5 1868.38 1948.9 1868.44 1950.3 1868.54 1951.69 1868.68 1953.08 1868.86 1954.47 1869.07 1955.85 1869.33 1957.23 1869.63 1958.6 1869.96 1959.95 1870.34 1961.3 1870.75 1962.64 1871.2 1963.97 1871.68 1965.28 1872.21 1966.57 1872.77 1967.86 1873.36 1969.12 1874 1970.37 1874.66 1971.6 1875.37 1972.81 1876.1 1974 1876.87 1975.17 1877.68 1976.31 1878.51 1977.43 1879.38 1978.53 1880.28 1979.61 1881.2 1980.65 1882.16 1981.67 1883.15 1982.67 1884.16 1983.63 1885.2 1984.57 1886.27 1985.47 1887.36 1986.34 1888.48 1987.19 1889.62 1988 1890.78 1988.78 1891.96 1989.52 1893.17 1990.23 1894.39 1990.91 1895.64 1991.55 1896.9 1992.16 1898.17 1992.73 1899.47 1993.26 1900.78 1993.76 1902.1 1994.21 1903.43 1994.64 1904.78 1995.02 1906.13 1995.36 1907.5 1995.67 1908.87 1995.94 1910.25 1996.16 1911.64 1996.35 1913.03 1996.5 1914.42 1996.61 1915.82 1996.68 1917.22 1996.71 1918.62 1996.7 1920.02 1996.65 1921.41 1996.56 1922.81 1996.43 1924.2 1996.26 1925.58 1996.05 1926.96 1995.81 1928.33 1995.52 1929.69 1995.2 1931.04 1994.83 1932.38 1994.43 1933.71 1993.99 1935.02 1993.51 1936.32 1993 1937.61 1992.45 1938.88 1991.86 1940.13 1991.23 1941.36 1990.58 1942.58 1989.88 1943.77 1989.15 1944.95 1988.39 1946.1 1987.6 1947.23 1986.77 1948.33 1985.91 1949.41 1985.02 1950.46 1984.1 1951.49 1983.15 1952.49 1982.17 1953.46 1981.17 1954.4 1980.13 1955.32 1979.07 1956.2 1977.99 1957.05 1976.88 1957.87 1975.74 1958.66 1974.58 1959.41 1973.41 1960.13 1972.21 1960.81 1970.99 1961.46 1969.75 1962.08 1968.49 1962.66 1967.22 1963.2 1965.93 1963.71 1964.62 1964.17 1963.3 1964.6 1961.97 1965 1960.63 1965.35 1959.28 1965.67 1957.91 1965.94 1956.54 1966.18 1955.16 1966.38 1953.78 1966.54 1952.39 1966.66 1950.99 1966.74 1949.6 1966.78 1948.2 1966.78 1946.8 1966.74 1945.4 1966.66 1944.01 1966.54 1942.61 1966.38 1941.22 1966.18 1939.84 1965.94 1938.46 1965.67 1937.09 1965.35 1935.72 1965 1934.37 1964.6 1933.03 1964.17 1931.7 1963.71 1930.38 1963.2 1929.07 1962.66 1927.78 1962.08 1926.51 1961.46 1925.25 1960.81 1924.01 1960.13 1922.79 1959.41 1921.59 1958.66 1920.42 1957.87 1919.26 1957.05 1918.12 1956.2 1917.01 1955.32 1915.93 1954.4 1914.87 1953.46 1913.83 1952.49 1912.83 1951.49 1911.85 1950.46 1910.9 1949.41 1909.98 1948.33 1909.09 1947.23 1908.23 1946.1 1907.4 1944.95 1906.61 1943.77 1905.85 1942.58 1905.12 1941.36 1904.42 1940.13 1903.77 1938.88 1903.14 1937.61 1902.55 1936.32 1902 1935.02 1901.49 1933.71 1901.01 1932.38 1900.57 1931.04 1900.17 1929.69 1899.8 1928.33 1899.48 1926.96 1899.19 1925.58 1898.95 1924.2 1898.74 1922.81 1898.57 1921.41 1898.44 1920.02 1898.35 1918.62 1898.3 1917.22 1898.29 1915.82 1898.32 1914.42 1898.39 1913.03 1898.5 1911.64 1898.65 1910.25 1898.84 1908.87 1899.06 1907.5 1899.33 1906.13 1899.64 1904.78 1899.98 1903.43 1900.36 1902.1 1900.79 1900.78 1901.24 1899.47 1901.74 1898.17 1902.27 1896.9 1902.84 1895.64 1903.45 1894.39 1904.09 1893.17 1904.77 1891.96 1905.48 1890.78 1906.22 1889.62 1907 1888.48 1907.81 1887.36 1908.66 1886.27 1909.53 1885.2 1910.43 1884.16 1911.37 1883.15 1912.33 1882.16 1913.33 1881.2 1914.35 1880.28 1915.39 1879.38 1916.47 1878.51 1917.57 1877.68 1918.69 1876.87 1919.83 1876.1 1921 1875.37 1922.19 1874.66 1923.4 1874 1924.63 1873.36 1925.88 1872.77 1927.14 1872.21 1928.43 1871.68 1929.72 1871.2 1931.03 1870.75 1932.36 1870.34 1933.7 1869.96 1935.05 1869.63 1936.4 1869.33 1937.77 1869.07 1939.15 1868.86 1940.53 1868.68 1941.92 1868.54 1943.31 1868.44 1944.7 1868.38 1946.1 1868.36 1947.5" fill="none" stroke-width="0.39"/><path d="M 1665.02 1729.39 1615.02 1729.39 1615.02 1629.39 1665.02 1629.39 1665.02 1729.39 M 1605.96 1729.39 1555.96 1729.39 1555.96 1629.39 1605.96 1629.39 1605.96 1729.39 M 1605.96 1621.12 1555.96 1621.12 1555.96 1521.12 1605.96 1521.12 1605.96 1621.12 M 1370.33 1746.31 1370.33 1888.05 1299.46 1888.05 1299.46 1746.31 1370.33 1746.31 M 1291.59 1746.31 1291.59 1888.05 1220.72 1888.05 1220.72 1746.31 1291.59 1746.31 M 1212.85 1746.31 1212.85 1888.05 1141.98 1888.05 1141.98 1746.31 1212.85 1746.31 M 1134.11 1746.31 1134.11 1888.05 1063.24 1888.05 1063.24 1746.31 1134.11 1746.31 M 1196.71 1375.06 1196.71 1275.06 1246.71 1275.06 1246.71 1375.06 1196.71 1375.06 M 1354.19 1375.06 1354.19 1275.06 1404.19 1275.06 1404.19 1375.06 1354.19 1375.06 M 1496.91 1104.39 1496.91 1004.39 1546.91 1004.39 1546.91 1104.39 1496.91 1104.39 M 1555.96 1104.39 1555.96 1004.39 1605.96 1004.39 1605.96 1104.39 1555.96 1104.39 M 1615.02 1104.39 1615.02 1004.39 1665.02 1004.39 1665.02 1104.39 1615.02 1104.39 M 1630.57 981.35 1580.57 981.35 1580.57 881.35 1630.57 881.35 1630.57 981.35 M 1639.62 981.35 1639.62 881.35 1689.62 881.35 1689.62 981.35 1639.62 981.35 M 1291 828.8 1291 728.8 1241 728.8 1241 828.8 1291 828.8 M 1081.94 600.65 1026.83 600.65 1026.83 474.66 1081.94 474.66 1081.94 600.65 M 1550.65 562.65 1550.65 512.65 1650.65 512.65 1650.65 562.65 1550.65 562.65" fill="none" stroke-width="8"/><path d="M 1665.59 546.5 1672.92 546.5 M 1665.59 546.5 1665.16 546.48 1664.74 546.43 1664.32 546.33 1663.92 546.21 1663.52 546.04 1663.15 545.84 1662.79 545.62 1662.45 545.36 1662.13 545.07 1661.84 544.75 1661.58 544.41 1661.36 544.06 1661.16 543.68 1660.99 543.28 1660.87 542.88 1660.77 542.46 1660.72 542.04 1660.7 541.61 1660.72 541.18 1660.77 540.76 1660.87 540.34 1660.99 539.94 1661.16 539.54 1661.36 539.17 1661.58 538.81 1661.84 538.47 1662.13 538.15 1662.45 537.86 1662.79 537.6 1663.15 537.38 1663.52 537.18 1663.92 537.01 1664.32 536.89 1664.74 536.79 1665.16 536.74 1665.59 536.72 1670.48 536.72 M 1666.81 536.72 1666.33 536.7 1665.85 536.64 1665.38 536.55 1664.92 536.42 1664.47 536.25 1664.04 536.05 1663.62 535.82 1663.22 535.55 1662.84 535.26 1662.49 534.93 1662.16 534.58 1661.87 534.2 1661.6 533.8 1661.37 533.38 1661.17 532.95 1661 532.5 1660.87 532.04 1660.78 531.57 1660.72 531.09 1660.7 530.61 1660.72 530.13 1660.78 529.65 1660.87 529.18 1661 528.72 1661.17 528.27 1661.37 527.84 1661.6 527.42 1661.87 527.02 1662.16 526.64 1662.49 526.29 1662.84 525.96 1663.22 525.67 1663.62 525.4 1664.04 525.17 1664.47 524.97 1664.92 524.8 1665.38 524.67 1665.85 524.58 1666.33 524.52 1666.81 524.5 1672.92 524.5 M 1682.3 529.38 1694.52 529.38 1689.63 546.5 M 1685.97 534.27 1685.97 524.5 M 1702.81 524.5 1707.7 524.5 M 1707.7 524.49 1708.13 524.51 1708.55 524.56 1708.97 524.66 1709.37 524.78 1709.77 524.95 1710.15 525.15 1710.5 525.37 1710.84 525.63 1711.16 525.92 1711.45 526.24 1711.71 526.58 1711.93 526.94 1712.13 527.31 1712.3 527.71 1712.42 528.11 1712.52 528.53 1712.57 528.95 1712.59 529.38 1712.59 541.61 1712.57 542.04 1712.52 542.46 1712.42 542.88 1712.3 543.28 1712.13 543.68 1711.93 544.06 1711.71 544.41 1711.45 544.75 1711.16 545.07 1710.84 545.36 1710.5 545.62 1710.15 545.84 1709.77 546.04 1709.37 546.21 1708.97 546.33 1708.55 546.43 1708.13 546.48 1707.7 546.5 1702.81 546.5 M 1668.58 824.33 1656.35 824.33 1655.92 824.35 1655.5 824.4 1655.08 824.5 1654.68 824.62 1654.28 824.79 1653.91 824.99 1653.55 825.21 1653.21 825.47 1652.89 825.76 1652.6 826.08 1652.34 826.42 1652.12 826.78 1651.92 827.15 1651.75 827.55 1651.63 827.95 1651.53 828.37 1651.48 828.79 1651.46 829.22 1651.46 834.11 M 1656.35 842.4 1656.35 854.62 M 1661.24 850.95 1651.46 850.95 M 1656.35 842.4 1673.46 847.29 M 1673.46 834.11 1673.46 829.22 M 1673.47 829.22 1673.45 828.79 1673.4 828.37 1673.3 827.95 1673.18 827.55 1673.01 827.15 1672.81 826.77 1672.59 826.42 1672.33 826.08 1672.04 825.76 1671.72 825.47 1671.38 825.21 1671.02 824.99 1670.65 824.79 1670.25 824.62 1669.85 824.5 1669.43 824.4 1669.01 824.35 1668.58 824.33 M 1668.58 864 1673.46 870.11 1651.46 870.11 M 1651.46 864 1651.46 876.22 M 1609.52 875 1597.3 865.22 M 1592.41 870.11 1592.43 870.51 1592.48 870.91 1592.57 871.3 1592.69 871.68 1592.85 872.05 1593.03 872.4 1593.25 872.74 1593.5 873.05 1593.77 873.34 1594.07 873.61 1594.39 873.85 1594.73 874.06 1595.09 874.24 1595.46 874.39 M 1592.41 870.11 1592.43 869.71 1592.48 869.31 1592.57 868.92 1592.69 868.54 1592.85 868.17 1593.03 867.82 1593.25 867.48 1593.5 867.17 1593.77 866.88 1594.07 866.61 1594.39 866.37 1594.73 866.16 1595.09 865.98 1595.46 865.83 M 1603.41 876.22 1604.23 876.2 1605.05 876.15 1605.87 876.05 1606.68 875.92 1607.49 875.76 1608.28 875.55 1609.07 875.31 1609.85 875.04 1610.61 874.73 1611.35 874.39 M 1611.36 874.39 1611.73 874.24 1612.09 874.06 1612.43 873.85 1612.75 873.61 1613.05 873.34 1613.32 873.05 1613.57 872.74 1613.79 872.4 1613.97 872.05 1614.13 871.68 1614.25 871.3 1614.34 870.91 1614.39 870.51 1614.41 870.11 1614.39 869.71 1614.34 869.31 1614.25 868.92 1614.13 868.54 1613.97 868.17 1613.79 867.82 1613.57 867.48 1613.32 867.17 1613.05 866.88 1612.75 866.61 1612.43 866.37 1612.09 866.16 1611.73 865.98 1611.36 865.83 M 1603.41 876.22 1602.59 876.2 1601.77 876.15 1600.95 876.05 1600.14 875.92 1599.33 875.76 1598.54 875.55 1597.75 875.31 1596.97 875.04 1596.21 874.73 1595.47 874.39 M 1603.41 864 1604.23 864.02 1605.05 864.07 1605.87 864.17 1606.68 864.3 1607.49 864.46 1608.28 864.67 1609.07 864.91 1609.85 865.18 1610.61 865.49 1611.35 865.83 M 1602.19 850.95 1592.41 850.95 M 1597.3 854.62 1597.3 842.4 1614.41 847.29 M 1614.41 834.11 1614.41 829.22 1614.39 828.79 1614.34 828.37 1614.24 827.95 1614.12 827.55 1613.95 827.15 1613.75 826.77 1613.53 826.42 1613.27 826.08 1612.98 825.76 1612.66 825.47 1612.32 825.21 1611.96 824.99 1611.59 824.79 1611.19 824.62 1610.79 824.5 1610.37 824.4 1609.95 824.35 1609.52 824.33 1597.3 824.33 1596.87 824.35 1596.45 824.4 1596.03 824.5 1595.63 824.62 1595.23 824.79 1594.86 824.99 1594.5 825.21 1594.16 825.47 1593.84 825.76 1593.55 826.08 1593.29 826.42 1593.07 826.78 1592.87 827.15 1592.7 827.55 1592.58 827.95 1592.48 828.37 1592.43 828.79 1592.41 829.22 1592.41 834.11 M 1603.41 864 1602.59 864.02 1601.77 864.07 1600.95 864.17 1600.14 864.3 1599.33 864.46 1598.54 864.67 1597.75 864.91 1596.97 865.18 1596.21 865.49 1595.47 865.83 M 1594.12 1114.44 1572.12 1114.44 M 1581.9 1114.44 1581.9 1120.55 M 1581.9 1121.77 1572.12 1126.66 M 1572.12 1138.34 1572.14 1138.95 1572.2 1139.57 1572.29 1140.17 1572.43 1140.77 1572.6 1141.36 1572.81 1141.94 1573.05 1142.5 1573.33 1143.05 1573.64 1143.58 1573.99 1144.09 1574.36 1144.57 1574.77 1145.03 1575.21 1145.47 1575.67 1145.88 1576.15 1146.25 1576.66 1146.6 1577.19 1146.91 1577.74 1147.19 1578.3 1147.43 1578.88 1147.64 1579.47 1147.81 1580.07 1147.95 1580.67 1148.04 1581.29 1148.1 1581.9 1148.12 1588.01 1148.12 1588.49 1148.1 1588.97 1148.04 1589.44 1147.95 1589.9 1147.82 1590.35 1147.65 1590.78 1147.45 1591.2 1147.22 1591.6 1146.95 1591.98 1146.66 1592.33 1146.33 1592.66 1145.98 1592.95 1145.6 1593.22 1145.2 1593.45 1144.78 1593.65 1144.35 1593.82 1143.9 1593.95 1143.44 1594.04 1142.97 1594.1 1142.49 1594.12 1142.01 1594.1 1141.53 1594.04 1141.05 1593.95 1140.58 1593.82 1140.12 1593.65 1139.67 1593.45 1139.24 1593.22 1138.82 1592.95 1138.42 1592.66 1138.04 1592.33 1137.69 1591.98 1137.36 1591.6 1137.07 1591.2 1136.8 1590.78 1136.57 1590.35 1136.37 1589.9 1136.2 1589.44 1136.07 1588.97 1135.98 1588.49 1135.92 1588.01 1135.9 1586.78 1135.9 1586.35 1135.92 1585.93 1135.97 1585.51 1136.07 1585.11 1136.19 1584.71 1136.36 1584.34 1136.56 1583.98 1136.78 1583.64 1137.04 1583.32 1137.33 1583.03 1137.65 1582.77 1137.99 1582.55 1138.34 1582.35 1138.72 1582.18 1139.12 1582.06 1139.52 1581.96 1139.94 1581.91 1140.36 1581.89 1140.79 M 1581.9 1140.79 1581.9 1148.12 M 1581.9 1120.55 1581.92 1121.03 1581.98 1121.51 1582.07 1121.98 1582.2 1122.44 1582.37 1122.89 1582.57 1123.32 1582.8 1123.74 1583.07 1124.14 1583.36 1124.52 1583.69 1124.87 1584.04 1125.2 1584.42 1125.49 1584.82 1125.76 1585.24 1125.99 1585.67 1126.19 1586.12 1126.36 1586.58 1126.49 1587.05 1126.58 1587.53 1126.64 1588.01 1126.66 1588.49 1126.64 1588.97 1126.58 1589.44 1126.49 1589.9 1126.36 1590.35 1126.19 1590.78 1125.99 1591.2 1125.76 1591.6 1125.49 1591.98 1125.2 1592.33 1124.87 1592.66 1124.52 1592.95 1124.14 1593.22 1123.74 1593.45 1123.32 1593.65 1122.89 1593.82 1122.44 1593.95 1121.98 1594.04 1121.51 1594.1 1121.03 1594.12 1120.55 1594.12 1114.44 M 1631.17 1114.44 1653.17 1114.44 1653.17 1120.55 1653.15 1121.03 1653.09 1121.51 1653 1121.98 1652.87 1122.44 1652.7 1122.89 1652.5 1123.32 1652.27 1123.74 1652 1124.14 1651.71 1124.52 1651.38 1124.87 1651.03 1125.2 1650.65 1125.49 1650.25 1125.76 1649.83 1125.99 1649.4 1126.19 1648.95 1126.36 1648.49 1126.49 1648.02 1126.58 1647.54 1126.64 1647.06 1126.66 1646.58 1126.64 1646.1 1126.58 1645.63 1126.49 1645.17 1126.36 1644.72 1126.19 1644.29 1125.99 1643.87 1125.76 1643.47 1125.49 1643.09 1125.2 1642.74 1124.87 1642.41 1124.52 1642.12 1124.14 1641.85 1123.74 1641.62 1123.32 1641.42 1122.89 1641.25 1122.44 1641.12 1121.98 1641.03 1121.51 1640.97 1121.03 1640.95 1120.55 1640.95 1114.44 M 1640.95 1121.77 1631.17 1126.66 M 1631.17 1135.9 1631.17 1148.12 M 1631.17 1142.01 1653.17 1142.01 1648.28 1135.9 M 1642.17 1169.72 1641.35 1169.7 1640.53 1169.65 1639.71 1169.55 1638.9 1169.42 1638.09 1169.26 1637.3 1169.05 1636.51 1168.81 1635.73 1168.54 1634.97 1168.23 1634.23 1167.89 1633.86 1167.74 1633.5 1167.56 1633.16 1167.35 1632.84 1167.11 1632.54 1166.84 1632.27 1166.55 1632.02 1166.24 1631.8 1165.9 1631.62 1165.55 1631.46 1165.18 1631.34 1164.8 1631.25 1164.41 1631.2 1164.01 1631.18 1163.61 1631.2 1163.21 1631.25 1162.81 1631.34 1162.42 1631.46 1162.04 1631.62 1161.67 1631.8 1161.32 1632.02 1160.98 1632.27 1160.67 1632.54 1160.38 1632.84 1160.11 1633.16 1159.87 1633.5 1159.66 1633.86 1159.48 1634.23 1159.33 M 1636.06 1158.72 1648.28 1168.5 M 1650.12 1167.89 1650.49 1167.74 1650.85 1167.56 1651.19 1167.35 1651.51 1167.11 1651.81 1166.84 1652.08 1166.55 1652.33 1166.24 1652.55 1165.9 1652.73 1165.55 1652.89 1165.18 1653.01 1164.8 1653.1 1164.41 1653.15 1164.01 1653.17 1163.61 1653.15 1163.21 1653.1 1162.81 1653.01 1162.42 1652.89 1162.04 1652.73 1161.67 1652.55 1161.32 1652.33 1160.98 1652.08 1160.67 1651.81 1160.38 1651.51 1160.11 1651.19 1159.87 1650.85 1159.66 1650.49 1159.48 1650.12 1159.33 M 1650.11 1167.89 1649.37 1168.23 1648.61 1168.54 1647.83 1168.81 1647.04 1169.05 1646.25 1169.26 1645.44 1169.42 1644.63 1169.55 1643.81 1169.65 1642.99 1169.7 1642.17 1169.72 M 1642.17 1157.5 1642.99 1157.52 1643.81 1157.57 1644.63 1157.67 1645.44 1157.8 1646.25 1157.96 1647.04 1158.17 1647.83 1158.41 1648.61 1158.68 1649.37 1158.99 1650.11 1159.33 M 1642.17 1157.5 1641.35 1157.52 1640.53 1157.57 1639.71 1157.67 1638.9 1157.8 1638.09 1157.96 1637.3 1158.17 1636.51 1158.41 1635.73 1158.68 1634.97 1158.99 1634.23 1159.33 M 1535.06 1137.39 1517.95 1132.5 1517.95 1144.73 M 1522.84 1141.06 1513.06 1141.06 M 1513.06 1124.22 1513.06 1119.33 1513.08 1118.9 1513.13 1118.48 1513.23 1118.06 1513.35 1117.66 1513.52 1117.26 1513.72 1116.89 1513.94 1116.53 1514.2 1116.19 1514.49 1115.87 1514.81 1115.58 1515.15 1115.32 1515.51 1115.1 1515.88 1114.9 1516.28 1114.73 1516.68 1114.61 1517.1 1114.51 1517.52 1114.46 1517.95 1114.44 1530.17 1114.44 1530.6 1114.46 1531.02 1114.51 1531.44 1114.61 1531.84 1114.73 1532.24 1114.9 1532.61 1115.1 1532.97 1115.32 1533.31 1115.58 1533.63 1115.87 1533.92 1116.19 1534.18 1116.53 1534.4 1116.88 1534.6 1117.26 1534.77 1117.66 1534.89 1118.06 1534.99 1118.48 1535.04 1118.9 1535.06 1119.33 1535.06 1124.22 M 1382.54 1385.11 1370.31 1385.11 1369.88 1385.13 1369.46 1385.18 1369.04 1385.28 1368.64 1385.4 1368.24 1385.57 1367.87 1385.77 1367.51 1385.99 1367.17 1386.25 1366.85 1386.54 1366.56 1386.86 1366.3 1387.2 1366.08 1387.56 1365.88 1387.93 1365.71 1388.33 1365.59 1388.73 1365.49 1389.15 1365.44 1389.57 1365.42 1390 M 1365.43 1390 1365.43 1394.89 M 1365.43 1403.17 1365.43 1415.4 M 1365.43 1424.77 1365.43 1437 M 1365.43 1424.77 1377.65 1435.16 M 1387.43 1431.5 1387.41 1430.98 1387.35 1430.46 1387.26 1429.94 1387.12 1429.44 1386.95 1428.94 1386.74 1428.46 1386.5 1428 1386.23 1427.56 1385.92 1427.13 1385.58 1426.73 1385.22 1426.36 1384.82 1426.02 1384.4 1425.7 1383.97 1425.42 1383.51 1425.17 1383.03 1424.95 1382.54 1424.77 M 1377.65 1435.17 1377.99 1435.5 1378.36 1435.8 1378.76 1436.08 1379.17 1436.32 1379.6 1436.52 1380.05 1436.69 1380.51 1436.83 1380.98 1436.92 1381.45 1436.98 1381.93 1437 1382.38 1436.98 1382.84 1436.92 1383.28 1436.83 1383.72 1436.7 1384.14 1436.54 1384.55 1436.34 1384.94 1436.1 1385.31 1435.84 1385.66 1435.55 1385.98 1435.23 1386.27 1434.88 1386.53 1434.51 1386.77 1434.12 1386.97 1433.71 1387.13 1433.29 1387.26 1432.85 1387.35 1432.41 1387.41 1431.95 1387.43 1431.5 M 1377.65 1413.56 1365.43 1403.17 M 1382.54 1403.17 1383.03 1403.35 1383.51 1403.57 1383.97 1403.82 1384.4 1404.1 1384.82 1404.42 1385.22 1404.76 1385.58 1405.13 1385.92 1405.53 1386.23 1405.96 1386.5 1406.4 1386.74 1406.86 1386.95 1407.34 1387.12 1407.84 1387.26 1408.34 1387.35 1408.86 1387.41 1409.38 1387.43 1409.9 1387.41 1410.35 1387.35 1410.81 1387.26 1411.25 1387.13 1411.69 1386.97 1412.11 1386.77 1412.52 1386.53 1412.91 1386.27 1413.28 1385.98 1413.63 1385.66 1413.95 1385.31 1414.24 1384.94 1414.5 1384.55 1414.74 1384.14 1414.94 1383.72 1415.1 1383.28 1415.23 1382.84 1415.32 1382.38 1415.38 1381.93 1415.4 1381.45 1415.38 1380.98 1415.32 1380.51 1415.23 1380.05 1415.09 1379.6 1414.92 1379.17 1414.72 1378.76 1414.48 1378.36 1414.2 1377.99 1413.9 1377.65 1413.57 M 1387.43 1394.89 1387.43 1390 1387.41 1389.57 1387.36 1389.15 1387.26 1388.73 1387.14 1388.33 1386.97 1387.93 1386.77 1387.55 1386.55 1387.2 1386.29 1386.86 1386 1386.54 1385.68 1386.25 1385.34 1385.99 1384.98 1385.77 1384.61 1385.57 1384.21 1385.4 1383.81 1385.28 1383.39 1385.18 1382.97 1385.13 1382.54 1385.11 M 1229.94 1390 1229.94 1394.89 M 1229.95 1390 1229.93 1389.57 1229.88 1389.15 1229.78 1388.73 1229.66 1388.33 1229.49 1387.93 1229.29 1387.55 1229.07 1387.2 1228.81 1386.86 1228.52 1386.54 1228.2 1386.25 1227.86 1385.99 1227.5 1385.77 1227.13 1385.57 1226.73 1385.4 1226.33 1385.28 1225.91 1385.18 1225.49 1385.13 1225.06 1385.11 1212.83 1385.11 1212.4 1385.13 1211.98 1385.18 1211.56 1385.28 1211.16 1385.4 1210.76 1385.57 1210.39 1385.77 1210.03 1385.99 1209.69 1386.25 1209.37 1386.54 1209.08 1386.86 1208.82 1387.2 1208.6 1387.56 1208.4 1387.93 1208.23 1388.33 1208.11 1388.73 1208.01 1389.15 1207.96 1389.57 1207.94 1390 1207.94 1394.89 M 1207.94 1403.17 1207.94 1415.4 M 1207.94 1424.77 1207.94 1437 M 1207.94 1430.89 1229.94 1430.89 1225.06 1424.77 M 1220.17 1413.56 1207.94 1403.17 M 1225.06 1403.17 1225.55 1403.35 1226.03 1403.57 1226.49 1403.82 1226.92 1404.1 1227.34 1404.42 1227.74 1404.76 1228.1 1405.13 1228.44 1405.53 1228.75 1405.96 1229.02 1406.4 1229.26 1406.86 1229.47 1407.34 1229.64 1407.84 1229.78 1408.34 1229.87 1408.86 1229.93 1409.38 1229.95 1409.9 M 1229.94 1409.9 1229.92 1410.35 1229.86 1410.81 1229.77 1411.25 1229.64 1411.69 1229.48 1412.11 1229.28 1412.52 1229.04 1412.91 1228.78 1413.28 1228.49 1413.63 1228.17 1413.95 1227.82 1414.24 1227.45 1414.5 1227.06 1414.74 1226.65 1414.94 1226.23 1415.1 1225.79 1415.23 1225.35 1415.32 1224.89 1415.38 1224.44 1415.4 1223.96 1415.38 1223.49 1415.32 1223.02 1415.23 1222.56 1415.09 1222.11 1414.92 1221.68 1414.72 1221.27 1414.48 1220.87 1414.2 1220.5 1413.9 1220.16 1413.57 M 1567.8 1485.67 1567.8 1490.55 M 1567.8 1485.67 1567.82 1485.24 1567.87 1484.82 1567.97 1484.4 1568.09 1484 1568.26 1483.6 1568.46 1483.23 1568.68 1482.87 1568.94 1482.53 1569.23 1482.21 1569.55 1481.92 1569.89 1481.66 1570.25 1481.44 1570.62 1481.24 1571.02 1481.07 1571.42 1480.95 1571.84 1480.85 1572.26 1480.8 1572.69 1480.78 1584.91 1480.78 1585.34 1480.8 1585.76 1480.85 1586.18 1480.95 1586.58 1481.07 1586.98 1481.24 1587.35 1481.44 1587.71 1481.66 1588.05 1481.92 1588.37 1482.21 1588.66 1482.53 1588.92 1482.87 1589.14 1483.22 1589.34 1483.6 1589.51 1484 1589.63 1484.4 1589.73 1484.82 1589.78 1485.24 1589.8 1485.67 1589.8 1490.55 M 1584.91 1500.06 1584.48 1500.08 1584.06 1500.13 1583.64 1500.23 1583.24 1500.35 1582.84 1500.52 1582.47 1500.72 1582.11 1500.94 1581.77 1501.2 1581.45 1501.49 1581.16 1501.81 1580.9 1502.15 1580.68 1502.51 1580.48 1502.88 1580.31 1503.28 1580.19 1503.68 1580.09 1504.1 1580.04 1504.52 1580.02 1504.95 1580.04 1505.38 1580.09 1505.8 1580.19 1506.22 1580.31 1506.62 1580.48 1507.02 1580.68 1507.4 1580.9 1507.75 1581.16 1508.09 1581.45 1508.41 1581.77 1508.7 1582.11 1508.96 1582.47 1509.18 1582.84 1509.38 1583.24 1509.55 1583.64 1509.67 1584.06 1509.77 1584.48 1509.82 1584.91 1509.84 1585.34 1509.82 1585.76 1509.77 1586.18 1509.67 1586.58 1509.55 1586.98 1509.38 1587.36 1509.18 1587.71 1508.96 1588.05 1508.7 1588.37 1508.41 1588.66 1508.09 1588.92 1507.75 1589.14 1507.4 1589.34 1507.02 1589.51 1506.62 1589.63 1506.22 1589.73 1505.8 1589.78 1505.38 1589.8 1504.95 1589.78 1504.52 1589.73 1504.1 1589.63 1503.68 1589.51 1503.28 1589.34 1502.88 1589.14 1502.51 1588.92 1502.15 1588.66 1501.81 1588.37 1501.49 1588.05 1501.2 1587.71 1500.94 1587.36 1500.72 1586.98 1500.52 1586.58 1500.35 1586.18 1500.23 1585.76 1500.13 1585.34 1500.08 1584.91 1500.06 M 1573.91 1498.84 1573.43 1498.86 1572.95 1498.92 1572.48 1499.01 1572.02 1499.14 1571.57 1499.31 1571.14 1499.51 1570.72 1499.74 1570.32 1500.01 1569.94 1500.3 1569.59 1500.63 1569.26 1500.98 1568.97 1501.36 1568.7 1501.76 1568.47 1502.18 1568.27 1502.61 1568.1 1503.06 1567.97 1503.52 1567.88 1503.99 1567.82 1504.47 1567.8 1504.95 1567.82 1505.43 1567.88 1505.91 1567.97 1506.38 1568.1 1506.84 1568.27 1507.29 1568.47 1507.72 1568.7 1508.14 1568.97 1508.54 1569.26 1508.92 1569.59 1509.27 1569.94 1509.6 1570.32 1509.89 1570.72 1510.16 1571.14 1510.39 1571.57 1510.59 1572.02 1510.76 1572.48 1510.89 1572.95 1510.98 1573.43 1511.04 1573.91 1511.06 1574.39 1511.04 1574.87 1510.98 1575.34 1510.89 1575.8 1510.76 1576.25 1510.59 1576.68 1510.39 1577.1 1510.16 1577.5 1509.89 1577.88 1509.6 1578.23 1509.27 1578.56 1508.92 1578.85 1508.54 1579.12 1508.14 1579.35 1507.72 1579.55 1507.29 1579.72 1506.84 1579.85 1506.38 1579.94 1505.91 1580 1505.43 1580.02 1504.95 1580 1504.47 1579.94 1503.99 1579.85 1503.52 1579.72 1503.06 1579.55 1502.61 1579.35 1502.18 1579.12 1501.76 1578.85 1501.36 1578.56 1500.98 1578.23 1500.63 1577.88 1500.3 1577.5 1500.01 1577.1 1499.74 1576.68 1499.51 1576.25 1499.31 1575.8 1499.14 1575.34 1499.01 1574.87 1498.92 1574.39 1498.86 1573.91 1498.84 M 1676.65 1572.72 1682.77 1572.72 M 1676.65 1572.73 1676.17 1572.75 1675.69 1572.81 1675.22 1572.9 1674.76 1573.03 1674.31 1573.2 1673.88 1573.4 1673.46 1573.63 1673.06 1573.9 1672.68 1574.19 1672.33 1574.52 1672 1574.87 1671.71 1575.25 1671.44 1575.65 1671.21 1576.07 1671.01 1576.5 1670.84 1576.95 1670.71 1577.41 1670.62 1577.88 1670.56 1578.36 1670.54 1578.84 1670.56 1579.32 1670.62 1579.8 1670.71 1580.27 1670.84 1580.73 1671.01 1581.18 1671.21 1581.61 1671.44 1582.03 1671.71 1582.43 1672 1582.81 1672.33 1583.16 1672.68 1583.49 1673.06 1583.78 1673.46 1584.05 1673.88 1584.28 1674.31 1584.48 1674.76 1584.65 1675.22 1584.78 1675.69 1584.87 1676.17 1584.93 1676.65 1584.95 M 1675.43 1584.95 1680.32 1584.95 M 1675.43 1584.95 1675 1584.97 1674.58 1585.02 1674.16 1585.12 1673.76 1585.24 1673.36 1585.41 1672.99 1585.61 1672.63 1585.83 1672.29 1586.09 1671.97 1586.38 1671.68 1586.7 1671.42 1587.04 1671.2 1587.4 1671 1587.77 1670.83 1588.17 1670.71 1588.57 1670.61 1588.99 1670.56 1589.41 1670.54 1589.84 1670.56 1590.27 1670.61 1590.69 1670.71 1591.11 1670.83 1591.51 1671 1591.91 1671.2 1592.29 1671.42 1592.64 1671.68 1592.98 1671.97 1593.3 1672.29 1593.59 1672.63 1593.85 1672.99 1594.07 1673.36 1594.27 1673.76 1594.44 1674.16 1594.56 1674.58 1594.66 1675 1594.71 1675.43 1594.73 M 1675.43 1594.72 1682.77 1594.72 M 1690.7 1594.72 1702.93 1594.72 M 1696.81 1594.72 1696.81 1572.72 M 1709.66 1572.72 1719.44 1572.72 1719.44 1594.72 1709.66 1594.72 M 1712.11 1584.95 1719.44 1584.95 M 1728.38 1584.95 1738.16 1584.95 M 1738.16 1594.72 1728.38 1594.72 M 1738.16 1594.72 1738.16 1572.72 M 1722.1 1665.62 1709.88 1665.62 1709.45 1665.64 1709.03 1665.69 1708.61 1665.79 1708.21 1665.91 1707.81 1666.08 1707.44 1666.28 1707.08 1666.5 1706.74 1666.76 1706.42 1667.05 1706.13 1667.37 1705.87 1667.71 1705.65 1668.07 1705.45 1668.44 1705.28 1668.84 1705.16 1669.24 1705.06 1669.66 1705.01 1670.08 1704.99 1670.51 1704.99 1675.4 M 1692.54 1671.73 1692.54 1665.62 1670.54 1665.62 M 1680.32 1665.62 1680.32 1671.73 M 1680.32 1672.96 1670.54 1677.84 M 1670.54 1687.08 1670.54 1693.19 1670.56 1693.67 1670.62 1694.15 1670.71 1694.62 1670.84 1695.08 1671.01 1695.53 1671.21 1695.96 1671.44 1696.38 1671.71 1696.78 1672 1697.16 1672.33 1697.51 1672.68 1697.84 1673.06 1698.13 1673.46 1698.4 1673.88 1698.63 1674.31 1698.83 1674.76 1699 1675.22 1699.13 1675.69 1699.22 1676.17 1699.28 1676.65 1699.3 1677.13 1699.28 1677.61 1699.22 1678.08 1699.13 1678.54 1699 1678.99 1698.83 1679.42 1698.63 1679.84 1698.4 1680.24 1698.13 1680.62 1697.84 1680.97 1697.51 1681.3 1697.16 1681.59 1696.78 1681.86 1696.38 1682.09 1695.96 1682.29 1695.53 1682.46 1695.08 1682.59 1694.62 1682.68 1694.15 1682.74 1693.67 1682.76 1693.19 M 1682.77 1694.41 1682.77 1689.52 M 1682.76 1694.41 1682.78 1694.84 1682.83 1695.26 1682.93 1695.68 1683.05 1696.08 1683.22 1696.48 1683.42 1696.86 1683.64 1697.21 1683.9 1697.55 1684.19 1697.87 1684.51 1698.16 1684.85 1698.42 1685.21 1698.64 1685.58 1698.84 1685.98 1699.01 1686.38 1699.13 1686.8 1699.23 1687.22 1699.28 1687.65 1699.3 1688.08 1699.28 1688.5 1699.23 1688.92 1699.13 1689.32 1699.01 1689.72 1698.84 1690.1 1698.64 1690.45 1698.42 1690.79 1698.16 1691.11 1697.87 1691.4 1697.55 1691.66 1697.21 1691.88 1696.86 1692.08 1696.48 1692.25 1696.08 1692.37 1695.68 1692.47 1695.26 1692.52 1694.84 1692.54 1694.41 1692.54 1687.08 M 1692.54 1671.73 1692.52 1672.21 1692.46 1672.69 1692.37 1673.16 1692.24 1673.62 1692.07 1674.07 1691.87 1674.5 1691.64 1674.92 1691.37 1675.32 1691.08 1675.7 1690.75 1676.05 1690.4 1676.38 1690.02 1676.67 1689.62 1676.94 1689.2 1677.17 1688.77 1677.37 1688.32 1677.54 1687.86 1677.67 1687.39 1677.76 1686.91 1677.82 1686.43 1677.84 1685.95 1677.82 1685.47 1677.76 1685 1677.67 1684.54 1677.54 1684.09 1677.37 1683.66 1677.17 1683.24 1676.94 1682.84 1676.67 1682.46 1676.38 1682.11 1676.05 1681.78 1675.7 1681.49 1675.32 1681.22 1674.92 1680.99 1674.5 1680.79 1674.07 1680.62 1673.62 1680.49 1673.16 1680.4 1672.69 1680.34 1672.21 1680.32 1671.73 M 1704.99 1686.13 1705.01 1686.74 1705.07 1687.36 1705.16 1687.96 1705.3 1688.56 1705.47 1689.15 1705.68 1689.73 1705.92 1690.29 1706.2 1690.84 1706.51 1691.37 1706.86 1691.88 1707.23 1692.36 1707.64 1692.82 1708.08 1693.26 1708.54 1693.67 1709.02 1694.04 1709.53 1694.39 1710.06 1694.7 1710.61 1694.98 1711.17 1695.22 1711.75 1695.43 1712.34 1695.6 1712.94 1695.74 1713.54 1695.83 1714.16 1695.89 1714.77 1695.91 1720.88 1695.91 M 1714.77 1695.91 1714.77 1688.57 1714.79 1688.14 1714.84 1687.72 1714.94 1687.3 1715.06 1686.9 1715.23 1686.5 1715.43 1686.12 1715.65 1685.77 1715.91 1685.43 1716.2 1685.11 1716.52 1684.82 1716.86 1684.56 1717.22 1684.34 1717.59 1684.14 1717.99 1683.97 1718.39 1683.85 1718.81 1683.75 1719.23 1683.7 1719.66 1683.68 M 1719.66 1683.69 1720.88 1683.69 1721.36 1683.71 1721.84 1683.77 1722.31 1683.86 1722.77 1683.99 1723.22 1684.16 1723.65 1684.36 1724.07 1684.59 1724.47 1684.86 1724.85 1685.15 1725.2 1685.48 1725.53 1685.83 1725.82 1686.21 1726.09 1686.61 1726.32 1687.03 1726.52 1687.46 1726.69 1687.91 1726.82 1688.37 1726.91 1688.84 1726.97 1689.32 1726.99 1689.8 1726.97 1690.28 1726.91 1690.76 1726.82 1691.23 1726.69 1691.69 1726.52 1692.14 1726.32 1692.57 1726.09 1692.99 1725.82 1693.39 1725.53 1693.77 1725.2 1694.12 1724.85 1694.45 1724.47 1694.74 1724.07 1695.01 1723.65 1695.24 1723.22 1695.44 1722.77 1695.61 1722.31 1695.74 1721.84 1695.83 1721.36 1695.89 1720.88 1695.91 M 1726.99 1675.4 1726.99 1670.51 1726.97 1670.08 1726.92 1669.66 1726.82 1669.24 1726.7 1668.84 1726.53 1668.44 1726.33 1668.06 1726.11 1667.71 1725.85 1667.37 1725.56 1667.05 1725.24 1666.76 1724.9 1666.5 1724.54 1666.28 1724.17 1666.08 1723.77 1665.91 1723.37 1665.79 1722.95 1665.69 1722.53 1665.64 1722.1 1665.62 M 1624.25 1768.97 1618.14 1768.97 1617.66 1768.99 1617.18 1769.05 1616.71 1769.14 1616.25 1769.27 1615.8 1769.44 1615.37 1769.64 1614.95 1769.87 1614.55 1770.14 1614.17 1770.43 1613.82 1770.76 1613.49 1771.11 1613.2 1771.49 1612.93 1771.89 1612.7 1772.31 1612.5 1772.74 1612.33 1773.19 1612.2 1773.65 1612.11 1774.12 1612.05 1774.6 1612.03 1775.08 1612.03 1784.86 1612.05 1785.34 1612.11 1785.82 1612.2 1786.29 1612.33 1786.75 1612.5 1787.2 1612.7 1787.63 1612.93 1788.05 1613.2 1788.45 1613.49 1788.83 1613.82 1789.18 1614.17 1789.51 1614.55 1789.8 1614.95 1790.07 1615.37 1790.3 1615.8 1790.5 1616.25 1790.67 1616.71 1790.8 1617.18 1790.89 1617.66 1790.95 1618.14 1790.97 1624.25 1790.97 1624.25 1768.97 M 1601.93 1773.86 1589.71 1773.86 M 1593.38 1778.75 1593.38 1768.97 M 1601.93 1773.86 1597.04 1790.97 M 1352.9 1903.07 1352.9 1907.96 M 1352.9 1903.07 1352.88 1902.64 1352.83 1902.22 1352.73 1901.8 1352.61 1901.4 1352.44 1901 1352.24 1900.62 1352.02 1900.27 1351.76 1899.93 1351.47 1899.61 1351.15 1899.32 1350.81 1899.06 1350.45 1898.84 1350.08 1898.64 1349.68 1898.47 1349.28 1898.35 1348.86 1898.25 1348.44 1898.2 1348.01 1898.18 1335.79 1898.18 1335.36 1898.2 1334.94 1898.25 1334.52 1898.35 1334.12 1898.47 1333.72 1898.64 1333.35 1898.84 1332.99 1899.06 1332.65 1899.32 1332.33 1899.61 1332.04 1899.93 1331.78 1900.27 1331.56 1900.63 1331.36 1901 1331.19 1901.4 1331.07 1901.8 1330.97 1902.22 1330.92 1902.64 1330.9 1903.07 1330.9 1907.96 M 1330.9 1916.24 1330.9 1928.47 M 1330.9 1922.36 1352.9 1922.36 1348.01 1916.24 M 1352.9 1937.84 1352.9 1945.18 1352.88 1945.61 1352.83 1946.03 1352.73 1946.45 1352.61 1946.85 1352.44 1947.25 1352.24 1947.63 1352.02 1947.98 1351.76 1948.32 1351.47 1948.64 1351.15 1948.93 1350.81 1949.19 1350.46 1949.41 1350.08 1949.61 1349.68 1949.78 1349.28 1949.9 1348.86 1950 1348.44 1950.05 1348.01 1950.07 1347.58 1950.05 1347.16 1950 1346.74 1949.9 1346.34 1949.78 1345.94 1949.61 1345.57 1949.41 1345.21 1949.19 1344.87 1948.93 1344.55 1948.64 1344.26 1948.32 1344 1947.98 1343.78 1947.63 1343.58 1947.25 1343.41 1946.85 1343.29 1946.45 1343.19 1946.03 1343.14 1945.61 1343.12 1945.18 1343.12 1940.29 M 1343.12 1943.96 1343.1 1944.44 1343.04 1944.92 1342.95 1945.39 1342.82 1945.85 1342.65 1946.3 1342.45 1946.73 1342.22 1947.15 1341.95 1947.55 1341.66 1947.93 1341.33 1948.28 1340.98 1948.61 1340.6 1948.9 1340.2 1949.17 1339.78 1949.4 1339.35 1949.6 1338.9 1949.77 1338.44 1949.9 1337.97 1949.99 1337.49 1950.05 1337.01 1950.07 1336.53 1950.05 1336.05 1949.99 1335.58 1949.9 1335.12 1949.77 1334.67 1949.6 1334.24 1949.4 1333.82 1949.17 1333.42 1948.9 1333.04 1948.61 1332.69 1948.28 1332.36 1947.93 1332.07 1947.55 1331.8 1947.15 1331.57 1946.73 1331.37 1946.3 1331.2 1945.85 1331.07 1945.39 1330.98 1944.92 1330.92 1944.44 1330.9 1943.96 1330.9 1937.84 M 1274.16 1922.36 1252.16 1922.36 M 1252.16 1928.47 1252.16 1916.24 M 1252.16 1907.96 1252.16 1903.07 1252.18 1902.64 1252.23 1902.22 1252.33 1901.8 1252.45 1901.4 1252.62 1901 1252.82 1900.63 1253.04 1900.27 1253.3 1899.93 1253.59 1899.61 1253.91 1899.32 1254.25 1899.06 1254.61 1898.84 1254.98 1898.64 1255.38 1898.47 1255.78 1898.35 1256.2 1898.25 1256.62 1898.2 1257.05 1898.18 1269.27 1898.18 1269.7 1898.2 1270.12 1898.25 1270.54 1898.35 1270.94 1898.47 1271.34 1898.64 1271.71 1898.84 1272.07 1899.06 1272.41 1899.32 1272.73 1899.61 1273.02 1899.93 1273.28 1900.27 1273.5 1900.62 1273.7 1901 1273.87 1901.4 1273.99 1901.8 1274.09 1902.22 1274.14 1902.64 1274.16 1903.07 1274.16 1907.96 M 1269.27 1916.24 1274.16 1922.36 M 1264.38 1948.24 1264.72 1948.57 1265.09 1948.87 1265.49 1949.15 1265.9 1949.39 1266.33 1949.59 1266.78 1949.76 1267.24 1949.9 1267.71 1949.99 1268.18 1950.05 1268.66 1950.07 M 1264.38 1948.23 1252.16 1937.84 1252.16 1950.07 M 1269.27 1937.84 1269.76 1938.02 1270.24 1938.24 1270.7 1938.49 1271.13 1938.77 1271.55 1939.09 1271.95 1939.43 1272.31 1939.8 1272.65 1940.2 1272.96 1940.63 1273.23 1941.07 1273.47 1941.53 1273.68 1942.01 1273.85 1942.51 1273.99 1943.01 1274.08 1943.53 1274.14 1944.05 1274.16 1944.57 1274.14 1945.02 1274.08 1945.48 1273.99 1945.92 1273.86 1946.36 1273.7 1946.78 1273.5 1947.19 1273.26 1947.58 1273 1947.95 1272.71 1948.3 1272.39 1948.62 1272.04 1948.91 1271.67 1949.17 1271.28 1949.41 1270.87 1949.61 1270.45 1949.77 1270.01 1949.9 1269.57 1949.99 1269.11 1950.05 1268.66 1950.07 M 1195.42 1943.96 1195.4 1944.36 1195.35 1944.76 1195.26 1945.15 1195.14 1945.53 1194.98 1945.9 1194.8 1946.25 1194.58 1946.59 1194.33 1946.9 1194.06 1947.19 1193.76 1947.46 1193.44 1947.7 1193.1 1947.91 1192.74 1948.09 1192.37 1948.24 M 1190.53 1948.84 1178.31 1939.07 M 1176.47 1939.68 1176.1 1939.83 1175.74 1940.01 1175.4 1940.22 1175.08 1940.46 1174.78 1940.73 1174.51 1941.02 1174.26 1941.33 1174.04 1941.67 1173.86 1942.02 1173.7 1942.39 1173.58 1942.77 1173.49 1943.16 1173.44 1943.56 1173.42 1943.96 1173.44 1944.36 1173.49 1944.76 1173.58 1945.15 1173.7 1945.53 1173.86 1945.9 1174.04 1946.25 1174.26 1946.59 1174.51 1946.9 1174.78 1947.19 1175.08 1947.46 1175.4 1947.7 1175.74 1947.91 1176.1 1948.09 1176.47 1948.24 M 1184.42 1937.84 1185.24 1937.86 1186.06 1937.91 1186.88 1938.01 1187.69 1938.14 1188.5 1938.3 1189.29 1938.51 1190.08 1938.75 1190.86 1939.02 1191.62 1939.33 1192.36 1939.67 M 1192.37 1939.68 1192.74 1939.83 1193.1 1940.01 1193.44 1940.22 1193.76 1940.46 1194.06 1940.73 1194.33 1941.02 1194.58 1941.33 1194.8 1941.67 1194.98 1942.02 1195.14 1942.39 1195.26 1942.77 1195.35 1943.16 1195.4 1943.56 1195.42 1943.96 M 1184.42 1937.85 1183.6 1937.87 1182.78 1937.92 1181.96 1938.02 1181.15 1938.15 1180.34 1938.31 1179.55 1938.52 1178.76 1938.76 1177.98 1939.03 1177.22 1939.34 1176.48 1939.68 M 1184.42 1950.07 1185.24 1950.05 1186.06 1950 1186.88 1949.9 1187.69 1949.77 1188.5 1949.61 1189.29 1949.4 1190.08 1949.16 1190.86 1948.89 1191.62 1948.58 1192.36 1948.24 M 1184.42 1950.07 1183.6 1950.05 1182.78 1950 1181.96 1949.9 1181.15 1949.77 1180.34 1949.61 1179.55 1949.4 1178.76 1949.16 1177.98 1948.89 1177.22 1948.58 1176.48 1948.24 M 1173.42 1928.47 1173.42 1916.24 M 1173.42 1922.36 1195.42 1922.36 1190.53 1916.24 M 1195.42 1907.96 1195.42 1903.07 1195.4 1902.64 1195.35 1902.22 1195.25 1901.8 1195.13 1901.4 1194.96 1901 1194.76 1900.62 1194.54 1900.27 1194.28 1899.93 1193.99 1899.61 1193.67 1899.32 1193.33 1899.06 1192.97 1898.84 1192.6 1898.64 1192.2 1898.47 1191.8 1898.35 1191.38 1898.25 1190.96 1898.2 1190.53 1898.18 1178.31 1898.18 1177.88 1898.2 1177.46 1898.25 1177.04 1898.35 1176.64 1898.47 1176.24 1898.64 1175.87 1898.84 1175.51 1899.06 1175.17 1899.32 1174.85 1899.61 1174.56 1899.93 1174.3 1900.27 1174.08 1900.63 1173.88 1901 1173.71 1901.4 1173.59 1901.8 1173.49 1902.22 1173.44 1902.64 1173.42 1903.07 1173.42 1907.96 M 1116.68 1907.96 1116.68 1903.07 1116.66 1902.64 1116.61 1902.22 1116.51 1901.8 1116.39 1901.4 1116.22 1901 1116.02 1900.62 1115.8 1900.27 1115.54 1899.93 1115.25 1899.61 1114.93 1899.32 1114.59 1899.06 1114.23 1898.84 1113.86 1898.64 1113.46 1898.47 1113.06 1898.35 1112.64 1898.25 1112.22 1898.2 1111.79 1898.18 1099.57 1898.18 1099.14 1898.2 1098.72 1898.25 1098.3 1898.35 1097.9 1898.47 1097.5 1898.64 1097.13 1898.84 1096.77 1899.06 1096.43 1899.32 1096.11 1899.61 1095.82 1899.93 1095.56 1900.27 1095.34 1900.63 1095.14 1901 1094.97 1901.4 1094.85 1901.8 1094.75 1902.22 1094.7 1902.64 1094.68 1903.07 1094.68 1907.96 M 1094.68 1916.24 1094.68 1928.47 M 1094.68 1922.36 1116.68 1922.36 1111.79 1916.24 M 1111.79 1937.84 1116.68 1943.96 1094.68 1943.96 M 1094.68 1950.07 1094.68 1937.84 M 1260.28 722.8 1266.39 722.8 M 1260.28 722.8 1260.28 715.46 M 1260.28 722.8 1259.67 722.78 1259.05 722.72 1258.45 722.63 1257.85 722.49 1257.26 722.32 1256.68 722.11 1256.12 721.87 1255.57 721.59 1255.04 721.28 1254.53 720.93 1254.05 720.56 1253.59 720.15 1253.15 719.71 1252.74 719.25 1252.37 718.77 1252.02 718.26 1251.71 717.73 1251.43 717.18 1251.19 716.62 1250.98 716.04 1250.81 715.45 1250.67 714.85 1250.58 714.25 1250.52 713.63 1250.5 713.02 M 1255.39 701.2 1255.39 688.97 1272.5 693.86 M 1260.28 697.53 1250.5 697.53 M 1250.5 679.74 1260.28 674.85 M 1260.28 673.63 1260.28 667.52 M 1260.28 673.63 1260.3 674.11 1260.36 674.59 1260.45 675.06 1260.58 675.52 1260.75 675.97 1260.95 676.4 1261.18 676.82 1261.45 677.22 1261.74 677.6 1262.07 677.95 1262.42 678.28 1262.8 678.57 1263.2 678.84 1263.62 679.07 1264.05 679.27 1264.5 679.44 1264.96 679.57 1265.43 679.66 1265.91 679.72 1266.39 679.74 1266.87 679.72 1267.35 679.66 1267.82 679.57 1268.28 679.44 1268.73 679.27 1269.16 679.07 1269.58 678.84 1269.98 678.57 1270.36 678.28 1270.71 677.95 1271.04 677.6 1271.33 677.22 1271.6 676.82 1271.83 676.4 1272.03 675.97 1272.2 675.52 1272.33 675.06 1272.42 674.59 1272.48 674.11 1272.5 673.63 1272.5 667.52 1250.5 667.52 M 1265.17 710.57 1266.39 710.57 M 1265.17 710.57 1264.74 710.59 1264.32 710.64 1263.9 710.74 1263.5 710.86 1263.1 711.03 1262.73 711.23 1262.37 711.45 1262.03 711.71 1261.71 712 1261.42 712.32 1261.16 712.66 1260.94 713.01 1260.74 713.39 1260.57 713.79 1260.45 714.19 1260.35 714.61 1260.3 715.03 1260.28 715.46 M 1266.39 710.57 1266.87 710.59 1267.35 710.65 1267.82 710.74 1268.28 710.87 1268.73 711.04 1269.16 711.24 1269.58 711.47 1269.98 711.74 1270.36 712.03 1270.71 712.36 1271.04 712.71 1271.33 713.09 1271.6 713.49 1271.83 713.91 1272.03 714.34 1272.2 714.79 1272.33 715.25 1272.42 715.72 1272.48 716.2 1272.5 716.68 1272.48 717.16 1272.42 717.64 1272.33 718.11 1272.2 718.57 1272.03 719.02 1271.83 719.45 1271.6 719.87 1271.33 720.27 1271.04 720.65 1270.71 721 1270.36 721.33 1269.98 721.62 1269.58 721.89 1269.16 722.12 1268.73 722.32 1268.28 722.49 1267.82 722.62 1267.35 722.71 1266.87 722.77 1266.39 722.79 M 1067.54 660.42 1050.43 655.53 1050.43 667.75 M 1055.32 664.09 1045.54 664.09 M 1045.54 646.15 1045.54 633.93 M 1045.54 640.04 1067.54 640.04 1062.65 633.93 M 1067.54 618.58 1067.52 619.06 1067.46 619.54 1067.37 620.01 1067.24 620.47 1067.07 620.92 1066.87 621.35 1066.64 621.77 1066.37 622.17 1066.08 622.55 1065.75 622.9 1065.4 623.23 1065.02 623.52 1064.62 623.79 1064.2 624.02 1063.77 624.22 1063.32 624.39 1062.86 624.52 1062.39 624.61 1061.91 624.67 1061.43 624.69 1060.95 624.67 1060.47 624.61 1060 624.52 1059.54 624.39 1059.09 624.22 1058.66 624.02 1058.24 623.79 1057.84 623.52 1057.46 623.23 1057.11 622.9 1056.78 622.55 1056.49 622.17 1056.22 621.77 1055.99 621.35 1055.79 620.92 1055.62 620.47 1055.49 620.01 1055.4 619.54 1055.34 619.06 1055.32 618.58 1055.32 612.47 M 1055.32 619.81 1045.54 624.69 M 1045.54 612.47 1067.54 612.47 1067.54 618.58 M 1143.97 530.31 1153.75 530.31 M 1148.86 533.97 1148.86 521.75 1165.97 526.64 M 1165.97 506.26 1143.97 506.26 M 1143.97 500.15 1143.97 512.37 M 1161.08 500.15 1165.97 506.26 M 1165.97 485.71 1165.97 479.6 1143.97 479.6 M 1153.75 479.6 1153.75 485.71 1153.77 486.19 1153.83 486.67 1153.92 487.14 1154.05 487.6 1154.22 488.05 1154.42 488.48 1154.65 488.9 1154.92 489.3 1155.21 489.68 1155.54 490.03 1155.89 490.36 1156.27 490.65 1156.67 490.92 1157.09 491.15 1157.52 491.35 1157.97 491.52 1158.43 491.65 1158.9 491.74 1159.38 491.8 1159.86 491.82 1160.34 491.8 1160.82 491.74 1161.29 491.65 1161.75 491.52 1162.2 491.35 1162.63 491.15 1163.05 490.92 1163.45 490.65 1163.83 490.36 1164.18 490.03 1164.51 489.68 1164.8 489.3 1165.07 488.9 1165.3 488.48 1165.5 488.05 1165.67 487.6 1165.8 487.14 1165.89 486.67 1165.95 486.19 1165.97 485.71 M 1203.02 479.6 1225.02 479.6 1225.02 485.71 1225 486.19 1224.94 486.67 1224.85 487.14 1224.72 487.6 1224.55 488.05 1224.35 488.48 1224.12 488.9 1223.85 489.3 1223.56 489.68 1223.23 490.03 1222.88 490.36 1222.5 490.65 1222.1 490.92 1221.68 491.15 1221.25 491.35 1220.8 491.52 1220.34 491.65 1219.87 491.74 1219.39 491.8 1218.91 491.82 1218.43 491.8 1217.95 491.74 1217.48 491.65 1217.02 491.52 1216.57 491.35 1216.14 491.15 1215.72 490.92 1215.32 490.65 1214.94 490.36 1214.59 490.03 1214.26 489.68 1213.97 489.3 1213.7 488.9 1213.47 488.48 1213.27 488.05 1213.1 487.6 1212.97 487.14 1212.88 486.67 1212.82 486.19 1212.8 485.71 1212.8 479.6 M 1220.13 500.15 1225.02 506.26 1203.02 506.26 M 1203.02 500.15 1203.02 512.37 M 1203.02 521.75 1203.02 529.08 1203.04 529.51 1203.09 529.93 1203.19 530.35 1203.31 530.75 1203.48 531.15 1203.68 531.52 1203.9 531.88 1204.16 532.22 1204.45 532.54 1204.77 532.83 1205.11 533.09 1205.46 533.31 1205.84 533.51 1206.24 533.68 1206.64 533.8 1207.06 533.9 1207.48 533.95 1207.91 533.97 1210.36 533.97 1210.79 533.95 1211.21 533.9 1211.63 533.8 1212.03 533.68 1212.43 533.51 1212.81 533.31 1213.16 533.09 1213.5 532.83 1213.82 532.54 1214.11 532.22 1214.37 531.88 1214.59 531.53 1214.79 531.15 1214.96 530.75 1215.08 530.35 1215.18 529.93 1215.23 529.51 1215.25 529.08 1215.25 521.75 1225.02 521.75 1225.02 533.97 M 1262.08 512.37 1262.08 500.15 M 1262.08 506.26 1284.08 506.26 1279.19 500.15 M 1284.08 485.71 1284.06 486.19 1284 486.67 1283.91 487.14 1283.78 487.6 1283.61 488.05 1283.41 488.48 1283.18 488.9 1282.91 489.3 1282.62 489.68 1282.29 490.03 1281.94 490.36 1281.56 490.65 1281.16 490.92 1280.74 491.15 1280.31 491.35 1279.86 491.52 1279.4 491.65 1278.93 491.74 1278.45 491.8 1277.97 491.82 1277.49 491.8 1277.01 491.74 1276.54 491.65 1276.08 491.52 1275.63 491.35 1275.2 491.15 1274.78 490.92 1274.38 490.65 1274 490.36 1273.65 490.03 1273.32 489.68 1273.03 489.3 1272.76 488.9 1272.53 488.48 1272.33 488.05 1272.16 487.6 1272.03 487.14 1271.94 486.67 1271.88 486.19 1271.86 485.71 1271.86 479.6 M 1262.08 479.6 1284.08 479.6 1284.08 485.71 M 1274.3 521.75 1268.19 521.75 M 1274.3 521.75 1274.3 529.08 M 1274.3 521.75 1274.91 521.77 1275.53 521.83 1276.13 521.92 1276.73 522.06 1277.32 522.23 1277.9 522.44 1278.46 522.68 1279.01 522.96 1279.54 523.27 1280.05 523.62 1280.53 523.99 1280.99 524.4 1281.43 524.84 1281.84 525.3 1282.21 525.78 1282.56 526.29 1282.87 526.82 1283.15 527.37 1283.39 527.93 1283.6 528.51 1283.77 529.1 1283.91 529.7 1284 530.3 1284.06 530.92 1284.08 531.53 M 1269.41 533.97 1268.19 533.97 M 1269.41 533.97 1269.84 533.95 1270.26 533.9 1270.68 533.8 1271.08 533.68 1271.48 533.51 1271.86 533.31 1272.21 533.09 1272.55 532.83 1272.87 532.54 1273.16 532.22 1273.42 531.88 1273.64 531.53 1273.84 531.15 1274.01 530.75 1274.13 530.35 1274.23 529.93 1274.28 529.51 1274.3 529.08 M 1268.19 533.97 1267.71 533.95 1267.23 533.89 1266.76 533.8 1266.3 533.67 1265.85 533.5 1265.42 533.3 1265 533.07 1264.6 532.8 1264.22 532.51 1263.87 532.18 1263.54 531.83 1263.25 531.45 1262.98 531.05 1262.75 530.63 1262.55 530.2 1262.38 529.75 1262.25 529.29 1262.16 528.82 1262.1 528.34 1262.08 527.86 1262.1 527.38 1262.16 526.9 1262.25 526.43 1262.38 525.97 1262.55 525.52 1262.75 525.09 1262.98 524.67 1263.25 524.27 1263.54 523.89 1263.87 523.54 1264.22 523.21 1264.6 522.92 1265 522.65 1265.42 522.42 1265.85 522.22 1266.3 522.05 1266.76 521.92 1267.23 521.83 1267.71 521.77 1268.19 521.75 M 1321.13 527.86 1343.13 533.97 1343.13 521.75 1340.69 521.75 M 1343.13 506.26 1321.13 506.26 M 1321.13 500.15 1321.13 512.37 M 1338.24 500.15 1343.13 506.26 M 1343.13 485.71 1343.13 479.6 1321.13 479.6 M 1330.91 479.6 1330.91 485.71 1330.93 486.19 1330.99 486.67 1331.08 487.14 1331.21 487.6 1331.38 488.05 1331.58 488.48 1331.81 488.9 1332.08 489.3 1332.37 489.68 1332.7 490.03 1333.05 490.36 1333.43 490.65 1333.83 490.92 1334.25 491.15 1334.68 491.35 1335.13 491.52 1335.59 491.65 1336.06 491.74 1336.54 491.8 1337.02 491.82 1337.5 491.8 1337.98 491.74 1338.45 491.65 1338.91 491.52 1339.36 491.35 1339.79 491.15 1340.21 490.92 1340.61 490.65 1340.99 490.36 1341.34 490.03 1341.67 489.68 1341.96 489.3 1342.23 488.9 1342.46 488.48 1342.66 488.05 1342.83 487.6 1342.96 487.14 1343.05 486.67 1343.11 486.19 1343.13 485.71" fill="none" stroke-width="2"/><path d="M 1552.25 1723.36 1552.27 1723.65 1552.33 1723.94 1552.42 1724.22 1552.55 1724.48 1552.71 1724.72 1552.91 1724.94 1553.13 1725.14 1553.37 1725.3 1553.63 1725.43 1553.91 1725.52 1554.2 1725.58 1554.49 1725.6 1554.78 1725.58 1555.07 1725.52 1555.35 1725.43 1555.61 1725.3 1555.85 1725.14 1556.07 1724.94 1556.27 1724.72 1556.43 1724.48 1556.56 1724.22 1556.65 1723.94 1556.71 1723.65 1556.73 1723.36 1556.71 1723.07 1556.65 1722.78 1556.56 1722.5 1556.43 1722.24 1556.27 1722 1556.07 1721.78 1555.85 1721.58 1555.61 1721.42 1555.35 1721.29 1555.07 1721.2 1554.78 1721.14 1554.49 1721.12 1554.2 1721.14 1553.91 1721.2 1553.63 1721.29 1553.37 1721.42 1553.13 1721.58 1552.91 1721.78 1552.71 1722 1552.55 1722.24 1552.42 1722.5 1552.33 1722.78 1552.27 1723.07 1552.25 1723.36" fill="none" stroke-width="5"/><use xlink:href="#MgawPZ6VzXjvyb7edYKg_pad-15" x="1599.49" y="1743.86"/><path d="M 1622.3 1618.36 1622.3 1582.93 1657.73 1582.93 1657.73 1618.36 1622.3 1618.36" fill="none" stroke-width="1.97"/></g></svg>