G75*
%MOIN*%
%OFA0B0*%
%FSLAX25Y25*%
%IPPOS*%
%LPD*%
%AMOC8*
5,1,8,0,0,1.08239X$1,22.5*
%
%ADD10C,0.00000*%
%ADD11C,0.00039*%
%ADD12R,0.04337X0.04731*%
%ADD13R,0.03943X0.03156*%
%ADD14R,0.03156X0.03943*%
%ADD15R,0.06581X0.02014*%
%ADD16R,0.03943X0.05518*%
%ADD17R,0.03943X0.06207*%
%ADD18R,0.07223X0.12703*%
%ADD19C,0.04731*%
%ADD20R,0.06306X0.05518*%
%ADD21R,0.05518X0.06306*%
%ADD22R,0.02900X0.05400*%
%ADD23R,0.06000X0.01500*%
%ADD24OC8,0.12211*%
%ADD25C,0.00790*%
%ADD26R,0.03353X0.03156*%
%ADD27R,0.09061X0.04337*%
%ADD28R,0.05518X0.03943*%
%ADD29R,0.05912X0.05912*%
%ADD30R,0.04337X0.11030*%
%ADD31R,0.05400X0.02900*%
%ADD32R,0.04731X0.04337*%
%ADD33R,0.02400X0.05200*%
%ADD34R,0.07487X0.06699*%
D10*
X0032750Y0016500D02*
X0032750Y0027524D01*
X0032750Y0016500D02*
X0272907Y0016500D01*
X0272907Y0027524D01*
X0272907Y0027523D02*
X0270093Y0029042D01*
X0267315Y0030628D01*
X0264577Y0032281D01*
X0261880Y0034000D01*
X0259225Y0035784D01*
X0256614Y0037631D01*
X0254048Y0039541D01*
X0251530Y0041513D01*
X0249060Y0043545D01*
X0246640Y0045636D01*
X0244271Y0047785D01*
X0241954Y0049991D01*
X0239692Y0052252D01*
X0237485Y0054567D01*
X0235335Y0056935D01*
X0233243Y0059354D01*
X0231210Y0061823D01*
X0229237Y0064341D01*
X0227326Y0066905D01*
X0225477Y0069515D01*
X0223692Y0072169D01*
X0221972Y0074866D01*
X0220318Y0077603D01*
X0218730Y0080380D01*
X0217210Y0083194D01*
X0215758Y0086044D01*
X0214376Y0088928D01*
X0213064Y0091845D01*
X0211823Y0094793D01*
X0210654Y0097770D01*
X0209557Y0100775D01*
X0208533Y0103805D01*
X0207582Y0106859D01*
X0206706Y0109935D01*
X0205905Y0113031D01*
X0205179Y0116146D01*
X0204528Y0119278D01*
X0203953Y0122424D01*
X0203455Y0125583D01*
X0203033Y0128754D01*
X0202688Y0131934D01*
X0202420Y0135121D01*
X0202229Y0138314D01*
X0202115Y0141510D01*
X0202079Y0144708D01*
X0202120Y0147906D01*
X0202239Y0151103D01*
X0202435Y0154295D01*
X0103222Y0154295D01*
X0103223Y0154295D02*
X0103419Y0151103D01*
X0103538Y0147906D01*
X0103579Y0144708D01*
X0103543Y0141510D01*
X0103429Y0138314D01*
X0103238Y0135121D01*
X0102970Y0131934D01*
X0102625Y0128754D01*
X0102203Y0125583D01*
X0101705Y0122424D01*
X0101130Y0119278D01*
X0100479Y0116146D01*
X0099753Y0113031D01*
X0098952Y0109935D01*
X0098076Y0106859D01*
X0097125Y0103805D01*
X0096101Y0100775D01*
X0095004Y0097770D01*
X0093835Y0094793D01*
X0092594Y0091845D01*
X0091282Y0088928D01*
X0089900Y0086044D01*
X0088448Y0083194D01*
X0086928Y0080380D01*
X0085340Y0077603D01*
X0083686Y0074866D01*
X0081966Y0072169D01*
X0080181Y0069515D01*
X0078332Y0066905D01*
X0076421Y0064341D01*
X0074448Y0061823D01*
X0072415Y0059354D01*
X0070323Y0056935D01*
X0068173Y0054567D01*
X0065966Y0052252D01*
X0063704Y0049991D01*
X0061387Y0047785D01*
X0059018Y0045636D01*
X0056598Y0043545D01*
X0054128Y0041513D01*
X0051610Y0039541D01*
X0049044Y0037631D01*
X0046433Y0035784D01*
X0043778Y0034000D01*
X0041081Y0032281D01*
X0038343Y0030628D01*
X0035565Y0029042D01*
X0032751Y0027523D01*
D11*
X0038655Y0026343D02*
X0038657Y0026496D01*
X0038663Y0026650D01*
X0038673Y0026803D01*
X0038687Y0026955D01*
X0038705Y0027108D01*
X0038727Y0027259D01*
X0038752Y0027410D01*
X0038782Y0027561D01*
X0038816Y0027711D01*
X0038853Y0027859D01*
X0038894Y0028007D01*
X0038939Y0028153D01*
X0038988Y0028299D01*
X0039041Y0028443D01*
X0039097Y0028585D01*
X0039157Y0028726D01*
X0039221Y0028866D01*
X0039288Y0029004D01*
X0039359Y0029140D01*
X0039434Y0029274D01*
X0039511Y0029406D01*
X0039593Y0029536D01*
X0039677Y0029664D01*
X0039765Y0029790D01*
X0039856Y0029913D01*
X0039950Y0030034D01*
X0040048Y0030152D01*
X0040148Y0030268D01*
X0040252Y0030381D01*
X0040358Y0030492D01*
X0040467Y0030600D01*
X0040579Y0030705D01*
X0040693Y0030806D01*
X0040811Y0030905D01*
X0040930Y0031001D01*
X0041052Y0031094D01*
X0041177Y0031183D01*
X0041304Y0031270D01*
X0041433Y0031352D01*
X0041564Y0031432D01*
X0041697Y0031508D01*
X0041832Y0031581D01*
X0041969Y0031650D01*
X0042108Y0031715D01*
X0042248Y0031777D01*
X0042390Y0031835D01*
X0042533Y0031890D01*
X0042678Y0031941D01*
X0042824Y0031988D01*
X0042971Y0032031D01*
X0043119Y0032070D01*
X0043268Y0032106D01*
X0043418Y0032137D01*
X0043569Y0032165D01*
X0043720Y0032189D01*
X0043873Y0032209D01*
X0044025Y0032225D01*
X0044178Y0032237D01*
X0044331Y0032245D01*
X0044484Y0032249D01*
X0044638Y0032249D01*
X0044791Y0032245D01*
X0044944Y0032237D01*
X0045097Y0032225D01*
X0045249Y0032209D01*
X0045402Y0032189D01*
X0045553Y0032165D01*
X0045704Y0032137D01*
X0045854Y0032106D01*
X0046003Y0032070D01*
X0046151Y0032031D01*
X0046298Y0031988D01*
X0046444Y0031941D01*
X0046589Y0031890D01*
X0046732Y0031835D01*
X0046874Y0031777D01*
X0047014Y0031715D01*
X0047153Y0031650D01*
X0047290Y0031581D01*
X0047425Y0031508D01*
X0047558Y0031432D01*
X0047689Y0031352D01*
X0047818Y0031270D01*
X0047945Y0031183D01*
X0048070Y0031094D01*
X0048192Y0031001D01*
X0048311Y0030905D01*
X0048429Y0030806D01*
X0048543Y0030705D01*
X0048655Y0030600D01*
X0048764Y0030492D01*
X0048870Y0030381D01*
X0048974Y0030268D01*
X0049074Y0030152D01*
X0049172Y0030034D01*
X0049266Y0029913D01*
X0049357Y0029790D01*
X0049445Y0029664D01*
X0049529Y0029536D01*
X0049611Y0029406D01*
X0049688Y0029274D01*
X0049763Y0029140D01*
X0049834Y0029004D01*
X0049901Y0028866D01*
X0049965Y0028726D01*
X0050025Y0028585D01*
X0050081Y0028443D01*
X0050134Y0028299D01*
X0050183Y0028153D01*
X0050228Y0028007D01*
X0050269Y0027859D01*
X0050306Y0027711D01*
X0050340Y0027561D01*
X0050370Y0027410D01*
X0050395Y0027259D01*
X0050417Y0027108D01*
X0050435Y0026955D01*
X0050449Y0026803D01*
X0050459Y0026650D01*
X0050465Y0026496D01*
X0050467Y0026343D01*
X0050465Y0026190D01*
X0050459Y0026036D01*
X0050449Y0025883D01*
X0050435Y0025731D01*
X0050417Y0025578D01*
X0050395Y0025427D01*
X0050370Y0025276D01*
X0050340Y0025125D01*
X0050306Y0024975D01*
X0050269Y0024827D01*
X0050228Y0024679D01*
X0050183Y0024533D01*
X0050134Y0024387D01*
X0050081Y0024243D01*
X0050025Y0024101D01*
X0049965Y0023960D01*
X0049901Y0023820D01*
X0049834Y0023682D01*
X0049763Y0023546D01*
X0049688Y0023412D01*
X0049611Y0023280D01*
X0049529Y0023150D01*
X0049445Y0023022D01*
X0049357Y0022896D01*
X0049266Y0022773D01*
X0049172Y0022652D01*
X0049074Y0022534D01*
X0048974Y0022418D01*
X0048870Y0022305D01*
X0048764Y0022194D01*
X0048655Y0022086D01*
X0048543Y0021981D01*
X0048429Y0021880D01*
X0048311Y0021781D01*
X0048192Y0021685D01*
X0048070Y0021592D01*
X0047945Y0021503D01*
X0047818Y0021416D01*
X0047689Y0021334D01*
X0047558Y0021254D01*
X0047425Y0021178D01*
X0047290Y0021105D01*
X0047153Y0021036D01*
X0047014Y0020971D01*
X0046874Y0020909D01*
X0046732Y0020851D01*
X0046589Y0020796D01*
X0046444Y0020745D01*
X0046298Y0020698D01*
X0046151Y0020655D01*
X0046003Y0020616D01*
X0045854Y0020580D01*
X0045704Y0020549D01*
X0045553Y0020521D01*
X0045402Y0020497D01*
X0045249Y0020477D01*
X0045097Y0020461D01*
X0044944Y0020449D01*
X0044791Y0020441D01*
X0044638Y0020437D01*
X0044484Y0020437D01*
X0044331Y0020441D01*
X0044178Y0020449D01*
X0044025Y0020461D01*
X0043873Y0020477D01*
X0043720Y0020497D01*
X0043569Y0020521D01*
X0043418Y0020549D01*
X0043268Y0020580D01*
X0043119Y0020616D01*
X0042971Y0020655D01*
X0042824Y0020698D01*
X0042678Y0020745D01*
X0042533Y0020796D01*
X0042390Y0020851D01*
X0042248Y0020909D01*
X0042108Y0020971D01*
X0041969Y0021036D01*
X0041832Y0021105D01*
X0041697Y0021178D01*
X0041564Y0021254D01*
X0041433Y0021334D01*
X0041304Y0021416D01*
X0041177Y0021503D01*
X0041052Y0021592D01*
X0040930Y0021685D01*
X0040811Y0021781D01*
X0040693Y0021880D01*
X0040579Y0021981D01*
X0040467Y0022086D01*
X0040358Y0022194D01*
X0040252Y0022305D01*
X0040148Y0022418D01*
X0040048Y0022534D01*
X0039950Y0022652D01*
X0039856Y0022773D01*
X0039765Y0022896D01*
X0039677Y0023022D01*
X0039593Y0023150D01*
X0039511Y0023280D01*
X0039434Y0023412D01*
X0039359Y0023546D01*
X0039288Y0023682D01*
X0039221Y0023820D01*
X0039157Y0023960D01*
X0039097Y0024101D01*
X0039041Y0024243D01*
X0038988Y0024387D01*
X0038939Y0024533D01*
X0038894Y0024679D01*
X0038853Y0024827D01*
X0038816Y0024975D01*
X0038782Y0025125D01*
X0038752Y0025276D01*
X0038727Y0025427D01*
X0038705Y0025578D01*
X0038687Y0025731D01*
X0038673Y0025883D01*
X0038663Y0026036D01*
X0038657Y0026190D01*
X0038655Y0026343D01*
X0109521Y0142484D02*
X0109523Y0142637D01*
X0109529Y0142791D01*
X0109539Y0142944D01*
X0109553Y0143096D01*
X0109571Y0143249D01*
X0109593Y0143400D01*
X0109618Y0143551D01*
X0109648Y0143702D01*
X0109682Y0143852D01*
X0109719Y0144000D01*
X0109760Y0144148D01*
X0109805Y0144294D01*
X0109854Y0144440D01*
X0109907Y0144584D01*
X0109963Y0144726D01*
X0110023Y0144867D01*
X0110087Y0145007D01*
X0110154Y0145145D01*
X0110225Y0145281D01*
X0110300Y0145415D01*
X0110377Y0145547D01*
X0110459Y0145677D01*
X0110543Y0145805D01*
X0110631Y0145931D01*
X0110722Y0146054D01*
X0110816Y0146175D01*
X0110914Y0146293D01*
X0111014Y0146409D01*
X0111118Y0146522D01*
X0111224Y0146633D01*
X0111333Y0146741D01*
X0111445Y0146846D01*
X0111559Y0146947D01*
X0111677Y0147046D01*
X0111796Y0147142D01*
X0111918Y0147235D01*
X0112043Y0147324D01*
X0112170Y0147411D01*
X0112299Y0147493D01*
X0112430Y0147573D01*
X0112563Y0147649D01*
X0112698Y0147722D01*
X0112835Y0147791D01*
X0112974Y0147856D01*
X0113114Y0147918D01*
X0113256Y0147976D01*
X0113399Y0148031D01*
X0113544Y0148082D01*
X0113690Y0148129D01*
X0113837Y0148172D01*
X0113985Y0148211D01*
X0114134Y0148247D01*
X0114284Y0148278D01*
X0114435Y0148306D01*
X0114586Y0148330D01*
X0114739Y0148350D01*
X0114891Y0148366D01*
X0115044Y0148378D01*
X0115197Y0148386D01*
X0115350Y0148390D01*
X0115504Y0148390D01*
X0115657Y0148386D01*
X0115810Y0148378D01*
X0115963Y0148366D01*
X0116115Y0148350D01*
X0116268Y0148330D01*
X0116419Y0148306D01*
X0116570Y0148278D01*
X0116720Y0148247D01*
X0116869Y0148211D01*
X0117017Y0148172D01*
X0117164Y0148129D01*
X0117310Y0148082D01*
X0117455Y0148031D01*
X0117598Y0147976D01*
X0117740Y0147918D01*
X0117880Y0147856D01*
X0118019Y0147791D01*
X0118156Y0147722D01*
X0118291Y0147649D01*
X0118424Y0147573D01*
X0118555Y0147493D01*
X0118684Y0147411D01*
X0118811Y0147324D01*
X0118936Y0147235D01*
X0119058Y0147142D01*
X0119177Y0147046D01*
X0119295Y0146947D01*
X0119409Y0146846D01*
X0119521Y0146741D01*
X0119630Y0146633D01*
X0119736Y0146522D01*
X0119840Y0146409D01*
X0119940Y0146293D01*
X0120038Y0146175D01*
X0120132Y0146054D01*
X0120223Y0145931D01*
X0120311Y0145805D01*
X0120395Y0145677D01*
X0120477Y0145547D01*
X0120554Y0145415D01*
X0120629Y0145281D01*
X0120700Y0145145D01*
X0120767Y0145007D01*
X0120831Y0144867D01*
X0120891Y0144726D01*
X0120947Y0144584D01*
X0121000Y0144440D01*
X0121049Y0144294D01*
X0121094Y0144148D01*
X0121135Y0144000D01*
X0121172Y0143852D01*
X0121206Y0143702D01*
X0121236Y0143551D01*
X0121261Y0143400D01*
X0121283Y0143249D01*
X0121301Y0143096D01*
X0121315Y0142944D01*
X0121325Y0142791D01*
X0121331Y0142637D01*
X0121333Y0142484D01*
X0121331Y0142331D01*
X0121325Y0142177D01*
X0121315Y0142024D01*
X0121301Y0141872D01*
X0121283Y0141719D01*
X0121261Y0141568D01*
X0121236Y0141417D01*
X0121206Y0141266D01*
X0121172Y0141116D01*
X0121135Y0140968D01*
X0121094Y0140820D01*
X0121049Y0140674D01*
X0121000Y0140528D01*
X0120947Y0140384D01*
X0120891Y0140242D01*
X0120831Y0140101D01*
X0120767Y0139961D01*
X0120700Y0139823D01*
X0120629Y0139687D01*
X0120554Y0139553D01*
X0120477Y0139421D01*
X0120395Y0139291D01*
X0120311Y0139163D01*
X0120223Y0139037D01*
X0120132Y0138914D01*
X0120038Y0138793D01*
X0119940Y0138675D01*
X0119840Y0138559D01*
X0119736Y0138446D01*
X0119630Y0138335D01*
X0119521Y0138227D01*
X0119409Y0138122D01*
X0119295Y0138021D01*
X0119177Y0137922D01*
X0119058Y0137826D01*
X0118936Y0137733D01*
X0118811Y0137644D01*
X0118684Y0137557D01*
X0118555Y0137475D01*
X0118424Y0137395D01*
X0118291Y0137319D01*
X0118156Y0137246D01*
X0118019Y0137177D01*
X0117880Y0137112D01*
X0117740Y0137050D01*
X0117598Y0136992D01*
X0117455Y0136937D01*
X0117310Y0136886D01*
X0117164Y0136839D01*
X0117017Y0136796D01*
X0116869Y0136757D01*
X0116720Y0136721D01*
X0116570Y0136690D01*
X0116419Y0136662D01*
X0116268Y0136638D01*
X0116115Y0136618D01*
X0115963Y0136602D01*
X0115810Y0136590D01*
X0115657Y0136582D01*
X0115504Y0136578D01*
X0115350Y0136578D01*
X0115197Y0136582D01*
X0115044Y0136590D01*
X0114891Y0136602D01*
X0114739Y0136618D01*
X0114586Y0136638D01*
X0114435Y0136662D01*
X0114284Y0136690D01*
X0114134Y0136721D01*
X0113985Y0136757D01*
X0113837Y0136796D01*
X0113690Y0136839D01*
X0113544Y0136886D01*
X0113399Y0136937D01*
X0113256Y0136992D01*
X0113114Y0137050D01*
X0112974Y0137112D01*
X0112835Y0137177D01*
X0112698Y0137246D01*
X0112563Y0137319D01*
X0112430Y0137395D01*
X0112299Y0137475D01*
X0112170Y0137557D01*
X0112043Y0137644D01*
X0111918Y0137733D01*
X0111796Y0137826D01*
X0111677Y0137922D01*
X0111559Y0138021D01*
X0111445Y0138122D01*
X0111333Y0138227D01*
X0111224Y0138335D01*
X0111118Y0138446D01*
X0111014Y0138559D01*
X0110914Y0138675D01*
X0110816Y0138793D01*
X0110722Y0138914D01*
X0110631Y0139037D01*
X0110543Y0139163D01*
X0110459Y0139291D01*
X0110377Y0139421D01*
X0110300Y0139553D01*
X0110225Y0139687D01*
X0110154Y0139823D01*
X0110087Y0139961D01*
X0110023Y0140101D01*
X0109963Y0140242D01*
X0109907Y0140384D01*
X0109854Y0140528D01*
X0109805Y0140674D01*
X0109760Y0140820D01*
X0109719Y0140968D01*
X0109682Y0141116D01*
X0109648Y0141266D01*
X0109618Y0141417D01*
X0109593Y0141568D01*
X0109571Y0141719D01*
X0109553Y0141872D01*
X0109539Y0142024D01*
X0109529Y0142177D01*
X0109523Y0142331D01*
X0109521Y0142484D01*
X0184324Y0142484D02*
X0184326Y0142637D01*
X0184332Y0142791D01*
X0184342Y0142944D01*
X0184356Y0143096D01*
X0184374Y0143249D01*
X0184396Y0143400D01*
X0184421Y0143551D01*
X0184451Y0143702D01*
X0184485Y0143852D01*
X0184522Y0144000D01*
X0184563Y0144148D01*
X0184608Y0144294D01*
X0184657Y0144440D01*
X0184710Y0144584D01*
X0184766Y0144726D01*
X0184826Y0144867D01*
X0184890Y0145007D01*
X0184957Y0145145D01*
X0185028Y0145281D01*
X0185103Y0145415D01*
X0185180Y0145547D01*
X0185262Y0145677D01*
X0185346Y0145805D01*
X0185434Y0145931D01*
X0185525Y0146054D01*
X0185619Y0146175D01*
X0185717Y0146293D01*
X0185817Y0146409D01*
X0185921Y0146522D01*
X0186027Y0146633D01*
X0186136Y0146741D01*
X0186248Y0146846D01*
X0186362Y0146947D01*
X0186480Y0147046D01*
X0186599Y0147142D01*
X0186721Y0147235D01*
X0186846Y0147324D01*
X0186973Y0147411D01*
X0187102Y0147493D01*
X0187233Y0147573D01*
X0187366Y0147649D01*
X0187501Y0147722D01*
X0187638Y0147791D01*
X0187777Y0147856D01*
X0187917Y0147918D01*
X0188059Y0147976D01*
X0188202Y0148031D01*
X0188347Y0148082D01*
X0188493Y0148129D01*
X0188640Y0148172D01*
X0188788Y0148211D01*
X0188937Y0148247D01*
X0189087Y0148278D01*
X0189238Y0148306D01*
X0189389Y0148330D01*
X0189542Y0148350D01*
X0189694Y0148366D01*
X0189847Y0148378D01*
X0190000Y0148386D01*
X0190153Y0148390D01*
X0190307Y0148390D01*
X0190460Y0148386D01*
X0190613Y0148378D01*
X0190766Y0148366D01*
X0190918Y0148350D01*
X0191071Y0148330D01*
X0191222Y0148306D01*
X0191373Y0148278D01*
X0191523Y0148247D01*
X0191672Y0148211D01*
X0191820Y0148172D01*
X0191967Y0148129D01*
X0192113Y0148082D01*
X0192258Y0148031D01*
X0192401Y0147976D01*
X0192543Y0147918D01*
X0192683Y0147856D01*
X0192822Y0147791D01*
X0192959Y0147722D01*
X0193094Y0147649D01*
X0193227Y0147573D01*
X0193358Y0147493D01*
X0193487Y0147411D01*
X0193614Y0147324D01*
X0193739Y0147235D01*
X0193861Y0147142D01*
X0193980Y0147046D01*
X0194098Y0146947D01*
X0194212Y0146846D01*
X0194324Y0146741D01*
X0194433Y0146633D01*
X0194539Y0146522D01*
X0194643Y0146409D01*
X0194743Y0146293D01*
X0194841Y0146175D01*
X0194935Y0146054D01*
X0195026Y0145931D01*
X0195114Y0145805D01*
X0195198Y0145677D01*
X0195280Y0145547D01*
X0195357Y0145415D01*
X0195432Y0145281D01*
X0195503Y0145145D01*
X0195570Y0145007D01*
X0195634Y0144867D01*
X0195694Y0144726D01*
X0195750Y0144584D01*
X0195803Y0144440D01*
X0195852Y0144294D01*
X0195897Y0144148D01*
X0195938Y0144000D01*
X0195975Y0143852D01*
X0196009Y0143702D01*
X0196039Y0143551D01*
X0196064Y0143400D01*
X0196086Y0143249D01*
X0196104Y0143096D01*
X0196118Y0142944D01*
X0196128Y0142791D01*
X0196134Y0142637D01*
X0196136Y0142484D01*
X0196134Y0142331D01*
X0196128Y0142177D01*
X0196118Y0142024D01*
X0196104Y0141872D01*
X0196086Y0141719D01*
X0196064Y0141568D01*
X0196039Y0141417D01*
X0196009Y0141266D01*
X0195975Y0141116D01*
X0195938Y0140968D01*
X0195897Y0140820D01*
X0195852Y0140674D01*
X0195803Y0140528D01*
X0195750Y0140384D01*
X0195694Y0140242D01*
X0195634Y0140101D01*
X0195570Y0139961D01*
X0195503Y0139823D01*
X0195432Y0139687D01*
X0195357Y0139553D01*
X0195280Y0139421D01*
X0195198Y0139291D01*
X0195114Y0139163D01*
X0195026Y0139037D01*
X0194935Y0138914D01*
X0194841Y0138793D01*
X0194743Y0138675D01*
X0194643Y0138559D01*
X0194539Y0138446D01*
X0194433Y0138335D01*
X0194324Y0138227D01*
X0194212Y0138122D01*
X0194098Y0138021D01*
X0193980Y0137922D01*
X0193861Y0137826D01*
X0193739Y0137733D01*
X0193614Y0137644D01*
X0193487Y0137557D01*
X0193358Y0137475D01*
X0193227Y0137395D01*
X0193094Y0137319D01*
X0192959Y0137246D01*
X0192822Y0137177D01*
X0192683Y0137112D01*
X0192543Y0137050D01*
X0192401Y0136992D01*
X0192258Y0136937D01*
X0192113Y0136886D01*
X0191967Y0136839D01*
X0191820Y0136796D01*
X0191672Y0136757D01*
X0191523Y0136721D01*
X0191373Y0136690D01*
X0191222Y0136662D01*
X0191071Y0136638D01*
X0190918Y0136618D01*
X0190766Y0136602D01*
X0190613Y0136590D01*
X0190460Y0136582D01*
X0190307Y0136578D01*
X0190153Y0136578D01*
X0190000Y0136582D01*
X0189847Y0136590D01*
X0189694Y0136602D01*
X0189542Y0136618D01*
X0189389Y0136638D01*
X0189238Y0136662D01*
X0189087Y0136690D01*
X0188937Y0136721D01*
X0188788Y0136757D01*
X0188640Y0136796D01*
X0188493Y0136839D01*
X0188347Y0136886D01*
X0188202Y0136937D01*
X0188059Y0136992D01*
X0187917Y0137050D01*
X0187777Y0137112D01*
X0187638Y0137177D01*
X0187501Y0137246D01*
X0187366Y0137319D01*
X0187233Y0137395D01*
X0187102Y0137475D01*
X0186973Y0137557D01*
X0186846Y0137644D01*
X0186721Y0137733D01*
X0186599Y0137826D01*
X0186480Y0137922D01*
X0186362Y0138021D01*
X0186248Y0138122D01*
X0186136Y0138227D01*
X0186027Y0138335D01*
X0185921Y0138446D01*
X0185817Y0138559D01*
X0185717Y0138675D01*
X0185619Y0138793D01*
X0185525Y0138914D01*
X0185434Y0139037D01*
X0185346Y0139163D01*
X0185262Y0139291D01*
X0185180Y0139421D01*
X0185103Y0139553D01*
X0185028Y0139687D01*
X0184957Y0139823D01*
X0184890Y0139961D01*
X0184826Y0140101D01*
X0184766Y0140242D01*
X0184710Y0140384D01*
X0184657Y0140528D01*
X0184608Y0140674D01*
X0184563Y0140820D01*
X0184522Y0140968D01*
X0184485Y0141116D01*
X0184451Y0141266D01*
X0184421Y0141417D01*
X0184396Y0141568D01*
X0184374Y0141719D01*
X0184356Y0141872D01*
X0184342Y0142024D01*
X0184332Y0142177D01*
X0184326Y0142331D01*
X0184324Y0142484D01*
X0255190Y0026343D02*
X0255192Y0026496D01*
X0255198Y0026650D01*
X0255208Y0026803D01*
X0255222Y0026955D01*
X0255240Y0027108D01*
X0255262Y0027259D01*
X0255287Y0027410D01*
X0255317Y0027561D01*
X0255351Y0027711D01*
X0255388Y0027859D01*
X0255429Y0028007D01*
X0255474Y0028153D01*
X0255523Y0028299D01*
X0255576Y0028443D01*
X0255632Y0028585D01*
X0255692Y0028726D01*
X0255756Y0028866D01*
X0255823Y0029004D01*
X0255894Y0029140D01*
X0255969Y0029274D01*
X0256046Y0029406D01*
X0256128Y0029536D01*
X0256212Y0029664D01*
X0256300Y0029790D01*
X0256391Y0029913D01*
X0256485Y0030034D01*
X0256583Y0030152D01*
X0256683Y0030268D01*
X0256787Y0030381D01*
X0256893Y0030492D01*
X0257002Y0030600D01*
X0257114Y0030705D01*
X0257228Y0030806D01*
X0257346Y0030905D01*
X0257465Y0031001D01*
X0257587Y0031094D01*
X0257712Y0031183D01*
X0257839Y0031270D01*
X0257968Y0031352D01*
X0258099Y0031432D01*
X0258232Y0031508D01*
X0258367Y0031581D01*
X0258504Y0031650D01*
X0258643Y0031715D01*
X0258783Y0031777D01*
X0258925Y0031835D01*
X0259068Y0031890D01*
X0259213Y0031941D01*
X0259359Y0031988D01*
X0259506Y0032031D01*
X0259654Y0032070D01*
X0259803Y0032106D01*
X0259953Y0032137D01*
X0260104Y0032165D01*
X0260255Y0032189D01*
X0260408Y0032209D01*
X0260560Y0032225D01*
X0260713Y0032237D01*
X0260866Y0032245D01*
X0261019Y0032249D01*
X0261173Y0032249D01*
X0261326Y0032245D01*
X0261479Y0032237D01*
X0261632Y0032225D01*
X0261784Y0032209D01*
X0261937Y0032189D01*
X0262088Y0032165D01*
X0262239Y0032137D01*
X0262389Y0032106D01*
X0262538Y0032070D01*
X0262686Y0032031D01*
X0262833Y0031988D01*
X0262979Y0031941D01*
X0263124Y0031890D01*
X0263267Y0031835D01*
X0263409Y0031777D01*
X0263549Y0031715D01*
X0263688Y0031650D01*
X0263825Y0031581D01*
X0263960Y0031508D01*
X0264093Y0031432D01*
X0264224Y0031352D01*
X0264353Y0031270D01*
X0264480Y0031183D01*
X0264605Y0031094D01*
X0264727Y0031001D01*
X0264846Y0030905D01*
X0264964Y0030806D01*
X0265078Y0030705D01*
X0265190Y0030600D01*
X0265299Y0030492D01*
X0265405Y0030381D01*
X0265509Y0030268D01*
X0265609Y0030152D01*
X0265707Y0030034D01*
X0265801Y0029913D01*
X0265892Y0029790D01*
X0265980Y0029664D01*
X0266064Y0029536D01*
X0266146Y0029406D01*
X0266223Y0029274D01*
X0266298Y0029140D01*
X0266369Y0029004D01*
X0266436Y0028866D01*
X0266500Y0028726D01*
X0266560Y0028585D01*
X0266616Y0028443D01*
X0266669Y0028299D01*
X0266718Y0028153D01*
X0266763Y0028007D01*
X0266804Y0027859D01*
X0266841Y0027711D01*
X0266875Y0027561D01*
X0266905Y0027410D01*
X0266930Y0027259D01*
X0266952Y0027108D01*
X0266970Y0026955D01*
X0266984Y0026803D01*
X0266994Y0026650D01*
X0267000Y0026496D01*
X0267002Y0026343D01*
X0267000Y0026190D01*
X0266994Y0026036D01*
X0266984Y0025883D01*
X0266970Y0025731D01*
X0266952Y0025578D01*
X0266930Y0025427D01*
X0266905Y0025276D01*
X0266875Y0025125D01*
X0266841Y0024975D01*
X0266804Y0024827D01*
X0266763Y0024679D01*
X0266718Y0024533D01*
X0266669Y0024387D01*
X0266616Y0024243D01*
X0266560Y0024101D01*
X0266500Y0023960D01*
X0266436Y0023820D01*
X0266369Y0023682D01*
X0266298Y0023546D01*
X0266223Y0023412D01*
X0266146Y0023280D01*
X0266064Y0023150D01*
X0265980Y0023022D01*
X0265892Y0022896D01*
X0265801Y0022773D01*
X0265707Y0022652D01*
X0265609Y0022534D01*
X0265509Y0022418D01*
X0265405Y0022305D01*
X0265299Y0022194D01*
X0265190Y0022086D01*
X0265078Y0021981D01*
X0264964Y0021880D01*
X0264846Y0021781D01*
X0264727Y0021685D01*
X0264605Y0021592D01*
X0264480Y0021503D01*
X0264353Y0021416D01*
X0264224Y0021334D01*
X0264093Y0021254D01*
X0263960Y0021178D01*
X0263825Y0021105D01*
X0263688Y0021036D01*
X0263549Y0020971D01*
X0263409Y0020909D01*
X0263267Y0020851D01*
X0263124Y0020796D01*
X0262979Y0020745D01*
X0262833Y0020698D01*
X0262686Y0020655D01*
X0262538Y0020616D01*
X0262389Y0020580D01*
X0262239Y0020549D01*
X0262088Y0020521D01*
X0261937Y0020497D01*
X0261784Y0020477D01*
X0261632Y0020461D01*
X0261479Y0020449D01*
X0261326Y0020441D01*
X0261173Y0020437D01*
X0261019Y0020437D01*
X0260866Y0020441D01*
X0260713Y0020449D01*
X0260560Y0020461D01*
X0260408Y0020477D01*
X0260255Y0020497D01*
X0260104Y0020521D01*
X0259953Y0020549D01*
X0259803Y0020580D01*
X0259654Y0020616D01*
X0259506Y0020655D01*
X0259359Y0020698D01*
X0259213Y0020745D01*
X0259068Y0020796D01*
X0258925Y0020851D01*
X0258783Y0020909D01*
X0258643Y0020971D01*
X0258504Y0021036D01*
X0258367Y0021105D01*
X0258232Y0021178D01*
X0258099Y0021254D01*
X0257968Y0021334D01*
X0257839Y0021416D01*
X0257712Y0021503D01*
X0257587Y0021592D01*
X0257465Y0021685D01*
X0257346Y0021781D01*
X0257228Y0021880D01*
X0257114Y0021981D01*
X0257002Y0022086D01*
X0256893Y0022194D01*
X0256787Y0022305D01*
X0256683Y0022418D01*
X0256583Y0022534D01*
X0256485Y0022652D01*
X0256391Y0022773D01*
X0256300Y0022896D01*
X0256212Y0023022D01*
X0256128Y0023150D01*
X0256046Y0023280D01*
X0255969Y0023412D01*
X0255894Y0023546D01*
X0255823Y0023682D01*
X0255756Y0023820D01*
X0255692Y0023960D01*
X0255632Y0024101D01*
X0255576Y0024243D01*
X0255523Y0024387D01*
X0255474Y0024533D01*
X0255429Y0024679D01*
X0255388Y0024827D01*
X0255351Y0024975D01*
X0255317Y0025125D01*
X0255287Y0025276D01*
X0255262Y0025427D01*
X0255240Y0025578D01*
X0255222Y0025731D01*
X0255208Y0025883D01*
X0255198Y0026036D01*
X0255192Y0026190D01*
X0255190Y0026343D01*
D12*
X0211500Y0023154D03*
X0204000Y0023154D03*
X0204000Y0029846D03*
X0211500Y0029846D03*
X0192750Y0030471D03*
X0192750Y0023779D03*
X0157750Y0023779D03*
X0147750Y0023779D03*
X0147750Y0030471D03*
X0157750Y0030471D03*
X0152750Y0049404D03*
X0152750Y0056096D03*
X0165599Y0064374D03*
X0171849Y0064374D03*
X0171849Y0071067D03*
X0165599Y0071067D03*
X0112750Y0030471D03*
X0112750Y0023779D03*
D13*
X0101500Y0043941D03*
X0101500Y0049059D03*
X0114000Y0070191D03*
X0114000Y0075309D03*
X0119000Y0091441D03*
X0119000Y0096559D03*
X0126500Y0096559D03*
X0126500Y0091441D03*
X0154000Y0075309D03*
X0154000Y0070191D03*
X0158375Y0056559D03*
X0158375Y0051441D03*
X0140250Y0052809D03*
X0140250Y0047691D03*
X0177750Y0063941D03*
X0177750Y0069059D03*
X0191776Y0056589D03*
X0191776Y0051470D03*
X0211776Y0049089D03*
X0211776Y0043970D03*
D14*
X0217691Y0042750D03*
X0222809Y0042750D03*
X0222809Y0050250D03*
X0217691Y0050250D03*
X0214030Y0056776D03*
X0208911Y0056776D03*
X0124059Y0061500D03*
X0118941Y0061500D03*
X0095309Y0050250D03*
X0090191Y0050250D03*
X0090191Y0042750D03*
X0095309Y0042750D03*
X0120191Y0085250D03*
X0125309Y0085250D03*
D15*
X0123951Y0077839D03*
X0123951Y0075280D03*
X0123951Y0072720D03*
X0123951Y0070161D03*
X0146549Y0070161D03*
X0146549Y0072720D03*
X0146549Y0075280D03*
X0146549Y0077839D03*
X0132799Y0055339D03*
X0132799Y0052780D03*
X0132799Y0050220D03*
X0132799Y0047661D03*
X0110201Y0047661D03*
X0110201Y0050220D03*
X0110201Y0052780D03*
X0110201Y0055339D03*
D16*
X0124344Y0025004D03*
X0136156Y0025004D03*
X0169344Y0025004D03*
X0181156Y0025004D03*
D17*
X0175250Y0025348D03*
X0130250Y0025348D03*
D18*
X0130250Y0034404D03*
X0175250Y0034404D03*
D19*
X0219600Y0030811D03*
X0224600Y0030811D03*
X0229600Y0030811D03*
X0234600Y0030811D03*
X0239600Y0030811D03*
X0239600Y0025811D03*
X0234600Y0025811D03*
X0229600Y0025811D03*
X0224600Y0025811D03*
X0219600Y0025811D03*
D20*
X0230250Y0042760D03*
X0230250Y0050240D03*
X0204000Y0085260D03*
X0204000Y0092740D03*
X0082750Y0050240D03*
X0075250Y0050240D03*
X0075250Y0042760D03*
X0082750Y0042760D03*
D21*
X0119010Y0104000D03*
X0126490Y0104000D03*
D22*
X0198280Y0056224D03*
X0202280Y0056224D03*
D23*
X0182600Y0056650D03*
X0182600Y0054750D03*
X0182600Y0052750D03*
X0182600Y0050750D03*
X0182600Y0048850D03*
X0165400Y0048850D03*
X0165400Y0050750D03*
X0165400Y0052750D03*
X0165400Y0054750D03*
X0165400Y0056650D03*
D24*
X0079994Y0028311D03*
X0064246Y0028311D03*
X0144955Y0142484D03*
X0160703Y0142484D03*
D25*
X0123467Y0122427D02*
X0123467Y0118133D01*
X0123467Y0122427D02*
X0124651Y0122427D01*
X0124651Y0118133D01*
X0123467Y0118133D01*
X0123467Y0118883D02*
X0124651Y0118883D01*
X0124651Y0119633D02*
X0123467Y0119633D01*
X0123467Y0120383D02*
X0124651Y0120383D01*
X0124651Y0121133D02*
X0123467Y0121133D01*
X0123467Y0121883D02*
X0124651Y0121883D01*
X0120908Y0122427D02*
X0120908Y0118133D01*
X0120908Y0122427D02*
X0122092Y0122427D01*
X0122092Y0118133D01*
X0120908Y0118133D01*
X0120908Y0118883D02*
X0122092Y0118883D01*
X0122092Y0119633D02*
X0120908Y0119633D01*
X0120908Y0120383D02*
X0122092Y0120383D01*
X0122092Y0121133D02*
X0120908Y0121133D01*
X0120908Y0121883D02*
X0122092Y0121883D01*
X0118349Y0122427D02*
X0118349Y0118133D01*
X0118349Y0122427D02*
X0119533Y0122427D01*
X0119533Y0118133D01*
X0118349Y0118133D01*
X0118349Y0118883D02*
X0119533Y0118883D01*
X0119533Y0119633D02*
X0118349Y0119633D01*
X0118349Y0120383D02*
X0119533Y0120383D01*
X0119533Y0121133D02*
X0118349Y0121133D01*
X0118349Y0121883D02*
X0119533Y0121883D01*
X0119533Y0114867D02*
X0119533Y0110573D01*
X0118349Y0110573D01*
X0118349Y0114867D01*
X0119533Y0114867D01*
X0119533Y0111323D02*
X0118349Y0111323D01*
X0118349Y0112073D02*
X0119533Y0112073D01*
X0119533Y0112823D02*
X0118349Y0112823D01*
X0118349Y0113573D02*
X0119533Y0113573D01*
X0119533Y0114323D02*
X0118349Y0114323D01*
X0122092Y0114867D02*
X0122092Y0110573D01*
X0120908Y0110573D01*
X0120908Y0114867D01*
X0122092Y0114867D01*
X0122092Y0111323D02*
X0120908Y0111323D01*
X0120908Y0112073D02*
X0122092Y0112073D01*
X0122092Y0112823D02*
X0120908Y0112823D01*
X0120908Y0113573D02*
X0122092Y0113573D01*
X0122092Y0114323D02*
X0120908Y0114323D01*
X0124651Y0114867D02*
X0124651Y0110573D01*
X0123467Y0110573D01*
X0123467Y0114867D01*
X0124651Y0114867D01*
X0124651Y0111323D02*
X0123467Y0111323D01*
X0123467Y0112073D02*
X0124651Y0112073D01*
X0124651Y0112823D02*
X0123467Y0112823D01*
X0123467Y0113573D02*
X0124651Y0113573D01*
X0124651Y0114323D02*
X0123467Y0114323D01*
D26*
X0153646Y0062750D03*
X0159354Y0062750D03*
D27*
X0164817Y0112957D03*
X0164817Y0120043D03*
X0185683Y0120043D03*
X0185683Y0112957D03*
D28*
X0196500Y0109472D03*
X0196500Y0118528D03*
D29*
X0195250Y0101283D03*
X0195250Y0086717D03*
D30*
X0195526Y0072750D03*
X0204974Y0072750D03*
D31*
X0132750Y0120978D03*
X0132750Y0124522D03*
X0177750Y0136750D03*
X0177750Y0140250D03*
X0177750Y0143750D03*
D32*
X0139846Y0112750D03*
X0133154Y0112750D03*
D33*
X0146510Y0112000D03*
X0150250Y0112000D03*
X0153990Y0112000D03*
X0153990Y0121000D03*
X0150250Y0121000D03*
X0146510Y0121000D03*
D34*
X0145250Y0103262D03*
X0136500Y0103262D03*
X0154000Y0103262D03*
X0166500Y0094512D03*
X0176500Y0094512D03*
X0186500Y0094512D03*
X0186500Y0083488D03*
X0176500Y0083488D03*
X0166500Y0083488D03*
X0154000Y0092238D03*
X0145250Y0092238D03*
X0136500Y0092238D03*
M02*
