%
M48
M72
T01C0.0122
T02C0.0138
T03C0.0150
T04C0.0200
T05C0.0394
T06C0.0400
%
T01
X17265Y6313
X16515Y6313
X15765Y6313
X15765Y7063
X15765Y7750
X16515Y7750
X16515Y7063
X17265Y7063
X17265Y7750
T02
X23953Y16000
X22453Y15563
X22765Y14438
X20703Y13688
X20140Y13625
X19765Y13813
X19961Y14063
X19515Y14063
X19429Y14375
X19078Y14625
X19140Y15188
X18640Y15125
X18578Y15375
X18060Y15625
X17890Y15813
X17828Y15500
X17203Y15688
X17015Y15438
X17203Y14813
X18015Y14563
X17890Y13750
X17828Y12813
X19140Y13500
X19961Y12750
X20001Y12486
X20703Y12313
X21078Y12688
X22297Y11936
X23265Y11188
X24140Y11313
X23078Y10500
X21359Y10063
X21203Y10750
X19984Y10938
X19765Y10375
X19501Y10389
X19390Y10821
X18765Y11063
X18015Y11063
X16953Y11500
X16765Y11188
X16390Y11500
X15953Y11313
X16203Y10813
X15828Y10563
X14765Y10625
X13773Y9536
X13088Y10524
X13015Y11250
X12515Y11250
X12390Y11500
X12390Y12000
X12890Y11813
X13328Y12250
X13515Y12688
X13328Y12875
X13640Y13063
X14515Y13313
X14765Y12875
X13703Y14000
X13390Y13999
X11828Y14688
X11828Y15000
X12390Y15375
X12390Y15915
X13265Y15375
X13578Y15813
X13015Y16585
X11765Y17125
X11578Y17313
X11015Y17375
X10890Y17125
X10390Y17375
X11140Y16585
X11140Y15875
X10515Y15438
X9640Y15188
X9515Y14875
X8953Y15438
X8953Y15750
X8953Y16063
X9078Y16625
X9265Y17250
X8453Y17250
X7140Y16625
X8078Y16000
X7388Y15125
X7078Y15125
X7078Y14563
X7015Y14125
X8140Y13250
X8390Y13000
X8953Y12688
X8953Y12438
X8953Y12188
X9765Y11750
X9881Y11440
X9828Y11188
X9828Y10892
X10203Y10375
X10390Y10688
X11015Y10688
X10953Y10313
X11578Y9789
X11140Y11065
X11143Y11625
X10765Y12125
X10453Y12688
X10953Y13000
X11265Y13625
X9390Y13563
X8453Y13750
X8453Y14063
X7140Y12625
X7078Y11500
X6078Y11438
X6203Y10625
X5515Y9500
X4203Y10563
X4140Y11375
X7890Y10313
X8715Y9500
X8564Y9076
X9703Y9519
X9890Y10125
X9203Y11250
X9328Y7285
X10171Y7250
X10578Y7285
X10984Y6889
X10828Y6688
X10828Y6435
X10828Y6182
X9828Y6366
X9203Y6438
X8578Y6438
X7953Y6438
X6265Y5196
X6453Y4679
X6015Y3938
X6640Y3500
X7328Y4625
X9015Y3875
X8973Y3622
X9140Y4128
X10015Y4128
X10015Y3875
X10279Y3889
X10765Y3750
X9901Y3198
X12267Y3750
X12262Y4500
X12515Y4539
X12072Y5071
X11819Y5071
X13154Y6236
X13006Y6446
X12828Y6625
X12520Y6682
X12404Y6924
X12140Y6938
X13407Y6188
X14583Y5938
X15203Y5813
X16711Y4980
X17140Y5188
X17393Y5125
X17140Y4750
X16703Y4727
X16703Y4438
X16280Y3641
X15768Y3151
X15140Y4116
X14828Y4116
X16328Y2197
X17703Y2563
X18953Y3616
X19279Y3889
X18390Y4009
X18140Y4375
X17890Y4125
X17890Y5500
X18015Y8619
X16953Y8563
X16640Y8750
X18015Y9688
X19890Y10125
X20265Y11563
X20703Y11688
X20390Y14375
X20328Y15125
X20143Y15724
X19890Y15750
X19640Y15688
X19387Y15750
X19140Y16250
X19640Y16526
X19830Y16750
X20089Y16813
X20203Y17438
X19265Y16688
X18890Y16924
X18440Y16700
X17203Y16313
X17140Y16875
X16203Y16063
X16203Y15750
X15390Y16188
X15265Y16938
X14703Y17375
X14578Y16000
X20640Y15813
X22578Y17188
X3703Y15813
X4453Y16750
X4890Y16250
X6140Y17375
X24140Y12250
T03
X4285Y2406
X20910Y2350
X20910Y2650
X20910Y2950
X20910Y3250
X20910Y3550
X20910Y3850
X20910Y4150
X20910Y4450
X20910Y4750
X20910Y5050
X20910Y5350
X20910Y5650
X20910Y5950
X20910Y6250
X20910Y6550
X20610Y6550
X20310Y6550
X20010Y6550
X19710Y6550
X19410Y6550
X19110Y6550
X18810Y6550
X18510Y6550
X18241Y6550
X19223Y6125
X20223Y5938
X20348Y5188
X19285Y4188
X20348Y3938
X21590Y4440
X18035Y3375
X17410Y3500
X17285Y2625
X17973Y2563
X14785Y3375
X14160Y4063
X13098Y4063
X11098Y2563
X10629Y3469
X8973Y4500
X8223Y3563
X7785Y3344
X7316Y3625
X6629Y3156
X6285Y3313
X5723Y3938
X4598Y5125
X4223Y4688
X5910Y5875
X5348Y6375
X4160Y7375
X3598Y7875
X6098Y8250
X6910Y8625
X7910Y9250
X7973Y9750
X10098Y9750
X11348Y9000
X11785Y8688
X12723Y8938
X14098Y9000
X14473Y7938
X15348Y8250
X16535Y9188
X16535Y9563
X19110Y7750
X19410Y7750
X19710Y7750
X20610Y7750
X20910Y7750
X20910Y8050
X21510Y8350
X21810Y8350
X22110Y8350
X22410Y8350
X22710Y8350
X23010Y8350
X23310Y8350
X23610Y8350
X23910Y8350
X23660Y8813
X22973Y9250
X22723Y8813
X21910Y9063
X13598Y5750
X12973Y5750
X12223Y7500
X10348Y5875
X7160Y7063
X7879Y2813
X7910Y2375
X12285Y2375
X13285Y2375
T04
X18390Y2625
X18890Y2625
X19390Y2625
X19890Y2625
X20390Y2625
X20390Y3125
X19890Y3125
X19390Y3125
X18890Y3125
X18390Y3125
T05
X6390Y2625
X7390Y2625
X8390Y2625
X9390Y2625
X10390Y2625
X11765Y2625
X12765Y2625
X13765Y2625
X14765Y2625
X23864Y13064
X23864Y14064
T06
X21328Y14250
X21328Y16250
M30
