G75*
%MOIN*%
%OFA0B0*%
%FSLAX25Y25*%
%IPPOS*%
%LPD*%
%AMOC8*
5,1,8,0,0,1.08239X$1,22.5*
%
%ADD10C,0.00001*%
%ADD11C,0.00980*%
%ADD12R,0.04337X0.04731*%
%ADD13R,0.02762X0.03550*%
%ADD14R,0.04731X0.04337*%
%ADD15R,0.07093X0.08274*%
%ADD16R,0.05124X0.05124*%
%ADD17C,0.10400*%
%ADD18OC8,0.10400*%
%ADD19R,0.02565X0.05124*%
%ADD20R,0.02900X0.04400*%
%ADD21R,0.02400X0.03156*%
%ADD22R,0.03943X0.03156*%
%ADD23R,0.03353X0.03156*%
%ADD24R,0.07487X0.04337*%
%ADD25R,0.03746X0.03943*%
%ADD26C,0.04400*%
%ADD27R,0.03156X0.03943*%
%ADD28C,0.07000*%
%ADD29R,0.03550X0.03550*%
%ADD30R,0.06700X0.05000*%
%ADD31R,0.07200X0.00600*%
%ADD32R,0.06306X0.09455*%
%ADD33R,0.05912X0.05912*%
%ADD34R,0.05400X0.02900*%
%ADD35R,0.02762X0.02762*%
%ADD36C,0.00039*%
%ADD37R,0.06227X0.20715*%
%ADD38R,0.04731X0.08274*%
%ADD39R,0.09140X0.06581*%
%ADD40R,0.07487X0.06699*%
%ADD41R,0.08274X0.08274*%
%ADD42R,0.02900X0.05400*%
%ADD43R,0.00500X0.00500*%
%ADD44R,0.03865X0.01306*%
%ADD45R,0.18510X0.18510*%
%ADD46R,0.01306X0.03865*%
%ADD47C,0.00790*%
%ADD48C,0.00714*%
%ADD49R,0.03038X0.04337*%
%ADD50R,0.01975X0.02408*%
D10*
X0035524Y0020000D02*
X0236311Y0020000D01*
X0236501Y0020002D01*
X0236691Y0020009D01*
X0236881Y0020021D01*
X0237071Y0020037D01*
X0237260Y0020057D01*
X0237449Y0020083D01*
X0237637Y0020112D01*
X0237824Y0020147D01*
X0238010Y0020186D01*
X0238195Y0020229D01*
X0238380Y0020277D01*
X0238563Y0020329D01*
X0238744Y0020385D01*
X0238924Y0020446D01*
X0239103Y0020512D01*
X0239280Y0020581D01*
X0239456Y0020655D01*
X0239629Y0020733D01*
X0239801Y0020816D01*
X0239970Y0020902D01*
X0240138Y0020992D01*
X0240303Y0021087D01*
X0240466Y0021185D01*
X0240626Y0021288D01*
X0240784Y0021394D01*
X0240939Y0021504D01*
X0241092Y0021617D01*
X0241242Y0021735D01*
X0241388Y0021856D01*
X0241532Y0021980D01*
X0241673Y0022108D01*
X0241811Y0022239D01*
X0241946Y0022374D01*
X0242077Y0022512D01*
X0242205Y0022653D01*
X0242329Y0022797D01*
X0242450Y0022943D01*
X0242568Y0023093D01*
X0242681Y0023246D01*
X0242791Y0023401D01*
X0242897Y0023559D01*
X0243000Y0023719D01*
X0243098Y0023882D01*
X0243193Y0024047D01*
X0243283Y0024215D01*
X0243369Y0024384D01*
X0243452Y0024556D01*
X0243530Y0024729D01*
X0243604Y0024905D01*
X0243673Y0025082D01*
X0243739Y0025261D01*
X0243800Y0025441D01*
X0243856Y0025622D01*
X0243908Y0025805D01*
X0243956Y0025990D01*
X0243999Y0026175D01*
X0244038Y0026361D01*
X0244073Y0026548D01*
X0244102Y0026736D01*
X0244128Y0026925D01*
X0244148Y0027114D01*
X0244164Y0027304D01*
X0244176Y0027494D01*
X0244183Y0027684D01*
X0244185Y0027874D01*
X0244185Y0169606D01*
X0231193Y0169606D02*
X0231195Y0169749D01*
X0231201Y0169892D01*
X0231211Y0170034D01*
X0231225Y0170176D01*
X0231243Y0170318D01*
X0231265Y0170460D01*
X0231290Y0170600D01*
X0231320Y0170740D01*
X0231354Y0170879D01*
X0231391Y0171017D01*
X0231433Y0171154D01*
X0231478Y0171289D01*
X0231527Y0171423D01*
X0231579Y0171556D01*
X0231635Y0171688D01*
X0231695Y0171817D01*
X0231759Y0171945D01*
X0231826Y0172072D01*
X0231897Y0172196D01*
X0231971Y0172318D01*
X0232048Y0172438D01*
X0232129Y0172556D01*
X0232213Y0172672D01*
X0232300Y0172785D01*
X0232390Y0172896D01*
X0232484Y0173004D01*
X0232580Y0173110D01*
X0232679Y0173212D01*
X0232782Y0173312D01*
X0232886Y0173409D01*
X0232994Y0173504D01*
X0233104Y0173595D01*
X0233217Y0173683D01*
X0233332Y0173767D01*
X0233449Y0173849D01*
X0233569Y0173927D01*
X0233690Y0174002D01*
X0233814Y0174074D01*
X0233940Y0174142D01*
X0234067Y0174206D01*
X0234197Y0174267D01*
X0234328Y0174324D01*
X0234460Y0174378D01*
X0234594Y0174427D01*
X0234729Y0174474D01*
X0234866Y0174516D01*
X0235004Y0174554D01*
X0235142Y0174589D01*
X0235282Y0174619D01*
X0235422Y0174646D01*
X0235563Y0174669D01*
X0235705Y0174688D01*
X0235847Y0174703D01*
X0235990Y0174714D01*
X0236132Y0174721D01*
X0236275Y0174724D01*
X0236418Y0174723D01*
X0236561Y0174718D01*
X0236704Y0174709D01*
X0236846Y0174696D01*
X0236988Y0174679D01*
X0237129Y0174658D01*
X0237270Y0174633D01*
X0237410Y0174605D01*
X0237549Y0174572D01*
X0237687Y0174535D01*
X0237824Y0174495D01*
X0237960Y0174451D01*
X0238095Y0174403D01*
X0238228Y0174351D01*
X0238360Y0174296D01*
X0238490Y0174237D01*
X0238619Y0174174D01*
X0238745Y0174108D01*
X0238870Y0174038D01*
X0238993Y0173965D01*
X0239113Y0173889D01*
X0239232Y0173809D01*
X0239348Y0173725D01*
X0239462Y0173639D01*
X0239573Y0173549D01*
X0239682Y0173457D01*
X0239788Y0173361D01*
X0239892Y0173263D01*
X0239993Y0173161D01*
X0240090Y0173057D01*
X0240185Y0172950D01*
X0240277Y0172841D01*
X0240366Y0172729D01*
X0240452Y0172614D01*
X0240534Y0172498D01*
X0240613Y0172378D01*
X0240689Y0172257D01*
X0240761Y0172134D01*
X0240830Y0172009D01*
X0240895Y0171882D01*
X0240957Y0171753D01*
X0241015Y0171622D01*
X0241070Y0171490D01*
X0241120Y0171356D01*
X0241167Y0171221D01*
X0241211Y0171085D01*
X0241250Y0170948D01*
X0241285Y0170809D01*
X0241317Y0170670D01*
X0241345Y0170530D01*
X0241369Y0170389D01*
X0241389Y0170247D01*
X0241405Y0170105D01*
X0241417Y0169963D01*
X0241425Y0169820D01*
X0241429Y0169677D01*
X0241429Y0169535D01*
X0241425Y0169392D01*
X0241417Y0169249D01*
X0241405Y0169107D01*
X0241389Y0168965D01*
X0241369Y0168823D01*
X0241345Y0168682D01*
X0241317Y0168542D01*
X0241285Y0168403D01*
X0241250Y0168264D01*
X0241211Y0168127D01*
X0241167Y0167991D01*
X0241120Y0167856D01*
X0241070Y0167722D01*
X0241015Y0167590D01*
X0240957Y0167459D01*
X0240895Y0167330D01*
X0240830Y0167203D01*
X0240761Y0167078D01*
X0240689Y0166955D01*
X0240613Y0166834D01*
X0240534Y0166714D01*
X0240452Y0166598D01*
X0240366Y0166483D01*
X0240277Y0166371D01*
X0240185Y0166262D01*
X0240090Y0166155D01*
X0239993Y0166051D01*
X0239892Y0165949D01*
X0239788Y0165851D01*
X0239682Y0165755D01*
X0239573Y0165663D01*
X0239462Y0165573D01*
X0239348Y0165487D01*
X0239232Y0165403D01*
X0239113Y0165323D01*
X0238993Y0165247D01*
X0238870Y0165174D01*
X0238745Y0165104D01*
X0238619Y0165038D01*
X0238490Y0164975D01*
X0238360Y0164916D01*
X0238228Y0164861D01*
X0238095Y0164809D01*
X0237960Y0164761D01*
X0237824Y0164717D01*
X0237687Y0164677D01*
X0237549Y0164640D01*
X0237410Y0164607D01*
X0237270Y0164579D01*
X0237129Y0164554D01*
X0236988Y0164533D01*
X0236846Y0164516D01*
X0236704Y0164503D01*
X0236561Y0164494D01*
X0236418Y0164489D01*
X0236275Y0164488D01*
X0236132Y0164491D01*
X0235990Y0164498D01*
X0235847Y0164509D01*
X0235705Y0164524D01*
X0235563Y0164543D01*
X0235422Y0164566D01*
X0235282Y0164593D01*
X0235142Y0164623D01*
X0235004Y0164658D01*
X0234866Y0164696D01*
X0234729Y0164738D01*
X0234594Y0164785D01*
X0234460Y0164834D01*
X0234328Y0164888D01*
X0234197Y0164945D01*
X0234067Y0165006D01*
X0233940Y0165070D01*
X0233814Y0165138D01*
X0233690Y0165210D01*
X0233569Y0165285D01*
X0233449Y0165363D01*
X0233332Y0165445D01*
X0233217Y0165529D01*
X0233104Y0165617D01*
X0232994Y0165708D01*
X0232886Y0165803D01*
X0232782Y0165900D01*
X0232679Y0166000D01*
X0232580Y0166102D01*
X0232484Y0166208D01*
X0232390Y0166316D01*
X0232300Y0166427D01*
X0232213Y0166540D01*
X0232129Y0166656D01*
X0232048Y0166774D01*
X0231971Y0166894D01*
X0231897Y0167016D01*
X0231826Y0167140D01*
X0231759Y0167267D01*
X0231695Y0167395D01*
X0231635Y0167524D01*
X0231579Y0167656D01*
X0231527Y0167789D01*
X0231478Y0167923D01*
X0231433Y0168058D01*
X0231391Y0168195D01*
X0231354Y0168333D01*
X0231320Y0168472D01*
X0231290Y0168612D01*
X0231265Y0168752D01*
X0231243Y0168894D01*
X0231225Y0169036D01*
X0231211Y0169178D01*
X0231201Y0169320D01*
X0231195Y0169463D01*
X0231193Y0169606D01*
X0236311Y0177480D02*
X0236501Y0177478D01*
X0236691Y0177471D01*
X0236881Y0177459D01*
X0237071Y0177443D01*
X0237260Y0177423D01*
X0237449Y0177397D01*
X0237637Y0177368D01*
X0237824Y0177333D01*
X0238010Y0177294D01*
X0238195Y0177251D01*
X0238380Y0177203D01*
X0238563Y0177151D01*
X0238744Y0177095D01*
X0238924Y0177034D01*
X0239103Y0176968D01*
X0239280Y0176899D01*
X0239456Y0176825D01*
X0239629Y0176747D01*
X0239801Y0176664D01*
X0239970Y0176578D01*
X0240138Y0176488D01*
X0240303Y0176393D01*
X0240466Y0176295D01*
X0240626Y0176192D01*
X0240784Y0176086D01*
X0240939Y0175976D01*
X0241092Y0175863D01*
X0241242Y0175745D01*
X0241388Y0175624D01*
X0241532Y0175500D01*
X0241673Y0175372D01*
X0241811Y0175241D01*
X0241946Y0175106D01*
X0242077Y0174968D01*
X0242205Y0174827D01*
X0242329Y0174683D01*
X0242450Y0174537D01*
X0242568Y0174387D01*
X0242681Y0174234D01*
X0242791Y0174079D01*
X0242897Y0173921D01*
X0243000Y0173761D01*
X0243098Y0173598D01*
X0243193Y0173433D01*
X0243283Y0173265D01*
X0243369Y0173096D01*
X0243452Y0172924D01*
X0243530Y0172751D01*
X0243604Y0172575D01*
X0243673Y0172398D01*
X0243739Y0172219D01*
X0243800Y0172039D01*
X0243856Y0171858D01*
X0243908Y0171675D01*
X0243956Y0171490D01*
X0243999Y0171305D01*
X0244038Y0171119D01*
X0244073Y0170932D01*
X0244102Y0170744D01*
X0244128Y0170555D01*
X0244148Y0170366D01*
X0244164Y0170176D01*
X0244176Y0169986D01*
X0244183Y0169796D01*
X0244185Y0169606D01*
X0236311Y0177480D02*
X0035524Y0177480D01*
X0030406Y0169606D02*
X0030408Y0169749D01*
X0030414Y0169892D01*
X0030424Y0170034D01*
X0030438Y0170176D01*
X0030456Y0170318D01*
X0030478Y0170460D01*
X0030503Y0170600D01*
X0030533Y0170740D01*
X0030567Y0170879D01*
X0030604Y0171017D01*
X0030646Y0171154D01*
X0030691Y0171289D01*
X0030740Y0171423D01*
X0030792Y0171556D01*
X0030848Y0171688D01*
X0030908Y0171817D01*
X0030972Y0171945D01*
X0031039Y0172072D01*
X0031110Y0172196D01*
X0031184Y0172318D01*
X0031261Y0172438D01*
X0031342Y0172556D01*
X0031426Y0172672D01*
X0031513Y0172785D01*
X0031603Y0172896D01*
X0031697Y0173004D01*
X0031793Y0173110D01*
X0031892Y0173212D01*
X0031995Y0173312D01*
X0032099Y0173409D01*
X0032207Y0173504D01*
X0032317Y0173595D01*
X0032430Y0173683D01*
X0032545Y0173767D01*
X0032662Y0173849D01*
X0032782Y0173927D01*
X0032903Y0174002D01*
X0033027Y0174074D01*
X0033153Y0174142D01*
X0033280Y0174206D01*
X0033410Y0174267D01*
X0033541Y0174324D01*
X0033673Y0174378D01*
X0033807Y0174427D01*
X0033942Y0174474D01*
X0034079Y0174516D01*
X0034217Y0174554D01*
X0034355Y0174589D01*
X0034495Y0174619D01*
X0034635Y0174646D01*
X0034776Y0174669D01*
X0034918Y0174688D01*
X0035060Y0174703D01*
X0035203Y0174714D01*
X0035345Y0174721D01*
X0035488Y0174724D01*
X0035631Y0174723D01*
X0035774Y0174718D01*
X0035917Y0174709D01*
X0036059Y0174696D01*
X0036201Y0174679D01*
X0036342Y0174658D01*
X0036483Y0174633D01*
X0036623Y0174605D01*
X0036762Y0174572D01*
X0036900Y0174535D01*
X0037037Y0174495D01*
X0037173Y0174451D01*
X0037308Y0174403D01*
X0037441Y0174351D01*
X0037573Y0174296D01*
X0037703Y0174237D01*
X0037832Y0174174D01*
X0037958Y0174108D01*
X0038083Y0174038D01*
X0038206Y0173965D01*
X0038326Y0173889D01*
X0038445Y0173809D01*
X0038561Y0173725D01*
X0038675Y0173639D01*
X0038786Y0173549D01*
X0038895Y0173457D01*
X0039001Y0173361D01*
X0039105Y0173263D01*
X0039206Y0173161D01*
X0039303Y0173057D01*
X0039398Y0172950D01*
X0039490Y0172841D01*
X0039579Y0172729D01*
X0039665Y0172614D01*
X0039747Y0172498D01*
X0039826Y0172378D01*
X0039902Y0172257D01*
X0039974Y0172134D01*
X0040043Y0172009D01*
X0040108Y0171882D01*
X0040170Y0171753D01*
X0040228Y0171622D01*
X0040283Y0171490D01*
X0040333Y0171356D01*
X0040380Y0171221D01*
X0040424Y0171085D01*
X0040463Y0170948D01*
X0040498Y0170809D01*
X0040530Y0170670D01*
X0040558Y0170530D01*
X0040582Y0170389D01*
X0040602Y0170247D01*
X0040618Y0170105D01*
X0040630Y0169963D01*
X0040638Y0169820D01*
X0040642Y0169677D01*
X0040642Y0169535D01*
X0040638Y0169392D01*
X0040630Y0169249D01*
X0040618Y0169107D01*
X0040602Y0168965D01*
X0040582Y0168823D01*
X0040558Y0168682D01*
X0040530Y0168542D01*
X0040498Y0168403D01*
X0040463Y0168264D01*
X0040424Y0168127D01*
X0040380Y0167991D01*
X0040333Y0167856D01*
X0040283Y0167722D01*
X0040228Y0167590D01*
X0040170Y0167459D01*
X0040108Y0167330D01*
X0040043Y0167203D01*
X0039974Y0167078D01*
X0039902Y0166955D01*
X0039826Y0166834D01*
X0039747Y0166714D01*
X0039665Y0166598D01*
X0039579Y0166483D01*
X0039490Y0166371D01*
X0039398Y0166262D01*
X0039303Y0166155D01*
X0039206Y0166051D01*
X0039105Y0165949D01*
X0039001Y0165851D01*
X0038895Y0165755D01*
X0038786Y0165663D01*
X0038675Y0165573D01*
X0038561Y0165487D01*
X0038445Y0165403D01*
X0038326Y0165323D01*
X0038206Y0165247D01*
X0038083Y0165174D01*
X0037958Y0165104D01*
X0037832Y0165038D01*
X0037703Y0164975D01*
X0037573Y0164916D01*
X0037441Y0164861D01*
X0037308Y0164809D01*
X0037173Y0164761D01*
X0037037Y0164717D01*
X0036900Y0164677D01*
X0036762Y0164640D01*
X0036623Y0164607D01*
X0036483Y0164579D01*
X0036342Y0164554D01*
X0036201Y0164533D01*
X0036059Y0164516D01*
X0035917Y0164503D01*
X0035774Y0164494D01*
X0035631Y0164489D01*
X0035488Y0164488D01*
X0035345Y0164491D01*
X0035203Y0164498D01*
X0035060Y0164509D01*
X0034918Y0164524D01*
X0034776Y0164543D01*
X0034635Y0164566D01*
X0034495Y0164593D01*
X0034355Y0164623D01*
X0034217Y0164658D01*
X0034079Y0164696D01*
X0033942Y0164738D01*
X0033807Y0164785D01*
X0033673Y0164834D01*
X0033541Y0164888D01*
X0033410Y0164945D01*
X0033280Y0165006D01*
X0033153Y0165070D01*
X0033027Y0165138D01*
X0032903Y0165210D01*
X0032782Y0165285D01*
X0032662Y0165363D01*
X0032545Y0165445D01*
X0032430Y0165529D01*
X0032317Y0165617D01*
X0032207Y0165708D01*
X0032099Y0165803D01*
X0031995Y0165900D01*
X0031892Y0166000D01*
X0031793Y0166102D01*
X0031697Y0166208D01*
X0031603Y0166316D01*
X0031513Y0166427D01*
X0031426Y0166540D01*
X0031342Y0166656D01*
X0031261Y0166774D01*
X0031184Y0166894D01*
X0031110Y0167016D01*
X0031039Y0167140D01*
X0030972Y0167267D01*
X0030908Y0167395D01*
X0030848Y0167524D01*
X0030792Y0167656D01*
X0030740Y0167789D01*
X0030691Y0167923D01*
X0030646Y0168058D01*
X0030604Y0168195D01*
X0030567Y0168333D01*
X0030533Y0168472D01*
X0030503Y0168612D01*
X0030478Y0168752D01*
X0030456Y0168894D01*
X0030438Y0169036D01*
X0030424Y0169178D01*
X0030414Y0169320D01*
X0030408Y0169463D01*
X0030406Y0169606D01*
X0027650Y0169606D02*
X0027650Y0027874D01*
X0030406Y0027874D02*
X0030408Y0028017D01*
X0030414Y0028160D01*
X0030424Y0028302D01*
X0030438Y0028444D01*
X0030456Y0028586D01*
X0030478Y0028728D01*
X0030503Y0028868D01*
X0030533Y0029008D01*
X0030567Y0029147D01*
X0030604Y0029285D01*
X0030646Y0029422D01*
X0030691Y0029557D01*
X0030740Y0029691D01*
X0030792Y0029824D01*
X0030848Y0029956D01*
X0030908Y0030085D01*
X0030972Y0030213D01*
X0031039Y0030340D01*
X0031110Y0030464D01*
X0031184Y0030586D01*
X0031261Y0030706D01*
X0031342Y0030824D01*
X0031426Y0030940D01*
X0031513Y0031053D01*
X0031603Y0031164D01*
X0031697Y0031272D01*
X0031793Y0031378D01*
X0031892Y0031480D01*
X0031995Y0031580D01*
X0032099Y0031677D01*
X0032207Y0031772D01*
X0032317Y0031863D01*
X0032430Y0031951D01*
X0032545Y0032035D01*
X0032662Y0032117D01*
X0032782Y0032195D01*
X0032903Y0032270D01*
X0033027Y0032342D01*
X0033153Y0032410D01*
X0033280Y0032474D01*
X0033410Y0032535D01*
X0033541Y0032592D01*
X0033673Y0032646D01*
X0033807Y0032695D01*
X0033942Y0032742D01*
X0034079Y0032784D01*
X0034217Y0032822D01*
X0034355Y0032857D01*
X0034495Y0032887D01*
X0034635Y0032914D01*
X0034776Y0032937D01*
X0034918Y0032956D01*
X0035060Y0032971D01*
X0035203Y0032982D01*
X0035345Y0032989D01*
X0035488Y0032992D01*
X0035631Y0032991D01*
X0035774Y0032986D01*
X0035917Y0032977D01*
X0036059Y0032964D01*
X0036201Y0032947D01*
X0036342Y0032926D01*
X0036483Y0032901D01*
X0036623Y0032873D01*
X0036762Y0032840D01*
X0036900Y0032803D01*
X0037037Y0032763D01*
X0037173Y0032719D01*
X0037308Y0032671D01*
X0037441Y0032619D01*
X0037573Y0032564D01*
X0037703Y0032505D01*
X0037832Y0032442D01*
X0037958Y0032376D01*
X0038083Y0032306D01*
X0038206Y0032233D01*
X0038326Y0032157D01*
X0038445Y0032077D01*
X0038561Y0031993D01*
X0038675Y0031907D01*
X0038786Y0031817D01*
X0038895Y0031725D01*
X0039001Y0031629D01*
X0039105Y0031531D01*
X0039206Y0031429D01*
X0039303Y0031325D01*
X0039398Y0031218D01*
X0039490Y0031109D01*
X0039579Y0030997D01*
X0039665Y0030882D01*
X0039747Y0030766D01*
X0039826Y0030646D01*
X0039902Y0030525D01*
X0039974Y0030402D01*
X0040043Y0030277D01*
X0040108Y0030150D01*
X0040170Y0030021D01*
X0040228Y0029890D01*
X0040283Y0029758D01*
X0040333Y0029624D01*
X0040380Y0029489D01*
X0040424Y0029353D01*
X0040463Y0029216D01*
X0040498Y0029077D01*
X0040530Y0028938D01*
X0040558Y0028798D01*
X0040582Y0028657D01*
X0040602Y0028515D01*
X0040618Y0028373D01*
X0040630Y0028231D01*
X0040638Y0028088D01*
X0040642Y0027945D01*
X0040642Y0027803D01*
X0040638Y0027660D01*
X0040630Y0027517D01*
X0040618Y0027375D01*
X0040602Y0027233D01*
X0040582Y0027091D01*
X0040558Y0026950D01*
X0040530Y0026810D01*
X0040498Y0026671D01*
X0040463Y0026532D01*
X0040424Y0026395D01*
X0040380Y0026259D01*
X0040333Y0026124D01*
X0040283Y0025990D01*
X0040228Y0025858D01*
X0040170Y0025727D01*
X0040108Y0025598D01*
X0040043Y0025471D01*
X0039974Y0025346D01*
X0039902Y0025223D01*
X0039826Y0025102D01*
X0039747Y0024982D01*
X0039665Y0024866D01*
X0039579Y0024751D01*
X0039490Y0024639D01*
X0039398Y0024530D01*
X0039303Y0024423D01*
X0039206Y0024319D01*
X0039105Y0024217D01*
X0039001Y0024119D01*
X0038895Y0024023D01*
X0038786Y0023931D01*
X0038675Y0023841D01*
X0038561Y0023755D01*
X0038445Y0023671D01*
X0038326Y0023591D01*
X0038206Y0023515D01*
X0038083Y0023442D01*
X0037958Y0023372D01*
X0037832Y0023306D01*
X0037703Y0023243D01*
X0037573Y0023184D01*
X0037441Y0023129D01*
X0037308Y0023077D01*
X0037173Y0023029D01*
X0037037Y0022985D01*
X0036900Y0022945D01*
X0036762Y0022908D01*
X0036623Y0022875D01*
X0036483Y0022847D01*
X0036342Y0022822D01*
X0036201Y0022801D01*
X0036059Y0022784D01*
X0035917Y0022771D01*
X0035774Y0022762D01*
X0035631Y0022757D01*
X0035488Y0022756D01*
X0035345Y0022759D01*
X0035203Y0022766D01*
X0035060Y0022777D01*
X0034918Y0022792D01*
X0034776Y0022811D01*
X0034635Y0022834D01*
X0034495Y0022861D01*
X0034355Y0022891D01*
X0034217Y0022926D01*
X0034079Y0022964D01*
X0033942Y0023006D01*
X0033807Y0023053D01*
X0033673Y0023102D01*
X0033541Y0023156D01*
X0033410Y0023213D01*
X0033280Y0023274D01*
X0033153Y0023338D01*
X0033027Y0023406D01*
X0032903Y0023478D01*
X0032782Y0023553D01*
X0032662Y0023631D01*
X0032545Y0023713D01*
X0032430Y0023797D01*
X0032317Y0023885D01*
X0032207Y0023976D01*
X0032099Y0024071D01*
X0031995Y0024168D01*
X0031892Y0024268D01*
X0031793Y0024370D01*
X0031697Y0024476D01*
X0031603Y0024584D01*
X0031513Y0024695D01*
X0031426Y0024808D01*
X0031342Y0024924D01*
X0031261Y0025042D01*
X0031184Y0025162D01*
X0031110Y0025284D01*
X0031039Y0025408D01*
X0030972Y0025535D01*
X0030908Y0025663D01*
X0030848Y0025792D01*
X0030792Y0025924D01*
X0030740Y0026057D01*
X0030691Y0026191D01*
X0030646Y0026326D01*
X0030604Y0026463D01*
X0030567Y0026601D01*
X0030533Y0026740D01*
X0030503Y0026880D01*
X0030478Y0027020D01*
X0030456Y0027162D01*
X0030438Y0027304D01*
X0030424Y0027446D01*
X0030414Y0027588D01*
X0030408Y0027731D01*
X0030406Y0027874D01*
X0027650Y0027874D02*
X0027652Y0027684D01*
X0027659Y0027494D01*
X0027671Y0027304D01*
X0027687Y0027114D01*
X0027707Y0026925D01*
X0027733Y0026736D01*
X0027762Y0026548D01*
X0027797Y0026361D01*
X0027836Y0026175D01*
X0027879Y0025990D01*
X0027927Y0025805D01*
X0027979Y0025622D01*
X0028035Y0025441D01*
X0028096Y0025261D01*
X0028162Y0025082D01*
X0028231Y0024905D01*
X0028305Y0024729D01*
X0028383Y0024556D01*
X0028466Y0024384D01*
X0028552Y0024215D01*
X0028642Y0024047D01*
X0028737Y0023882D01*
X0028835Y0023719D01*
X0028938Y0023559D01*
X0029044Y0023401D01*
X0029154Y0023246D01*
X0029267Y0023093D01*
X0029385Y0022943D01*
X0029506Y0022797D01*
X0029630Y0022653D01*
X0029758Y0022512D01*
X0029889Y0022374D01*
X0030024Y0022239D01*
X0030162Y0022108D01*
X0030303Y0021980D01*
X0030447Y0021856D01*
X0030593Y0021735D01*
X0030743Y0021617D01*
X0030896Y0021504D01*
X0031051Y0021394D01*
X0031209Y0021288D01*
X0031369Y0021185D01*
X0031532Y0021087D01*
X0031697Y0020992D01*
X0031865Y0020902D01*
X0032034Y0020816D01*
X0032206Y0020733D01*
X0032379Y0020655D01*
X0032555Y0020581D01*
X0032732Y0020512D01*
X0032911Y0020446D01*
X0033091Y0020385D01*
X0033272Y0020329D01*
X0033455Y0020277D01*
X0033640Y0020229D01*
X0033825Y0020186D01*
X0034011Y0020147D01*
X0034198Y0020112D01*
X0034386Y0020083D01*
X0034575Y0020057D01*
X0034764Y0020037D01*
X0034954Y0020021D01*
X0035144Y0020009D01*
X0035334Y0020002D01*
X0035524Y0020000D01*
X0187886Y0051496D02*
X0187888Y0051639D01*
X0187894Y0051782D01*
X0187904Y0051924D01*
X0187918Y0052066D01*
X0187936Y0052208D01*
X0187958Y0052350D01*
X0187983Y0052490D01*
X0188013Y0052630D01*
X0188047Y0052769D01*
X0188084Y0052907D01*
X0188126Y0053044D01*
X0188171Y0053179D01*
X0188220Y0053313D01*
X0188272Y0053446D01*
X0188328Y0053578D01*
X0188388Y0053707D01*
X0188452Y0053835D01*
X0188519Y0053962D01*
X0188590Y0054086D01*
X0188664Y0054208D01*
X0188741Y0054328D01*
X0188822Y0054446D01*
X0188906Y0054562D01*
X0188993Y0054675D01*
X0189083Y0054786D01*
X0189177Y0054894D01*
X0189273Y0055000D01*
X0189372Y0055102D01*
X0189475Y0055202D01*
X0189579Y0055299D01*
X0189687Y0055394D01*
X0189797Y0055485D01*
X0189910Y0055573D01*
X0190025Y0055657D01*
X0190142Y0055739D01*
X0190262Y0055817D01*
X0190383Y0055892D01*
X0190507Y0055964D01*
X0190633Y0056032D01*
X0190760Y0056096D01*
X0190890Y0056157D01*
X0191021Y0056214D01*
X0191153Y0056268D01*
X0191287Y0056317D01*
X0191422Y0056364D01*
X0191559Y0056406D01*
X0191697Y0056444D01*
X0191835Y0056479D01*
X0191975Y0056509D01*
X0192115Y0056536D01*
X0192256Y0056559D01*
X0192398Y0056578D01*
X0192540Y0056593D01*
X0192683Y0056604D01*
X0192825Y0056611D01*
X0192968Y0056614D01*
X0193111Y0056613D01*
X0193254Y0056608D01*
X0193397Y0056599D01*
X0193539Y0056586D01*
X0193681Y0056569D01*
X0193822Y0056548D01*
X0193963Y0056523D01*
X0194103Y0056495D01*
X0194242Y0056462D01*
X0194380Y0056425D01*
X0194517Y0056385D01*
X0194653Y0056341D01*
X0194788Y0056293D01*
X0194921Y0056241D01*
X0195053Y0056186D01*
X0195183Y0056127D01*
X0195312Y0056064D01*
X0195438Y0055998D01*
X0195563Y0055928D01*
X0195686Y0055855D01*
X0195806Y0055779D01*
X0195925Y0055699D01*
X0196041Y0055615D01*
X0196155Y0055529D01*
X0196266Y0055439D01*
X0196375Y0055347D01*
X0196481Y0055251D01*
X0196585Y0055153D01*
X0196686Y0055051D01*
X0196783Y0054947D01*
X0196878Y0054840D01*
X0196970Y0054731D01*
X0197059Y0054619D01*
X0197145Y0054504D01*
X0197227Y0054388D01*
X0197306Y0054268D01*
X0197382Y0054147D01*
X0197454Y0054024D01*
X0197523Y0053899D01*
X0197588Y0053772D01*
X0197650Y0053643D01*
X0197708Y0053512D01*
X0197763Y0053380D01*
X0197813Y0053246D01*
X0197860Y0053111D01*
X0197904Y0052975D01*
X0197943Y0052838D01*
X0197978Y0052699D01*
X0198010Y0052560D01*
X0198038Y0052420D01*
X0198062Y0052279D01*
X0198082Y0052137D01*
X0198098Y0051995D01*
X0198110Y0051853D01*
X0198118Y0051710D01*
X0198122Y0051567D01*
X0198122Y0051425D01*
X0198118Y0051282D01*
X0198110Y0051139D01*
X0198098Y0050997D01*
X0198082Y0050855D01*
X0198062Y0050713D01*
X0198038Y0050572D01*
X0198010Y0050432D01*
X0197978Y0050293D01*
X0197943Y0050154D01*
X0197904Y0050017D01*
X0197860Y0049881D01*
X0197813Y0049746D01*
X0197763Y0049612D01*
X0197708Y0049480D01*
X0197650Y0049349D01*
X0197588Y0049220D01*
X0197523Y0049093D01*
X0197454Y0048968D01*
X0197382Y0048845D01*
X0197306Y0048724D01*
X0197227Y0048604D01*
X0197145Y0048488D01*
X0197059Y0048373D01*
X0196970Y0048261D01*
X0196878Y0048152D01*
X0196783Y0048045D01*
X0196686Y0047941D01*
X0196585Y0047839D01*
X0196481Y0047741D01*
X0196375Y0047645D01*
X0196266Y0047553D01*
X0196155Y0047463D01*
X0196041Y0047377D01*
X0195925Y0047293D01*
X0195806Y0047213D01*
X0195686Y0047137D01*
X0195563Y0047064D01*
X0195438Y0046994D01*
X0195312Y0046928D01*
X0195183Y0046865D01*
X0195053Y0046806D01*
X0194921Y0046751D01*
X0194788Y0046699D01*
X0194653Y0046651D01*
X0194517Y0046607D01*
X0194380Y0046567D01*
X0194242Y0046530D01*
X0194103Y0046497D01*
X0193963Y0046469D01*
X0193822Y0046444D01*
X0193681Y0046423D01*
X0193539Y0046406D01*
X0193397Y0046393D01*
X0193254Y0046384D01*
X0193111Y0046379D01*
X0192968Y0046378D01*
X0192825Y0046381D01*
X0192683Y0046388D01*
X0192540Y0046399D01*
X0192398Y0046414D01*
X0192256Y0046433D01*
X0192115Y0046456D01*
X0191975Y0046483D01*
X0191835Y0046513D01*
X0191697Y0046548D01*
X0191559Y0046586D01*
X0191422Y0046628D01*
X0191287Y0046675D01*
X0191153Y0046724D01*
X0191021Y0046778D01*
X0190890Y0046835D01*
X0190760Y0046896D01*
X0190633Y0046960D01*
X0190507Y0047028D01*
X0190383Y0047100D01*
X0190262Y0047175D01*
X0190142Y0047253D01*
X0190025Y0047335D01*
X0189910Y0047419D01*
X0189797Y0047507D01*
X0189687Y0047598D01*
X0189579Y0047693D01*
X0189475Y0047790D01*
X0189372Y0047890D01*
X0189273Y0047992D01*
X0189177Y0048098D01*
X0189083Y0048206D01*
X0188993Y0048317D01*
X0188906Y0048430D01*
X0188822Y0048546D01*
X0188741Y0048664D01*
X0188664Y0048784D01*
X0188590Y0048906D01*
X0188519Y0049030D01*
X0188452Y0049157D01*
X0188388Y0049285D01*
X0188328Y0049414D01*
X0188272Y0049546D01*
X0188220Y0049679D01*
X0188171Y0049813D01*
X0188126Y0049948D01*
X0188084Y0050085D01*
X0188047Y0050223D01*
X0188013Y0050362D01*
X0187983Y0050502D01*
X0187958Y0050642D01*
X0187936Y0050784D01*
X0187918Y0050926D01*
X0187904Y0051068D01*
X0187894Y0051210D01*
X0187888Y0051353D01*
X0187886Y0051496D01*
X0035524Y0177480D02*
X0035334Y0177478D01*
X0035144Y0177471D01*
X0034954Y0177459D01*
X0034764Y0177443D01*
X0034575Y0177423D01*
X0034386Y0177397D01*
X0034198Y0177368D01*
X0034011Y0177333D01*
X0033825Y0177294D01*
X0033640Y0177251D01*
X0033455Y0177203D01*
X0033272Y0177151D01*
X0033091Y0177095D01*
X0032911Y0177034D01*
X0032732Y0176968D01*
X0032555Y0176899D01*
X0032379Y0176825D01*
X0032206Y0176747D01*
X0032034Y0176664D01*
X0031865Y0176578D01*
X0031697Y0176488D01*
X0031532Y0176393D01*
X0031369Y0176295D01*
X0031209Y0176192D01*
X0031051Y0176086D01*
X0030896Y0175976D01*
X0030743Y0175863D01*
X0030593Y0175745D01*
X0030447Y0175624D01*
X0030303Y0175500D01*
X0030162Y0175372D01*
X0030024Y0175241D01*
X0029889Y0175106D01*
X0029758Y0174968D01*
X0029630Y0174827D01*
X0029506Y0174683D01*
X0029385Y0174537D01*
X0029267Y0174387D01*
X0029154Y0174234D01*
X0029044Y0174079D01*
X0028938Y0173921D01*
X0028835Y0173761D01*
X0028737Y0173598D01*
X0028642Y0173433D01*
X0028552Y0173265D01*
X0028466Y0173096D01*
X0028383Y0172924D01*
X0028305Y0172751D01*
X0028231Y0172575D01*
X0028162Y0172398D01*
X0028096Y0172219D01*
X0028035Y0172039D01*
X0027979Y0171858D01*
X0027927Y0171675D01*
X0027879Y0171490D01*
X0027836Y0171305D01*
X0027797Y0171119D01*
X0027762Y0170932D01*
X0027733Y0170744D01*
X0027707Y0170555D01*
X0027687Y0170366D01*
X0027671Y0170176D01*
X0027659Y0169986D01*
X0027652Y0169796D01*
X0027650Y0169606D01*
D11*
X0119289Y0140861D02*
X0124417Y0140861D01*
X0124417Y0139119D01*
X0119289Y0139119D01*
X0119289Y0140861D01*
X0119289Y0140050D02*
X0124417Y0140050D01*
X0124417Y0137121D02*
X0119289Y0137121D01*
X0124417Y0137121D02*
X0124417Y0135379D01*
X0119289Y0135379D01*
X0119289Y0137121D01*
X0119289Y0136310D02*
X0124417Y0136310D01*
X0124417Y0133381D02*
X0119289Y0133381D01*
X0124417Y0133381D02*
X0124417Y0131639D01*
X0119289Y0131639D01*
X0119289Y0133381D01*
X0119289Y0132570D02*
X0124417Y0132570D01*
X0128383Y0133381D02*
X0133511Y0133381D01*
X0133511Y0131639D01*
X0128383Y0131639D01*
X0128383Y0133381D01*
X0128383Y0132570D02*
X0133511Y0132570D01*
X0133511Y0137121D02*
X0128383Y0137121D01*
X0133511Y0137121D02*
X0133511Y0135379D01*
X0128383Y0135379D01*
X0128383Y0137121D01*
X0128383Y0136310D02*
X0133511Y0136310D01*
X0133511Y0140861D02*
X0128383Y0140861D01*
X0133511Y0140861D02*
X0133511Y0139119D01*
X0128383Y0139119D01*
X0128383Y0140861D01*
X0128383Y0140050D02*
X0133511Y0140050D01*
D12*
X0139525Y0143529D03*
X0139525Y0150221D03*
X0130150Y0159154D03*
X0123900Y0159154D03*
X0117650Y0159154D03*
X0111400Y0159154D03*
X0105150Y0159154D03*
X0105150Y0165846D03*
X0111400Y0165846D03*
X0117650Y0165846D03*
X0123900Y0165846D03*
X0130150Y0165846D03*
X0167650Y0165846D03*
X0167650Y0159154D03*
X0141400Y0129596D03*
X0141400Y0122904D03*
X0185200Y0120904D03*
X0185200Y0127596D03*
X0033275Y0055221D03*
X0033275Y0048529D03*
D13*
X0115947Y0110000D03*
X0115947Y0115000D03*
X0121853Y0115000D03*
X0121853Y0110000D03*
D14*
X0121934Y0103787D03*
X0115241Y0103787D03*
X0131041Y0095362D03*
X0137734Y0095362D03*
X0135554Y0108750D03*
X0135554Y0115000D03*
X0142246Y0115000D03*
X0142246Y0108750D03*
X0128496Y0125000D03*
X0121804Y0125000D03*
X0124429Y0149113D03*
X0131121Y0149113D03*
X0203679Y0103750D03*
X0210371Y0103750D03*
X0216804Y0103750D03*
X0216804Y0109375D03*
X0223496Y0109375D03*
X0223496Y0103750D03*
X0223496Y0115000D03*
X0216804Y0115000D03*
X0216804Y0120625D03*
X0216804Y0126250D03*
X0223496Y0126250D03*
X0223496Y0120625D03*
D15*
X0161400Y0124439D03*
X0161400Y0148061D03*
D16*
X0033275Y0072884D03*
X0033275Y0064616D03*
D17*
X0213275Y0162500D03*
D18*
X0213275Y0142500D03*
D19*
X0210240Y0121981D03*
X0202760Y0121981D03*
X0202760Y0111744D03*
X0206500Y0111744D03*
X0210240Y0111744D03*
D20*
X0156400Y0158563D03*
X0152660Y0166437D03*
X0145140Y0166437D03*
X0137660Y0166437D03*
X0141400Y0158563D03*
X0160140Y0166437D03*
D21*
X0114978Y0151239D03*
X0111237Y0151239D03*
X0107497Y0151239D03*
X0107497Y0142086D03*
X0111237Y0142086D03*
X0114978Y0142086D03*
D22*
X0145150Y0096309D03*
X0150150Y0096309D03*
X0150150Y0091191D03*
X0145150Y0091191D03*
X0169525Y0090566D03*
X0174525Y0090566D03*
X0180150Y0091309D03*
X0185150Y0091309D03*
X0185150Y0086191D03*
X0180150Y0086191D03*
X0187650Y0077559D03*
X0187650Y0072441D03*
X0200150Y0072441D03*
X0200150Y0077559D03*
X0200150Y0086191D03*
X0205150Y0086191D03*
X0210150Y0086191D03*
X0210150Y0091309D03*
X0205150Y0091309D03*
X0200150Y0091309D03*
X0196500Y0113053D03*
X0196500Y0118172D03*
X0174525Y0095684D03*
X0169525Y0095684D03*
X0097650Y0060684D03*
X0091400Y0060684D03*
X0085150Y0060684D03*
X0085150Y0055566D03*
X0091400Y0055566D03*
X0097650Y0055566D03*
X0078900Y0055566D03*
X0078900Y0060684D03*
D23*
X0184171Y0096875D03*
X0189879Y0096875D03*
X0189993Y0090719D03*
X0189993Y0086781D03*
X0195307Y0086781D03*
X0195307Y0090719D03*
D24*
X0140150Y0084921D03*
X0140150Y0075079D03*
D25*
X0157242Y0091250D03*
X0161808Y0091250D03*
X0191617Y0072500D03*
X0196183Y0072500D03*
D26*
X0193900Y0031250D03*
X0188900Y0031250D03*
X0183900Y0031250D03*
X0183900Y0026250D03*
X0188900Y0026250D03*
X0193900Y0026250D03*
X0198900Y0026250D03*
X0203900Y0026250D03*
X0203900Y0031250D03*
X0198900Y0031250D03*
D27*
X0162797Y0031512D03*
X0162797Y0036413D03*
X0157678Y0036413D03*
X0157678Y0031512D03*
X0157678Y0026612D03*
X0162797Y0026612D03*
X0145834Y0059375D03*
X0140716Y0059375D03*
X0132709Y0077500D03*
X0132709Y0082500D03*
X0127591Y0082500D03*
X0127591Y0077500D03*
X0077084Y0042500D03*
X0071966Y0042500D03*
X0071966Y0036875D03*
X0077084Y0036875D03*
X0055209Y0090000D03*
X0055209Y0095000D03*
X0050091Y0095000D03*
X0050091Y0090000D03*
X0105091Y0124375D03*
X0110209Y0124375D03*
D28*
X0238637Y0130637D03*
X0238637Y0140638D03*
X0147650Y0026250D03*
X0137650Y0026250D03*
X0127650Y0026250D03*
X0117650Y0026250D03*
X0103900Y0026250D03*
X0093900Y0026250D03*
X0083900Y0026250D03*
X0073900Y0026250D03*
D29*
X0155900Y0095625D03*
X0161900Y0095625D03*
X0090150Y0132028D03*
X0077650Y0132028D03*
X0077650Y0149528D03*
X0090150Y0149528D03*
D30*
X0237650Y0101750D03*
X0237650Y0095750D03*
D31*
X0237650Y0098750D03*
D32*
X0050524Y0075128D03*
X0050524Y0048750D03*
D33*
X0185062Y0134717D03*
X0185062Y0149283D03*
D34*
X0153538Y0111962D03*
X0153538Y0108762D03*
X0153538Y0105562D03*
X0105775Y0087850D03*
X0105775Y0084650D03*
X0099525Y0084650D03*
X0099525Y0087850D03*
X0093275Y0087850D03*
X0093275Y0084650D03*
X0087025Y0084650D03*
X0087025Y0087850D03*
X0080775Y0087850D03*
X0080775Y0084650D03*
X0074525Y0084650D03*
X0074525Y0087850D03*
X0093275Y0072850D03*
X0093275Y0069650D03*
X0099525Y0069650D03*
X0099525Y0072850D03*
X0105775Y0072850D03*
X0105775Y0069650D03*
D35*
X0098112Y0157557D03*
X0098112Y0166218D03*
D36*
X0117546Y0039795D02*
X0118845Y0039795D01*
X0118845Y0037669D01*
X0116719Y0037669D01*
X0116719Y0038969D01*
X0117546Y0038969D01*
X0117546Y0039795D01*
X0117546Y0039774D02*
X0118845Y0039774D01*
X0118845Y0039736D02*
X0117546Y0039736D01*
X0117546Y0039698D02*
X0118845Y0039698D01*
X0118845Y0039660D02*
X0117546Y0039660D01*
X0117546Y0039623D02*
X0118845Y0039623D01*
X0118845Y0039585D02*
X0117546Y0039585D01*
X0117546Y0039547D02*
X0118845Y0039547D01*
X0118845Y0039509D02*
X0117546Y0039509D01*
X0117546Y0039471D02*
X0118845Y0039471D01*
X0118845Y0039433D02*
X0117546Y0039433D01*
X0117546Y0039395D02*
X0118845Y0039395D01*
X0118845Y0039357D02*
X0117546Y0039357D01*
X0117546Y0039320D02*
X0118845Y0039320D01*
X0118845Y0039282D02*
X0117546Y0039282D01*
X0117546Y0039244D02*
X0118845Y0039244D01*
X0118845Y0039206D02*
X0117546Y0039206D01*
X0117546Y0039168D02*
X0118845Y0039168D01*
X0118845Y0039130D02*
X0117546Y0039130D01*
X0117546Y0039092D02*
X0118845Y0039092D01*
X0118845Y0039054D02*
X0117546Y0039054D01*
X0117546Y0039016D02*
X0118845Y0039016D01*
X0118845Y0038979D02*
X0117546Y0038979D01*
X0116719Y0038941D02*
X0118845Y0038941D01*
X0118845Y0038903D02*
X0116719Y0038903D01*
X0116719Y0038865D02*
X0118845Y0038865D01*
X0118845Y0038827D02*
X0116719Y0038827D01*
X0116719Y0038789D02*
X0118845Y0038789D01*
X0118845Y0038751D02*
X0116719Y0038751D01*
X0116719Y0038713D02*
X0118845Y0038713D01*
X0118845Y0038676D02*
X0116719Y0038676D01*
X0116719Y0038638D02*
X0118845Y0038638D01*
X0118845Y0038600D02*
X0116719Y0038600D01*
X0116719Y0038562D02*
X0118845Y0038562D01*
X0118845Y0038524D02*
X0116719Y0038524D01*
X0116719Y0038486D02*
X0118845Y0038486D01*
X0118845Y0038448D02*
X0116719Y0038448D01*
X0116719Y0038410D02*
X0118845Y0038410D01*
X0118845Y0038372D02*
X0116719Y0038372D01*
X0116719Y0038335D02*
X0118845Y0038335D01*
X0118845Y0038297D02*
X0116719Y0038297D01*
X0116719Y0038259D02*
X0118845Y0038259D01*
X0118845Y0038221D02*
X0116719Y0038221D01*
X0116719Y0038183D02*
X0118845Y0038183D01*
X0118845Y0038145D02*
X0116719Y0038145D01*
X0116719Y0038107D02*
X0118845Y0038107D01*
X0118845Y0038069D02*
X0116719Y0038069D01*
X0116719Y0038032D02*
X0118845Y0038032D01*
X0118845Y0037994D02*
X0116719Y0037994D01*
X0116719Y0037956D02*
X0118845Y0037956D01*
X0118845Y0037918D02*
X0116719Y0037918D01*
X0116719Y0037880D02*
X0118845Y0037880D01*
X0118845Y0037842D02*
X0116719Y0037842D01*
X0116719Y0037804D02*
X0118845Y0037804D01*
X0118845Y0037766D02*
X0116719Y0037766D01*
X0116719Y0037728D02*
X0118845Y0037728D01*
X0118845Y0037691D02*
X0116719Y0037691D01*
X0116719Y0037355D02*
X0116719Y0036055D01*
X0117546Y0036055D01*
X0117546Y0035229D01*
X0118845Y0035229D01*
X0118845Y0037355D01*
X0116719Y0037355D01*
X0116719Y0037350D02*
X0118845Y0037350D01*
X0118845Y0037312D02*
X0116719Y0037312D01*
X0116719Y0037274D02*
X0118845Y0037274D01*
X0118845Y0037236D02*
X0116719Y0037236D01*
X0116719Y0037198D02*
X0118845Y0037198D01*
X0118845Y0037160D02*
X0116719Y0037160D01*
X0116719Y0037122D02*
X0118845Y0037122D01*
X0118845Y0037085D02*
X0116719Y0037085D01*
X0116719Y0037047D02*
X0118845Y0037047D01*
X0118845Y0037009D02*
X0116719Y0037009D01*
X0116719Y0036971D02*
X0118845Y0036971D01*
X0118845Y0036933D02*
X0116719Y0036933D01*
X0116719Y0036895D02*
X0118845Y0036895D01*
X0118845Y0036857D02*
X0116719Y0036857D01*
X0116719Y0036819D02*
X0118845Y0036819D01*
X0118845Y0036781D02*
X0116719Y0036781D01*
X0116719Y0036744D02*
X0118845Y0036744D01*
X0118845Y0036706D02*
X0116719Y0036706D01*
X0116719Y0036668D02*
X0118845Y0036668D01*
X0118845Y0036630D02*
X0116719Y0036630D01*
X0116719Y0036592D02*
X0118845Y0036592D01*
X0118845Y0036554D02*
X0116719Y0036554D01*
X0116719Y0036516D02*
X0118845Y0036516D01*
X0118845Y0036478D02*
X0116719Y0036478D01*
X0116719Y0036441D02*
X0118845Y0036441D01*
X0118845Y0036403D02*
X0116719Y0036403D01*
X0116719Y0036365D02*
X0118845Y0036365D01*
X0118845Y0036327D02*
X0116719Y0036327D01*
X0116719Y0036289D02*
X0118845Y0036289D01*
X0118845Y0036251D02*
X0116719Y0036251D01*
X0116719Y0036213D02*
X0118845Y0036213D01*
X0118845Y0036175D02*
X0116719Y0036175D01*
X0116719Y0036137D02*
X0118845Y0036137D01*
X0118845Y0036100D02*
X0116719Y0036100D01*
X0116719Y0036062D02*
X0118845Y0036062D01*
X0118845Y0036024D02*
X0117546Y0036024D01*
X0117546Y0035986D02*
X0118845Y0035986D01*
X0118845Y0035948D02*
X0117546Y0035948D01*
X0117546Y0035910D02*
X0118845Y0035910D01*
X0118845Y0035872D02*
X0117546Y0035872D01*
X0117546Y0035834D02*
X0118845Y0035834D01*
X0118845Y0035797D02*
X0117546Y0035797D01*
X0117546Y0035759D02*
X0118845Y0035759D01*
X0118845Y0035721D02*
X0117546Y0035721D01*
X0117546Y0035683D02*
X0118845Y0035683D01*
X0118845Y0035645D02*
X0117546Y0035645D01*
X0117546Y0035607D02*
X0118845Y0035607D01*
X0118845Y0035569D02*
X0117546Y0035569D01*
X0117546Y0035531D02*
X0118845Y0035531D01*
X0118845Y0035493D02*
X0117546Y0035493D01*
X0117546Y0035456D02*
X0118845Y0035456D01*
X0118845Y0035418D02*
X0117546Y0035418D01*
X0117546Y0035380D02*
X0118845Y0035380D01*
X0118845Y0035342D02*
X0117546Y0035342D01*
X0117546Y0035304D02*
X0118845Y0035304D01*
X0118845Y0035266D02*
X0117546Y0035266D01*
X0119160Y0035266D02*
X0120459Y0035266D01*
X0120459Y0035229D02*
X0119160Y0035229D01*
X0119160Y0037355D01*
X0121286Y0037355D01*
X0121286Y0036055D01*
X0120459Y0036055D01*
X0120459Y0035229D01*
X0120459Y0035304D02*
X0119160Y0035304D01*
X0119160Y0035342D02*
X0120459Y0035342D01*
X0120459Y0035380D02*
X0119160Y0035380D01*
X0119160Y0035418D02*
X0120459Y0035418D01*
X0120459Y0035456D02*
X0119160Y0035456D01*
X0119160Y0035493D02*
X0120459Y0035493D01*
X0120459Y0035531D02*
X0119160Y0035531D01*
X0119160Y0035569D02*
X0120459Y0035569D01*
X0120459Y0035607D02*
X0119160Y0035607D01*
X0119160Y0035645D02*
X0120459Y0035645D01*
X0120459Y0035683D02*
X0119160Y0035683D01*
X0119160Y0035721D02*
X0120459Y0035721D01*
X0120459Y0035759D02*
X0119160Y0035759D01*
X0119160Y0035797D02*
X0120459Y0035797D01*
X0120459Y0035834D02*
X0119160Y0035834D01*
X0119160Y0035872D02*
X0120459Y0035872D01*
X0120459Y0035910D02*
X0119160Y0035910D01*
X0119160Y0035948D02*
X0120459Y0035948D01*
X0120459Y0035986D02*
X0119160Y0035986D01*
X0119160Y0036024D02*
X0120459Y0036024D01*
X0121286Y0036062D02*
X0119160Y0036062D01*
X0119160Y0036100D02*
X0121286Y0036100D01*
X0121286Y0036137D02*
X0119160Y0036137D01*
X0119160Y0036175D02*
X0121286Y0036175D01*
X0121286Y0036213D02*
X0119160Y0036213D01*
X0119160Y0036251D02*
X0121286Y0036251D01*
X0121286Y0036289D02*
X0119160Y0036289D01*
X0119160Y0036327D02*
X0121286Y0036327D01*
X0121286Y0036365D02*
X0119160Y0036365D01*
X0119160Y0036403D02*
X0121286Y0036403D01*
X0121286Y0036441D02*
X0119160Y0036441D01*
X0119160Y0036478D02*
X0121286Y0036478D01*
X0121286Y0036516D02*
X0119160Y0036516D01*
X0119160Y0036554D02*
X0121286Y0036554D01*
X0121286Y0036592D02*
X0119160Y0036592D01*
X0119160Y0036630D02*
X0121286Y0036630D01*
X0121286Y0036668D02*
X0119160Y0036668D01*
X0119160Y0036706D02*
X0121286Y0036706D01*
X0121286Y0036744D02*
X0119160Y0036744D01*
X0119160Y0036781D02*
X0121286Y0036781D01*
X0121286Y0036819D02*
X0119160Y0036819D01*
X0119160Y0036857D02*
X0121286Y0036857D01*
X0121286Y0036895D02*
X0119160Y0036895D01*
X0119160Y0036933D02*
X0121286Y0036933D01*
X0121286Y0036971D02*
X0119160Y0036971D01*
X0119160Y0037009D02*
X0121286Y0037009D01*
X0121286Y0037047D02*
X0119160Y0037047D01*
X0119160Y0037085D02*
X0121286Y0037085D01*
X0121286Y0037122D02*
X0119160Y0037122D01*
X0119160Y0037160D02*
X0121286Y0037160D01*
X0121286Y0037198D02*
X0119160Y0037198D01*
X0119160Y0037236D02*
X0121286Y0037236D01*
X0121286Y0037274D02*
X0119160Y0037274D01*
X0119160Y0037312D02*
X0121286Y0037312D01*
X0121286Y0037350D02*
X0119160Y0037350D01*
X0119160Y0037669D02*
X0119160Y0039795D01*
X0120459Y0039795D01*
X0120459Y0038969D01*
X0121286Y0038969D01*
X0121286Y0037669D01*
X0119160Y0037669D01*
X0119160Y0037691D02*
X0121286Y0037691D01*
X0121286Y0037728D02*
X0119160Y0037728D01*
X0119160Y0037766D02*
X0121286Y0037766D01*
X0121286Y0037804D02*
X0119160Y0037804D01*
X0119160Y0037842D02*
X0121286Y0037842D01*
X0121286Y0037880D02*
X0119160Y0037880D01*
X0119160Y0037918D02*
X0121286Y0037918D01*
X0121286Y0037956D02*
X0119160Y0037956D01*
X0119160Y0037994D02*
X0121286Y0037994D01*
X0121286Y0038032D02*
X0119160Y0038032D01*
X0119160Y0038069D02*
X0121286Y0038069D01*
X0121286Y0038107D02*
X0119160Y0038107D01*
X0119160Y0038145D02*
X0121286Y0038145D01*
X0121286Y0038183D02*
X0119160Y0038183D01*
X0119160Y0038221D02*
X0121286Y0038221D01*
X0121286Y0038259D02*
X0119160Y0038259D01*
X0119160Y0038297D02*
X0121286Y0038297D01*
X0121286Y0038335D02*
X0119160Y0038335D01*
X0119160Y0038372D02*
X0121286Y0038372D01*
X0121286Y0038410D02*
X0119160Y0038410D01*
X0119160Y0038448D02*
X0121286Y0038448D01*
X0121286Y0038486D02*
X0119160Y0038486D01*
X0119160Y0038524D02*
X0121286Y0038524D01*
X0121286Y0038562D02*
X0119160Y0038562D01*
X0119160Y0038600D02*
X0121286Y0038600D01*
X0121286Y0038638D02*
X0119160Y0038638D01*
X0119160Y0038676D02*
X0121286Y0038676D01*
X0121286Y0038713D02*
X0119160Y0038713D01*
X0119160Y0038751D02*
X0121286Y0038751D01*
X0121286Y0038789D02*
X0119160Y0038789D01*
X0119160Y0038827D02*
X0121286Y0038827D01*
X0121286Y0038865D02*
X0119160Y0038865D01*
X0119160Y0038903D02*
X0121286Y0038903D01*
X0121286Y0038941D02*
X0119160Y0038941D01*
X0119160Y0038979D02*
X0120459Y0038979D01*
X0120459Y0039016D02*
X0119160Y0039016D01*
X0119160Y0039054D02*
X0120459Y0039054D01*
X0120459Y0039092D02*
X0119160Y0039092D01*
X0119160Y0039130D02*
X0120459Y0039130D01*
X0120459Y0039168D02*
X0119160Y0039168D01*
X0119160Y0039206D02*
X0120459Y0039206D01*
X0120459Y0039244D02*
X0119160Y0039244D01*
X0119160Y0039282D02*
X0120459Y0039282D01*
X0120459Y0039320D02*
X0119160Y0039320D01*
X0119160Y0039357D02*
X0120459Y0039357D01*
X0120459Y0039395D02*
X0119160Y0039395D01*
X0119160Y0039433D02*
X0120459Y0039433D01*
X0120459Y0039471D02*
X0119160Y0039471D01*
X0119160Y0039509D02*
X0120459Y0039509D01*
X0120459Y0039547D02*
X0119160Y0039547D01*
X0119160Y0039585D02*
X0120459Y0039585D01*
X0120459Y0039623D02*
X0119160Y0039623D01*
X0119160Y0039660D02*
X0120459Y0039660D01*
X0120459Y0039698D02*
X0119160Y0039698D01*
X0119160Y0039736D02*
X0120459Y0039736D01*
X0120459Y0039774D02*
X0119160Y0039774D01*
D37*
X0046626Y0119843D03*
X0063674Y0130157D03*
X0046626Y0144843D03*
X0063674Y0155157D03*
D38*
X0077650Y0142047D03*
X0090150Y0142047D03*
X0090150Y0124547D03*
X0077650Y0124547D03*
D39*
X0072506Y0159600D03*
X0088569Y0159600D03*
D40*
X0100150Y0143012D03*
X0100150Y0131988D03*
D41*
X0035150Y0106614D03*
X0035150Y0090866D03*
D42*
X0110425Y0037500D03*
X0113625Y0037500D03*
X0206450Y0071700D03*
D43*
X0216900Y0043450D03*
D44*
X0176804Y0061964D03*
X0176804Y0063538D03*
X0176804Y0065113D03*
X0176804Y0066688D03*
X0176804Y0068263D03*
X0176804Y0069838D03*
X0176804Y0071412D03*
X0176804Y0072987D03*
X0176804Y0074562D03*
X0176804Y0076137D03*
X0176804Y0077712D03*
X0176804Y0079286D03*
X0153496Y0079286D03*
X0153496Y0077712D03*
X0153496Y0076137D03*
X0153496Y0074562D03*
X0153496Y0072987D03*
X0153496Y0071412D03*
X0153496Y0069838D03*
X0153496Y0068263D03*
X0153496Y0066688D03*
X0153496Y0065113D03*
X0153496Y0063538D03*
X0153496Y0061964D03*
D45*
X0165150Y0070625D03*
D46*
X0164363Y0082279D03*
X0165937Y0082279D03*
X0167512Y0082279D03*
X0169087Y0082279D03*
X0170662Y0082279D03*
X0172237Y0082279D03*
X0173811Y0082279D03*
X0162788Y0082279D03*
X0161213Y0082279D03*
X0159638Y0082279D03*
X0158063Y0082279D03*
X0156489Y0082279D03*
X0156489Y0058971D03*
X0158063Y0058971D03*
X0159638Y0058971D03*
X0161213Y0058971D03*
X0162788Y0058971D03*
X0164363Y0058971D03*
X0165937Y0058971D03*
X0167512Y0058971D03*
X0169087Y0058971D03*
X0170662Y0058971D03*
X0172237Y0058971D03*
X0173811Y0058971D03*
D47*
X0113577Y0114283D02*
X0109283Y0114283D01*
X0113577Y0114283D02*
X0113577Y0113099D01*
X0109283Y0113099D01*
X0109283Y0114283D01*
X0109283Y0113849D02*
X0113577Y0113849D01*
X0113577Y0116842D02*
X0109283Y0116842D01*
X0113577Y0116842D02*
X0113577Y0115658D01*
X0109283Y0115658D01*
X0109283Y0116842D01*
X0109283Y0116408D02*
X0113577Y0116408D01*
X0113577Y0119401D02*
X0109283Y0119401D01*
X0113577Y0119401D02*
X0113577Y0118217D01*
X0109283Y0118217D01*
X0109283Y0119401D01*
X0109283Y0118967D02*
X0113577Y0118967D01*
X0106017Y0118217D02*
X0101723Y0118217D01*
X0101723Y0119401D01*
X0106017Y0119401D01*
X0106017Y0118217D01*
X0106017Y0118967D02*
X0101723Y0118967D01*
X0101723Y0115658D02*
X0106017Y0115658D01*
X0101723Y0115658D02*
X0101723Y0116842D01*
X0106017Y0116842D01*
X0106017Y0115658D01*
X0106017Y0116408D02*
X0101723Y0116408D01*
X0101723Y0113099D02*
X0106017Y0113099D01*
X0101723Y0113099D02*
X0101723Y0114283D01*
X0106017Y0114283D01*
X0106017Y0113099D01*
X0106017Y0113849D02*
X0101723Y0113849D01*
D48*
X0183064Y0155408D02*
X0183064Y0157810D01*
X0183064Y0155408D02*
X0182118Y0155408D01*
X0182118Y0157810D01*
X0183064Y0157810D01*
X0183064Y0156086D02*
X0182118Y0156086D01*
X0182118Y0156764D02*
X0183064Y0156764D01*
X0183064Y0157442D02*
X0182118Y0157442D01*
X0185623Y0157810D02*
X0185623Y0155408D01*
X0184677Y0155408D01*
X0184677Y0157810D01*
X0185623Y0157810D01*
X0185623Y0156086D02*
X0184677Y0156086D01*
X0184677Y0156764D02*
X0185623Y0156764D01*
X0185623Y0157442D02*
X0184677Y0157442D01*
X0188182Y0157810D02*
X0188182Y0155408D01*
X0187236Y0155408D01*
X0187236Y0157810D01*
X0188182Y0157810D01*
X0188182Y0156086D02*
X0187236Y0156086D01*
X0187236Y0156764D02*
X0188182Y0156764D01*
X0188182Y0157442D02*
X0187236Y0157442D01*
X0187236Y0163440D02*
X0187236Y0165842D01*
X0188182Y0165842D01*
X0188182Y0163440D01*
X0187236Y0163440D01*
X0187236Y0164118D02*
X0188182Y0164118D01*
X0188182Y0164796D02*
X0187236Y0164796D01*
X0187236Y0165474D02*
X0188182Y0165474D01*
X0184677Y0165842D02*
X0184677Y0163440D01*
X0184677Y0165842D02*
X0185623Y0165842D01*
X0185623Y0163440D01*
X0184677Y0163440D01*
X0184677Y0164118D02*
X0185623Y0164118D01*
X0185623Y0164796D02*
X0184677Y0164796D01*
X0184677Y0165474D02*
X0185623Y0165474D01*
X0182118Y0165842D02*
X0182118Y0163440D01*
X0182118Y0165842D02*
X0183064Y0165842D01*
X0183064Y0163440D01*
X0182118Y0163440D01*
X0182118Y0164118D02*
X0183064Y0164118D01*
X0183064Y0164796D02*
X0182118Y0164796D01*
X0182118Y0165474D02*
X0183064Y0165474D01*
D49*
X0183221Y0160625D03*
X0187079Y0160625D03*
D50*
X0179156Y0160039D03*
X0176400Y0163086D03*
X0173644Y0160039D03*
X0176400Y0154961D03*
X0173644Y0168164D03*
X0179156Y0168164D03*
M02*
