G75*
%MOIN*%
%OFA0B0*%
%FSLAX25Y25*%
%IPPOS*%
%LPD*%
%AMOC8*
5,1,8,0,0,1.08239X$1,22.5*
%
%ADD10C,0.00001*%
%ADD11C,0.10000*%
%ADD12OC8,0.10000*%
%ADD13R,0.05000X0.02500*%
%ADD14C,0.04000*%
%ADD15R,0.06300X0.04600*%
%ADD16C,0.06600*%
%ADD17R,0.02756X0.03543*%
%ADD18R,0.02500X0.05000*%
%ADD19C,0.00500*%
%ADD20C,0.02100*%
%ADD21C,0.01709*%
%ADD22C,0.01929*%
%ADD23C,0.00800*%
%ADD24C,0.02400*%
%ADD25C,0.01600*%
%ADD26C,0.01000*%
%ADD27C,0.00600*%
%ADD28C,0.03200*%
D10*
X0035524Y0020000D02*
X0236311Y0020000D01*
X0236501Y0020002D01*
X0236691Y0020009D01*
X0236881Y0020021D01*
X0237071Y0020037D01*
X0237260Y0020057D01*
X0237449Y0020083D01*
X0237637Y0020112D01*
X0237824Y0020147D01*
X0238010Y0020186D01*
X0238195Y0020229D01*
X0238380Y0020277D01*
X0238563Y0020329D01*
X0238744Y0020385D01*
X0238924Y0020446D01*
X0239103Y0020512D01*
X0239280Y0020581D01*
X0239456Y0020655D01*
X0239629Y0020733D01*
X0239801Y0020816D01*
X0239970Y0020902D01*
X0240138Y0020992D01*
X0240303Y0021087D01*
X0240466Y0021185D01*
X0240626Y0021288D01*
X0240784Y0021394D01*
X0240939Y0021504D01*
X0241092Y0021617D01*
X0241242Y0021735D01*
X0241388Y0021856D01*
X0241532Y0021980D01*
X0241673Y0022108D01*
X0241811Y0022239D01*
X0241946Y0022374D01*
X0242077Y0022512D01*
X0242205Y0022653D01*
X0242329Y0022797D01*
X0242450Y0022943D01*
X0242568Y0023093D01*
X0242681Y0023246D01*
X0242791Y0023401D01*
X0242897Y0023559D01*
X0243000Y0023719D01*
X0243098Y0023882D01*
X0243193Y0024047D01*
X0243283Y0024215D01*
X0243369Y0024384D01*
X0243452Y0024556D01*
X0243530Y0024729D01*
X0243604Y0024905D01*
X0243673Y0025082D01*
X0243739Y0025261D01*
X0243800Y0025441D01*
X0243856Y0025622D01*
X0243908Y0025805D01*
X0243956Y0025990D01*
X0243999Y0026175D01*
X0244038Y0026361D01*
X0244073Y0026548D01*
X0244102Y0026736D01*
X0244128Y0026925D01*
X0244148Y0027114D01*
X0244164Y0027304D01*
X0244176Y0027494D01*
X0244183Y0027684D01*
X0244185Y0027874D01*
X0244185Y0169606D01*
X0231193Y0169606D02*
X0231195Y0169749D01*
X0231201Y0169892D01*
X0231211Y0170034D01*
X0231225Y0170176D01*
X0231243Y0170318D01*
X0231265Y0170460D01*
X0231290Y0170600D01*
X0231320Y0170740D01*
X0231354Y0170879D01*
X0231391Y0171017D01*
X0231433Y0171154D01*
X0231478Y0171289D01*
X0231527Y0171423D01*
X0231579Y0171556D01*
X0231635Y0171688D01*
X0231695Y0171817D01*
X0231759Y0171945D01*
X0231826Y0172072D01*
X0231897Y0172196D01*
X0231971Y0172318D01*
X0232048Y0172438D01*
X0232129Y0172556D01*
X0232213Y0172672D01*
X0232300Y0172785D01*
X0232390Y0172896D01*
X0232484Y0173004D01*
X0232580Y0173110D01*
X0232679Y0173212D01*
X0232782Y0173312D01*
X0232886Y0173409D01*
X0232994Y0173504D01*
X0233104Y0173595D01*
X0233217Y0173683D01*
X0233332Y0173767D01*
X0233449Y0173849D01*
X0233569Y0173927D01*
X0233690Y0174002D01*
X0233814Y0174074D01*
X0233940Y0174142D01*
X0234067Y0174206D01*
X0234197Y0174267D01*
X0234328Y0174324D01*
X0234460Y0174378D01*
X0234594Y0174427D01*
X0234729Y0174474D01*
X0234866Y0174516D01*
X0235004Y0174554D01*
X0235142Y0174589D01*
X0235282Y0174619D01*
X0235422Y0174646D01*
X0235563Y0174669D01*
X0235705Y0174688D01*
X0235847Y0174703D01*
X0235990Y0174714D01*
X0236132Y0174721D01*
X0236275Y0174724D01*
X0236418Y0174723D01*
X0236561Y0174718D01*
X0236704Y0174709D01*
X0236846Y0174696D01*
X0236988Y0174679D01*
X0237129Y0174658D01*
X0237270Y0174633D01*
X0237410Y0174605D01*
X0237549Y0174572D01*
X0237687Y0174535D01*
X0237824Y0174495D01*
X0237960Y0174451D01*
X0238095Y0174403D01*
X0238228Y0174351D01*
X0238360Y0174296D01*
X0238490Y0174237D01*
X0238619Y0174174D01*
X0238745Y0174108D01*
X0238870Y0174038D01*
X0238993Y0173965D01*
X0239113Y0173889D01*
X0239232Y0173809D01*
X0239348Y0173725D01*
X0239462Y0173639D01*
X0239573Y0173549D01*
X0239682Y0173457D01*
X0239788Y0173361D01*
X0239892Y0173263D01*
X0239993Y0173161D01*
X0240090Y0173057D01*
X0240185Y0172950D01*
X0240277Y0172841D01*
X0240366Y0172729D01*
X0240452Y0172614D01*
X0240534Y0172498D01*
X0240613Y0172378D01*
X0240689Y0172257D01*
X0240761Y0172134D01*
X0240830Y0172009D01*
X0240895Y0171882D01*
X0240957Y0171753D01*
X0241015Y0171622D01*
X0241070Y0171490D01*
X0241120Y0171356D01*
X0241167Y0171221D01*
X0241211Y0171085D01*
X0241250Y0170948D01*
X0241285Y0170809D01*
X0241317Y0170670D01*
X0241345Y0170530D01*
X0241369Y0170389D01*
X0241389Y0170247D01*
X0241405Y0170105D01*
X0241417Y0169963D01*
X0241425Y0169820D01*
X0241429Y0169677D01*
X0241429Y0169535D01*
X0241425Y0169392D01*
X0241417Y0169249D01*
X0241405Y0169107D01*
X0241389Y0168965D01*
X0241369Y0168823D01*
X0241345Y0168682D01*
X0241317Y0168542D01*
X0241285Y0168403D01*
X0241250Y0168264D01*
X0241211Y0168127D01*
X0241167Y0167991D01*
X0241120Y0167856D01*
X0241070Y0167722D01*
X0241015Y0167590D01*
X0240957Y0167459D01*
X0240895Y0167330D01*
X0240830Y0167203D01*
X0240761Y0167078D01*
X0240689Y0166955D01*
X0240613Y0166834D01*
X0240534Y0166714D01*
X0240452Y0166598D01*
X0240366Y0166483D01*
X0240277Y0166371D01*
X0240185Y0166262D01*
X0240090Y0166155D01*
X0239993Y0166051D01*
X0239892Y0165949D01*
X0239788Y0165851D01*
X0239682Y0165755D01*
X0239573Y0165663D01*
X0239462Y0165573D01*
X0239348Y0165487D01*
X0239232Y0165403D01*
X0239113Y0165323D01*
X0238993Y0165247D01*
X0238870Y0165174D01*
X0238745Y0165104D01*
X0238619Y0165038D01*
X0238490Y0164975D01*
X0238360Y0164916D01*
X0238228Y0164861D01*
X0238095Y0164809D01*
X0237960Y0164761D01*
X0237824Y0164717D01*
X0237687Y0164677D01*
X0237549Y0164640D01*
X0237410Y0164607D01*
X0237270Y0164579D01*
X0237129Y0164554D01*
X0236988Y0164533D01*
X0236846Y0164516D01*
X0236704Y0164503D01*
X0236561Y0164494D01*
X0236418Y0164489D01*
X0236275Y0164488D01*
X0236132Y0164491D01*
X0235990Y0164498D01*
X0235847Y0164509D01*
X0235705Y0164524D01*
X0235563Y0164543D01*
X0235422Y0164566D01*
X0235282Y0164593D01*
X0235142Y0164623D01*
X0235004Y0164658D01*
X0234866Y0164696D01*
X0234729Y0164738D01*
X0234594Y0164785D01*
X0234460Y0164834D01*
X0234328Y0164888D01*
X0234197Y0164945D01*
X0234067Y0165006D01*
X0233940Y0165070D01*
X0233814Y0165138D01*
X0233690Y0165210D01*
X0233569Y0165285D01*
X0233449Y0165363D01*
X0233332Y0165445D01*
X0233217Y0165529D01*
X0233104Y0165617D01*
X0232994Y0165708D01*
X0232886Y0165803D01*
X0232782Y0165900D01*
X0232679Y0166000D01*
X0232580Y0166102D01*
X0232484Y0166208D01*
X0232390Y0166316D01*
X0232300Y0166427D01*
X0232213Y0166540D01*
X0232129Y0166656D01*
X0232048Y0166774D01*
X0231971Y0166894D01*
X0231897Y0167016D01*
X0231826Y0167140D01*
X0231759Y0167267D01*
X0231695Y0167395D01*
X0231635Y0167524D01*
X0231579Y0167656D01*
X0231527Y0167789D01*
X0231478Y0167923D01*
X0231433Y0168058D01*
X0231391Y0168195D01*
X0231354Y0168333D01*
X0231320Y0168472D01*
X0231290Y0168612D01*
X0231265Y0168752D01*
X0231243Y0168894D01*
X0231225Y0169036D01*
X0231211Y0169178D01*
X0231201Y0169320D01*
X0231195Y0169463D01*
X0231193Y0169606D01*
X0236311Y0177480D02*
X0236501Y0177478D01*
X0236691Y0177471D01*
X0236881Y0177459D01*
X0237071Y0177443D01*
X0237260Y0177423D01*
X0237449Y0177397D01*
X0237637Y0177368D01*
X0237824Y0177333D01*
X0238010Y0177294D01*
X0238195Y0177251D01*
X0238380Y0177203D01*
X0238563Y0177151D01*
X0238744Y0177095D01*
X0238924Y0177034D01*
X0239103Y0176968D01*
X0239280Y0176899D01*
X0239456Y0176825D01*
X0239629Y0176747D01*
X0239801Y0176664D01*
X0239970Y0176578D01*
X0240138Y0176488D01*
X0240303Y0176393D01*
X0240466Y0176295D01*
X0240626Y0176192D01*
X0240784Y0176086D01*
X0240939Y0175976D01*
X0241092Y0175863D01*
X0241242Y0175745D01*
X0241388Y0175624D01*
X0241532Y0175500D01*
X0241673Y0175372D01*
X0241811Y0175241D01*
X0241946Y0175106D01*
X0242077Y0174968D01*
X0242205Y0174827D01*
X0242329Y0174683D01*
X0242450Y0174537D01*
X0242568Y0174387D01*
X0242681Y0174234D01*
X0242791Y0174079D01*
X0242897Y0173921D01*
X0243000Y0173761D01*
X0243098Y0173598D01*
X0243193Y0173433D01*
X0243283Y0173265D01*
X0243369Y0173096D01*
X0243452Y0172924D01*
X0243530Y0172751D01*
X0243604Y0172575D01*
X0243673Y0172398D01*
X0243739Y0172219D01*
X0243800Y0172039D01*
X0243856Y0171858D01*
X0243908Y0171675D01*
X0243956Y0171490D01*
X0243999Y0171305D01*
X0244038Y0171119D01*
X0244073Y0170932D01*
X0244102Y0170744D01*
X0244128Y0170555D01*
X0244148Y0170366D01*
X0244164Y0170176D01*
X0244176Y0169986D01*
X0244183Y0169796D01*
X0244185Y0169606D01*
X0236311Y0177480D02*
X0035524Y0177480D01*
X0030406Y0169606D02*
X0030408Y0169749D01*
X0030414Y0169892D01*
X0030424Y0170034D01*
X0030438Y0170176D01*
X0030456Y0170318D01*
X0030478Y0170460D01*
X0030503Y0170600D01*
X0030533Y0170740D01*
X0030567Y0170879D01*
X0030604Y0171017D01*
X0030646Y0171154D01*
X0030691Y0171289D01*
X0030740Y0171423D01*
X0030792Y0171556D01*
X0030848Y0171688D01*
X0030908Y0171817D01*
X0030972Y0171945D01*
X0031039Y0172072D01*
X0031110Y0172196D01*
X0031184Y0172318D01*
X0031261Y0172438D01*
X0031342Y0172556D01*
X0031426Y0172672D01*
X0031513Y0172785D01*
X0031603Y0172896D01*
X0031697Y0173004D01*
X0031793Y0173110D01*
X0031892Y0173212D01*
X0031995Y0173312D01*
X0032099Y0173409D01*
X0032207Y0173504D01*
X0032317Y0173595D01*
X0032430Y0173683D01*
X0032545Y0173767D01*
X0032662Y0173849D01*
X0032782Y0173927D01*
X0032903Y0174002D01*
X0033027Y0174074D01*
X0033153Y0174142D01*
X0033280Y0174206D01*
X0033410Y0174267D01*
X0033541Y0174324D01*
X0033673Y0174378D01*
X0033807Y0174427D01*
X0033942Y0174474D01*
X0034079Y0174516D01*
X0034217Y0174554D01*
X0034355Y0174589D01*
X0034495Y0174619D01*
X0034635Y0174646D01*
X0034776Y0174669D01*
X0034918Y0174688D01*
X0035060Y0174703D01*
X0035203Y0174714D01*
X0035345Y0174721D01*
X0035488Y0174724D01*
X0035631Y0174723D01*
X0035774Y0174718D01*
X0035917Y0174709D01*
X0036059Y0174696D01*
X0036201Y0174679D01*
X0036342Y0174658D01*
X0036483Y0174633D01*
X0036623Y0174605D01*
X0036762Y0174572D01*
X0036900Y0174535D01*
X0037037Y0174495D01*
X0037173Y0174451D01*
X0037308Y0174403D01*
X0037441Y0174351D01*
X0037573Y0174296D01*
X0037703Y0174237D01*
X0037832Y0174174D01*
X0037958Y0174108D01*
X0038083Y0174038D01*
X0038206Y0173965D01*
X0038326Y0173889D01*
X0038445Y0173809D01*
X0038561Y0173725D01*
X0038675Y0173639D01*
X0038786Y0173549D01*
X0038895Y0173457D01*
X0039001Y0173361D01*
X0039105Y0173263D01*
X0039206Y0173161D01*
X0039303Y0173057D01*
X0039398Y0172950D01*
X0039490Y0172841D01*
X0039579Y0172729D01*
X0039665Y0172614D01*
X0039747Y0172498D01*
X0039826Y0172378D01*
X0039902Y0172257D01*
X0039974Y0172134D01*
X0040043Y0172009D01*
X0040108Y0171882D01*
X0040170Y0171753D01*
X0040228Y0171622D01*
X0040283Y0171490D01*
X0040333Y0171356D01*
X0040380Y0171221D01*
X0040424Y0171085D01*
X0040463Y0170948D01*
X0040498Y0170809D01*
X0040530Y0170670D01*
X0040558Y0170530D01*
X0040582Y0170389D01*
X0040602Y0170247D01*
X0040618Y0170105D01*
X0040630Y0169963D01*
X0040638Y0169820D01*
X0040642Y0169677D01*
X0040642Y0169535D01*
X0040638Y0169392D01*
X0040630Y0169249D01*
X0040618Y0169107D01*
X0040602Y0168965D01*
X0040582Y0168823D01*
X0040558Y0168682D01*
X0040530Y0168542D01*
X0040498Y0168403D01*
X0040463Y0168264D01*
X0040424Y0168127D01*
X0040380Y0167991D01*
X0040333Y0167856D01*
X0040283Y0167722D01*
X0040228Y0167590D01*
X0040170Y0167459D01*
X0040108Y0167330D01*
X0040043Y0167203D01*
X0039974Y0167078D01*
X0039902Y0166955D01*
X0039826Y0166834D01*
X0039747Y0166714D01*
X0039665Y0166598D01*
X0039579Y0166483D01*
X0039490Y0166371D01*
X0039398Y0166262D01*
X0039303Y0166155D01*
X0039206Y0166051D01*
X0039105Y0165949D01*
X0039001Y0165851D01*
X0038895Y0165755D01*
X0038786Y0165663D01*
X0038675Y0165573D01*
X0038561Y0165487D01*
X0038445Y0165403D01*
X0038326Y0165323D01*
X0038206Y0165247D01*
X0038083Y0165174D01*
X0037958Y0165104D01*
X0037832Y0165038D01*
X0037703Y0164975D01*
X0037573Y0164916D01*
X0037441Y0164861D01*
X0037308Y0164809D01*
X0037173Y0164761D01*
X0037037Y0164717D01*
X0036900Y0164677D01*
X0036762Y0164640D01*
X0036623Y0164607D01*
X0036483Y0164579D01*
X0036342Y0164554D01*
X0036201Y0164533D01*
X0036059Y0164516D01*
X0035917Y0164503D01*
X0035774Y0164494D01*
X0035631Y0164489D01*
X0035488Y0164488D01*
X0035345Y0164491D01*
X0035203Y0164498D01*
X0035060Y0164509D01*
X0034918Y0164524D01*
X0034776Y0164543D01*
X0034635Y0164566D01*
X0034495Y0164593D01*
X0034355Y0164623D01*
X0034217Y0164658D01*
X0034079Y0164696D01*
X0033942Y0164738D01*
X0033807Y0164785D01*
X0033673Y0164834D01*
X0033541Y0164888D01*
X0033410Y0164945D01*
X0033280Y0165006D01*
X0033153Y0165070D01*
X0033027Y0165138D01*
X0032903Y0165210D01*
X0032782Y0165285D01*
X0032662Y0165363D01*
X0032545Y0165445D01*
X0032430Y0165529D01*
X0032317Y0165617D01*
X0032207Y0165708D01*
X0032099Y0165803D01*
X0031995Y0165900D01*
X0031892Y0166000D01*
X0031793Y0166102D01*
X0031697Y0166208D01*
X0031603Y0166316D01*
X0031513Y0166427D01*
X0031426Y0166540D01*
X0031342Y0166656D01*
X0031261Y0166774D01*
X0031184Y0166894D01*
X0031110Y0167016D01*
X0031039Y0167140D01*
X0030972Y0167267D01*
X0030908Y0167395D01*
X0030848Y0167524D01*
X0030792Y0167656D01*
X0030740Y0167789D01*
X0030691Y0167923D01*
X0030646Y0168058D01*
X0030604Y0168195D01*
X0030567Y0168333D01*
X0030533Y0168472D01*
X0030503Y0168612D01*
X0030478Y0168752D01*
X0030456Y0168894D01*
X0030438Y0169036D01*
X0030424Y0169178D01*
X0030414Y0169320D01*
X0030408Y0169463D01*
X0030406Y0169606D01*
X0027650Y0169606D02*
X0027650Y0027874D01*
X0030406Y0027874D02*
X0030408Y0028017D01*
X0030414Y0028160D01*
X0030424Y0028302D01*
X0030438Y0028444D01*
X0030456Y0028586D01*
X0030478Y0028728D01*
X0030503Y0028868D01*
X0030533Y0029008D01*
X0030567Y0029147D01*
X0030604Y0029285D01*
X0030646Y0029422D01*
X0030691Y0029557D01*
X0030740Y0029691D01*
X0030792Y0029824D01*
X0030848Y0029956D01*
X0030908Y0030085D01*
X0030972Y0030213D01*
X0031039Y0030340D01*
X0031110Y0030464D01*
X0031184Y0030586D01*
X0031261Y0030706D01*
X0031342Y0030824D01*
X0031426Y0030940D01*
X0031513Y0031053D01*
X0031603Y0031164D01*
X0031697Y0031272D01*
X0031793Y0031378D01*
X0031892Y0031480D01*
X0031995Y0031580D01*
X0032099Y0031677D01*
X0032207Y0031772D01*
X0032317Y0031863D01*
X0032430Y0031951D01*
X0032545Y0032035D01*
X0032662Y0032117D01*
X0032782Y0032195D01*
X0032903Y0032270D01*
X0033027Y0032342D01*
X0033153Y0032410D01*
X0033280Y0032474D01*
X0033410Y0032535D01*
X0033541Y0032592D01*
X0033673Y0032646D01*
X0033807Y0032695D01*
X0033942Y0032742D01*
X0034079Y0032784D01*
X0034217Y0032822D01*
X0034355Y0032857D01*
X0034495Y0032887D01*
X0034635Y0032914D01*
X0034776Y0032937D01*
X0034918Y0032956D01*
X0035060Y0032971D01*
X0035203Y0032982D01*
X0035345Y0032989D01*
X0035488Y0032992D01*
X0035631Y0032991D01*
X0035774Y0032986D01*
X0035917Y0032977D01*
X0036059Y0032964D01*
X0036201Y0032947D01*
X0036342Y0032926D01*
X0036483Y0032901D01*
X0036623Y0032873D01*
X0036762Y0032840D01*
X0036900Y0032803D01*
X0037037Y0032763D01*
X0037173Y0032719D01*
X0037308Y0032671D01*
X0037441Y0032619D01*
X0037573Y0032564D01*
X0037703Y0032505D01*
X0037832Y0032442D01*
X0037958Y0032376D01*
X0038083Y0032306D01*
X0038206Y0032233D01*
X0038326Y0032157D01*
X0038445Y0032077D01*
X0038561Y0031993D01*
X0038675Y0031907D01*
X0038786Y0031817D01*
X0038895Y0031725D01*
X0039001Y0031629D01*
X0039105Y0031531D01*
X0039206Y0031429D01*
X0039303Y0031325D01*
X0039398Y0031218D01*
X0039490Y0031109D01*
X0039579Y0030997D01*
X0039665Y0030882D01*
X0039747Y0030766D01*
X0039826Y0030646D01*
X0039902Y0030525D01*
X0039974Y0030402D01*
X0040043Y0030277D01*
X0040108Y0030150D01*
X0040170Y0030021D01*
X0040228Y0029890D01*
X0040283Y0029758D01*
X0040333Y0029624D01*
X0040380Y0029489D01*
X0040424Y0029353D01*
X0040463Y0029216D01*
X0040498Y0029077D01*
X0040530Y0028938D01*
X0040558Y0028798D01*
X0040582Y0028657D01*
X0040602Y0028515D01*
X0040618Y0028373D01*
X0040630Y0028231D01*
X0040638Y0028088D01*
X0040642Y0027945D01*
X0040642Y0027803D01*
X0040638Y0027660D01*
X0040630Y0027517D01*
X0040618Y0027375D01*
X0040602Y0027233D01*
X0040582Y0027091D01*
X0040558Y0026950D01*
X0040530Y0026810D01*
X0040498Y0026671D01*
X0040463Y0026532D01*
X0040424Y0026395D01*
X0040380Y0026259D01*
X0040333Y0026124D01*
X0040283Y0025990D01*
X0040228Y0025858D01*
X0040170Y0025727D01*
X0040108Y0025598D01*
X0040043Y0025471D01*
X0039974Y0025346D01*
X0039902Y0025223D01*
X0039826Y0025102D01*
X0039747Y0024982D01*
X0039665Y0024866D01*
X0039579Y0024751D01*
X0039490Y0024639D01*
X0039398Y0024530D01*
X0039303Y0024423D01*
X0039206Y0024319D01*
X0039105Y0024217D01*
X0039001Y0024119D01*
X0038895Y0024023D01*
X0038786Y0023931D01*
X0038675Y0023841D01*
X0038561Y0023755D01*
X0038445Y0023671D01*
X0038326Y0023591D01*
X0038206Y0023515D01*
X0038083Y0023442D01*
X0037958Y0023372D01*
X0037832Y0023306D01*
X0037703Y0023243D01*
X0037573Y0023184D01*
X0037441Y0023129D01*
X0037308Y0023077D01*
X0037173Y0023029D01*
X0037037Y0022985D01*
X0036900Y0022945D01*
X0036762Y0022908D01*
X0036623Y0022875D01*
X0036483Y0022847D01*
X0036342Y0022822D01*
X0036201Y0022801D01*
X0036059Y0022784D01*
X0035917Y0022771D01*
X0035774Y0022762D01*
X0035631Y0022757D01*
X0035488Y0022756D01*
X0035345Y0022759D01*
X0035203Y0022766D01*
X0035060Y0022777D01*
X0034918Y0022792D01*
X0034776Y0022811D01*
X0034635Y0022834D01*
X0034495Y0022861D01*
X0034355Y0022891D01*
X0034217Y0022926D01*
X0034079Y0022964D01*
X0033942Y0023006D01*
X0033807Y0023053D01*
X0033673Y0023102D01*
X0033541Y0023156D01*
X0033410Y0023213D01*
X0033280Y0023274D01*
X0033153Y0023338D01*
X0033027Y0023406D01*
X0032903Y0023478D01*
X0032782Y0023553D01*
X0032662Y0023631D01*
X0032545Y0023713D01*
X0032430Y0023797D01*
X0032317Y0023885D01*
X0032207Y0023976D01*
X0032099Y0024071D01*
X0031995Y0024168D01*
X0031892Y0024268D01*
X0031793Y0024370D01*
X0031697Y0024476D01*
X0031603Y0024584D01*
X0031513Y0024695D01*
X0031426Y0024808D01*
X0031342Y0024924D01*
X0031261Y0025042D01*
X0031184Y0025162D01*
X0031110Y0025284D01*
X0031039Y0025408D01*
X0030972Y0025535D01*
X0030908Y0025663D01*
X0030848Y0025792D01*
X0030792Y0025924D01*
X0030740Y0026057D01*
X0030691Y0026191D01*
X0030646Y0026326D01*
X0030604Y0026463D01*
X0030567Y0026601D01*
X0030533Y0026740D01*
X0030503Y0026880D01*
X0030478Y0027020D01*
X0030456Y0027162D01*
X0030438Y0027304D01*
X0030424Y0027446D01*
X0030414Y0027588D01*
X0030408Y0027731D01*
X0030406Y0027874D01*
X0027650Y0027874D02*
X0027652Y0027684D01*
X0027659Y0027494D01*
X0027671Y0027304D01*
X0027687Y0027114D01*
X0027707Y0026925D01*
X0027733Y0026736D01*
X0027762Y0026548D01*
X0027797Y0026361D01*
X0027836Y0026175D01*
X0027879Y0025990D01*
X0027927Y0025805D01*
X0027979Y0025622D01*
X0028035Y0025441D01*
X0028096Y0025261D01*
X0028162Y0025082D01*
X0028231Y0024905D01*
X0028305Y0024729D01*
X0028383Y0024556D01*
X0028466Y0024384D01*
X0028552Y0024215D01*
X0028642Y0024047D01*
X0028737Y0023882D01*
X0028835Y0023719D01*
X0028938Y0023559D01*
X0029044Y0023401D01*
X0029154Y0023246D01*
X0029267Y0023093D01*
X0029385Y0022943D01*
X0029506Y0022797D01*
X0029630Y0022653D01*
X0029758Y0022512D01*
X0029889Y0022374D01*
X0030024Y0022239D01*
X0030162Y0022108D01*
X0030303Y0021980D01*
X0030447Y0021856D01*
X0030593Y0021735D01*
X0030743Y0021617D01*
X0030896Y0021504D01*
X0031051Y0021394D01*
X0031209Y0021288D01*
X0031369Y0021185D01*
X0031532Y0021087D01*
X0031697Y0020992D01*
X0031865Y0020902D01*
X0032034Y0020816D01*
X0032206Y0020733D01*
X0032379Y0020655D01*
X0032555Y0020581D01*
X0032732Y0020512D01*
X0032911Y0020446D01*
X0033091Y0020385D01*
X0033272Y0020329D01*
X0033455Y0020277D01*
X0033640Y0020229D01*
X0033825Y0020186D01*
X0034011Y0020147D01*
X0034198Y0020112D01*
X0034386Y0020083D01*
X0034575Y0020057D01*
X0034764Y0020037D01*
X0034954Y0020021D01*
X0035144Y0020009D01*
X0035334Y0020002D01*
X0035524Y0020000D01*
X0187886Y0051496D02*
X0187888Y0051639D01*
X0187894Y0051782D01*
X0187904Y0051924D01*
X0187918Y0052066D01*
X0187936Y0052208D01*
X0187958Y0052350D01*
X0187983Y0052490D01*
X0188013Y0052630D01*
X0188047Y0052769D01*
X0188084Y0052907D01*
X0188126Y0053044D01*
X0188171Y0053179D01*
X0188220Y0053313D01*
X0188272Y0053446D01*
X0188328Y0053578D01*
X0188388Y0053707D01*
X0188452Y0053835D01*
X0188519Y0053962D01*
X0188590Y0054086D01*
X0188664Y0054208D01*
X0188741Y0054328D01*
X0188822Y0054446D01*
X0188906Y0054562D01*
X0188993Y0054675D01*
X0189083Y0054786D01*
X0189177Y0054894D01*
X0189273Y0055000D01*
X0189372Y0055102D01*
X0189475Y0055202D01*
X0189579Y0055299D01*
X0189687Y0055394D01*
X0189797Y0055485D01*
X0189910Y0055573D01*
X0190025Y0055657D01*
X0190142Y0055739D01*
X0190262Y0055817D01*
X0190383Y0055892D01*
X0190507Y0055964D01*
X0190633Y0056032D01*
X0190760Y0056096D01*
X0190890Y0056157D01*
X0191021Y0056214D01*
X0191153Y0056268D01*
X0191287Y0056317D01*
X0191422Y0056364D01*
X0191559Y0056406D01*
X0191697Y0056444D01*
X0191835Y0056479D01*
X0191975Y0056509D01*
X0192115Y0056536D01*
X0192256Y0056559D01*
X0192398Y0056578D01*
X0192540Y0056593D01*
X0192683Y0056604D01*
X0192825Y0056611D01*
X0192968Y0056614D01*
X0193111Y0056613D01*
X0193254Y0056608D01*
X0193397Y0056599D01*
X0193539Y0056586D01*
X0193681Y0056569D01*
X0193822Y0056548D01*
X0193963Y0056523D01*
X0194103Y0056495D01*
X0194242Y0056462D01*
X0194380Y0056425D01*
X0194517Y0056385D01*
X0194653Y0056341D01*
X0194788Y0056293D01*
X0194921Y0056241D01*
X0195053Y0056186D01*
X0195183Y0056127D01*
X0195312Y0056064D01*
X0195438Y0055998D01*
X0195563Y0055928D01*
X0195686Y0055855D01*
X0195806Y0055779D01*
X0195925Y0055699D01*
X0196041Y0055615D01*
X0196155Y0055529D01*
X0196266Y0055439D01*
X0196375Y0055347D01*
X0196481Y0055251D01*
X0196585Y0055153D01*
X0196686Y0055051D01*
X0196783Y0054947D01*
X0196878Y0054840D01*
X0196970Y0054731D01*
X0197059Y0054619D01*
X0197145Y0054504D01*
X0197227Y0054388D01*
X0197306Y0054268D01*
X0197382Y0054147D01*
X0197454Y0054024D01*
X0197523Y0053899D01*
X0197588Y0053772D01*
X0197650Y0053643D01*
X0197708Y0053512D01*
X0197763Y0053380D01*
X0197813Y0053246D01*
X0197860Y0053111D01*
X0197904Y0052975D01*
X0197943Y0052838D01*
X0197978Y0052699D01*
X0198010Y0052560D01*
X0198038Y0052420D01*
X0198062Y0052279D01*
X0198082Y0052137D01*
X0198098Y0051995D01*
X0198110Y0051853D01*
X0198118Y0051710D01*
X0198122Y0051567D01*
X0198122Y0051425D01*
X0198118Y0051282D01*
X0198110Y0051139D01*
X0198098Y0050997D01*
X0198082Y0050855D01*
X0198062Y0050713D01*
X0198038Y0050572D01*
X0198010Y0050432D01*
X0197978Y0050293D01*
X0197943Y0050154D01*
X0197904Y0050017D01*
X0197860Y0049881D01*
X0197813Y0049746D01*
X0197763Y0049612D01*
X0197708Y0049480D01*
X0197650Y0049349D01*
X0197588Y0049220D01*
X0197523Y0049093D01*
X0197454Y0048968D01*
X0197382Y0048845D01*
X0197306Y0048724D01*
X0197227Y0048604D01*
X0197145Y0048488D01*
X0197059Y0048373D01*
X0196970Y0048261D01*
X0196878Y0048152D01*
X0196783Y0048045D01*
X0196686Y0047941D01*
X0196585Y0047839D01*
X0196481Y0047741D01*
X0196375Y0047645D01*
X0196266Y0047553D01*
X0196155Y0047463D01*
X0196041Y0047377D01*
X0195925Y0047293D01*
X0195806Y0047213D01*
X0195686Y0047137D01*
X0195563Y0047064D01*
X0195438Y0046994D01*
X0195312Y0046928D01*
X0195183Y0046865D01*
X0195053Y0046806D01*
X0194921Y0046751D01*
X0194788Y0046699D01*
X0194653Y0046651D01*
X0194517Y0046607D01*
X0194380Y0046567D01*
X0194242Y0046530D01*
X0194103Y0046497D01*
X0193963Y0046469D01*
X0193822Y0046444D01*
X0193681Y0046423D01*
X0193539Y0046406D01*
X0193397Y0046393D01*
X0193254Y0046384D01*
X0193111Y0046379D01*
X0192968Y0046378D01*
X0192825Y0046381D01*
X0192683Y0046388D01*
X0192540Y0046399D01*
X0192398Y0046414D01*
X0192256Y0046433D01*
X0192115Y0046456D01*
X0191975Y0046483D01*
X0191835Y0046513D01*
X0191697Y0046548D01*
X0191559Y0046586D01*
X0191422Y0046628D01*
X0191287Y0046675D01*
X0191153Y0046724D01*
X0191021Y0046778D01*
X0190890Y0046835D01*
X0190760Y0046896D01*
X0190633Y0046960D01*
X0190507Y0047028D01*
X0190383Y0047100D01*
X0190262Y0047175D01*
X0190142Y0047253D01*
X0190025Y0047335D01*
X0189910Y0047419D01*
X0189797Y0047507D01*
X0189687Y0047598D01*
X0189579Y0047693D01*
X0189475Y0047790D01*
X0189372Y0047890D01*
X0189273Y0047992D01*
X0189177Y0048098D01*
X0189083Y0048206D01*
X0188993Y0048317D01*
X0188906Y0048430D01*
X0188822Y0048546D01*
X0188741Y0048664D01*
X0188664Y0048784D01*
X0188590Y0048906D01*
X0188519Y0049030D01*
X0188452Y0049157D01*
X0188388Y0049285D01*
X0188328Y0049414D01*
X0188272Y0049546D01*
X0188220Y0049679D01*
X0188171Y0049813D01*
X0188126Y0049948D01*
X0188084Y0050085D01*
X0188047Y0050223D01*
X0188013Y0050362D01*
X0187983Y0050502D01*
X0187958Y0050642D01*
X0187936Y0050784D01*
X0187918Y0050926D01*
X0187904Y0051068D01*
X0187894Y0051210D01*
X0187888Y0051353D01*
X0187886Y0051496D01*
X0035524Y0177480D02*
X0035334Y0177478D01*
X0035144Y0177471D01*
X0034954Y0177459D01*
X0034764Y0177443D01*
X0034575Y0177423D01*
X0034386Y0177397D01*
X0034198Y0177368D01*
X0034011Y0177333D01*
X0033825Y0177294D01*
X0033640Y0177251D01*
X0033455Y0177203D01*
X0033272Y0177151D01*
X0033091Y0177095D01*
X0032911Y0177034D01*
X0032732Y0176968D01*
X0032555Y0176899D01*
X0032379Y0176825D01*
X0032206Y0176747D01*
X0032034Y0176664D01*
X0031865Y0176578D01*
X0031697Y0176488D01*
X0031532Y0176393D01*
X0031369Y0176295D01*
X0031209Y0176192D01*
X0031051Y0176086D01*
X0030896Y0175976D01*
X0030743Y0175863D01*
X0030593Y0175745D01*
X0030447Y0175624D01*
X0030303Y0175500D01*
X0030162Y0175372D01*
X0030024Y0175241D01*
X0029889Y0175106D01*
X0029758Y0174968D01*
X0029630Y0174827D01*
X0029506Y0174683D01*
X0029385Y0174537D01*
X0029267Y0174387D01*
X0029154Y0174234D01*
X0029044Y0174079D01*
X0028938Y0173921D01*
X0028835Y0173761D01*
X0028737Y0173598D01*
X0028642Y0173433D01*
X0028552Y0173265D01*
X0028466Y0173096D01*
X0028383Y0172924D01*
X0028305Y0172751D01*
X0028231Y0172575D01*
X0028162Y0172398D01*
X0028096Y0172219D01*
X0028035Y0172039D01*
X0027979Y0171858D01*
X0027927Y0171675D01*
X0027879Y0171490D01*
X0027836Y0171305D01*
X0027797Y0171119D01*
X0027762Y0170932D01*
X0027733Y0170744D01*
X0027707Y0170555D01*
X0027687Y0170366D01*
X0027671Y0170176D01*
X0027659Y0169986D01*
X0027652Y0169796D01*
X0027650Y0169606D01*
D11*
X0213275Y0162500D03*
D12*
X0213275Y0142500D03*
D13*
X0205650Y0148013D03*
X0205650Y0151213D03*
X0205650Y0154413D03*
D14*
X0203900Y0031250D03*
X0198900Y0031250D03*
X0193900Y0031250D03*
X0188900Y0031250D03*
X0183900Y0031250D03*
X0183900Y0026250D03*
X0188900Y0026250D03*
X0193900Y0026250D03*
X0198900Y0026250D03*
X0203900Y0026250D03*
D15*
X0237650Y0095750D03*
X0237650Y0101750D03*
D16*
X0238637Y0130637D03*
X0238637Y0140638D03*
X0147650Y0026250D03*
X0137650Y0026250D03*
X0127650Y0026250D03*
X0117650Y0026250D03*
X0103900Y0026250D03*
X0093900Y0026250D03*
X0083900Y0026250D03*
X0073900Y0026250D03*
X0063900Y0026250D03*
D17*
X0183841Y0158750D03*
X0188959Y0158750D03*
X0188959Y0163750D03*
X0183841Y0163750D03*
D18*
X0066750Y0038750D03*
X0063550Y0038750D03*
D19*
X0030840Y0023190D02*
X0029622Y0024867D01*
X0028982Y0026838D01*
X0028900Y0027874D01*
X0028900Y0081250D01*
X0043900Y0081250D01*
X0046400Y0083750D01*
X0046400Y0098750D01*
X0088925Y0098750D01*
X0088925Y0095791D01*
X0087902Y0096815D01*
X0086398Y0096815D01*
X0085834Y0096250D01*
X0056466Y0096250D01*
X0055902Y0096815D01*
X0054398Y0096815D01*
X0053335Y0095752D01*
X0053335Y0094248D01*
X0054398Y0093185D01*
X0055902Y0093185D01*
X0056466Y0093750D01*
X0085834Y0093750D01*
X0086398Y0093185D01*
X0087902Y0093185D01*
X0088925Y0094209D01*
X0088925Y0090993D01*
X0087904Y0092014D01*
X0086952Y0092014D01*
X0086387Y0092579D01*
X0084884Y0092579D01*
X0083821Y0091516D01*
X0083821Y0090013D01*
X0084884Y0088950D01*
X0086387Y0088950D01*
X0086910Y0089472D01*
X0087525Y0088857D01*
X0087525Y0085333D01*
X0092630Y0080227D01*
X0092630Y0079913D01*
X0091582Y0078865D01*
X0090784Y0078865D01*
X0087260Y0075341D01*
X0087260Y0072076D01*
X0087034Y0071850D01*
X0082764Y0071850D01*
X0081304Y0070390D01*
X0077034Y0070390D01*
X0076301Y0069657D01*
X0073618Y0066974D01*
X0072885Y0066241D01*
X0072885Y0048065D01*
X0072523Y0048065D01*
X0071460Y0047002D01*
X0071460Y0045498D01*
X0072523Y0044435D01*
X0074027Y0044435D01*
X0074285Y0044694D01*
X0074285Y0043367D01*
X0076767Y0040885D01*
X0069267Y0040885D01*
X0068850Y0040468D01*
X0068850Y0041602D01*
X0068352Y0042100D01*
X0061948Y0042100D01*
X0061450Y0041602D01*
X0061450Y0040641D01*
X0060902Y0041190D01*
X0059398Y0041190D01*
X0058335Y0040127D01*
X0058335Y0038623D01*
X0059398Y0037560D01*
X0060902Y0037560D01*
X0061450Y0038109D01*
X0061450Y0035898D01*
X0061948Y0035400D01*
X0064585Y0035400D01*
X0064585Y0034248D01*
X0065648Y0033185D01*
X0067152Y0033185D01*
X0068215Y0034248D01*
X0068215Y0035400D01*
X0068352Y0035400D01*
X0068850Y0035898D01*
X0068850Y0037500D01*
X0069418Y0037500D01*
X0070150Y0038232D01*
X0070303Y0038385D01*
X0084787Y0038385D01*
X0085535Y0037637D01*
X0085535Y0036839D01*
X0086268Y0036106D01*
X0086513Y0035861D01*
X0086513Y0034889D01*
X0087245Y0034157D01*
X0088396Y0033006D01*
X0091059Y0033006D01*
X0092650Y0034597D01*
X0092650Y0030224D01*
X0091549Y0029768D01*
X0090382Y0028601D01*
X0089750Y0027075D01*
X0089750Y0026087D01*
X0089069Y0026768D01*
X0088337Y0027500D01*
X0087874Y0027500D01*
X0087418Y0028601D01*
X0086251Y0029768D01*
X0084725Y0030400D01*
X0083075Y0030400D01*
X0081549Y0029768D01*
X0080382Y0028601D01*
X0079750Y0027075D01*
X0079750Y0025425D01*
X0080382Y0023899D01*
X0081549Y0022732D01*
X0083075Y0022100D01*
X0084725Y0022100D01*
X0086251Y0022732D01*
X0087418Y0023899D01*
X0087706Y0024595D01*
X0091051Y0021250D01*
X0035524Y0021250D01*
X0034488Y0021332D01*
X0032517Y0021972D01*
X0030840Y0023190D01*
X0030991Y0023490D02*
X0030623Y0023490D01*
X0030757Y0023651D02*
X0033266Y0021919D01*
X0036292Y0021552D01*
X0039142Y0022633D01*
X0041163Y0024914D01*
X0041163Y0024914D01*
X0041893Y0027874D01*
X0041163Y0030834D01*
X0039142Y0033115D01*
X0039142Y0033115D01*
X0036292Y0034196D01*
X0036292Y0034196D01*
X0033266Y0033829D01*
X0030757Y0032097D01*
X0029340Y0029398D01*
X0029340Y0026350D01*
X0030757Y0023651D01*
X0030757Y0023651D01*
X0030757Y0023651D01*
X0030580Y0023988D02*
X0030261Y0023988D01*
X0030318Y0024487D02*
X0029899Y0024487D01*
X0030057Y0024985D02*
X0029584Y0024985D01*
X0029422Y0025484D02*
X0029795Y0025484D01*
X0029533Y0025982D02*
X0029260Y0025982D01*
X0029340Y0026481D02*
X0029098Y0026481D01*
X0028971Y0026979D02*
X0029340Y0026979D01*
X0029340Y0027478D02*
X0028932Y0027478D01*
X0028900Y0027976D02*
X0029340Y0027976D01*
X0029340Y0028475D02*
X0028900Y0028475D01*
X0028900Y0028973D02*
X0029340Y0028973D01*
X0029379Y0029472D02*
X0028900Y0029472D01*
X0028900Y0029970D02*
X0029641Y0029970D01*
X0029902Y0030469D02*
X0028900Y0030469D01*
X0028900Y0030967D02*
X0030164Y0030967D01*
X0030426Y0031466D02*
X0028900Y0031466D01*
X0028900Y0031964D02*
X0030687Y0031964D01*
X0030757Y0032097D02*
X0030757Y0032097D01*
X0030757Y0032097D01*
X0031287Y0032463D02*
X0028900Y0032463D01*
X0028900Y0032961D02*
X0032009Y0032961D01*
X0032731Y0033460D02*
X0028900Y0033460D01*
X0028900Y0033958D02*
X0034333Y0033958D01*
X0033266Y0033829D02*
X0033266Y0033829D01*
X0036919Y0033958D02*
X0064875Y0033958D01*
X0064585Y0034457D02*
X0028900Y0034457D01*
X0028900Y0034955D02*
X0064585Y0034955D01*
X0065374Y0033460D02*
X0038233Y0033460D01*
X0039278Y0032961D02*
X0092650Y0032961D01*
X0092650Y0032463D02*
X0039720Y0032463D01*
X0040161Y0031964D02*
X0092650Y0031964D01*
X0092650Y0031466D02*
X0040603Y0031466D01*
X0041045Y0030967D02*
X0092650Y0030967D01*
X0092650Y0030469D02*
X0041253Y0030469D01*
X0041163Y0030834D02*
X0041163Y0030834D01*
X0041376Y0029970D02*
X0062037Y0029970D01*
X0061549Y0029768D02*
X0060382Y0028601D01*
X0059750Y0027075D01*
X0059750Y0025425D01*
X0060382Y0023899D01*
X0061549Y0022732D01*
X0063075Y0022100D01*
X0064725Y0022100D01*
X0066251Y0022732D01*
X0067418Y0023899D01*
X0068050Y0025425D01*
X0068050Y0027075D01*
X0067418Y0028601D01*
X0066251Y0029768D01*
X0064725Y0030400D01*
X0063075Y0030400D01*
X0061549Y0029768D01*
X0061253Y0029472D02*
X0041499Y0029472D01*
X0041622Y0028973D02*
X0060754Y0028973D01*
X0060330Y0028475D02*
X0041745Y0028475D01*
X0041867Y0027976D02*
X0060123Y0027976D01*
X0059917Y0027478D02*
X0041795Y0027478D01*
X0041672Y0026979D02*
X0059750Y0026979D01*
X0059750Y0026481D02*
X0041549Y0026481D01*
X0041426Y0025982D02*
X0059750Y0025982D01*
X0059750Y0025484D02*
X0041303Y0025484D01*
X0041181Y0024985D02*
X0059932Y0024985D01*
X0060138Y0024487D02*
X0040784Y0024487D01*
X0040343Y0023988D02*
X0060345Y0023988D01*
X0060791Y0023490D02*
X0039901Y0023490D01*
X0039459Y0022991D02*
X0061290Y0022991D01*
X0062127Y0022493D02*
X0038772Y0022493D01*
X0039142Y0022633D02*
X0039142Y0022633D01*
X0037458Y0021994D02*
X0090307Y0021994D01*
X0090806Y0021496D02*
X0033985Y0021496D01*
X0033266Y0021919D02*
X0033266Y0021919D01*
X0033157Y0021994D02*
X0032487Y0021994D01*
X0032435Y0022493D02*
X0031801Y0022493D01*
X0031713Y0022991D02*
X0031115Y0022991D01*
X0036292Y0021552D02*
X0036292Y0021552D01*
X0028900Y0035454D02*
X0061894Y0035454D01*
X0061450Y0035952D02*
X0028900Y0035952D01*
X0028900Y0036451D02*
X0061450Y0036451D01*
X0061450Y0036949D02*
X0028900Y0036949D01*
X0028900Y0037448D02*
X0061450Y0037448D01*
X0061450Y0037946D02*
X0061288Y0037946D01*
X0059012Y0037946D02*
X0028900Y0037946D01*
X0028900Y0038445D02*
X0058514Y0038445D01*
X0058335Y0038943D02*
X0028900Y0038943D01*
X0028900Y0039442D02*
X0058335Y0039442D01*
X0058335Y0039940D02*
X0028900Y0039940D01*
X0028900Y0040439D02*
X0058648Y0040439D01*
X0059146Y0040937D02*
X0028900Y0040937D01*
X0028900Y0041436D02*
X0061450Y0041436D01*
X0061450Y0040937D02*
X0061154Y0040937D01*
X0061782Y0041934D02*
X0028900Y0041934D01*
X0028900Y0042433D02*
X0075219Y0042433D01*
X0074721Y0042932D02*
X0028900Y0042932D01*
X0028900Y0043430D02*
X0074285Y0043430D01*
X0074285Y0043929D02*
X0028900Y0043929D01*
X0028900Y0044427D02*
X0074285Y0044427D01*
X0072033Y0044926D02*
X0028900Y0044926D01*
X0028900Y0045424D02*
X0063320Y0045424D01*
X0063773Y0044971D02*
X0065277Y0044971D01*
X0066340Y0046034D01*
X0066340Y0047537D01*
X0065277Y0048600D01*
X0064478Y0048600D01*
X0063900Y0049178D01*
X0063900Y0050648D01*
X0064465Y0051213D01*
X0064465Y0052716D01*
X0063402Y0053779D01*
X0061898Y0053779D01*
X0060835Y0052716D01*
X0060835Y0051213D01*
X0061400Y0050648D01*
X0061400Y0048143D01*
X0062132Y0047410D01*
X0062710Y0046832D01*
X0062710Y0046034D01*
X0063773Y0044971D01*
X0062822Y0045923D02*
X0028900Y0045923D01*
X0028900Y0046421D02*
X0062710Y0046421D01*
X0062623Y0046920D02*
X0028900Y0046920D01*
X0028900Y0047418D02*
X0062125Y0047418D01*
X0061626Y0047917D02*
X0028900Y0047917D01*
X0028900Y0048415D02*
X0061400Y0048415D01*
X0061400Y0048914D02*
X0028900Y0048914D01*
X0028900Y0049412D02*
X0061400Y0049412D01*
X0061400Y0049911D02*
X0028900Y0049911D01*
X0028900Y0050409D02*
X0061400Y0050409D01*
X0061141Y0050908D02*
X0028900Y0050908D01*
X0028900Y0051406D02*
X0060835Y0051406D01*
X0060835Y0051905D02*
X0028900Y0051905D01*
X0028900Y0052403D02*
X0060835Y0052403D01*
X0061021Y0052902D02*
X0028900Y0052902D01*
X0028900Y0053400D02*
X0061520Y0053400D01*
X0063780Y0053400D02*
X0072885Y0053400D01*
X0072885Y0052902D02*
X0064279Y0052902D01*
X0064465Y0052403D02*
X0072885Y0052403D01*
X0072885Y0051905D02*
X0064465Y0051905D01*
X0064465Y0051406D02*
X0072885Y0051406D01*
X0072885Y0050908D02*
X0064159Y0050908D01*
X0063900Y0050409D02*
X0072885Y0050409D01*
X0072885Y0049911D02*
X0063900Y0049911D01*
X0063900Y0049412D02*
X0072885Y0049412D01*
X0072885Y0048914D02*
X0064165Y0048914D01*
X0065461Y0048415D02*
X0072885Y0048415D01*
X0072375Y0047917D02*
X0065960Y0047917D01*
X0066340Y0047418D02*
X0071877Y0047418D01*
X0071460Y0046920D02*
X0066340Y0046920D01*
X0066340Y0046421D02*
X0071460Y0046421D01*
X0071460Y0045923D02*
X0066228Y0045923D01*
X0065730Y0045424D02*
X0071535Y0045424D01*
X0068518Y0041934D02*
X0075718Y0041934D01*
X0076216Y0041436D02*
X0068850Y0041436D01*
X0068850Y0040937D02*
X0076715Y0040937D01*
X0079418Y0043750D02*
X0078185Y0044982D01*
X0078185Y0063148D01*
X0078773Y0062560D01*
X0080277Y0062560D01*
X0080841Y0063125D01*
X0083703Y0063125D01*
X0084081Y0063503D01*
X0085023Y0062560D01*
X0086527Y0062560D01*
X0087590Y0063623D01*
X0087590Y0063750D01*
X0090210Y0063750D01*
X0090210Y0063623D01*
X0091273Y0062560D01*
X0092777Y0062560D01*
X0093840Y0063623D01*
X0093840Y0064375D01*
X0096460Y0064375D01*
X0096460Y0062909D01*
X0097523Y0061846D01*
X0099027Y0061846D01*
X0100090Y0062909D01*
X0100090Y0062975D01*
X0102177Y0062975D01*
X0104021Y0061131D01*
X0106460Y0061131D01*
X0106460Y0061065D01*
X0107523Y0060002D01*
X0107759Y0060002D01*
X0093382Y0045625D01*
X0092650Y0044893D01*
X0092650Y0042595D01*
X0092152Y0043094D01*
X0090648Y0043094D01*
X0089585Y0042031D01*
X0089585Y0041082D01*
X0086918Y0043750D01*
X0079418Y0043750D01*
X0079239Y0043929D02*
X0092650Y0043929D01*
X0092650Y0044427D02*
X0078741Y0044427D01*
X0078242Y0044926D02*
X0092683Y0044926D01*
X0093181Y0045424D02*
X0078185Y0045424D01*
X0078185Y0045923D02*
X0093680Y0045923D01*
X0094178Y0046421D02*
X0078185Y0046421D01*
X0078185Y0046920D02*
X0094677Y0046920D01*
X0095175Y0047418D02*
X0078185Y0047418D01*
X0078185Y0047917D02*
X0095674Y0047917D01*
X0096172Y0048415D02*
X0078185Y0048415D01*
X0078185Y0048914D02*
X0096671Y0048914D01*
X0097169Y0049412D02*
X0078185Y0049412D01*
X0078185Y0049911D02*
X0097668Y0049911D01*
X0098166Y0050409D02*
X0078185Y0050409D01*
X0078185Y0050908D02*
X0098665Y0050908D01*
X0099163Y0051406D02*
X0078185Y0051406D01*
X0078185Y0051905D02*
X0099662Y0051905D01*
X0100160Y0052403D02*
X0078185Y0052403D01*
X0078185Y0052902D02*
X0100659Y0052902D01*
X0101158Y0053400D02*
X0078185Y0053400D01*
X0078185Y0053899D02*
X0101656Y0053899D01*
X0102155Y0054397D02*
X0078185Y0054397D01*
X0078185Y0054896D02*
X0102653Y0054896D01*
X0103152Y0055394D02*
X0078185Y0055394D01*
X0078185Y0055893D02*
X0103650Y0055893D01*
X0104149Y0056391D02*
X0078185Y0056391D01*
X0078185Y0056890D02*
X0104647Y0056890D01*
X0105146Y0057388D02*
X0078185Y0057388D01*
X0078185Y0057887D02*
X0105644Y0057887D01*
X0106143Y0058385D02*
X0078185Y0058385D01*
X0078185Y0058884D02*
X0106641Y0058884D01*
X0107140Y0059382D02*
X0078185Y0059382D01*
X0078185Y0059881D02*
X0107638Y0059881D01*
X0107146Y0060379D02*
X0078185Y0060379D01*
X0078185Y0060878D02*
X0106648Y0060878D01*
X0103776Y0061376D02*
X0078185Y0061376D01*
X0078185Y0061875D02*
X0097494Y0061875D01*
X0096996Y0062373D02*
X0078185Y0062373D01*
X0078185Y0062872D02*
X0078462Y0062872D01*
X0080588Y0062872D02*
X0084712Y0062872D01*
X0084213Y0063370D02*
X0083949Y0063370D01*
X0086838Y0062872D02*
X0090962Y0062872D01*
X0090463Y0063370D02*
X0087337Y0063370D01*
X0093088Y0062872D02*
X0096497Y0062872D01*
X0096460Y0063370D02*
X0093587Y0063370D01*
X0093840Y0063869D02*
X0096460Y0063869D01*
X0096460Y0064368D02*
X0093840Y0064368D01*
X0099056Y0061875D02*
X0103277Y0061875D01*
X0102779Y0062373D02*
X0099554Y0062373D01*
X0100053Y0062872D02*
X0102280Y0062872D01*
X0107561Y0070090D02*
X0107839Y0070368D01*
X0108990Y0071518D01*
X0108990Y0074182D01*
X0108257Y0074914D01*
X0107107Y0076065D01*
X0106308Y0076065D01*
X0102950Y0079423D01*
X0102950Y0083448D01*
X0097175Y0089223D01*
X0097175Y0093375D01*
X0097777Y0093375D01*
X0098341Y0093940D01*
X0136084Y0093940D01*
X0136084Y0071108D01*
X0144184Y0063007D01*
X0144184Y0060291D01*
X0144019Y0060127D01*
X0144019Y0058623D01*
X0144184Y0058459D01*
X0144184Y0040200D01*
X0142834Y0038850D01*
X0123890Y0038850D01*
X0123425Y0039315D01*
X0121922Y0039315D01*
X0121457Y0038850D01*
X0108866Y0038850D01*
X0108402Y0039315D01*
X0107603Y0039315D01*
X0105150Y0041768D01*
X0104418Y0042500D01*
X0101495Y0042500D01*
X0100902Y0043094D01*
X0100326Y0043094D01*
X0113808Y0056575D01*
X0123287Y0056575D01*
X0126120Y0059408D01*
X0129939Y0059408D01*
X0129942Y0059411D01*
X0130208Y0059146D01*
X0132871Y0059146D01*
X0133785Y0060060D01*
X0134820Y0060060D01*
X0135883Y0061123D01*
X0135883Y0062627D01*
X0134820Y0063690D01*
X0133317Y0063690D01*
X0133047Y0063419D01*
X0132291Y0064175D01*
X0131878Y0064175D01*
X0131878Y0065213D01*
X0130815Y0066276D01*
X0130090Y0066276D01*
X0130090Y0067002D01*
X0129027Y0068065D01*
X0127523Y0068065D01*
X0127017Y0067558D01*
X0127017Y0067574D01*
X0125954Y0068637D01*
X0125854Y0068637D01*
X0125854Y0069987D01*
X0124791Y0071050D01*
X0123288Y0071050D01*
X0122789Y0070552D01*
X0122152Y0071190D01*
X0120648Y0071190D01*
X0119585Y0070127D01*
X0119585Y0068623D01*
X0119632Y0068577D01*
X0118616Y0067560D01*
X0111079Y0067560D01*
X0111654Y0068136D01*
X0111654Y0069639D01*
X0110591Y0070702D01*
X0109088Y0070702D01*
X0108476Y0070090D01*
X0107561Y0070090D01*
X0107821Y0070350D02*
X0108736Y0070350D01*
X0108319Y0070848D02*
X0120307Y0070848D01*
X0119808Y0070350D02*
X0110943Y0070350D01*
X0111442Y0069851D02*
X0119585Y0069851D01*
X0119585Y0069353D02*
X0111654Y0069353D01*
X0111654Y0068854D02*
X0119585Y0068854D01*
X0119411Y0068356D02*
X0111654Y0068356D01*
X0111376Y0067857D02*
X0118913Y0067857D01*
X0122493Y0070848D02*
X0123085Y0070848D01*
X0124993Y0070848D02*
X0136343Y0070848D01*
X0136084Y0071347D02*
X0108818Y0071347D01*
X0108990Y0071845D02*
X0136084Y0071845D01*
X0136084Y0072344D02*
X0108990Y0072344D01*
X0108990Y0072842D02*
X0136084Y0072842D01*
X0136084Y0073341D02*
X0108990Y0073341D01*
X0108990Y0073839D02*
X0136084Y0073839D01*
X0136084Y0074338D02*
X0108833Y0074338D01*
X0108335Y0074836D02*
X0136084Y0074836D01*
X0136084Y0075335D02*
X0107836Y0075335D01*
X0107338Y0075833D02*
X0136084Y0075833D01*
X0136084Y0076332D02*
X0106041Y0076332D01*
X0105542Y0076830D02*
X0136084Y0076830D01*
X0136084Y0077329D02*
X0105044Y0077329D01*
X0104545Y0077827D02*
X0136084Y0077827D01*
X0136084Y0078326D02*
X0104047Y0078326D01*
X0103548Y0078824D02*
X0136084Y0078824D01*
X0136084Y0079323D02*
X0103050Y0079323D01*
X0102950Y0079821D02*
X0136084Y0079821D01*
X0136084Y0080320D02*
X0102950Y0080320D01*
X0102950Y0080818D02*
X0136084Y0080818D01*
X0136084Y0081317D02*
X0102950Y0081317D01*
X0102950Y0081815D02*
X0136084Y0081815D01*
X0136084Y0082314D02*
X0102950Y0082314D01*
X0102950Y0082812D02*
X0136084Y0082812D01*
X0136084Y0083311D02*
X0102950Y0083311D01*
X0102588Y0083809D02*
X0136084Y0083809D01*
X0136084Y0084308D02*
X0102090Y0084308D01*
X0101591Y0084806D02*
X0136084Y0084806D01*
X0136084Y0085305D02*
X0101093Y0085305D01*
X0100594Y0085803D02*
X0136084Y0085803D01*
X0136084Y0086302D02*
X0100096Y0086302D01*
X0099597Y0086801D02*
X0136084Y0086801D01*
X0136084Y0087299D02*
X0099099Y0087299D01*
X0098600Y0087798D02*
X0136084Y0087798D01*
X0136084Y0088296D02*
X0098102Y0088296D01*
X0097603Y0088795D02*
X0136084Y0088795D01*
X0136084Y0089293D02*
X0097175Y0089293D01*
X0097175Y0089792D02*
X0136084Y0089792D01*
X0136084Y0090290D02*
X0097175Y0090290D01*
X0097175Y0090789D02*
X0136084Y0090789D01*
X0136084Y0091287D02*
X0097175Y0091287D01*
X0097175Y0091786D02*
X0136084Y0091786D01*
X0136084Y0092284D02*
X0097175Y0092284D01*
X0097175Y0092783D02*
X0136084Y0092783D01*
X0136084Y0093281D02*
X0097175Y0093281D01*
X0098181Y0093780D02*
X0136084Y0093780D01*
X0139384Y0093780D02*
X0178500Y0093780D01*
X0178500Y0094278D02*
X0139384Y0094278D01*
X0139384Y0094446D02*
X0139549Y0094611D01*
X0139549Y0096114D01*
X0139386Y0096277D01*
X0139583Y0096475D01*
X0178217Y0096475D01*
X0178335Y0096356D01*
X0178335Y0096123D01*
X0178500Y0095959D01*
X0178500Y0087107D01*
X0178335Y0086943D01*
X0178335Y0085439D01*
X0179398Y0084376D01*
X0180902Y0084376D01*
X0181965Y0085439D01*
X0181965Y0086943D01*
X0181800Y0087107D01*
X0181800Y0095959D01*
X0181965Y0096123D01*
X0181965Y0097627D01*
X0180902Y0098690D01*
X0180669Y0098690D01*
X0180608Y0098750D01*
X0233461Y0098750D01*
X0233335Y0098532D01*
X0233250Y0098215D01*
X0233250Y0096000D01*
X0237400Y0096000D01*
X0237400Y0095500D01*
X0237900Y0095500D01*
X0237900Y0096000D01*
X0242050Y0096000D01*
X0242050Y0098215D01*
X0241965Y0098532D01*
X0241839Y0098750D01*
X0242935Y0098750D01*
X0242935Y0082500D01*
X0211850Y0082500D01*
X0211850Y0067350D01*
X0217800Y0067350D01*
X0217800Y0021250D01*
X0177393Y0021250D01*
X0178275Y0022133D01*
X0178275Y0024309D01*
X0178840Y0024873D01*
X0178840Y0026377D01*
X0177777Y0027440D01*
X0176273Y0027440D01*
X0175210Y0026377D01*
X0175210Y0024873D01*
X0175775Y0024309D01*
X0175775Y0023168D01*
X0175257Y0022651D01*
X0165090Y0022651D01*
X0165090Y0022717D01*
X0164027Y0023780D01*
X0162523Y0023780D01*
X0161460Y0022717D01*
X0161460Y0021250D01*
X0096749Y0021250D01*
X0096931Y0021432D01*
X0099450Y0023951D01*
X0099450Y0025882D01*
X0099750Y0025582D01*
X0099750Y0025425D01*
X0100382Y0023899D01*
X0101549Y0022732D01*
X0103075Y0022100D01*
X0104725Y0022100D01*
X0106251Y0022732D01*
X0107418Y0023899D01*
X0108050Y0025425D01*
X0108050Y0027075D01*
X0107418Y0028601D01*
X0106644Y0029375D01*
X0114906Y0029375D01*
X0114132Y0028601D01*
X0113500Y0027075D01*
X0113500Y0025425D01*
X0114132Y0023899D01*
X0115299Y0022732D01*
X0116825Y0022100D01*
X0118475Y0022100D01*
X0120001Y0022732D01*
X0121168Y0023899D01*
X0121800Y0025425D01*
X0121800Y0027075D01*
X0121168Y0028601D01*
X0120394Y0029375D01*
X0124632Y0029375D01*
X0124769Y0029238D01*
X0124132Y0028601D01*
X0123500Y0027075D01*
X0123500Y0025425D01*
X0124132Y0023899D01*
X0125299Y0022732D01*
X0126825Y0022100D01*
X0128475Y0022100D01*
X0130001Y0022732D01*
X0131168Y0023899D01*
X0131800Y0025425D01*
X0131800Y0027075D01*
X0131168Y0028601D01*
X0130001Y0029768D01*
X0128475Y0030400D01*
X0127143Y0030400D01*
X0126768Y0030775D01*
X0135107Y0030775D01*
X0135875Y0030007D01*
X0135299Y0029768D01*
X0134132Y0028601D01*
X0133500Y0027075D01*
X0133500Y0025425D01*
X0134132Y0023899D01*
X0135299Y0022732D01*
X0136825Y0022100D01*
X0138475Y0022100D01*
X0140001Y0022732D01*
X0141168Y0023899D01*
X0141800Y0025425D01*
X0141800Y0027075D01*
X0141168Y0028601D01*
X0140001Y0029768D01*
X0138900Y0030224D01*
X0138900Y0030518D01*
X0138168Y0031250D01*
X0136875Y0032543D01*
X0136143Y0033275D01*
X0104675Y0033275D01*
X0104675Y0037973D01*
X0104557Y0038091D01*
X0104604Y0038138D01*
X0104604Y0038779D01*
X0105835Y0037547D01*
X0105835Y0036748D01*
X0106898Y0035685D01*
X0108402Y0035685D01*
X0108866Y0036150D01*
X0121457Y0036150D01*
X0121922Y0035685D01*
X0123425Y0035685D01*
X0123890Y0036150D01*
X0143952Y0036150D01*
X0145622Y0037820D01*
X0153579Y0029862D01*
X0156762Y0029862D01*
X0156927Y0029698D01*
X0158430Y0029698D01*
X0158595Y0029862D01*
X0177954Y0029862D01*
X0181050Y0026767D01*
X0181050Y0025683D01*
X0181484Y0024636D01*
X0182286Y0023834D01*
X0183333Y0023400D01*
X0184467Y0023400D01*
X0185514Y0023834D01*
X0186169Y0024488D01*
X0186376Y0024178D01*
X0186828Y0023726D01*
X0187361Y0023370D01*
X0187952Y0023125D01*
X0188580Y0023000D01*
X0188650Y0023000D01*
X0188650Y0026000D01*
X0189150Y0026000D01*
X0189150Y0026500D01*
X0192150Y0026500D01*
X0193650Y0026500D01*
X0193650Y0026000D01*
X0189150Y0026000D01*
X0189150Y0023000D01*
X0189220Y0023000D01*
X0189848Y0023125D01*
X0190439Y0023370D01*
X0190972Y0023726D01*
X0191400Y0024154D01*
X0191828Y0023726D01*
X0192361Y0023370D01*
X0192952Y0023125D01*
X0193580Y0023000D01*
X0193650Y0023000D01*
X0193650Y0026000D01*
X0194150Y0026000D01*
X0194150Y0023000D01*
X0194220Y0023000D01*
X0194848Y0023125D01*
X0195439Y0023370D01*
X0195972Y0023726D01*
X0196424Y0024178D01*
X0196631Y0024488D01*
X0197286Y0023834D01*
X0198333Y0023400D01*
X0199467Y0023400D01*
X0200514Y0023834D01*
X0201169Y0024488D01*
X0201376Y0024178D01*
X0201828Y0023726D01*
X0202361Y0023370D01*
X0202952Y0023125D01*
X0203580Y0023000D01*
X0203650Y0023000D01*
X0203650Y0026000D01*
X0204150Y0026000D01*
X0204150Y0026500D01*
X0207150Y0026500D01*
X0207150Y0026570D01*
X0207025Y0027198D01*
X0206780Y0027789D01*
X0206424Y0028322D01*
X0205972Y0028774D01*
X0205662Y0028981D01*
X0206316Y0029636D01*
X0206750Y0030683D01*
X0206750Y0031817D01*
X0206316Y0032864D01*
X0205514Y0033666D01*
X0204467Y0034100D01*
X0203333Y0034100D01*
X0202286Y0033666D01*
X0201484Y0032864D01*
X0201400Y0032662D01*
X0201316Y0032864D01*
X0200514Y0033666D01*
X0199467Y0034100D01*
X0198333Y0034100D01*
X0197286Y0033666D01*
X0196484Y0032864D01*
X0196400Y0032662D01*
X0196316Y0032864D01*
X0195514Y0033666D01*
X0194467Y0034100D01*
X0193333Y0034100D01*
X0192286Y0033666D01*
X0191484Y0032864D01*
X0191400Y0032662D01*
X0191316Y0032864D01*
X0190514Y0033666D01*
X0189467Y0034100D01*
X0188333Y0034100D01*
X0188275Y0034076D01*
X0188275Y0034844D01*
X0188773Y0034346D01*
X0190277Y0034346D01*
X0191340Y0035409D01*
X0191340Y0035672D01*
X0191400Y0035732D01*
X0192742Y0037075D01*
X0193541Y0037075D01*
X0194604Y0038138D01*
X0194604Y0039641D01*
X0193541Y0040704D01*
X0192038Y0040704D01*
X0190975Y0039641D01*
X0190975Y0038842D01*
X0190107Y0037975D01*
X0188773Y0037975D01*
X0188275Y0037477D01*
X0188275Y0041143D01*
X0187543Y0041875D01*
X0185668Y0043750D01*
X0183215Y0043750D01*
X0183215Y0044502D01*
X0182152Y0045565D01*
X0180648Y0045565D01*
X0180084Y0045000D01*
X0175257Y0045000D01*
X0174525Y0044268D01*
X0168382Y0038125D01*
X0163650Y0038125D01*
X0163548Y0038227D01*
X0162045Y0038227D01*
X0160982Y0037164D01*
X0160982Y0035661D01*
X0162045Y0034598D01*
X0163548Y0034598D01*
X0164575Y0035625D01*
X0169418Y0035625D01*
X0170150Y0036357D01*
X0176293Y0042500D01*
X0180084Y0042500D01*
X0180648Y0041935D01*
X0181447Y0041935D01*
X0182132Y0041250D01*
X0182494Y0041250D01*
X0182085Y0040841D01*
X0182085Y0039338D01*
X0182650Y0038773D01*
X0182650Y0033817D01*
X0182286Y0033666D01*
X0181484Y0032864D01*
X0181050Y0031817D01*
X0181050Y0031433D01*
X0179321Y0033162D01*
X0158595Y0033162D01*
X0158430Y0033327D01*
X0156927Y0033327D01*
X0156762Y0033162D01*
X0154946Y0033162D01*
X0148763Y0039346D01*
X0149027Y0039346D01*
X0149838Y0040157D01*
X0150648Y0039346D01*
X0152152Y0039346D01*
X0153215Y0040409D01*
X0153215Y0041912D01*
X0152152Y0042975D01*
X0151443Y0042975D01*
X0150925Y0043493D01*
X0150925Y0081402D01*
X0154071Y0084548D01*
X0164806Y0084548D01*
X0165068Y0084285D01*
X0167732Y0084285D01*
X0167821Y0084375D01*
X0168209Y0084375D01*
X0168773Y0083810D01*
X0170277Y0083810D01*
X0171340Y0084873D01*
X0171340Y0086377D01*
X0170277Y0087440D01*
X0168773Y0087440D01*
X0168215Y0086881D01*
X0168215Y0088252D01*
X0167152Y0089315D01*
X0165648Y0089315D01*
X0165084Y0088750D01*
X0152757Y0088750D01*
X0147757Y0083750D01*
X0147025Y0083018D01*
X0147025Y0064833D01*
X0139384Y0072474D01*
X0139384Y0094446D01*
X0139549Y0094777D02*
X0178500Y0094777D01*
X0178500Y0095275D02*
X0139549Y0095275D01*
X0139549Y0095774D02*
X0178500Y0095774D01*
X0178335Y0096272D02*
X0139390Y0096272D01*
X0139384Y0093281D02*
X0178500Y0093281D01*
X0178500Y0092783D02*
X0139384Y0092783D01*
X0139384Y0092284D02*
X0178500Y0092284D01*
X0178500Y0091786D02*
X0139384Y0091786D01*
X0139384Y0091287D02*
X0178500Y0091287D01*
X0178500Y0090789D02*
X0139384Y0090789D01*
X0139384Y0090290D02*
X0178500Y0090290D01*
X0178500Y0089792D02*
X0139384Y0089792D01*
X0139384Y0089293D02*
X0165627Y0089293D01*
X0165128Y0088795D02*
X0139384Y0088795D01*
X0139384Y0088296D02*
X0152303Y0088296D01*
X0151805Y0087798D02*
X0139384Y0087798D01*
X0139384Y0087299D02*
X0151306Y0087299D01*
X0150808Y0086801D02*
X0139384Y0086801D01*
X0139384Y0086302D02*
X0150309Y0086302D01*
X0149811Y0085803D02*
X0139384Y0085803D01*
X0139384Y0085305D02*
X0149312Y0085305D01*
X0148814Y0084806D02*
X0139384Y0084806D01*
X0139384Y0084308D02*
X0148315Y0084308D01*
X0147817Y0083809D02*
X0139384Y0083809D01*
X0139384Y0083311D02*
X0147318Y0083311D01*
X0147025Y0082812D02*
X0139384Y0082812D01*
X0139384Y0082314D02*
X0147025Y0082314D01*
X0147025Y0081815D02*
X0139384Y0081815D01*
X0139384Y0081317D02*
X0147025Y0081317D01*
X0147025Y0080818D02*
X0139384Y0080818D01*
X0139384Y0080320D02*
X0147025Y0080320D01*
X0147025Y0079821D02*
X0139384Y0079821D01*
X0139384Y0079323D02*
X0147025Y0079323D01*
X0147025Y0078824D02*
X0139384Y0078824D01*
X0139384Y0078326D02*
X0147025Y0078326D01*
X0147025Y0077827D02*
X0139384Y0077827D01*
X0139384Y0077329D02*
X0147025Y0077329D01*
X0147025Y0076830D02*
X0139384Y0076830D01*
X0139384Y0076332D02*
X0147025Y0076332D01*
X0147025Y0075833D02*
X0139384Y0075833D01*
X0139384Y0075335D02*
X0147025Y0075335D01*
X0147025Y0074836D02*
X0139384Y0074836D01*
X0139384Y0074338D02*
X0147025Y0074338D01*
X0147025Y0073839D02*
X0139384Y0073839D01*
X0139384Y0073341D02*
X0147025Y0073341D01*
X0147025Y0072842D02*
X0139384Y0072842D01*
X0139515Y0072344D02*
X0147025Y0072344D01*
X0147025Y0071845D02*
X0140013Y0071845D01*
X0140512Y0071347D02*
X0147025Y0071347D01*
X0147025Y0070848D02*
X0141010Y0070848D01*
X0141509Y0070350D02*
X0147025Y0070350D01*
X0147025Y0069851D02*
X0142007Y0069851D01*
X0142506Y0069353D02*
X0147025Y0069353D01*
X0147025Y0068854D02*
X0143004Y0068854D01*
X0143503Y0068356D02*
X0147025Y0068356D01*
X0147025Y0067857D02*
X0144001Y0067857D01*
X0144500Y0067359D02*
X0147025Y0067359D01*
X0147025Y0066860D02*
X0144998Y0066860D01*
X0145497Y0066362D02*
X0147025Y0066362D01*
X0147025Y0065863D02*
X0145995Y0065863D01*
X0146494Y0065365D02*
X0147025Y0065365D01*
X0147025Y0064866D02*
X0146992Y0064866D01*
X0144184Y0062872D02*
X0135638Y0062872D01*
X0135883Y0062373D02*
X0144184Y0062373D01*
X0144184Y0061875D02*
X0135883Y0061875D01*
X0135883Y0061376D02*
X0144184Y0061376D01*
X0144184Y0060878D02*
X0135637Y0060878D01*
X0135139Y0060379D02*
X0144184Y0060379D01*
X0144019Y0059881D02*
X0133605Y0059881D01*
X0133107Y0059382D02*
X0144019Y0059382D01*
X0144019Y0058884D02*
X0125596Y0058884D01*
X0125098Y0058385D02*
X0144184Y0058385D01*
X0144184Y0057887D02*
X0124599Y0057887D01*
X0124101Y0057388D02*
X0144184Y0057388D01*
X0144184Y0056890D02*
X0123602Y0056890D01*
X0126095Y0059382D02*
X0129972Y0059382D01*
X0132597Y0063869D02*
X0143323Y0063869D01*
X0143821Y0063370D02*
X0135139Y0063370D01*
X0131878Y0064368D02*
X0142824Y0064368D01*
X0142326Y0064866D02*
X0131878Y0064866D01*
X0131727Y0065365D02*
X0141827Y0065365D01*
X0141328Y0065863D02*
X0131228Y0065863D01*
X0130090Y0066362D02*
X0140830Y0066362D01*
X0140331Y0066860D02*
X0130090Y0066860D01*
X0129733Y0067359D02*
X0139833Y0067359D01*
X0139334Y0067857D02*
X0129234Y0067857D01*
X0127316Y0067857D02*
X0126734Y0067857D01*
X0126236Y0068356D02*
X0138836Y0068356D01*
X0138337Y0068854D02*
X0125854Y0068854D01*
X0125854Y0069353D02*
X0137839Y0069353D01*
X0137340Y0069851D02*
X0125854Y0069851D01*
X0125492Y0070350D02*
X0136842Y0070350D01*
X0150925Y0070350D02*
X0211850Y0070350D01*
X0211850Y0070848D02*
X0150925Y0070848D01*
X0150925Y0071347D02*
X0211850Y0071347D01*
X0211850Y0071845D02*
X0150925Y0071845D01*
X0150925Y0072344D02*
X0211850Y0072344D01*
X0211850Y0072842D02*
X0150925Y0072842D01*
X0150925Y0073341D02*
X0211850Y0073341D01*
X0211850Y0073839D02*
X0150925Y0073839D01*
X0150925Y0074338D02*
X0211850Y0074338D01*
X0211850Y0074836D02*
X0150925Y0074836D01*
X0150925Y0075335D02*
X0211850Y0075335D01*
X0211850Y0075833D02*
X0150925Y0075833D01*
X0150925Y0076332D02*
X0211850Y0076332D01*
X0211850Y0076830D02*
X0150925Y0076830D01*
X0150925Y0077329D02*
X0211850Y0077329D01*
X0211850Y0077827D02*
X0150925Y0077827D01*
X0150925Y0078326D02*
X0211850Y0078326D01*
X0211850Y0078824D02*
X0150925Y0078824D01*
X0150925Y0079323D02*
X0211850Y0079323D01*
X0211850Y0079821D02*
X0150925Y0079821D01*
X0150925Y0080320D02*
X0211850Y0080320D01*
X0211850Y0080818D02*
X0150925Y0080818D01*
X0150925Y0081317D02*
X0211850Y0081317D01*
X0211850Y0081815D02*
X0151338Y0081815D01*
X0151837Y0082314D02*
X0211850Y0082314D01*
X0211850Y0069851D02*
X0150925Y0069851D01*
X0150925Y0069353D02*
X0211850Y0069353D01*
X0211850Y0068854D02*
X0150925Y0068854D01*
X0150925Y0068356D02*
X0211850Y0068356D01*
X0211850Y0067857D02*
X0150925Y0067857D01*
X0150925Y0067359D02*
X0211850Y0067359D01*
X0217800Y0066860D02*
X0150925Y0066860D01*
X0150925Y0066362D02*
X0217800Y0066362D01*
X0217800Y0065863D02*
X0150925Y0065863D01*
X0150925Y0065365D02*
X0217800Y0065365D01*
X0217800Y0064866D02*
X0150925Y0064866D01*
X0150925Y0064368D02*
X0217800Y0064368D01*
X0217800Y0063869D02*
X0150925Y0063869D01*
X0150925Y0063370D02*
X0217800Y0063370D01*
X0217800Y0062872D02*
X0150925Y0062872D01*
X0150925Y0062373D02*
X0217800Y0062373D01*
X0217800Y0061875D02*
X0150925Y0061875D01*
X0150925Y0061376D02*
X0217800Y0061376D01*
X0217800Y0060878D02*
X0150925Y0060878D01*
X0150925Y0060379D02*
X0217800Y0060379D01*
X0217800Y0059881D02*
X0150925Y0059881D01*
X0150925Y0059382D02*
X0217800Y0059382D01*
X0217800Y0058884D02*
X0150925Y0058884D01*
X0150925Y0058385D02*
X0217800Y0058385D01*
X0217800Y0057887D02*
X0150925Y0057887D01*
X0150925Y0057388D02*
X0190656Y0057388D01*
X0190746Y0057451D02*
X0188237Y0055719D01*
X0186821Y0053020D01*
X0186821Y0049972D01*
X0188237Y0047273D01*
X0188237Y0047273D01*
X0188237Y0047273D01*
X0190746Y0045541D01*
X0193772Y0045174D01*
X0196622Y0046255D01*
X0198643Y0048536D01*
X0198643Y0048536D01*
X0199373Y0051496D01*
X0198643Y0054456D01*
X0196622Y0056737D01*
X0193772Y0057818D01*
X0190746Y0057451D01*
X0190746Y0057451D01*
X0189933Y0056890D02*
X0150925Y0056890D01*
X0150925Y0056391D02*
X0189211Y0056391D01*
X0188489Y0055893D02*
X0150925Y0055893D01*
X0150925Y0055394D02*
X0188067Y0055394D01*
X0188237Y0055719D02*
X0188237Y0055719D01*
X0187805Y0054896D02*
X0150925Y0054896D01*
X0150925Y0054397D02*
X0187544Y0054397D01*
X0187282Y0053899D02*
X0150925Y0053899D01*
X0150925Y0053400D02*
X0170359Y0053400D01*
X0170648Y0053690D02*
X0169585Y0052627D01*
X0169585Y0052500D01*
X0167757Y0052500D01*
X0167025Y0051768D01*
X0167025Y0051768D01*
X0166874Y0051617D01*
X0166358Y0051617D01*
X0165295Y0050554D01*
X0165295Y0049050D01*
X0165766Y0048580D01*
X0165210Y0048025D01*
X0165210Y0046521D01*
X0165908Y0045824D01*
X0165210Y0045127D01*
X0165210Y0043623D01*
X0166273Y0042560D01*
X0167777Y0042560D01*
X0168341Y0043125D01*
X0168793Y0043125D01*
X0169525Y0043857D01*
X0171353Y0045685D01*
X0172152Y0045685D01*
X0173215Y0046748D01*
X0173215Y0048252D01*
X0172866Y0048600D01*
X0173018Y0048600D01*
X0173750Y0049332D01*
X0173853Y0049435D01*
X0174681Y0049435D01*
X0175744Y0050498D01*
X0175744Y0052002D01*
X0174681Y0053065D01*
X0173178Y0053065D01*
X0172977Y0052864D01*
X0172152Y0053690D01*
X0170648Y0053690D01*
X0169861Y0052902D02*
X0150925Y0052902D01*
X0150925Y0052403D02*
X0167660Y0052403D01*
X0167162Y0051905D02*
X0150925Y0051905D01*
X0150925Y0051406D02*
X0166148Y0051406D01*
X0165649Y0050908D02*
X0150925Y0050908D01*
X0150925Y0050409D02*
X0165295Y0050409D01*
X0165295Y0049911D02*
X0150925Y0049911D01*
X0150925Y0049412D02*
X0165295Y0049412D01*
X0165432Y0048914D02*
X0150925Y0048914D01*
X0150925Y0048415D02*
X0165601Y0048415D01*
X0165210Y0047917D02*
X0150925Y0047917D01*
X0150925Y0047418D02*
X0165210Y0047418D01*
X0165210Y0046920D02*
X0150925Y0046920D01*
X0150925Y0046421D02*
X0165311Y0046421D01*
X0165809Y0045923D02*
X0150925Y0045923D01*
X0150925Y0045424D02*
X0165508Y0045424D01*
X0165210Y0044926D02*
X0150925Y0044926D01*
X0150925Y0044427D02*
X0165210Y0044427D01*
X0165210Y0043929D02*
X0150925Y0043929D01*
X0150988Y0043430D02*
X0165404Y0043430D01*
X0165902Y0042932D02*
X0152195Y0042932D01*
X0152694Y0042433D02*
X0172690Y0042433D01*
X0172192Y0041934D02*
X0153192Y0041934D01*
X0153215Y0041436D02*
X0171693Y0041436D01*
X0171195Y0040937D02*
X0153215Y0040937D01*
X0153215Y0040439D02*
X0170696Y0040439D01*
X0170198Y0039940D02*
X0152746Y0039940D01*
X0152248Y0039442D02*
X0169699Y0039442D01*
X0169201Y0038943D02*
X0149165Y0038943D01*
X0149123Y0039442D02*
X0150552Y0039442D01*
X0150054Y0039940D02*
X0149621Y0039940D01*
X0149664Y0038445D02*
X0168702Y0038445D01*
X0170244Y0036451D02*
X0182650Y0036451D01*
X0182650Y0036949D02*
X0170742Y0036949D01*
X0171241Y0037448D02*
X0182650Y0037448D01*
X0182650Y0037946D02*
X0171739Y0037946D01*
X0172238Y0038445D02*
X0182650Y0038445D01*
X0182480Y0038943D02*
X0172736Y0038943D01*
X0173235Y0039442D02*
X0182085Y0039442D01*
X0182085Y0039940D02*
X0173733Y0039940D01*
X0174232Y0040439D02*
X0182085Y0040439D01*
X0182182Y0040937D02*
X0174730Y0040937D01*
X0175229Y0041436D02*
X0181946Y0041436D01*
X0181448Y0041934D02*
X0175727Y0041934D01*
X0176226Y0042433D02*
X0180151Y0042433D01*
X0180508Y0045424D02*
X0171092Y0045424D01*
X0170593Y0044926D02*
X0175183Y0044926D01*
X0174684Y0044427D02*
X0170095Y0044427D01*
X0169596Y0043929D02*
X0174186Y0043929D01*
X0173687Y0043430D02*
X0169098Y0043430D01*
X0168148Y0042932D02*
X0173189Y0042932D01*
X0172389Y0045923D02*
X0190194Y0045923D01*
X0190746Y0045541D02*
X0190746Y0045541D01*
X0191712Y0045424D02*
X0182292Y0045424D01*
X0182791Y0044926D02*
X0217800Y0044926D01*
X0217800Y0045424D02*
X0194432Y0045424D01*
X0193772Y0045174D02*
X0193772Y0045174D01*
X0195746Y0045923D02*
X0217800Y0045923D01*
X0217800Y0046421D02*
X0196769Y0046421D01*
X0196622Y0046255D02*
X0196622Y0046255D01*
X0196622Y0046255D01*
X0197211Y0046920D02*
X0217800Y0046920D01*
X0217800Y0047418D02*
X0197653Y0047418D01*
X0198094Y0047917D02*
X0217800Y0047917D01*
X0217800Y0048415D02*
X0198536Y0048415D01*
X0198736Y0048914D02*
X0217800Y0048914D01*
X0217800Y0049412D02*
X0198859Y0049412D01*
X0198982Y0049911D02*
X0217800Y0049911D01*
X0217800Y0050409D02*
X0199105Y0050409D01*
X0199228Y0050908D02*
X0217800Y0050908D01*
X0217800Y0051406D02*
X0199351Y0051406D01*
X0199373Y0051496D02*
X0199373Y0051496D01*
X0199272Y0051905D02*
X0217800Y0051905D01*
X0217800Y0052403D02*
X0199149Y0052403D01*
X0199026Y0052902D02*
X0217800Y0052902D01*
X0217800Y0053400D02*
X0198904Y0053400D01*
X0198781Y0053899D02*
X0217800Y0053899D01*
X0217800Y0054397D02*
X0198658Y0054397D01*
X0198643Y0054456D02*
X0198643Y0054456D01*
X0198254Y0054896D02*
X0217800Y0054896D01*
X0217800Y0055394D02*
X0197812Y0055394D01*
X0197370Y0055893D02*
X0217800Y0055893D01*
X0217800Y0056391D02*
X0196929Y0056391D01*
X0196622Y0056737D02*
X0196622Y0056737D01*
X0196220Y0056890D02*
X0217800Y0056890D01*
X0217800Y0057388D02*
X0194905Y0057388D01*
X0193772Y0057818D02*
X0193772Y0057818D01*
X0187020Y0053400D02*
X0172441Y0053400D01*
X0172939Y0052902D02*
X0173015Y0052902D01*
X0174844Y0052902D02*
X0186821Y0052902D01*
X0186821Y0052403D02*
X0175342Y0052403D01*
X0175744Y0051905D02*
X0186821Y0051905D01*
X0186821Y0051406D02*
X0175744Y0051406D01*
X0175744Y0050908D02*
X0186821Y0050908D01*
X0186821Y0050409D02*
X0175655Y0050409D01*
X0175156Y0049911D02*
X0186853Y0049911D01*
X0187115Y0049412D02*
X0173830Y0049412D01*
X0173331Y0048914D02*
X0187376Y0048914D01*
X0187638Y0048415D02*
X0173051Y0048415D01*
X0173215Y0047917D02*
X0187900Y0047917D01*
X0188161Y0047418D02*
X0173215Y0047418D01*
X0173215Y0046920D02*
X0188749Y0046920D01*
X0189471Y0046421D02*
X0172887Y0046421D01*
X0183215Y0044427D02*
X0217800Y0044427D01*
X0217800Y0043929D02*
X0183215Y0043929D01*
X0185988Y0043430D02*
X0217800Y0043430D01*
X0217800Y0042932D02*
X0186486Y0042932D01*
X0186985Y0042433D02*
X0217800Y0042433D01*
X0217800Y0041934D02*
X0187483Y0041934D01*
X0187982Y0041436D02*
X0217800Y0041436D01*
X0217800Y0040937D02*
X0188275Y0040937D01*
X0188275Y0040439D02*
X0191773Y0040439D01*
X0191274Y0039940D02*
X0188275Y0039940D01*
X0188275Y0039442D02*
X0190975Y0039442D01*
X0190975Y0038943D02*
X0188275Y0038943D01*
X0188275Y0038445D02*
X0190577Y0038445D01*
X0188745Y0037946D02*
X0188275Y0037946D01*
X0188275Y0034457D02*
X0188662Y0034457D01*
X0189809Y0033958D02*
X0192991Y0033958D01*
X0192079Y0033460D02*
X0190721Y0033460D01*
X0191219Y0032961D02*
X0191581Y0032961D01*
X0190388Y0034457D02*
X0217800Y0034457D01*
X0217800Y0034955D02*
X0190886Y0034955D01*
X0191340Y0035454D02*
X0217800Y0035454D01*
X0217800Y0035952D02*
X0191620Y0035952D01*
X0192119Y0036451D02*
X0217800Y0036451D01*
X0217800Y0036949D02*
X0192617Y0036949D01*
X0193914Y0037448D02*
X0217800Y0037448D01*
X0217800Y0037946D02*
X0194413Y0037946D01*
X0194604Y0038445D02*
X0217800Y0038445D01*
X0217800Y0038943D02*
X0194604Y0038943D01*
X0194604Y0039442D02*
X0217800Y0039442D01*
X0217800Y0039940D02*
X0194304Y0039940D01*
X0193806Y0040439D02*
X0217800Y0040439D01*
X0217800Y0033958D02*
X0204809Y0033958D01*
X0205721Y0033460D02*
X0217800Y0033460D01*
X0217800Y0032961D02*
X0206219Y0032961D01*
X0206482Y0032463D02*
X0217800Y0032463D01*
X0217800Y0031964D02*
X0206689Y0031964D01*
X0206750Y0031466D02*
X0217800Y0031466D01*
X0217800Y0030967D02*
X0206750Y0030967D01*
X0206661Y0030469D02*
X0217800Y0030469D01*
X0217800Y0029970D02*
X0206455Y0029970D01*
X0206152Y0029472D02*
X0217800Y0029472D01*
X0217800Y0028973D02*
X0205674Y0028973D01*
X0206271Y0028475D02*
X0217800Y0028475D01*
X0217800Y0027976D02*
X0206655Y0027976D01*
X0206909Y0027478D02*
X0217800Y0027478D01*
X0217800Y0026979D02*
X0207069Y0026979D01*
X0207150Y0026000D02*
X0204150Y0026000D01*
X0204150Y0023000D01*
X0204220Y0023000D01*
X0204848Y0023125D01*
X0205439Y0023370D01*
X0205972Y0023726D01*
X0206424Y0024178D01*
X0206780Y0024711D01*
X0207025Y0025302D01*
X0207150Y0025930D01*
X0207150Y0026000D01*
X0207150Y0025982D02*
X0217800Y0025982D01*
X0217800Y0025484D02*
X0207061Y0025484D01*
X0206894Y0024985D02*
X0217800Y0024985D01*
X0217800Y0024487D02*
X0206630Y0024487D01*
X0206234Y0023988D02*
X0217800Y0023988D01*
X0217800Y0023490D02*
X0205619Y0023490D01*
X0204150Y0023490D02*
X0203650Y0023490D01*
X0203650Y0023988D02*
X0204150Y0023988D01*
X0204150Y0024487D02*
X0203650Y0024487D01*
X0203650Y0024985D02*
X0204150Y0024985D01*
X0204150Y0025484D02*
X0203650Y0025484D01*
X0203650Y0025982D02*
X0204150Y0025982D01*
X0204150Y0026481D02*
X0217800Y0026481D01*
X0217800Y0022991D02*
X0178275Y0022991D01*
X0178275Y0022493D02*
X0217800Y0022493D01*
X0217800Y0021994D02*
X0178136Y0021994D01*
X0177638Y0021496D02*
X0217800Y0021496D01*
X0202181Y0023490D02*
X0199683Y0023490D01*
X0200669Y0023988D02*
X0201566Y0023988D01*
X0201170Y0024487D02*
X0201167Y0024487D01*
X0198117Y0023490D02*
X0195619Y0023490D01*
X0196234Y0023988D02*
X0197131Y0023988D01*
X0196633Y0024487D02*
X0196630Y0024487D01*
X0194150Y0024487D02*
X0193650Y0024487D01*
X0193650Y0024985D02*
X0194150Y0024985D01*
X0194150Y0025484D02*
X0193650Y0025484D01*
X0193650Y0025982D02*
X0194150Y0025982D01*
X0193650Y0026481D02*
X0189150Y0026481D01*
X0189150Y0025982D02*
X0188650Y0025982D01*
X0188650Y0025484D02*
X0189150Y0025484D01*
X0189150Y0024985D02*
X0188650Y0024985D01*
X0188650Y0024487D02*
X0189150Y0024487D01*
X0189150Y0023988D02*
X0188650Y0023988D01*
X0188650Y0023490D02*
X0189150Y0023490D01*
X0190619Y0023490D02*
X0192181Y0023490D01*
X0191566Y0023988D02*
X0191234Y0023988D01*
X0193650Y0023988D02*
X0194150Y0023988D01*
X0194150Y0023490D02*
X0193650Y0023490D01*
X0187181Y0023490D02*
X0184683Y0023490D01*
X0185669Y0023988D02*
X0186566Y0023988D01*
X0186170Y0024487D02*
X0186167Y0024487D01*
X0183117Y0023490D02*
X0178275Y0023490D01*
X0178275Y0023988D02*
X0182131Y0023988D01*
X0181633Y0024487D02*
X0178453Y0024487D01*
X0178840Y0024985D02*
X0181339Y0024985D01*
X0181133Y0025484D02*
X0178840Y0025484D01*
X0178840Y0025982D02*
X0181050Y0025982D01*
X0181050Y0026481D02*
X0178736Y0026481D01*
X0178237Y0026979D02*
X0180837Y0026979D01*
X0180339Y0027478D02*
X0152035Y0027478D01*
X0152088Y0027315D02*
X0151867Y0027997D01*
X0151541Y0028635D01*
X0151121Y0029214D01*
X0150614Y0029721D01*
X0150035Y0030141D01*
X0149397Y0030467D01*
X0148715Y0030688D01*
X0148008Y0030800D01*
X0147900Y0030800D01*
X0147900Y0026500D01*
X0147400Y0026500D01*
X0147400Y0030800D01*
X0147292Y0030800D01*
X0146585Y0030688D01*
X0145903Y0030467D01*
X0145265Y0030141D01*
X0144686Y0029721D01*
X0144179Y0029214D01*
X0143758Y0028635D01*
X0143433Y0027997D01*
X0143212Y0027315D01*
X0143100Y0026608D01*
X0143100Y0026500D01*
X0147400Y0026500D01*
X0147400Y0026000D01*
X0143100Y0026000D01*
X0143100Y0025892D01*
X0143212Y0025185D01*
X0143433Y0024503D01*
X0143758Y0023865D01*
X0144179Y0023286D01*
X0144686Y0022779D01*
X0145265Y0022358D01*
X0145903Y0022033D01*
X0146585Y0021812D01*
X0147292Y0021700D01*
X0147400Y0021700D01*
X0147400Y0026000D01*
X0147900Y0026000D01*
X0147900Y0026500D01*
X0152200Y0026500D01*
X0152200Y0026608D01*
X0152088Y0027315D01*
X0152141Y0026979D02*
X0175813Y0026979D01*
X0175314Y0026481D02*
X0147900Y0026481D01*
X0147900Y0026000D02*
X0152200Y0026000D01*
X0152200Y0025892D01*
X0152088Y0025185D01*
X0151867Y0024503D01*
X0151541Y0023865D01*
X0151121Y0023286D01*
X0150614Y0022779D01*
X0150035Y0022358D01*
X0149397Y0022033D01*
X0148715Y0021812D01*
X0148008Y0021700D01*
X0147900Y0021700D01*
X0147900Y0026000D01*
X0147900Y0025982D02*
X0147400Y0025982D01*
X0147400Y0025484D02*
X0147900Y0025484D01*
X0147900Y0024985D02*
X0147400Y0024985D01*
X0147400Y0024487D02*
X0147900Y0024487D01*
X0147900Y0023988D02*
X0147400Y0023988D01*
X0147400Y0023490D02*
X0147900Y0023490D01*
X0147900Y0022991D02*
X0147400Y0022991D01*
X0147400Y0022493D02*
X0147900Y0022493D01*
X0147900Y0021994D02*
X0147400Y0021994D01*
X0146024Y0021994D02*
X0097493Y0021994D01*
X0097991Y0022493D02*
X0102127Y0022493D01*
X0101290Y0022991D02*
X0098490Y0022991D01*
X0098988Y0023490D02*
X0100791Y0023490D01*
X0100345Y0023988D02*
X0099450Y0023988D01*
X0099450Y0024487D02*
X0100138Y0024487D01*
X0099932Y0024985D02*
X0099450Y0024985D01*
X0099450Y0025484D02*
X0099750Y0025484D01*
X0096994Y0021496D02*
X0161460Y0021496D01*
X0161460Y0021994D02*
X0149276Y0021994D01*
X0150219Y0022493D02*
X0161460Y0022493D01*
X0161735Y0022991D02*
X0150826Y0022991D01*
X0151269Y0023490D02*
X0162233Y0023490D01*
X0164317Y0023490D02*
X0175775Y0023490D01*
X0175775Y0023988D02*
X0151604Y0023988D01*
X0151858Y0024487D02*
X0175597Y0024487D01*
X0175210Y0024985D02*
X0152023Y0024985D01*
X0152135Y0025484D02*
X0175210Y0025484D01*
X0175210Y0025982D02*
X0152200Y0025982D01*
X0151873Y0027976D02*
X0179840Y0027976D01*
X0179342Y0028475D02*
X0151623Y0028475D01*
X0151296Y0028973D02*
X0178843Y0028973D01*
X0178345Y0029472D02*
X0150863Y0029472D01*
X0150270Y0029970D02*
X0153471Y0029970D01*
X0152973Y0030469D02*
X0149390Y0030469D01*
X0147900Y0030469D02*
X0147400Y0030469D01*
X0147400Y0029970D02*
X0147900Y0029970D01*
X0147900Y0029472D02*
X0147400Y0029472D01*
X0147400Y0028973D02*
X0147900Y0028973D01*
X0147900Y0028475D02*
X0147400Y0028475D01*
X0147400Y0027976D02*
X0147900Y0027976D01*
X0147900Y0027478D02*
X0147400Y0027478D01*
X0147400Y0026979D02*
X0147900Y0026979D01*
X0147400Y0026481D02*
X0141800Y0026481D01*
X0141800Y0026979D02*
X0143159Y0026979D01*
X0143265Y0027478D02*
X0141633Y0027478D01*
X0141427Y0027976D02*
X0143427Y0027976D01*
X0143677Y0028475D02*
X0141220Y0028475D01*
X0140796Y0028973D02*
X0144004Y0028973D01*
X0144437Y0029472D02*
X0140297Y0029472D01*
X0139513Y0029970D02*
X0145030Y0029970D01*
X0145910Y0030469D02*
X0138900Y0030469D01*
X0138451Y0030967D02*
X0152474Y0030967D01*
X0151976Y0031466D02*
X0137952Y0031466D01*
X0137453Y0031964D02*
X0151477Y0031964D01*
X0150979Y0032463D02*
X0136955Y0032463D01*
X0136875Y0032543D02*
X0136875Y0032543D01*
X0136456Y0032961D02*
X0150480Y0032961D01*
X0149982Y0033460D02*
X0104675Y0033460D01*
X0104675Y0033958D02*
X0149483Y0033958D01*
X0148985Y0034457D02*
X0104675Y0034457D01*
X0104675Y0034955D02*
X0148486Y0034955D01*
X0147988Y0035454D02*
X0104675Y0035454D01*
X0104675Y0035952D02*
X0106631Y0035952D01*
X0106133Y0036451D02*
X0104675Y0036451D01*
X0104675Y0036949D02*
X0105835Y0036949D01*
X0105835Y0037448D02*
X0104675Y0037448D01*
X0104675Y0037946D02*
X0105436Y0037946D01*
X0104937Y0038445D02*
X0104604Y0038445D01*
X0106479Y0040439D02*
X0144184Y0040439D01*
X0144184Y0040937D02*
X0105980Y0040937D01*
X0105482Y0041436D02*
X0144184Y0041436D01*
X0144184Y0041934D02*
X0104983Y0041934D01*
X0104485Y0042433D02*
X0144184Y0042433D01*
X0144184Y0042932D02*
X0101064Y0042932D01*
X0100663Y0043430D02*
X0121625Y0043430D01*
X0121869Y0043185D02*
X0123372Y0043185D01*
X0124078Y0043891D01*
X0124398Y0043571D01*
X0125902Y0043571D01*
X0126965Y0044634D01*
X0126965Y0046137D01*
X0125902Y0047200D01*
X0125103Y0047200D01*
X0122436Y0049867D01*
X0122532Y0049963D01*
X0122532Y0051466D01*
X0121469Y0052529D01*
X0119966Y0052529D01*
X0119453Y0052016D01*
X0118940Y0052529D01*
X0117437Y0052529D01*
X0116374Y0051466D01*
X0116374Y0049963D01*
X0117025Y0049312D01*
X0117025Y0048828D01*
X0117757Y0048096D01*
X0120806Y0045047D01*
X0120806Y0044248D01*
X0121869Y0043185D01*
X0121126Y0043929D02*
X0101161Y0043929D01*
X0101660Y0044427D02*
X0120806Y0044427D01*
X0120806Y0044926D02*
X0102158Y0044926D01*
X0102657Y0045424D02*
X0120429Y0045424D01*
X0119930Y0045923D02*
X0103155Y0045923D01*
X0103654Y0046421D02*
X0119432Y0046421D01*
X0118933Y0046920D02*
X0104152Y0046920D01*
X0104651Y0047418D02*
X0118435Y0047418D01*
X0117936Y0047917D02*
X0105149Y0047917D01*
X0105648Y0048415D02*
X0117438Y0048415D01*
X0117025Y0048914D02*
X0106146Y0048914D01*
X0106645Y0049412D02*
X0116924Y0049412D01*
X0116426Y0049911D02*
X0107143Y0049911D01*
X0107642Y0050409D02*
X0116374Y0050409D01*
X0116374Y0050908D02*
X0108140Y0050908D01*
X0108639Y0051406D02*
X0116374Y0051406D01*
X0116812Y0051905D02*
X0109137Y0051905D01*
X0109636Y0052403D02*
X0117311Y0052403D01*
X0119066Y0052403D02*
X0119840Y0052403D01*
X0121595Y0052403D02*
X0144184Y0052403D01*
X0144184Y0051905D02*
X0122093Y0051905D01*
X0122532Y0051406D02*
X0144184Y0051406D01*
X0144184Y0050908D02*
X0122532Y0050908D01*
X0122532Y0050409D02*
X0144184Y0050409D01*
X0144184Y0049911D02*
X0122480Y0049911D01*
X0122891Y0049412D02*
X0144184Y0049412D01*
X0144184Y0048914D02*
X0123390Y0048914D01*
X0123888Y0048415D02*
X0144184Y0048415D01*
X0144184Y0047917D02*
X0124387Y0047917D01*
X0124885Y0047418D02*
X0144184Y0047418D01*
X0144184Y0046920D02*
X0126182Y0046920D01*
X0126680Y0046421D02*
X0144184Y0046421D01*
X0144184Y0045923D02*
X0126965Y0045923D01*
X0126965Y0045424D02*
X0144184Y0045424D01*
X0144184Y0044926D02*
X0126965Y0044926D01*
X0126758Y0044427D02*
X0144184Y0044427D01*
X0144184Y0043929D02*
X0126259Y0043929D01*
X0123617Y0043430D02*
X0144184Y0043430D01*
X0143924Y0039940D02*
X0106977Y0039940D01*
X0107476Y0039442D02*
X0143426Y0039442D01*
X0142927Y0038943D02*
X0123796Y0038943D01*
X0121551Y0038943D02*
X0108773Y0038943D01*
X0108669Y0035952D02*
X0121655Y0035952D01*
X0123692Y0035952D02*
X0147489Y0035952D01*
X0146991Y0036451D02*
X0144253Y0036451D01*
X0144752Y0036949D02*
X0146492Y0036949D01*
X0145994Y0037448D02*
X0145250Y0037448D01*
X0150162Y0037946D02*
X0161764Y0037946D01*
X0161266Y0037448D02*
X0150661Y0037448D01*
X0151159Y0036949D02*
X0160982Y0036949D01*
X0160982Y0036451D02*
X0151658Y0036451D01*
X0152156Y0035952D02*
X0160982Y0035952D01*
X0161189Y0035454D02*
X0152655Y0035454D01*
X0153153Y0034955D02*
X0161688Y0034955D01*
X0163906Y0034955D02*
X0182650Y0034955D01*
X0182650Y0034457D02*
X0153652Y0034457D01*
X0154150Y0033958D02*
X0182650Y0033958D01*
X0182079Y0033460D02*
X0154649Y0033460D01*
X0164404Y0035454D02*
X0182650Y0035454D01*
X0182650Y0035952D02*
X0169745Y0035952D01*
X0179522Y0032961D02*
X0181581Y0032961D01*
X0181318Y0032463D02*
X0180021Y0032463D01*
X0180519Y0031964D02*
X0181111Y0031964D01*
X0181050Y0031466D02*
X0181018Y0031466D01*
X0175598Y0022991D02*
X0164815Y0022991D01*
X0145081Y0022493D02*
X0139423Y0022493D01*
X0140260Y0022991D02*
X0144474Y0022991D01*
X0144031Y0023490D02*
X0140759Y0023490D01*
X0141205Y0023988D02*
X0143696Y0023988D01*
X0143442Y0024487D02*
X0141411Y0024487D01*
X0141618Y0024985D02*
X0143277Y0024985D01*
X0143165Y0025484D02*
X0141800Y0025484D01*
X0141800Y0025982D02*
X0143100Y0025982D01*
X0135877Y0022493D02*
X0129423Y0022493D01*
X0130260Y0022991D02*
X0135040Y0022991D01*
X0134541Y0023490D02*
X0130759Y0023490D01*
X0131205Y0023988D02*
X0134095Y0023988D01*
X0133888Y0024487D02*
X0131411Y0024487D01*
X0131618Y0024985D02*
X0133682Y0024985D01*
X0133500Y0025484D02*
X0131800Y0025484D01*
X0131800Y0025982D02*
X0133500Y0025982D01*
X0133500Y0026481D02*
X0131800Y0026481D01*
X0131800Y0026979D02*
X0133500Y0026979D01*
X0133667Y0027478D02*
X0131633Y0027478D01*
X0131427Y0027976D02*
X0133873Y0027976D01*
X0134080Y0028475D02*
X0131220Y0028475D01*
X0130796Y0028973D02*
X0134504Y0028973D01*
X0135003Y0029472D02*
X0130297Y0029472D01*
X0129513Y0029970D02*
X0135787Y0029970D01*
X0135413Y0030469D02*
X0127074Y0030469D01*
X0124504Y0028973D02*
X0120796Y0028973D01*
X0121220Y0028475D02*
X0124080Y0028475D01*
X0123873Y0027976D02*
X0121427Y0027976D01*
X0121633Y0027478D02*
X0123667Y0027478D01*
X0123500Y0026979D02*
X0121800Y0026979D01*
X0121800Y0026481D02*
X0123500Y0026481D01*
X0123500Y0025982D02*
X0121800Y0025982D01*
X0121800Y0025484D02*
X0123500Y0025484D01*
X0123682Y0024985D02*
X0121618Y0024985D01*
X0121411Y0024487D02*
X0123888Y0024487D01*
X0124095Y0023988D02*
X0121205Y0023988D01*
X0120759Y0023490D02*
X0124541Y0023490D01*
X0125040Y0022991D02*
X0120260Y0022991D01*
X0119423Y0022493D02*
X0125877Y0022493D01*
X0115877Y0022493D02*
X0105673Y0022493D01*
X0106510Y0022991D02*
X0115040Y0022991D01*
X0114541Y0023490D02*
X0107009Y0023490D01*
X0107455Y0023988D02*
X0114095Y0023988D01*
X0113888Y0024487D02*
X0107661Y0024487D01*
X0107868Y0024985D02*
X0113682Y0024985D01*
X0113500Y0025484D02*
X0108050Y0025484D01*
X0108050Y0025982D02*
X0113500Y0025982D01*
X0113500Y0026481D02*
X0108050Y0026481D01*
X0108050Y0026979D02*
X0113500Y0026979D01*
X0113667Y0027478D02*
X0107883Y0027478D01*
X0107677Y0027976D02*
X0113873Y0027976D01*
X0114080Y0028475D02*
X0107470Y0028475D01*
X0107046Y0028973D02*
X0114504Y0028973D01*
X0092650Y0033460D02*
X0091512Y0033460D01*
X0092011Y0033958D02*
X0092650Y0033958D01*
X0092650Y0034457D02*
X0092509Y0034457D01*
X0087942Y0033460D02*
X0067426Y0033460D01*
X0067924Y0033958D02*
X0087444Y0033958D01*
X0086945Y0034457D02*
X0068215Y0034457D01*
X0068215Y0034955D02*
X0086513Y0034955D01*
X0086513Y0035454D02*
X0068406Y0035454D01*
X0068850Y0035952D02*
X0086422Y0035952D01*
X0085923Y0036451D02*
X0068850Y0036451D01*
X0068850Y0036949D02*
X0085535Y0036949D01*
X0085535Y0037448D02*
X0068850Y0037448D01*
X0069864Y0037946D02*
X0085226Y0037946D01*
X0088733Y0041934D02*
X0089585Y0041934D01*
X0089585Y0041436D02*
X0089232Y0041436D01*
X0089988Y0042433D02*
X0088235Y0042433D01*
X0087736Y0042932D02*
X0090486Y0042932D01*
X0092314Y0042932D02*
X0092650Y0042932D01*
X0092650Y0043430D02*
X0087238Y0043430D01*
X0085763Y0029970D02*
X0092037Y0029970D01*
X0091253Y0029472D02*
X0086547Y0029472D01*
X0087046Y0028973D02*
X0090754Y0028973D01*
X0090330Y0028475D02*
X0087470Y0028475D01*
X0087677Y0027976D02*
X0090123Y0027976D01*
X0089917Y0027478D02*
X0088359Y0027478D01*
X0088857Y0026979D02*
X0089750Y0026979D01*
X0089750Y0026481D02*
X0089356Y0026481D01*
X0087814Y0024487D02*
X0087661Y0024487D01*
X0087455Y0023988D02*
X0088313Y0023988D01*
X0088812Y0023490D02*
X0087009Y0023490D01*
X0086510Y0022991D02*
X0089310Y0022991D01*
X0089809Y0022493D02*
X0085673Y0022493D01*
X0082127Y0022493D02*
X0075673Y0022493D01*
X0076251Y0022732D02*
X0077418Y0023899D01*
X0078050Y0025425D01*
X0078050Y0027075D01*
X0077418Y0028601D01*
X0076251Y0029768D01*
X0074725Y0030400D01*
X0073075Y0030400D01*
X0071549Y0029768D01*
X0070382Y0028601D01*
X0069750Y0027075D01*
X0069750Y0025425D01*
X0070382Y0023899D01*
X0071549Y0022732D01*
X0073075Y0022100D01*
X0074725Y0022100D01*
X0076251Y0022732D01*
X0076510Y0022991D02*
X0081290Y0022991D01*
X0080791Y0023490D02*
X0077009Y0023490D01*
X0077455Y0023988D02*
X0080345Y0023988D01*
X0080138Y0024487D02*
X0077661Y0024487D01*
X0077868Y0024985D02*
X0079932Y0024985D01*
X0079750Y0025484D02*
X0078050Y0025484D01*
X0078050Y0025982D02*
X0079750Y0025982D01*
X0079750Y0026481D02*
X0078050Y0026481D01*
X0078050Y0026979D02*
X0079750Y0026979D01*
X0079917Y0027478D02*
X0077883Y0027478D01*
X0077677Y0027976D02*
X0080123Y0027976D01*
X0080330Y0028475D02*
X0077470Y0028475D01*
X0077046Y0028973D02*
X0080754Y0028973D01*
X0081253Y0029472D02*
X0076547Y0029472D01*
X0075763Y0029970D02*
X0082037Y0029970D01*
X0072037Y0029970D02*
X0065763Y0029970D01*
X0066547Y0029472D02*
X0071253Y0029472D01*
X0070754Y0028973D02*
X0067046Y0028973D01*
X0067470Y0028475D02*
X0070330Y0028475D01*
X0070123Y0027976D02*
X0067677Y0027976D01*
X0067883Y0027478D02*
X0069917Y0027478D01*
X0069750Y0026979D02*
X0068050Y0026979D01*
X0068050Y0026481D02*
X0069750Y0026481D01*
X0069750Y0025982D02*
X0068050Y0025982D01*
X0068050Y0025484D02*
X0069750Y0025484D01*
X0069932Y0024985D02*
X0067868Y0024985D01*
X0067661Y0024487D02*
X0070138Y0024487D01*
X0070345Y0023988D02*
X0067455Y0023988D01*
X0067009Y0023490D02*
X0070791Y0023490D01*
X0071290Y0022991D02*
X0066510Y0022991D01*
X0065673Y0022493D02*
X0072127Y0022493D01*
X0110134Y0052902D02*
X0144184Y0052902D01*
X0144184Y0053400D02*
X0110633Y0053400D01*
X0111131Y0053899D02*
X0144184Y0053899D01*
X0144184Y0054397D02*
X0111630Y0054397D01*
X0112128Y0054896D02*
X0144184Y0054896D01*
X0144184Y0055394D02*
X0112627Y0055394D01*
X0113125Y0055893D02*
X0144184Y0055893D01*
X0144184Y0056391D02*
X0113624Y0056391D01*
X0088251Y0076332D02*
X0028900Y0076332D01*
X0028900Y0076830D02*
X0088749Y0076830D01*
X0089248Y0077329D02*
X0028900Y0077329D01*
X0028900Y0077827D02*
X0089746Y0077827D01*
X0090245Y0078326D02*
X0028900Y0078326D01*
X0028900Y0078824D02*
X0090743Y0078824D01*
X0092040Y0079323D02*
X0028900Y0079323D01*
X0028900Y0079821D02*
X0092539Y0079821D01*
X0092538Y0080320D02*
X0028900Y0080320D01*
X0028900Y0080818D02*
X0092039Y0080818D01*
X0091541Y0081317D02*
X0043967Y0081317D01*
X0044465Y0081815D02*
X0091042Y0081815D01*
X0090544Y0082314D02*
X0044964Y0082314D01*
X0045462Y0082812D02*
X0090045Y0082812D01*
X0089547Y0083311D02*
X0045961Y0083311D01*
X0046400Y0083809D02*
X0089048Y0083809D01*
X0088550Y0084308D02*
X0046400Y0084308D01*
X0046400Y0084806D02*
X0088051Y0084806D01*
X0087553Y0085305D02*
X0046400Y0085305D01*
X0046400Y0085803D02*
X0087525Y0085803D01*
X0087525Y0086302D02*
X0046400Y0086302D01*
X0046400Y0086801D02*
X0087525Y0086801D01*
X0087525Y0087299D02*
X0046400Y0087299D01*
X0046400Y0087798D02*
X0087525Y0087798D01*
X0087525Y0088296D02*
X0046400Y0088296D01*
X0046400Y0088795D02*
X0087525Y0088795D01*
X0087089Y0089293D02*
X0086731Y0089293D01*
X0084541Y0089293D02*
X0046400Y0089293D01*
X0046400Y0089792D02*
X0084042Y0089792D01*
X0083821Y0090290D02*
X0046400Y0090290D01*
X0046400Y0090789D02*
X0083821Y0090789D01*
X0083821Y0091287D02*
X0046400Y0091287D01*
X0046400Y0091786D02*
X0084091Y0091786D01*
X0084590Y0092284D02*
X0046400Y0092284D01*
X0046400Y0092783D02*
X0088925Y0092783D01*
X0088925Y0093281D02*
X0087997Y0093281D01*
X0088496Y0093780D02*
X0088925Y0093780D01*
X0088925Y0092284D02*
X0086682Y0092284D01*
X0086303Y0093281D02*
X0055997Y0093281D01*
X0054303Y0093281D02*
X0046400Y0093281D01*
X0046400Y0093780D02*
X0053804Y0093780D01*
X0053335Y0094278D02*
X0046400Y0094278D01*
X0046400Y0094777D02*
X0053335Y0094777D01*
X0053335Y0095275D02*
X0046400Y0095275D01*
X0046400Y0095774D02*
X0053358Y0095774D01*
X0053856Y0096272D02*
X0046400Y0096272D01*
X0046400Y0096771D02*
X0054355Y0096771D01*
X0055945Y0096771D02*
X0086355Y0096771D01*
X0085856Y0096272D02*
X0056444Y0096272D01*
X0046400Y0097269D02*
X0088925Y0097269D01*
X0088925Y0096771D02*
X0087945Y0096771D01*
X0088444Y0096272D02*
X0088925Y0096272D01*
X0088925Y0097768D02*
X0046400Y0097768D01*
X0046400Y0098266D02*
X0088925Y0098266D01*
X0088925Y0091786D02*
X0088132Y0091786D01*
X0088631Y0091287D02*
X0088925Y0091287D01*
X0095775Y0096506D02*
X0095775Y0098750D01*
X0107274Y0098750D01*
X0107420Y0098604D01*
X0113960Y0098604D01*
X0113960Y0097138D01*
X0114659Y0096440D01*
X0098341Y0096440D01*
X0097777Y0097004D01*
X0096273Y0097004D01*
X0095775Y0096506D01*
X0095775Y0096771D02*
X0096040Y0096771D01*
X0095775Y0097269D02*
X0113960Y0097269D01*
X0113960Y0097768D02*
X0095775Y0097768D01*
X0095775Y0098266D02*
X0113960Y0098266D01*
X0114328Y0096771D02*
X0098010Y0096771D01*
X0087752Y0075833D02*
X0028900Y0075833D01*
X0028900Y0075335D02*
X0087260Y0075335D01*
X0087260Y0074836D02*
X0028900Y0074836D01*
X0028900Y0074338D02*
X0087260Y0074338D01*
X0087260Y0073839D02*
X0028900Y0073839D01*
X0028900Y0073341D02*
X0087260Y0073341D01*
X0087260Y0072842D02*
X0028900Y0072842D01*
X0028900Y0072344D02*
X0087260Y0072344D01*
X0082759Y0071845D02*
X0028900Y0071845D01*
X0028900Y0071347D02*
X0082261Y0071347D01*
X0081762Y0070848D02*
X0028900Y0070848D01*
X0028900Y0070350D02*
X0076994Y0070350D01*
X0076495Y0069851D02*
X0028900Y0069851D01*
X0028900Y0069353D02*
X0075997Y0069353D01*
X0075498Y0068854D02*
X0028900Y0068854D01*
X0028900Y0068356D02*
X0075000Y0068356D01*
X0074501Y0067857D02*
X0028900Y0067857D01*
X0028900Y0067359D02*
X0074003Y0067359D01*
X0073504Y0066860D02*
X0028900Y0066860D01*
X0028900Y0066362D02*
X0073006Y0066362D01*
X0072885Y0065863D02*
X0028900Y0065863D01*
X0028900Y0065365D02*
X0072885Y0065365D01*
X0072885Y0064866D02*
X0028900Y0064866D01*
X0028900Y0064368D02*
X0072885Y0064368D01*
X0072885Y0063869D02*
X0028900Y0063869D01*
X0028900Y0063370D02*
X0072885Y0063370D01*
X0072885Y0062872D02*
X0028900Y0062872D01*
X0028900Y0062373D02*
X0072885Y0062373D01*
X0072885Y0061875D02*
X0028900Y0061875D01*
X0028900Y0061376D02*
X0072885Y0061376D01*
X0072885Y0060878D02*
X0028900Y0060878D01*
X0028900Y0060379D02*
X0072885Y0060379D01*
X0072885Y0059881D02*
X0028900Y0059881D01*
X0028900Y0059382D02*
X0072885Y0059382D01*
X0072885Y0058884D02*
X0028900Y0058884D01*
X0028900Y0058385D02*
X0072885Y0058385D01*
X0072885Y0057887D02*
X0028900Y0057887D01*
X0028900Y0057388D02*
X0072885Y0057388D01*
X0072885Y0056890D02*
X0028900Y0056890D01*
X0028900Y0056391D02*
X0072885Y0056391D01*
X0072885Y0055893D02*
X0028900Y0055893D01*
X0028900Y0055394D02*
X0072885Y0055394D01*
X0072885Y0054896D02*
X0028900Y0054896D01*
X0028900Y0054397D02*
X0072885Y0054397D01*
X0072885Y0053899D02*
X0028900Y0053899D01*
X0152335Y0082812D02*
X0242935Y0082812D01*
X0242935Y0083311D02*
X0152834Y0083311D01*
X0153332Y0083809D02*
X0242935Y0083809D01*
X0242935Y0084308D02*
X0170774Y0084308D01*
X0171273Y0084806D02*
X0178968Y0084806D01*
X0178470Y0085305D02*
X0171340Y0085305D01*
X0171340Y0085803D02*
X0178335Y0085803D01*
X0178335Y0086302D02*
X0171340Y0086302D01*
X0170916Y0086801D02*
X0178335Y0086801D01*
X0178500Y0087299D02*
X0170417Y0087299D01*
X0168633Y0087299D02*
X0168215Y0087299D01*
X0168215Y0087798D02*
X0178500Y0087798D01*
X0178500Y0088296D02*
X0168170Y0088296D01*
X0167672Y0088795D02*
X0178500Y0088795D01*
X0178500Y0089293D02*
X0167173Y0089293D01*
X0167754Y0084308D02*
X0168276Y0084308D01*
X0165046Y0084308D02*
X0153831Y0084308D01*
X0181332Y0084806D02*
X0242935Y0084806D01*
X0242935Y0085305D02*
X0181830Y0085305D01*
X0181965Y0085803D02*
X0242935Y0085803D01*
X0242935Y0086302D02*
X0181965Y0086302D01*
X0181965Y0086801D02*
X0242935Y0086801D01*
X0242935Y0087299D02*
X0181800Y0087299D01*
X0181800Y0087798D02*
X0242935Y0087798D01*
X0242935Y0088296D02*
X0181800Y0088296D01*
X0181800Y0088795D02*
X0242935Y0088795D01*
X0242935Y0089293D02*
X0181800Y0089293D01*
X0181800Y0089792D02*
X0242935Y0089792D01*
X0242935Y0090290D02*
X0181800Y0090290D01*
X0181800Y0090789D02*
X0242935Y0090789D01*
X0242935Y0091287D02*
X0181800Y0091287D01*
X0181800Y0091786D02*
X0242935Y0091786D01*
X0242935Y0092284D02*
X0241279Y0092284D01*
X0241282Y0092285D02*
X0241568Y0092450D01*
X0241800Y0092682D01*
X0241965Y0092968D01*
X0242050Y0093285D01*
X0242050Y0095500D01*
X0237900Y0095500D01*
X0237900Y0092200D01*
X0240965Y0092200D01*
X0241282Y0092285D01*
X0241858Y0092783D02*
X0242935Y0092783D01*
X0242935Y0093281D02*
X0242049Y0093281D01*
X0242050Y0093780D02*
X0242935Y0093780D01*
X0242935Y0094278D02*
X0242050Y0094278D01*
X0242050Y0094777D02*
X0242935Y0094777D01*
X0242935Y0095275D02*
X0242050Y0095275D01*
X0242050Y0096272D02*
X0242935Y0096272D01*
X0242935Y0095774D02*
X0237900Y0095774D01*
X0237900Y0095275D02*
X0237400Y0095275D01*
X0237400Y0095500D02*
X0237400Y0092200D01*
X0234335Y0092200D01*
X0234018Y0092285D01*
X0233732Y0092450D01*
X0233500Y0092682D01*
X0233335Y0092968D01*
X0233250Y0093285D01*
X0233250Y0095500D01*
X0237400Y0095500D01*
X0237400Y0095774D02*
X0181800Y0095774D01*
X0181800Y0095275D02*
X0233250Y0095275D01*
X0233250Y0094777D02*
X0181800Y0094777D01*
X0181800Y0094278D02*
X0233250Y0094278D01*
X0233250Y0093780D02*
X0181800Y0093780D01*
X0181800Y0093281D02*
X0233251Y0093281D01*
X0233442Y0092783D02*
X0181800Y0092783D01*
X0181800Y0092284D02*
X0234021Y0092284D01*
X0237400Y0092284D02*
X0237900Y0092284D01*
X0237900Y0092783D02*
X0237400Y0092783D01*
X0237400Y0093281D02*
X0237900Y0093281D01*
X0237900Y0093780D02*
X0237400Y0093780D01*
X0237400Y0094278D02*
X0237900Y0094278D01*
X0237900Y0094777D02*
X0237400Y0094777D01*
X0233250Y0096272D02*
X0181965Y0096272D01*
X0181965Y0096771D02*
X0233250Y0096771D01*
X0233250Y0097269D02*
X0181965Y0097269D01*
X0181823Y0097768D02*
X0233250Y0097768D01*
X0233264Y0098266D02*
X0181325Y0098266D01*
X0242036Y0098266D02*
X0242935Y0098266D01*
X0242935Y0097768D02*
X0242050Y0097768D01*
X0242050Y0097269D02*
X0242935Y0097269D01*
X0242935Y0096771D02*
X0242050Y0096771D01*
X0202991Y0033958D02*
X0199809Y0033958D01*
X0200721Y0033460D02*
X0202079Y0033460D01*
X0201581Y0032961D02*
X0201219Y0032961D01*
X0197991Y0033958D02*
X0194809Y0033958D01*
X0195721Y0033460D02*
X0197079Y0033460D01*
X0196581Y0032961D02*
X0196219Y0032961D01*
D20*
X0203475Y0039375D03*
X0209100Y0038500D03*
X0209100Y0035500D03*
X0209100Y0032500D03*
X0209100Y0029500D03*
X0209100Y0026500D03*
X0209100Y0023500D03*
X0209100Y0041500D03*
X0209100Y0044500D03*
X0209100Y0047500D03*
X0209100Y0050500D03*
X0209100Y0053500D03*
X0209100Y0056500D03*
X0209100Y0059500D03*
X0209100Y0062500D03*
X0209100Y0065500D03*
X0206100Y0065500D03*
X0203100Y0065500D03*
X0200100Y0065500D03*
X0197100Y0065500D03*
X0194100Y0065500D03*
X0191100Y0065500D03*
X0188100Y0065500D03*
X0185100Y0065500D03*
X0182412Y0065500D03*
X0192225Y0061250D03*
X0202225Y0059375D03*
X0203475Y0051875D03*
X0215900Y0044400D03*
X0192850Y0041875D03*
X0180350Y0033750D03*
X0174100Y0035000D03*
X0172850Y0026250D03*
X0179725Y0025625D03*
X0147850Y0033750D03*
X0141600Y0040625D03*
X0130975Y0040625D03*
X0110975Y0025625D03*
X0106287Y0034688D03*
X0089725Y0045000D03*
X0082225Y0035625D03*
X0077850Y0033438D03*
X0073163Y0036250D03*
X0066288Y0031562D03*
X0062850Y0033125D03*
X0057225Y0039375D03*
X0045975Y0051250D03*
X0042225Y0046875D03*
X0059100Y0058750D03*
X0053475Y0063750D03*
X0041600Y0073750D03*
X0035975Y0078750D03*
X0060975Y0082500D03*
X0069100Y0086250D03*
X0079100Y0092500D03*
X0079725Y0097500D03*
X0100975Y0097500D03*
X0113475Y0090000D03*
X0117850Y0086875D03*
X0127225Y0089375D03*
X0140975Y0090000D03*
X0144725Y0079375D03*
X0153475Y0082500D03*
X0165350Y0091875D03*
X0165350Y0095625D03*
X0191100Y0077500D03*
X0194100Y0077500D03*
X0197100Y0077500D03*
X0206100Y0077500D03*
X0209100Y0077500D03*
X0209100Y0080500D03*
X0215100Y0083500D03*
X0218100Y0083500D03*
X0221100Y0083500D03*
X0224100Y0083500D03*
X0227100Y0083500D03*
X0230100Y0083500D03*
X0233100Y0083500D03*
X0236100Y0083500D03*
X0239100Y0083500D03*
X0236600Y0088125D03*
X0229725Y0092500D03*
X0227225Y0088125D03*
X0219100Y0090625D03*
X0135975Y0057500D03*
X0129725Y0057500D03*
X0122225Y0075000D03*
X0103475Y0058750D03*
X0071600Y0070625D03*
X0078788Y0028125D03*
X0079100Y0023750D03*
X0042850Y0024062D03*
X0122850Y0023750D03*
X0132850Y0023750D03*
D21*
X0157650Y0063125D03*
X0165150Y0063125D03*
X0172650Y0063125D03*
X0172650Y0070625D03*
X0172650Y0077500D03*
X0165150Y0077500D03*
X0165150Y0070625D03*
X0157650Y0070625D03*
X0157650Y0077500D03*
D22*
X0166400Y0087500D03*
X0169525Y0085625D03*
X0180150Y0086191D03*
X0180150Y0096875D03*
X0195011Y0103889D03*
X0197650Y0103750D03*
X0198900Y0101250D03*
X0199837Y0109375D03*
X0193900Y0108215D03*
X0187650Y0110625D03*
X0180150Y0110625D03*
X0169525Y0115000D03*
X0167650Y0111875D03*
X0163900Y0115000D03*
X0159525Y0113125D03*
X0162025Y0108125D03*
X0158275Y0105625D03*
X0147650Y0106250D03*
X0137734Y0095362D03*
X0130882Y0105240D03*
X0130150Y0112500D03*
X0125150Y0112500D03*
X0123900Y0115000D03*
X0123900Y0120000D03*
X0128900Y0118125D03*
X0133275Y0122500D03*
X0135150Y0126875D03*
X0133275Y0128750D03*
X0136400Y0130625D03*
X0145150Y0133125D03*
X0147650Y0128750D03*
X0137025Y0140000D03*
X0133900Y0139990D03*
X0118275Y0146875D03*
X0118275Y0150000D03*
X0123900Y0153750D03*
X0123900Y0159154D03*
X0132650Y0153750D03*
X0135775Y0158125D03*
X0130150Y0165846D03*
X0117650Y0171250D03*
X0115775Y0173125D03*
X0110150Y0173750D03*
X0108900Y0171250D03*
X0103900Y0173750D03*
X0111400Y0165846D03*
X0111400Y0158750D03*
X0105150Y0154375D03*
X0096400Y0151875D03*
X0095150Y0148750D03*
X0089525Y0154375D03*
X0089525Y0157500D03*
X0089525Y0160625D03*
X0090775Y0166250D03*
X0092650Y0172500D03*
X0084525Y0172500D03*
X0071400Y0166250D03*
X0080775Y0160000D03*
X0073875Y0151250D03*
X0070775Y0151250D03*
X0070775Y0145625D03*
X0070150Y0141250D03*
X0081400Y0132500D03*
X0083900Y0130000D03*
X0089525Y0126875D03*
X0089525Y0124375D03*
X0089525Y0121875D03*
X0097650Y0117500D03*
X0098810Y0114404D03*
X0098275Y0111875D03*
X0098275Y0108918D03*
X0102025Y0103750D03*
X0103900Y0106875D03*
X0110150Y0106875D03*
X0109525Y0103125D03*
X0115775Y0097890D03*
X0111400Y0110654D03*
X0111430Y0116250D03*
X0107650Y0121250D03*
X0104525Y0126875D03*
X0109525Y0130000D03*
X0112650Y0136250D03*
X0093900Y0135625D03*
X0084525Y0137500D03*
X0084525Y0140625D03*
X0071400Y0126250D03*
X0070775Y0115000D03*
X0060775Y0114375D03*
X0062025Y0106250D03*
X0055150Y0095000D03*
X0042025Y0105625D03*
X0041400Y0113750D03*
X0078900Y0103125D03*
X0087150Y0095000D03*
X0085636Y0090764D03*
X0097025Y0095190D03*
X0098900Y0101250D03*
X0092025Y0112500D03*
X0093275Y0072850D03*
X0101710Y0072500D03*
X0105775Y0072850D03*
X0109840Y0068887D03*
X0108275Y0066875D03*
X0108275Y0064346D03*
X0108275Y0061817D03*
X0098275Y0063660D03*
X0092025Y0064375D03*
X0085775Y0064375D03*
X0079525Y0064375D03*
X0062650Y0051965D03*
X0064525Y0046785D03*
X0060150Y0039375D03*
X0066400Y0035000D03*
X0073275Y0046250D03*
X0090150Y0038750D03*
X0089727Y0036221D03*
X0091400Y0041279D03*
X0100150Y0041279D03*
X0100150Y0038750D03*
X0102789Y0038889D03*
X0107650Y0037500D03*
X0099007Y0031982D03*
X0122673Y0037500D03*
X0122621Y0045000D03*
X0125150Y0045385D03*
X0120717Y0050715D03*
X0118188Y0050715D03*
X0131539Y0062361D03*
X0130063Y0064462D03*
X0128275Y0066250D03*
X0125203Y0066822D03*
X0124039Y0069236D03*
X0121400Y0069375D03*
X0134068Y0061875D03*
X0145834Y0059375D03*
X0152025Y0058125D03*
X0167110Y0049802D03*
X0171400Y0051875D03*
X0173929Y0051250D03*
X0171400Y0047500D03*
X0167025Y0047273D03*
X0167025Y0044375D03*
X0162797Y0036413D03*
X0157678Y0031512D03*
X0151400Y0041160D03*
X0148275Y0041160D03*
X0163275Y0021965D03*
X0177025Y0025625D03*
X0189525Y0036160D03*
X0192789Y0038889D03*
X0183900Y0040090D03*
X0181400Y0043750D03*
X0178900Y0041250D03*
X0178900Y0055000D03*
X0213587Y0100625D03*
X0212025Y0107500D03*
X0202650Y0115625D03*
X0207025Y0116875D03*
X0207025Y0123125D03*
X0210775Y0126875D03*
X0200011Y0124861D03*
X0199615Y0127500D03*
X0201400Y0136250D03*
X0197650Y0138125D03*
X0199615Y0140625D03*
X0195150Y0140625D03*
X0194285Y0143750D03*
X0190775Y0146250D03*
X0191400Y0151875D03*
X0186400Y0151250D03*
X0185775Y0153750D03*
X0180602Y0156250D03*
X0178900Y0158125D03*
X0178275Y0155000D03*
X0172025Y0156875D03*
X0170150Y0154375D03*
X0172025Y0148125D03*
X0180150Y0145625D03*
X0178900Y0137500D03*
X0178275Y0128125D03*
X0191400Y0135000D03*
X0203900Y0143750D03*
X0207025Y0136875D03*
X0203275Y0151250D03*
X0201429Y0157235D03*
X0198900Y0157500D03*
X0196400Y0156875D03*
X0193871Y0157500D03*
X0191400Y0162500D03*
X0196400Y0165265D03*
X0198304Y0167500D03*
X0200894Y0168125D03*
X0202025Y0174375D03*
X0192650Y0166875D03*
X0188900Y0169240D03*
X0184401Y0166999D03*
X0172025Y0163125D03*
X0171400Y0168750D03*
X0162025Y0160625D03*
X0162025Y0157500D03*
X0153900Y0161875D03*
X0152650Y0169375D03*
X0147025Y0173750D03*
X0145775Y0160000D03*
X0206400Y0158125D03*
X0224525Y0155625D03*
X0239525Y0160000D03*
X0225775Y0171875D03*
X0227650Y0144375D03*
X0241400Y0122500D03*
X0241400Y0113125D03*
X0232650Y0111875D03*
X0230775Y0105000D03*
X0222971Y0119362D03*
X0061400Y0173750D03*
X0048900Y0162500D03*
X0044525Y0167500D03*
X0037025Y0158125D03*
D23*
X0094910Y0111289D02*
X0097461Y0113840D01*
X0098246Y0113840D01*
X0098810Y0114404D01*
X0098275Y0111875D02*
X0096310Y0109910D01*
X0096310Y0107725D01*
X0091575Y0102990D01*
X0091575Y0087010D01*
X0097350Y0081235D01*
X0097350Y0078905D01*
X0093260Y0074815D01*
X0092461Y0074815D01*
X0091310Y0073664D01*
X0091310Y0070399D01*
X0088712Y0067800D01*
X0084442Y0067800D01*
X0082981Y0066340D01*
X0078711Y0066340D01*
X0076935Y0064564D01*
X0076935Y0044465D01*
X0078900Y0042500D01*
X0086400Y0042500D01*
X0090150Y0038750D01*
X0088185Y0038735D02*
X0088185Y0037936D01*
X0089727Y0036394D01*
X0089727Y0036221D01*
X0087763Y0036379D02*
X0086785Y0037356D01*
X0086785Y0038155D01*
X0085305Y0039635D01*
X0069785Y0039635D01*
X0068900Y0038750D01*
X0066750Y0038750D01*
X0066750Y0035350D01*
X0066400Y0035000D01*
X0063550Y0038750D02*
X0062925Y0039375D01*
X0060150Y0039375D01*
X0064525Y0046785D02*
X0062650Y0048660D01*
X0062650Y0051965D01*
X0073275Y0046250D02*
X0074135Y0047110D01*
X0074135Y0065724D01*
X0077551Y0069140D01*
X0081821Y0069140D01*
X0083282Y0070600D01*
X0087552Y0070600D01*
X0088510Y0071558D01*
X0088510Y0074824D01*
X0091301Y0077615D01*
X0092100Y0077615D01*
X0093880Y0079395D01*
X0093880Y0080745D01*
X0088775Y0085850D01*
X0088775Y0089375D01*
X0087386Y0090764D01*
X0085636Y0090764D01*
X0087150Y0095000D02*
X0055150Y0095000D01*
X0090175Y0086430D02*
X0095808Y0080798D01*
X0095808Y0079342D01*
X0092680Y0076215D01*
X0091881Y0076215D01*
X0089910Y0074244D01*
X0089910Y0070979D01*
X0088132Y0069200D01*
X0083862Y0069200D01*
X0082401Y0067740D01*
X0078131Y0067740D01*
X0075535Y0065144D01*
X0075535Y0043885D01*
X0078320Y0041100D01*
X0085820Y0041100D01*
X0088185Y0038735D01*
X0087763Y0036379D02*
X0087763Y0035407D01*
X0088914Y0034256D01*
X0090541Y0034256D01*
X0092115Y0035830D01*
X0092115Y0039794D01*
X0092500Y0040179D01*
X0091400Y0041279D01*
X0093900Y0044375D02*
X0093900Y0026250D01*
X0098200Y0024469D02*
X0095681Y0021950D01*
X0092119Y0021950D01*
X0087819Y0026250D01*
X0083900Y0026250D01*
X0095300Y0030931D02*
X0098200Y0028031D01*
X0098200Y0024469D01*
X0100812Y0026287D02*
X0100850Y0026250D01*
X0103900Y0026250D01*
X0100812Y0026287D02*
X0099600Y0027500D01*
X0099600Y0028611D01*
X0096700Y0031511D01*
X0096700Y0043215D01*
X0112710Y0059225D01*
X0122190Y0059225D01*
X0125023Y0062058D01*
X0128841Y0062058D01*
X0129144Y0062361D01*
X0131539Y0062361D01*
X0130161Y0060961D02*
X0129724Y0060961D01*
X0129421Y0060658D01*
X0125603Y0060658D01*
X0122770Y0057825D01*
X0113290Y0057825D01*
X0098100Y0042635D01*
X0098100Y0032500D01*
X0098725Y0031875D01*
X0098900Y0031875D01*
X0099007Y0031982D01*
X0102025Y0031875D02*
X0103275Y0030625D01*
X0125150Y0030625D01*
X0127650Y0028125D01*
X0127650Y0026250D01*
X0135625Y0032025D02*
X0103900Y0032025D01*
X0103425Y0032500D01*
X0103425Y0037455D01*
X0102789Y0038091D01*
X0102789Y0038889D01*
X0102025Y0036875D02*
X0102025Y0031875D01*
X0102025Y0036875D02*
X0100150Y0038750D01*
X0100150Y0041250D02*
X0100150Y0041279D01*
X0100150Y0041250D02*
X0103900Y0041250D01*
X0107650Y0037500D01*
X0095300Y0043795D02*
X0095300Y0030931D01*
X0095300Y0043795D02*
X0112130Y0060625D01*
X0121610Y0060625D01*
X0124443Y0063458D01*
X0128261Y0063458D01*
X0129265Y0064462D01*
X0130063Y0064462D01*
X0128275Y0066250D02*
X0126883Y0064858D01*
X0123863Y0064858D01*
X0121115Y0062110D01*
X0111635Y0062110D01*
X0093900Y0044375D01*
X0108275Y0061817D02*
X0108275Y0061875D01*
X0107769Y0062381D01*
X0104539Y0062381D01*
X0102695Y0064225D01*
X0098840Y0064225D01*
X0098275Y0063660D01*
X0093275Y0065625D02*
X0103275Y0065625D01*
X0104554Y0064346D01*
X0108275Y0064346D01*
X0108840Y0064910D01*
X0119714Y0064910D01*
X0124039Y0069236D01*
X0123847Y0066822D02*
X0120535Y0063510D01*
X0110535Y0063510D01*
X0108900Y0061875D01*
X0108275Y0061875D01*
X0110090Y0066310D02*
X0119134Y0066310D01*
X0121400Y0068577D01*
X0121400Y0069375D01*
X0123847Y0066822D02*
X0125203Y0066822D01*
X0130161Y0060961D02*
X0130725Y0060396D01*
X0132353Y0060396D01*
X0133832Y0061875D01*
X0134068Y0061875D01*
X0120775Y0050657D02*
X0120775Y0049760D01*
X0125150Y0045385D01*
X0122621Y0045000D02*
X0118275Y0049346D01*
X0118275Y0050628D01*
X0118188Y0050715D01*
X0120717Y0050715D02*
X0120775Y0050657D01*
X0110090Y0066310D02*
X0109525Y0066875D01*
X0108275Y0066875D01*
X0104005Y0066875D01*
X0103855Y0067025D01*
X0091897Y0067025D01*
X0089872Y0065000D01*
X0086400Y0065000D01*
X0085775Y0064375D01*
X0083810Y0065000D02*
X0083810Y0065189D01*
X0085022Y0066400D01*
X0089292Y0066400D01*
X0093192Y0070300D01*
X0102560Y0070300D01*
X0104020Y0068840D01*
X0109792Y0068840D01*
X0109840Y0068887D01*
X0107740Y0072036D02*
X0106589Y0070885D01*
X0104961Y0070885D01*
X0104147Y0071700D01*
X0102510Y0071700D01*
X0101710Y0072500D01*
X0105775Y0072850D02*
X0100300Y0078325D01*
X0100300Y0082350D01*
X0094525Y0088125D01*
X0094525Y0101875D01*
X0100775Y0108125D01*
X0100775Y0161875D01*
X0104525Y0165625D01*
X0111400Y0165625D01*
X0111400Y0165846D01*
X0110243Y0164225D02*
X0110586Y0163882D01*
X0112214Y0163882D01*
X0113365Y0165033D01*
X0113365Y0173840D01*
X0115240Y0175715D01*
X0151310Y0175715D01*
X0152650Y0174375D01*
X0152650Y0169375D01*
X0130150Y0165846D02*
X0123900Y0159596D01*
X0123900Y0159154D01*
X0110243Y0164225D02*
X0105150Y0164225D01*
X0102175Y0161250D01*
X0102175Y0129225D01*
X0104525Y0126875D01*
X0119525Y0115000D02*
X0123900Y0115000D01*
X0132025Y0115000D01*
X0133275Y0113750D01*
X0133275Y0103125D01*
X0134525Y0101875D01*
X0154525Y0101875D01*
X0158275Y0105625D01*
X0162025Y0106250D02*
X0156250Y0100475D01*
X0126250Y0100475D01*
X0123665Y0097890D01*
X0115775Y0097890D01*
X0115179Y0110654D02*
X0111400Y0110654D01*
X0115179Y0110654D02*
X0119525Y0115000D01*
X0098275Y0108918D02*
X0098275Y0107710D01*
X0092975Y0102410D01*
X0092975Y0087590D01*
X0098750Y0081815D01*
X0098750Y0078325D01*
X0093275Y0072850D01*
X0101700Y0078905D02*
X0105790Y0074815D01*
X0106589Y0074815D01*
X0107740Y0073664D01*
X0107740Y0072036D01*
X0101700Y0078905D02*
X0101700Y0082930D01*
X0095925Y0088705D01*
X0095925Y0094090D01*
X0097025Y0095190D01*
X0137393Y0095190D01*
X0137566Y0095362D01*
X0137734Y0095362D01*
X0148275Y0082500D02*
X0153275Y0087500D01*
X0166400Y0087500D01*
X0165323Y0085798D02*
X0153553Y0085798D01*
X0149675Y0081920D01*
X0149675Y0042975D01*
X0151400Y0041250D01*
X0151400Y0041160D01*
X0148275Y0041160D02*
X0148275Y0082500D01*
X0165323Y0085798D02*
X0165586Y0085535D01*
X0167214Y0085535D01*
X0167303Y0085625D01*
X0169525Y0085625D01*
X0195011Y0103889D02*
X0196250Y0105128D01*
X0196250Y0136747D01*
X0195685Y0137311D01*
X0195685Y0140090D01*
X0195150Y0140625D01*
X0194285Y0138711D02*
X0193185Y0139811D01*
X0193185Y0141439D01*
X0194336Y0142590D01*
X0194336Y0143699D01*
X0194285Y0143750D01*
X0199615Y0140625D02*
X0199615Y0137311D01*
X0199050Y0136747D01*
X0199050Y0129315D01*
X0199615Y0128750D01*
X0199615Y0127500D01*
X0201579Y0126429D02*
X0200011Y0124861D01*
X0201579Y0126429D02*
X0201579Y0129196D01*
X0200450Y0130325D01*
X0200450Y0135300D01*
X0201400Y0136250D01*
X0197650Y0138125D02*
X0197650Y0103750D01*
X0193990Y0108215D02*
X0194850Y0109075D01*
X0194850Y0136167D01*
X0194285Y0136731D01*
X0194285Y0138711D01*
X0203275Y0151250D02*
X0205612Y0151250D01*
X0205650Y0151213D01*
X0201429Y0157235D02*
X0201400Y0157265D01*
X0201400Y0167619D01*
X0200894Y0168125D01*
X0198304Y0167500D02*
X0198304Y0166221D01*
X0198900Y0165625D01*
X0198900Y0157500D01*
X0196400Y0156875D02*
X0196400Y0165265D01*
X0193871Y0165654D02*
X0192650Y0166875D01*
X0193871Y0165654D02*
X0193871Y0157500D01*
X0188959Y0156309D02*
X0188959Y0158750D01*
X0188959Y0156309D02*
X0186400Y0153750D01*
X0185775Y0153750D01*
X0179525Y0153750D01*
X0178275Y0155000D01*
X0180602Y0156250D02*
X0180602Y0157048D01*
X0180865Y0157311D01*
X0180865Y0158125D01*
X0181490Y0158750D01*
X0183841Y0158750D01*
X0178900Y0158125D02*
X0178900Y0167500D01*
X0180640Y0169240D01*
X0188900Y0169240D01*
X0184401Y0166999D02*
X0183841Y0166439D01*
X0183841Y0163750D01*
X0188959Y0163750D02*
X0190150Y0163750D01*
X0191400Y0162500D01*
X0206387Y0119362D02*
X0202650Y0115625D01*
X0206387Y0119362D02*
X0222971Y0119362D01*
X0193990Y0108215D02*
X0193900Y0108215D01*
X0162025Y0108125D02*
X0162025Y0106250D01*
X0094910Y0108305D02*
X0090175Y0103570D01*
X0090175Y0086430D01*
X0093275Y0065625D02*
X0092025Y0064375D01*
X0083810Y0065000D02*
X0083185Y0064375D01*
X0079525Y0064375D01*
X0135625Y0032025D02*
X0137650Y0030000D01*
X0137650Y0026250D01*
X0163275Y0021965D02*
X0163840Y0021401D01*
X0175775Y0021401D01*
X0177025Y0022651D01*
X0177025Y0025625D01*
X0183900Y0031250D02*
X0183900Y0040090D01*
X0182650Y0042500D02*
X0185150Y0042500D01*
X0187025Y0040625D01*
X0187025Y0033125D01*
X0188900Y0031250D01*
X0189525Y0036160D02*
X0189525Y0036250D01*
X0190150Y0036250D01*
X0192789Y0038889D01*
X0182650Y0042500D02*
X0181400Y0043750D01*
X0175775Y0043750D01*
X0168900Y0036875D01*
X0163259Y0036875D01*
X0162797Y0036413D01*
X0167025Y0044375D02*
X0168275Y0044375D01*
X0171400Y0047500D01*
X0169936Y0049850D02*
X0167924Y0047838D01*
X0167590Y0047838D01*
X0167025Y0047273D01*
X0167110Y0049802D02*
X0167025Y0049887D01*
X0167025Y0050000D01*
X0168275Y0051250D01*
X0170775Y0051250D01*
X0171400Y0051875D01*
X0172500Y0049850D02*
X0169936Y0049850D01*
X0172500Y0049850D02*
X0173900Y0051250D01*
X0173929Y0051250D01*
X0094910Y0108305D02*
X0094910Y0111289D01*
D24*
X0092710Y0111143D02*
X0029850Y0111143D01*
X0029850Y0108745D02*
X0092239Y0108745D01*
X0092710Y0109216D02*
X0089264Y0105770D01*
X0087975Y0104481D01*
X0087975Y0100800D01*
X0047249Y0100800D01*
X0045551Y0100800D01*
X0044350Y0099599D01*
X0044350Y0084599D01*
X0043051Y0083300D01*
X0029850Y0083300D01*
X0029850Y0165277D01*
X0030961Y0163884D01*
X0033895Y0162471D01*
X0037153Y0162471D01*
X0040087Y0163884D01*
X0040087Y0163884D01*
X0042118Y0166431D01*
X0042843Y0169606D01*
X0042118Y0172782D01*
X0040126Y0175280D01*
X0111694Y0175280D01*
X0111165Y0174751D01*
X0111165Y0168611D01*
X0110850Y0168611D01*
X0109834Y0168190D01*
X0109469Y0167825D01*
X0103614Y0167825D01*
X0099864Y0164075D01*
X0098575Y0162786D01*
X0098575Y0117169D01*
X0098261Y0117169D01*
X0097244Y0116748D01*
X0096467Y0115970D01*
X0096457Y0115947D01*
X0093999Y0113489D01*
X0092710Y0112200D01*
X0092710Y0109216D01*
X0089840Y0106346D02*
X0029850Y0106346D01*
X0029850Y0103948D02*
X0087975Y0103948D01*
X0087975Y0101549D02*
X0029850Y0101549D01*
X0029850Y0099151D02*
X0044350Y0099151D01*
X0044350Y0096752D02*
X0029850Y0096752D01*
X0029850Y0094354D02*
X0044350Y0094354D01*
X0044350Y0091955D02*
X0029850Y0091955D01*
X0029850Y0089557D02*
X0044350Y0089557D01*
X0044350Y0087158D02*
X0029850Y0087158D01*
X0029850Y0084760D02*
X0044350Y0084760D01*
X0029850Y0113542D02*
X0094052Y0113542D01*
X0096451Y0115940D02*
X0029850Y0115940D01*
X0029850Y0118339D02*
X0098575Y0118339D01*
X0098575Y0120737D02*
X0092301Y0120737D01*
X0092525Y0121278D02*
X0092525Y0161222D01*
X0092068Y0162324D01*
X0091224Y0163168D01*
X0090122Y0163625D01*
X0088928Y0163625D01*
X0087826Y0163168D01*
X0086982Y0162324D01*
X0086525Y0161222D01*
X0086525Y0151558D01*
X0086451Y0151632D01*
X0084907Y0153176D01*
X0083951Y0154132D01*
X0082701Y0154650D01*
X0070099Y0154650D01*
X0068849Y0154132D01*
X0067893Y0153176D01*
X0067375Y0151926D01*
X0067375Y0150574D01*
X0067893Y0149324D01*
X0068849Y0148368D01*
X0070099Y0147850D01*
X0080617Y0147850D01*
X0081125Y0147342D01*
X0081125Y0136824D01*
X0081643Y0135574D01*
X0082599Y0134618D01*
X0083849Y0134100D01*
X0085201Y0134100D01*
X0086451Y0134618D01*
X0086525Y0134692D01*
X0086525Y0121278D01*
X0086982Y0120176D01*
X0087826Y0119332D01*
X0088928Y0118875D01*
X0090122Y0118875D01*
X0091224Y0119332D01*
X0092068Y0120176D01*
X0092525Y0121278D01*
X0092525Y0123136D02*
X0098575Y0123136D01*
X0098575Y0125534D02*
X0092525Y0125534D01*
X0092525Y0127933D02*
X0098575Y0127933D01*
X0098575Y0130332D02*
X0092525Y0130332D01*
X0089525Y0126875D02*
X0089525Y0124375D01*
X0089525Y0121875D01*
X0086749Y0120737D02*
X0029850Y0120737D01*
X0029850Y0123136D02*
X0086525Y0123136D01*
X0086525Y0125534D02*
X0029850Y0125534D01*
X0029850Y0127933D02*
X0086525Y0127933D01*
X0086525Y0130332D02*
X0029850Y0130332D01*
X0029850Y0132730D02*
X0086525Y0132730D01*
X0082088Y0135129D02*
X0029850Y0135129D01*
X0029850Y0137527D02*
X0081125Y0137527D01*
X0081125Y0139926D02*
X0029850Y0139926D01*
X0029850Y0142324D02*
X0081125Y0142324D01*
X0081125Y0144723D02*
X0029850Y0144723D01*
X0029850Y0147121D02*
X0081125Y0147121D01*
X0086165Y0151918D02*
X0086525Y0151918D01*
X0084907Y0153176D02*
X0084907Y0153176D01*
X0083506Y0154317D02*
X0086525Y0154317D01*
X0086525Y0156715D02*
X0029850Y0156715D01*
X0029850Y0154317D02*
X0069294Y0154317D01*
X0067375Y0151918D02*
X0029850Y0151918D01*
X0029850Y0149520D02*
X0067812Y0149520D01*
X0086525Y0159114D02*
X0029850Y0159114D01*
X0029850Y0161512D02*
X0086645Y0161512D01*
X0089525Y0160625D02*
X0089525Y0157500D01*
X0089525Y0154375D01*
X0089525Y0126875D01*
X0092525Y0132730D02*
X0098575Y0132730D01*
X0098575Y0135129D02*
X0092525Y0135129D01*
X0092525Y0137527D02*
X0098575Y0137527D01*
X0098575Y0139926D02*
X0092525Y0139926D01*
X0092525Y0142324D02*
X0098575Y0142324D01*
X0098575Y0144723D02*
X0092525Y0144723D01*
X0092525Y0147121D02*
X0098575Y0147121D01*
X0098575Y0149520D02*
X0092525Y0149520D01*
X0092525Y0151918D02*
X0098575Y0151918D01*
X0098575Y0154317D02*
X0092525Y0154317D01*
X0092525Y0156715D02*
X0098575Y0156715D01*
X0098575Y0159114D02*
X0092525Y0159114D01*
X0092405Y0161512D02*
X0098575Y0161512D01*
X0099699Y0163911D02*
X0040108Y0163911D01*
X0042021Y0166309D02*
X0102098Y0166309D01*
X0106061Y0162025D02*
X0109332Y0162025D01*
X0109675Y0161682D01*
X0113125Y0161682D01*
X0114276Y0162833D01*
X0115565Y0164121D01*
X0115565Y0172928D01*
X0116151Y0173515D01*
X0150399Y0173515D01*
X0150450Y0173464D01*
X0150450Y0171085D01*
X0150306Y0170941D01*
X0149885Y0169925D01*
X0149885Y0168825D01*
X0150306Y0167809D01*
X0151084Y0167031D01*
X0152100Y0166610D01*
X0153200Y0166610D01*
X0154216Y0167031D01*
X0154994Y0167809D01*
X0155415Y0168825D01*
X0155415Y0169925D01*
X0154994Y0170941D01*
X0154850Y0171085D01*
X0154850Y0175280D01*
X0231710Y0175280D01*
X0229718Y0172782D01*
X0228993Y0169606D01*
X0229718Y0166431D01*
X0231748Y0163884D01*
X0231748Y0163884D01*
X0234683Y0162471D01*
X0237940Y0162471D01*
X0240874Y0163884D01*
X0240874Y0163884D01*
X0240874Y0163884D01*
X0241985Y0165277D01*
X0241985Y0144503D01*
X0241526Y0144961D01*
X0239652Y0145737D01*
X0237623Y0145737D01*
X0235749Y0144961D01*
X0234314Y0143526D01*
X0233537Y0141652D01*
X0233537Y0139623D01*
X0234314Y0137749D01*
X0235749Y0136314D01*
X0236874Y0135848D01*
X0236526Y0135735D01*
X0235755Y0135342D01*
X0235054Y0134833D01*
X0234442Y0134220D01*
X0233933Y0133520D01*
X0233540Y0132749D01*
X0233273Y0131925D01*
X0233137Y0131070D01*
X0233137Y0130638D01*
X0238637Y0130638D01*
X0238637Y0130637D01*
X0238638Y0130637D01*
X0238638Y0125137D01*
X0239070Y0125137D01*
X0239925Y0125273D01*
X0240749Y0125540D01*
X0241520Y0125933D01*
X0241985Y0126271D01*
X0241985Y0105906D01*
X0241649Y0106100D01*
X0241090Y0106250D01*
X0237650Y0106250D01*
X0237650Y0101750D01*
X0237650Y0101750D01*
X0237650Y0101750D01*
X0232300Y0101750D01*
X0232300Y0104340D01*
X0232450Y0104899D01*
X0232740Y0105401D01*
X0233149Y0105810D01*
X0233651Y0106100D01*
X0234210Y0106250D01*
X0237650Y0106250D01*
X0237650Y0101750D01*
X0232300Y0101750D01*
X0232300Y0100800D01*
X0159686Y0100800D01*
X0164225Y0105339D01*
X0164225Y0106415D01*
X0164369Y0106559D01*
X0164790Y0107575D01*
X0164790Y0108675D01*
X0164369Y0109691D01*
X0163591Y0110469D01*
X0162575Y0110890D01*
X0161475Y0110890D01*
X0160459Y0110469D01*
X0159681Y0109691D01*
X0159260Y0108675D01*
X0159260Y0108209D01*
X0158825Y0108390D01*
X0157725Y0108390D01*
X0156709Y0107969D01*
X0155931Y0107191D01*
X0155510Y0106175D01*
X0155510Y0105972D01*
X0153614Y0104075D01*
X0135475Y0104075D01*
X0135475Y0114661D01*
X0134225Y0115911D01*
X0132936Y0117200D01*
X0125610Y0117200D01*
X0125466Y0117344D01*
X0124450Y0117765D01*
X0123350Y0117765D01*
X0122334Y0117344D01*
X0122190Y0117200D01*
X0118614Y0117200D01*
X0117325Y0115911D01*
X0114268Y0112854D01*
X0113110Y0112854D01*
X0112966Y0112998D01*
X0111950Y0113419D01*
X0110850Y0113419D01*
X0109834Y0112998D01*
X0109056Y0112220D01*
X0108635Y0111204D01*
X0108635Y0110104D01*
X0109056Y0109088D01*
X0109834Y0108310D01*
X0110850Y0107890D01*
X0111950Y0107890D01*
X0112966Y0108310D01*
X0113110Y0108454D01*
X0116090Y0108454D01*
X0120436Y0112800D01*
X0122190Y0112800D01*
X0122334Y0112656D01*
X0123350Y0112235D01*
X0124450Y0112235D01*
X0125466Y0112656D01*
X0125610Y0112800D01*
X0131075Y0112800D01*
X0131075Y0108004D01*
X0130332Y0108004D01*
X0129316Y0107583D01*
X0128538Y0106806D01*
X0128118Y0105789D01*
X0128118Y0105445D01*
X0128050Y0105377D01*
X0128050Y0103895D01*
X0128030Y0103875D01*
X0124842Y0103875D01*
X0123612Y0102645D01*
X0122256Y0101290D01*
X0118705Y0101290D01*
X0118141Y0101854D01*
X0108766Y0101854D01*
X0108500Y0102120D01*
X0108500Y0114130D01*
X0108520Y0114150D01*
X0109620Y0114150D01*
X0109864Y0113906D01*
X0110880Y0113485D01*
X0111979Y0113485D01*
X0112996Y0113906D01*
X0113773Y0114684D01*
X0114194Y0115700D01*
X0114194Y0116800D01*
X0113773Y0117816D01*
X0112996Y0118594D01*
X0111979Y0119015D01*
X0110880Y0119015D01*
X0109864Y0118594D01*
X0109620Y0118350D01*
X0106780Y0118350D01*
X0105550Y0117120D01*
X0104300Y0115870D01*
X0104300Y0100800D01*
X0096725Y0100800D01*
X0096725Y0100964D01*
X0101686Y0105925D01*
X0102975Y0107214D01*
X0102975Y0124525D01*
X0103975Y0124110D01*
X0105075Y0124110D01*
X0106091Y0124531D01*
X0106869Y0125309D01*
X0107290Y0126325D01*
X0107290Y0127425D01*
X0106869Y0128441D01*
X0106091Y0129219D01*
X0105075Y0129640D01*
X0104872Y0129640D01*
X0104375Y0130136D01*
X0104375Y0160339D01*
X0106061Y0162025D01*
X0105548Y0161512D02*
X0122370Y0161512D01*
X0122334Y0161497D02*
X0122941Y0161749D01*
X0122989Y0161796D01*
X0127385Y0166193D01*
X0127385Y0166396D01*
X0127806Y0167412D01*
X0128584Y0168190D01*
X0129600Y0168611D01*
X0130700Y0168611D01*
X0131716Y0168190D01*
X0132494Y0167412D01*
X0132915Y0166396D01*
X0132915Y0165297D01*
X0132494Y0164280D01*
X0131716Y0163503D01*
X0130700Y0163082D01*
X0130497Y0163082D01*
X0126665Y0159250D01*
X0126665Y0158604D01*
X0126244Y0157588D01*
X0125466Y0156810D01*
X0124450Y0156389D01*
X0123350Y0156389D01*
X0122334Y0156810D01*
X0121556Y0157588D01*
X0121135Y0158604D01*
X0121135Y0159703D01*
X0121556Y0160720D01*
X0122334Y0161497D01*
X0121135Y0159114D02*
X0104375Y0159114D01*
X0104375Y0156715D02*
X0122563Y0156715D01*
X0125237Y0156715D02*
X0140123Y0156715D01*
X0141357Y0157949D02*
X0137826Y0154418D01*
X0136982Y0153574D01*
X0136525Y0152472D01*
X0136525Y0143000D01*
X0126393Y0143000D01*
X0121275Y0148118D01*
X0121275Y0150597D01*
X0120818Y0151699D01*
X0119974Y0152543D01*
X0118872Y0153000D01*
X0117678Y0153000D01*
X0116576Y0152543D01*
X0115732Y0151699D01*
X0115275Y0150597D01*
X0115275Y0146278D01*
X0115732Y0145176D01*
X0122607Y0138301D01*
X0123451Y0137457D01*
X0124553Y0137000D01*
X0133279Y0137000D01*
X0133303Y0136990D01*
X0134497Y0136990D01*
X0134520Y0137000D01*
X0138872Y0137000D01*
X0139974Y0137457D01*
X0140818Y0138301D01*
X0142068Y0139551D01*
X0142525Y0140653D01*
X0142525Y0150632D01*
X0145143Y0153250D01*
X0161372Y0153250D01*
X0162474Y0153707D01*
X0163318Y0154551D01*
X0163724Y0154957D01*
X0163724Y0154957D01*
X0164568Y0155801D01*
X0165025Y0156903D01*
X0165025Y0161222D01*
X0164568Y0162324D01*
X0163724Y0163168D01*
X0162622Y0163625D01*
X0161428Y0163625D01*
X0160326Y0163168D01*
X0159482Y0162324D01*
X0159025Y0161222D01*
X0159025Y0159250D01*
X0143303Y0159250D01*
X0142201Y0158793D01*
X0141357Y0157949D01*
X0141357Y0157949D01*
X0142974Y0159114D02*
X0126665Y0159114D01*
X0128927Y0161512D02*
X0159145Y0161512D01*
X0162025Y0160625D02*
X0162025Y0157500D01*
X0160775Y0156250D01*
X0143900Y0156250D01*
X0139525Y0151875D01*
X0139525Y0141250D01*
X0138275Y0140000D01*
X0137025Y0140000D01*
X0133900Y0140000D01*
X0125150Y0140000D01*
X0118275Y0146875D01*
X0118275Y0150000D01*
X0120600Y0151918D02*
X0136525Y0151918D01*
X0136525Y0149520D02*
X0121275Y0149520D01*
X0122272Y0147121D02*
X0136525Y0147121D01*
X0136525Y0144723D02*
X0124670Y0144723D01*
X0120982Y0139926D02*
X0104375Y0139926D01*
X0104375Y0142324D02*
X0118583Y0142324D01*
X0116185Y0144723D02*
X0104375Y0144723D01*
X0104375Y0147121D02*
X0115275Y0147121D01*
X0115275Y0149520D02*
X0104375Y0149520D01*
X0104375Y0151918D02*
X0115950Y0151918D01*
X0104375Y0154317D02*
X0137724Y0154317D01*
X0143811Y0151918D02*
X0178246Y0151918D01*
X0177928Y0152235D02*
X0178614Y0151550D01*
X0183635Y0151550D01*
X0183635Y0150700D01*
X0184056Y0149684D01*
X0184834Y0148906D01*
X0185850Y0148485D01*
X0186950Y0148485D01*
X0187347Y0148650D01*
X0187542Y0148650D01*
X0188498Y0149046D01*
X0191227Y0151775D01*
X0200510Y0151775D01*
X0200510Y0150700D01*
X0200931Y0149684D01*
X0201350Y0149265D01*
X0201350Y0146017D01*
X0202404Y0144963D01*
X0206075Y0144963D01*
X0206075Y0142500D01*
X0213275Y0142500D01*
X0213275Y0142500D01*
X0213275Y0149700D01*
X0216257Y0149700D01*
X0220475Y0145482D01*
X0220475Y0142500D01*
X0213275Y0142500D01*
X0213275Y0142500D01*
X0213275Y0149700D01*
X0213150Y0149700D01*
X0213150Y0155700D01*
X0214628Y0155700D01*
X0217127Y0156735D01*
X0219040Y0158648D01*
X0220075Y0161147D01*
X0220075Y0163853D01*
X0219040Y0166352D01*
X0217127Y0168265D01*
X0214628Y0169300D01*
X0211922Y0169300D01*
X0209423Y0168265D01*
X0207510Y0166352D01*
X0206475Y0163853D01*
X0206475Y0161147D01*
X0207150Y0159518D01*
X0207150Y0157462D01*
X0204194Y0157462D01*
X0204194Y0157785D01*
X0203773Y0158801D01*
X0203600Y0158974D01*
X0203600Y0167434D01*
X0203658Y0167575D01*
X0203658Y0168675D01*
X0203237Y0169691D01*
X0202460Y0170469D01*
X0201444Y0170890D01*
X0200344Y0170890D01*
X0199328Y0170469D01*
X0199045Y0170186D01*
X0198854Y0170265D01*
X0197754Y0170265D01*
X0196738Y0169844D01*
X0195960Y0169066D01*
X0195540Y0168050D01*
X0195540Y0167901D01*
X0195265Y0167787D01*
X0194994Y0168441D01*
X0194216Y0169219D01*
X0193200Y0169640D01*
X0192100Y0169640D01*
X0191665Y0169459D01*
X0191665Y0169789D01*
X0191244Y0170806D01*
X0190466Y0171583D01*
X0189450Y0172004D01*
X0188350Y0172004D01*
X0187334Y0171583D01*
X0187190Y0171440D01*
X0179728Y0171440D01*
X0176700Y0168411D01*
X0176700Y0159835D01*
X0176556Y0159691D01*
X0176135Y0158675D01*
X0176135Y0157575D01*
X0176371Y0157006D01*
X0175931Y0156566D01*
X0175510Y0155550D01*
X0175510Y0154450D01*
X0175931Y0153434D01*
X0176709Y0152656D01*
X0177725Y0152235D01*
X0177928Y0152235D01*
X0175566Y0154317D02*
X0163084Y0154317D01*
X0163318Y0154551D02*
X0163318Y0154551D01*
X0164947Y0156715D02*
X0176080Y0156715D01*
X0176317Y0159114D02*
X0165025Y0159114D01*
X0164905Y0161512D02*
X0176700Y0161512D01*
X0176700Y0163911D02*
X0132124Y0163911D01*
X0132915Y0166309D02*
X0176700Y0166309D01*
X0176996Y0168708D02*
X0155366Y0168708D01*
X0154850Y0171106D02*
X0179395Y0171106D01*
X0190943Y0171106D02*
X0229335Y0171106D01*
X0228993Y0169606D02*
X0228993Y0169606D01*
X0229198Y0168708D02*
X0216058Y0168708D01*
X0219057Y0166309D02*
X0229815Y0166309D01*
X0229718Y0166431D02*
X0229718Y0166431D01*
X0231727Y0163911D02*
X0220051Y0163911D01*
X0220075Y0161512D02*
X0241985Y0161512D01*
X0241985Y0163911D02*
X0240895Y0163911D01*
X0241985Y0159114D02*
X0219233Y0159114D01*
X0217078Y0156715D02*
X0241985Y0156715D01*
X0241985Y0154317D02*
X0213150Y0154317D01*
X0213150Y0151918D02*
X0241985Y0151918D01*
X0241985Y0149520D02*
X0216438Y0149520D01*
X0213275Y0149520D02*
X0213275Y0149520D01*
X0213275Y0147121D02*
X0213275Y0147121D01*
X0213275Y0144723D02*
X0213275Y0144723D01*
X0213275Y0142500D02*
X0213275Y0142500D01*
X0220475Y0142500D01*
X0220475Y0139518D01*
X0216257Y0135300D01*
X0213275Y0135300D01*
X0213275Y0142500D01*
X0213275Y0142500D01*
X0213275Y0135300D01*
X0210293Y0135300D01*
X0206075Y0139518D01*
X0206075Y0142500D01*
X0213275Y0142500D01*
X0213275Y0142324D02*
X0213275Y0142324D01*
X0213275Y0139926D02*
X0213275Y0139926D01*
X0213275Y0137527D02*
X0213275Y0137527D01*
X0218484Y0137527D02*
X0234535Y0137527D01*
X0235462Y0135129D02*
X0203928Y0135129D01*
X0203744Y0134684D02*
X0204165Y0135700D01*
X0204165Y0136800D01*
X0203744Y0137816D01*
X0202966Y0138594D01*
X0201950Y0139015D01*
X0201914Y0139015D01*
X0201958Y0139059D01*
X0202379Y0140075D01*
X0202379Y0141175D01*
X0201958Y0142191D01*
X0201181Y0142969D01*
X0200164Y0143390D01*
X0199065Y0143390D01*
X0198049Y0142969D01*
X0197382Y0142302D01*
X0196884Y0142800D01*
X0197050Y0143200D01*
X0197050Y0144300D01*
X0196629Y0145316D01*
X0195851Y0146094D01*
X0194835Y0146515D01*
X0193736Y0146515D01*
X0192719Y0146094D01*
X0191942Y0145316D01*
X0191521Y0144300D01*
X0191521Y0143200D01*
X0191613Y0142978D01*
X0190985Y0142350D01*
X0190985Y0138900D01*
X0192085Y0137800D01*
X0192085Y0135820D01*
X0192650Y0135255D01*
X0192650Y0110689D01*
X0192334Y0110558D01*
X0191556Y0109781D01*
X0191135Y0108764D01*
X0191135Y0107665D01*
X0191556Y0106649D01*
X0192334Y0105871D01*
X0192864Y0105652D01*
X0192667Y0105455D01*
X0192246Y0104439D01*
X0192246Y0103339D01*
X0192667Y0102323D01*
X0193445Y0101545D01*
X0194461Y0101125D01*
X0195561Y0101125D01*
X0196162Y0101374D01*
X0197100Y0100985D01*
X0198200Y0100985D01*
X0199216Y0101406D01*
X0199994Y0102184D01*
X0200415Y0103200D01*
X0200415Y0104300D01*
X0199994Y0105316D01*
X0199850Y0105460D01*
X0199850Y0122096D01*
X0200561Y0122096D01*
X0201577Y0122517D01*
X0202355Y0123295D01*
X0202775Y0124311D01*
X0202775Y0124514D01*
X0203779Y0125518D01*
X0203779Y0130107D01*
X0202650Y0131236D01*
X0202650Y0133775D01*
X0202966Y0133906D01*
X0203744Y0134684D01*
X0202650Y0132730D02*
X0233534Y0132730D01*
X0233137Y0130637D02*
X0233137Y0130205D01*
X0233273Y0129350D01*
X0233540Y0128526D01*
X0233933Y0127755D01*
X0234442Y0127054D01*
X0235054Y0126442D01*
X0235755Y0125933D01*
X0236526Y0125540D01*
X0237350Y0125273D01*
X0238205Y0125137D01*
X0238637Y0125137D01*
X0238637Y0130637D01*
X0233137Y0130637D01*
X0233137Y0130332D02*
X0203555Y0130332D01*
X0203779Y0127933D02*
X0233843Y0127933D01*
X0236545Y0125534D02*
X0203779Y0125534D01*
X0202196Y0123136D02*
X0241985Y0123136D01*
X0241985Y0125534D02*
X0240730Y0125534D01*
X0238638Y0125534D02*
X0238637Y0125534D01*
X0238637Y0127933D02*
X0238638Y0127933D01*
X0238637Y0130332D02*
X0238638Y0130332D01*
X0241985Y0120737D02*
X0225394Y0120737D01*
X0225315Y0120928D02*
X0224537Y0121706D01*
X0223521Y0122127D01*
X0222422Y0122127D01*
X0221405Y0121706D01*
X0221262Y0121562D01*
X0205476Y0121562D01*
X0202303Y0118390D01*
X0202100Y0118390D01*
X0201084Y0117969D01*
X0200306Y0117191D01*
X0199885Y0116175D01*
X0199885Y0115075D01*
X0200306Y0114059D01*
X0201084Y0113281D01*
X0202100Y0112860D01*
X0203200Y0112860D01*
X0204216Y0113281D01*
X0204994Y0114059D01*
X0205415Y0115075D01*
X0205415Y0115278D01*
X0207299Y0117162D01*
X0221262Y0117162D01*
X0221405Y0117019D01*
X0222422Y0116598D01*
X0223521Y0116598D01*
X0224537Y0117019D01*
X0225315Y0117796D01*
X0225736Y0118813D01*
X0225736Y0119912D01*
X0225315Y0120928D01*
X0225540Y0118339D02*
X0241985Y0118339D01*
X0241985Y0115940D02*
X0206077Y0115940D01*
X0204477Y0113542D02*
X0241985Y0113542D01*
X0241985Y0111143D02*
X0199850Y0111143D01*
X0199850Y0108745D02*
X0241985Y0108745D01*
X0241985Y0106346D02*
X0199850Y0106346D01*
X0200415Y0103948D02*
X0232300Y0103948D01*
X0232300Y0101549D02*
X0199359Y0101549D01*
X0193441Y0101549D02*
X0160436Y0101549D01*
X0162834Y0103948D02*
X0192246Y0103948D01*
X0191858Y0106346D02*
X0164225Y0106346D01*
X0164761Y0108745D02*
X0191135Y0108745D01*
X0192650Y0111143D02*
X0135475Y0111143D01*
X0135475Y0108745D02*
X0159289Y0108745D01*
X0155581Y0106346D02*
X0135475Y0106346D01*
X0131075Y0108745D02*
X0116381Y0108745D01*
X0118780Y0111143D02*
X0131075Y0111143D01*
X0135475Y0113542D02*
X0192650Y0113542D01*
X0192650Y0115940D02*
X0134196Y0115940D01*
X0128348Y0106346D02*
X0108500Y0106346D01*
X0108500Y0103948D02*
X0128050Y0103948D01*
X0122516Y0101549D02*
X0118445Y0101549D01*
X0109400Y0108745D02*
X0108500Y0108745D01*
X0108500Y0111143D02*
X0108635Y0111143D01*
X0108500Y0113542D02*
X0110743Y0113542D01*
X0112116Y0113542D02*
X0114956Y0113542D01*
X0114194Y0115940D02*
X0117354Y0115940D01*
X0113250Y0118339D02*
X0192650Y0118339D01*
X0192650Y0120737D02*
X0102975Y0120737D01*
X0102975Y0118339D02*
X0106769Y0118339D01*
X0104371Y0115940D02*
X0102975Y0115940D01*
X0102975Y0113542D02*
X0104300Y0113542D01*
X0104300Y0111143D02*
X0102975Y0111143D01*
X0102975Y0108745D02*
X0104300Y0108745D01*
X0104300Y0106346D02*
X0102108Y0106346D01*
X0104300Y0103948D02*
X0099709Y0103948D01*
X0097311Y0101549D02*
X0104300Y0101549D01*
X0102975Y0123136D02*
X0192650Y0123136D01*
X0192650Y0125534D02*
X0106962Y0125534D01*
X0107079Y0127933D02*
X0192650Y0127933D01*
X0192650Y0130332D02*
X0104375Y0130332D01*
X0104375Y0132730D02*
X0192650Y0132730D01*
X0192650Y0135129D02*
X0104375Y0135129D01*
X0104375Y0137527D02*
X0123380Y0137527D01*
X0133900Y0139990D02*
X0133900Y0140000D01*
X0140045Y0137527D02*
X0192085Y0137527D01*
X0190985Y0139926D02*
X0142224Y0139926D01*
X0142525Y0142324D02*
X0190985Y0142324D01*
X0191696Y0144723D02*
X0142525Y0144723D01*
X0142525Y0147121D02*
X0201350Y0147121D01*
X0201096Y0149520D02*
X0188972Y0149520D01*
X0184221Y0149520D02*
X0142525Y0149520D01*
X0125103Y0163911D02*
X0115354Y0163911D01*
X0114276Y0162833D02*
X0114276Y0162833D01*
X0115565Y0166309D02*
X0127385Y0166309D01*
X0115565Y0168708D02*
X0149934Y0168708D01*
X0150450Y0171106D02*
X0115565Y0171106D01*
X0116141Y0173505D02*
X0150409Y0173505D01*
X0154850Y0173505D02*
X0230294Y0173505D01*
X0229718Y0172782D02*
X0229718Y0172782D01*
X0213275Y0162500D02*
X0210150Y0159375D01*
X0210150Y0149375D01*
X0208787Y0148013D01*
X0205650Y0148013D01*
X0206075Y0144723D02*
X0196875Y0144723D01*
X0197361Y0142324D02*
X0197404Y0142324D01*
X0201825Y0142324D02*
X0206075Y0142324D01*
X0206075Y0139926D02*
X0202317Y0139926D01*
X0203863Y0137527D02*
X0208066Y0137527D01*
X0220475Y0139926D02*
X0233537Y0139926D01*
X0233816Y0142324D02*
X0220475Y0142324D01*
X0220475Y0144723D02*
X0235510Y0144723D01*
X0241765Y0144723D02*
X0241985Y0144723D01*
X0241985Y0147121D02*
X0218836Y0147121D01*
X0207150Y0159114D02*
X0203600Y0159114D01*
X0203600Y0161512D02*
X0206475Y0161512D01*
X0206499Y0163911D02*
X0203600Y0163911D01*
X0203600Y0166309D02*
X0207493Y0166309D01*
X0210492Y0168708D02*
X0203645Y0168708D01*
X0195812Y0168708D02*
X0194727Y0168708D01*
X0199850Y0120737D02*
X0204651Y0120737D01*
X0201978Y0118339D02*
X0199850Y0118339D01*
X0199850Y0115940D02*
X0199885Y0115940D01*
X0199850Y0113542D02*
X0200823Y0113542D01*
X0237650Y0103948D02*
X0237650Y0103948D01*
X0111165Y0168708D02*
X0042638Y0168708D01*
X0042118Y0166431D02*
X0042118Y0166431D01*
X0042500Y0171106D02*
X0111165Y0171106D01*
X0111165Y0173505D02*
X0041541Y0173505D01*
X0042118Y0172782D02*
X0042118Y0172782D01*
X0030961Y0163884D02*
X0030961Y0163884D01*
X0030940Y0163911D02*
X0029850Y0163911D01*
D25*
X0137650Y0096875D02*
X0137650Y0095446D01*
X0137734Y0095362D01*
X0137734Y0071791D01*
X0145834Y0063691D01*
X0145834Y0059375D01*
X0145834Y0039941D01*
X0154263Y0031512D01*
X0157678Y0031512D01*
X0178637Y0031512D01*
X0183900Y0026250D01*
X0180150Y0086191D02*
X0180150Y0096875D01*
X0178900Y0098125D01*
X0138900Y0098125D01*
X0137650Y0096875D01*
X0186400Y0151250D02*
X0187025Y0151250D01*
X0190150Y0154375D01*
X0204062Y0154375D01*
X0205650Y0154413D01*
D26*
X0145834Y0039941D02*
X0143393Y0037500D01*
X0122673Y0037500D01*
X0107650Y0037500D01*
D27*
X0117835Y0099190D02*
X0123126Y0099190D01*
X0125712Y0101775D01*
X0128900Y0101775D01*
X0130150Y0103025D01*
X0130150Y0104507D01*
X0130882Y0105240D01*
X0117835Y0099190D02*
X0117271Y0099754D01*
X0107896Y0099754D01*
X0106400Y0101250D01*
X0106400Y0115000D01*
X0107650Y0116250D01*
X0111430Y0116250D01*
D28*
X0084525Y0137500D02*
X0084525Y0140625D01*
X0084525Y0148750D01*
X0082025Y0151250D01*
X0073900Y0151250D01*
X0073875Y0151250D01*
X0070775Y0151250D01*
M02*
