G75*
%MOIN*%
%OFA0B0*%
%FSLAX25Y25*%
%IPPOS*%
%LPD*%
%AMOC8*
5,1,8,0,0,1.08239X$1,22.5*
%
%ADD10C,0.00600*%
%ADD11C,0.00100*%
%ADD12R,0.00080X0.00010*%
%ADD13R,0.00120X0.00010*%
%ADD14R,0.00160X0.00010*%
%ADD15R,0.00180X0.00010*%
%ADD16R,0.00200X0.00010*%
%ADD17R,0.00230X0.00010*%
%ADD18R,0.00250X0.00010*%
%ADD19R,0.00270X0.00010*%
%ADD20R,0.00290X0.00010*%
%ADD21R,0.00320X0.00010*%
%ADD22R,0.00330X0.00010*%
%ADD23R,0.00350X0.00010*%
%ADD24R,0.00370X0.00010*%
%ADD25R,0.00390X0.00010*%
%ADD26R,0.00420X0.00010*%
%ADD27R,0.00430X0.00010*%
%ADD28R,0.00450X0.00010*%
%ADD29R,0.00470X0.00010*%
%ADD30R,0.00490X0.00010*%
%ADD31R,0.00050X0.00010*%
%ADD32R,0.00500X0.00010*%
%ADD33R,0.00090X0.00010*%
%ADD34R,0.00520X0.00010*%
%ADD35R,0.00110X0.00010*%
%ADD36R,0.00550X0.00010*%
%ADD37R,0.00140X0.00010*%
%ADD38R,0.00560X0.00010*%
%ADD39R,0.00170X0.00010*%
%ADD40R,0.00580X0.00010*%
%ADD41R,0.00210X0.00010*%
%ADD42R,0.00590X0.00010*%
%ADD43R,0.00260X0.00010*%
%ADD44R,0.00610X0.00010*%
%ADD45R,0.00280X0.00010*%
%ADD46R,0.00010X0.00010*%
%ADD47R,0.00020X0.00010*%
%ADD48R,0.00620X0.00010*%
%ADD49R,0.00150X0.00010*%
%ADD50R,0.00630X0.00010*%
%ADD51R,0.00650X0.00010*%
%ADD52R,0.00660X0.00010*%
%ADD53R,0.00360X0.00010*%
%ADD54R,0.00680X0.00010*%
%ADD55R,0.00370X0.00010*%
%ADD56R,0.00240X0.00010*%
%ADD57R,0.00690X0.00010*%
%ADD58R,0.00380X0.00010*%
%ADD59R,0.00700X0.00010*%
%ADD60R,0.00710X0.00010*%
%ADD61R,0.00720X0.00010*%
%ADD62R,0.00740X0.00010*%
%ADD63R,0.00750X0.00010*%
%ADD64R,0.00760X0.00010*%
%ADD65R,0.00400X0.00010*%
%ADD66R,0.00300X0.00010*%
%ADD67R,0.00770X0.00010*%
%ADD68R,0.00310X0.00010*%
%ADD69R,0.00780X0.00010*%
%ADD70R,0.00790X0.00010*%
%ADD71R,0.00800X0.00010*%
%ADD72R,0.00810X0.00010*%
%ADD73R,0.00410X0.00010*%
%ADD74R,0.00340X0.00010*%
%ADD75R,0.00830X0.00010*%
%ADD76R,0.00840X0.00010*%
%ADD77R,0.00850X0.00010*%
%ADD78R,0.00870X0.00010*%
%ADD79R,0.00860X0.00010*%
%ADD80R,0.00870X0.00010*%
%ADD81R,0.00880X0.00010*%
%ADD82R,0.00440X0.00010*%
%ADD83R,0.00890X0.00010*%
%ADD84R,0.00460X0.00010*%
%ADD85R,0.00900X0.00010*%
%ADD86R,0.00480X0.00010*%
%ADD87R,0.00910X0.00010*%
%ADD88R,0.00920X0.00010*%
%ADD89R,0.00920X0.00010*%
%ADD90R,0.00510X0.00010*%
%ADD91R,0.00930X0.00010*%
%ADD92R,0.00520X0.00010*%
%ADD93R,0.00530X0.00010*%
%ADD94R,0.00940X0.00010*%
%ADD95R,0.00950X0.00010*%
%ADD96R,0.00600X0.00010*%
%ADD97R,0.00960X0.00010*%
%ADD98R,0.00670X0.00010*%
%ADD99R,0.00970X0.00010*%
%ADD100R,0.00770X0.00010*%
%ADD101R,0.00970X0.00010*%
%ADD102R,0.00980X0.00010*%
%ADD103R,0.00820X0.00010*%
%ADD104R,0.00990X0.00010*%
%ADD105R,0.00990X0.00010*%
%ADD106R,0.01010X0.00010*%
%ADD107R,0.01020X0.00010*%
%ADD108R,0.01040X0.00010*%
%ADD109R,0.01050X0.00010*%
%ADD110R,0.01060X0.00010*%
%ADD111R,0.01080X0.00010*%
%ADD112R,0.01090X0.00010*%
%ADD113R,0.01090X0.00010*%
%ADD114R,0.01110X0.00010*%
%ADD115R,0.01120X0.00010*%
%ADD116R,0.01130X0.00010*%
%ADD117R,0.01140X0.00010*%
%ADD118R,0.01160X0.00010*%
%ADD119R,0.01150X0.00010*%
%ADD120R,0.01170X0.00010*%
%ADD121R,0.00190X0.00010*%
%ADD122R,0.01180X0.00010*%
%ADD123R,0.01190X0.00010*%
%ADD124R,0.01190X0.00010*%
%ADD125R,0.01200X0.00010*%
%ADD126R,0.01210X0.00010*%
%ADD127R,0.01220X0.00010*%
%ADD128R,0.00730X0.00010*%
%ADD129R,0.01230X0.00010*%
%ADD130R,0.01250X0.00010*%
%ADD131R,0.01270X0.00010*%
%ADD132R,0.00570X0.00010*%
%ADD133R,0.00620X0.00010*%
%ADD134R,0.01290X0.00010*%
%ADD135R,0.00670X0.00010*%
%ADD136R,0.01310X0.00010*%
%ADD137R,0.01000X0.00010*%
%ADD138R,0.00790X0.00010*%
%ADD139R,0.01330X0.00010*%
%ADD140R,0.01030X0.00010*%
%ADD141R,0.01340X0.00010*%
%ADD142R,0.00940X0.00010*%
%ADD143R,0.01350X0.00010*%
%ADD144R,0.00890X0.00010*%
%ADD145R,0.01070X0.00010*%
%ADD146R,0.01360X0.00010*%
%ADD147R,0.01100X0.00010*%
%ADD148R,0.01380X0.00010*%
%ADD149R,0.01400X0.00010*%
%ADD150R,0.01960X0.00010*%
%ADD151R,0.01410X0.00010*%
%ADD152R,0.01950X0.00010*%
%ADD153R,0.01420X0.00010*%
%ADD154R,0.01430X0.00010*%
%ADD155R,0.01440X0.00010*%
%ADD156R,0.01450X0.00010*%
%ADD157R,0.01940X0.00010*%
%ADD158R,0.01460X0.00010*%
%ADD159R,0.01220X0.00010*%
%ADD160R,0.01240X0.00010*%
%ADD161R,0.01480X0.00010*%
%ADD162R,0.01490X0.00010*%
%ADD163R,0.01940X0.00010*%
%ADD164R,0.01500X0.00010*%
%ADD165R,0.01280X0.00010*%
%ADD166R,0.01510X0.00010*%
%ADD167R,0.01530X0.00010*%
%ADD168R,0.01300X0.00010*%
%ADD169R,0.01320X0.00010*%
%ADD170R,0.01540X0.00010*%
%ADD171R,0.01550X0.00010*%
%ADD172R,0.01560X0.00010*%
%ADD173R,0.01570X0.00010*%
%ADD174R,0.01370X0.00010*%
%ADD175R,0.01570X0.00010*%
%ADD176R,0.01930X0.00010*%
%ADD177R,0.01590X0.00010*%
%ADD178R,0.01600X0.00010*%
%ADD179R,0.01610X0.00010*%
%ADD180R,0.01920X0.00010*%
%ADD181R,0.03010X0.00010*%
%ADD182R,0.01910X0.00010*%
%ADD183R,0.02590X0.00010*%
%ADD184R,0.02570X0.00010*%
%ADD185R,0.01900X0.00010*%
%ADD186R,0.02550X0.00010*%
%ADD187R,0.01880X0.00010*%
%ADD188R,0.02540X0.00010*%
%ADD189R,0.01890X0.00010*%
%ADD190R,0.02530X0.00010*%
%ADD191R,0.02510X0.00010*%
%ADD192R,0.01870X0.00010*%
%ADD193R,0.02490X0.00010*%
%ADD194R,0.01860X0.00010*%
%ADD195R,0.02480X0.00010*%
%ADD196R,0.01850X0.00010*%
%ADD197R,0.02470X0.00010*%
%ADD198R,0.02460X0.00010*%
%ADD199R,0.01840X0.00010*%
%ADD200R,0.02450X0.00010*%
%ADD201R,0.01830X0.00010*%
%ADD202R,0.02440X0.00010*%
%ADD203R,0.02430X0.00010*%
%ADD204R,0.01820X0.00010*%
%ADD205R,0.02420X0.00010*%
%ADD206R,0.02400X0.00010*%
%ADD207R,0.01810X0.00010*%
%ADD208R,0.02390X0.00010*%
%ADD209R,0.01800X0.00010*%
%ADD210R,0.02370X0.00010*%
%ADD211R,0.01790X0.00010*%
%ADD212R,0.02350X0.00010*%
%ADD213R,0.01780X0.00010*%
%ADD214R,0.02340X0.00010*%
%ADD215R,0.02330X0.00010*%
%ADD216R,0.01770X0.00010*%
%ADD217R,0.02320X0.00010*%
%ADD218R,0.01760X0.00010*%
%ADD219R,0.02300X0.00010*%
%ADD220R,0.02280X0.00010*%
%ADD221R,0.01750X0.00010*%
%ADD222R,0.02270X0.00010*%
%ADD223R,0.02260X0.00010*%
%ADD224R,0.01740X0.00010*%
%ADD225R,0.02250X0.00010*%
%ADD226R,0.01720X0.00010*%
%ADD227R,0.02230X0.00010*%
%ADD228R,0.02210X0.00010*%
%ADD229R,0.01710X0.00010*%
%ADD230R,0.02200X0.00010*%
%ADD231R,0.00390X0.00010*%
%ADD232R,0.01700X0.00010*%
%ADD233R,0.02180X0.00010*%
%ADD234R,0.01690X0.00010*%
%ADD235R,0.02170X0.00010*%
%ADD236R,0.02140X0.00010*%
%ADD237R,0.01670X0.00010*%
%ADD238R,0.02130X0.00010*%
%ADD239R,0.01660X0.00010*%
%ADD240R,0.02110X0.00010*%
%ADD241R,0.02100X0.00010*%
%ADD242R,0.01680X0.00010*%
%ADD243R,0.02080X0.00010*%
%ADD244R,0.02060X0.00010*%
%ADD245R,0.01730X0.00010*%
%ADD246R,0.02040X0.00010*%
%ADD247R,0.01740X0.00010*%
%ADD248R,0.02020X0.00010*%
%ADD249R,0.02000X0.00010*%
%ADD250R,0.01980X0.00010*%
%ADD251R,0.01870X0.00010*%
%ADD252R,0.01920X0.00010*%
%ADD253R,0.01970X0.00010*%
%ADD254R,0.01990X0.00010*%
%ADD255R,0.01970X0.00010*%
%ADD256R,0.02030X0.00010*%
%ADD257R,0.02010X0.00010*%
%ADD258R,0.02050X0.00010*%
%ADD259R,0.02070X0.00010*%
%ADD260R,0.02090X0.00010*%
%ADD261R,0.02120X0.00010*%
%ADD262R,0.02140X0.00010*%
%ADD263R,0.02150X0.00010*%
%ADD264R,0.02290X0.00010*%
%ADD265R,0.02310X0.00010*%
%ADD266R,0.02360X0.00010*%
%ADD267R,0.02380X0.00010*%
%ADD268R,0.02410X0.00010*%
%ADD269R,0.02390X0.00010*%
%ADD270R,0.00470X0.00010*%
%ADD271R,0.02470X0.00010*%
%ADD272R,0.02520X0.00010*%
%ADD273R,0.02500X0.00010*%
%ADD274R,0.03020X0.00010*%
%ADD275R,0.02610X0.00010*%
%ADD276R,0.02640X0.00010*%
%ADD277R,0.02650X0.00010*%
%ADD278R,0.02690X0.00010*%
%ADD279R,0.03170X0.00010*%
%ADD280R,0.03160X0.00010*%
%ADD281R,0.03030X0.00010*%
%ADD282R,0.03170X0.00010*%
%ADD283R,0.00720X0.00010*%
%ADD284R,0.00820X0.00010*%
%ADD285R,0.02220X0.00010*%
%ADD286R,0.02020X0.00010*%
%ADD287R,0.02190X0.00010*%
%ADD288R,0.02070X0.00010*%
%ADD289R,0.00640X0.00010*%
%ADD290R,0.00020X0.00010*%
%ADD291R,0.00840X0.00010*%
%ADD292R,0.00420X0.00010*%
%ADD293R,0.02090X0.00010*%
%ADD294R,0.02340X0.00010*%
%ADD295R,0.01520X0.00010*%
%ADD296R,0.01580X0.00010*%
%ADD297R,0.01640X0.00010*%
%ADD298R,0.00640X0.00010*%
%ADD299R,0.00440X0.00010*%
%ADD300R,0.02120X0.00010*%
%ADD301R,0.00030X0.00010*%
%ADD302R,0.00070X0.00010*%
%ADD303R,0.03090X0.00010*%
%ADD304R,0.03070X0.00010*%
%ADD305R,0.03060X0.00010*%
%ADD306R,0.03050X0.00010*%
%ADD307R,0.00040X0.00010*%
%ADD308R,0.00060X0.00010*%
%ADD309R,0.03000X0.00010*%
%ADD310R,0.00290X0.00010*%
%ADD311R,0.00100X0.00010*%
%ADD312R,0.02970X0.00010*%
%ADD313R,0.00540X0.00010*%
%ADD314R,0.00240X0.00010*%
%ADD315R,0.02970X0.00010*%
%ADD316R,0.00040X0.00010*%
%ADD317R,0.00130X0.00010*%
%ADD318R,0.00220X0.00010*%
%ADD319R,0.02960X0.00010*%
%ADD320R,0.00140X0.00010*%
%ADD321R,0.02940X0.00010*%
%ADD322R,0.02990X0.00010*%
%ADD323R,0.00320X0.00010*%
%ADD324R,0.02930X0.00010*%
%ADD325R,0.00340X0.00010*%
%ADD326R,0.02910X0.00010*%
%ADD327R,0.00570X0.00010*%
%ADD328R,0.02900X0.00010*%
%ADD329R,0.02890X0.00010*%
%ADD330R,0.00190X0.00010*%
%ADD331R,0.02880X0.00010*%
%ADD332R,0.02870X0.00010*%
%ADD333R,0.02850X0.00010*%
%ADD334R,0.02830X0.00010*%
%ADD335R,0.02890X0.00010*%
%ADD336R,0.00220X0.00010*%
%ADD337R,0.02840X0.00010*%
%ADD338R,0.02810X0.00010*%
%ADD339R,0.02860X0.00010*%
%ADD340R,0.02800X0.00010*%
%ADD341R,0.02780X0.00010*%
%ADD342R,0.02980X0.00010*%
%ADD343R,0.02770X0.00010*%
%ADD344R,0.02790X0.00010*%
%ADD345R,0.02760X0.00010*%
%ADD346R,0.02770X0.00010*%
%ADD347R,0.02750X0.00010*%
%ADD348R,0.02740X0.00010*%
%ADD349R,0.02720X0.00010*%
%ADD350R,0.02720X0.00010*%
%ADD351R,0.02710X0.00010*%
%ADD352R,0.03260X0.00010*%
%ADD353R,0.02700X0.00010*%
%ADD354R,0.01260X0.00010*%
%ADD355R,0.01890X0.00010*%
%ADD356R,0.02160X0.00010*%
%ADD357R,0.01820X0.00010*%
%ADD358R,0.01120X0.00010*%
%ADD359R,0.01720X0.00010*%
%ADD360R,0.02040X0.00010*%
%ADD361R,0.01670X0.00010*%
%ADD362R,0.01650X0.00010*%
%ADD363R,0.00540X0.00010*%
%ADD364R,0.01630X0.00010*%
%ADD365R,0.01620X0.00010*%
%ADD366R,0.01520X0.00010*%
%ADD367R,0.01770X0.00010*%
%ADD368R,0.01470X0.00010*%
%ADD369R,0.01590X0.00010*%
%ADD370R,0.00590X0.00010*%
%ADD371R,0.01620X0.00010*%
%ADD372R,0.01340X0.00010*%
%ADD373R,0.01320X0.00010*%
%ADD374R,0.01540X0.00010*%
%ADD375R,0.01290X0.00010*%
%ADD376R,0.01490X0.00010*%
%ADD377R,0.01470X0.00010*%
%ADD378R,0.01240X0.00010*%
%ADD379R,0.01420X0.00010*%
%ADD380R,0.01390X0.00010*%
%ADD381R,0.01170X0.00010*%
%ADD382R,0.00690X0.00010*%
%ADD383R,0.01690X0.00010*%
%ADD384R,0.01020X0.00010*%
%ADD385R,0.00740X0.00010*%
%ADD386R,0.01140X0.00010*%
%ADD387R,0.01270X0.00010*%
%ADD388R,0.01440X0.00010*%
%ADD389R,0.01390X0.00010*%
%ADD390R,0.03040X0.00010*%
%ADD391R,0.04790X0.00010*%
%ADD392R,0.04810X0.00010*%
%ADD393R,0.04820X0.00010*%
%ADD394R,0.04840X0.00010*%
%ADD395R,0.04860X0.00010*%
%ADD396R,0.04880X0.00010*%
%ADD397R,0.04900X0.00010*%
%ADD398R,0.04920X0.00010*%
%ADD399R,0.04940X0.00010*%
%ADD400R,0.04960X0.00010*%
%ADD401R,0.04980X0.00010*%
%ADD402R,0.04990X0.00010*%
%ADD403R,0.05020X0.00010*%
%ADD404R,0.05030X0.00010*%
%ADD405R,0.05060X0.00010*%
%ADD406R,0.05070X0.00010*%
%ADD407R,0.05090X0.00010*%
%ADD408R,0.05110X0.00010*%
%ADD409R,0.05130X0.00010*%
%ADD410R,0.05160X0.00010*%
%ADD411R,0.05170X0.00010*%
%ADD412R,0.05210X0.00010*%
%ADD413R,0.05220X0.00010*%
%ADD414R,0.05240X0.00010*%
%ADD415R,0.05270X0.00010*%
%ADD416R,0.02440X0.00010*%
%ADD417R,0.02290X0.00010*%
%ADD418R,0.01370X0.00010*%
%ADD419R,0.01070X0.00010*%
%ADD420R,0.01040X0.00010*%
%ADD421R,0.00270X0.00010*%
%ADD422R,0.00170X0.00010*%
%ADD423C,0.00500*%
%ADD424C,0.00787*%
%ADD425C,0.00800*%
%ADD426R,0.00787X0.03150*%
%ADD427C,0.00200*%
%ADD428R,0.09000X0.02500*%
%ADD429C,0.01414*%
%ADD430C,0.01000*%
%ADD431C,0.01969*%
%ADD432R,0.03937X0.00787*%
%ADD433C,0.01181*%
D10*
X0028250Y0020400D02*
X0244785Y0020400D01*
X0244785Y0177880D01*
X0028250Y0177880D01*
X0028250Y0020400D01*
X0095957Y0158350D02*
X0095957Y0166225D01*
X0098712Y0164256D02*
X0097138Y0161894D01*
X0100287Y0161894D01*
X0098712Y0164256D01*
X0101468Y0166225D02*
X0101468Y0158350D01*
X0212500Y0156400D02*
X0212500Y0153900D01*
X0221500Y0153900D01*
X0221500Y0156400D01*
X0217000Y0156400D01*
X0212500Y0156400D01*
X0217000Y0156400D02*
X0217000Y0157400D01*
X0197000Y0152900D02*
X0197006Y0153391D01*
X0197024Y0153881D01*
X0197054Y0154371D01*
X0197096Y0154860D01*
X0197150Y0155348D01*
X0197216Y0155835D01*
X0197294Y0156319D01*
X0197384Y0156802D01*
X0197486Y0157282D01*
X0197599Y0157760D01*
X0197724Y0158234D01*
X0197861Y0158706D01*
X0198009Y0159174D01*
X0198169Y0159638D01*
X0198340Y0160098D01*
X0198522Y0160554D01*
X0198716Y0161005D01*
X0198920Y0161451D01*
X0199136Y0161892D01*
X0199362Y0162328D01*
X0199598Y0162758D01*
X0199845Y0163182D01*
X0200103Y0163600D01*
X0200371Y0164011D01*
X0200648Y0164416D01*
X0200936Y0164814D01*
X0201233Y0165205D01*
X0201540Y0165588D01*
X0201856Y0165963D01*
X0202181Y0166331D01*
X0202515Y0166691D01*
X0202858Y0167042D01*
X0203209Y0167385D01*
X0203569Y0167719D01*
X0203937Y0168044D01*
X0204312Y0168360D01*
X0204695Y0168667D01*
X0205086Y0168964D01*
X0205484Y0169252D01*
X0205889Y0169529D01*
X0206300Y0169797D01*
X0206718Y0170055D01*
X0207142Y0170302D01*
X0207572Y0170538D01*
X0208008Y0170764D01*
X0208449Y0170980D01*
X0208895Y0171184D01*
X0209346Y0171378D01*
X0209802Y0171560D01*
X0210262Y0171731D01*
X0210726Y0171891D01*
X0211194Y0172039D01*
X0211666Y0172176D01*
X0212140Y0172301D01*
X0212618Y0172414D01*
X0213098Y0172516D01*
X0213581Y0172606D01*
X0214065Y0172684D01*
X0214552Y0172750D01*
X0215040Y0172804D01*
X0215529Y0172846D01*
X0216019Y0172876D01*
X0216509Y0172894D01*
X0217000Y0172900D01*
X0217491Y0172894D01*
X0217981Y0172876D01*
X0218471Y0172846D01*
X0218960Y0172804D01*
X0219448Y0172750D01*
X0219935Y0172684D01*
X0220419Y0172606D01*
X0220902Y0172516D01*
X0221382Y0172414D01*
X0221860Y0172301D01*
X0222334Y0172176D01*
X0222806Y0172039D01*
X0223274Y0171891D01*
X0223738Y0171731D01*
X0224198Y0171560D01*
X0224654Y0171378D01*
X0225105Y0171184D01*
X0225551Y0170980D01*
X0225992Y0170764D01*
X0226428Y0170538D01*
X0226858Y0170302D01*
X0227282Y0170055D01*
X0227700Y0169797D01*
X0228111Y0169529D01*
X0228516Y0169252D01*
X0228914Y0168964D01*
X0229305Y0168667D01*
X0229688Y0168360D01*
X0230063Y0168044D01*
X0230431Y0167719D01*
X0230791Y0167385D01*
X0231142Y0167042D01*
X0231485Y0166691D01*
X0231819Y0166331D01*
X0232144Y0165963D01*
X0232460Y0165588D01*
X0232767Y0165205D01*
X0233064Y0164814D01*
X0233352Y0164416D01*
X0233629Y0164011D01*
X0233897Y0163600D01*
X0234155Y0163182D01*
X0234402Y0162758D01*
X0234638Y0162328D01*
X0234864Y0161892D01*
X0235080Y0161451D01*
X0235284Y0161005D01*
X0235478Y0160554D01*
X0235660Y0160098D01*
X0235831Y0159638D01*
X0235991Y0159174D01*
X0236139Y0158706D01*
X0236276Y0158234D01*
X0236401Y0157760D01*
X0236514Y0157282D01*
X0236616Y0156802D01*
X0236706Y0156319D01*
X0236784Y0155835D01*
X0236850Y0155348D01*
X0236904Y0154860D01*
X0236946Y0154371D01*
X0236976Y0153881D01*
X0236994Y0153391D01*
X0237000Y0152900D01*
X0236994Y0152409D01*
X0236976Y0151919D01*
X0236946Y0151429D01*
X0236904Y0150940D01*
X0236850Y0150452D01*
X0236784Y0149965D01*
X0236706Y0149481D01*
X0236616Y0148998D01*
X0236514Y0148518D01*
X0236401Y0148040D01*
X0236276Y0147566D01*
X0236139Y0147094D01*
X0235991Y0146626D01*
X0235831Y0146162D01*
X0235660Y0145702D01*
X0235478Y0145246D01*
X0235284Y0144795D01*
X0235080Y0144349D01*
X0234864Y0143908D01*
X0234638Y0143472D01*
X0234402Y0143042D01*
X0234155Y0142618D01*
X0233897Y0142200D01*
X0233629Y0141789D01*
X0233352Y0141384D01*
X0233064Y0140986D01*
X0232767Y0140595D01*
X0232460Y0140212D01*
X0232144Y0139837D01*
X0231819Y0139469D01*
X0231485Y0139109D01*
X0231142Y0138758D01*
X0230791Y0138415D01*
X0230431Y0138081D01*
X0230063Y0137756D01*
X0229688Y0137440D01*
X0229305Y0137133D01*
X0228914Y0136836D01*
X0228516Y0136548D01*
X0228111Y0136271D01*
X0227700Y0136003D01*
X0227282Y0135745D01*
X0226858Y0135498D01*
X0226428Y0135262D01*
X0225992Y0135036D01*
X0225551Y0134820D01*
X0225105Y0134616D01*
X0224654Y0134422D01*
X0224198Y0134240D01*
X0223738Y0134069D01*
X0223274Y0133909D01*
X0222806Y0133761D01*
X0222334Y0133624D01*
X0221860Y0133499D01*
X0221382Y0133386D01*
X0220902Y0133284D01*
X0220419Y0133194D01*
X0219935Y0133116D01*
X0219448Y0133050D01*
X0218960Y0132996D01*
X0218471Y0132954D01*
X0217981Y0132924D01*
X0217491Y0132906D01*
X0217000Y0132900D01*
X0216509Y0132906D01*
X0216019Y0132924D01*
X0215529Y0132954D01*
X0215040Y0132996D01*
X0214552Y0133050D01*
X0214065Y0133116D01*
X0213581Y0133194D01*
X0213098Y0133284D01*
X0212618Y0133386D01*
X0212140Y0133499D01*
X0211666Y0133624D01*
X0211194Y0133761D01*
X0210726Y0133909D01*
X0210262Y0134069D01*
X0209802Y0134240D01*
X0209346Y0134422D01*
X0208895Y0134616D01*
X0208449Y0134820D01*
X0208008Y0135036D01*
X0207572Y0135262D01*
X0207142Y0135498D01*
X0206718Y0135745D01*
X0206300Y0136003D01*
X0205889Y0136271D01*
X0205484Y0136548D01*
X0205086Y0136836D01*
X0204695Y0137133D01*
X0204312Y0137440D01*
X0203937Y0137756D01*
X0203569Y0138081D01*
X0203209Y0138415D01*
X0202858Y0138758D01*
X0202515Y0139109D01*
X0202181Y0139469D01*
X0201856Y0139837D01*
X0201540Y0140212D01*
X0201233Y0140595D01*
X0200936Y0140986D01*
X0200648Y0141384D01*
X0200371Y0141789D01*
X0200103Y0142200D01*
X0199845Y0142618D01*
X0199598Y0143042D01*
X0199362Y0143472D01*
X0199136Y0143908D01*
X0198920Y0144349D01*
X0198716Y0144795D01*
X0198522Y0145246D01*
X0198340Y0145702D01*
X0198169Y0146162D01*
X0198009Y0146626D01*
X0197861Y0147094D01*
X0197724Y0147566D01*
X0197599Y0148040D01*
X0197486Y0148518D01*
X0197384Y0148998D01*
X0197294Y0149481D01*
X0197216Y0149965D01*
X0197150Y0150452D01*
X0197096Y0150940D01*
X0197054Y0151429D01*
X0197024Y0151919D01*
X0197006Y0152409D01*
X0197000Y0152900D01*
X0217000Y0150400D02*
X0217000Y0148400D01*
X0222000Y0166400D02*
X0222000Y0169400D01*
X0223500Y0167900D02*
X0220500Y0167900D01*
D11*
X0226598Y0155891D02*
X0227749Y0154740D01*
X0227749Y0156275D01*
X0228900Y0155891D02*
X0226598Y0155891D01*
X0226982Y0154065D02*
X0226598Y0153681D01*
X0226598Y0152914D01*
X0226982Y0152530D01*
X0228516Y0152530D01*
X0228900Y0152914D01*
X0228900Y0153681D01*
X0228516Y0154065D01*
X0240273Y0151021D02*
X0240273Y0149870D01*
X0242575Y0149870D01*
X0242575Y0151021D01*
X0242191Y0151404D01*
X0240657Y0151404D01*
X0240273Y0151021D01*
X0240657Y0149195D02*
X0240273Y0148811D01*
X0240273Y0147660D01*
X0242575Y0147660D01*
X0242575Y0148811D01*
X0242191Y0149195D01*
X0240657Y0149195D01*
X0240273Y0146985D02*
X0241808Y0146985D01*
X0242575Y0146217D01*
X0241808Y0145450D01*
X0240273Y0145450D01*
X0234629Y0138592D02*
X0235012Y0138208D01*
X0235012Y0137441D01*
X0234629Y0137057D01*
X0233862Y0136382D02*
X0234245Y0135998D01*
X0234245Y0134847D01*
X0235012Y0134847D02*
X0232711Y0134847D01*
X0232711Y0135998D01*
X0233094Y0136382D01*
X0233862Y0136382D01*
X0233094Y0137057D02*
X0232711Y0137441D01*
X0232711Y0138208D01*
X0233094Y0138592D01*
X0233478Y0138592D01*
X0233862Y0138208D01*
X0234245Y0138592D01*
X0234629Y0138592D01*
X0233862Y0138208D02*
X0233862Y0137825D01*
X0232711Y0134172D02*
X0232711Y0133405D01*
X0232711Y0133788D02*
X0234629Y0133788D01*
X0235012Y0133405D01*
X0235012Y0133021D01*
X0234629Y0132638D01*
X0231261Y0126614D02*
X0230110Y0125463D01*
X0231645Y0125463D01*
X0231261Y0124312D02*
X0231261Y0126614D01*
X0229435Y0126231D02*
X0229435Y0125463D01*
X0229051Y0125080D01*
X0227900Y0125080D01*
X0228667Y0125080D02*
X0229435Y0124312D01*
X0227900Y0124312D02*
X0227900Y0126614D01*
X0229051Y0126614D01*
X0229435Y0126231D01*
X0229051Y0121614D02*
X0229435Y0121231D01*
X0229435Y0120463D01*
X0229051Y0120080D01*
X0227900Y0120080D01*
X0228667Y0120080D02*
X0229435Y0119312D01*
X0230110Y0119696D02*
X0230494Y0119312D01*
X0231261Y0119312D01*
X0231645Y0119696D01*
X0231645Y0120463D01*
X0231261Y0120847D01*
X0230877Y0120847D01*
X0230110Y0120463D01*
X0230110Y0121614D01*
X0231645Y0121614D01*
X0229051Y0121614D02*
X0227900Y0121614D01*
X0227900Y0119312D01*
X0227900Y0115364D02*
X0229051Y0115364D01*
X0229435Y0114981D01*
X0229435Y0114213D01*
X0229051Y0113830D01*
X0227900Y0113830D01*
X0228667Y0113830D02*
X0229435Y0113062D01*
X0230110Y0113446D02*
X0230494Y0113062D01*
X0231261Y0113062D01*
X0231645Y0113446D01*
X0231645Y0113830D01*
X0231261Y0114213D01*
X0230877Y0114213D01*
X0231261Y0114213D02*
X0231645Y0114597D01*
X0231645Y0114981D01*
X0231261Y0115364D01*
X0230494Y0115364D01*
X0230110Y0114981D01*
X0227900Y0115364D02*
X0227900Y0113062D01*
X0227900Y0109114D02*
X0229051Y0109114D01*
X0229435Y0108731D01*
X0229435Y0107963D01*
X0229051Y0107580D01*
X0227900Y0107580D01*
X0228667Y0107580D02*
X0229435Y0106812D01*
X0230110Y0106812D02*
X0231645Y0108347D01*
X0231645Y0108731D01*
X0231261Y0109114D01*
X0230494Y0109114D01*
X0230110Y0108731D01*
X0230110Y0106812D02*
X0231645Y0106812D01*
X0227900Y0106812D02*
X0227900Y0109114D01*
X0231299Y0101840D02*
X0231299Y0100305D01*
X0230148Y0101456D01*
X0232450Y0101456D01*
X0231299Y0099630D02*
X0231683Y0099246D01*
X0231683Y0098095D01*
X0232450Y0098095D02*
X0230148Y0098095D01*
X0230148Y0099246D01*
X0230532Y0099630D01*
X0231299Y0099630D01*
X0230148Y0097420D02*
X0230148Y0096652D01*
X0230148Y0097036D02*
X0232066Y0097036D01*
X0232450Y0096652D01*
X0232450Y0096269D01*
X0232066Y0095885D01*
X0212250Y0095596D02*
X0211866Y0095212D01*
X0210332Y0095212D01*
X0209948Y0095596D01*
X0209948Y0096363D01*
X0210332Y0096747D01*
X0210715Y0097422D02*
X0209948Y0098190D01*
X0212250Y0098190D01*
X0212250Y0098957D02*
X0212250Y0097422D01*
X0211866Y0096747D02*
X0212250Y0096363D01*
X0212250Y0095596D01*
X0212250Y0099632D02*
X0210715Y0101167D01*
X0210332Y0101167D01*
X0209948Y0100783D01*
X0209948Y0100016D01*
X0210332Y0099632D01*
X0212250Y0099632D02*
X0212250Y0101167D01*
X0198700Y0106526D02*
X0198700Y0107294D01*
X0198316Y0107677D01*
X0198316Y0108353D02*
X0198700Y0108736D01*
X0198700Y0109504D01*
X0198316Y0109887D01*
X0197933Y0109887D01*
X0197549Y0109504D01*
X0197549Y0108353D01*
X0198316Y0108353D01*
X0197549Y0108353D02*
X0196782Y0109120D01*
X0196398Y0109887D01*
X0196782Y0107677D02*
X0196398Y0107294D01*
X0196398Y0106526D01*
X0196782Y0106143D01*
X0198316Y0106143D01*
X0198700Y0106526D01*
X0194067Y0095833D02*
X0194067Y0093531D01*
X0193300Y0093531D02*
X0194835Y0093531D01*
X0193300Y0095065D02*
X0194067Y0095833D01*
X0192625Y0095833D02*
X0192625Y0095449D01*
X0191857Y0094682D01*
X0191857Y0093531D01*
X0191857Y0094682D02*
X0191090Y0095449D01*
X0191090Y0095833D01*
X0181200Y0096584D02*
X0181200Y0097351D01*
X0180816Y0097735D01*
X0180816Y0098410D02*
X0181200Y0098794D01*
X0181200Y0099561D01*
X0180816Y0099945D01*
X0179282Y0099945D01*
X0178898Y0099561D01*
X0178898Y0098794D01*
X0179282Y0098410D01*
X0179665Y0098410D01*
X0180049Y0098794D01*
X0180049Y0099945D01*
X0179282Y0097735D02*
X0178898Y0097351D01*
X0178898Y0096584D01*
X0179282Y0096200D01*
X0180816Y0096200D01*
X0181200Y0096584D01*
X0175825Y0099459D02*
X0175825Y0100226D01*
X0175441Y0100610D01*
X0175825Y0101285D02*
X0174290Y0102820D01*
X0173907Y0102820D01*
X0173523Y0102436D01*
X0173523Y0101669D01*
X0173907Y0101285D01*
X0173907Y0100610D02*
X0173523Y0100226D01*
X0173523Y0099459D01*
X0173907Y0099075D01*
X0175441Y0099075D01*
X0175825Y0099459D01*
X0175825Y0101285D02*
X0175825Y0102820D01*
X0175441Y0103495D02*
X0175825Y0103878D01*
X0175825Y0104646D01*
X0175441Y0105029D01*
X0175058Y0105029D01*
X0174674Y0104646D01*
X0174674Y0103495D01*
X0175441Y0103495D01*
X0174674Y0103495D02*
X0173907Y0104262D01*
X0173523Y0105029D01*
X0170825Y0104646D02*
X0170825Y0103878D01*
X0170441Y0103495D01*
X0169674Y0103495D02*
X0169290Y0104262D01*
X0169290Y0104646D01*
X0169674Y0105029D01*
X0170441Y0105029D01*
X0170825Y0104646D01*
X0169674Y0103495D02*
X0168523Y0103495D01*
X0168523Y0105029D01*
X0168907Y0102820D02*
X0168523Y0102436D01*
X0168523Y0101669D01*
X0168907Y0101285D01*
X0168907Y0100610D02*
X0168523Y0100226D01*
X0168523Y0099459D01*
X0168907Y0099075D01*
X0170441Y0099075D01*
X0170825Y0099459D01*
X0170825Y0100226D01*
X0170441Y0100610D01*
X0170825Y0101285D02*
X0169290Y0102820D01*
X0168907Y0102820D01*
X0170825Y0102820D02*
X0170825Y0101285D01*
X0159545Y0100877D02*
X0158010Y0100877D01*
X0158010Y0099726D01*
X0158777Y0100110D01*
X0159161Y0100110D01*
X0159545Y0099726D01*
X0159545Y0098959D01*
X0159161Y0098575D01*
X0158394Y0098575D01*
X0158010Y0098959D01*
X0157335Y0098575D02*
X0155800Y0098575D01*
X0155800Y0100877D01*
X0149588Y0106281D02*
X0149588Y0106665D01*
X0149204Y0107049D01*
X0147286Y0107049D01*
X0147286Y0107432D02*
X0147286Y0106665D01*
X0147286Y0108108D02*
X0147286Y0109259D01*
X0147669Y0109642D01*
X0148437Y0109642D01*
X0148820Y0109259D01*
X0148820Y0108108D01*
X0149588Y0108108D02*
X0147286Y0108108D01*
X0147286Y0110317D02*
X0148437Y0110317D01*
X0148053Y0111085D01*
X0148053Y0111468D01*
X0148437Y0111852D01*
X0149204Y0111852D01*
X0149588Y0111468D01*
X0149588Y0110701D01*
X0149204Y0110317D01*
X0147286Y0110317D02*
X0147286Y0111852D01*
X0149588Y0106281D02*
X0149204Y0105898D01*
X0131862Y0108337D02*
X0130328Y0108337D01*
X0131862Y0109872D01*
X0131862Y0110256D01*
X0131479Y0110639D01*
X0130711Y0110639D01*
X0130328Y0110256D01*
X0128885Y0110639D02*
X0128885Y0108337D01*
X0128118Y0108337D02*
X0129652Y0108337D01*
X0128118Y0109872D02*
X0128885Y0110639D01*
X0127442Y0110256D02*
X0127442Y0109488D01*
X0127059Y0109105D01*
X0125908Y0109105D01*
X0126675Y0109105D02*
X0127442Y0108337D01*
X0125908Y0108337D02*
X0125908Y0110639D01*
X0127059Y0110639D01*
X0127442Y0110256D01*
X0127442Y0114462D02*
X0126675Y0115230D01*
X0127059Y0115230D02*
X0125908Y0115230D01*
X0125908Y0114462D02*
X0125908Y0116764D01*
X0127059Y0116764D01*
X0127442Y0116381D01*
X0127442Y0115613D01*
X0127059Y0115230D01*
X0128118Y0115997D02*
X0128885Y0116764D01*
X0128885Y0114462D01*
X0128118Y0114462D02*
X0129652Y0114462D01*
X0130328Y0114462D02*
X0131862Y0114462D01*
X0131095Y0114462D02*
X0131095Y0116764D01*
X0130328Y0115997D01*
X0133259Y0123425D02*
X0134026Y0123425D01*
X0134410Y0123809D01*
X0135085Y0123809D02*
X0135469Y0123425D01*
X0136236Y0123425D01*
X0136620Y0123809D01*
X0136620Y0124192D01*
X0136236Y0124576D01*
X0135852Y0124576D01*
X0136236Y0124576D02*
X0136620Y0124960D01*
X0136620Y0125343D01*
X0136236Y0125727D01*
X0135469Y0125727D01*
X0135085Y0125343D01*
X0134410Y0125343D02*
X0134026Y0125727D01*
X0133259Y0125727D01*
X0132875Y0125343D01*
X0132875Y0123809D01*
X0133259Y0123425D01*
X0141882Y0133863D02*
X0143416Y0133863D01*
X0143800Y0134246D01*
X0143800Y0135013D01*
X0143416Y0135397D01*
X0143800Y0136072D02*
X0142265Y0137607D01*
X0141882Y0137607D01*
X0141498Y0137223D01*
X0141498Y0136456D01*
X0141882Y0136072D01*
X0141882Y0135397D02*
X0141498Y0135013D01*
X0141498Y0134246D01*
X0141882Y0133863D01*
X0143800Y0136072D02*
X0143800Y0137607D01*
X0131968Y0144021D02*
X0131584Y0143638D01*
X0130817Y0143638D01*
X0130433Y0144021D01*
X0129758Y0144021D02*
X0129374Y0143638D01*
X0128607Y0143638D01*
X0128223Y0144021D01*
X0128223Y0145556D01*
X0128607Y0145939D01*
X0129374Y0145939D01*
X0129758Y0145556D01*
X0130433Y0145556D02*
X0130817Y0145939D01*
X0131584Y0145939D01*
X0131968Y0145556D01*
X0131968Y0145172D01*
X0131584Y0144788D01*
X0131968Y0144405D01*
X0131968Y0144021D01*
X0131584Y0144788D02*
X0131200Y0144788D01*
X0127517Y0143638D02*
X0126750Y0143638D01*
X0127134Y0143638D02*
X0127134Y0145939D01*
X0127517Y0145939D02*
X0126750Y0145939D01*
X0126513Y0153238D02*
X0125746Y0153238D01*
X0125362Y0153621D01*
X0125362Y0155156D01*
X0125746Y0155539D01*
X0126513Y0155539D01*
X0126897Y0155156D01*
X0127572Y0154772D02*
X0128340Y0155539D01*
X0128340Y0153238D01*
X0129107Y0153238D02*
X0127572Y0153238D01*
X0126897Y0153621D02*
X0126513Y0153238D01*
X0129782Y0153621D02*
X0130166Y0153238D01*
X0130933Y0153238D01*
X0131317Y0153621D01*
X0131317Y0154005D01*
X0130933Y0154388D01*
X0129782Y0154388D01*
X0129782Y0153621D01*
X0129782Y0154388D02*
X0130550Y0155156D01*
X0131317Y0155539D01*
X0136498Y0155826D02*
X0136498Y0155059D01*
X0136882Y0154675D01*
X0138416Y0154675D01*
X0138800Y0155059D01*
X0138800Y0155826D01*
X0138416Y0156210D01*
X0138800Y0156885D02*
X0138800Y0158420D01*
X0138800Y0157652D02*
X0136498Y0157652D01*
X0137265Y0156885D01*
X0136882Y0156210D02*
X0136498Y0155826D01*
X0138684Y0170450D02*
X0138300Y0170834D01*
X0138300Y0172368D01*
X0138684Y0172752D01*
X0139451Y0172752D01*
X0139835Y0172368D01*
X0139835Y0170834D01*
X0139451Y0170450D01*
X0138684Y0170450D01*
X0139067Y0171217D02*
X0139835Y0170450D01*
X0140510Y0170450D02*
X0142045Y0170450D01*
X0141277Y0170450D02*
X0141277Y0172752D01*
X0140510Y0171985D01*
X0131950Y0171985D02*
X0131183Y0171217D01*
X0131183Y0171601D02*
X0131183Y0170450D01*
X0131950Y0170450D02*
X0129648Y0170450D01*
X0129648Y0171601D01*
X0130032Y0171985D01*
X0130799Y0171985D01*
X0131183Y0171601D01*
X0131950Y0172660D02*
X0131950Y0174195D01*
X0131950Y0173427D02*
X0129648Y0173427D01*
X0130415Y0172660D01*
X0130799Y0174870D02*
X0130799Y0176404D01*
X0129648Y0176021D02*
X0130799Y0174870D01*
X0131950Y0176021D02*
X0129648Y0176021D01*
X0125700Y0176021D02*
X0125700Y0175253D01*
X0125316Y0174870D01*
X0124549Y0174870D02*
X0124165Y0175637D01*
X0124165Y0176021D01*
X0124549Y0176404D01*
X0125316Y0176404D01*
X0125700Y0176021D01*
X0124549Y0174870D02*
X0123398Y0174870D01*
X0123398Y0176404D01*
X0123398Y0173427D02*
X0125700Y0173427D01*
X0125700Y0172660D02*
X0125700Y0174195D01*
X0124165Y0172660D02*
X0123398Y0173427D01*
X0123782Y0171985D02*
X0124549Y0171985D01*
X0124933Y0171601D01*
X0124933Y0170450D01*
X0125700Y0170450D02*
X0123398Y0170450D01*
X0123398Y0171601D01*
X0123782Y0171985D01*
X0124933Y0171217D02*
X0125700Y0171985D01*
X0119850Y0171897D02*
X0119083Y0171130D01*
X0119083Y0171513D02*
X0119083Y0170363D01*
X0119850Y0170363D02*
X0117548Y0170363D01*
X0117548Y0171513D01*
X0117932Y0171897D01*
X0118699Y0171897D01*
X0119083Y0171513D01*
X0119083Y0172572D02*
X0118699Y0172956D01*
X0118699Y0173723D01*
X0119083Y0174107D01*
X0119466Y0174107D01*
X0119850Y0173723D01*
X0119850Y0172956D01*
X0119466Y0172572D01*
X0119083Y0172572D01*
X0118699Y0172956D02*
X0118315Y0172572D01*
X0117932Y0172572D01*
X0117548Y0172956D01*
X0117548Y0173723D01*
X0117932Y0174107D01*
X0118315Y0174107D01*
X0118699Y0173723D01*
X0113475Y0173723D02*
X0113091Y0174107D01*
X0111557Y0174107D01*
X0111173Y0173723D01*
X0111173Y0172956D01*
X0111557Y0172572D01*
X0111940Y0172572D01*
X0112324Y0172956D01*
X0112324Y0174107D01*
X0113475Y0173723D02*
X0113475Y0172956D01*
X0113091Y0172572D01*
X0113475Y0171897D02*
X0112708Y0171130D01*
X0112708Y0171513D02*
X0112708Y0170363D01*
X0113475Y0170363D02*
X0111173Y0170363D01*
X0111173Y0171513D01*
X0111557Y0171897D01*
X0112324Y0171897D01*
X0112708Y0171513D01*
X0106337Y0171088D02*
X0104036Y0171088D01*
X0104036Y0172238D01*
X0104419Y0172622D01*
X0105187Y0172622D01*
X0105570Y0172238D01*
X0105570Y0171088D01*
X0105570Y0171855D02*
X0106337Y0172622D01*
X0106337Y0173297D02*
X0106337Y0174832D01*
X0106337Y0174065D02*
X0104036Y0174065D01*
X0104803Y0173297D01*
X0105187Y0175507D02*
X0105187Y0176658D01*
X0105570Y0177042D01*
X0105954Y0177042D01*
X0106337Y0176658D01*
X0106337Y0175891D01*
X0105954Y0175507D01*
X0105187Y0175507D01*
X0104419Y0176275D01*
X0104036Y0177042D01*
X0101950Y0172561D02*
X0099648Y0172561D01*
X0100799Y0171410D01*
X0100799Y0172945D01*
X0100032Y0170735D02*
X0099648Y0170351D01*
X0099648Y0169200D01*
X0101950Y0169200D01*
X0101950Y0170351D01*
X0101566Y0170735D01*
X0100032Y0170735D01*
X0083295Y0168618D02*
X0083295Y0167084D01*
X0082911Y0166700D01*
X0082144Y0166700D01*
X0081760Y0167084D01*
X0081085Y0167084D02*
X0081085Y0168618D01*
X0080701Y0169002D01*
X0079550Y0169002D01*
X0079550Y0166700D01*
X0080701Y0166700D01*
X0081085Y0167084D01*
X0082144Y0167851D02*
X0083295Y0167851D01*
X0083295Y0168618D02*
X0082911Y0169002D01*
X0082144Y0169002D01*
X0081760Y0168618D01*
X0081760Y0168235D01*
X0082144Y0167851D01*
X0071602Y0172950D02*
X0071218Y0173334D01*
X0071218Y0174868D01*
X0070835Y0174485D02*
X0071602Y0174485D01*
X0069745Y0174485D02*
X0069745Y0172950D01*
X0069361Y0172950D02*
X0070129Y0172950D01*
X0068686Y0172950D02*
X0068686Y0174101D01*
X0068302Y0174485D01*
X0067151Y0174485D01*
X0067151Y0172950D01*
X0066476Y0173334D02*
X0066476Y0175252D01*
X0064942Y0175252D02*
X0064942Y0173334D01*
X0065325Y0172950D01*
X0066092Y0172950D01*
X0066476Y0173334D01*
X0069361Y0174485D02*
X0069745Y0174485D01*
X0069745Y0175252D02*
X0069745Y0175636D01*
X0062056Y0174485D02*
X0062056Y0172566D01*
X0061673Y0172183D01*
X0061289Y0172183D01*
X0060905Y0172950D02*
X0062056Y0172950D01*
X0060905Y0172950D02*
X0060522Y0173334D01*
X0060522Y0174101D01*
X0060905Y0174485D01*
X0062056Y0174485D01*
X0059847Y0174101D02*
X0059847Y0172950D01*
X0059847Y0174101D02*
X0059463Y0174485D01*
X0058312Y0174485D01*
X0058312Y0172950D01*
X0057606Y0172950D02*
X0056839Y0172950D01*
X0057222Y0172950D02*
X0057222Y0174485D01*
X0056839Y0174485D01*
X0056163Y0174485D02*
X0055396Y0172950D01*
X0054629Y0174485D01*
X0053539Y0174485D02*
X0053539Y0172950D01*
X0053155Y0172950D02*
X0053923Y0172950D01*
X0053539Y0174485D02*
X0053155Y0174485D01*
X0052480Y0174101D02*
X0052097Y0174485D01*
X0051329Y0174485D01*
X0050946Y0174101D01*
X0050946Y0173334D01*
X0051329Y0172950D01*
X0052097Y0172950D01*
X0052480Y0173717D02*
X0050946Y0173717D01*
X0050270Y0172950D02*
X0049119Y0172950D01*
X0048736Y0173334D01*
X0048736Y0174101D01*
X0049119Y0174485D01*
X0050270Y0174485D01*
X0048060Y0174101D02*
X0048060Y0173717D01*
X0046526Y0173717D01*
X0046526Y0173334D02*
X0046526Y0174101D01*
X0046909Y0174485D01*
X0047677Y0174485D01*
X0048060Y0174101D01*
X0047677Y0172950D02*
X0046909Y0172950D01*
X0046526Y0173334D01*
X0045851Y0172950D02*
X0045083Y0173717D01*
X0045467Y0173717D02*
X0044316Y0173717D01*
X0044316Y0172950D02*
X0044316Y0175252D01*
X0045467Y0175252D01*
X0045851Y0174868D01*
X0045851Y0174101D01*
X0045467Y0173717D01*
X0041415Y0174485D02*
X0041032Y0174485D01*
X0040265Y0173717D01*
X0039589Y0173717D02*
X0038055Y0173717D01*
X0038055Y0173334D02*
X0038055Y0174101D01*
X0038438Y0174485D01*
X0039206Y0174485D01*
X0039589Y0174101D01*
X0039589Y0173717D01*
X0039206Y0172950D02*
X0038438Y0172950D01*
X0038055Y0173334D01*
X0037379Y0173334D02*
X0037379Y0174485D01*
X0037379Y0173334D02*
X0036996Y0172950D01*
X0036612Y0173334D01*
X0036228Y0172950D01*
X0035845Y0173334D01*
X0035845Y0174485D01*
X0035170Y0174101D02*
X0034786Y0174485D01*
X0034019Y0174485D01*
X0033635Y0174101D01*
X0033635Y0173334D01*
X0034019Y0172950D01*
X0034786Y0172950D01*
X0035170Y0173334D01*
X0035170Y0174101D01*
X0032960Y0174101D02*
X0032576Y0173717D01*
X0031425Y0173717D01*
X0031425Y0172950D02*
X0031425Y0175252D01*
X0032576Y0175252D01*
X0032960Y0174868D01*
X0032960Y0174101D01*
X0032960Y0170877D02*
X0032960Y0169342D01*
X0032192Y0168575D01*
X0031425Y0169342D01*
X0031425Y0170877D01*
X0033635Y0170110D02*
X0034402Y0170877D01*
X0034402Y0168575D01*
X0033635Y0168575D02*
X0035170Y0168575D01*
X0035845Y0168575D02*
X0036228Y0168575D01*
X0036228Y0168959D01*
X0035845Y0168959D01*
X0035845Y0168575D01*
X0036950Y0168959D02*
X0038484Y0170493D01*
X0038484Y0168959D01*
X0038101Y0168575D01*
X0037333Y0168575D01*
X0036950Y0168959D01*
X0036950Y0170493D01*
X0037333Y0170877D01*
X0038101Y0170877D01*
X0038484Y0170493D01*
X0040265Y0172950D02*
X0040265Y0174485D01*
X0052480Y0174101D02*
X0052480Y0173717D01*
X0053539Y0175252D02*
X0053539Y0175636D01*
X0057222Y0175636D02*
X0057222Y0175252D01*
X0056951Y0162752D02*
X0057335Y0162368D01*
X0057335Y0161985D01*
X0056951Y0161601D01*
X0057335Y0161217D01*
X0057335Y0160834D01*
X0056951Y0160450D01*
X0056184Y0160450D01*
X0055800Y0160834D01*
X0055125Y0160450D02*
X0053590Y0160450D01*
X0053590Y0162752D01*
X0055800Y0162368D02*
X0056184Y0162752D01*
X0056951Y0162752D01*
X0056951Y0161601D02*
X0056567Y0161601D01*
X0037050Y0151886D02*
X0037050Y0149584D01*
X0036283Y0149584D02*
X0037817Y0149584D01*
X0036283Y0151118D02*
X0037050Y0151886D01*
X0035608Y0151502D02*
X0035608Y0150735D01*
X0035224Y0150351D01*
X0034073Y0150351D01*
X0034073Y0149584D02*
X0034073Y0151886D01*
X0035224Y0151886D01*
X0035608Y0151502D01*
X0033398Y0151886D02*
X0031863Y0151886D01*
X0032630Y0151886D02*
X0032630Y0149584D01*
X0032630Y0136886D02*
X0032630Y0134584D01*
X0034073Y0134584D02*
X0034073Y0136886D01*
X0035224Y0136886D01*
X0035608Y0136502D01*
X0035608Y0135735D01*
X0035224Y0135351D01*
X0034073Y0135351D01*
X0033398Y0136886D02*
X0031863Y0136886D01*
X0036283Y0136502D02*
X0036666Y0136886D01*
X0037434Y0136886D01*
X0037817Y0136502D01*
X0037817Y0136118D01*
X0036283Y0134584D01*
X0037817Y0134584D01*
X0053590Y0135450D02*
X0055125Y0135450D01*
X0055800Y0135834D02*
X0056184Y0135450D01*
X0056951Y0135450D01*
X0057335Y0135834D01*
X0057335Y0136217D01*
X0056951Y0136601D01*
X0055800Y0136601D01*
X0055800Y0135834D01*
X0055800Y0136601D02*
X0056567Y0137368D01*
X0057335Y0137752D01*
X0053590Y0137752D02*
X0053590Y0135450D01*
X0072833Y0138160D02*
X0072833Y0139311D01*
X0073216Y0139695D01*
X0074751Y0139695D01*
X0075135Y0139311D01*
X0075135Y0138160D01*
X0072833Y0138160D01*
X0072833Y0140370D02*
X0072833Y0141905D01*
X0073216Y0141905D01*
X0074751Y0140370D01*
X0075135Y0140370D01*
X0085333Y0139311D02*
X0085333Y0138160D01*
X0087635Y0138160D01*
X0087635Y0139311D01*
X0087251Y0139695D01*
X0085716Y0139695D01*
X0085333Y0139311D01*
X0086484Y0140370D02*
X0086484Y0141521D01*
X0086867Y0141905D01*
X0087251Y0141905D01*
X0087635Y0141521D01*
X0087635Y0140754D01*
X0087251Y0140370D01*
X0086484Y0140370D01*
X0085716Y0141137D01*
X0085333Y0141905D01*
X0098898Y0148334D02*
X0099282Y0147950D01*
X0100816Y0147950D01*
X0101200Y0148334D01*
X0101200Y0149101D01*
X0100816Y0149485D01*
X0101200Y0150160D02*
X0101200Y0151695D01*
X0101200Y0150927D02*
X0098898Y0150927D01*
X0099665Y0150160D01*
X0099282Y0149485D02*
X0098898Y0149101D01*
X0098898Y0148334D01*
X0098898Y0152370D02*
X0100049Y0152370D01*
X0099665Y0153137D01*
X0099665Y0153521D01*
X0100049Y0153904D01*
X0100816Y0153904D01*
X0101200Y0153521D01*
X0101200Y0152753D01*
X0100816Y0152370D01*
X0098898Y0152370D02*
X0098898Y0153904D01*
X0114968Y0139131D02*
X0115351Y0139514D01*
X0116119Y0139514D01*
X0116502Y0139131D01*
X0116502Y0137596D01*
X0116119Y0137213D01*
X0115351Y0137213D01*
X0114968Y0137596D01*
X0114968Y0139131D01*
X0115735Y0137980D02*
X0116502Y0137213D01*
X0117178Y0137213D02*
X0118712Y0138747D01*
X0118712Y0139131D01*
X0118329Y0139514D01*
X0117561Y0139514D01*
X0117178Y0139131D01*
X0117178Y0137213D02*
X0118712Y0137213D01*
X0112527Y0116502D02*
X0112527Y0114200D01*
X0111760Y0114200D02*
X0113295Y0114200D01*
X0111760Y0115735D02*
X0112527Y0116502D01*
X0111085Y0116118D02*
X0110701Y0116502D01*
X0109550Y0116502D01*
X0109550Y0114200D01*
X0110701Y0114200D01*
X0111085Y0114584D01*
X0111085Y0116118D01*
X0111020Y0111565D02*
X0109869Y0111565D01*
X0109869Y0109263D01*
X0111020Y0109263D01*
X0111404Y0109647D01*
X0111404Y0111181D01*
X0111020Y0111565D01*
X0112079Y0111181D02*
X0112462Y0111565D01*
X0113230Y0111565D01*
X0113613Y0111181D01*
X0113613Y0110798D01*
X0112079Y0109263D01*
X0113613Y0109263D01*
X0111562Y0104639D02*
X0111562Y0104256D01*
X0110028Y0102721D01*
X0110028Y0102337D01*
X0109352Y0102721D02*
X0108969Y0102337D01*
X0108201Y0102337D01*
X0107818Y0102721D01*
X0107818Y0104256D01*
X0108201Y0104639D01*
X0108969Y0104639D01*
X0109352Y0104256D01*
X0110028Y0104639D02*
X0111562Y0104639D01*
X0123618Y0095831D02*
X0123618Y0094296D01*
X0124001Y0093912D01*
X0124769Y0093912D01*
X0125152Y0094296D01*
X0125828Y0094296D02*
X0125828Y0094680D01*
X0126211Y0095063D01*
X0126979Y0095063D01*
X0127362Y0094680D01*
X0127362Y0094296D01*
X0126979Y0093912D01*
X0126211Y0093912D01*
X0125828Y0094296D01*
X0126211Y0095063D02*
X0125828Y0095447D01*
X0125828Y0095831D01*
X0126211Y0096214D01*
X0126979Y0096214D01*
X0127362Y0095831D01*
X0127362Y0095447D01*
X0126979Y0095063D01*
X0125152Y0095831D02*
X0124769Y0096214D01*
X0124001Y0096214D01*
X0123618Y0095831D01*
X0136090Y0090608D02*
X0136090Y0090225D01*
X0136857Y0089457D01*
X0136857Y0088306D01*
X0136857Y0089457D02*
X0137625Y0090225D01*
X0137625Y0090608D01*
X0138300Y0090225D02*
X0138684Y0090608D01*
X0139451Y0090608D01*
X0139835Y0090225D01*
X0139835Y0089841D01*
X0138300Y0088306D01*
X0139835Y0088306D01*
X0145173Y0087132D02*
X0145940Y0086365D01*
X0145173Y0087132D02*
X0147475Y0087132D01*
X0147475Y0086365D02*
X0147475Y0087900D01*
X0147475Y0085690D02*
X0147475Y0084155D01*
X0147475Y0084923D02*
X0145173Y0084923D01*
X0145940Y0084155D01*
X0145557Y0083480D02*
X0145173Y0083096D01*
X0145173Y0082329D01*
X0145557Y0081945D01*
X0147091Y0081945D01*
X0147475Y0082329D01*
X0147475Y0083096D01*
X0147091Y0083480D01*
X0150173Y0083096D02*
X0150173Y0082329D01*
X0150557Y0081945D01*
X0152091Y0081945D01*
X0152475Y0082329D01*
X0152475Y0083096D01*
X0152091Y0083480D01*
X0152475Y0084155D02*
X0152475Y0085690D01*
X0152475Y0084923D02*
X0150173Y0084923D01*
X0150940Y0084155D01*
X0150557Y0083480D02*
X0150173Y0083096D01*
X0151324Y0086365D02*
X0151324Y0087900D01*
X0152475Y0087516D02*
X0150173Y0087516D01*
X0151324Y0086365D01*
X0157965Y0086300D02*
X0159500Y0086300D01*
X0160175Y0087451D02*
X0161710Y0087451D01*
X0161891Y0088194D02*
X0161124Y0088194D01*
X0161507Y0088194D02*
X0161507Y0085892D01*
X0161124Y0085892D02*
X0161891Y0085892D01*
X0161326Y0086300D02*
X0161326Y0088602D01*
X0160175Y0087451D01*
X0162597Y0087810D02*
X0162597Y0086276D01*
X0162980Y0085892D01*
X0163748Y0085892D01*
X0164131Y0086276D01*
X0164807Y0085892D02*
X0166341Y0085892D01*
X0167017Y0085892D02*
X0168551Y0087427D01*
X0168551Y0087810D01*
X0168168Y0088194D01*
X0167400Y0088194D01*
X0167017Y0087810D01*
X0165574Y0088194D02*
X0165574Y0085892D01*
X0167017Y0085892D02*
X0168551Y0085892D01*
X0165574Y0088194D02*
X0164807Y0087427D01*
X0164131Y0087810D02*
X0163748Y0088194D01*
X0162980Y0088194D01*
X0162597Y0087810D01*
X0157965Y0088602D02*
X0157965Y0086300D01*
X0185048Y0082641D02*
X0185048Y0081874D01*
X0185432Y0081490D01*
X0185815Y0081490D01*
X0186199Y0081874D01*
X0186199Y0083025D01*
X0185432Y0083025D02*
X0185048Y0082641D01*
X0185432Y0083025D02*
X0186966Y0083025D01*
X0187350Y0082641D01*
X0187350Y0081874D01*
X0186966Y0081490D01*
X0187350Y0080815D02*
X0187350Y0079280D01*
X0187350Y0080048D02*
X0185048Y0080048D01*
X0185815Y0079280D01*
X0185432Y0078605D02*
X0185048Y0078221D01*
X0185048Y0077454D01*
X0185432Y0077070D01*
X0186966Y0077070D01*
X0187350Y0077454D01*
X0187350Y0078221D01*
X0186966Y0078605D01*
X0194148Y0081334D02*
X0194532Y0080950D01*
X0196066Y0080950D01*
X0196450Y0081334D01*
X0196450Y0082101D01*
X0196066Y0082485D01*
X0196450Y0083160D02*
X0194915Y0084695D01*
X0194532Y0084695D01*
X0194148Y0084311D01*
X0194148Y0083544D01*
X0194532Y0083160D01*
X0194532Y0082485D02*
X0194148Y0082101D01*
X0194148Y0081334D01*
X0196450Y0083160D02*
X0196450Y0084695D01*
X0195299Y0085370D02*
X0194148Y0086521D01*
X0196450Y0086521D01*
X0195299Y0086904D02*
X0195299Y0085370D01*
X0199148Y0085753D02*
X0199148Y0086521D01*
X0199532Y0086904D01*
X0199915Y0086904D01*
X0200299Y0086521D01*
X0200683Y0086904D01*
X0201066Y0086904D01*
X0201450Y0086521D01*
X0201450Y0085753D01*
X0201066Y0085370D01*
X0201450Y0084695D02*
X0201450Y0083160D01*
X0199915Y0084695D01*
X0199532Y0084695D01*
X0199148Y0084311D01*
X0199148Y0083544D01*
X0199532Y0083160D01*
X0199532Y0082485D02*
X0199148Y0082101D01*
X0199148Y0081334D01*
X0199532Y0080950D01*
X0201066Y0080950D01*
X0201450Y0081334D01*
X0201450Y0082101D01*
X0201066Y0082485D01*
X0200432Y0083025D02*
X0201966Y0081490D01*
X0202350Y0081874D01*
X0202350Y0082641D01*
X0201966Y0083025D01*
X0200432Y0083025D01*
X0200048Y0082641D01*
X0200048Y0081874D01*
X0200432Y0081490D01*
X0201966Y0081490D01*
X0202350Y0080815D02*
X0202350Y0079280D01*
X0200815Y0080815D01*
X0200432Y0080815D01*
X0200048Y0080431D01*
X0200048Y0079664D01*
X0200432Y0079280D01*
X0200432Y0078605D02*
X0200048Y0078221D01*
X0200048Y0077454D01*
X0200432Y0077070D01*
X0201966Y0077070D01*
X0202350Y0077454D01*
X0202350Y0078221D01*
X0201966Y0078605D01*
X0205048Y0078221D02*
X0205048Y0077454D01*
X0205432Y0077070D01*
X0206966Y0077070D01*
X0207350Y0077454D01*
X0207350Y0078221D01*
X0206966Y0078605D01*
X0207350Y0079280D02*
X0207350Y0080815D01*
X0207350Y0080048D02*
X0205048Y0080048D01*
X0205815Y0079280D01*
X0205432Y0078605D02*
X0205048Y0078221D01*
X0205432Y0081490D02*
X0205048Y0081874D01*
X0205048Y0082641D01*
X0205432Y0083025D01*
X0205815Y0083025D01*
X0206199Y0082641D01*
X0206583Y0083025D01*
X0206966Y0083025D01*
X0207350Y0082641D01*
X0207350Y0081874D01*
X0206966Y0081490D01*
X0206199Y0082257D02*
X0206199Y0082641D01*
X0200299Y0086137D02*
X0200299Y0086521D01*
X0199532Y0085370D02*
X0199148Y0085753D01*
X0195701Y0069852D02*
X0194934Y0069852D01*
X0194550Y0069468D01*
X0195701Y0069852D02*
X0196085Y0069468D01*
X0196085Y0069085D01*
X0194550Y0067550D01*
X0196085Y0067550D01*
X0193875Y0067550D02*
X0192340Y0067550D01*
X0192340Y0069852D01*
X0172583Y0037939D02*
X0171816Y0037939D01*
X0171432Y0037556D01*
X0171432Y0037172D01*
X0171816Y0036788D01*
X0172967Y0036788D01*
X0172967Y0036021D02*
X0172967Y0037556D01*
X0172583Y0037939D01*
X0172967Y0036021D02*
X0172583Y0035638D01*
X0171816Y0035638D01*
X0171432Y0036021D01*
X0170757Y0036788D02*
X0169222Y0036788D01*
X0170373Y0037939D01*
X0170373Y0035638D01*
X0168547Y0035638D02*
X0167780Y0036405D01*
X0168163Y0036405D02*
X0167013Y0036405D01*
X0167013Y0035638D02*
X0167013Y0037939D01*
X0168163Y0037939D01*
X0168547Y0037556D01*
X0168547Y0036788D01*
X0168163Y0036405D01*
X0168163Y0033039D02*
X0167013Y0033039D01*
X0167013Y0030737D01*
X0167013Y0031505D02*
X0168163Y0031505D01*
X0168547Y0031888D01*
X0168547Y0032656D01*
X0168163Y0033039D01*
X0169222Y0031888D02*
X0170373Y0031888D01*
X0170757Y0031505D01*
X0170757Y0031121D01*
X0170373Y0030737D01*
X0169606Y0030737D01*
X0169222Y0031121D01*
X0169222Y0031888D01*
X0169990Y0032656D01*
X0170757Y0033039D01*
X0171432Y0032656D02*
X0171816Y0033039D01*
X0172583Y0033039D01*
X0172967Y0032656D01*
X0171432Y0031121D01*
X0171816Y0030737D01*
X0172583Y0030737D01*
X0172967Y0031121D01*
X0172967Y0032656D01*
X0171432Y0032656D02*
X0171432Y0031121D01*
X0168547Y0030737D02*
X0167780Y0031505D01*
X0168163Y0028139D02*
X0167396Y0028139D01*
X0167013Y0027756D01*
X0167013Y0026221D01*
X0167396Y0025837D01*
X0168163Y0025837D01*
X0168547Y0026221D01*
X0169222Y0025837D02*
X0170757Y0027372D01*
X0170757Y0027756D01*
X0170373Y0028139D01*
X0169606Y0028139D01*
X0169222Y0027756D01*
X0168547Y0027756D02*
X0168163Y0028139D01*
X0169222Y0025837D02*
X0170757Y0025837D01*
X0171432Y0025837D02*
X0172967Y0027372D01*
X0172967Y0027756D01*
X0172583Y0028139D01*
X0171816Y0028139D01*
X0171432Y0027756D01*
X0171432Y0025837D02*
X0172967Y0025837D01*
X0188350Y0031800D02*
X0189501Y0031800D01*
X0189885Y0032184D01*
X0189885Y0033718D01*
X0189501Y0034102D01*
X0188350Y0034102D01*
X0188350Y0031800D01*
X0190560Y0031800D02*
X0190560Y0034102D01*
X0192095Y0034102D01*
X0192770Y0034102D02*
X0193921Y0034102D01*
X0194304Y0033718D01*
X0194304Y0033335D01*
X0193921Y0032951D01*
X0192770Y0032951D01*
X0193921Y0032951D02*
X0194304Y0032567D01*
X0194304Y0032184D01*
X0193921Y0031800D01*
X0192770Y0031800D01*
X0192770Y0034102D01*
X0191327Y0032951D02*
X0190560Y0032951D01*
X0190560Y0031800D02*
X0192095Y0031800D01*
X0194980Y0032184D02*
X0194980Y0034102D01*
X0196514Y0034102D02*
X0196514Y0032184D01*
X0196131Y0031800D01*
X0195363Y0031800D01*
X0194980Y0032184D01*
X0197190Y0032184D02*
X0197573Y0031800D01*
X0198340Y0031800D01*
X0198724Y0032184D01*
X0198724Y0032951D01*
X0197957Y0032951D01*
X0198724Y0033718D02*
X0198340Y0034102D01*
X0197573Y0034102D01*
X0197190Y0033718D01*
X0197190Y0032184D01*
X0199399Y0031800D02*
X0200934Y0031800D01*
X0200167Y0031800D02*
X0200167Y0034102D01*
X0199399Y0033335D01*
X0151129Y0032993D02*
X0150746Y0033377D01*
X0149595Y0033377D01*
X0149595Y0031075D01*
X0150746Y0031075D01*
X0151129Y0031459D01*
X0151129Y0032993D01*
X0148920Y0033377D02*
X0148920Y0031075D01*
X0147385Y0033377D01*
X0147385Y0031075D01*
X0146710Y0031459D02*
X0146326Y0031075D01*
X0145559Y0031075D01*
X0145175Y0031459D01*
X0145175Y0032993D01*
X0145559Y0033377D01*
X0146326Y0033377D01*
X0146710Y0032993D01*
X0146710Y0032226D02*
X0145942Y0032226D01*
X0146710Y0032226D02*
X0146710Y0031459D01*
X0141129Y0031075D02*
X0139595Y0031075D01*
X0139595Y0033377D01*
X0138920Y0032993D02*
X0138536Y0033377D01*
X0137769Y0033377D01*
X0137385Y0032993D01*
X0137385Y0031459D01*
X0137769Y0031075D01*
X0138536Y0031075D01*
X0138920Y0031459D01*
X0136710Y0031459D02*
X0136326Y0031075D01*
X0135559Y0031075D01*
X0135175Y0031459D01*
X0135559Y0032226D02*
X0136326Y0032226D01*
X0136710Y0031842D01*
X0136710Y0031459D01*
X0135559Y0032226D02*
X0135175Y0032610D01*
X0135175Y0032993D01*
X0135559Y0033377D01*
X0136326Y0033377D01*
X0136710Y0032993D01*
X0136563Y0034825D02*
X0136180Y0035209D01*
X0136563Y0034825D02*
X0137331Y0034825D01*
X0137714Y0035209D01*
X0137714Y0035592D01*
X0137331Y0035976D01*
X0136563Y0035976D01*
X0136180Y0036360D01*
X0136180Y0036743D01*
X0136563Y0037127D01*
X0137331Y0037127D01*
X0137714Y0036743D01*
X0138390Y0036743D02*
X0138390Y0035209D01*
X0138773Y0034825D01*
X0139540Y0034825D01*
X0139924Y0035209D01*
X0139924Y0036743D01*
X0139540Y0037127D01*
X0138773Y0037127D01*
X0138390Y0036743D01*
X0140599Y0037127D02*
X0140599Y0034825D01*
X0140599Y0035592D02*
X0141750Y0035592D01*
X0142134Y0035976D01*
X0142134Y0036743D01*
X0141750Y0037127D01*
X0140599Y0037127D01*
X0141367Y0035592D02*
X0142134Y0034825D01*
X0135504Y0034825D02*
X0135504Y0037127D01*
X0133970Y0037127D02*
X0133970Y0034825D01*
X0133295Y0034825D02*
X0131760Y0034825D01*
X0131760Y0037127D01*
X0133295Y0037127D01*
X0133970Y0037127D02*
X0135504Y0034825D01*
X0132527Y0035976D02*
X0131760Y0035976D01*
X0131085Y0035592D02*
X0131085Y0035209D01*
X0130701Y0034825D01*
X0129934Y0034825D01*
X0129550Y0035209D01*
X0129934Y0035976D02*
X0130701Y0035976D01*
X0131085Y0035592D01*
X0131085Y0036743D02*
X0130701Y0037127D01*
X0129934Y0037127D01*
X0129550Y0036743D01*
X0129550Y0036360D01*
X0129934Y0035976D01*
X0130362Y0033377D02*
X0131129Y0032610D01*
X0131129Y0031075D01*
X0131129Y0032226D02*
X0129595Y0032226D01*
X0129595Y0032610D02*
X0130362Y0033377D01*
X0129595Y0032610D02*
X0129595Y0031075D01*
X0128920Y0031459D02*
X0128920Y0032993D01*
X0128536Y0033377D01*
X0127385Y0033377D01*
X0127385Y0031075D01*
X0128536Y0031075D01*
X0128920Y0031459D01*
X0126710Y0031459D02*
X0126326Y0031075D01*
X0125559Y0031075D01*
X0125175Y0031459D01*
X0125559Y0032226D02*
X0126326Y0032226D01*
X0126710Y0031842D01*
X0126710Y0031459D01*
X0125559Y0032226D02*
X0125175Y0032610D01*
X0125175Y0032993D01*
X0125559Y0033377D01*
X0126326Y0033377D01*
X0126710Y0032993D01*
X0121129Y0032993D02*
X0120746Y0033377D01*
X0119595Y0033377D01*
X0119595Y0031075D01*
X0120746Y0031075D01*
X0121129Y0031459D01*
X0121129Y0032993D01*
X0118920Y0032993D02*
X0118536Y0033377D01*
X0117385Y0033377D01*
X0117385Y0031075D01*
X0118536Y0031075D01*
X0118920Y0031459D01*
X0118920Y0032993D01*
X0116710Y0033377D02*
X0116710Y0031842D01*
X0115942Y0031075D01*
X0115175Y0031842D01*
X0115175Y0033377D01*
X0107379Y0032993D02*
X0106996Y0033377D01*
X0106228Y0033377D01*
X0105845Y0032993D01*
X0105845Y0032610D01*
X0106228Y0032226D01*
X0106996Y0032226D01*
X0107379Y0031842D01*
X0107379Y0031459D01*
X0106996Y0031075D01*
X0106228Y0031075D01*
X0105845Y0031459D01*
X0104402Y0031075D02*
X0104402Y0033377D01*
X0103635Y0033377D02*
X0105170Y0033377D01*
X0102960Y0032993D02*
X0102576Y0033377D01*
X0101809Y0033377D01*
X0101425Y0032993D01*
X0101425Y0031459D01*
X0101809Y0031075D01*
X0102576Y0031075D01*
X0102960Y0031459D01*
X0103451Y0034825D02*
X0101917Y0034825D01*
X0101917Y0037127D01*
X0103451Y0037127D01*
X0102684Y0035976D02*
X0101917Y0035976D01*
X0101242Y0036743D02*
X0100858Y0037127D01*
X0100091Y0037127D01*
X0099707Y0036743D01*
X0099707Y0035209D01*
X0100091Y0034825D01*
X0100858Y0034825D01*
X0101242Y0035209D01*
X0099032Y0034825D02*
X0099032Y0036360D01*
X0098264Y0037127D01*
X0097497Y0036360D01*
X0097497Y0034825D01*
X0097497Y0035976D02*
X0099032Y0035976D01*
X0096822Y0037127D02*
X0095287Y0037127D01*
X0095287Y0034825D01*
X0094612Y0034825D02*
X0093845Y0035592D01*
X0094228Y0035592D02*
X0093077Y0035592D01*
X0093077Y0034825D02*
X0093077Y0037127D01*
X0094228Y0037127D01*
X0094612Y0036743D01*
X0094612Y0035976D01*
X0094228Y0035592D01*
X0095287Y0035976D02*
X0096054Y0035976D01*
X0096228Y0033377D02*
X0095845Y0032993D01*
X0095845Y0032610D01*
X0096228Y0032226D01*
X0096996Y0032226D01*
X0097379Y0031842D01*
X0097379Y0031459D01*
X0096996Y0031075D01*
X0096228Y0031075D01*
X0095845Y0031459D01*
X0094402Y0031075D02*
X0094402Y0033377D01*
X0093635Y0033377D02*
X0095170Y0033377D01*
X0096228Y0033377D02*
X0096996Y0033377D01*
X0097379Y0032993D01*
X0092960Y0032993D02*
X0092960Y0032226D01*
X0092576Y0031842D01*
X0091425Y0031842D01*
X0091425Y0031075D02*
X0091425Y0033377D01*
X0092576Y0033377D01*
X0092960Y0032993D01*
X0092192Y0031842D02*
X0092960Y0031075D01*
X0092402Y0034825D02*
X0090867Y0034825D01*
X0090867Y0037127D01*
X0092402Y0037127D01*
X0091635Y0035976D02*
X0090867Y0035976D01*
X0090192Y0037127D02*
X0088658Y0037127D01*
X0087982Y0037127D02*
X0087982Y0034825D01*
X0086448Y0037127D01*
X0086448Y0034825D01*
X0085742Y0034825D02*
X0084974Y0034825D01*
X0085358Y0034825D02*
X0085358Y0037127D01*
X0084974Y0037127D02*
X0085742Y0037127D01*
X0084299Y0034441D02*
X0082765Y0034441D01*
X0082960Y0033377D02*
X0081425Y0033377D01*
X0082192Y0033377D02*
X0082192Y0031075D01*
X0083635Y0031075D02*
X0085170Y0033377D01*
X0085845Y0033377D02*
X0086612Y0033377D01*
X0086228Y0033377D02*
X0086228Y0031075D01*
X0085845Y0031075D02*
X0086612Y0031075D01*
X0085170Y0031075D02*
X0083635Y0033377D01*
X0081322Y0034825D02*
X0081322Y0037127D01*
X0080555Y0037127D02*
X0082089Y0037127D01*
X0079879Y0036743D02*
X0079879Y0035976D01*
X0079496Y0035592D01*
X0078345Y0035592D01*
X0078345Y0034825D02*
X0078345Y0037127D01*
X0079496Y0037127D01*
X0079879Y0036743D01*
X0079112Y0035592D02*
X0079879Y0034825D01*
X0077670Y0034825D02*
X0077670Y0036360D01*
X0076902Y0037127D01*
X0076135Y0036360D01*
X0076135Y0034825D01*
X0075460Y0035209D02*
X0075460Y0037127D01*
X0076135Y0035976D02*
X0077670Y0035976D01*
X0075460Y0035209D02*
X0075076Y0034825D01*
X0074309Y0034825D01*
X0073925Y0035209D01*
X0073925Y0037127D01*
X0073635Y0033377D02*
X0075170Y0031075D01*
X0075845Y0031075D02*
X0076612Y0031075D01*
X0076228Y0031075D02*
X0076228Y0033377D01*
X0075845Y0033377D02*
X0076612Y0033377D01*
X0075170Y0033377D02*
X0073635Y0031075D01*
X0072960Y0031075D02*
X0072192Y0031842D01*
X0072576Y0031842D02*
X0071425Y0031842D01*
X0071425Y0031075D02*
X0071425Y0033377D01*
X0072576Y0033377D01*
X0072960Y0032993D01*
X0072960Y0032226D01*
X0072576Y0031842D01*
X0066782Y0024435D02*
X0065631Y0024435D01*
X0065247Y0024051D01*
X0065631Y0023667D01*
X0066398Y0023667D01*
X0066782Y0023284D01*
X0066398Y0022900D01*
X0065247Y0022900D01*
X0064557Y0024435D02*
X0064173Y0024435D01*
X0063406Y0023667D01*
X0062731Y0023667D02*
X0061196Y0023667D01*
X0061196Y0023284D02*
X0061196Y0024051D01*
X0061580Y0024435D01*
X0062347Y0024435D01*
X0062731Y0024051D01*
X0062731Y0023667D01*
X0062347Y0022900D02*
X0061580Y0022900D01*
X0061196Y0023284D01*
X0060521Y0022900D02*
X0059370Y0022900D01*
X0058986Y0023284D01*
X0058986Y0024051D01*
X0059370Y0024435D01*
X0060521Y0024435D01*
X0060521Y0025202D02*
X0060521Y0022900D01*
X0058280Y0022900D02*
X0057513Y0022900D01*
X0057896Y0022900D02*
X0057896Y0025202D01*
X0057513Y0025202D01*
X0056837Y0024435D02*
X0056837Y0022900D01*
X0055687Y0022900D01*
X0055303Y0023284D01*
X0055303Y0024435D01*
X0054628Y0025202D02*
X0054628Y0022900D01*
X0053093Y0022900D02*
X0053093Y0025202D01*
X0053860Y0024435D01*
X0054628Y0025202D01*
X0050208Y0024051D02*
X0050208Y0022900D01*
X0050208Y0024051D02*
X0049824Y0024435D01*
X0048673Y0024435D01*
X0048673Y0022900D01*
X0047998Y0022900D02*
X0046847Y0022900D01*
X0046463Y0023284D01*
X0046847Y0023667D01*
X0047998Y0023667D01*
X0047998Y0024051D02*
X0047998Y0022900D01*
X0047998Y0024051D02*
X0047614Y0024435D01*
X0046847Y0024435D01*
X0045788Y0025202D02*
X0045788Y0023667D01*
X0045021Y0022900D01*
X0044253Y0023667D01*
X0044253Y0025202D01*
X0041737Y0025962D02*
X0040202Y0025962D01*
X0041737Y0027497D01*
X0041737Y0027881D01*
X0041353Y0028264D01*
X0040586Y0028264D01*
X0040202Y0027881D01*
X0038759Y0028264D02*
X0038759Y0025962D01*
X0037992Y0025962D02*
X0039527Y0025962D01*
X0040217Y0024435D02*
X0040985Y0024435D01*
X0041368Y0024051D01*
X0041368Y0023667D01*
X0039834Y0023667D01*
X0039834Y0023284D02*
X0039834Y0024051D01*
X0040217Y0024435D01*
X0039158Y0024051D02*
X0039158Y0022900D01*
X0039834Y0023284D02*
X0040217Y0022900D01*
X0040985Y0022900D01*
X0039158Y0024051D02*
X0038775Y0024435D01*
X0037624Y0024435D01*
X0037624Y0022900D01*
X0036933Y0024435D02*
X0036550Y0024435D01*
X0035782Y0023667D01*
X0035107Y0023667D02*
X0033956Y0023667D01*
X0033572Y0023284D01*
X0033956Y0022900D01*
X0035107Y0022900D01*
X0035107Y0024051D01*
X0034723Y0024435D01*
X0033956Y0024435D01*
X0032897Y0025202D02*
X0032130Y0025202D01*
X0032513Y0025202D02*
X0032513Y0023284D01*
X0032130Y0022900D01*
X0031746Y0022900D01*
X0031362Y0023284D01*
X0031362Y0025962D02*
X0031362Y0028264D01*
X0032897Y0025962D01*
X0032897Y0028264D01*
X0033572Y0028264D02*
X0034723Y0028264D01*
X0035107Y0027881D01*
X0035107Y0027113D01*
X0034723Y0026730D01*
X0033572Y0026730D01*
X0033572Y0025962D02*
X0033572Y0028264D01*
X0034340Y0026730D02*
X0035107Y0025962D01*
X0035782Y0026346D02*
X0037317Y0027881D01*
X0037317Y0026346D01*
X0036933Y0025962D01*
X0036166Y0025962D01*
X0035782Y0026346D01*
X0035782Y0027881D01*
X0036166Y0028264D01*
X0036933Y0028264D01*
X0037317Y0027881D01*
X0037992Y0027497D02*
X0038759Y0028264D01*
X0035782Y0024435D02*
X0035782Y0022900D01*
X0045800Y0031700D02*
X0045800Y0034002D01*
X0046951Y0034002D01*
X0047335Y0033618D01*
X0047335Y0032851D01*
X0046951Y0032467D01*
X0045800Y0032467D01*
X0046567Y0032467D02*
X0047335Y0031700D01*
X0048010Y0031700D02*
X0049545Y0031700D01*
X0048777Y0031700D02*
X0048777Y0034002D01*
X0048010Y0033235D01*
X0042714Y0045450D02*
X0041180Y0045450D01*
X0041947Y0045450D02*
X0041947Y0047752D01*
X0041180Y0046985D01*
X0040504Y0047368D02*
X0040121Y0047752D01*
X0038970Y0047752D01*
X0038970Y0045450D01*
X0040121Y0045450D01*
X0040504Y0045834D01*
X0040504Y0047368D01*
X0038295Y0047752D02*
X0036760Y0047752D01*
X0036760Y0045450D01*
X0038295Y0045450D01*
X0037527Y0046601D02*
X0036760Y0046601D01*
X0036085Y0045450D02*
X0034550Y0045450D01*
X0034550Y0047752D01*
X0035316Y0067570D02*
X0035700Y0067954D01*
X0035700Y0068721D01*
X0035316Y0069105D01*
X0033398Y0069105D01*
X0033398Y0069780D02*
X0033398Y0070931D01*
X0033782Y0071315D01*
X0034549Y0071315D01*
X0034933Y0070931D01*
X0034933Y0069780D01*
X0035700Y0069780D02*
X0033398Y0069780D01*
X0033398Y0067570D02*
X0035316Y0067570D01*
X0035700Y0071990D02*
X0033398Y0071990D01*
X0033398Y0073141D01*
X0033782Y0073525D01*
X0035316Y0073525D01*
X0035700Y0073141D01*
X0035700Y0071990D01*
X0035700Y0074200D02*
X0034165Y0074200D01*
X0033398Y0074967D01*
X0034165Y0075735D01*
X0035700Y0075735D01*
X0034549Y0075735D02*
X0034549Y0074200D01*
X0033398Y0076410D02*
X0033398Y0077944D01*
X0033398Y0078620D02*
X0035700Y0078620D01*
X0035700Y0080154D01*
X0034549Y0079387D02*
X0034549Y0078620D01*
X0033398Y0078620D02*
X0033398Y0080154D01*
X0033398Y0077177D02*
X0035700Y0077177D01*
X0058800Y0090084D02*
X0059184Y0089700D01*
X0059951Y0089700D01*
X0060335Y0090084D01*
X0061010Y0089700D02*
X0062545Y0091235D01*
X0062545Y0091618D01*
X0062161Y0092002D01*
X0061394Y0092002D01*
X0061010Y0091618D01*
X0060335Y0091618D02*
X0059951Y0092002D01*
X0059184Y0092002D01*
X0058800Y0091618D01*
X0058800Y0090084D01*
X0061010Y0089700D02*
X0062545Y0089700D01*
X0063220Y0089700D02*
X0064754Y0089700D01*
X0063987Y0089700D02*
X0063987Y0092002D01*
X0063220Y0091235D01*
X0062161Y0094700D02*
X0062545Y0095084D01*
X0062545Y0095467D01*
X0062161Y0095851D01*
X0061010Y0095851D01*
X0061010Y0095084D01*
X0061394Y0094700D01*
X0062161Y0094700D01*
X0061010Y0095851D02*
X0061777Y0096618D01*
X0062545Y0097002D01*
X0060335Y0096618D02*
X0060335Y0095851D01*
X0059951Y0095467D01*
X0058800Y0095467D01*
X0058800Y0094700D02*
X0058800Y0097002D01*
X0059951Y0097002D01*
X0060335Y0096618D01*
X0059567Y0095467D02*
X0060335Y0094700D01*
X0074023Y0082177D02*
X0076325Y0082177D01*
X0076325Y0081410D02*
X0076325Y0082945D01*
X0074790Y0081410D02*
X0074023Y0082177D01*
X0074023Y0079967D02*
X0076325Y0079967D01*
X0076325Y0079200D02*
X0076325Y0080735D01*
X0074790Y0079200D02*
X0074023Y0079967D01*
X0074407Y0078525D02*
X0075174Y0078525D01*
X0075558Y0078141D01*
X0075558Y0076990D01*
X0076325Y0076990D02*
X0074023Y0076990D01*
X0074023Y0078141D01*
X0074407Y0078525D01*
X0074023Y0076315D02*
X0074023Y0075548D01*
X0074023Y0075931D02*
X0075941Y0075931D01*
X0076325Y0075548D01*
X0076325Y0075164D01*
X0075941Y0074780D01*
X0080273Y0075548D02*
X0080273Y0076315D01*
X0080273Y0075931D02*
X0082191Y0075931D01*
X0082575Y0075548D01*
X0082575Y0075164D01*
X0082191Y0074780D01*
X0081808Y0076990D02*
X0081808Y0078141D01*
X0081424Y0078525D01*
X0080657Y0078525D01*
X0080273Y0078141D01*
X0080273Y0076990D01*
X0082575Y0076990D01*
X0082575Y0079200D02*
X0082575Y0080735D01*
X0082575Y0079967D02*
X0080273Y0079967D01*
X0081040Y0079200D01*
X0080657Y0081410D02*
X0080273Y0081794D01*
X0080273Y0082561D01*
X0080657Y0082945D01*
X0082191Y0081410D01*
X0082575Y0081794D01*
X0082575Y0082561D01*
X0082191Y0082945D01*
X0080657Y0082945D01*
X0080657Y0081410D02*
X0082191Y0081410D01*
X0086523Y0081456D02*
X0086523Y0080689D01*
X0086907Y0080305D01*
X0087290Y0080305D01*
X0087674Y0080689D01*
X0087674Y0081840D01*
X0088441Y0081840D02*
X0086907Y0081840D01*
X0086523Y0081456D01*
X0086907Y0079630D02*
X0087674Y0079630D01*
X0088058Y0079246D01*
X0088058Y0078095D01*
X0088825Y0078095D02*
X0086523Y0078095D01*
X0086523Y0079246D01*
X0086907Y0079630D01*
X0088441Y0080305D02*
X0088825Y0080689D01*
X0088825Y0081456D01*
X0088441Y0081840D01*
X0092773Y0081456D02*
X0092773Y0080689D01*
X0093157Y0080305D01*
X0093540Y0080305D01*
X0093924Y0080689D01*
X0093924Y0081456D01*
X0094308Y0081840D01*
X0094691Y0081840D01*
X0095075Y0081456D01*
X0095075Y0080689D01*
X0094691Y0080305D01*
X0094308Y0080305D01*
X0093924Y0080689D01*
X0093924Y0081456D02*
X0093540Y0081840D01*
X0093157Y0081840D01*
X0092773Y0081456D01*
X0093157Y0079630D02*
X0092773Y0079246D01*
X0092773Y0078095D01*
X0095075Y0078095D01*
X0094308Y0078095D02*
X0094308Y0079246D01*
X0093924Y0079630D01*
X0093157Y0079630D01*
X0092773Y0077420D02*
X0092773Y0076652D01*
X0092773Y0077036D02*
X0094691Y0077036D01*
X0095075Y0076652D01*
X0095075Y0076269D01*
X0094691Y0075885D01*
X0099023Y0076652D02*
X0099023Y0077420D01*
X0099023Y0077036D02*
X0100941Y0077036D01*
X0101325Y0076652D01*
X0101325Y0076269D01*
X0100941Y0075885D01*
X0100558Y0078095D02*
X0100558Y0079246D01*
X0100174Y0079630D01*
X0099407Y0079630D01*
X0099023Y0079246D01*
X0099023Y0078095D01*
X0101325Y0078095D01*
X0101325Y0080305D02*
X0100941Y0080305D01*
X0099407Y0081840D01*
X0099023Y0081840D01*
X0099023Y0080305D01*
X0104648Y0079246D02*
X0104648Y0078095D01*
X0106950Y0078095D01*
X0106183Y0078095D02*
X0106183Y0079246D01*
X0105799Y0079630D01*
X0105032Y0079630D01*
X0104648Y0079246D01*
X0105799Y0080305D02*
X0105799Y0081456D01*
X0106183Y0081840D01*
X0106566Y0081840D01*
X0106950Y0081456D01*
X0106950Y0080689D01*
X0106566Y0080305D01*
X0105799Y0080305D01*
X0105032Y0081072D01*
X0104648Y0081840D01*
X0104648Y0077420D02*
X0104648Y0076652D01*
X0104648Y0077036D02*
X0106566Y0077036D01*
X0106950Y0076652D01*
X0106950Y0076269D01*
X0106566Y0075885D01*
X0106950Y0067945D02*
X0106950Y0066410D01*
X0105415Y0067945D01*
X0105032Y0067945D01*
X0104648Y0067561D01*
X0104648Y0066794D01*
X0105032Y0066410D01*
X0104648Y0064967D02*
X0106950Y0064967D01*
X0106950Y0064200D02*
X0106950Y0065735D01*
X0105415Y0064200D02*
X0104648Y0064967D01*
X0105032Y0063525D02*
X0105799Y0063525D01*
X0106183Y0063141D01*
X0106183Y0061990D01*
X0106950Y0061990D02*
X0104648Y0061990D01*
X0104648Y0063141D01*
X0105032Y0063525D01*
X0104648Y0061315D02*
X0104648Y0060548D01*
X0104648Y0060931D02*
X0106566Y0060931D01*
X0106950Y0060548D01*
X0106950Y0060164D01*
X0106566Y0059780D01*
X0100700Y0060164D02*
X0100316Y0059780D01*
X0100700Y0060164D02*
X0100700Y0060548D01*
X0100316Y0060931D01*
X0098398Y0060931D01*
X0098398Y0060548D02*
X0098398Y0061315D01*
X0098398Y0061990D02*
X0098398Y0063141D01*
X0098782Y0063525D01*
X0099549Y0063525D01*
X0099933Y0063141D01*
X0099933Y0061990D01*
X0100700Y0061990D02*
X0098398Y0061990D01*
X0099165Y0064200D02*
X0098398Y0064967D01*
X0100700Y0064967D01*
X0100700Y0064200D02*
X0100700Y0065735D01*
X0100316Y0066410D02*
X0100700Y0066794D01*
X0100700Y0067561D01*
X0100316Y0067945D01*
X0099933Y0067945D01*
X0099549Y0067561D01*
X0099549Y0067177D01*
X0099549Y0067561D02*
X0099165Y0067945D01*
X0098782Y0067945D01*
X0098398Y0067561D01*
X0098398Y0066794D01*
X0098782Y0066410D01*
X0094450Y0065735D02*
X0094450Y0064200D01*
X0094450Y0064967D02*
X0092148Y0064967D01*
X0092915Y0064200D01*
X0092532Y0063525D02*
X0093299Y0063525D01*
X0093683Y0063141D01*
X0093683Y0061990D01*
X0094450Y0061990D02*
X0092148Y0061990D01*
X0092148Y0063141D01*
X0092532Y0063525D01*
X0092148Y0061315D02*
X0092148Y0060548D01*
X0092148Y0060931D02*
X0094066Y0060931D01*
X0094450Y0060548D01*
X0094450Y0060164D01*
X0094066Y0059780D01*
X0088966Y0054150D02*
X0087432Y0054150D01*
X0087048Y0053766D01*
X0087048Y0052999D01*
X0087432Y0052615D01*
X0087815Y0052615D01*
X0088199Y0052999D01*
X0088199Y0054150D01*
X0088966Y0054150D02*
X0089350Y0053766D01*
X0089350Y0052999D01*
X0088966Y0052615D01*
X0089350Y0051940D02*
X0089350Y0050405D01*
X0087815Y0051940D01*
X0087432Y0051940D01*
X0087048Y0051556D01*
X0087048Y0050789D01*
X0087432Y0050405D01*
X0087432Y0049730D02*
X0087048Y0049346D01*
X0087048Y0048579D01*
X0087432Y0048195D01*
X0088966Y0048195D01*
X0089350Y0048579D01*
X0089350Y0049346D01*
X0088966Y0049730D01*
X0083100Y0049346D02*
X0082716Y0049730D01*
X0083100Y0049346D02*
X0083100Y0048579D01*
X0082716Y0048195D01*
X0081182Y0048195D01*
X0080798Y0048579D01*
X0080798Y0049346D01*
X0081182Y0049730D01*
X0081182Y0050405D02*
X0080798Y0050789D01*
X0080798Y0051556D01*
X0081182Y0051940D01*
X0081565Y0051940D01*
X0083100Y0050405D01*
X0083100Y0051940D01*
X0082716Y0052615D02*
X0082333Y0052615D01*
X0081949Y0052999D01*
X0081949Y0053766D01*
X0082333Y0054150D01*
X0082716Y0054150D01*
X0083100Y0053766D01*
X0083100Y0052999D01*
X0082716Y0052615D01*
X0081949Y0052999D02*
X0081565Y0052615D01*
X0081182Y0052615D01*
X0080798Y0052999D01*
X0080798Y0053766D01*
X0081182Y0054150D01*
X0081565Y0054150D01*
X0081949Y0053766D01*
X0076850Y0052615D02*
X0076466Y0052615D01*
X0074932Y0054150D01*
X0074548Y0054150D01*
X0074548Y0052615D01*
X0074932Y0051940D02*
X0074548Y0051556D01*
X0074548Y0050789D01*
X0074932Y0050405D01*
X0074932Y0049730D02*
X0074548Y0049346D01*
X0074548Y0048579D01*
X0074932Y0048195D01*
X0076466Y0048195D01*
X0076850Y0048579D01*
X0076850Y0049346D01*
X0076466Y0049730D01*
X0076850Y0050405D02*
X0075315Y0051940D01*
X0074932Y0051940D01*
X0076850Y0051940D02*
X0076850Y0050405D01*
X0089425Y0037127D02*
X0089425Y0034825D01*
X0114731Y0041899D02*
X0116266Y0041899D01*
X0116941Y0042283D02*
X0117325Y0041899D01*
X0118092Y0041899D01*
X0118476Y0042283D01*
X0118476Y0042666D01*
X0118092Y0043050D01*
X0117325Y0043050D01*
X0116941Y0043434D01*
X0116941Y0043817D01*
X0117325Y0044201D01*
X0118092Y0044201D01*
X0118476Y0043817D01*
X0119151Y0043817D02*
X0119535Y0044201D01*
X0120302Y0044201D01*
X0120686Y0043817D01*
X0120686Y0043434D01*
X0120302Y0043050D01*
X0120686Y0042666D01*
X0120686Y0042283D01*
X0120302Y0041899D01*
X0119535Y0041899D01*
X0119151Y0042283D01*
X0119918Y0043050D02*
X0120302Y0043050D01*
X0114731Y0044201D02*
X0114731Y0041899D01*
X0130679Y0057925D02*
X0131446Y0057925D01*
X0131830Y0058309D01*
X0132505Y0057925D02*
X0134040Y0057925D01*
X0133273Y0057925D02*
X0133273Y0060227D01*
X0132505Y0059460D01*
X0131830Y0059843D02*
X0131446Y0060227D01*
X0130679Y0060227D01*
X0130295Y0059843D01*
X0130295Y0058309D01*
X0130679Y0057925D01*
X0134715Y0058309D02*
X0135099Y0057925D01*
X0135866Y0057925D01*
X0136250Y0058309D01*
X0136250Y0059843D01*
X0134715Y0058309D01*
X0134715Y0059843D01*
X0135099Y0060227D01*
X0135866Y0060227D01*
X0136250Y0059843D01*
X0123491Y0076800D02*
X0122724Y0076800D01*
X0122340Y0077184D01*
X0122340Y0077567D01*
X0122724Y0077951D01*
X0123491Y0077951D01*
X0123875Y0077567D01*
X0123875Y0077184D01*
X0123491Y0076800D01*
X0123491Y0077951D02*
X0123875Y0078335D01*
X0123875Y0078718D01*
X0123491Y0079102D01*
X0122724Y0079102D01*
X0122340Y0078718D01*
X0122340Y0078335D01*
X0122724Y0077951D01*
X0121665Y0076800D02*
X0120130Y0076800D01*
X0120898Y0076800D02*
X0120898Y0079102D01*
X0120130Y0078335D01*
X0119455Y0078718D02*
X0119071Y0079102D01*
X0118304Y0079102D01*
X0117920Y0078718D01*
X0117920Y0077184D01*
X0118304Y0076800D01*
X0119071Y0076800D01*
X0119455Y0077184D01*
X0119071Y0081800D02*
X0119455Y0082184D01*
X0119071Y0081800D02*
X0118304Y0081800D01*
X0117920Y0082184D01*
X0117920Y0083718D01*
X0118304Y0084102D01*
X0119071Y0084102D01*
X0119455Y0083718D01*
X0120130Y0083335D02*
X0120898Y0084102D01*
X0120898Y0081800D01*
X0121665Y0081800D02*
X0120130Y0081800D01*
X0122340Y0081800D02*
X0122340Y0082184D01*
X0123875Y0083718D01*
X0123875Y0084102D01*
X0122340Y0084102D01*
X0094450Y0067561D02*
X0092148Y0067561D01*
X0093299Y0066410D01*
X0093299Y0067945D01*
X0088441Y0075885D02*
X0088825Y0076269D01*
X0088825Y0076652D01*
X0088441Y0077036D01*
X0086523Y0077036D01*
X0086523Y0076652D02*
X0086523Y0077420D01*
X0087635Y0120660D02*
X0087635Y0121811D01*
X0087251Y0122195D01*
X0085716Y0122195D01*
X0085333Y0121811D01*
X0085333Y0120660D01*
X0087635Y0120660D01*
X0087251Y0122870D02*
X0087635Y0123254D01*
X0087635Y0124021D01*
X0087251Y0124405D01*
X0086484Y0124405D01*
X0086100Y0124021D01*
X0086100Y0123637D01*
X0086484Y0122870D01*
X0085333Y0122870D01*
X0085333Y0124405D01*
X0075135Y0124021D02*
X0075135Y0123254D01*
X0074751Y0122870D01*
X0074367Y0122870D01*
X0073984Y0123254D01*
X0073984Y0124021D01*
X0074367Y0124405D01*
X0074751Y0124405D01*
X0075135Y0124021D01*
X0073984Y0124021D02*
X0073600Y0124405D01*
X0073216Y0124405D01*
X0072833Y0124021D01*
X0072833Y0123254D01*
X0073216Y0122870D01*
X0073600Y0122870D01*
X0073984Y0123254D01*
X0074751Y0122195D02*
X0073216Y0122195D01*
X0072833Y0121811D01*
X0072833Y0120660D01*
X0075135Y0120660D01*
X0075135Y0121811D01*
X0074751Y0122195D01*
X0153300Y0170450D02*
X0154067Y0170450D01*
X0153684Y0170450D02*
X0153684Y0172752D01*
X0154067Y0172752D02*
X0153300Y0172752D01*
X0154773Y0172368D02*
X0154773Y0170834D01*
X0155157Y0170450D01*
X0155924Y0170450D01*
X0156308Y0170834D01*
X0156983Y0170450D02*
X0158518Y0170450D01*
X0157750Y0170450D02*
X0157750Y0172752D01*
X0156983Y0171985D01*
X0156308Y0172368D02*
X0155924Y0172752D01*
X0155157Y0172752D01*
X0154773Y0172368D01*
X0167148Y0172660D02*
X0168299Y0172660D01*
X0167915Y0173427D01*
X0167915Y0173811D01*
X0168299Y0174195D01*
X0169066Y0174195D01*
X0169450Y0173811D01*
X0169450Y0173044D01*
X0169066Y0172660D01*
X0169066Y0171985D02*
X0169450Y0171601D01*
X0169450Y0170834D01*
X0169066Y0170450D01*
X0167532Y0170450D01*
X0167148Y0170834D01*
X0167148Y0171601D01*
X0167532Y0171985D01*
X0167148Y0172660D02*
X0167148Y0174195D01*
X0177791Y0171801D02*
X0177791Y0169500D01*
X0179326Y0169500D01*
X0180001Y0169883D02*
X0180385Y0169500D01*
X0181152Y0169500D01*
X0181536Y0169883D01*
X0181536Y0170267D01*
X0181152Y0170650D01*
X0180385Y0170650D01*
X0180001Y0171034D01*
X0180001Y0171418D01*
X0180385Y0171801D01*
X0181152Y0171801D01*
X0181536Y0171418D01*
X0182211Y0171034D02*
X0182978Y0171801D01*
X0182978Y0169500D01*
X0182211Y0169500D02*
X0183746Y0169500D01*
X0187179Y0169500D02*
X0187179Y0171801D01*
X0189389Y0171418D02*
X0189389Y0171034D01*
X0189772Y0170650D01*
X0190540Y0170650D01*
X0190923Y0170267D01*
X0190923Y0169883D01*
X0190540Y0169500D01*
X0189772Y0169500D01*
X0189389Y0169883D01*
X0188713Y0169500D02*
X0187179Y0169500D01*
X0189389Y0171418D02*
X0189772Y0171801D01*
X0190540Y0171801D01*
X0190923Y0171418D01*
X0191598Y0171418D02*
X0191982Y0171801D01*
X0192749Y0171801D01*
X0193133Y0171418D01*
X0193133Y0171034D01*
X0191598Y0169500D01*
X0193133Y0169500D01*
X0189656Y0163664D02*
X0188889Y0163664D01*
X0188505Y0163281D01*
X0187830Y0163281D02*
X0187830Y0162513D01*
X0187446Y0162130D01*
X0186295Y0162130D01*
X0186295Y0161363D02*
X0186295Y0163664D01*
X0187446Y0163664D01*
X0187830Y0163281D01*
X0189656Y0163664D02*
X0190040Y0163281D01*
X0190040Y0162897D01*
X0188505Y0161363D01*
X0190040Y0161363D01*
X0185236Y0161746D02*
X0185236Y0163664D01*
X0184852Y0163664D02*
X0185620Y0163664D01*
X0185236Y0161746D02*
X0184852Y0161363D01*
X0184469Y0161363D01*
X0184085Y0161746D01*
X0175317Y0154002D02*
X0175317Y0151700D01*
X0174550Y0151700D02*
X0176085Y0151700D01*
X0174550Y0153235D02*
X0175317Y0154002D01*
X0173875Y0151700D02*
X0172340Y0151700D01*
X0172340Y0154002D01*
X0176982Y0135625D02*
X0177365Y0135625D01*
X0177749Y0135241D01*
X0178133Y0135625D01*
X0178516Y0135625D01*
X0178900Y0135241D01*
X0178900Y0134474D01*
X0178516Y0134090D01*
X0178516Y0133415D02*
X0176982Y0133415D01*
X0176598Y0133031D01*
X0176598Y0131880D01*
X0178900Y0131880D01*
X0178900Y0133031D01*
X0178516Y0133415D01*
X0177749Y0134857D02*
X0177749Y0135241D01*
X0176982Y0135625D02*
X0176598Y0135241D01*
X0176598Y0134474D01*
X0176982Y0134090D01*
X0184123Y0133615D02*
X0184123Y0135150D01*
X0184507Y0135150D01*
X0186041Y0133615D01*
X0186425Y0133615D01*
X0186425Y0132940D02*
X0185658Y0132173D01*
X0185658Y0132556D02*
X0185658Y0131405D01*
X0186425Y0131405D02*
X0184123Y0131405D01*
X0184123Y0132556D01*
X0184507Y0132940D01*
X0185274Y0132940D01*
X0185658Y0132556D01*
X0203650Y0129339D02*
X0204417Y0129339D01*
X0204034Y0129339D02*
X0204034Y0127037D01*
X0204417Y0127037D02*
X0203650Y0127037D01*
X0205123Y0127421D02*
X0205507Y0127037D01*
X0206274Y0127037D01*
X0206658Y0127421D01*
X0207333Y0128188D02*
X0208868Y0128188D01*
X0208484Y0127037D02*
X0208484Y0129339D01*
X0207333Y0128188D01*
X0206658Y0128956D02*
X0206274Y0129339D01*
X0205507Y0129339D01*
X0205123Y0128956D01*
X0205123Y0127421D01*
X0240273Y0126021D02*
X0240273Y0124870D01*
X0242575Y0124870D01*
X0242575Y0126021D01*
X0242191Y0126404D01*
X0240657Y0126404D01*
X0240273Y0126021D01*
X0240273Y0124195D02*
X0242575Y0124195D01*
X0240273Y0122660D01*
X0242575Y0122660D01*
X0242191Y0121985D02*
X0241424Y0121985D01*
X0241424Y0121217D01*
X0240657Y0120450D02*
X0242191Y0120450D01*
X0242575Y0120834D01*
X0242575Y0121601D01*
X0242191Y0121985D01*
X0240657Y0121985D02*
X0240273Y0121601D01*
X0240273Y0120834D01*
X0240657Y0120450D01*
X0063406Y0024435D02*
X0063406Y0022900D01*
D12*
X0061705Y0027500D03*
D13*
X0061705Y0027510D03*
X0058915Y0030520D03*
X0058915Y0030820D03*
X0064965Y0032410D03*
X0062305Y0035800D03*
X0061705Y0035570D03*
X0061675Y0035580D03*
X0061655Y0035590D03*
X0057815Y0036160D03*
D14*
X0057805Y0036150D03*
X0055575Y0035730D03*
X0060145Y0036340D03*
X0061475Y0035660D03*
X0062305Y0035780D03*
X0063535Y0030710D03*
X0061705Y0027520D03*
X0058935Y0030760D03*
X0052825Y0031820D03*
D15*
X0054665Y0030630D03*
X0055575Y0035710D03*
X0055575Y0035720D03*
X0061415Y0035680D03*
X0061885Y0035490D03*
X0063535Y0030700D03*
X0061705Y0027530D03*
X0061065Y0027780D03*
D16*
X0061705Y0027540D03*
X0058945Y0030660D03*
X0058945Y0030680D03*
X0054665Y0030620D03*
X0052825Y0031810D03*
X0057795Y0036140D03*
X0061385Y0035690D03*
X0061905Y0035480D03*
X0062295Y0035740D03*
X0064595Y0034200D03*
X0064975Y0032390D03*
D17*
X0063530Y0030670D03*
X0061710Y0027550D03*
X0061060Y0027800D03*
X0059160Y0030540D03*
X0052820Y0031800D03*
X0055580Y0035660D03*
X0055580Y0035670D03*
X0057780Y0036130D03*
X0061330Y0035710D03*
X0062300Y0035710D03*
D18*
X0061300Y0035720D03*
X0064580Y0034210D03*
X0063530Y0030660D03*
X0061710Y0027560D03*
X0061060Y0027820D03*
X0059160Y0030550D03*
X0054670Y0030580D03*
X0056150Y0035460D03*
X0056220Y0035480D03*
X0056250Y0035490D03*
X0055590Y0035620D03*
X0055580Y0035630D03*
D19*
X0061270Y0035730D03*
X0054670Y0030570D03*
X0061060Y0027840D03*
X0061710Y0027570D03*
D20*
X0061710Y0027580D03*
X0061060Y0027860D03*
X0061060Y0027870D03*
X0059150Y0030510D03*
X0059130Y0030520D03*
X0054670Y0030550D03*
X0052830Y0031780D03*
X0053260Y0034330D03*
X0057750Y0036110D03*
X0061220Y0035750D03*
X0063930Y0030620D03*
X0063910Y0030600D03*
X0063910Y0030590D03*
X0063900Y0030580D03*
X0063880Y0030560D03*
D21*
X0063975Y0030680D03*
X0064005Y0030720D03*
X0063525Y0030590D03*
X0064975Y0032340D03*
X0061175Y0035770D03*
X0056425Y0035540D03*
X0054675Y0030520D03*
X0056915Y0027770D03*
X0061065Y0027910D03*
X0061065Y0027920D03*
X0061715Y0027590D03*
D22*
X0061720Y0027600D03*
X0061060Y0027930D03*
X0059230Y0030590D03*
X0059230Y0030600D03*
X0059250Y0030630D03*
X0056910Y0027780D03*
X0054680Y0030500D03*
X0054680Y0030510D03*
X0052830Y0031760D03*
X0055600Y0035500D03*
X0055600Y0035510D03*
X0060260Y0036260D03*
X0061130Y0035790D03*
X0061150Y0035780D03*
X0062280Y0035570D03*
X0062280Y0035560D03*
X0064560Y0034230D03*
X0064020Y0030740D03*
X0064010Y0030730D03*
X0063520Y0030580D03*
X0063520Y0030570D03*
D23*
X0063520Y0030560D03*
X0063520Y0030550D03*
X0064040Y0030770D03*
X0064050Y0030780D03*
X0061720Y0027610D03*
X0061070Y0027970D03*
X0061070Y0027980D03*
X0061070Y0028000D03*
X0059260Y0030680D03*
X0059260Y0030690D03*
X0059260Y0030700D03*
X0059260Y0030710D03*
X0059260Y0030720D03*
X0056910Y0027790D03*
X0054680Y0030480D03*
X0054680Y0030490D03*
X0055600Y0035490D03*
X0060270Y0036250D03*
X0061090Y0035810D03*
X0061110Y0035800D03*
X0062280Y0035550D03*
X0062280Y0035540D03*
D24*
X0062270Y0035510D03*
X0062270Y0035500D03*
X0064970Y0032310D03*
X0064070Y0030810D03*
X0063520Y0030530D03*
X0061720Y0027620D03*
X0061070Y0028010D03*
X0061070Y0028030D03*
X0061070Y0028040D03*
X0061070Y0028050D03*
X0061070Y0028060D03*
X0061070Y0028070D03*
X0061070Y0028080D03*
X0061070Y0028090D03*
X0061070Y0028110D03*
X0061070Y0028130D03*
X0059520Y0030910D03*
X0057020Y0029790D03*
X0057020Y0029780D03*
X0057020Y0029770D03*
X0057020Y0029760D03*
X0057020Y0029750D03*
X0057020Y0029740D03*
X0057010Y0029700D03*
X0057010Y0029680D03*
X0057010Y0029660D03*
X0055610Y0035460D03*
D25*
X0055610Y0035450D03*
X0055610Y0035440D03*
X0060330Y0036210D03*
X0060350Y0036200D03*
X0061000Y0035850D03*
X0062270Y0035480D03*
X0064970Y0032300D03*
X0064970Y0032290D03*
X0064110Y0030870D03*
X0061070Y0028250D03*
X0061070Y0028230D03*
X0061070Y0028220D03*
X0061070Y0028210D03*
X0061070Y0028200D03*
X0061070Y0028190D03*
X0061070Y0028180D03*
X0061070Y0028170D03*
X0061070Y0028160D03*
X0061070Y0028150D03*
X0061070Y0028140D03*
X0061070Y0028120D03*
X0061720Y0027630D03*
X0059500Y0030940D03*
X0059210Y0030820D03*
X0059200Y0030830D03*
X0058370Y0031030D03*
X0057050Y0029870D03*
X0057000Y0029600D03*
X0057000Y0029590D03*
X0057000Y0029580D03*
X0057000Y0029570D03*
X0057000Y0029560D03*
X0057000Y0029550D03*
X0056910Y0027920D03*
X0056910Y0027890D03*
X0056910Y0027870D03*
X0056900Y0027860D03*
X0056910Y0027850D03*
D26*
X0056915Y0028040D03*
X0056965Y0029200D03*
X0056965Y0029220D03*
X0057065Y0029910D03*
X0057075Y0029920D03*
X0054105Y0030450D03*
X0053305Y0034350D03*
X0055605Y0035430D03*
X0056625Y0035600D03*
X0060415Y0036160D03*
X0060925Y0035890D03*
X0064515Y0034250D03*
X0064955Y0032260D03*
X0061055Y0028520D03*
X0061065Y0028450D03*
X0061065Y0028430D03*
X0061065Y0028420D03*
X0061065Y0028410D03*
X0061065Y0028400D03*
X0061065Y0028390D03*
X0061065Y0028380D03*
X0061065Y0028370D03*
X0061065Y0028360D03*
X0061065Y0028340D03*
X0061725Y0027640D03*
D27*
X0061730Y0027650D03*
X0061060Y0028440D03*
X0061060Y0028460D03*
X0061060Y0028470D03*
X0061060Y0028480D03*
X0061060Y0028490D03*
X0061060Y0028500D03*
X0061060Y0028510D03*
X0061060Y0028530D03*
X0061060Y0028550D03*
X0061050Y0028560D03*
X0061050Y0028590D03*
X0061050Y0028610D03*
X0061050Y0028630D03*
X0061050Y0028650D03*
X0061050Y0028670D03*
X0059470Y0030970D03*
X0057080Y0029930D03*
X0054690Y0030390D03*
X0054690Y0030400D03*
X0054090Y0030460D03*
X0054080Y0030470D03*
X0057670Y0036060D03*
X0060470Y0036130D03*
X0060490Y0036120D03*
X0060880Y0035910D03*
X0060900Y0035900D03*
X0064950Y0032250D03*
X0064150Y0030930D03*
D28*
X0064170Y0030960D03*
X0064940Y0032230D03*
X0063380Y0028740D03*
X0061730Y0027660D03*
X0061050Y0028640D03*
X0061050Y0028660D03*
X0061050Y0028680D03*
X0061050Y0028700D03*
X0061050Y0028730D03*
X0061050Y0028760D03*
X0061040Y0028780D03*
X0061050Y0028790D03*
X0061040Y0028800D03*
X0061040Y0028810D03*
X0061040Y0028830D03*
X0061040Y0028850D03*
X0061040Y0028870D03*
X0061040Y0028890D03*
X0059470Y0030980D03*
X0058840Y0031030D03*
X0057100Y0029970D03*
X0057090Y0029950D03*
X0056930Y0028060D03*
X0054690Y0030380D03*
X0054050Y0030490D03*
X0054030Y0030500D03*
X0056690Y0035620D03*
X0060560Y0036080D03*
X0060580Y0036070D03*
X0060600Y0036060D03*
X0060620Y0036050D03*
X0060650Y0036030D03*
X0060670Y0036020D03*
X0060690Y0036010D03*
X0060710Y0036000D03*
X0060730Y0035990D03*
X0060770Y0035970D03*
X0060780Y0035960D03*
D29*
X0057640Y0036040D03*
X0064500Y0034260D03*
X0064200Y0031010D03*
X0060930Y0030050D03*
X0060930Y0030040D03*
X0060930Y0030030D03*
X0060940Y0030000D03*
X0061030Y0029040D03*
X0061030Y0029000D03*
X0061040Y0028940D03*
X0061040Y0028920D03*
X0061040Y0028900D03*
X0061040Y0028880D03*
X0061730Y0027670D03*
X0056940Y0028080D03*
X0057130Y0030040D03*
X0057130Y0030060D03*
D30*
X0057130Y0030050D03*
X0056950Y0028110D03*
X0059450Y0031000D03*
X0060950Y0029930D03*
X0060950Y0029910D03*
X0060960Y0029880D03*
X0060960Y0029870D03*
X0060960Y0029860D03*
X0060960Y0029850D03*
X0060960Y0029840D03*
X0060970Y0029810D03*
X0060970Y0029790D03*
X0061020Y0029130D03*
X0061030Y0029110D03*
X0061030Y0029100D03*
X0061030Y0029090D03*
X0061030Y0029070D03*
X0061030Y0029060D03*
X0061030Y0029050D03*
X0061030Y0029030D03*
X0061730Y0027680D03*
X0064210Y0031030D03*
X0064220Y0031040D03*
X0064900Y0032170D03*
X0064910Y0032180D03*
X0057620Y0036030D03*
X0053980Y0030540D03*
D31*
X0056970Y0027690D03*
X0058920Y0030500D03*
X0058980Y0030540D03*
X0058850Y0030550D03*
X0058840Y0030560D03*
X0058830Y0030570D03*
X0059020Y0030710D03*
X0058920Y0030840D03*
X0058890Y0030830D03*
X0062310Y0035830D03*
D32*
X0064895Y0032160D03*
X0064235Y0031060D03*
X0064225Y0031050D03*
X0060965Y0029830D03*
X0060965Y0029820D03*
X0060965Y0029800D03*
X0060975Y0029770D03*
X0060975Y0029760D03*
X0060975Y0029750D03*
X0060975Y0029740D03*
X0060975Y0029730D03*
X0060985Y0029680D03*
X0060985Y0029660D03*
X0060985Y0029640D03*
X0061015Y0029230D03*
X0061015Y0029200D03*
X0061025Y0029190D03*
X0061025Y0029170D03*
X0061025Y0029160D03*
X0061025Y0029150D03*
X0061025Y0029140D03*
X0061025Y0029120D03*
X0061735Y0027690D03*
X0056965Y0028140D03*
X0056955Y0028130D03*
X0056955Y0028120D03*
X0053965Y0030550D03*
X0053955Y0030560D03*
X0052855Y0031680D03*
X0055595Y0035420D03*
X0056775Y0035650D03*
D33*
X0060130Y0036360D03*
X0062310Y0035820D03*
X0058930Y0030560D03*
X0056970Y0027700D03*
X0054660Y0030660D03*
D34*
X0057585Y0036010D03*
X0064885Y0032140D03*
X0064245Y0031080D03*
X0063385Y0028750D03*
X0061735Y0027700D03*
X0060995Y0029490D03*
X0060995Y0029510D03*
X0060995Y0029530D03*
X0060995Y0029540D03*
X0060995Y0029550D03*
X0060995Y0029570D03*
X0060985Y0029650D03*
D35*
X0058930Y0030510D03*
X0056970Y0027710D03*
X0052820Y0031830D03*
X0055570Y0035760D03*
X0062310Y0035810D03*
D36*
X0064460Y0034280D03*
X0064850Y0032080D03*
X0064840Y0032060D03*
X0064290Y0031150D03*
X0061740Y0027710D03*
X0058830Y0031020D03*
X0053900Y0030600D03*
X0052870Y0031650D03*
X0053360Y0034370D03*
X0056970Y0035730D03*
X0057520Y0035980D03*
X0057540Y0035990D03*
D37*
X0058965Y0030610D03*
X0056965Y0027720D03*
D38*
X0056955Y0028190D03*
X0054775Y0028680D03*
X0053885Y0030610D03*
X0053875Y0030620D03*
X0059415Y0031030D03*
X0061745Y0027720D03*
X0064295Y0031160D03*
X0064305Y0031170D03*
X0064835Y0032050D03*
X0064845Y0032070D03*
X0056995Y0035740D03*
D39*
X0061860Y0035500D03*
X0064970Y0032400D03*
X0058960Y0030640D03*
X0056960Y0027730D03*
D40*
X0056945Y0028200D03*
X0061745Y0027730D03*
X0064325Y0031200D03*
X0064325Y0031210D03*
X0064335Y0031220D03*
X0064815Y0032010D03*
X0064815Y0032020D03*
X0064825Y0032030D03*
X0057455Y0035950D03*
X0057065Y0035770D03*
X0052875Y0031640D03*
D41*
X0055580Y0035680D03*
X0055580Y0035690D03*
X0062300Y0035730D03*
X0063530Y0030690D03*
X0063530Y0030680D03*
X0061060Y0027790D03*
X0056950Y0027740D03*
D42*
X0053850Y0030640D03*
X0052880Y0031630D03*
X0061750Y0027740D03*
X0064350Y0031240D03*
X0064800Y0031990D03*
X0064810Y0032000D03*
D43*
X0064975Y0032370D03*
X0063525Y0030650D03*
X0061055Y0027830D03*
X0056935Y0027750D03*
X0052825Y0031790D03*
X0055585Y0035610D03*
X0056115Y0035450D03*
X0056285Y0035500D03*
X0056315Y0035510D03*
X0057765Y0036120D03*
X0062295Y0035670D03*
X0062295Y0035660D03*
D44*
X0064790Y0031970D03*
X0064780Y0031950D03*
X0064380Y0031290D03*
X0064370Y0031270D03*
X0061750Y0027750D03*
X0059650Y0030520D03*
X0054770Y0028690D03*
X0053810Y0030670D03*
X0052890Y0031620D03*
X0057140Y0035800D03*
X0057160Y0035810D03*
X0057250Y0035850D03*
X0057270Y0035860D03*
X0057290Y0035870D03*
X0057310Y0035880D03*
X0057330Y0035890D03*
D45*
X0056355Y0035520D03*
X0056045Y0035430D03*
X0055595Y0035560D03*
X0055595Y0035580D03*
X0060215Y0036290D03*
X0061245Y0035740D03*
X0064975Y0032360D03*
X0063875Y0030550D03*
X0063865Y0030540D03*
X0063855Y0030530D03*
X0063525Y0030630D03*
X0063525Y0030640D03*
X0061055Y0027850D03*
X0059195Y0030560D03*
X0056925Y0027760D03*
X0054675Y0030560D03*
D46*
X0054660Y0030670D03*
X0054620Y0028640D03*
X0054690Y0028630D03*
X0054800Y0028620D03*
X0058250Y0030340D03*
X0058400Y0030320D03*
X0058520Y0030310D03*
X0058540Y0030310D03*
X0058920Y0030490D03*
X0058960Y0030500D03*
X0059020Y0030530D03*
X0059030Y0030540D03*
X0059050Y0030610D03*
X0059050Y0030620D03*
X0059060Y0030640D03*
X0059060Y0030650D03*
X0059060Y0030680D03*
X0059060Y0030690D03*
X0059060Y0030710D03*
X0059050Y0030730D03*
X0059030Y0030760D03*
X0059020Y0030770D03*
X0059020Y0030780D03*
X0059010Y0030790D03*
X0059000Y0030800D03*
X0058990Y0030810D03*
X0058990Y0030790D03*
X0059000Y0030780D03*
X0058970Y0030790D03*
X0058970Y0030800D03*
X0058950Y0030800D03*
X0058940Y0030830D03*
X0058920Y0030850D03*
X0059040Y0030770D03*
X0059070Y0030610D03*
X0058910Y0030550D03*
X0058870Y0030610D03*
X0058860Y0030630D03*
X0058860Y0030640D03*
X0058840Y0030620D03*
X0058840Y0030610D03*
X0058850Y0030600D03*
X0058830Y0030630D03*
X0058830Y0030640D03*
X0058830Y0030650D03*
X0058830Y0030660D03*
X0058830Y0030680D03*
X0058830Y0030700D03*
X0058830Y0030710D03*
X0058730Y0031040D03*
X0058730Y0031050D03*
X0058750Y0031050D03*
X0058710Y0031040D03*
X0058650Y0031040D03*
X0058600Y0031030D03*
X0058580Y0031030D03*
X0058890Y0031060D03*
X0058910Y0031060D03*
X0058930Y0031060D03*
X0059000Y0031040D03*
X0059050Y0031050D03*
X0059350Y0030540D03*
X0059380Y0030550D03*
X0059320Y0030520D03*
X0059310Y0030510D03*
X0059330Y0030330D03*
X0059350Y0030330D03*
X0059370Y0030330D03*
X0059500Y0030340D03*
X0059520Y0030340D03*
X0059180Y0030320D03*
X0058990Y0030310D03*
X0058970Y0030310D03*
X0059740Y0030900D03*
X0059760Y0030920D03*
X0059780Y0030950D03*
X0059800Y0030960D03*
X0059830Y0030980D03*
X0059850Y0030990D03*
X0059880Y0031000D03*
X0059850Y0031040D03*
X0059870Y0031050D03*
X0059870Y0031080D03*
X0059890Y0031110D03*
X0059880Y0031140D03*
X0059870Y0031170D03*
X0059900Y0031180D03*
X0059890Y0031210D03*
X0059860Y0031210D03*
X0059830Y0031230D03*
X0059800Y0031220D03*
X0059770Y0031220D03*
X0059770Y0031180D03*
X0059740Y0031190D03*
X0059750Y0031140D03*
X0059730Y0031130D03*
X0059770Y0031100D03*
X0059790Y0031110D03*
X0059810Y0031120D03*
X0059840Y0031140D03*
X0059850Y0031110D03*
X0059830Y0031080D03*
X0059810Y0031070D03*
X0059790Y0031060D03*
X0059770Y0031030D03*
X0059740Y0031020D03*
X0059740Y0031050D03*
X0059750Y0031080D03*
X0059780Y0031150D03*
X0059800Y0031160D03*
X0059810Y0031190D03*
X0059840Y0031180D03*
X0059860Y0031250D03*
X0059890Y0031250D03*
X0059910Y0031270D03*
X0059880Y0031300D03*
X0059860Y0031290D03*
X0059830Y0031280D03*
X0059810Y0031260D03*
X0059780Y0031260D03*
X0059790Y0031290D03*
X0059780Y0031320D03*
X0059800Y0031350D03*
X0059820Y0031370D03*
X0059840Y0031380D03*
X0059870Y0031400D03*
X0059890Y0031410D03*
X0059910Y0031430D03*
X0059900Y0031470D03*
X0059920Y0031480D03*
X0059940Y0031500D03*
X0059910Y0031520D03*
X0059890Y0031510D03*
X0059860Y0031490D03*
X0059840Y0031480D03*
X0059810Y0031490D03*
X0059810Y0031460D03*
X0059790Y0031450D03*
X0059810Y0031410D03*
X0059830Y0031420D03*
X0059850Y0031440D03*
X0059870Y0031450D03*
X0059830Y0031520D03*
X0059850Y0031530D03*
X0059840Y0031560D03*
X0059810Y0031560D03*
X0059790Y0031540D03*
X0059830Y0031590D03*
X0059820Y0031620D03*
X0059820Y0031650D03*
X0059830Y0031680D03*
X0059860Y0031690D03*
X0059880Y0031700D03*
X0059900Y0031720D03*
X0059920Y0031730D03*
X0059900Y0031760D03*
X0059890Y0031790D03*
X0059860Y0031790D03*
X0059830Y0031770D03*
X0059810Y0031760D03*
X0059830Y0031720D03*
X0059850Y0031730D03*
X0059870Y0031750D03*
X0059920Y0031800D03*
X0059940Y0031770D03*
X0059930Y0031840D03*
X0059900Y0031840D03*
X0059880Y0031830D03*
X0059850Y0031840D03*
X0059830Y0031820D03*
X0059840Y0031870D03*
X0059840Y0031900D03*
X0059830Y0031930D03*
X0059860Y0031940D03*
X0059880Y0031950D03*
X0059910Y0031960D03*
X0059940Y0031980D03*
X0059910Y0032010D03*
X0059890Y0032000D03*
X0059870Y0031990D03*
X0059840Y0032010D03*
X0059870Y0032030D03*
X0059890Y0032050D03*
X0059910Y0032060D03*
X0059920Y0032090D03*
X0059880Y0032090D03*
X0059860Y0032080D03*
X0059840Y0032050D03*
X0059840Y0032120D03*
X0059860Y0032130D03*
X0059890Y0032130D03*
X0059910Y0032140D03*
X0059930Y0032150D03*
X0059910Y0032180D03*
X0059880Y0032170D03*
X0059850Y0032160D03*
X0059850Y0032200D03*
X0059870Y0032210D03*
X0059900Y0032220D03*
X0059920Y0032230D03*
X0059900Y0032270D03*
X0059880Y0032250D03*
X0059850Y0032240D03*
X0059840Y0032280D03*
X0059860Y0032290D03*
X0059850Y0032320D03*
X0059870Y0032340D03*
X0059900Y0032360D03*
X0059910Y0032320D03*
X0059890Y0032310D03*
X0059860Y0032380D03*
X0059840Y0032370D03*
X0059820Y0032340D03*
X0059840Y0032410D03*
X0059850Y0032440D03*
X0059880Y0032440D03*
X0059880Y0032400D03*
X0059840Y0032470D03*
X0059860Y0032490D03*
X0059880Y0032500D03*
X0059860Y0032540D03*
X0059840Y0032530D03*
X0059820Y0032510D03*
X0059830Y0032570D03*
X0059830Y0032600D03*
X0059820Y0032630D03*
X0059830Y0032660D03*
X0059820Y0032690D03*
X0059810Y0032720D03*
X0059830Y0032750D03*
X0059800Y0032780D03*
X0059780Y0032770D03*
X0059810Y0032810D03*
X0059780Y0032840D03*
X0059790Y0032880D03*
X0059780Y0032910D03*
X0059770Y0032950D03*
X0059740Y0033040D03*
X0059860Y0032620D03*
X0059860Y0032580D03*
X0059940Y0032030D03*
X0059930Y0031930D03*
X0059910Y0031920D03*
X0059880Y0031900D03*
X0059880Y0031870D03*
X0059910Y0031880D03*
X0059940Y0031880D03*
X0059840Y0031970D03*
X0059950Y0031700D03*
X0059930Y0031690D03*
X0059910Y0031670D03*
X0059890Y0031650D03*
X0059860Y0031650D03*
X0059860Y0031620D03*
X0059870Y0031590D03*
X0059890Y0031600D03*
X0059910Y0031620D03*
X0059940Y0031640D03*
X0059930Y0031590D03*
X0059940Y0031550D03*
X0059900Y0031560D03*
X0059880Y0031550D03*
X0059930Y0031390D03*
X0059900Y0031370D03*
X0059880Y0031360D03*
X0059860Y0031340D03*
X0059840Y0031330D03*
X0059820Y0031320D03*
X0059790Y0031380D03*
X0059900Y0031320D03*
X0059920Y0031330D03*
X0059830Y0031030D03*
X0059810Y0031020D03*
X0059790Y0031000D03*
X0059770Y0030990D03*
X0059730Y0030990D03*
X0059740Y0030960D03*
X0059720Y0030950D03*
X0059790Y0030900D03*
X0059810Y0030920D03*
X0059840Y0030940D03*
X0059870Y0030950D03*
X0059860Y0030910D03*
X0059840Y0030900D03*
X0059790Y0030870D03*
X0061190Y0030100D03*
X0061110Y0027760D03*
X0061060Y0027760D03*
X0061040Y0027760D03*
X0063240Y0028720D03*
X0063340Y0028710D03*
X0063370Y0028710D03*
X0063400Y0028710D03*
X0063510Y0028720D03*
X0063570Y0028730D03*
X0063570Y0030740D03*
X0064950Y0032420D03*
X0064970Y0032420D03*
X0064650Y0034180D03*
X0064630Y0034180D03*
X0064610Y0034180D03*
X0064540Y0034190D03*
X0064380Y0034230D03*
X0062730Y0035400D03*
X0062020Y0035480D03*
X0062330Y0034200D03*
X0059330Y0033740D03*
X0059250Y0033730D03*
X0059150Y0033720D03*
X0059130Y0033720D03*
X0058810Y0033720D03*
X0058790Y0033720D03*
X0058700Y0033730D03*
X0058620Y0033740D03*
X0058560Y0033750D03*
X0058160Y0033090D03*
X0058140Y0033030D03*
X0058130Y0033000D03*
X0058120Y0032930D03*
X0058100Y0032900D03*
X0058110Y0032860D03*
X0058090Y0032830D03*
X0058080Y0032790D03*
X0058090Y0032760D03*
X0058070Y0032750D03*
X0058070Y0032710D03*
X0058060Y0032680D03*
X0058040Y0032650D03*
X0058040Y0032620D03*
X0058040Y0032590D03*
X0058020Y0032580D03*
X0058040Y0032540D03*
X0058020Y0032530D03*
X0058010Y0032490D03*
X0057990Y0032480D03*
X0058030Y0032450D03*
X0058050Y0032470D03*
X0058050Y0032500D03*
X0058070Y0032560D03*
X0058070Y0032610D03*
X0058080Y0032650D03*
X0058010Y0032430D03*
X0058000Y0032400D03*
X0058000Y0032370D03*
X0058030Y0032370D03*
X0058050Y0032340D03*
X0058030Y0032330D03*
X0058000Y0032330D03*
X0057990Y0032300D03*
X0058000Y0032270D03*
X0057980Y0032260D03*
X0057970Y0032220D03*
X0057950Y0032200D03*
X0057990Y0032190D03*
X0058020Y0032190D03*
X0058040Y0032200D03*
X0058030Y0032240D03*
X0058010Y0032230D03*
X0058050Y0032260D03*
X0058030Y0032290D03*
X0057970Y0032360D03*
X0058040Y0032410D03*
X0058060Y0032420D03*
X0058050Y0032150D03*
X0058020Y0032150D03*
X0058000Y0032120D03*
X0057980Y0032100D03*
X0057960Y0032090D03*
X0057970Y0032130D03*
X0057980Y0032160D03*
X0058030Y0032110D03*
X0058040Y0032080D03*
X0058010Y0032070D03*
X0057990Y0032060D03*
X0057950Y0032050D03*
X0057970Y0032020D03*
X0058000Y0032020D03*
X0058020Y0032030D03*
X0058050Y0032040D03*
X0058030Y0031990D03*
X0058000Y0031980D03*
X0057970Y0031960D03*
X0057950Y0031940D03*
X0057930Y0031920D03*
X0057950Y0031890D03*
X0057950Y0031860D03*
X0057950Y0031830D03*
X0057980Y0031840D03*
X0058010Y0031820D03*
X0058010Y0031790D03*
X0058040Y0031800D03*
X0058060Y0031770D03*
X0058020Y0031760D03*
X0058010Y0031730D03*
X0057980Y0031720D03*
X0057950Y0031710D03*
X0057970Y0031680D03*
X0057950Y0031660D03*
X0057960Y0031630D03*
X0057940Y0031620D03*
X0057930Y0031590D03*
X0057960Y0031570D03*
X0057980Y0031590D03*
X0058000Y0031610D03*
X0058020Y0031630D03*
X0058030Y0031660D03*
X0058060Y0031670D03*
X0058070Y0031700D03*
X0058050Y0031730D03*
X0058030Y0031700D03*
X0058010Y0031690D03*
X0057990Y0031650D03*
X0058060Y0031630D03*
X0058050Y0031600D03*
X0058030Y0031580D03*
X0058010Y0031560D03*
X0057990Y0031550D03*
X0057960Y0031540D03*
X0057960Y0031510D03*
X0057980Y0031480D03*
X0057960Y0031460D03*
X0057990Y0031440D03*
X0058010Y0031450D03*
X0058020Y0031480D03*
X0058040Y0031500D03*
X0058040Y0031530D03*
X0058060Y0031560D03*
X0058080Y0031570D03*
X0058080Y0031520D03*
X0058080Y0031490D03*
X0058090Y0031460D03*
X0058050Y0031460D03*
X0058060Y0031430D03*
X0058040Y0031420D03*
X0058020Y0031410D03*
X0058000Y0031400D03*
X0057980Y0031390D03*
X0057970Y0031360D03*
X0058000Y0031340D03*
X0058020Y0031360D03*
X0058050Y0031370D03*
X0058080Y0031390D03*
X0058100Y0031420D03*
X0058100Y0031360D03*
X0058080Y0031350D03*
X0058050Y0031330D03*
X0058030Y0031310D03*
X0058000Y0031310D03*
X0057980Y0031280D03*
X0058000Y0031250D03*
X0057980Y0031240D03*
X0057980Y0031200D03*
X0058010Y0031210D03*
X0058030Y0031220D03*
X0058050Y0031240D03*
X0058050Y0031280D03*
X0058020Y0031270D03*
X0058080Y0031270D03*
X0058090Y0031240D03*
X0058080Y0031210D03*
X0058060Y0031190D03*
X0058040Y0031170D03*
X0058010Y0031170D03*
X0057990Y0031160D03*
X0057990Y0031120D03*
X0058020Y0031100D03*
X0058030Y0031130D03*
X0058060Y0031140D03*
X0058080Y0031150D03*
X0058100Y0031180D03*
X0058120Y0031210D03*
X0058120Y0031260D03*
X0058110Y0031300D03*
X0058080Y0031310D03*
X0057960Y0031320D03*
X0057960Y0031420D03*
X0058000Y0031510D03*
X0057960Y0031750D03*
X0057980Y0031760D03*
X0057970Y0031800D03*
X0057950Y0031790D03*
X0058020Y0031850D03*
X0058050Y0031840D03*
X0058050Y0031880D03*
X0058030Y0031910D03*
X0058010Y0031890D03*
X0057990Y0031880D03*
X0057980Y0031910D03*
X0058000Y0031940D03*
X0058020Y0031950D03*
X0058050Y0031960D03*
X0057960Y0031990D03*
X0058130Y0031160D03*
X0058110Y0031130D03*
X0058110Y0031100D03*
X0058140Y0031110D03*
X0058130Y0031070D03*
X0058120Y0031040D03*
X0058100Y0031030D03*
X0058080Y0031000D03*
X0058060Y0030980D03*
X0058030Y0030990D03*
X0058000Y0030980D03*
X0058010Y0031020D03*
X0058030Y0031050D03*
X0058000Y0031070D03*
X0058050Y0031080D03*
X0058070Y0031100D03*
X0058090Y0031070D03*
X0058070Y0031050D03*
X0058050Y0031020D03*
X0058110Y0030980D03*
X0058130Y0031000D03*
X0058150Y0031010D03*
X0058160Y0031050D03*
X0058170Y0030970D03*
X0058150Y0030960D03*
X0058120Y0030950D03*
X0058100Y0030920D03*
X0058130Y0030910D03*
X0058150Y0030920D03*
X0058120Y0030880D03*
X0058080Y0030890D03*
X0058080Y0030870D03*
X0058040Y0030910D03*
X0058060Y0030930D03*
X0058080Y0030950D03*
X0058030Y0030950D03*
X0052820Y0031840D03*
X0053180Y0034310D03*
X0053200Y0034310D03*
X0053220Y0034310D03*
X0053240Y0034310D03*
X0053260Y0034310D03*
X0053530Y0034350D03*
X0053700Y0034380D03*
X0053750Y0034390D03*
X0054840Y0035340D03*
X0054990Y0035370D03*
X0055050Y0035380D03*
X0055180Y0035400D03*
X0055260Y0035410D03*
X0055330Y0035420D03*
X0055590Y0035780D03*
X0056460Y0035510D03*
X0056550Y0035530D03*
X0056810Y0035590D03*
X0056850Y0035600D03*
X0057800Y0036170D03*
X0060120Y0036370D03*
D47*
X0059035Y0030590D03*
X0058945Y0030310D03*
X0061085Y0027760D03*
D48*
X0061755Y0027760D03*
X0063475Y0030230D03*
X0064375Y0031280D03*
X0064755Y0031910D03*
X0064765Y0031920D03*
X0064765Y0031930D03*
X0064775Y0031940D03*
X0062165Y0035450D03*
X0062155Y0035460D03*
X0057225Y0035840D03*
X0057205Y0035830D03*
D49*
X0061500Y0035650D03*
X0061520Y0035640D03*
X0061820Y0035520D03*
X0061840Y0035510D03*
X0058910Y0030720D03*
X0058960Y0030630D03*
X0061070Y0027770D03*
X0054660Y0030640D03*
D50*
X0052890Y0031610D03*
X0056930Y0028220D03*
X0059380Y0031050D03*
X0061760Y0027770D03*
X0063470Y0030220D03*
X0063480Y0030240D03*
X0063490Y0030250D03*
X0063500Y0030260D03*
X0063500Y0030270D03*
X0063510Y0030280D03*
X0063520Y0030290D03*
X0063520Y0030300D03*
X0064400Y0031320D03*
X0064410Y0031330D03*
X0064420Y0031350D03*
X0064740Y0031880D03*
X0064750Y0031900D03*
X0062190Y0035440D03*
D51*
X0060250Y0032360D03*
X0063570Y0030400D03*
X0063570Y0030390D03*
X0063560Y0030380D03*
X0063550Y0030360D03*
X0063540Y0030340D03*
X0063580Y0030410D03*
X0063590Y0030420D03*
X0063600Y0030430D03*
X0063630Y0030470D03*
X0063640Y0030490D03*
X0063650Y0030500D03*
X0063470Y0030210D03*
X0063470Y0030200D03*
X0064430Y0031370D03*
X0064440Y0031380D03*
X0064450Y0031400D03*
X0064700Y0031810D03*
X0064710Y0031830D03*
X0061760Y0027780D03*
X0056920Y0028230D03*
X0054780Y0028700D03*
X0053760Y0030710D03*
X0052900Y0031600D03*
D52*
X0052905Y0031590D03*
X0053745Y0030720D03*
X0053405Y0034390D03*
X0060245Y0032420D03*
X0060245Y0032390D03*
X0060245Y0032380D03*
X0060255Y0032340D03*
X0060255Y0032330D03*
X0060255Y0032320D03*
X0060255Y0032310D03*
X0060265Y0032280D03*
X0063465Y0030190D03*
X0063655Y0030510D03*
X0063665Y0030520D03*
X0064445Y0031390D03*
X0064455Y0031410D03*
X0064465Y0031420D03*
X0064475Y0031440D03*
X0064665Y0031750D03*
X0064675Y0031770D03*
X0064685Y0031780D03*
X0064685Y0031790D03*
X0064695Y0031800D03*
X0064705Y0031820D03*
X0061765Y0027790D03*
D53*
X0061065Y0027990D03*
X0061065Y0028020D03*
X0063375Y0028730D03*
X0063525Y0030540D03*
X0064055Y0030790D03*
X0064065Y0030800D03*
X0064975Y0032320D03*
X0062275Y0035520D03*
X0062275Y0035530D03*
X0061065Y0035820D03*
X0060285Y0036240D03*
X0057725Y0036090D03*
X0055605Y0035480D03*
X0055605Y0035470D03*
X0053285Y0034340D03*
X0052835Y0031750D03*
X0054685Y0030470D03*
X0057025Y0029800D03*
X0057015Y0029720D03*
X0058365Y0031020D03*
X0059235Y0030780D03*
X0059245Y0030770D03*
X0059245Y0030760D03*
X0059255Y0030750D03*
X0059255Y0030740D03*
X0059255Y0030730D03*
X0059535Y0030900D03*
X0056905Y0027800D03*
D54*
X0053725Y0030740D03*
X0052915Y0031580D03*
X0060245Y0032430D03*
X0060245Y0032450D03*
X0060245Y0032460D03*
X0060245Y0032480D03*
X0060265Y0032270D03*
X0060275Y0032250D03*
X0060275Y0032240D03*
X0060275Y0032230D03*
X0063465Y0030180D03*
X0064515Y0031500D03*
X0064525Y0031520D03*
X0064535Y0031530D03*
X0064545Y0031550D03*
X0064555Y0031560D03*
X0064565Y0031580D03*
X0064575Y0031600D03*
X0064585Y0031610D03*
X0064595Y0031630D03*
X0064605Y0031650D03*
X0064615Y0031660D03*
X0064615Y0031670D03*
X0064625Y0031680D03*
X0064635Y0031690D03*
X0064635Y0031700D03*
X0064655Y0031730D03*
X0061765Y0027800D03*
D55*
X0064080Y0030820D03*
X0064080Y0030830D03*
X0059540Y0030890D03*
X0059230Y0030800D03*
X0059230Y0030790D03*
X0058740Y0030310D03*
X0057030Y0029820D03*
X0057030Y0029810D03*
X0056900Y0027810D03*
X0056500Y0035560D03*
X0060300Y0036230D03*
D56*
X0060185Y0036310D03*
X0062295Y0035700D03*
X0062295Y0035690D03*
X0062295Y0035680D03*
X0064975Y0032380D03*
X0063375Y0028720D03*
X0061055Y0027810D03*
X0059155Y0030530D03*
X0056185Y0035470D03*
X0055585Y0035640D03*
X0055585Y0035650D03*
D57*
X0052920Y0031570D03*
X0053700Y0030760D03*
X0053710Y0030750D03*
X0054780Y0028710D03*
X0056900Y0028250D03*
X0061770Y0027810D03*
X0063460Y0030170D03*
X0064560Y0031570D03*
X0064570Y0031590D03*
X0064600Y0031640D03*
X0060280Y0032210D03*
X0060280Y0032220D03*
D58*
X0059505Y0030930D03*
X0059515Y0030920D03*
X0059555Y0030880D03*
X0059215Y0030810D03*
X0057045Y0029860D03*
X0057035Y0029850D03*
X0057035Y0029840D03*
X0057035Y0029830D03*
X0057015Y0029730D03*
X0057015Y0029710D03*
X0057015Y0029690D03*
X0057005Y0029670D03*
X0057005Y0029650D03*
X0057005Y0029640D03*
X0057005Y0029630D03*
X0057005Y0029620D03*
X0057005Y0029610D03*
X0056905Y0027840D03*
X0056905Y0027830D03*
X0056905Y0027820D03*
X0054685Y0030450D03*
X0054685Y0030460D03*
X0052835Y0031740D03*
X0056535Y0035570D03*
X0057705Y0036080D03*
X0060315Y0036220D03*
X0061025Y0035840D03*
X0061045Y0035830D03*
X0062265Y0035490D03*
X0064535Y0034240D03*
X0064095Y0030850D03*
X0061065Y0028100D03*
D59*
X0061775Y0027820D03*
X0060295Y0032180D03*
X0060245Y0032510D03*
X0060245Y0032520D03*
X0060245Y0032530D03*
X0053695Y0030770D03*
X0052925Y0031560D03*
D60*
X0053670Y0030790D03*
X0053680Y0030780D03*
X0056890Y0028260D03*
X0061780Y0027830D03*
X0063390Y0028790D03*
X0060300Y0032160D03*
X0060300Y0032170D03*
X0060290Y0032190D03*
X0060240Y0032540D03*
X0064390Y0034320D03*
X0053430Y0034400D03*
D61*
X0052935Y0031550D03*
X0052945Y0031540D03*
X0060245Y0032550D03*
X0060245Y0032560D03*
X0060245Y0032570D03*
X0061785Y0027840D03*
D62*
X0061785Y0027850D03*
X0063455Y0030150D03*
X0060245Y0032590D03*
X0062235Y0035020D03*
X0064375Y0034330D03*
X0056885Y0028270D03*
X0053635Y0030820D03*
X0053625Y0030830D03*
X0052955Y0031530D03*
D63*
X0052960Y0031520D03*
X0053620Y0030840D03*
X0056880Y0028280D03*
X0061790Y0027860D03*
X0060330Y0032090D03*
X0060320Y0032100D03*
X0060320Y0032110D03*
X0060250Y0032600D03*
X0060250Y0032610D03*
X0062230Y0035010D03*
X0062240Y0035030D03*
X0062300Y0035410D03*
X0053450Y0034410D03*
D64*
X0052965Y0031510D03*
X0053585Y0030870D03*
X0053595Y0030860D03*
X0053605Y0030850D03*
X0060255Y0032620D03*
X0060255Y0032630D03*
X0060335Y0032070D03*
X0062215Y0034980D03*
X0062225Y0035000D03*
X0063385Y0028800D03*
X0061795Y0027870D03*
D65*
X0061065Y0028240D03*
X0061065Y0028270D03*
X0061065Y0028290D03*
X0061065Y0028320D03*
X0061065Y0028350D03*
X0059575Y0030870D03*
X0059495Y0030950D03*
X0057065Y0029900D03*
X0057055Y0029890D03*
X0057055Y0029880D03*
X0056995Y0029530D03*
X0056995Y0029510D03*
X0056995Y0029490D03*
X0056985Y0029480D03*
X0056985Y0029460D03*
X0056985Y0029450D03*
X0056985Y0029440D03*
X0056985Y0029430D03*
X0056985Y0029420D03*
X0056985Y0029410D03*
X0056975Y0029340D03*
X0056965Y0029210D03*
X0056965Y0029190D03*
X0056905Y0027950D03*
X0056905Y0027930D03*
X0056905Y0027910D03*
X0056905Y0027900D03*
X0056905Y0027880D03*
X0054775Y0028650D03*
X0054185Y0030400D03*
X0054165Y0030410D03*
X0054135Y0030430D03*
X0052835Y0031730D03*
X0056565Y0035580D03*
X0056595Y0035590D03*
X0060985Y0035860D03*
X0064965Y0032280D03*
X0064105Y0030860D03*
D66*
X0063945Y0030640D03*
X0063935Y0030630D03*
X0063925Y0030610D03*
X0063525Y0030620D03*
X0064975Y0032350D03*
X0064565Y0034220D03*
X0062285Y0035600D03*
X0062285Y0035610D03*
X0061195Y0035760D03*
X0060225Y0036280D03*
X0056385Y0035530D03*
X0056005Y0035420D03*
X0055595Y0035540D03*
X0055595Y0035550D03*
X0054675Y0030540D03*
X0054675Y0030530D03*
X0054785Y0028640D03*
X0059215Y0030570D03*
X0061065Y0027880D03*
D67*
X0061800Y0027880D03*
X0060330Y0032080D03*
X0060250Y0032640D03*
X0055650Y0034990D03*
X0055650Y0035000D03*
X0055640Y0035010D03*
X0052980Y0031500D03*
X0054590Y0030250D03*
X0054780Y0028730D03*
D68*
X0059220Y0030580D03*
X0061060Y0027900D03*
X0061060Y0027890D03*
X0063520Y0030600D03*
X0063520Y0030610D03*
X0063950Y0030650D03*
X0063960Y0030660D03*
X0063970Y0030670D03*
X0063980Y0030690D03*
X0062280Y0035580D03*
X0062280Y0035590D03*
X0055600Y0035530D03*
X0052830Y0031770D03*
D69*
X0052985Y0031490D03*
X0052995Y0031480D03*
X0053555Y0030900D03*
X0053565Y0030890D03*
X0053575Y0030880D03*
X0054605Y0030240D03*
X0057545Y0032220D03*
X0057545Y0032240D03*
X0057555Y0032290D03*
X0057555Y0032310D03*
X0060255Y0032650D03*
X0060255Y0032660D03*
X0060335Y0032060D03*
X0060345Y0032050D03*
X0064355Y0034340D03*
X0062325Y0035400D03*
X0055635Y0035020D03*
X0061805Y0027890D03*
D70*
X0061810Y0027900D03*
X0061810Y0027910D03*
X0060350Y0032040D03*
X0060260Y0032670D03*
X0057560Y0032370D03*
X0057560Y0032350D03*
X0057560Y0032330D03*
X0057550Y0032280D03*
X0057550Y0032270D03*
X0057550Y0032260D03*
X0057550Y0032250D03*
X0057550Y0032230D03*
X0057530Y0032140D03*
X0055670Y0034970D03*
X0053010Y0031470D03*
X0054570Y0030270D03*
X0054580Y0030260D03*
X0056860Y0028300D03*
X0062200Y0034960D03*
X0062210Y0034970D03*
D71*
X0060355Y0032030D03*
X0060355Y0032020D03*
X0057555Y0032300D03*
X0057555Y0032320D03*
X0057555Y0032340D03*
X0057555Y0032360D03*
X0057555Y0032380D03*
X0057565Y0032390D03*
X0057535Y0032160D03*
X0057535Y0032150D03*
X0057525Y0032120D03*
X0055675Y0034960D03*
X0053465Y0034420D03*
X0053015Y0031460D03*
X0053025Y0031450D03*
X0053035Y0031440D03*
X0053505Y0030950D03*
X0053515Y0030940D03*
X0053525Y0030930D03*
X0053535Y0030920D03*
X0054565Y0030280D03*
X0054785Y0028740D03*
X0061815Y0027920D03*
D72*
X0061820Y0027930D03*
X0061830Y0027940D03*
X0060360Y0032010D03*
X0060260Y0032680D03*
X0060260Y0032690D03*
X0057560Y0032450D03*
X0057560Y0032430D03*
X0057560Y0032420D03*
X0057560Y0032410D03*
X0057560Y0032400D03*
X0057530Y0032130D03*
X0057530Y0032110D03*
X0057520Y0032100D03*
X0057520Y0032090D03*
X0057520Y0032080D03*
X0062200Y0034950D03*
X0064340Y0034350D03*
X0056850Y0028310D03*
X0054630Y0030230D03*
X0054550Y0030290D03*
D73*
X0054690Y0030410D03*
X0054690Y0030420D03*
X0054220Y0030380D03*
X0054200Y0030390D03*
X0054150Y0030420D03*
X0054120Y0030440D03*
X0056980Y0029400D03*
X0056980Y0029390D03*
X0056980Y0029380D03*
X0056980Y0029370D03*
X0056980Y0029360D03*
X0056980Y0029350D03*
X0056980Y0029330D03*
X0056970Y0029320D03*
X0056980Y0029310D03*
X0056970Y0029300D03*
X0056970Y0029290D03*
X0056970Y0029280D03*
X0056970Y0029270D03*
X0056970Y0029260D03*
X0056970Y0029250D03*
X0056970Y0029240D03*
X0056970Y0029230D03*
X0056960Y0029180D03*
X0056960Y0029170D03*
X0056960Y0029160D03*
X0056960Y0029150D03*
X0056960Y0029140D03*
X0056910Y0028030D03*
X0056910Y0028020D03*
X0056910Y0028010D03*
X0056910Y0028000D03*
X0056910Y0027990D03*
X0056910Y0027980D03*
X0056910Y0027970D03*
X0056910Y0027960D03*
X0056910Y0027940D03*
X0059180Y0030840D03*
X0059480Y0030960D03*
X0061070Y0028330D03*
X0061070Y0028310D03*
X0061070Y0028300D03*
X0061070Y0028280D03*
X0061070Y0028260D03*
X0064120Y0030880D03*
X0064120Y0030890D03*
X0064130Y0030900D03*
X0064960Y0032270D03*
X0060960Y0035870D03*
X0060940Y0035880D03*
X0060400Y0036170D03*
X0060380Y0036180D03*
X0060370Y0036190D03*
X0057690Y0036070D03*
D74*
X0056465Y0035550D03*
X0061065Y0027960D03*
X0061065Y0027950D03*
X0061065Y0027940D03*
D75*
X0061830Y0027950D03*
X0061840Y0027960D03*
X0063390Y0028820D03*
X0060370Y0031990D03*
X0060260Y0032710D03*
X0060270Y0032720D03*
X0057560Y0032500D03*
X0057560Y0032490D03*
X0057560Y0032480D03*
X0057560Y0032470D03*
X0057510Y0032040D03*
X0057510Y0032030D03*
X0057500Y0032020D03*
X0053460Y0031000D03*
X0054780Y0028750D03*
X0062190Y0034930D03*
D76*
X0062185Y0034920D03*
X0064325Y0034360D03*
X0060375Y0031980D03*
X0057505Y0032010D03*
X0057495Y0031990D03*
X0054705Y0030190D03*
X0054685Y0030200D03*
X0054675Y0030210D03*
X0054525Y0030320D03*
X0053445Y0031010D03*
X0053435Y0031020D03*
X0053425Y0031030D03*
X0053125Y0031350D03*
X0053105Y0031370D03*
X0053095Y0031380D03*
X0053485Y0034430D03*
X0055695Y0034930D03*
X0061845Y0027970D03*
D77*
X0061850Y0027980D03*
X0061860Y0027990D03*
X0061860Y0028000D03*
X0058440Y0030510D03*
X0058420Y0030520D03*
X0057490Y0031970D03*
X0057500Y0032000D03*
X0057560Y0032520D03*
X0057560Y0032530D03*
X0057560Y0032540D03*
X0057560Y0032550D03*
X0060270Y0032730D03*
X0060270Y0032740D03*
X0060380Y0031970D03*
X0056840Y0028330D03*
X0053420Y0031040D03*
X0053410Y0031050D03*
X0053400Y0031060D03*
X0053390Y0031070D03*
X0053380Y0031080D03*
X0053370Y0031090D03*
X0053160Y0031310D03*
X0053150Y0031320D03*
X0053140Y0031330D03*
X0053130Y0031340D03*
X0055700Y0034920D03*
D78*
X0057560Y0032580D03*
X0057560Y0032570D03*
X0057560Y0032560D03*
X0053320Y0031140D03*
X0053310Y0031150D03*
X0053270Y0031190D03*
X0053210Y0031260D03*
X0053170Y0031300D03*
X0061870Y0028010D03*
D79*
X0061875Y0028020D03*
X0063395Y0028830D03*
X0060395Y0031940D03*
X0060385Y0031960D03*
X0060275Y0032750D03*
X0062185Y0034910D03*
X0062375Y0035380D03*
X0064305Y0034370D03*
X0058475Y0030490D03*
X0058455Y0030500D03*
X0057485Y0031950D03*
X0057495Y0031980D03*
X0054725Y0030180D03*
X0054505Y0030340D03*
X0054495Y0030350D03*
X0053355Y0031100D03*
X0053355Y0031110D03*
X0053335Y0031130D03*
X0053235Y0031230D03*
X0053215Y0031250D03*
X0053195Y0031270D03*
X0053175Y0031290D03*
X0055705Y0034910D03*
X0055705Y0035410D03*
X0054785Y0028760D03*
X0056825Y0028340D03*
D80*
X0058400Y0030530D03*
X0057480Y0031940D03*
X0057490Y0031960D03*
X0055700Y0034900D03*
X0053500Y0034440D03*
X0053190Y0031280D03*
X0053250Y0031210D03*
X0053280Y0031180D03*
X0053290Y0031170D03*
X0053300Y0031160D03*
X0053340Y0031120D03*
X0060390Y0031950D03*
X0060280Y0032760D03*
X0062180Y0034900D03*
X0061880Y0028030D03*
D81*
X0061885Y0028040D03*
X0061895Y0028050D03*
X0060275Y0032770D03*
X0057555Y0032600D03*
X0057555Y0032590D03*
X0057475Y0031930D03*
X0057475Y0031920D03*
X0054745Y0030170D03*
X0054485Y0030360D03*
X0053265Y0031200D03*
X0053245Y0031220D03*
X0053225Y0031240D03*
X0055705Y0034890D03*
X0056825Y0028350D03*
D82*
X0056925Y0028050D03*
X0057085Y0029940D03*
X0057095Y0029960D03*
X0059155Y0030850D03*
X0061045Y0028770D03*
X0061045Y0028750D03*
X0061045Y0028740D03*
X0061045Y0028720D03*
X0061045Y0028710D03*
X0061045Y0028690D03*
X0061055Y0028620D03*
X0061055Y0028600D03*
X0061055Y0028580D03*
X0061055Y0028570D03*
X0061055Y0028540D03*
X0064155Y0030940D03*
X0064945Y0032240D03*
X0060845Y0035930D03*
X0060825Y0035940D03*
X0060805Y0035950D03*
X0060545Y0036090D03*
X0060525Y0036100D03*
X0060505Y0036110D03*
X0060455Y0036140D03*
X0056655Y0035610D03*
X0052845Y0031710D03*
D83*
X0055710Y0034880D03*
X0057560Y0032620D03*
X0057560Y0032610D03*
X0057470Y0031910D03*
X0057470Y0031900D03*
X0060400Y0031920D03*
X0060400Y0031930D03*
X0060410Y0031910D03*
X0060280Y0032780D03*
X0062180Y0034880D03*
X0062180Y0034890D03*
X0062400Y0035370D03*
X0061910Y0028070D03*
X0061900Y0028060D03*
D84*
X0061045Y0028820D03*
X0061045Y0028840D03*
X0061045Y0028860D03*
X0061035Y0028910D03*
X0061035Y0028930D03*
X0061035Y0028950D03*
X0061035Y0028970D03*
X0060915Y0030100D03*
X0059455Y0030990D03*
X0058405Y0031040D03*
X0057105Y0029980D03*
X0056935Y0028070D03*
X0054765Y0028660D03*
X0054695Y0030370D03*
X0054025Y0030510D03*
X0052845Y0031700D03*
X0057655Y0036050D03*
X0060635Y0036040D03*
X0060745Y0035980D03*
X0064925Y0032210D03*
X0064935Y0032220D03*
X0064185Y0030990D03*
X0064185Y0030980D03*
X0064175Y0030970D03*
D85*
X0061925Y0028100D03*
X0061925Y0028090D03*
X0061915Y0028080D03*
X0060285Y0032790D03*
X0057555Y0032640D03*
X0057555Y0032630D03*
X0057465Y0031890D03*
X0053515Y0034450D03*
X0054785Y0028770D03*
X0056815Y0028360D03*
X0064295Y0034380D03*
D86*
X0064915Y0032190D03*
X0064205Y0031020D03*
X0064195Y0031000D03*
X0060915Y0030110D03*
X0060935Y0030020D03*
X0060935Y0030010D03*
X0060935Y0029990D03*
X0060945Y0029980D03*
X0060945Y0029970D03*
X0060945Y0029960D03*
X0060945Y0029950D03*
X0060945Y0029940D03*
X0060955Y0029920D03*
X0060955Y0029900D03*
X0060955Y0029890D03*
X0061025Y0029080D03*
X0061035Y0029020D03*
X0061035Y0029010D03*
X0061035Y0028990D03*
X0061035Y0028980D03*
X0061035Y0028960D03*
X0057125Y0030030D03*
X0057135Y0030070D03*
X0056955Y0028100D03*
X0056945Y0028090D03*
X0053995Y0030530D03*
X0052845Y0031690D03*
X0053335Y0034360D03*
X0056745Y0035640D03*
D87*
X0055710Y0034870D03*
X0055710Y0034860D03*
X0057550Y0032650D03*
X0057460Y0031880D03*
X0057460Y0031870D03*
X0054770Y0030160D03*
X0056800Y0028370D03*
X0060420Y0031890D03*
X0060290Y0032800D03*
X0062180Y0034870D03*
X0061940Y0028120D03*
X0061930Y0028110D03*
D88*
X0061945Y0028130D03*
X0063395Y0028850D03*
X0059435Y0030500D03*
X0060285Y0032810D03*
X0062185Y0034860D03*
X0054785Y0028780D03*
D89*
X0057455Y0031860D03*
X0057555Y0032660D03*
X0057555Y0032670D03*
X0060415Y0031900D03*
X0064275Y0034390D03*
X0061955Y0028140D03*
X0055655Y0035400D03*
D90*
X0056800Y0035660D03*
X0056830Y0035670D03*
X0057600Y0036020D03*
X0064480Y0034270D03*
X0064890Y0032150D03*
X0064880Y0032130D03*
X0064240Y0031070D03*
X0060970Y0029780D03*
X0060980Y0029720D03*
X0060980Y0029710D03*
X0060980Y0029700D03*
X0060980Y0029690D03*
X0060980Y0029670D03*
X0060990Y0029630D03*
X0060990Y0029620D03*
X0060990Y0029610D03*
X0060990Y0029600D03*
X0060990Y0029590D03*
X0060990Y0029580D03*
X0060990Y0029560D03*
X0061000Y0029520D03*
X0061000Y0029500D03*
X0061000Y0029480D03*
X0061000Y0029470D03*
X0061000Y0029450D03*
X0061010Y0029380D03*
X0061010Y0029360D03*
X0061010Y0029350D03*
X0061010Y0029340D03*
X0061010Y0029330D03*
X0061010Y0029310D03*
X0061010Y0029300D03*
X0061010Y0029280D03*
X0061020Y0029270D03*
X0061010Y0029260D03*
X0061020Y0029250D03*
X0061020Y0029240D03*
X0061020Y0029220D03*
X0061020Y0029210D03*
X0061020Y0029180D03*
X0059440Y0031010D03*
X0056970Y0028170D03*
X0056960Y0028150D03*
X0054770Y0028670D03*
X0053940Y0030570D03*
D91*
X0056800Y0028380D03*
X0059400Y0030490D03*
X0060430Y0031870D03*
X0060420Y0031880D03*
X0060290Y0032820D03*
X0057550Y0032690D03*
X0057550Y0032680D03*
X0057450Y0031850D03*
X0057450Y0031840D03*
X0055710Y0034850D03*
X0062430Y0035360D03*
X0061970Y0028170D03*
X0061970Y0028160D03*
X0061960Y0028150D03*
D92*
X0061015Y0029290D03*
X0061015Y0029320D03*
X0061005Y0029370D03*
X0061005Y0029390D03*
X0061005Y0029400D03*
X0061005Y0029410D03*
X0061005Y0029420D03*
X0061005Y0029430D03*
X0061005Y0029440D03*
X0061005Y0029460D03*
X0064255Y0031090D03*
X0064255Y0031100D03*
X0064875Y0032120D03*
X0056855Y0035680D03*
X0052855Y0031670D03*
X0056965Y0028160D03*
D93*
X0056960Y0028180D03*
X0059430Y0031020D03*
X0064270Y0031120D03*
X0064860Y0032100D03*
X0064870Y0032110D03*
X0057560Y0036000D03*
X0056900Y0035700D03*
X0056880Y0035690D03*
X0053930Y0030580D03*
D94*
X0054805Y0030150D03*
X0057445Y0031830D03*
X0060295Y0032830D03*
X0062185Y0034850D03*
X0062395Y0028880D03*
X0062385Y0028870D03*
X0062385Y0028860D03*
X0062375Y0028850D03*
X0061985Y0028190D03*
X0061975Y0028180D03*
D95*
X0061990Y0028200D03*
X0062000Y0028210D03*
X0062010Y0028230D03*
X0062340Y0028780D03*
X0062350Y0028800D03*
X0062350Y0028810D03*
X0062360Y0028820D03*
X0062370Y0028840D03*
X0063390Y0028860D03*
X0060440Y0031850D03*
X0058660Y0031010D03*
X0057440Y0031810D03*
X0057440Y0031820D03*
X0057550Y0032700D03*
X0057550Y0032710D03*
X0057550Y0032720D03*
X0055710Y0034830D03*
X0055710Y0034840D03*
X0053530Y0034460D03*
X0054780Y0028790D03*
X0056780Y0028400D03*
X0056790Y0028390D03*
X0062190Y0034840D03*
D96*
X0064795Y0031980D03*
X0064785Y0031960D03*
X0064365Y0031260D03*
X0064355Y0031250D03*
X0059625Y0030510D03*
X0059405Y0031040D03*
X0056935Y0028210D03*
X0053835Y0030650D03*
X0053825Y0030660D03*
X0053385Y0034380D03*
X0057115Y0035790D03*
X0057355Y0035900D03*
X0057375Y0035910D03*
X0057395Y0035920D03*
X0057415Y0035930D03*
D97*
X0057545Y0032740D03*
X0057435Y0031800D03*
X0060435Y0031860D03*
X0060295Y0032840D03*
X0062185Y0034830D03*
X0062345Y0028790D03*
X0062335Y0028770D03*
X0062325Y0028760D03*
X0062325Y0028750D03*
X0062315Y0028740D03*
X0062025Y0028250D03*
X0062015Y0028240D03*
X0062005Y0028220D03*
X0063385Y0028870D03*
D98*
X0064470Y0031430D03*
X0064510Y0031490D03*
X0064520Y0031510D03*
X0064660Y0031740D03*
X0064670Y0031760D03*
X0064410Y0034310D03*
X0060260Y0032300D03*
X0060260Y0032290D03*
X0060270Y0032260D03*
X0058510Y0031060D03*
X0056910Y0028240D03*
D99*
X0054790Y0028800D03*
X0057430Y0031790D03*
X0057550Y0032730D03*
X0060300Y0032850D03*
X0060300Y0032860D03*
X0060450Y0031830D03*
X0062190Y0034810D03*
X0062190Y0034820D03*
X0062450Y0035350D03*
X0064250Y0034410D03*
X0062300Y0028710D03*
X0062300Y0028700D03*
X0062290Y0028690D03*
X0062280Y0028670D03*
X0062090Y0028350D03*
X0062050Y0028290D03*
X0062040Y0028280D03*
X0062040Y0028270D03*
X0062030Y0028260D03*
X0053550Y0034470D03*
D100*
X0055660Y0034980D03*
X0062220Y0034990D03*
X0056870Y0028290D03*
D101*
X0062060Y0028300D03*
X0062070Y0028320D03*
X0062310Y0028720D03*
X0062310Y0028730D03*
X0055710Y0034820D03*
D102*
X0055715Y0034810D03*
X0055605Y0035390D03*
X0057545Y0032760D03*
X0057545Y0032750D03*
X0057425Y0031780D03*
X0057425Y0031770D03*
X0058675Y0031000D03*
X0060445Y0031840D03*
X0060305Y0032870D03*
X0064235Y0034420D03*
X0062285Y0028680D03*
X0062275Y0028660D03*
X0062265Y0028650D03*
X0062265Y0028640D03*
X0062255Y0028630D03*
X0062255Y0028620D03*
X0062245Y0028610D03*
X0062235Y0028590D03*
X0062225Y0028580D03*
X0062225Y0028570D03*
X0062215Y0028560D03*
X0062205Y0028540D03*
X0062195Y0028520D03*
X0062185Y0028500D03*
X0062175Y0028490D03*
X0062165Y0028470D03*
X0062155Y0028450D03*
X0062135Y0028420D03*
X0062125Y0028400D03*
X0062115Y0028390D03*
X0062105Y0028370D03*
X0062095Y0028360D03*
X0062085Y0028340D03*
X0062075Y0028330D03*
X0062065Y0028310D03*
X0056775Y0028410D03*
X0056765Y0028420D03*
D103*
X0056845Y0028320D03*
X0054545Y0030300D03*
X0054535Y0030310D03*
X0053495Y0030960D03*
X0053485Y0030970D03*
X0053085Y0031390D03*
X0053045Y0031430D03*
X0055695Y0034940D03*
X0055685Y0034950D03*
X0062195Y0034940D03*
D104*
X0060460Y0031820D03*
X0057420Y0031760D03*
X0055710Y0034800D03*
X0056760Y0028430D03*
X0062110Y0028380D03*
X0062130Y0028410D03*
X0062150Y0028440D03*
X0062160Y0028460D03*
X0062170Y0028480D03*
X0062200Y0028530D03*
X0062210Y0028550D03*
X0063380Y0028880D03*
D105*
X0062240Y0028600D03*
X0062190Y0028510D03*
X0062140Y0028430D03*
X0057540Y0032780D03*
X0062190Y0034790D03*
X0062190Y0034800D03*
D106*
X0062190Y0034780D03*
X0062190Y0034770D03*
X0062190Y0034760D03*
X0064210Y0034440D03*
X0060310Y0032890D03*
X0060460Y0031810D03*
X0060470Y0031800D03*
X0057540Y0032790D03*
X0057540Y0032800D03*
X0057410Y0031740D03*
X0057410Y0031730D03*
X0055710Y0034780D03*
X0055710Y0034790D03*
X0055570Y0035380D03*
X0053560Y0034480D03*
X0054790Y0028820D03*
X0056750Y0028440D03*
D107*
X0056745Y0028450D03*
X0058695Y0030980D03*
X0057535Y0032810D03*
D108*
X0057535Y0032830D03*
X0057535Y0032840D03*
X0057395Y0031700D03*
X0057395Y0031690D03*
X0058705Y0030970D03*
X0060485Y0031770D03*
X0062185Y0034730D03*
X0062485Y0035330D03*
X0064185Y0034460D03*
X0055525Y0035370D03*
X0056735Y0028460D03*
D109*
X0056730Y0028470D03*
X0056720Y0028480D03*
X0054790Y0028840D03*
X0058720Y0030960D03*
X0057390Y0031680D03*
X0057530Y0032850D03*
X0060320Y0032920D03*
X0060490Y0031760D03*
X0062180Y0034720D03*
X0063260Y0035000D03*
X0063310Y0034980D03*
X0063350Y0034960D03*
X0063390Y0034940D03*
X0064150Y0034480D03*
X0064160Y0034470D03*
D110*
X0064135Y0034490D03*
X0063485Y0034890D03*
X0063465Y0034900D03*
X0063445Y0034910D03*
X0063425Y0034920D03*
X0063405Y0034930D03*
X0063365Y0034950D03*
X0063325Y0034970D03*
X0063285Y0034990D03*
X0063245Y0035010D03*
X0063215Y0035020D03*
X0060325Y0032940D03*
X0060325Y0032930D03*
X0057535Y0032860D03*
X0057385Y0031670D03*
X0055715Y0034730D03*
X0055715Y0034740D03*
X0056715Y0028490D03*
D111*
X0056705Y0028500D03*
X0054795Y0028860D03*
X0058725Y0030950D03*
X0057375Y0031640D03*
X0057375Y0031650D03*
X0057525Y0032890D03*
X0055715Y0034720D03*
X0063555Y0034850D03*
X0064105Y0034510D03*
D112*
X0064070Y0034530D03*
X0064060Y0034540D03*
X0063620Y0034810D03*
X0063600Y0034820D03*
X0062170Y0034690D03*
X0062170Y0034680D03*
X0060330Y0032960D03*
X0060330Y0032950D03*
X0060500Y0031730D03*
X0058730Y0030940D03*
X0057370Y0031630D03*
X0057530Y0032880D03*
X0055720Y0034700D03*
X0055720Y0034710D03*
X0055480Y0035360D03*
X0053610Y0034510D03*
X0056700Y0028510D03*
D113*
X0056690Y0028520D03*
X0063590Y0034830D03*
X0064090Y0034520D03*
D114*
X0064030Y0034560D03*
X0064000Y0034580D03*
X0063980Y0034590D03*
X0063970Y0034600D03*
X0063720Y0034750D03*
X0063690Y0034770D03*
X0063670Y0034780D03*
X0062520Y0035310D03*
X0062160Y0034670D03*
X0060520Y0031710D03*
X0057520Y0032920D03*
X0057360Y0031610D03*
X0055730Y0034670D03*
X0055440Y0035350D03*
X0053620Y0034520D03*
X0054800Y0028880D03*
X0056680Y0028540D03*
X0056680Y0028530D03*
D115*
X0056665Y0028550D03*
X0057355Y0031590D03*
X0057355Y0031600D03*
X0055725Y0034680D03*
X0060525Y0031700D03*
X0062155Y0034660D03*
X0063705Y0034760D03*
X0063755Y0034730D03*
X0063775Y0034720D03*
X0063805Y0034700D03*
X0063855Y0034670D03*
X0063905Y0034640D03*
X0063955Y0034610D03*
D116*
X0063920Y0034630D03*
X0063890Y0034650D03*
X0063870Y0034660D03*
X0063840Y0034680D03*
X0063820Y0034690D03*
X0063790Y0034710D03*
X0060340Y0032990D03*
X0060530Y0031690D03*
X0058740Y0030920D03*
X0057350Y0031580D03*
X0057520Y0032930D03*
X0057520Y0032940D03*
X0055730Y0034660D03*
X0055420Y0035340D03*
X0054800Y0028890D03*
X0056650Y0028570D03*
X0056660Y0028560D03*
D117*
X0056645Y0028580D03*
X0057345Y0031570D03*
X0055735Y0034640D03*
X0055735Y0034650D03*
X0053635Y0034530D03*
X0060535Y0031680D03*
X0062145Y0034640D03*
X0062155Y0034650D03*
X0062535Y0035300D03*
D118*
X0060535Y0031670D03*
X0060545Y0031660D03*
X0057345Y0031560D03*
X0057335Y0031550D03*
X0057515Y0032960D03*
X0057515Y0032970D03*
X0055745Y0034620D03*
X0053645Y0034540D03*
X0054805Y0028910D03*
X0056635Y0028590D03*
D119*
X0056630Y0028600D03*
X0054800Y0028900D03*
X0058740Y0030910D03*
X0060340Y0033000D03*
X0060350Y0033010D03*
X0055740Y0034630D03*
D120*
X0053660Y0034550D03*
X0057510Y0032980D03*
X0056610Y0028620D03*
X0056620Y0028610D03*
D121*
X0054800Y0028630D03*
X0055580Y0035700D03*
X0060160Y0036330D03*
X0062300Y0035760D03*
X0062300Y0035750D03*
D122*
X0062545Y0035290D03*
X0062125Y0034610D03*
X0060355Y0033030D03*
X0058745Y0030900D03*
X0057515Y0032990D03*
X0055755Y0034600D03*
X0054805Y0028930D03*
X0054805Y0028920D03*
X0056595Y0028640D03*
X0056605Y0028630D03*
D123*
X0056590Y0028650D03*
D124*
X0056580Y0028660D03*
X0054810Y0028940D03*
X0057330Y0031520D03*
X0057510Y0033000D03*
X0055760Y0034590D03*
X0060550Y0031650D03*
X0060560Y0031640D03*
D125*
X0060355Y0033040D03*
X0058745Y0030890D03*
X0057325Y0031510D03*
X0057505Y0033010D03*
X0057505Y0033020D03*
X0055765Y0034580D03*
X0055355Y0035320D03*
X0053675Y0034560D03*
X0056565Y0028680D03*
X0056575Y0028670D03*
D126*
X0056560Y0028690D03*
X0054810Y0028950D03*
X0057320Y0031490D03*
X0057320Y0031500D03*
X0055770Y0034570D03*
X0053690Y0034570D03*
X0060360Y0033050D03*
X0060560Y0031630D03*
X0060570Y0031620D03*
X0062110Y0034590D03*
X0062120Y0034600D03*
D127*
X0058745Y0030880D03*
X0056545Y0028710D03*
X0056545Y0028700D03*
D128*
X0054780Y0028720D03*
X0053660Y0030800D03*
X0053650Y0030810D03*
X0059340Y0031060D03*
X0060310Y0032130D03*
X0060250Y0032580D03*
D129*
X0060570Y0031610D03*
X0062100Y0034580D03*
X0057500Y0033050D03*
X0057500Y0033040D03*
X0057310Y0031470D03*
X0056530Y0028730D03*
X0056530Y0028720D03*
X0055330Y0035310D03*
D130*
X0055310Y0035300D03*
X0054360Y0034930D03*
X0053750Y0034610D03*
X0057500Y0033060D03*
X0057300Y0031440D03*
X0056520Y0028750D03*
X0056520Y0028740D03*
X0054820Y0028990D03*
X0060370Y0033080D03*
X0062570Y0035270D03*
D131*
X0054520Y0035000D03*
X0054260Y0034880D03*
X0054220Y0034860D03*
X0053820Y0034650D03*
X0054820Y0029000D03*
X0056510Y0028770D03*
X0056510Y0028760D03*
D132*
X0063390Y0028760D03*
X0064830Y0032040D03*
X0057500Y0035970D03*
X0057480Y0035960D03*
X0057040Y0035760D03*
D133*
X0057185Y0035820D03*
X0053795Y0030680D03*
X0063385Y0028770D03*
X0064385Y0031300D03*
X0064395Y0031310D03*
D134*
X0060600Y0031560D03*
X0060380Y0033110D03*
X0062580Y0035260D03*
X0057280Y0031390D03*
X0054120Y0034810D03*
X0054100Y0034800D03*
X0054080Y0034790D03*
X0054060Y0034780D03*
X0053970Y0034730D03*
X0053950Y0034720D03*
X0053930Y0034710D03*
X0053910Y0034700D03*
X0054830Y0029020D03*
X0056500Y0028790D03*
X0056500Y0028780D03*
D135*
X0053740Y0030730D03*
X0060250Y0032350D03*
X0060250Y0032370D03*
X0060250Y0032400D03*
X0060240Y0032410D03*
X0060240Y0032440D03*
X0062230Y0035430D03*
X0064650Y0031720D03*
X0064640Y0031710D03*
X0064500Y0031480D03*
X0064500Y0031470D03*
X0064490Y0031460D03*
X0064480Y0031450D03*
X0063390Y0028780D03*
D136*
X0062060Y0034530D03*
X0058940Y0033430D03*
X0057490Y0033120D03*
X0057280Y0031380D03*
X0055830Y0034510D03*
X0056490Y0028810D03*
X0056490Y0028800D03*
D137*
X0054785Y0028810D03*
X0058815Y0030330D03*
X0058685Y0030990D03*
X0057415Y0031750D03*
X0057545Y0032770D03*
X0060305Y0032880D03*
X0064225Y0034430D03*
X0062465Y0035340D03*
D138*
X0057540Y0032210D03*
X0057540Y0032200D03*
X0057540Y0032190D03*
X0057540Y0032180D03*
X0057540Y0032170D03*
X0053540Y0030910D03*
X0063390Y0028810D03*
D139*
X0060620Y0031530D03*
X0060390Y0033140D03*
X0058940Y0033410D03*
X0058940Y0033420D03*
X0057270Y0031360D03*
X0054840Y0029050D03*
X0056480Y0028820D03*
X0055840Y0034500D03*
X0055260Y0035270D03*
D140*
X0055710Y0034770D03*
X0053580Y0034490D03*
X0057400Y0031710D03*
X0057540Y0032820D03*
X0060320Y0032910D03*
X0060470Y0031790D03*
X0060480Y0031780D03*
X0062190Y0034740D03*
X0062190Y0034750D03*
X0064190Y0034450D03*
X0054790Y0028830D03*
D141*
X0054845Y0029060D03*
X0056485Y0028830D03*
X0057485Y0033140D03*
X0057485Y0033150D03*
X0058935Y0033400D03*
X0060395Y0033150D03*
X0060625Y0031520D03*
X0062035Y0034510D03*
D142*
X0064265Y0034400D03*
X0062365Y0028830D03*
D143*
X0058890Y0030350D03*
X0057260Y0031330D03*
X0057260Y0031340D03*
X0057480Y0033160D03*
X0058940Y0033390D03*
X0060630Y0031510D03*
X0062020Y0034500D03*
X0055850Y0034490D03*
X0056470Y0028840D03*
D144*
X0063390Y0028840D03*
D145*
X0060500Y0031740D03*
X0060490Y0031750D03*
X0057530Y0032870D03*
X0057380Y0031660D03*
X0053590Y0034500D03*
X0054790Y0028850D03*
X0062180Y0034700D03*
X0062180Y0034710D03*
X0062500Y0035320D03*
X0063190Y0035030D03*
X0063500Y0034880D03*
X0063530Y0034860D03*
D146*
X0062595Y0035240D03*
X0060395Y0033170D03*
X0060395Y0033160D03*
X0058935Y0033380D03*
X0057255Y0031320D03*
X0054845Y0029070D03*
X0056465Y0028860D03*
X0056475Y0028850D03*
X0055865Y0034480D03*
D147*
X0055725Y0034690D03*
X0057525Y0032910D03*
X0057525Y0032900D03*
X0057365Y0031620D03*
X0060515Y0031720D03*
X0060335Y0032970D03*
X0063635Y0034800D03*
X0063655Y0034790D03*
X0064015Y0034570D03*
X0064045Y0034550D03*
X0054795Y0028870D03*
D148*
X0054855Y0029090D03*
X0054855Y0029100D03*
X0054855Y0029110D03*
X0056455Y0028880D03*
X0056465Y0028870D03*
X0057245Y0031300D03*
X0057255Y0031310D03*
X0057475Y0033190D03*
X0058935Y0033350D03*
X0058935Y0033360D03*
X0060405Y0033180D03*
X0060645Y0031490D03*
X0062605Y0035230D03*
X0055875Y0034470D03*
D149*
X0055235Y0035250D03*
X0057475Y0033200D03*
X0058935Y0033320D03*
X0060405Y0033200D03*
X0060655Y0031470D03*
X0058895Y0030360D03*
X0057245Y0031290D03*
X0056455Y0028890D03*
X0061985Y0034470D03*
D150*
X0060775Y0033860D03*
X0060885Y0031060D03*
X0062945Y0029680D03*
X0062905Y0028890D03*
X0055225Y0029600D03*
X0055035Y0035070D03*
D151*
X0055890Y0034460D03*
X0057470Y0033210D03*
X0058940Y0033300D03*
X0058940Y0033310D03*
X0057240Y0031280D03*
X0056450Y0028900D03*
D152*
X0055220Y0029610D03*
X0055250Y0029710D03*
X0057130Y0033870D03*
X0060880Y0031070D03*
X0062990Y0029030D03*
X0062970Y0029000D03*
X0062960Y0028980D03*
X0062950Y0028970D03*
X0062940Y0028950D03*
X0062930Y0028930D03*
X0062920Y0028920D03*
X0062920Y0028910D03*
X0062910Y0028900D03*
D153*
X0057235Y0031260D03*
X0057235Y0031270D03*
X0058935Y0033290D03*
X0056445Y0028910D03*
D154*
X0056440Y0028920D03*
X0060670Y0031450D03*
X0060410Y0033220D03*
X0058940Y0033280D03*
X0057470Y0033230D03*
X0055900Y0034450D03*
X0055230Y0035240D03*
D155*
X0058935Y0033270D03*
X0058935Y0033250D03*
X0057225Y0031250D03*
X0057225Y0031240D03*
X0058905Y0030370D03*
X0056435Y0028930D03*
D156*
X0056430Y0028940D03*
X0057220Y0031230D03*
X0057470Y0033250D03*
X0058940Y0033260D03*
X0058940Y0033240D03*
X0060670Y0031440D03*
X0062620Y0035210D03*
D157*
X0060795Y0033870D03*
X0057105Y0033880D03*
X0063005Y0029060D03*
X0063005Y0029050D03*
X0062995Y0029040D03*
X0062985Y0029020D03*
X0062975Y0029010D03*
X0062945Y0028960D03*
X0062935Y0028940D03*
D158*
X0060675Y0031430D03*
X0060415Y0033240D03*
X0058935Y0033230D03*
X0057465Y0033260D03*
X0055925Y0034430D03*
X0061945Y0034440D03*
X0056425Y0028960D03*
X0056425Y0028950D03*
D159*
X0054815Y0028960D03*
X0058875Y0030340D03*
X0057315Y0031480D03*
X0057505Y0033030D03*
X0055775Y0034560D03*
X0053705Y0034580D03*
X0060365Y0033060D03*
X0062555Y0035280D03*
D160*
X0060365Y0033070D03*
X0054815Y0028980D03*
X0054815Y0028970D03*
X0053715Y0034590D03*
D161*
X0057465Y0033270D03*
X0058935Y0033200D03*
X0060415Y0033260D03*
X0061935Y0034430D03*
X0058905Y0030380D03*
X0056415Y0028980D03*
X0056415Y0028970D03*
D162*
X0056410Y0028990D03*
X0057210Y0031200D03*
X0057460Y0033280D03*
X0057460Y0033290D03*
X0060420Y0033270D03*
X0061920Y0034420D03*
D163*
X0062965Y0029670D03*
X0063015Y0029070D03*
X0062965Y0028990D03*
D164*
X0060695Y0031400D03*
X0060425Y0033280D03*
X0058935Y0033170D03*
X0058935Y0033160D03*
X0057205Y0031190D03*
X0055955Y0034410D03*
X0062635Y0035190D03*
X0056405Y0029000D03*
D165*
X0054825Y0029010D03*
X0057285Y0031410D03*
X0057295Y0031420D03*
X0057495Y0033090D03*
X0054575Y0035020D03*
X0054175Y0034840D03*
X0054155Y0034830D03*
X0054135Y0034820D03*
X0054045Y0034770D03*
X0054025Y0034760D03*
X0054005Y0034750D03*
X0053985Y0034740D03*
X0053875Y0034680D03*
X0053855Y0034670D03*
X0053835Y0034660D03*
X0055295Y0035290D03*
X0060375Y0033100D03*
X0060595Y0031570D03*
X0062065Y0034540D03*
D166*
X0058940Y0033150D03*
X0058940Y0033140D03*
X0057460Y0033300D03*
X0057200Y0031180D03*
X0055210Y0035220D03*
X0060700Y0031390D03*
X0056400Y0029010D03*
D167*
X0056400Y0029020D03*
X0056390Y0029030D03*
X0058940Y0031070D03*
X0057190Y0031160D03*
X0058940Y0033090D03*
X0058940Y0033100D03*
X0058940Y0033110D03*
X0060430Y0033300D03*
X0061890Y0034400D03*
X0055980Y0034390D03*
X0055200Y0035210D03*
D168*
X0055275Y0035280D03*
X0055815Y0034520D03*
X0057485Y0033110D03*
X0060385Y0033120D03*
X0060605Y0031550D03*
X0054835Y0029030D03*
D169*
X0054835Y0029040D03*
X0057485Y0033130D03*
X0060385Y0033130D03*
X0062045Y0034520D03*
X0062585Y0035250D03*
D170*
X0058935Y0033080D03*
X0057455Y0033320D03*
X0057455Y0033330D03*
X0055995Y0034380D03*
X0058935Y0031100D03*
X0058935Y0031080D03*
X0056385Y0029040D03*
D171*
X0056390Y0029050D03*
X0057180Y0031140D03*
X0057190Y0031150D03*
X0058940Y0031120D03*
X0058940Y0031110D03*
X0058940Y0031090D03*
X0058920Y0030400D03*
X0060720Y0031360D03*
X0060430Y0033310D03*
X0058940Y0033070D03*
X0058940Y0033060D03*
X0061870Y0034390D03*
X0062660Y0035170D03*
D172*
X0060435Y0033320D03*
X0058935Y0033050D03*
X0058935Y0033040D03*
X0057455Y0033340D03*
X0058935Y0031150D03*
X0058935Y0031140D03*
X0058935Y0031130D03*
X0056375Y0029060D03*
D173*
X0056380Y0029070D03*
X0057180Y0031130D03*
X0058940Y0031160D03*
X0058940Y0031170D03*
X0058940Y0031180D03*
X0060730Y0031340D03*
X0060430Y0033330D03*
X0058940Y0033030D03*
X0058940Y0033020D03*
X0058940Y0033010D03*
X0057450Y0033350D03*
X0055190Y0035200D03*
D174*
X0055250Y0035260D03*
X0057480Y0033180D03*
X0057480Y0033170D03*
X0058940Y0033370D03*
X0060640Y0031500D03*
X0054850Y0029080D03*
D175*
X0056370Y0029080D03*
X0060720Y0031350D03*
X0061860Y0034380D03*
X0056010Y0034370D03*
D176*
X0057090Y0033890D03*
X0055050Y0035080D03*
X0057100Y0030870D03*
X0055230Y0029700D03*
X0055210Y0029620D03*
X0060870Y0031080D03*
X0063040Y0029120D03*
X0063030Y0029100D03*
X0063020Y0029090D03*
X0063020Y0029080D03*
X0060810Y0033880D03*
D177*
X0056370Y0029090D03*
D178*
X0056365Y0029100D03*
X0057165Y0031100D03*
X0058935Y0031240D03*
X0058935Y0031270D03*
X0058925Y0030420D03*
X0060735Y0031330D03*
X0060745Y0031320D03*
X0058935Y0032930D03*
X0058935Y0032950D03*
X0058935Y0032960D03*
X0057445Y0033370D03*
X0057445Y0033380D03*
X0056035Y0034350D03*
X0061315Y0034140D03*
X0061825Y0034360D03*
X0062675Y0035150D03*
D179*
X0061390Y0034170D03*
X0061360Y0034160D03*
X0061340Y0034150D03*
X0061290Y0034130D03*
X0061270Y0034120D03*
X0060440Y0033360D03*
X0058940Y0032940D03*
X0058940Y0032920D03*
X0058940Y0032910D03*
X0058940Y0031310D03*
X0058940Y0031290D03*
X0058940Y0031280D03*
X0058940Y0031260D03*
X0057170Y0031090D03*
X0056360Y0029110D03*
X0055180Y0035190D03*
D180*
X0063045Y0029140D03*
X0063035Y0029110D03*
D181*
X0057290Y0030570D03*
X0055870Y0030120D03*
X0055870Y0030110D03*
X0055870Y0030100D03*
X0055660Y0029130D03*
X0055660Y0029120D03*
D182*
X0055210Y0029630D03*
X0055220Y0029690D03*
X0060860Y0031100D03*
X0063050Y0029150D03*
X0063040Y0029130D03*
X0060830Y0033890D03*
D183*
X0062580Y0030070D03*
X0055450Y0029150D03*
X0055450Y0029140D03*
D184*
X0055440Y0029160D03*
X0055430Y0029170D03*
X0062590Y0030060D03*
D185*
X0062985Y0029650D03*
X0063065Y0029180D03*
X0063055Y0029170D03*
X0063055Y0029160D03*
X0057045Y0033910D03*
X0055065Y0035090D03*
X0055205Y0029640D03*
D186*
X0055420Y0029190D03*
X0055430Y0029180D03*
X0062600Y0030050D03*
D187*
X0063005Y0029640D03*
X0063075Y0029210D03*
X0063065Y0029190D03*
X0060875Y0033910D03*
X0057025Y0033920D03*
X0055075Y0035100D03*
X0055205Y0029680D03*
X0055195Y0029650D03*
D188*
X0055415Y0029200D03*
D189*
X0060850Y0031120D03*
X0060860Y0031110D03*
X0063070Y0029200D03*
X0060850Y0033900D03*
D190*
X0055620Y0030070D03*
X0055410Y0029210D03*
D191*
X0055400Y0029220D03*
X0055400Y0029230D03*
X0062620Y0030030D03*
D192*
X0063080Y0029230D03*
X0063080Y0029220D03*
X0057090Y0030890D03*
X0057000Y0033930D03*
D193*
X0055390Y0029240D03*
X0062640Y0030020D03*
D194*
X0063085Y0029240D03*
X0060845Y0031130D03*
X0060885Y0033920D03*
X0056975Y0033940D03*
X0055195Y0029670D03*
X0055195Y0029660D03*
D195*
X0055385Y0029250D03*
X0055585Y0030040D03*
X0062645Y0030010D03*
D196*
X0063030Y0029620D03*
X0063090Y0029260D03*
X0063090Y0029250D03*
X0060840Y0031140D03*
X0060910Y0033930D03*
X0057090Y0030900D03*
X0055090Y0035110D03*
D197*
X0055380Y0029260D03*
D198*
X0055375Y0029270D03*
X0062655Y0030000D03*
D199*
X0063095Y0029270D03*
X0060835Y0031150D03*
X0062785Y0035040D03*
X0056955Y0033950D03*
D200*
X0060390Y0033720D03*
X0055560Y0030020D03*
X0055370Y0029280D03*
D201*
X0057090Y0030910D03*
X0060830Y0031160D03*
X0063040Y0029610D03*
X0063100Y0029290D03*
X0063100Y0029280D03*
X0060930Y0033940D03*
X0055100Y0035120D03*
D202*
X0055365Y0029290D03*
X0062665Y0029990D03*
D203*
X0062680Y0029980D03*
X0055550Y0030010D03*
X0055540Y0030000D03*
X0055360Y0029300D03*
D204*
X0062775Y0035050D03*
X0063115Y0029310D03*
X0063105Y0029300D03*
D205*
X0055355Y0029310D03*
D206*
X0055345Y0029320D03*
X0061275Y0030520D03*
X0062695Y0029960D03*
D207*
X0063060Y0029600D03*
X0063110Y0029320D03*
X0057100Y0030930D03*
X0056910Y0033970D03*
D208*
X0055340Y0029330D03*
D209*
X0056885Y0033980D03*
X0055115Y0035130D03*
X0060965Y0033960D03*
X0060815Y0031180D03*
X0060825Y0031170D03*
X0063075Y0029590D03*
X0063125Y0029340D03*
X0063115Y0029330D03*
D210*
X0061850Y0030150D03*
X0057500Y0033730D03*
X0055330Y0029350D03*
X0055340Y0029340D03*
D211*
X0057100Y0030940D03*
X0058950Y0030480D03*
X0063120Y0029350D03*
X0062770Y0035060D03*
D212*
X0061330Y0030490D03*
X0061340Y0030480D03*
X0061350Y0030470D03*
X0061380Y0030450D03*
X0061390Y0030440D03*
X0061400Y0030430D03*
X0061410Y0030420D03*
X0061450Y0030390D03*
X0055330Y0029360D03*
D213*
X0057105Y0030950D03*
X0056865Y0033990D03*
X0060985Y0033970D03*
X0060815Y0031190D03*
X0063085Y0029580D03*
X0063125Y0029370D03*
X0063125Y0029360D03*
D214*
X0062735Y0029920D03*
X0061835Y0030160D03*
X0061485Y0030370D03*
X0055485Y0029950D03*
X0055325Y0029370D03*
D215*
X0055320Y0029380D03*
X0062740Y0029910D03*
D216*
X0063130Y0029380D03*
X0061000Y0033980D03*
X0056840Y0034000D03*
X0056330Y0034190D03*
X0056280Y0034210D03*
X0055130Y0035140D03*
D217*
X0055475Y0029940D03*
X0055315Y0029390D03*
X0061505Y0030360D03*
X0061825Y0030170D03*
D218*
X0063095Y0029570D03*
X0063135Y0029400D03*
X0063135Y0029390D03*
X0060805Y0031210D03*
X0058945Y0030470D03*
X0057115Y0030970D03*
X0057105Y0030960D03*
X0056815Y0034010D03*
X0056795Y0034020D03*
X0056385Y0034170D03*
X0056265Y0034220D03*
X0056245Y0034230D03*
D219*
X0057455Y0033740D03*
X0055455Y0029920D03*
X0055305Y0029400D03*
X0061545Y0030340D03*
D220*
X0061795Y0030190D03*
X0060945Y0030870D03*
X0055445Y0029910D03*
X0055305Y0029410D03*
D221*
X0058940Y0031990D03*
X0058940Y0032010D03*
X0058940Y0032030D03*
X0058940Y0032050D03*
X0058940Y0032070D03*
X0058940Y0032080D03*
X0058940Y0032100D03*
X0058940Y0032110D03*
X0058940Y0032130D03*
X0058940Y0032140D03*
X0058940Y0032160D03*
X0058940Y0032170D03*
X0058940Y0032190D03*
X0058940Y0032200D03*
X0058940Y0032220D03*
X0058940Y0032230D03*
X0058940Y0032250D03*
X0058940Y0032270D03*
X0058940Y0032290D03*
X0058940Y0032310D03*
X0060470Y0033460D03*
X0061020Y0033990D03*
X0062740Y0035080D03*
X0063140Y0029420D03*
X0063140Y0029410D03*
X0056420Y0034160D03*
X0056220Y0034240D03*
D222*
X0055300Y0029420D03*
D223*
X0055295Y0029430D03*
X0055435Y0029900D03*
X0061585Y0030320D03*
X0061605Y0030310D03*
X0061785Y0030200D03*
X0062775Y0029870D03*
X0062785Y0029860D03*
X0060515Y0033750D03*
D224*
X0061035Y0034000D03*
X0058935Y0032390D03*
X0058935Y0032370D03*
X0058935Y0032360D03*
X0058935Y0032350D03*
X0058935Y0032330D03*
X0058935Y0032320D03*
X0058935Y0032300D03*
X0058935Y0032280D03*
X0058935Y0032260D03*
X0058935Y0032240D03*
X0058935Y0032210D03*
X0058935Y0032180D03*
X0058935Y0032150D03*
X0058935Y0032120D03*
X0058935Y0032090D03*
X0058935Y0032060D03*
X0058935Y0032040D03*
X0058935Y0032020D03*
X0058935Y0032000D03*
X0058935Y0031980D03*
X0058935Y0031970D03*
X0058945Y0031960D03*
X0058935Y0031950D03*
X0058935Y0031940D03*
X0058935Y0031920D03*
X0058935Y0031910D03*
X0058935Y0031890D03*
X0058935Y0031850D03*
X0060795Y0031220D03*
X0063145Y0029430D03*
X0056775Y0034030D03*
X0056745Y0034040D03*
X0056455Y0034150D03*
X0056205Y0034250D03*
D225*
X0057420Y0033750D03*
X0055420Y0029890D03*
X0055290Y0029440D03*
X0061770Y0030210D03*
D226*
X0060785Y0031240D03*
X0058935Y0031730D03*
X0058935Y0031750D03*
X0058935Y0031770D03*
X0058935Y0031780D03*
X0058935Y0031800D03*
X0058935Y0031830D03*
X0058935Y0032460D03*
X0058935Y0032480D03*
X0058935Y0032500D03*
X0058935Y0032510D03*
X0058935Y0032520D03*
X0058935Y0032540D03*
X0056485Y0034140D03*
X0056185Y0034260D03*
X0063145Y0029450D03*
X0063145Y0029440D03*
D227*
X0062800Y0029840D03*
X0062790Y0029850D03*
X0061760Y0030220D03*
X0061630Y0030300D03*
X0060950Y0030880D03*
X0055410Y0029880D03*
X0055290Y0029450D03*
D228*
X0055280Y0029460D03*
X0055400Y0029870D03*
X0057390Y0033760D03*
X0060550Y0033760D03*
X0061740Y0030240D03*
D229*
X0063150Y0029460D03*
X0058940Y0031660D03*
X0058940Y0031680D03*
X0058940Y0031700D03*
X0058940Y0031710D03*
X0058940Y0031720D03*
X0058940Y0031740D03*
X0058940Y0031760D03*
X0058940Y0032530D03*
X0058940Y0032550D03*
X0058940Y0032560D03*
X0058940Y0032570D03*
X0058940Y0032580D03*
X0058940Y0032600D03*
X0060460Y0033430D03*
X0061570Y0034230D03*
X0061620Y0034250D03*
X0061640Y0034260D03*
X0057430Y0033460D03*
X0056700Y0034060D03*
X0056680Y0034070D03*
X0056650Y0034080D03*
X0056600Y0034100D03*
X0056570Y0034110D03*
X0056540Y0034120D03*
X0055150Y0035160D03*
X0057130Y0031010D03*
D230*
X0055395Y0029860D03*
X0055275Y0029470D03*
X0060955Y0030890D03*
X0061675Y0030280D03*
X0062805Y0029830D03*
D231*
X0064090Y0030840D03*
X0056990Y0029540D03*
X0056990Y0029520D03*
X0056990Y0029500D03*
X0056990Y0029470D03*
X0054690Y0030430D03*
X0054690Y0030440D03*
D232*
X0056145Y0034280D03*
X0056625Y0034090D03*
X0058935Y0032630D03*
X0058935Y0032620D03*
X0058935Y0032590D03*
X0058935Y0031690D03*
X0058935Y0031670D03*
X0058935Y0031650D03*
X0058935Y0031630D03*
X0058935Y0031610D03*
X0058935Y0030450D03*
X0060785Y0031250D03*
X0061095Y0034030D03*
X0061545Y0034220D03*
X0061595Y0034240D03*
X0061665Y0034270D03*
X0061685Y0034280D03*
X0062725Y0035100D03*
X0063135Y0029540D03*
X0063155Y0029470D03*
D233*
X0062815Y0029820D03*
X0061725Y0030260D03*
X0060955Y0030900D03*
X0060575Y0033770D03*
X0055385Y0029850D03*
X0055275Y0029480D03*
D234*
X0057130Y0031020D03*
X0056130Y0034290D03*
X0060460Y0033420D03*
X0061110Y0034040D03*
X0061700Y0034290D03*
X0061720Y0034300D03*
X0060770Y0031260D03*
X0063160Y0029490D03*
X0063160Y0029480D03*
D235*
X0062820Y0029810D03*
X0057360Y0033770D03*
X0055370Y0029840D03*
X0055270Y0029490D03*
D236*
X0055265Y0029500D03*
X0055365Y0029830D03*
D237*
X0055160Y0035170D03*
X0060770Y0031270D03*
X0063160Y0029520D03*
X0063160Y0029500D03*
D238*
X0056790Y0030520D03*
X0055350Y0029820D03*
X0055260Y0029510D03*
D239*
X0058935Y0030440D03*
X0058935Y0031450D03*
X0058935Y0031470D03*
X0058935Y0031490D03*
X0058935Y0032760D03*
X0058935Y0032770D03*
X0058935Y0032780D03*
X0058935Y0032800D03*
X0057435Y0033420D03*
X0060765Y0031280D03*
X0063165Y0029510D03*
X0061485Y0034200D03*
X0061755Y0034320D03*
X0062705Y0035120D03*
D240*
X0060630Y0033790D03*
X0057310Y0033790D03*
X0056760Y0030500D03*
X0056720Y0030470D03*
X0055260Y0029520D03*
D241*
X0055255Y0029530D03*
X0055335Y0029800D03*
X0056655Y0030420D03*
X0056695Y0030450D03*
X0056705Y0030460D03*
X0056735Y0030480D03*
X0056745Y0030490D03*
X0060935Y0030950D03*
X0062855Y0029770D03*
D242*
X0063145Y0029530D03*
X0058935Y0031540D03*
X0058935Y0031560D03*
X0058935Y0031580D03*
X0058935Y0032680D03*
X0058935Y0032700D03*
X0058935Y0032720D03*
X0057435Y0033440D03*
X0056115Y0034300D03*
X0057145Y0031030D03*
X0060455Y0033410D03*
X0061135Y0034050D03*
X0061515Y0034210D03*
X0062715Y0035110D03*
D243*
X0060925Y0030970D03*
X0056555Y0030340D03*
X0056545Y0030330D03*
X0056525Y0030320D03*
X0056515Y0030310D03*
X0056335Y0030160D03*
X0055325Y0029790D03*
X0055245Y0029540D03*
D244*
X0055245Y0029550D03*
X0055305Y0029770D03*
X0056345Y0030170D03*
X0056475Y0030280D03*
X0057255Y0033810D03*
X0060675Y0033810D03*
X0060915Y0030990D03*
X0060925Y0030980D03*
D245*
X0060790Y0031230D03*
X0058940Y0031790D03*
X0058940Y0031810D03*
X0058940Y0031820D03*
X0058940Y0031840D03*
X0058940Y0031860D03*
X0058940Y0031870D03*
X0058940Y0031880D03*
X0058940Y0031900D03*
X0058940Y0031930D03*
X0058940Y0032340D03*
X0058940Y0032380D03*
X0058940Y0032400D03*
X0058940Y0032410D03*
X0058940Y0032420D03*
X0058940Y0032430D03*
X0058940Y0032440D03*
X0058940Y0032450D03*
X0058940Y0032470D03*
X0058940Y0032490D03*
X0058940Y0030460D03*
X0057120Y0030990D03*
X0055140Y0035150D03*
X0061060Y0034010D03*
X0062740Y0035090D03*
X0063120Y0029550D03*
D246*
X0060695Y0033820D03*
X0057235Y0033820D03*
X0055005Y0035040D03*
X0056425Y0030250D03*
X0055245Y0029560D03*
D247*
X0057115Y0030980D03*
X0060465Y0033450D03*
X0063115Y0029560D03*
D248*
X0055285Y0029750D03*
X0055235Y0029570D03*
D249*
X0055235Y0029580D03*
X0060895Y0031030D03*
X0062915Y0029710D03*
X0060735Y0033840D03*
D250*
X0060755Y0033850D03*
X0060885Y0031050D03*
X0060895Y0031040D03*
X0057165Y0033850D03*
X0055225Y0029590D03*
D251*
X0063020Y0029630D03*
D252*
X0062975Y0029660D03*
X0060865Y0031090D03*
X0057065Y0033900D03*
D253*
X0057150Y0033860D03*
X0062940Y0029690D03*
D254*
X0062920Y0029700D03*
X0055270Y0029730D03*
X0055030Y0035060D03*
D255*
X0055260Y0029720D03*
D256*
X0055300Y0029760D03*
X0056360Y0030200D03*
X0056370Y0030210D03*
X0060910Y0031010D03*
X0062890Y0029730D03*
X0062900Y0029720D03*
D257*
X0060900Y0031020D03*
X0056390Y0030230D03*
X0056380Y0030220D03*
X0055280Y0029740D03*
X0057210Y0033830D03*
X0057190Y0033840D03*
X0055010Y0035050D03*
D258*
X0056460Y0030270D03*
X0056440Y0030260D03*
X0056360Y0030190D03*
X0056350Y0030180D03*
X0062880Y0029740D03*
D259*
X0062870Y0029750D03*
X0055320Y0029780D03*
D260*
X0056330Y0030150D03*
X0056570Y0030350D03*
X0056580Y0030360D03*
X0056610Y0030380D03*
X0056620Y0030390D03*
X0056630Y0030400D03*
X0056670Y0030430D03*
X0056680Y0030440D03*
X0057280Y0033800D03*
X0060650Y0033800D03*
X0060930Y0030960D03*
X0062860Y0029760D03*
D261*
X0062845Y0029780D03*
X0060945Y0030940D03*
X0055345Y0029810D03*
D262*
X0056805Y0030530D03*
X0057335Y0033780D03*
X0060605Y0033780D03*
X0060945Y0030930D03*
X0062835Y0029790D03*
D263*
X0062830Y0029800D03*
X0060950Y0030920D03*
D264*
X0061560Y0030330D03*
X0062760Y0029890D03*
X0062770Y0029880D03*
D265*
X0062750Y0029900D03*
X0061810Y0030180D03*
X0061520Y0030350D03*
X0055460Y0029930D03*
D266*
X0055495Y0029960D03*
X0061295Y0030510D03*
X0061315Y0030500D03*
X0061425Y0030410D03*
X0061435Y0030400D03*
X0062715Y0029940D03*
X0062725Y0029930D03*
X0060445Y0033730D03*
D267*
X0062705Y0029950D03*
X0055505Y0029970D03*
D268*
X0055530Y0029990D03*
X0062680Y0029970D03*
D269*
X0055520Y0029980D03*
D270*
X0057110Y0029990D03*
X0057110Y0030000D03*
X0057120Y0030010D03*
X0057120Y0030020D03*
X0054010Y0030520D03*
X0056720Y0035630D03*
X0060920Y0030090D03*
X0060920Y0030080D03*
X0060920Y0030070D03*
X0060920Y0030060D03*
X0064920Y0032200D03*
D271*
X0055570Y0030030D03*
D272*
X0055605Y0030060D03*
X0062615Y0030040D03*
D273*
X0055595Y0030050D03*
D274*
X0055865Y0030080D03*
X0055865Y0030090D03*
X0055865Y0030130D03*
D275*
X0062560Y0030080D03*
D276*
X0062545Y0030090D03*
D277*
X0062530Y0030100D03*
D278*
X0062510Y0030110D03*
D279*
X0062260Y0030120D03*
D280*
X0062255Y0030130D03*
D281*
X0060920Y0030550D03*
X0060910Y0030560D03*
X0057290Y0030560D03*
X0055860Y0030140D03*
D282*
X0062250Y0030140D03*
D283*
X0063455Y0030160D03*
X0060305Y0032140D03*
X0060305Y0032150D03*
X0058775Y0030320D03*
X0062265Y0035420D03*
D284*
X0062355Y0035390D03*
X0060265Y0032700D03*
X0060365Y0032000D03*
X0057565Y0032440D03*
X0057565Y0032460D03*
X0057515Y0032070D03*
X0057515Y0032060D03*
X0057515Y0032050D03*
X0054655Y0030220D03*
X0053475Y0030980D03*
X0053465Y0030990D03*
X0053075Y0031400D03*
X0053065Y0031410D03*
X0053055Y0031420D03*
D285*
X0061655Y0030290D03*
X0061755Y0030230D03*
D286*
X0060715Y0033830D03*
X0056405Y0030240D03*
D287*
X0061700Y0030270D03*
X0061730Y0030250D03*
D288*
X0056500Y0030300D03*
X0056490Y0030290D03*
X0054990Y0035030D03*
D289*
X0053775Y0030700D03*
X0053785Y0030690D03*
X0062145Y0035470D03*
X0064425Y0034300D03*
X0064745Y0031890D03*
X0064735Y0031870D03*
X0064725Y0031860D03*
X0064725Y0031850D03*
X0064425Y0031360D03*
X0063635Y0030480D03*
X0063625Y0030460D03*
X0063605Y0030440D03*
X0063555Y0030370D03*
X0063545Y0030350D03*
X0063535Y0030330D03*
X0063535Y0030320D03*
X0063525Y0030310D03*
D290*
X0059155Y0030320D03*
X0058975Y0030530D03*
X0059025Y0030580D03*
X0059055Y0030630D03*
X0059065Y0030660D03*
X0059055Y0030670D03*
X0059055Y0030700D03*
X0059055Y0030720D03*
X0058865Y0030580D03*
X0058855Y0030590D03*
X0058865Y0031060D03*
X0058955Y0031060D03*
X0055565Y0035780D03*
D291*
X0057565Y0032510D03*
X0054515Y0030330D03*
X0053115Y0031360D03*
D292*
X0052835Y0031720D03*
X0054245Y0030370D03*
X0060435Y0036150D03*
X0064145Y0030920D03*
X0064135Y0030910D03*
D293*
X0056640Y0030410D03*
X0056590Y0030370D03*
D294*
X0061365Y0030460D03*
X0061465Y0030380D03*
D295*
X0060705Y0031380D03*
X0060425Y0033290D03*
X0061905Y0034410D03*
X0057455Y0033310D03*
X0055965Y0034400D03*
X0058915Y0030390D03*
D296*
X0058925Y0030410D03*
X0058935Y0031190D03*
X0058935Y0031200D03*
X0058935Y0031210D03*
X0057175Y0031120D03*
X0057175Y0031110D03*
X0058935Y0032990D03*
X0058935Y0033000D03*
X0057445Y0033360D03*
X0056025Y0034360D03*
X0060435Y0033340D03*
X0062665Y0035160D03*
D297*
X0062695Y0035130D03*
X0060445Y0033380D03*
X0058935Y0032840D03*
X0058935Y0032820D03*
X0058935Y0031410D03*
X0058935Y0031390D03*
X0058935Y0031370D03*
X0058925Y0030430D03*
X0055175Y0035180D03*
D298*
X0063615Y0030450D03*
X0064415Y0031340D03*
X0064715Y0031840D03*
D299*
X0064165Y0030950D03*
X0060865Y0035920D03*
X0054065Y0030480D03*
D300*
X0056775Y0030510D03*
D301*
X0058800Y0030640D03*
X0058810Y0030600D03*
X0058880Y0030570D03*
X0058860Y0030530D03*
X0058940Y0030550D03*
X0059020Y0030570D03*
X0059040Y0030600D03*
X0059020Y0030720D03*
X0059010Y0030730D03*
X0059000Y0030750D03*
X0058800Y0030700D03*
D302*
X0058870Y0030540D03*
X0058920Y0030530D03*
X0055570Y0035770D03*
D303*
X0060910Y0030530D03*
D304*
X0057290Y0030540D03*
D305*
X0060915Y0030540D03*
D306*
X0057290Y0030550D03*
D307*
X0058795Y0030660D03*
X0058795Y0030680D03*
X0058805Y0030720D03*
X0058825Y0030760D03*
X0058805Y0030620D03*
X0058825Y0030580D03*
X0058995Y0030550D03*
X0059005Y0030560D03*
X0063535Y0030740D03*
X0057835Y0036170D03*
D308*
X0058845Y0030780D03*
X0059015Y0030740D03*
X0058965Y0030570D03*
D309*
X0057295Y0030580D03*
X0058085Y0033450D03*
X0060915Y0030570D03*
D310*
X0063890Y0030570D03*
X0062290Y0035620D03*
X0055590Y0035570D03*
D311*
X0058935Y0030780D03*
X0058955Y0030580D03*
X0063535Y0030730D03*
D312*
X0060910Y0030590D03*
X0060910Y0030580D03*
D313*
X0064265Y0031110D03*
X0053915Y0030590D03*
X0052865Y0031660D03*
D314*
X0054665Y0030590D03*
X0058865Y0031040D03*
D315*
X0057300Y0030590D03*
D316*
X0058815Y0030590D03*
X0058815Y0030740D03*
D317*
X0058910Y0030740D03*
X0058910Y0030710D03*
X0058900Y0030810D03*
X0058950Y0030590D03*
X0054660Y0030650D03*
X0055570Y0035750D03*
X0060140Y0036350D03*
X0061600Y0035610D03*
X0061630Y0035600D03*
X0061730Y0035560D03*
X0061750Y0035550D03*
X0064620Y0034190D03*
D318*
X0061355Y0035700D03*
X0060175Y0036320D03*
X0054665Y0030610D03*
X0054665Y0030600D03*
D319*
X0057305Y0030600D03*
X0057335Y0030630D03*
D320*
X0058905Y0030730D03*
X0058935Y0030770D03*
X0058955Y0030620D03*
X0058945Y0030600D03*
X0063535Y0030720D03*
X0061795Y0035530D03*
X0061775Y0035540D03*
X0061575Y0035620D03*
X0061545Y0035630D03*
X0062305Y0035790D03*
X0055575Y0035740D03*
D321*
X0060905Y0030600D03*
D322*
X0057330Y0030610D03*
D323*
X0059245Y0030610D03*
X0063995Y0030700D03*
X0063995Y0030710D03*
X0060245Y0036270D03*
X0057735Y0036100D03*
X0055595Y0035520D03*
D324*
X0057350Y0030650D03*
X0057310Y0030620D03*
X0060900Y0030610D03*
D325*
X0059255Y0030640D03*
X0059255Y0030650D03*
X0059255Y0030660D03*
X0059255Y0030670D03*
X0059245Y0030620D03*
X0064025Y0030750D03*
X0064035Y0030760D03*
X0064975Y0032330D03*
D326*
X0060900Y0030620D03*
X0057500Y0030790D03*
X0057360Y0030670D03*
X0057320Y0030640D03*
D327*
X0053860Y0030630D03*
X0057020Y0035750D03*
X0064310Y0031180D03*
X0064320Y0031190D03*
D328*
X0060895Y0030630D03*
D329*
X0060890Y0030640D03*
D330*
X0058940Y0030650D03*
X0058940Y0030670D03*
X0058940Y0030700D03*
D331*
X0057495Y0030800D03*
X0060885Y0030650D03*
D332*
X0060880Y0030660D03*
X0057330Y0030660D03*
D333*
X0057340Y0030680D03*
X0057400Y0030730D03*
X0060880Y0030670D03*
D334*
X0060870Y0030680D03*
X0060870Y0030690D03*
D335*
X0057370Y0030690D03*
D336*
X0058935Y0030690D03*
X0053235Y0034320D03*
X0062295Y0035720D03*
D337*
X0057435Y0030770D03*
X0057355Y0030700D03*
D338*
X0057370Y0030720D03*
X0060860Y0030700D03*
D339*
X0057385Y0030710D03*
D340*
X0057385Y0030740D03*
X0057505Y0030850D03*
X0060845Y0030720D03*
X0060855Y0030710D03*
D341*
X0060845Y0030730D03*
X0060835Y0030740D03*
X0057485Y0030840D03*
D342*
X0057485Y0030750D03*
D343*
X0060830Y0030750D03*
D344*
X0057400Y0030760D03*
D345*
X0057445Y0030810D03*
X0060815Y0030770D03*
X0060825Y0030760D03*
D346*
X0057470Y0030830D03*
X0057460Y0030820D03*
X0057420Y0030780D03*
D347*
X0060810Y0030780D03*
D348*
X0060795Y0030790D03*
X0060795Y0030800D03*
D349*
X0060785Y0030810D03*
D350*
X0060775Y0030820D03*
X0060765Y0030830D03*
D351*
X0060760Y0030840D03*
X0060750Y0030850D03*
D352*
X0057745Y0030860D03*
D353*
X0060735Y0030860D03*
D354*
X0060595Y0031580D03*
X0060585Y0031590D03*
X0060375Y0033090D03*
X0062085Y0034560D03*
X0057495Y0033070D03*
X0057295Y0031430D03*
X0058725Y0030870D03*
X0055805Y0034530D03*
X0055795Y0034540D03*
X0054495Y0034990D03*
X0054475Y0034980D03*
X0054445Y0034970D03*
X0054425Y0034960D03*
X0054405Y0034950D03*
X0054385Y0034940D03*
X0054335Y0034920D03*
X0054315Y0034910D03*
X0054295Y0034900D03*
X0054275Y0034890D03*
X0053785Y0034630D03*
X0053765Y0034620D03*
D355*
X0057090Y0030880D03*
D356*
X0060955Y0030910D03*
D357*
X0060945Y0033950D03*
X0056935Y0033960D03*
X0057095Y0030920D03*
D358*
X0058735Y0030930D03*
X0060335Y0032980D03*
X0063735Y0034740D03*
X0063935Y0034620D03*
D359*
X0061075Y0034020D03*
X0056725Y0034050D03*
X0056515Y0034130D03*
X0056165Y0034270D03*
X0057125Y0031000D03*
D360*
X0060915Y0031000D03*
D361*
X0058940Y0031480D03*
X0058940Y0031500D03*
X0058940Y0031510D03*
X0058940Y0031520D03*
X0058940Y0031530D03*
X0058940Y0031550D03*
X0058940Y0032710D03*
X0058940Y0032730D03*
X0058940Y0032740D03*
X0058940Y0032750D03*
X0060450Y0033400D03*
X0061150Y0034060D03*
X0061740Y0034310D03*
X0057440Y0033430D03*
X0056100Y0034310D03*
X0057140Y0031040D03*
D362*
X0057150Y0031050D03*
X0057150Y0031060D03*
X0058940Y0031400D03*
X0058940Y0031420D03*
X0058940Y0031430D03*
X0058940Y0031440D03*
X0058940Y0031460D03*
X0058940Y0032790D03*
X0058940Y0032810D03*
X0058940Y0032830D03*
X0057440Y0033410D03*
X0056080Y0034320D03*
X0060450Y0033390D03*
X0061170Y0034070D03*
X0061190Y0034080D03*
X0061450Y0034190D03*
X0061780Y0034330D03*
X0060760Y0031290D03*
D363*
X0058445Y0031050D03*
X0064275Y0031130D03*
X0064285Y0031140D03*
X0064855Y0032090D03*
X0056945Y0035720D03*
X0056925Y0035710D03*
D364*
X0056070Y0034330D03*
X0057440Y0033400D03*
X0058940Y0032890D03*
X0058940Y0032870D03*
X0058940Y0032860D03*
X0058940Y0032850D03*
X0058940Y0031380D03*
X0058940Y0031360D03*
X0058940Y0031350D03*
X0058940Y0031330D03*
X0057160Y0031070D03*
X0060750Y0031300D03*
X0061210Y0034090D03*
X0061230Y0034100D03*
X0061420Y0034180D03*
X0061790Y0034340D03*
D365*
X0061815Y0034350D03*
X0057155Y0031080D03*
X0056055Y0034340D03*
D366*
X0058935Y0033130D03*
X0058935Y0033120D03*
X0057195Y0031170D03*
X0062645Y0035180D03*
D367*
X0062760Y0035070D03*
X0060810Y0031200D03*
X0056360Y0034180D03*
X0056310Y0034200D03*
D368*
X0055220Y0035230D03*
X0057220Y0031220D03*
X0057210Y0031210D03*
X0060420Y0033250D03*
D369*
X0060440Y0033350D03*
X0058940Y0032980D03*
X0058940Y0032970D03*
X0058940Y0031250D03*
X0058940Y0031230D03*
X0058940Y0031220D03*
X0061840Y0034370D03*
D370*
X0064440Y0034290D03*
X0064340Y0031230D03*
X0057440Y0035940D03*
X0057090Y0035780D03*
D371*
X0057445Y0033390D03*
X0058935Y0032900D03*
X0058935Y0032880D03*
X0058935Y0031340D03*
X0058935Y0031320D03*
X0058935Y0031300D03*
X0060745Y0031310D03*
X0060445Y0033370D03*
X0061245Y0034110D03*
X0062685Y0035140D03*
D372*
X0057265Y0031350D03*
D373*
X0057275Y0031370D03*
X0060615Y0031540D03*
D374*
X0060715Y0031370D03*
D375*
X0058940Y0033460D03*
X0057490Y0033100D03*
X0057290Y0031400D03*
X0053890Y0034690D03*
D376*
X0058940Y0033190D03*
X0058940Y0033180D03*
X0060690Y0031410D03*
D377*
X0060680Y0031420D03*
X0058940Y0033210D03*
X0058940Y0033220D03*
X0055940Y0034420D03*
X0062630Y0035200D03*
D378*
X0062095Y0034570D03*
X0060575Y0031600D03*
X0057305Y0031460D03*
X0057305Y0031450D03*
X0055785Y0034550D03*
X0053735Y0034600D03*
D379*
X0057475Y0033220D03*
X0060405Y0033210D03*
X0060655Y0031460D03*
X0061975Y0034460D03*
X0062615Y0035220D03*
D380*
X0062000Y0034480D03*
X0060400Y0033190D03*
X0060650Y0031480D03*
D381*
X0060350Y0033020D03*
X0062130Y0034620D03*
X0062140Y0034630D03*
X0057340Y0031540D03*
X0057330Y0031530D03*
X0055750Y0034610D03*
X0055380Y0035330D03*
D382*
X0060240Y0032500D03*
X0060240Y0032490D03*
X0060240Y0032470D03*
X0060290Y0032200D03*
X0064540Y0031540D03*
X0064590Y0031620D03*
D383*
X0058940Y0031620D03*
X0058940Y0031640D03*
X0058940Y0031600D03*
X0058940Y0031590D03*
X0058940Y0031570D03*
X0058940Y0032610D03*
X0058940Y0032640D03*
X0058940Y0032650D03*
X0058940Y0032660D03*
X0058940Y0032670D03*
X0058940Y0032690D03*
D384*
X0060315Y0032900D03*
X0057405Y0031720D03*
D385*
X0060315Y0032120D03*
D386*
X0057515Y0032950D03*
D387*
X0057500Y0033080D03*
X0054550Y0035010D03*
X0054240Y0034870D03*
X0054200Y0034850D03*
X0053800Y0034640D03*
X0062080Y0034550D03*
D388*
X0061965Y0034450D03*
X0060415Y0033230D03*
X0057465Y0033240D03*
X0055915Y0034440D03*
D389*
X0058940Y0033340D03*
X0058940Y0033330D03*
D390*
X0059805Y0033440D03*
D391*
X0058960Y0033470D03*
D392*
X0058960Y0033480D03*
D393*
X0058965Y0033490D03*
D394*
X0058965Y0033500D03*
D395*
X0058965Y0033510D03*
D396*
X0058965Y0033520D03*
D397*
X0058965Y0033530D03*
D398*
X0058965Y0033540D03*
D399*
X0058965Y0033550D03*
D400*
X0058965Y0033560D03*
D401*
X0058965Y0033570D03*
D402*
X0058970Y0033580D03*
D403*
X0058965Y0033590D03*
D404*
X0058970Y0033600D03*
D405*
X0058965Y0033610D03*
D406*
X0058970Y0033620D03*
D407*
X0058970Y0033630D03*
D408*
X0058970Y0033640D03*
D409*
X0058970Y0033650D03*
D410*
X0058975Y0033660D03*
D411*
X0058970Y0033670D03*
D412*
X0058970Y0033680D03*
D413*
X0058975Y0033690D03*
D414*
X0058975Y0033700D03*
D415*
X0058970Y0033710D03*
D416*
X0057555Y0033720D03*
D417*
X0060490Y0033740D03*
D418*
X0062010Y0034490D03*
D419*
X0063520Y0034870D03*
X0063570Y0034840D03*
X0064120Y0034500D03*
D420*
X0055715Y0034750D03*
X0055715Y0034760D03*
D421*
X0056080Y0035440D03*
X0055590Y0035590D03*
X0055590Y0035600D03*
X0060200Y0036300D03*
X0062290Y0035650D03*
X0062290Y0035640D03*
X0062290Y0035630D03*
D422*
X0062300Y0035770D03*
X0061440Y0035670D03*
D423*
X0050140Y0062339D02*
X0050140Y0085961D01*
X0047030Y0085961D01*
X0039510Y0085961D02*
X0036400Y0085961D01*
X0036360Y0085961D02*
X0036360Y0062339D01*
X0039470Y0062339D01*
X0046990Y0062339D02*
X0050100Y0062339D01*
X0117138Y0108725D02*
X0121862Y0108725D01*
X0120287Y0109416D02*
X0119303Y0110400D01*
X0120287Y0111384D01*
X0120287Y0109416D01*
X0121862Y0112075D02*
X0117138Y0112075D01*
X0117138Y0113725D02*
X0121862Y0113725D01*
X0120287Y0114416D02*
X0119303Y0115400D01*
X0120287Y0116384D01*
X0120287Y0114416D01*
X0121862Y0117075D02*
X0117138Y0117075D01*
X0123850Y0130489D02*
X0130150Y0130489D01*
X0130150Y0142811D02*
X0123850Y0142811D01*
X0147630Y0151020D02*
X0157827Y0151020D01*
X0166173Y0151020D02*
X0176370Y0151020D01*
X0176370Y0122280D01*
X0166173Y0122280D01*
X0157827Y0122280D02*
X0147630Y0122280D01*
X0147630Y0151020D01*
X0091059Y0154488D02*
X0071216Y0154488D01*
X0060474Y0157900D02*
X0046242Y0157900D01*
X0046242Y0156306D01*
X0051026Y0142900D02*
X0065258Y0142900D01*
X0065258Y0144494D01*
X0060474Y0132900D02*
X0046242Y0132900D01*
X0046242Y0131306D01*
X0051026Y0117900D02*
X0065258Y0117900D01*
X0065258Y0119494D01*
X0071216Y0165512D02*
X0091059Y0165512D01*
D424*
X0136055Y0131926D02*
X0136057Y0131965D01*
X0136063Y0132004D01*
X0136073Y0132042D01*
X0136086Y0132079D01*
X0136103Y0132114D01*
X0136123Y0132148D01*
X0136147Y0132179D01*
X0136174Y0132208D01*
X0136203Y0132234D01*
X0136235Y0132257D01*
X0136269Y0132277D01*
X0136305Y0132293D01*
X0136342Y0132305D01*
X0136381Y0132314D01*
X0136420Y0132319D01*
X0136459Y0132320D01*
X0136498Y0132317D01*
X0136537Y0132310D01*
X0136574Y0132299D01*
X0136611Y0132285D01*
X0136646Y0132267D01*
X0136679Y0132246D01*
X0136710Y0132221D01*
X0136738Y0132194D01*
X0136763Y0132164D01*
X0136785Y0132131D01*
X0136804Y0132097D01*
X0136819Y0132061D01*
X0136831Y0132023D01*
X0136839Y0131985D01*
X0136843Y0131946D01*
X0136843Y0131906D01*
X0136839Y0131867D01*
X0136831Y0131829D01*
X0136819Y0131791D01*
X0136804Y0131755D01*
X0136785Y0131721D01*
X0136763Y0131688D01*
X0136738Y0131658D01*
X0136710Y0131631D01*
X0136679Y0131606D01*
X0136646Y0131585D01*
X0136611Y0131567D01*
X0136574Y0131553D01*
X0136537Y0131542D01*
X0136498Y0131535D01*
X0136459Y0131532D01*
X0136420Y0131533D01*
X0136381Y0131538D01*
X0136342Y0131547D01*
X0136305Y0131559D01*
X0136269Y0131575D01*
X0136235Y0131595D01*
X0136203Y0131618D01*
X0136174Y0131644D01*
X0136147Y0131673D01*
X0136123Y0131704D01*
X0136103Y0131738D01*
X0136086Y0131773D01*
X0136073Y0131810D01*
X0136063Y0131848D01*
X0136057Y0131887D01*
X0136055Y0131926D01*
X0177347Y0166890D02*
X0177349Y0166929D01*
X0177355Y0166968D01*
X0177365Y0167006D01*
X0177378Y0167043D01*
X0177395Y0167078D01*
X0177415Y0167112D01*
X0177439Y0167143D01*
X0177466Y0167172D01*
X0177495Y0167198D01*
X0177527Y0167221D01*
X0177561Y0167241D01*
X0177597Y0167257D01*
X0177634Y0167269D01*
X0177673Y0167278D01*
X0177712Y0167283D01*
X0177751Y0167284D01*
X0177790Y0167281D01*
X0177829Y0167274D01*
X0177866Y0167263D01*
X0177903Y0167249D01*
X0177938Y0167231D01*
X0177971Y0167210D01*
X0178002Y0167185D01*
X0178030Y0167158D01*
X0178055Y0167128D01*
X0178077Y0167095D01*
X0178096Y0167061D01*
X0178111Y0167025D01*
X0178123Y0166987D01*
X0178131Y0166949D01*
X0178135Y0166910D01*
X0178135Y0166870D01*
X0178131Y0166831D01*
X0178123Y0166793D01*
X0178111Y0166755D01*
X0178096Y0166719D01*
X0178077Y0166685D01*
X0178055Y0166652D01*
X0178030Y0166622D01*
X0178002Y0166595D01*
X0177971Y0166570D01*
X0177938Y0166549D01*
X0177903Y0166531D01*
X0177866Y0166517D01*
X0177829Y0166506D01*
X0177790Y0166499D01*
X0177751Y0166496D01*
X0177712Y0166497D01*
X0177673Y0166502D01*
X0177634Y0166511D01*
X0177597Y0166523D01*
X0177561Y0166539D01*
X0177527Y0166559D01*
X0177495Y0166582D01*
X0177466Y0166608D01*
X0177439Y0166637D01*
X0177415Y0166668D01*
X0177395Y0166702D01*
X0177378Y0166737D01*
X0177365Y0166774D01*
X0177355Y0166812D01*
X0177349Y0166851D01*
X0177347Y0166890D01*
X0186735Y0166890D02*
X0186737Y0166929D01*
X0186743Y0166968D01*
X0186753Y0167006D01*
X0186766Y0167043D01*
X0186783Y0167078D01*
X0186803Y0167112D01*
X0186827Y0167143D01*
X0186854Y0167172D01*
X0186883Y0167198D01*
X0186915Y0167221D01*
X0186949Y0167241D01*
X0186985Y0167257D01*
X0187022Y0167269D01*
X0187061Y0167278D01*
X0187100Y0167283D01*
X0187139Y0167284D01*
X0187178Y0167281D01*
X0187217Y0167274D01*
X0187254Y0167263D01*
X0187291Y0167249D01*
X0187326Y0167231D01*
X0187359Y0167210D01*
X0187390Y0167185D01*
X0187418Y0167158D01*
X0187443Y0167128D01*
X0187465Y0167095D01*
X0187484Y0167061D01*
X0187499Y0167025D01*
X0187511Y0166987D01*
X0187519Y0166949D01*
X0187523Y0166910D01*
X0187523Y0166870D01*
X0187519Y0166831D01*
X0187511Y0166793D01*
X0187499Y0166755D01*
X0187484Y0166719D01*
X0187465Y0166685D01*
X0187443Y0166652D01*
X0187418Y0166622D01*
X0187390Y0166595D01*
X0187359Y0166570D01*
X0187326Y0166549D01*
X0187291Y0166531D01*
X0187254Y0166517D01*
X0187217Y0166506D01*
X0187178Y0166499D01*
X0187139Y0166496D01*
X0187100Y0166497D01*
X0187061Y0166502D01*
X0187022Y0166511D01*
X0186985Y0166523D01*
X0186949Y0166539D01*
X0186915Y0166559D01*
X0186883Y0166582D01*
X0186854Y0166608D01*
X0186827Y0166637D01*
X0186803Y0166668D01*
X0186783Y0166702D01*
X0186766Y0166737D01*
X0186753Y0166774D01*
X0186743Y0166812D01*
X0186737Y0166851D01*
X0186735Y0166890D01*
X0114287Y0039290D02*
X0114289Y0039329D01*
X0114295Y0039368D01*
X0114305Y0039406D01*
X0114318Y0039443D01*
X0114335Y0039478D01*
X0114355Y0039512D01*
X0114379Y0039543D01*
X0114406Y0039572D01*
X0114435Y0039598D01*
X0114467Y0039621D01*
X0114501Y0039641D01*
X0114537Y0039657D01*
X0114574Y0039669D01*
X0114613Y0039678D01*
X0114652Y0039683D01*
X0114691Y0039684D01*
X0114730Y0039681D01*
X0114769Y0039674D01*
X0114806Y0039663D01*
X0114843Y0039649D01*
X0114878Y0039631D01*
X0114911Y0039610D01*
X0114942Y0039585D01*
X0114970Y0039558D01*
X0114995Y0039528D01*
X0115017Y0039495D01*
X0115036Y0039461D01*
X0115051Y0039425D01*
X0115063Y0039387D01*
X0115071Y0039349D01*
X0115075Y0039310D01*
X0115075Y0039270D01*
X0115071Y0039231D01*
X0115063Y0039193D01*
X0115051Y0039155D01*
X0115036Y0039119D01*
X0115017Y0039085D01*
X0114995Y0039052D01*
X0114970Y0039022D01*
X0114942Y0038995D01*
X0114911Y0038970D01*
X0114878Y0038949D01*
X0114843Y0038931D01*
X0114806Y0038917D01*
X0114769Y0038906D01*
X0114730Y0038899D01*
X0114691Y0038896D01*
X0114652Y0038897D01*
X0114613Y0038902D01*
X0114574Y0038911D01*
X0114537Y0038923D01*
X0114501Y0038939D01*
X0114467Y0038959D01*
X0114435Y0038982D01*
X0114406Y0039008D01*
X0114379Y0039037D01*
X0114355Y0039068D01*
X0114335Y0039102D01*
X0114318Y0039137D01*
X0114305Y0039174D01*
X0114295Y0039212D01*
X0114289Y0039251D01*
X0114287Y0039290D01*
D425*
X0090125Y0055400D02*
X0085125Y0055400D01*
X0085125Y0065400D01*
X0090125Y0065400D01*
X0090125Y0055400D01*
X0083875Y0055400D02*
X0078875Y0055400D01*
X0078875Y0065400D01*
X0083875Y0065400D01*
X0083875Y0055400D01*
X0077625Y0055400D02*
X0072625Y0055400D01*
X0072625Y0065400D01*
X0077625Y0065400D01*
X0077625Y0055400D01*
X0045730Y0043746D02*
X0045730Y0037054D01*
X0030770Y0037054D01*
X0030770Y0043746D01*
X0045730Y0043746D01*
X0039037Y0041975D02*
X0037463Y0040400D01*
X0039037Y0038825D01*
X0039037Y0041975D01*
X0037463Y0041975D02*
X0037463Y0040400D01*
X0037463Y0038825D01*
X0031951Y0035656D02*
X0031951Y0030144D01*
X0044549Y0030144D01*
X0044549Y0035656D01*
X0031951Y0035656D01*
X0048250Y0087900D02*
X0058250Y0087900D01*
X0058250Y0092900D01*
X0048250Y0092900D01*
X0048250Y0097900D01*
X0058250Y0097900D01*
X0058250Y0092900D01*
X0048250Y0092900D01*
X0048250Y0087900D01*
X0096813Y0128451D02*
X0104687Y0128451D01*
X0104687Y0147349D01*
X0096813Y0147349D01*
X0096813Y0128451D01*
X0106326Y0144110D02*
X0106326Y0150015D01*
X0108506Y0156601D02*
X0102994Y0156601D01*
X0102994Y0169199D01*
X0108506Y0169199D01*
X0108506Y0156601D01*
X0109244Y0156601D02*
X0109244Y0169199D01*
X0114756Y0169199D01*
X0114756Y0156601D01*
X0109244Y0156601D01*
X0115494Y0156601D02*
X0121006Y0156601D01*
X0121006Y0169199D01*
X0115494Y0169199D01*
X0115494Y0156601D01*
X0121744Y0156601D02*
X0127256Y0156601D01*
X0127256Y0169199D01*
X0121744Y0169199D01*
X0121744Y0156601D01*
X0122076Y0152268D02*
X0134674Y0152268D01*
X0134674Y0146757D01*
X0122076Y0146757D01*
X0122076Y0152268D01*
X0117349Y0150015D02*
X0117349Y0144110D01*
X0127994Y0156601D02*
X0133506Y0156601D01*
X0133506Y0169199D01*
X0127994Y0169199D01*
X0127994Y0156601D01*
X0135809Y0160300D02*
X0139781Y0160300D01*
X0144219Y0160300D02*
X0148191Y0160300D01*
X0148191Y0165469D01*
X0150809Y0165469D02*
X0150809Y0160300D01*
X0154781Y0160300D01*
X0159219Y0160300D02*
X0163191Y0160300D01*
X0163191Y0165469D01*
X0165494Y0169199D02*
X0171006Y0169199D01*
X0171006Y0156601D01*
X0165494Y0156601D01*
X0165494Y0169199D01*
X0158521Y0165500D02*
X0155534Y0165500D01*
X0143521Y0165500D02*
X0140534Y0165500D01*
X0135809Y0165469D02*
X0135809Y0160300D01*
X0137369Y0153574D02*
X0142881Y0153574D01*
X0142881Y0140976D01*
X0137369Y0140976D01*
X0137369Y0153574D01*
X0139244Y0132949D02*
X0144756Y0132949D01*
X0144756Y0120351D01*
X0139244Y0120351D01*
X0139244Y0132949D01*
X0132049Y0128156D02*
X0132049Y0122644D01*
X0119451Y0122644D01*
X0119451Y0128156D01*
X0132049Y0128156D01*
X0133201Y0118156D02*
X0133201Y0112644D01*
X0145799Y0112644D01*
X0145799Y0118156D01*
X0133201Y0118156D01*
X0133201Y0111906D02*
X0133201Y0106394D01*
X0145799Y0106394D01*
X0145799Y0111906D01*
X0133201Y0111906D01*
X0125487Y0106943D02*
X0125487Y0101432D01*
X0112888Y0101432D01*
X0112888Y0106943D01*
X0125487Y0106943D01*
X0128688Y0098518D02*
X0141287Y0098518D01*
X0141287Y0093007D01*
X0128688Y0093007D01*
X0128688Y0098518D01*
X0125750Y0085400D02*
X0135750Y0085400D01*
X0135750Y0080400D01*
X0125750Y0080400D01*
X0125750Y0075400D01*
X0135750Y0075400D01*
X0135750Y0080400D01*
X0125750Y0080400D01*
X0125750Y0085400D01*
X0137404Y0082369D02*
X0137404Y0078431D01*
X0144096Y0078431D02*
X0144096Y0082369D01*
X0143250Y0089150D02*
X0143250Y0099150D01*
X0148250Y0099150D01*
X0153250Y0099150D01*
X0153250Y0089150D01*
X0148250Y0089150D01*
X0148250Y0099150D01*
X0148250Y0089150D01*
X0143250Y0089150D01*
X0153426Y0080855D02*
X0155895Y0083324D01*
X0159500Y0095025D02*
X0159500Y0097025D01*
X0167625Y0098525D02*
X0172625Y0098525D01*
X0177625Y0098525D01*
X0177625Y0088525D01*
X0172625Y0088525D01*
X0172625Y0098525D01*
X0172625Y0088525D01*
X0167625Y0088525D01*
X0167625Y0098525D01*
X0178250Y0094150D02*
X0183250Y0094150D01*
X0183250Y0084150D01*
X0188250Y0084150D01*
X0188250Y0094150D01*
X0183250Y0094150D01*
X0183250Y0084150D01*
X0178250Y0084150D01*
X0178250Y0094150D01*
X0188644Y0092969D02*
X0188644Y0091709D01*
X0188644Y0092969D02*
X0189904Y0092969D01*
X0192502Y0092969D02*
X0193998Y0092969D01*
X0196596Y0092969D02*
X0197856Y0092969D01*
X0197856Y0091709D01*
X0198250Y0094150D02*
X0198250Y0084150D01*
X0203250Y0084150D01*
X0203250Y0094150D01*
X0198250Y0094150D01*
X0203250Y0094150D02*
X0203250Y0084150D01*
X0208250Y0084150D01*
X0208250Y0094150D01*
X0203250Y0094150D01*
X0208250Y0094150D02*
X0208250Y0084150D01*
X0213250Y0084150D01*
X0213250Y0094150D01*
X0208250Y0094150D01*
X0197856Y0086591D02*
X0197856Y0085331D01*
X0196596Y0085331D01*
X0193998Y0085331D02*
X0192502Y0085331D01*
X0189904Y0085331D02*
X0188644Y0085331D01*
X0188644Y0086591D01*
X0190750Y0080400D02*
X0185750Y0080400D01*
X0185750Y0070400D01*
X0190750Y0070400D01*
X0190750Y0080400D01*
X0198250Y0080400D02*
X0203250Y0080400D01*
X0203250Y0070400D01*
X0198250Y0070400D01*
X0198250Y0080400D01*
X0178049Y0080855D02*
X0178049Y0083324D01*
X0175580Y0083324D01*
X0148875Y0062275D02*
X0138875Y0062275D01*
X0138875Y0057275D01*
X0148875Y0057275D01*
X0148875Y0062275D01*
X0153426Y0061170D02*
X0153426Y0058701D01*
X0155895Y0058701D01*
X0175580Y0058701D02*
X0178049Y0058701D01*
X0178049Y0061170D01*
X0165838Y0039313D02*
X0155838Y0039313D01*
X0155838Y0034313D01*
X0165838Y0034313D01*
X0165838Y0039313D01*
X0165838Y0034413D02*
X0165838Y0029412D01*
X0155838Y0029412D01*
X0155838Y0034413D01*
X0165838Y0034413D01*
X0165838Y0029512D02*
X0155838Y0029512D01*
X0155838Y0024512D01*
X0165838Y0024512D01*
X0165838Y0029512D01*
X0235250Y0092650D02*
X0241250Y0092650D01*
X0241310Y0092652D01*
X0241371Y0092657D01*
X0241430Y0092666D01*
X0241489Y0092679D01*
X0241548Y0092695D01*
X0241605Y0092715D01*
X0241660Y0092738D01*
X0241715Y0092765D01*
X0241767Y0092794D01*
X0241818Y0092827D01*
X0241867Y0092863D01*
X0241913Y0092901D01*
X0241957Y0092943D01*
X0241999Y0092987D01*
X0242037Y0093033D01*
X0242073Y0093082D01*
X0242106Y0093133D01*
X0242135Y0093185D01*
X0242162Y0093240D01*
X0242185Y0093295D01*
X0242205Y0093352D01*
X0242221Y0093411D01*
X0242234Y0093470D01*
X0242243Y0093529D01*
X0242248Y0093590D01*
X0242250Y0093650D01*
X0242250Y0104650D01*
X0242248Y0104710D01*
X0242243Y0104771D01*
X0242234Y0104830D01*
X0242221Y0104889D01*
X0242205Y0104948D01*
X0242185Y0105005D01*
X0242162Y0105060D01*
X0242135Y0105115D01*
X0242106Y0105167D01*
X0242073Y0105218D01*
X0242037Y0105267D01*
X0241999Y0105313D01*
X0241957Y0105357D01*
X0241913Y0105399D01*
X0241867Y0105437D01*
X0241818Y0105473D01*
X0241767Y0105506D01*
X0241715Y0105535D01*
X0241660Y0105562D01*
X0241605Y0105585D01*
X0241548Y0105605D01*
X0241489Y0105621D01*
X0241430Y0105634D01*
X0241371Y0105643D01*
X0241310Y0105648D01*
X0241250Y0105650D01*
X0235250Y0105650D01*
X0235190Y0105648D01*
X0235129Y0105643D01*
X0235070Y0105634D01*
X0235011Y0105621D01*
X0234952Y0105605D01*
X0234895Y0105585D01*
X0234840Y0105562D01*
X0234785Y0105535D01*
X0234733Y0105506D01*
X0234682Y0105473D01*
X0234633Y0105437D01*
X0234587Y0105399D01*
X0234543Y0105357D01*
X0234501Y0105313D01*
X0234463Y0105267D01*
X0234427Y0105218D01*
X0234394Y0105167D01*
X0234365Y0105115D01*
X0234338Y0105060D01*
X0234315Y0105005D01*
X0234295Y0104948D01*
X0234279Y0104889D01*
X0234266Y0104830D01*
X0234257Y0104771D01*
X0234252Y0104710D01*
X0234250Y0104650D01*
X0234250Y0093650D01*
X0234252Y0093590D01*
X0234257Y0093529D01*
X0234266Y0093470D01*
X0234279Y0093411D01*
X0234295Y0093352D01*
X0234315Y0093295D01*
X0234338Y0093240D01*
X0234365Y0093185D01*
X0234394Y0093133D01*
X0234427Y0093082D01*
X0234463Y0093033D01*
X0234501Y0092987D01*
X0234543Y0092943D01*
X0234587Y0092901D01*
X0234633Y0092863D01*
X0234682Y0092827D01*
X0234733Y0092794D01*
X0234785Y0092765D01*
X0234840Y0092738D01*
X0234895Y0092715D01*
X0234952Y0092695D01*
X0235011Y0092679D01*
X0235070Y0092666D01*
X0235129Y0092657D01*
X0235190Y0092652D01*
X0235250Y0092650D01*
X0227149Y0104507D02*
X0214551Y0104507D01*
X0214551Y0110018D01*
X0227149Y0110018D01*
X0227149Y0104507D01*
X0227149Y0110757D02*
X0214551Y0110757D01*
X0214551Y0116268D01*
X0227149Y0116268D01*
X0227149Y0110757D01*
X0227149Y0117007D02*
X0214551Y0117007D01*
X0214551Y0122518D01*
X0227149Y0122518D01*
X0227149Y0117007D01*
X0227149Y0123257D02*
X0214551Y0123257D01*
X0214551Y0128768D01*
X0227149Y0128768D01*
X0227149Y0123257D01*
X0212700Y0118953D02*
X0212700Y0115572D01*
X0208157Y0120453D02*
X0206043Y0120453D01*
X0201500Y0118953D02*
X0201500Y0115572D01*
X0199600Y0111012D02*
X0194600Y0111012D01*
X0194600Y0121012D01*
X0199600Y0121012D01*
X0199600Y0111012D01*
X0188418Y0118963D02*
X0188418Y0125837D01*
X0185662Y0123581D02*
X0184088Y0121219D01*
X0187237Y0121219D01*
X0185662Y0123581D01*
X0185662Y0122794D02*
X0184875Y0121613D01*
X0186450Y0121613D01*
X0185662Y0122794D01*
X0185540Y0122609D02*
X0185785Y0122609D01*
X0186318Y0121811D02*
X0185007Y0121811D01*
X0182907Y0118963D02*
X0182907Y0125837D01*
X0183044Y0136476D02*
X0183044Y0149074D01*
X0188556Y0149074D01*
X0188556Y0136476D01*
X0183044Y0136476D01*
D426*
X0118813Y0115400D03*
X0118813Y0110400D03*
D427*
X0119303Y0110400D02*
X0120287Y0109416D01*
X0120287Y0111384D01*
X0119303Y0110400D01*
X0119378Y0110326D02*
X0120287Y0110326D01*
X0120287Y0110524D02*
X0119427Y0110524D01*
X0119626Y0110723D02*
X0120287Y0110723D01*
X0120287Y0110921D02*
X0119824Y0110921D01*
X0120023Y0111120D02*
X0120287Y0111120D01*
X0120287Y0111318D02*
X0120221Y0111318D01*
X0120287Y0110127D02*
X0119576Y0110127D01*
X0119775Y0109929D02*
X0120287Y0109929D01*
X0120287Y0109730D02*
X0119973Y0109730D01*
X0120172Y0109532D02*
X0120287Y0109532D01*
X0120287Y0114416D02*
X0119303Y0115400D01*
X0120287Y0116384D01*
X0120287Y0114416D01*
X0120287Y0114494D02*
X0120209Y0114494D01*
X0120287Y0114693D02*
X0120010Y0114693D01*
X0119812Y0114891D02*
X0120287Y0114891D01*
X0120287Y0115090D02*
X0119613Y0115090D01*
X0119415Y0115288D02*
X0120287Y0115288D01*
X0120287Y0115487D02*
X0119390Y0115487D01*
X0119589Y0115685D02*
X0120287Y0115685D01*
X0120287Y0115884D02*
X0119787Y0115884D01*
X0119986Y0116082D02*
X0120287Y0116082D01*
X0120287Y0116281D02*
X0120184Y0116281D01*
D428*
X0217000Y0150650D03*
D429*
X0115837Y0148563D03*
D430*
X0181102Y0028130D02*
X0181102Y0025130D01*
D431*
X0153139Y0083611D03*
D432*
X0185662Y0123975D03*
D433*
X0096722Y0160000D02*
X0096724Y0160047D01*
X0096730Y0160093D01*
X0096739Y0160139D01*
X0096753Y0160183D01*
X0096770Y0160227D01*
X0096791Y0160268D01*
X0096815Y0160308D01*
X0096842Y0160346D01*
X0096873Y0160381D01*
X0096906Y0160414D01*
X0096942Y0160444D01*
X0096981Y0160470D01*
X0097021Y0160494D01*
X0097063Y0160513D01*
X0097107Y0160530D01*
X0097152Y0160542D01*
X0097198Y0160551D01*
X0097244Y0160556D01*
X0097291Y0160557D01*
X0097337Y0160554D01*
X0097383Y0160547D01*
X0097429Y0160536D01*
X0097473Y0160522D01*
X0097516Y0160504D01*
X0097557Y0160482D01*
X0097597Y0160457D01*
X0097634Y0160429D01*
X0097669Y0160398D01*
X0097701Y0160364D01*
X0097730Y0160327D01*
X0097755Y0160289D01*
X0097778Y0160248D01*
X0097797Y0160205D01*
X0097812Y0160161D01*
X0097824Y0160116D01*
X0097832Y0160070D01*
X0097836Y0160023D01*
X0097836Y0159977D01*
X0097832Y0159930D01*
X0097824Y0159884D01*
X0097812Y0159839D01*
X0097797Y0159795D01*
X0097778Y0159752D01*
X0097755Y0159711D01*
X0097730Y0159673D01*
X0097701Y0159636D01*
X0097669Y0159602D01*
X0097634Y0159571D01*
X0097597Y0159543D01*
X0097558Y0159518D01*
X0097516Y0159496D01*
X0097473Y0159478D01*
X0097429Y0159464D01*
X0097383Y0159453D01*
X0097337Y0159446D01*
X0097291Y0159443D01*
X0097244Y0159444D01*
X0097198Y0159449D01*
X0097152Y0159458D01*
X0097107Y0159470D01*
X0097063Y0159487D01*
X0097021Y0159506D01*
X0096981Y0159530D01*
X0096942Y0159556D01*
X0096906Y0159586D01*
X0096873Y0159619D01*
X0096842Y0159654D01*
X0096815Y0159692D01*
X0096791Y0159732D01*
X0096770Y0159773D01*
X0096753Y0159817D01*
X0096739Y0159861D01*
X0096730Y0159907D01*
X0096724Y0159953D01*
X0096722Y0160000D01*
M02*
