%
M48
M72
T01C0.0122
T02C0.0138
T03C0.0150
T04C0.0200
T05C0.0394
T06C0.0400
%
T01
X15839Y6366
X16574Y6366
X17309Y6366
X17309Y7101
X17309Y7775
X16574Y7775
X16574Y7101
X15839Y7101
X15839Y7775
T02
X6513Y4719
X6325Y5111
X7575Y6665
X8200Y6665
X8825Y6594
X9388Y7325
X10013Y7325
X10638Y7325
X10888Y6728
X10888Y6475
X10888Y6222
X11879Y5111
X12132Y5111
X12575Y4579
X12322Y4540
X12327Y3790
X9961Y3238
X13214Y6276
X13066Y6486
X12888Y6665
X12580Y6722
X12464Y6964
X12200Y6978
X13467Y6228
X14643Y5978
X14888Y4156
X15200Y4156
X16340Y3681
X15828Y3191
X16763Y4478
X16763Y4767
X17200Y4790
X17453Y5165
X17200Y5228
X16771Y5020
X17950Y5540
X18200Y4415
X17950Y4165
X18450Y4049
X18075Y8659
X17013Y8603
X16700Y8790
X18075Y9728
X19561Y10429
X19825Y10415
X20263Y10228
X20075Y10915
X19450Y10861
X20325Y11603
X20763Y11728
X20763Y12353
X21138Y12728
X20061Y12589
X20021Y12853
X19200Y13415
X19825Y13853
X20021Y14103
X19575Y14103
X19489Y14415
X20200Y13665
X20763Y13728
X19138Y12540
X17888Y12853
X17950Y13790
X18075Y14603
X17263Y14853
X17888Y15290
X17075Y15478
X16263Y15790
X16263Y16103
X15450Y16228
X14638Y16040
X13638Y15853
X13325Y15415
X12450Y15415
X12450Y15955
X13075Y16625
X11575Y17353
X11200Y16625
X11200Y15915
X10325Y15165
X9700Y15228
X9575Y14915
X9013Y15478
X9013Y15790
X9013Y16103
X9138Y16665
X8513Y17290
X7200Y16665
X8138Y16040
X7448Y15165
X7138Y15165
X7138Y14603
X7075Y14165
X8200Y13290
X8450Y13040
X9013Y12728
X9013Y12478
X9013Y12228
X9513Y11228
X9888Y11057
X9811Y10804
X10263Y10415
X11200Y11105
X11263Y10853
X12253Y11032
X12450Y11540
X12950Y11853
X12450Y12040
X13388Y12290
X13575Y12728
X13388Y12915
X13700Y13103
X14575Y13353
X14825Y12915
X13763Y14040
X13450Y14039
X11888Y14728
X11888Y15040
X11325Y13665
X11075Y13228
X11263Y12540
X10450Y12290
X9450Y13603
X8513Y13790
X8513Y14103
X7200Y12665
X7138Y11540
X6138Y11478
X6263Y10665
X5575Y9540
X4263Y10603
X3450Y11540
X7700Y9540
X7950Y10353
X9763Y9559
X11388Y9969
X11638Y9829
X13148Y10564
X13075Y11353
X14825Y10665
X15888Y10603
X16263Y10853
X16013Y11353
X16450Y11540
X16825Y11228
X17013Y11540
X13833Y9576
X20950Y10665
X21263Y10353
X22420Y11976
X23325Y11228
X24200Y12290
X22825Y14478
X20950Y15165
X20138Y15915
X20390Y16014
X19825Y15915
X19572Y15853
X19013Y16353
X19513Y16728
X19825Y16566
X20078Y16665
X20274Y16853
X20263Y17478
X18950Y16964
X18450Y16728
X17825Y16228
X17763Y16665
X14763Y17415
X22638Y17228
X23700Y16728
X23888Y17290
X6200Y17415
X4513Y16790
X3763Y15853
T03
X6533Y3978
X4658Y5165
X5970Y5915
X5408Y6415
X4720Y7540
X6158Y8290
X6970Y8665
X7220Y7103
X3783Y9290
X3283Y6540
X11158Y2603
X12283Y2353
X13345Y2353
X14845Y3415
X14220Y4103
X13158Y4103
X13033Y5790
X13658Y5790
X12283Y7540
X11845Y8728
X11408Y9040
X12783Y8978
X14158Y9040
X14533Y7978
X15408Y8290
X16595Y9228
X16595Y9603
X19170Y7790
X19470Y7790
X19770Y7790
X20670Y7790
X20970Y7790
X20970Y8090
X21570Y8390
X21870Y8390
X22170Y8390
X22470Y8390
X22770Y8390
X23070Y8390
X23370Y8390
X23670Y8390
X23970Y8390
X23720Y8853
X23033Y9290
X22783Y8853
X21970Y9103
X20970Y6590
X20970Y6290
X20670Y6590
X20370Y6590
X20070Y6590
X19770Y6590
X19470Y6590
X19170Y6590
X18870Y6590
X18570Y6590
X18270Y6590
X19158Y5665
X20095Y5228
X20283Y5978
X20970Y5990
X20970Y5690
X20970Y5390
X20970Y5090
X20970Y4790
X20970Y4490
X20970Y4190
X20970Y3890
X20970Y3590
X20970Y3290
X20970Y2990
X20970Y2690
X20970Y2390
X20033Y4165
X19220Y4478
X17658Y3603
X17533Y2665
X21650Y4480
T04
X18450Y2665
X18950Y2665
X19450Y2665
X19950Y2665
X20450Y2665
X20450Y3165
X19950Y3165
X19450Y3165
X18950Y3165
X18450Y3165
T05
X7450Y2665
X8450Y2665
X9450Y2665
X10450Y2665
X11825Y2665
X12825Y2665
X13825Y2665
X14825Y2665
X23924Y13104
X23924Y14104
T06
X21700Y14290
X21700Y16290
M30
