G75*
%MOIN*%
%OFA0B0*%
%FSLAX25Y25*%
%IPPOS*%
%LPD*%
%AMOC8*
5,1,8,0,0,1.08239X$1,22.5*
%
%ADD10C,0.00600*%
%ADD11C,0.10000*%
%ADD12OC8,0.10000*%
%ADD13C,0.04000*%
%ADD14C,0.06600*%
%ADD15R,0.06300X0.04600*%
%ADD16C,0.00500*%
%ADD17C,0.02100*%
%ADD18C,0.01709*%
%ADD19C,0.01929*%
%ADD20C,0.00800*%
%ADD21C,0.02400*%
%ADD22C,0.01600*%
%ADD23C,0.01000*%
%ADD24C,0.03200*%
D10*
X0028250Y0020400D02*
X0244785Y0020400D01*
X0244785Y0177880D01*
X0028250Y0177880D01*
X0028250Y0020400D01*
X0113875Y0099690D02*
X0115138Y0099690D01*
X0115603Y0100154D01*
X0117871Y0100154D01*
X0118435Y0099590D01*
X0123726Y0099590D01*
X0126312Y0102175D01*
X0129500Y0102175D01*
X0130750Y0103425D01*
X0130750Y0104907D01*
X0131482Y0105640D01*
D11*
X0217000Y0162900D03*
D12*
X0217000Y0142900D03*
D13*
X0204500Y0031650D03*
X0199500Y0031650D03*
X0194500Y0031650D03*
X0189500Y0031650D03*
X0184500Y0031650D03*
X0184500Y0026650D03*
X0189500Y0026650D03*
X0194500Y0026650D03*
X0199500Y0026650D03*
X0204500Y0026650D03*
D14*
X0148250Y0026650D03*
X0138250Y0026650D03*
X0128250Y0026650D03*
X0118250Y0026650D03*
X0104500Y0026650D03*
X0094500Y0026650D03*
X0084500Y0026650D03*
X0074500Y0026650D03*
X0239237Y0131037D03*
X0239237Y0141038D03*
D15*
X0238250Y0102150D03*
X0238250Y0096150D03*
D16*
X0238500Y0096174D02*
X0243235Y0096174D01*
X0243235Y0096672D02*
X0242650Y0096672D01*
X0242650Y0096400D02*
X0242650Y0098615D01*
X0242565Y0098932D01*
X0242439Y0099150D01*
X0243235Y0099150D01*
X0243235Y0082900D01*
X0212450Y0082900D01*
X0212450Y0067750D01*
X0218400Y0067750D01*
X0218400Y0021950D01*
X0097649Y0021950D01*
X0100050Y0024351D01*
X0100050Y0026282D01*
X0100200Y0026132D01*
X0100350Y0025982D01*
X0100350Y0025825D01*
X0100982Y0024299D01*
X0102149Y0023132D01*
X0103675Y0022500D01*
X0105325Y0022500D01*
X0106851Y0023132D01*
X0108018Y0024299D01*
X0108650Y0025825D01*
X0108650Y0027475D01*
X0108018Y0029001D01*
X0106851Y0030168D01*
X0105325Y0030800D01*
X0103675Y0030800D01*
X0102149Y0030168D01*
X0101450Y0029469D01*
X0101450Y0029529D01*
X0100718Y0030261D01*
X0100385Y0030594D01*
X0101422Y0031631D01*
X0101422Y0033134D01*
X0100359Y0034197D01*
X0099950Y0034197D01*
X0099950Y0042517D01*
X0114408Y0056975D01*
X0123887Y0056975D01*
X0124620Y0057707D01*
X0124620Y0057707D01*
X0126720Y0059808D01*
X0130539Y0059808D01*
X0130542Y0059811D01*
X0130808Y0059546D01*
X0133471Y0059546D01*
X0134385Y0060460D01*
X0135420Y0060460D01*
X0136483Y0061523D01*
X0136483Y0063027D01*
X0135420Y0064090D01*
X0133917Y0064090D01*
X0133647Y0063819D01*
X0132891Y0064575D01*
X0132478Y0064575D01*
X0132478Y0065613D01*
X0131415Y0066676D01*
X0130690Y0066676D01*
X0130690Y0067402D01*
X0129627Y0068465D01*
X0128123Y0068465D01*
X0127617Y0067958D01*
X0127617Y0067974D01*
X0126554Y0069037D01*
X0126454Y0069037D01*
X0126454Y0070387D01*
X0125391Y0071450D01*
X0123888Y0071450D01*
X0123389Y0070952D01*
X0122752Y0071590D01*
X0121248Y0071590D01*
X0120185Y0070527D01*
X0120185Y0069023D01*
X0120232Y0068977D01*
X0119216Y0067960D01*
X0111207Y0067960D01*
X0110643Y0068525D01*
X0110191Y0068525D01*
X0109627Y0069090D01*
X0108123Y0069090D01*
X0107559Y0068525D01*
X0106373Y0068525D01*
X0104348Y0070550D01*
X0081354Y0070550D01*
X0080622Y0069818D01*
X0079329Y0068525D01*
X0075857Y0068525D01*
X0075797Y0068465D01*
X0074998Y0068465D01*
X0073935Y0067402D01*
X0073935Y0065898D01*
X0074998Y0064835D01*
X0076502Y0064835D01*
X0077565Y0065898D01*
X0077565Y0066025D01*
X0080185Y0066025D01*
X0080185Y0065898D01*
X0081248Y0064835D01*
X0082752Y0064835D01*
X0083815Y0065898D01*
X0083815Y0066650D01*
X0086435Y0066650D01*
X0086435Y0065184D01*
X0087498Y0064121D01*
X0089002Y0064121D01*
X0090065Y0065184D01*
X0090065Y0065250D01*
X0102152Y0065250D01*
X0105871Y0061531D01*
X0107060Y0061531D01*
X0107060Y0061465D01*
X0108123Y0060402D01*
X0108359Y0060402D01*
X0093250Y0045293D01*
X0093250Y0030624D01*
X0092149Y0030168D01*
X0090982Y0029001D01*
X0090350Y0027475D01*
X0090350Y0026487D01*
X0088937Y0027900D01*
X0088474Y0027900D01*
X0088018Y0029001D01*
X0086851Y0030168D01*
X0085325Y0030800D01*
X0083675Y0030800D01*
X0082149Y0030168D01*
X0080982Y0029001D01*
X0080350Y0027475D01*
X0080350Y0025825D01*
X0080982Y0024299D01*
X0082149Y0023132D01*
X0083675Y0022500D01*
X0085325Y0022500D01*
X0086851Y0023132D01*
X0088018Y0024299D01*
X0088306Y0024995D01*
X0091351Y0021950D01*
X0029800Y0021950D01*
X0029800Y0099150D01*
X0091075Y0099150D01*
X0091075Y0088097D01*
X0091807Y0087365D01*
X0097475Y0081697D01*
X0097475Y0078618D01*
X0093922Y0075065D01*
X0093123Y0075065D01*
X0092060Y0074002D01*
X0092060Y0072498D01*
X0093123Y0071435D01*
X0094627Y0071435D01*
X0095690Y0072498D01*
X0095690Y0073297D01*
X0098875Y0076482D01*
X0098875Y0074566D01*
X0098310Y0074002D01*
X0098310Y0072498D01*
X0099373Y0071435D01*
X0100877Y0071435D01*
X0101940Y0072498D01*
X0101940Y0074002D01*
X0101375Y0074566D01*
X0101375Y0076482D01*
X0104560Y0073297D01*
X0104560Y0072498D01*
X0105623Y0071435D01*
X0107127Y0071435D01*
X0108190Y0072498D01*
X0108190Y0074002D01*
X0107127Y0075065D01*
X0106328Y0075065D01*
X0102775Y0078618D01*
X0102775Y0083893D01*
X0102043Y0084625D01*
X0096375Y0090293D01*
X0096375Y0094273D01*
X0096873Y0093775D01*
X0098377Y0093775D01*
X0098941Y0094340D01*
X0136684Y0094340D01*
X0136684Y0071508D01*
X0144784Y0063407D01*
X0144784Y0060691D01*
X0144619Y0060527D01*
X0144619Y0059023D01*
X0144784Y0058859D01*
X0144784Y0040600D01*
X0143434Y0039250D01*
X0124490Y0039250D01*
X0124025Y0039715D01*
X0122522Y0039715D01*
X0121459Y0038652D01*
X0121459Y0037148D01*
X0122522Y0036085D01*
X0124025Y0036085D01*
X0124490Y0036550D01*
X0144552Y0036550D01*
X0146222Y0038220D01*
X0154179Y0030262D01*
X0157362Y0030262D01*
X0157527Y0030098D01*
X0159030Y0030098D01*
X0159195Y0030262D01*
X0178554Y0030262D01*
X0181650Y0027167D01*
X0181650Y0026083D01*
X0182084Y0025036D01*
X0182886Y0024234D01*
X0183933Y0023800D01*
X0185067Y0023800D01*
X0186114Y0024234D01*
X0186769Y0024888D01*
X0186976Y0024578D01*
X0187428Y0024126D01*
X0187961Y0023770D01*
X0188552Y0023525D01*
X0189180Y0023400D01*
X0189250Y0023400D01*
X0189250Y0026400D01*
X0189750Y0026400D01*
X0189750Y0026900D01*
X0192750Y0026900D01*
X0194250Y0026900D01*
X0194250Y0026400D01*
X0189750Y0026400D01*
X0189750Y0023400D01*
X0189820Y0023400D01*
X0190448Y0023525D01*
X0191039Y0023770D01*
X0191572Y0024126D01*
X0192000Y0024554D01*
X0192428Y0024126D01*
X0192961Y0023770D01*
X0193552Y0023525D01*
X0194180Y0023400D01*
X0194250Y0023400D01*
X0194250Y0026400D01*
X0194750Y0026400D01*
X0194750Y0023400D01*
X0194820Y0023400D01*
X0195448Y0023525D01*
X0196039Y0023770D01*
X0196572Y0024126D01*
X0197024Y0024578D01*
X0197231Y0024888D01*
X0197886Y0024234D01*
X0198933Y0023800D01*
X0200067Y0023800D01*
X0201114Y0024234D01*
X0201769Y0024888D01*
X0201976Y0024578D01*
X0202428Y0024126D01*
X0202961Y0023770D01*
X0203552Y0023525D01*
X0204180Y0023400D01*
X0204250Y0023400D01*
X0204250Y0026400D01*
X0204750Y0026400D01*
X0204750Y0026900D01*
X0207750Y0026900D01*
X0207750Y0026970D01*
X0207625Y0027598D01*
X0207380Y0028189D01*
X0207024Y0028722D01*
X0206572Y0029174D01*
X0206262Y0029381D01*
X0206916Y0030036D01*
X0207350Y0031083D01*
X0207350Y0032217D01*
X0206916Y0033264D01*
X0206114Y0034066D01*
X0205067Y0034500D01*
X0203933Y0034500D01*
X0202886Y0034066D01*
X0202084Y0033264D01*
X0202000Y0033062D01*
X0201916Y0033264D01*
X0201114Y0034066D01*
X0200067Y0034500D01*
X0198933Y0034500D01*
X0197886Y0034066D01*
X0197084Y0033264D01*
X0197000Y0033062D01*
X0196916Y0033264D01*
X0196114Y0034066D01*
X0195067Y0034500D01*
X0193933Y0034500D01*
X0192886Y0034066D01*
X0192084Y0033264D01*
X0192000Y0033062D01*
X0191916Y0033264D01*
X0191114Y0034066D01*
X0190067Y0034500D01*
X0188933Y0034500D01*
X0188875Y0034476D01*
X0188875Y0041543D01*
X0188143Y0042275D01*
X0186268Y0044150D01*
X0183815Y0044150D01*
X0183815Y0044902D01*
X0182752Y0045965D01*
X0181248Y0045965D01*
X0180684Y0045400D01*
X0175857Y0045400D01*
X0175125Y0044668D01*
X0168982Y0038525D01*
X0164250Y0038525D01*
X0164148Y0038627D01*
X0162645Y0038627D01*
X0161582Y0037564D01*
X0161582Y0036061D01*
X0162645Y0034998D01*
X0164148Y0034998D01*
X0165175Y0036025D01*
X0170018Y0036025D01*
X0170750Y0036757D01*
X0176893Y0042900D01*
X0180684Y0042900D01*
X0181248Y0042335D01*
X0182047Y0042335D01*
X0182732Y0041650D01*
X0183094Y0041650D01*
X0182685Y0041241D01*
X0182685Y0039738D01*
X0183250Y0039173D01*
X0183250Y0034217D01*
X0182886Y0034066D01*
X0182084Y0033264D01*
X0181650Y0032217D01*
X0181650Y0031833D01*
X0180887Y0032596D01*
X0179921Y0033562D01*
X0159195Y0033562D01*
X0159030Y0033727D01*
X0157527Y0033727D01*
X0157362Y0033562D01*
X0155546Y0033562D01*
X0149363Y0039746D01*
X0149627Y0039746D01*
X0150438Y0040557D01*
X0151248Y0039746D01*
X0152752Y0039746D01*
X0153815Y0040809D01*
X0153815Y0042312D01*
X0152752Y0043375D01*
X0152043Y0043375D01*
X0151525Y0043893D01*
X0151525Y0081802D01*
X0154671Y0084948D01*
X0165406Y0084948D01*
X0165668Y0084685D01*
X0168332Y0084685D01*
X0168421Y0084775D01*
X0168809Y0084775D01*
X0169373Y0084210D01*
X0170877Y0084210D01*
X0171940Y0085273D01*
X0171940Y0086777D01*
X0170877Y0087840D01*
X0169373Y0087840D01*
X0168815Y0087281D01*
X0168815Y0088652D01*
X0167752Y0089715D01*
X0166248Y0089715D01*
X0165684Y0089150D01*
X0153357Y0089150D01*
X0148357Y0084150D01*
X0147625Y0083418D01*
X0147625Y0065233D01*
X0139984Y0072874D01*
X0139984Y0094846D01*
X0140149Y0095011D01*
X0140149Y0096514D01*
X0139986Y0096677D01*
X0140183Y0096875D01*
X0178817Y0096875D01*
X0178935Y0096756D01*
X0178935Y0096523D01*
X0179100Y0096359D01*
X0179100Y0087507D01*
X0178935Y0087343D01*
X0178935Y0085839D01*
X0179998Y0084776D01*
X0181502Y0084776D01*
X0182565Y0085839D01*
X0182565Y0087343D01*
X0182400Y0087507D01*
X0182400Y0096359D01*
X0182565Y0096523D01*
X0182565Y0098027D01*
X0181502Y0099090D01*
X0181269Y0099090D01*
X0181208Y0099150D01*
X0234061Y0099150D01*
X0233935Y0098932D01*
X0233850Y0098615D01*
X0233850Y0096400D01*
X0238000Y0096400D01*
X0238000Y0095900D01*
X0238500Y0095900D01*
X0238500Y0096400D01*
X0242650Y0096400D01*
X0242650Y0095900D02*
X0238500Y0095900D01*
X0238500Y0092600D01*
X0241565Y0092600D01*
X0241882Y0092685D01*
X0242168Y0092850D01*
X0242400Y0093082D01*
X0242565Y0093368D01*
X0242650Y0093685D01*
X0242650Y0095900D01*
X0242650Y0095675D02*
X0243235Y0095675D01*
X0243235Y0095177D02*
X0242650Y0095177D01*
X0242650Y0094678D02*
X0243235Y0094678D01*
X0243235Y0094180D02*
X0242650Y0094180D01*
X0242649Y0093681D02*
X0243235Y0093681D01*
X0243235Y0093183D02*
X0242458Y0093183D01*
X0241879Y0092684D02*
X0243235Y0092684D01*
X0243235Y0092186D02*
X0182400Y0092186D01*
X0182400Y0092684D02*
X0234621Y0092684D01*
X0234618Y0092685D02*
X0234935Y0092600D01*
X0238000Y0092600D01*
X0238000Y0095900D01*
X0233850Y0095900D01*
X0233850Y0093685D01*
X0233935Y0093368D01*
X0234100Y0093082D01*
X0234332Y0092850D01*
X0234618Y0092685D01*
X0234042Y0093183D02*
X0182400Y0093183D01*
X0182400Y0093681D02*
X0233851Y0093681D01*
X0233850Y0094180D02*
X0182400Y0094180D01*
X0182400Y0094678D02*
X0233850Y0094678D01*
X0233850Y0095177D02*
X0182400Y0095177D01*
X0182400Y0095675D02*
X0233850Y0095675D01*
X0233850Y0096672D02*
X0182565Y0096672D01*
X0182565Y0097171D02*
X0233850Y0097171D01*
X0233850Y0097669D02*
X0182565Y0097669D01*
X0182423Y0098168D02*
X0233850Y0098168D01*
X0233864Y0098666D02*
X0181925Y0098666D01*
X0182400Y0096174D02*
X0238000Y0096174D01*
X0238000Y0095675D02*
X0238500Y0095675D01*
X0238500Y0095177D02*
X0238000Y0095177D01*
X0238000Y0094678D02*
X0238500Y0094678D01*
X0238500Y0094180D02*
X0238000Y0094180D01*
X0238000Y0093681D02*
X0238500Y0093681D01*
X0238500Y0093183D02*
X0238000Y0093183D01*
X0238000Y0092684D02*
X0238500Y0092684D01*
X0243235Y0091687D02*
X0182400Y0091687D01*
X0182400Y0091189D02*
X0243235Y0091189D01*
X0243235Y0090690D02*
X0182400Y0090690D01*
X0182400Y0090192D02*
X0243235Y0090192D01*
X0243235Y0089693D02*
X0182400Y0089693D01*
X0182400Y0089195D02*
X0243235Y0089195D01*
X0243235Y0088696D02*
X0182400Y0088696D01*
X0182400Y0088198D02*
X0243235Y0088198D01*
X0243235Y0087699D02*
X0182400Y0087699D01*
X0182565Y0087201D02*
X0243235Y0087201D01*
X0243235Y0086702D02*
X0182565Y0086702D01*
X0182565Y0086203D02*
X0243235Y0086203D01*
X0243235Y0085705D02*
X0182430Y0085705D01*
X0181932Y0085206D02*
X0243235Y0085206D01*
X0243235Y0084708D02*
X0171374Y0084708D01*
X0171873Y0085206D02*
X0179568Y0085206D01*
X0179070Y0085705D02*
X0171940Y0085705D01*
X0171940Y0086203D02*
X0178935Y0086203D01*
X0178935Y0086702D02*
X0171940Y0086702D01*
X0171516Y0087201D02*
X0178935Y0087201D01*
X0179100Y0087699D02*
X0171017Y0087699D01*
X0169233Y0087699D02*
X0168815Y0087699D01*
X0168815Y0088198D02*
X0179100Y0088198D01*
X0179100Y0088696D02*
X0168770Y0088696D01*
X0168272Y0089195D02*
X0179100Y0089195D01*
X0179100Y0089693D02*
X0167773Y0089693D01*
X0166227Y0089693D02*
X0139984Y0089693D01*
X0139984Y0089195D02*
X0165728Y0089195D01*
X0165646Y0084708D02*
X0154431Y0084708D01*
X0153932Y0084209D02*
X0243235Y0084209D01*
X0243235Y0083711D02*
X0153434Y0083711D01*
X0152935Y0083212D02*
X0243235Y0083212D01*
X0243235Y0097171D02*
X0242650Y0097171D01*
X0242650Y0097669D02*
X0243235Y0097669D01*
X0243235Y0098168D02*
X0242650Y0098168D01*
X0242636Y0098666D02*
X0243235Y0098666D01*
X0212450Y0082714D02*
X0152437Y0082714D01*
X0151938Y0082215D02*
X0212450Y0082215D01*
X0212450Y0081717D02*
X0151525Y0081717D01*
X0151525Y0081218D02*
X0212450Y0081218D01*
X0212450Y0080720D02*
X0151525Y0080720D01*
X0151525Y0080221D02*
X0212450Y0080221D01*
X0212450Y0079723D02*
X0151525Y0079723D01*
X0151525Y0079224D02*
X0212450Y0079224D01*
X0212450Y0078726D02*
X0151525Y0078726D01*
X0151525Y0078227D02*
X0212450Y0078227D01*
X0212450Y0077729D02*
X0151525Y0077729D01*
X0151525Y0077230D02*
X0212450Y0077230D01*
X0212450Y0076732D02*
X0151525Y0076732D01*
X0151525Y0076233D02*
X0212450Y0076233D01*
X0212450Y0075735D02*
X0151525Y0075735D01*
X0151525Y0075236D02*
X0212450Y0075236D01*
X0212450Y0074738D02*
X0151525Y0074738D01*
X0151525Y0074239D02*
X0212450Y0074239D01*
X0212450Y0073741D02*
X0151525Y0073741D01*
X0151525Y0073242D02*
X0212450Y0073242D01*
X0212450Y0072744D02*
X0151525Y0072744D01*
X0151525Y0072245D02*
X0212450Y0072245D01*
X0212450Y0071747D02*
X0151525Y0071747D01*
X0151525Y0071248D02*
X0212450Y0071248D01*
X0212450Y0070750D02*
X0151525Y0070750D01*
X0151525Y0070251D02*
X0212450Y0070251D01*
X0212450Y0069753D02*
X0151525Y0069753D01*
X0151525Y0069254D02*
X0212450Y0069254D01*
X0212450Y0068756D02*
X0151525Y0068756D01*
X0151525Y0068257D02*
X0212450Y0068257D01*
X0212450Y0067759D02*
X0151525Y0067759D01*
X0151525Y0067260D02*
X0218400Y0067260D01*
X0218400Y0066762D02*
X0151525Y0066762D01*
X0151525Y0066263D02*
X0218400Y0066263D01*
X0218400Y0065765D02*
X0151525Y0065765D01*
X0151525Y0065266D02*
X0218400Y0065266D01*
X0218400Y0064768D02*
X0151525Y0064768D01*
X0151525Y0064269D02*
X0218400Y0064269D01*
X0218400Y0063770D02*
X0151525Y0063770D01*
X0151525Y0063272D02*
X0218400Y0063272D01*
X0218400Y0062773D02*
X0151525Y0062773D01*
X0151525Y0062275D02*
X0218400Y0062275D01*
X0218400Y0061776D02*
X0151525Y0061776D01*
X0151525Y0061278D02*
X0218400Y0061278D01*
X0218400Y0060779D02*
X0151525Y0060779D01*
X0151525Y0060281D02*
X0218400Y0060281D01*
X0218400Y0059782D02*
X0151525Y0059782D01*
X0151525Y0059284D02*
X0218400Y0059284D01*
X0218400Y0058785D02*
X0151525Y0058785D01*
X0151525Y0058287D02*
X0218400Y0058287D01*
X0218400Y0057788D02*
X0151525Y0057788D01*
X0151525Y0057290D02*
X0218400Y0057290D01*
X0218400Y0056791D02*
X0151525Y0056791D01*
X0151525Y0056293D02*
X0218400Y0056293D01*
X0218400Y0055794D02*
X0151525Y0055794D01*
X0151525Y0055296D02*
X0218400Y0055296D01*
X0218400Y0054797D02*
X0151525Y0054797D01*
X0151525Y0054299D02*
X0218400Y0054299D01*
X0218400Y0053800D02*
X0173041Y0053800D01*
X0172752Y0054090D02*
X0173577Y0053264D01*
X0173778Y0053465D01*
X0175281Y0053465D01*
X0176344Y0052402D01*
X0176344Y0050898D01*
X0175281Y0049835D01*
X0174453Y0049835D01*
X0174350Y0049732D01*
X0173618Y0049000D01*
X0173466Y0049000D01*
X0173815Y0048652D01*
X0173815Y0047148D01*
X0172752Y0046085D01*
X0171953Y0046085D01*
X0170125Y0044257D01*
X0169393Y0043525D01*
X0168941Y0043525D01*
X0168377Y0042960D01*
X0166873Y0042960D01*
X0165810Y0044023D01*
X0165810Y0045527D01*
X0166508Y0046224D01*
X0165810Y0046921D01*
X0165810Y0048425D01*
X0166366Y0048980D01*
X0165895Y0049450D01*
X0165895Y0050954D01*
X0166958Y0052017D01*
X0167474Y0052017D01*
X0167625Y0052168D01*
X0168357Y0052900D01*
X0170185Y0052900D01*
X0170185Y0053027D01*
X0171248Y0054090D01*
X0172752Y0054090D01*
X0173539Y0053302D02*
X0173615Y0053302D01*
X0175444Y0053302D02*
X0218400Y0053302D01*
X0218400Y0052803D02*
X0175942Y0052803D01*
X0176344Y0052305D02*
X0218400Y0052305D01*
X0218400Y0051806D02*
X0176344Y0051806D01*
X0176344Y0051308D02*
X0218400Y0051308D01*
X0218400Y0050809D02*
X0176255Y0050809D01*
X0175756Y0050311D02*
X0218400Y0050311D01*
X0218400Y0049812D02*
X0174430Y0049812D01*
X0173931Y0049314D02*
X0218400Y0049314D01*
X0218400Y0048815D02*
X0173651Y0048815D01*
X0173815Y0048317D02*
X0218400Y0048317D01*
X0218400Y0047818D02*
X0173815Y0047818D01*
X0173815Y0047320D02*
X0218400Y0047320D01*
X0218400Y0046821D02*
X0173487Y0046821D01*
X0172989Y0046323D02*
X0218400Y0046323D01*
X0218400Y0045824D02*
X0182892Y0045824D01*
X0183391Y0045326D02*
X0218400Y0045326D01*
X0218400Y0044827D02*
X0183815Y0044827D01*
X0183815Y0044329D02*
X0218400Y0044329D01*
X0218400Y0043830D02*
X0186588Y0043830D01*
X0187086Y0043332D02*
X0218400Y0043332D01*
X0218400Y0042833D02*
X0187585Y0042833D01*
X0188083Y0042334D02*
X0218400Y0042334D01*
X0218400Y0041836D02*
X0188582Y0041836D01*
X0188875Y0041337D02*
X0218400Y0041337D01*
X0218400Y0040839D02*
X0188875Y0040839D01*
X0188875Y0040340D02*
X0218400Y0040340D01*
X0218400Y0039842D02*
X0188875Y0039842D01*
X0188875Y0039343D02*
X0218400Y0039343D01*
X0218400Y0038845D02*
X0188875Y0038845D01*
X0188875Y0038346D02*
X0218400Y0038346D01*
X0218400Y0037848D02*
X0188875Y0037848D01*
X0188875Y0037349D02*
X0218400Y0037349D01*
X0218400Y0036851D02*
X0188875Y0036851D01*
X0188875Y0036352D02*
X0218400Y0036352D01*
X0218400Y0035854D02*
X0188875Y0035854D01*
X0188875Y0035355D02*
X0218400Y0035355D01*
X0218400Y0034857D02*
X0188875Y0034857D01*
X0190409Y0034358D02*
X0193591Y0034358D01*
X0192679Y0033860D02*
X0191321Y0033860D01*
X0191819Y0033361D02*
X0192181Y0033361D01*
X0195409Y0034358D02*
X0198591Y0034358D01*
X0197679Y0033860D02*
X0196321Y0033860D01*
X0196819Y0033361D02*
X0197181Y0033361D01*
X0200409Y0034358D02*
X0203591Y0034358D01*
X0202679Y0033860D02*
X0201321Y0033860D01*
X0201819Y0033361D02*
X0202181Y0033361D01*
X0205409Y0034358D02*
X0218400Y0034358D01*
X0218400Y0033860D02*
X0206321Y0033860D01*
X0206819Y0033361D02*
X0218400Y0033361D01*
X0218400Y0032863D02*
X0207082Y0032863D01*
X0207289Y0032364D02*
X0218400Y0032364D01*
X0218400Y0031866D02*
X0207350Y0031866D01*
X0207350Y0031367D02*
X0218400Y0031367D01*
X0218400Y0030869D02*
X0207261Y0030869D01*
X0207055Y0030370D02*
X0218400Y0030370D01*
X0218400Y0029872D02*
X0206752Y0029872D01*
X0206274Y0029373D02*
X0218400Y0029373D01*
X0218400Y0028875D02*
X0206871Y0028875D01*
X0207255Y0028376D02*
X0218400Y0028376D01*
X0218400Y0027878D02*
X0207509Y0027878D01*
X0207669Y0027379D02*
X0218400Y0027379D01*
X0218400Y0026881D02*
X0204750Y0026881D01*
X0204750Y0026400D02*
X0207750Y0026400D01*
X0207750Y0026330D01*
X0207625Y0025702D01*
X0207380Y0025111D01*
X0207024Y0024578D01*
X0206572Y0024126D01*
X0206039Y0023770D01*
X0205448Y0023525D01*
X0204820Y0023400D01*
X0204750Y0023400D01*
X0204750Y0026400D01*
X0204750Y0026382D02*
X0204250Y0026382D01*
X0204250Y0025884D02*
X0204750Y0025884D01*
X0204750Y0025385D02*
X0204250Y0025385D01*
X0204250Y0024887D02*
X0204750Y0024887D01*
X0204750Y0024388D02*
X0204250Y0024388D01*
X0204250Y0023890D02*
X0204750Y0023890D01*
X0206219Y0023890D02*
X0218400Y0023890D01*
X0218400Y0024388D02*
X0206834Y0024388D01*
X0207230Y0024887D02*
X0218400Y0024887D01*
X0218400Y0025385D02*
X0207494Y0025385D01*
X0207661Y0025884D02*
X0218400Y0025884D01*
X0218400Y0026382D02*
X0207750Y0026382D01*
X0202781Y0023890D02*
X0200283Y0023890D01*
X0201269Y0024388D02*
X0202166Y0024388D01*
X0201770Y0024887D02*
X0201767Y0024887D01*
X0198717Y0023890D02*
X0196219Y0023890D01*
X0196834Y0024388D02*
X0197731Y0024388D01*
X0197233Y0024887D02*
X0197230Y0024887D01*
X0194750Y0024887D02*
X0194250Y0024887D01*
X0194250Y0025385D02*
X0194750Y0025385D01*
X0194750Y0025884D02*
X0194250Y0025884D01*
X0194250Y0026382D02*
X0194750Y0026382D01*
X0194250Y0026881D02*
X0189750Y0026881D01*
X0189750Y0026382D02*
X0189250Y0026382D01*
X0189250Y0025884D02*
X0189750Y0025884D01*
X0189750Y0025385D02*
X0189250Y0025385D01*
X0189250Y0024887D02*
X0189750Y0024887D01*
X0189750Y0024388D02*
X0189250Y0024388D01*
X0189250Y0023890D02*
X0189750Y0023890D01*
X0191219Y0023890D02*
X0192781Y0023890D01*
X0192166Y0024388D02*
X0191834Y0024388D01*
X0194250Y0024388D02*
X0194750Y0024388D01*
X0194750Y0023890D02*
X0194250Y0023890D01*
X0187781Y0023890D02*
X0185283Y0023890D01*
X0186269Y0024388D02*
X0187166Y0024388D01*
X0186770Y0024887D02*
X0186767Y0024887D01*
X0183717Y0023890D02*
X0151869Y0023890D01*
X0151721Y0023686D02*
X0152141Y0024265D01*
X0152467Y0024903D01*
X0152688Y0025585D01*
X0152800Y0026292D01*
X0152800Y0026400D01*
X0148500Y0026400D01*
X0148500Y0026900D01*
X0148000Y0026900D01*
X0148000Y0031200D01*
X0147892Y0031200D01*
X0147185Y0031088D01*
X0146503Y0030867D01*
X0145865Y0030541D01*
X0145286Y0030121D01*
X0144779Y0029614D01*
X0144358Y0029035D01*
X0144033Y0028397D01*
X0143812Y0027715D01*
X0143700Y0027008D01*
X0143700Y0026900D01*
X0148000Y0026900D01*
X0148000Y0026400D01*
X0143700Y0026400D01*
X0143700Y0026292D01*
X0143812Y0025585D01*
X0144033Y0024903D01*
X0144358Y0024265D01*
X0144779Y0023686D01*
X0145286Y0023179D01*
X0145865Y0022758D01*
X0146503Y0022433D01*
X0147185Y0022212D01*
X0147892Y0022100D01*
X0148000Y0022100D01*
X0148000Y0026400D01*
X0148500Y0026400D01*
X0148500Y0022100D01*
X0148608Y0022100D01*
X0149315Y0022212D01*
X0149997Y0022433D01*
X0150635Y0022758D01*
X0151214Y0023179D01*
X0151721Y0023686D01*
X0151426Y0023391D02*
X0218400Y0023391D01*
X0218400Y0022893D02*
X0150819Y0022893D01*
X0149876Y0022394D02*
X0218400Y0022394D01*
X0182731Y0024388D02*
X0152204Y0024388D01*
X0152458Y0024887D02*
X0182233Y0024887D01*
X0181939Y0025385D02*
X0152623Y0025385D01*
X0152735Y0025884D02*
X0181733Y0025884D01*
X0181650Y0026382D02*
X0152800Y0026382D01*
X0152800Y0026900D02*
X0152800Y0027008D01*
X0152688Y0027715D01*
X0152467Y0028397D01*
X0152141Y0029035D01*
X0151721Y0029614D01*
X0151214Y0030121D01*
X0150635Y0030541D01*
X0149997Y0030867D01*
X0149315Y0031088D01*
X0148608Y0031200D01*
X0148500Y0031200D01*
X0148500Y0026900D01*
X0152800Y0026900D01*
X0152741Y0027379D02*
X0181437Y0027379D01*
X0181650Y0026881D02*
X0148500Y0026881D01*
X0148500Y0027379D02*
X0148000Y0027379D01*
X0148000Y0026881D02*
X0142400Y0026881D01*
X0142400Y0027379D02*
X0143759Y0027379D01*
X0143865Y0027878D02*
X0142233Y0027878D01*
X0142400Y0027475D02*
X0141768Y0029001D01*
X0140601Y0030168D01*
X0139075Y0030800D01*
X0137425Y0030800D01*
X0135899Y0030168D01*
X0134732Y0029001D01*
X0134100Y0027475D01*
X0134100Y0025825D01*
X0134732Y0024299D01*
X0135899Y0023132D01*
X0137425Y0022500D01*
X0139075Y0022500D01*
X0140601Y0023132D01*
X0141768Y0024299D01*
X0142400Y0025825D01*
X0142400Y0027475D01*
X0142027Y0028376D02*
X0144027Y0028376D01*
X0144277Y0028875D02*
X0141820Y0028875D01*
X0141396Y0029373D02*
X0144604Y0029373D01*
X0145037Y0029872D02*
X0140897Y0029872D01*
X0140113Y0030370D02*
X0145630Y0030370D01*
X0146510Y0030869D02*
X0100660Y0030869D01*
X0100609Y0030370D02*
X0102637Y0030370D01*
X0101853Y0029872D02*
X0101107Y0029872D01*
X0101158Y0031367D02*
X0153074Y0031367D01*
X0152576Y0031866D02*
X0101422Y0031866D01*
X0101422Y0032364D02*
X0152077Y0032364D01*
X0151579Y0032863D02*
X0101422Y0032863D01*
X0101194Y0033361D02*
X0151080Y0033361D01*
X0150582Y0033860D02*
X0100696Y0033860D01*
X0099950Y0034358D02*
X0150083Y0034358D01*
X0149585Y0034857D02*
X0099950Y0034857D01*
X0099950Y0035355D02*
X0149086Y0035355D01*
X0148588Y0035854D02*
X0099950Y0035854D01*
X0099950Y0036352D02*
X0122255Y0036352D01*
X0121756Y0036851D02*
X0099950Y0036851D01*
X0099950Y0037349D02*
X0121459Y0037349D01*
X0121459Y0037848D02*
X0099950Y0037848D01*
X0099950Y0038346D02*
X0121459Y0038346D01*
X0121652Y0038845D02*
X0099950Y0038845D01*
X0099950Y0039343D02*
X0122151Y0039343D01*
X0124396Y0039343D02*
X0143527Y0039343D01*
X0144026Y0039842D02*
X0099950Y0039842D01*
X0099950Y0040340D02*
X0144524Y0040340D01*
X0144784Y0040839D02*
X0099950Y0040839D01*
X0099950Y0041337D02*
X0144784Y0041337D01*
X0144784Y0041836D02*
X0099950Y0041836D01*
X0099950Y0042334D02*
X0144784Y0042334D01*
X0144784Y0042833D02*
X0100266Y0042833D01*
X0100764Y0043332D02*
X0144784Y0043332D01*
X0144784Y0043830D02*
X0124217Y0043830D01*
X0123972Y0043585D02*
X0124678Y0044291D01*
X0124998Y0043971D01*
X0126502Y0043971D01*
X0127565Y0045034D01*
X0127565Y0046537D01*
X0126502Y0047600D01*
X0125703Y0047600D01*
X0123036Y0050267D01*
X0123132Y0050363D01*
X0123132Y0051866D01*
X0122069Y0052929D01*
X0120566Y0052929D01*
X0120053Y0052416D01*
X0119540Y0052929D01*
X0118037Y0052929D01*
X0116974Y0051866D01*
X0116974Y0050363D01*
X0117625Y0049712D01*
X0117625Y0049228D01*
X0121406Y0045447D01*
X0121406Y0044648D01*
X0122469Y0043585D01*
X0123972Y0043585D01*
X0122225Y0043830D02*
X0101263Y0043830D01*
X0101761Y0044329D02*
X0121726Y0044329D01*
X0121406Y0044827D02*
X0102260Y0044827D01*
X0102758Y0045326D02*
X0121406Y0045326D01*
X0121029Y0045824D02*
X0103257Y0045824D01*
X0103755Y0046323D02*
X0120530Y0046323D01*
X0120032Y0046821D02*
X0104254Y0046821D01*
X0104752Y0047320D02*
X0119533Y0047320D01*
X0119035Y0047818D02*
X0105251Y0047818D01*
X0105749Y0048317D02*
X0118536Y0048317D01*
X0118038Y0048815D02*
X0106248Y0048815D01*
X0106746Y0049314D02*
X0117625Y0049314D01*
X0117524Y0049812D02*
X0107245Y0049812D01*
X0107743Y0050311D02*
X0117026Y0050311D01*
X0116974Y0050809D02*
X0108242Y0050809D01*
X0108740Y0051308D02*
X0116974Y0051308D01*
X0116974Y0051806D02*
X0109239Y0051806D01*
X0109737Y0052305D02*
X0117412Y0052305D01*
X0117911Y0052803D02*
X0110236Y0052803D01*
X0110734Y0053302D02*
X0144784Y0053302D01*
X0144784Y0053800D02*
X0111233Y0053800D01*
X0111731Y0054299D02*
X0144784Y0054299D01*
X0144784Y0054797D02*
X0112230Y0054797D01*
X0112728Y0055296D02*
X0144784Y0055296D01*
X0144784Y0055794D02*
X0113227Y0055794D01*
X0113725Y0056293D02*
X0144784Y0056293D01*
X0144784Y0056791D02*
X0114224Y0056791D01*
X0119666Y0052803D02*
X0120440Y0052803D01*
X0122195Y0052803D02*
X0144784Y0052803D01*
X0144784Y0052305D02*
X0122693Y0052305D01*
X0123132Y0051806D02*
X0144784Y0051806D01*
X0144784Y0051308D02*
X0123132Y0051308D01*
X0123132Y0050809D02*
X0144784Y0050809D01*
X0144784Y0050311D02*
X0123080Y0050311D01*
X0123491Y0049812D02*
X0144784Y0049812D01*
X0144784Y0049314D02*
X0123990Y0049314D01*
X0124488Y0048815D02*
X0144784Y0048815D01*
X0144784Y0048317D02*
X0124987Y0048317D01*
X0125485Y0047818D02*
X0144784Y0047818D01*
X0144784Y0047320D02*
X0126782Y0047320D01*
X0127280Y0046821D02*
X0144784Y0046821D01*
X0144784Y0046323D02*
X0127565Y0046323D01*
X0127565Y0045824D02*
X0144784Y0045824D01*
X0144784Y0045326D02*
X0127565Y0045326D01*
X0127358Y0044827D02*
X0144784Y0044827D01*
X0144784Y0044329D02*
X0126859Y0044329D01*
X0124292Y0036352D02*
X0148089Y0036352D01*
X0147591Y0036851D02*
X0144853Y0036851D01*
X0145352Y0037349D02*
X0147092Y0037349D01*
X0146594Y0037848D02*
X0145850Y0037848D01*
X0149765Y0039343D02*
X0169801Y0039343D01*
X0169302Y0038845D02*
X0150264Y0038845D01*
X0150762Y0038346D02*
X0162364Y0038346D01*
X0161866Y0037848D02*
X0151261Y0037848D01*
X0151759Y0037349D02*
X0161582Y0037349D01*
X0161582Y0036851D02*
X0152258Y0036851D01*
X0152756Y0036352D02*
X0161582Y0036352D01*
X0161789Y0035854D02*
X0153255Y0035854D01*
X0153753Y0035355D02*
X0162288Y0035355D01*
X0164506Y0035355D02*
X0183250Y0035355D01*
X0183250Y0034857D02*
X0154252Y0034857D01*
X0154750Y0034358D02*
X0183250Y0034358D01*
X0182679Y0033860D02*
X0155249Y0033860D01*
X0153573Y0030869D02*
X0149990Y0030869D01*
X0150870Y0030370D02*
X0154071Y0030370D01*
X0152223Y0028875D02*
X0179942Y0028875D01*
X0179443Y0029373D02*
X0151896Y0029373D01*
X0151463Y0029872D02*
X0178945Y0029872D01*
X0180440Y0028376D02*
X0152473Y0028376D01*
X0152635Y0027878D02*
X0180939Y0027878D01*
X0181618Y0031866D02*
X0181650Y0031866D01*
X0181711Y0032364D02*
X0181119Y0032364D01*
X0180887Y0032596D02*
X0180887Y0032596D01*
X0180621Y0032863D02*
X0181918Y0032863D01*
X0182181Y0033361D02*
X0180122Y0033361D01*
X0183250Y0035854D02*
X0165004Y0035854D01*
X0170345Y0036352D02*
X0183250Y0036352D01*
X0183250Y0036851D02*
X0170844Y0036851D01*
X0171342Y0037349D02*
X0183250Y0037349D01*
X0183250Y0037848D02*
X0171841Y0037848D01*
X0172339Y0038346D02*
X0183250Y0038346D01*
X0183250Y0038845D02*
X0172838Y0038845D01*
X0173336Y0039343D02*
X0183080Y0039343D01*
X0182685Y0039842D02*
X0173835Y0039842D01*
X0174333Y0040340D02*
X0182685Y0040340D01*
X0182685Y0040839D02*
X0174832Y0040839D01*
X0175330Y0041337D02*
X0182782Y0041337D01*
X0182546Y0041836D02*
X0175829Y0041836D01*
X0176327Y0042334D02*
X0182048Y0042334D01*
X0180751Y0042833D02*
X0176826Y0042833D01*
X0175284Y0044827D02*
X0170695Y0044827D01*
X0171193Y0045326D02*
X0175783Y0045326D01*
X0174786Y0044329D02*
X0170196Y0044329D01*
X0169698Y0043830D02*
X0174287Y0043830D01*
X0173789Y0043332D02*
X0168748Y0043332D01*
X0166502Y0043332D02*
X0152795Y0043332D01*
X0153294Y0042833D02*
X0173290Y0042833D01*
X0172792Y0042334D02*
X0153792Y0042334D01*
X0153815Y0041836D02*
X0172293Y0041836D01*
X0171795Y0041337D02*
X0153815Y0041337D01*
X0153815Y0040839D02*
X0171296Y0040839D01*
X0170798Y0040340D02*
X0153346Y0040340D01*
X0152848Y0039842D02*
X0170299Y0039842D01*
X0166004Y0043830D02*
X0151588Y0043830D01*
X0151525Y0044329D02*
X0165810Y0044329D01*
X0165810Y0044827D02*
X0151525Y0044827D01*
X0151525Y0045326D02*
X0165810Y0045326D01*
X0166108Y0045824D02*
X0151525Y0045824D01*
X0151525Y0046323D02*
X0166409Y0046323D01*
X0165911Y0046821D02*
X0151525Y0046821D01*
X0151525Y0047320D02*
X0165810Y0047320D01*
X0165810Y0047818D02*
X0151525Y0047818D01*
X0151525Y0048317D02*
X0165810Y0048317D01*
X0166201Y0048815D02*
X0151525Y0048815D01*
X0151525Y0049314D02*
X0166032Y0049314D01*
X0165895Y0049812D02*
X0151525Y0049812D01*
X0151525Y0050311D02*
X0165895Y0050311D01*
X0165895Y0050809D02*
X0151525Y0050809D01*
X0151525Y0051308D02*
X0166249Y0051308D01*
X0166748Y0051806D02*
X0151525Y0051806D01*
X0151525Y0052305D02*
X0167762Y0052305D01*
X0168260Y0052803D02*
X0151525Y0052803D01*
X0151525Y0053302D02*
X0170461Y0053302D01*
X0170959Y0053800D02*
X0151525Y0053800D01*
X0144784Y0057290D02*
X0124202Y0057290D01*
X0124701Y0057788D02*
X0144784Y0057788D01*
X0144784Y0058287D02*
X0125199Y0058287D01*
X0125698Y0058785D02*
X0144784Y0058785D01*
X0144619Y0059284D02*
X0126196Y0059284D01*
X0126695Y0059782D02*
X0130572Y0059782D01*
X0133707Y0059782D02*
X0144619Y0059782D01*
X0144619Y0060281D02*
X0134205Y0060281D01*
X0135739Y0060779D02*
X0144784Y0060779D01*
X0144784Y0061278D02*
X0136237Y0061278D01*
X0136483Y0061776D02*
X0144784Y0061776D01*
X0144784Y0062275D02*
X0136483Y0062275D01*
X0136483Y0062773D02*
X0144784Y0062773D01*
X0144784Y0063272D02*
X0136238Y0063272D01*
X0135739Y0063770D02*
X0144421Y0063770D01*
X0143923Y0064269D02*
X0133197Y0064269D01*
X0132478Y0064768D02*
X0143424Y0064768D01*
X0142926Y0065266D02*
X0132478Y0065266D01*
X0132327Y0065765D02*
X0142427Y0065765D01*
X0141928Y0066263D02*
X0131828Y0066263D01*
X0130690Y0066762D02*
X0141430Y0066762D01*
X0140931Y0067260D02*
X0130690Y0067260D01*
X0130333Y0067759D02*
X0140433Y0067759D01*
X0139934Y0068257D02*
X0129834Y0068257D01*
X0127916Y0068257D02*
X0127334Y0068257D01*
X0126836Y0068756D02*
X0139436Y0068756D01*
X0138937Y0069254D02*
X0126454Y0069254D01*
X0126454Y0069753D02*
X0138439Y0069753D01*
X0137940Y0070251D02*
X0126454Y0070251D01*
X0126092Y0070750D02*
X0137442Y0070750D01*
X0136943Y0071248D02*
X0125593Y0071248D01*
X0123685Y0071248D02*
X0123093Y0071248D01*
X0120907Y0071248D02*
X0029800Y0071248D01*
X0029800Y0070750D02*
X0120408Y0070750D01*
X0120185Y0070251D02*
X0104647Y0070251D01*
X0105145Y0069753D02*
X0120185Y0069753D01*
X0120185Y0069254D02*
X0105644Y0069254D01*
X0106142Y0068756D02*
X0107789Y0068756D01*
X0109961Y0068756D02*
X0120011Y0068756D01*
X0119513Y0068257D02*
X0110911Y0068257D01*
X0107438Y0071747D02*
X0136684Y0071747D01*
X0136684Y0072245D02*
X0107936Y0072245D01*
X0108190Y0072744D02*
X0136684Y0072744D01*
X0136684Y0073242D02*
X0108190Y0073242D01*
X0108190Y0073741D02*
X0136684Y0073741D01*
X0136684Y0074239D02*
X0107952Y0074239D01*
X0107453Y0074738D02*
X0136684Y0074738D01*
X0136684Y0075236D02*
X0106157Y0075236D01*
X0105658Y0075735D02*
X0136684Y0075735D01*
X0136684Y0076233D02*
X0105159Y0076233D01*
X0104661Y0076732D02*
X0136684Y0076732D01*
X0136684Y0077230D02*
X0104162Y0077230D01*
X0103664Y0077729D02*
X0136684Y0077729D01*
X0136684Y0078227D02*
X0103165Y0078227D01*
X0102775Y0078726D02*
X0136684Y0078726D01*
X0136684Y0079224D02*
X0102775Y0079224D01*
X0102775Y0079723D02*
X0136684Y0079723D01*
X0136684Y0080221D02*
X0102775Y0080221D01*
X0102775Y0080720D02*
X0136684Y0080720D01*
X0136684Y0081218D02*
X0102775Y0081218D01*
X0102775Y0081717D02*
X0136684Y0081717D01*
X0136684Y0082215D02*
X0102775Y0082215D01*
X0102775Y0082714D02*
X0136684Y0082714D01*
X0136684Y0083212D02*
X0102775Y0083212D01*
X0102775Y0083711D02*
X0136684Y0083711D01*
X0136684Y0084209D02*
X0102458Y0084209D01*
X0101960Y0084708D02*
X0136684Y0084708D01*
X0136684Y0085206D02*
X0101461Y0085206D01*
X0100963Y0085705D02*
X0136684Y0085705D01*
X0136684Y0086203D02*
X0100464Y0086203D01*
X0099966Y0086702D02*
X0136684Y0086702D01*
X0136684Y0087201D02*
X0099467Y0087201D01*
X0098969Y0087699D02*
X0136684Y0087699D01*
X0136684Y0088198D02*
X0098470Y0088198D01*
X0097972Y0088696D02*
X0136684Y0088696D01*
X0136684Y0089195D02*
X0097473Y0089195D01*
X0096975Y0089693D02*
X0136684Y0089693D01*
X0136684Y0090192D02*
X0096476Y0090192D01*
X0096375Y0090690D02*
X0136684Y0090690D01*
X0136684Y0091189D02*
X0096375Y0091189D01*
X0096375Y0091687D02*
X0136684Y0091687D01*
X0136684Y0092186D02*
X0096375Y0092186D01*
X0096375Y0092684D02*
X0136684Y0092684D01*
X0136684Y0093183D02*
X0096375Y0093183D01*
X0096375Y0093681D02*
X0136684Y0093681D01*
X0136684Y0094180D02*
X0098781Y0094180D01*
X0096469Y0094180D02*
X0096375Y0094180D01*
X0091075Y0094180D02*
X0078346Y0094180D01*
X0078815Y0094648D02*
X0078815Y0096152D01*
X0077752Y0097215D01*
X0076248Y0097215D01*
X0075684Y0096650D01*
X0057066Y0096650D01*
X0056502Y0097215D01*
X0054998Y0097215D01*
X0053935Y0096152D01*
X0053935Y0094648D01*
X0054998Y0093585D01*
X0056502Y0093585D01*
X0057066Y0094150D01*
X0075684Y0094150D01*
X0076248Y0093585D01*
X0077752Y0093585D01*
X0078815Y0094648D01*
X0078815Y0094678D02*
X0091075Y0094678D01*
X0091075Y0095177D02*
X0078815Y0095177D01*
X0078815Y0095675D02*
X0091075Y0095675D01*
X0091075Y0096174D02*
X0078792Y0096174D01*
X0078294Y0096672D02*
X0091075Y0096672D01*
X0091075Y0097171D02*
X0077795Y0097171D01*
X0076205Y0097171D02*
X0056545Y0097171D01*
X0057044Y0096672D02*
X0075706Y0096672D01*
X0076153Y0093681D02*
X0056597Y0093681D01*
X0054903Y0093681D02*
X0029800Y0093681D01*
X0029800Y0093183D02*
X0091075Y0093183D01*
X0091075Y0093681D02*
X0077847Y0093681D01*
X0091075Y0092684D02*
X0029800Y0092684D01*
X0029800Y0092186D02*
X0091075Y0092186D01*
X0091075Y0091687D02*
X0029800Y0091687D01*
X0029800Y0091189D02*
X0091075Y0091189D01*
X0091075Y0090690D02*
X0029800Y0090690D01*
X0029800Y0090192D02*
X0091075Y0090192D01*
X0091075Y0089693D02*
X0029800Y0089693D01*
X0029800Y0089195D02*
X0091075Y0089195D01*
X0091075Y0088696D02*
X0029800Y0088696D01*
X0029800Y0088198D02*
X0091075Y0088198D01*
X0091473Y0087699D02*
X0029800Y0087699D01*
X0029800Y0087201D02*
X0091972Y0087201D01*
X0092470Y0086702D02*
X0029800Y0086702D01*
X0029800Y0086203D02*
X0092969Y0086203D01*
X0093467Y0085705D02*
X0029800Y0085705D01*
X0029800Y0085206D02*
X0093966Y0085206D01*
X0094464Y0084708D02*
X0029800Y0084708D01*
X0029800Y0084209D02*
X0094963Y0084209D01*
X0095461Y0083711D02*
X0029800Y0083711D01*
X0029800Y0083212D02*
X0095960Y0083212D01*
X0096458Y0082714D02*
X0029800Y0082714D01*
X0029800Y0082215D02*
X0096957Y0082215D01*
X0097455Y0081717D02*
X0029800Y0081717D01*
X0029800Y0081218D02*
X0097475Y0081218D01*
X0097475Y0080720D02*
X0029800Y0080720D01*
X0029800Y0080221D02*
X0097475Y0080221D01*
X0097475Y0079723D02*
X0029800Y0079723D01*
X0029800Y0079224D02*
X0097475Y0079224D01*
X0097475Y0078726D02*
X0029800Y0078726D01*
X0029800Y0078227D02*
X0097085Y0078227D01*
X0096586Y0077729D02*
X0029800Y0077729D01*
X0029800Y0077230D02*
X0096088Y0077230D01*
X0095589Y0076732D02*
X0029800Y0076732D01*
X0029800Y0076233D02*
X0095091Y0076233D01*
X0094592Y0075735D02*
X0029800Y0075735D01*
X0029800Y0075236D02*
X0094093Y0075236D01*
X0092797Y0074738D02*
X0029800Y0074738D01*
X0029800Y0074239D02*
X0092298Y0074239D01*
X0092060Y0073741D02*
X0029800Y0073741D01*
X0029800Y0073242D02*
X0092060Y0073242D01*
X0092060Y0072744D02*
X0029800Y0072744D01*
X0029800Y0072245D02*
X0092314Y0072245D01*
X0092812Y0071747D02*
X0029800Y0071747D01*
X0029800Y0070251D02*
X0081055Y0070251D01*
X0080557Y0069753D02*
X0029800Y0069753D01*
X0029800Y0069254D02*
X0080058Y0069254D01*
X0079560Y0068756D02*
X0029800Y0068756D01*
X0029800Y0068257D02*
X0074791Y0068257D01*
X0074292Y0067759D02*
X0029800Y0067759D01*
X0029800Y0067260D02*
X0073935Y0067260D01*
X0073935Y0066762D02*
X0029800Y0066762D01*
X0029800Y0066263D02*
X0073935Y0066263D01*
X0074069Y0065765D02*
X0029800Y0065765D01*
X0029800Y0065266D02*
X0074568Y0065266D01*
X0076932Y0065266D02*
X0080818Y0065266D01*
X0080319Y0065765D02*
X0077431Y0065765D01*
X0083182Y0065266D02*
X0086435Y0065266D01*
X0086435Y0065765D02*
X0083681Y0065765D01*
X0083815Y0066263D02*
X0086435Y0066263D01*
X0086852Y0064768D02*
X0029800Y0064768D01*
X0029800Y0064269D02*
X0087350Y0064269D01*
X0089150Y0064269D02*
X0103133Y0064269D01*
X0102635Y0064768D02*
X0089648Y0064768D01*
X0094938Y0071747D02*
X0099062Y0071747D01*
X0098564Y0072245D02*
X0095436Y0072245D01*
X0095690Y0072744D02*
X0098310Y0072744D01*
X0098310Y0073242D02*
X0095690Y0073242D01*
X0096133Y0073741D02*
X0098310Y0073741D01*
X0098548Y0074239D02*
X0096632Y0074239D01*
X0097130Y0074738D02*
X0098875Y0074738D01*
X0098875Y0075236D02*
X0097629Y0075236D01*
X0098128Y0075735D02*
X0098875Y0075735D01*
X0098875Y0076233D02*
X0098626Y0076233D01*
X0101375Y0076233D02*
X0101624Y0076233D01*
X0101375Y0075735D02*
X0102122Y0075735D01*
X0102621Y0075236D02*
X0101375Y0075236D01*
X0101375Y0074738D02*
X0103119Y0074738D01*
X0103618Y0074239D02*
X0101702Y0074239D01*
X0101940Y0073741D02*
X0104117Y0073741D01*
X0104560Y0073242D02*
X0101940Y0073242D01*
X0101940Y0072744D02*
X0104560Y0072744D01*
X0104814Y0072245D02*
X0101686Y0072245D01*
X0101188Y0071747D02*
X0105312Y0071747D01*
X0103632Y0063770D02*
X0029800Y0063770D01*
X0029800Y0063272D02*
X0104130Y0063272D01*
X0104629Y0062773D02*
X0029800Y0062773D01*
X0029800Y0062275D02*
X0105127Y0062275D01*
X0105626Y0061776D02*
X0029800Y0061776D01*
X0029800Y0061278D02*
X0107248Y0061278D01*
X0107746Y0060779D02*
X0029800Y0060779D01*
X0029800Y0060281D02*
X0108238Y0060281D01*
X0107740Y0059782D02*
X0029800Y0059782D01*
X0029800Y0059284D02*
X0107241Y0059284D01*
X0106743Y0058785D02*
X0029800Y0058785D01*
X0029800Y0058287D02*
X0106244Y0058287D01*
X0105746Y0057788D02*
X0029800Y0057788D01*
X0029800Y0057290D02*
X0105247Y0057290D01*
X0104749Y0056791D02*
X0029800Y0056791D01*
X0029800Y0056293D02*
X0104250Y0056293D01*
X0103752Y0055794D02*
X0029800Y0055794D01*
X0029800Y0055296D02*
X0103253Y0055296D01*
X0102755Y0054797D02*
X0029800Y0054797D01*
X0029800Y0054299D02*
X0102256Y0054299D01*
X0101758Y0053800D02*
X0029800Y0053800D01*
X0029800Y0053302D02*
X0101259Y0053302D01*
X0100760Y0052803D02*
X0064127Y0052803D01*
X0064002Y0052929D02*
X0062498Y0052929D01*
X0061435Y0051866D01*
X0061435Y0050363D01*
X0062000Y0049798D01*
X0062000Y0048543D01*
X0062732Y0047810D01*
X0063310Y0047232D01*
X0063310Y0046434D01*
X0064373Y0045371D01*
X0065877Y0045371D01*
X0066940Y0046434D01*
X0066940Y0047937D01*
X0065877Y0049000D01*
X0065078Y0049000D01*
X0064500Y0049578D01*
X0064500Y0049798D01*
X0065065Y0050363D01*
X0065065Y0051866D01*
X0064002Y0052929D01*
X0064626Y0052305D02*
X0100262Y0052305D01*
X0099763Y0051806D02*
X0065065Y0051806D01*
X0065065Y0051308D02*
X0099265Y0051308D01*
X0098766Y0050809D02*
X0065065Y0050809D01*
X0065012Y0050311D02*
X0098268Y0050311D01*
X0097769Y0049812D02*
X0064514Y0049812D01*
X0064765Y0049314D02*
X0097271Y0049314D01*
X0096772Y0048815D02*
X0066061Y0048815D01*
X0066560Y0048317D02*
X0096274Y0048317D01*
X0095775Y0047818D02*
X0066940Y0047818D01*
X0066940Y0047320D02*
X0095277Y0047320D01*
X0094778Y0046821D02*
X0066940Y0046821D01*
X0066828Y0046323D02*
X0094280Y0046323D01*
X0093781Y0045824D02*
X0066330Y0045824D01*
X0063920Y0045824D02*
X0029800Y0045824D01*
X0029800Y0045326D02*
X0093283Y0045326D01*
X0093250Y0044827D02*
X0029800Y0044827D01*
X0029800Y0044329D02*
X0093250Y0044329D01*
X0093250Y0043830D02*
X0029800Y0043830D01*
X0029800Y0043332D02*
X0093250Y0043332D01*
X0093250Y0042833D02*
X0029800Y0042833D01*
X0029800Y0042334D02*
X0093250Y0042334D01*
X0093250Y0041836D02*
X0029800Y0041836D01*
X0029800Y0041337D02*
X0093250Y0041337D01*
X0093250Y0040839D02*
X0029800Y0040839D01*
X0029800Y0040340D02*
X0093250Y0040340D01*
X0093250Y0039842D02*
X0029800Y0039842D01*
X0029800Y0039343D02*
X0093250Y0039343D01*
X0093250Y0038845D02*
X0029800Y0038845D01*
X0029800Y0038346D02*
X0093250Y0038346D01*
X0093250Y0037848D02*
X0029800Y0037848D01*
X0029800Y0037349D02*
X0093250Y0037349D01*
X0093250Y0036851D02*
X0029800Y0036851D01*
X0029800Y0036352D02*
X0093250Y0036352D01*
X0093250Y0035854D02*
X0029800Y0035854D01*
X0029800Y0035355D02*
X0093250Y0035355D01*
X0093250Y0034857D02*
X0029800Y0034857D01*
X0029800Y0034358D02*
X0093250Y0034358D01*
X0093250Y0033860D02*
X0029800Y0033860D01*
X0029800Y0033361D02*
X0093250Y0033361D01*
X0093250Y0032863D02*
X0029800Y0032863D01*
X0029800Y0032364D02*
X0093250Y0032364D01*
X0093250Y0031866D02*
X0029800Y0031866D01*
X0029800Y0031367D02*
X0093250Y0031367D01*
X0093250Y0030869D02*
X0029800Y0030869D01*
X0029800Y0030370D02*
X0072637Y0030370D01*
X0072149Y0030168D02*
X0070982Y0029001D01*
X0070350Y0027475D01*
X0070350Y0025825D01*
X0070982Y0024299D01*
X0072149Y0023132D01*
X0073675Y0022500D01*
X0075325Y0022500D01*
X0076851Y0023132D01*
X0078018Y0024299D01*
X0078650Y0025825D01*
X0078650Y0027475D01*
X0078018Y0029001D01*
X0076851Y0030168D01*
X0075325Y0030800D01*
X0073675Y0030800D01*
X0072149Y0030168D01*
X0071853Y0029872D02*
X0029800Y0029872D01*
X0029800Y0029373D02*
X0071354Y0029373D01*
X0070930Y0028875D02*
X0029800Y0028875D01*
X0029800Y0028376D02*
X0070723Y0028376D01*
X0070517Y0027878D02*
X0029800Y0027878D01*
X0029800Y0027379D02*
X0070350Y0027379D01*
X0070350Y0026881D02*
X0029800Y0026881D01*
X0029800Y0026382D02*
X0070350Y0026382D01*
X0070350Y0025884D02*
X0029800Y0025884D01*
X0029800Y0025385D02*
X0070532Y0025385D01*
X0070738Y0024887D02*
X0029800Y0024887D01*
X0029800Y0024388D02*
X0070945Y0024388D01*
X0071391Y0023890D02*
X0029800Y0023890D01*
X0029800Y0023391D02*
X0071890Y0023391D01*
X0072727Y0022893D02*
X0029800Y0022893D01*
X0029800Y0022394D02*
X0090907Y0022394D01*
X0090409Y0022893D02*
X0086273Y0022893D01*
X0087110Y0023391D02*
X0089910Y0023391D01*
X0089412Y0023890D02*
X0087609Y0023890D01*
X0088055Y0024388D02*
X0088913Y0024388D01*
X0088414Y0024887D02*
X0088261Y0024887D01*
X0089956Y0026881D02*
X0090350Y0026881D01*
X0090350Y0027379D02*
X0089457Y0027379D01*
X0088959Y0027878D02*
X0090517Y0027878D01*
X0090723Y0028376D02*
X0088277Y0028376D01*
X0088070Y0028875D02*
X0090930Y0028875D01*
X0091354Y0029373D02*
X0087646Y0029373D01*
X0087147Y0029872D02*
X0091853Y0029872D01*
X0092637Y0030370D02*
X0086363Y0030370D01*
X0082637Y0030370D02*
X0076363Y0030370D01*
X0077147Y0029872D02*
X0081853Y0029872D01*
X0081354Y0029373D02*
X0077646Y0029373D01*
X0078070Y0028875D02*
X0080930Y0028875D01*
X0080723Y0028376D02*
X0078277Y0028376D01*
X0078483Y0027878D02*
X0080517Y0027878D01*
X0080350Y0027379D02*
X0078650Y0027379D01*
X0078650Y0026881D02*
X0080350Y0026881D01*
X0080350Y0026382D02*
X0078650Y0026382D01*
X0078650Y0025884D02*
X0080350Y0025884D01*
X0080532Y0025385D02*
X0078468Y0025385D01*
X0078261Y0024887D02*
X0080738Y0024887D01*
X0080945Y0024388D02*
X0078055Y0024388D01*
X0077609Y0023890D02*
X0081391Y0023890D01*
X0081890Y0023391D02*
X0077110Y0023391D01*
X0076273Y0022893D02*
X0082727Y0022893D01*
X0098093Y0022394D02*
X0146624Y0022394D01*
X0145681Y0022893D02*
X0140023Y0022893D01*
X0140860Y0023391D02*
X0145074Y0023391D01*
X0144631Y0023890D02*
X0141359Y0023890D01*
X0141805Y0024388D02*
X0144296Y0024388D01*
X0144042Y0024887D02*
X0142011Y0024887D01*
X0142218Y0025385D02*
X0143877Y0025385D01*
X0143765Y0025884D02*
X0142400Y0025884D01*
X0142400Y0026382D02*
X0143700Y0026382D01*
X0148000Y0026382D02*
X0148500Y0026382D01*
X0148500Y0025884D02*
X0148000Y0025884D01*
X0148000Y0025385D02*
X0148500Y0025385D01*
X0148500Y0024887D02*
X0148000Y0024887D01*
X0148000Y0024388D02*
X0148500Y0024388D01*
X0148500Y0023890D02*
X0148000Y0023890D01*
X0148000Y0023391D02*
X0148500Y0023391D01*
X0148500Y0022893D02*
X0148000Y0022893D01*
X0148000Y0022394D02*
X0148500Y0022394D01*
X0148500Y0027878D02*
X0148000Y0027878D01*
X0148000Y0028376D02*
X0148500Y0028376D01*
X0148500Y0028875D02*
X0148000Y0028875D01*
X0148000Y0029373D02*
X0148500Y0029373D01*
X0148500Y0029872D02*
X0148000Y0029872D01*
X0148000Y0030370D02*
X0148500Y0030370D01*
X0148500Y0030869D02*
X0148000Y0030869D01*
X0149723Y0039842D02*
X0151152Y0039842D01*
X0150654Y0040340D02*
X0150221Y0040340D01*
X0136387Y0030370D02*
X0130113Y0030370D01*
X0130601Y0030168D02*
X0129075Y0030800D01*
X0127425Y0030800D01*
X0125899Y0030168D01*
X0124732Y0029001D01*
X0124100Y0027475D01*
X0124100Y0025825D01*
X0124732Y0024299D01*
X0125899Y0023132D01*
X0127425Y0022500D01*
X0129075Y0022500D01*
X0130601Y0023132D01*
X0131768Y0024299D01*
X0132400Y0025825D01*
X0132400Y0027475D01*
X0131768Y0029001D01*
X0130601Y0030168D01*
X0130897Y0029872D02*
X0135603Y0029872D01*
X0135104Y0029373D02*
X0131396Y0029373D01*
X0131820Y0028875D02*
X0134680Y0028875D01*
X0134473Y0028376D02*
X0132027Y0028376D01*
X0132233Y0027878D02*
X0134267Y0027878D01*
X0134100Y0027379D02*
X0132400Y0027379D01*
X0132400Y0026881D02*
X0134100Y0026881D01*
X0134100Y0026382D02*
X0132400Y0026382D01*
X0132400Y0025884D02*
X0134100Y0025884D01*
X0134282Y0025385D02*
X0132218Y0025385D01*
X0132011Y0024887D02*
X0134488Y0024887D01*
X0134695Y0024388D02*
X0131805Y0024388D01*
X0131359Y0023890D02*
X0135141Y0023890D01*
X0135640Y0023391D02*
X0130860Y0023391D01*
X0130023Y0022893D02*
X0136477Y0022893D01*
X0126477Y0022893D02*
X0120023Y0022893D01*
X0120601Y0023132D02*
X0119075Y0022500D01*
X0117425Y0022500D01*
X0115899Y0023132D01*
X0114732Y0024299D01*
X0114100Y0025825D01*
X0114100Y0027475D01*
X0114732Y0029001D01*
X0115899Y0030168D01*
X0117425Y0030800D01*
X0119075Y0030800D01*
X0120601Y0030168D01*
X0121768Y0029001D01*
X0122400Y0027475D01*
X0122400Y0025825D01*
X0121768Y0024299D01*
X0120601Y0023132D01*
X0120860Y0023391D02*
X0125640Y0023391D01*
X0125141Y0023890D02*
X0121359Y0023890D01*
X0121805Y0024388D02*
X0124695Y0024388D01*
X0124488Y0024887D02*
X0122011Y0024887D01*
X0122218Y0025385D02*
X0124282Y0025385D01*
X0124100Y0025884D02*
X0122400Y0025884D01*
X0122400Y0026382D02*
X0124100Y0026382D01*
X0124100Y0026881D02*
X0122400Y0026881D01*
X0122400Y0027379D02*
X0124100Y0027379D01*
X0124267Y0027878D02*
X0122233Y0027878D01*
X0122027Y0028376D02*
X0124473Y0028376D01*
X0124680Y0028875D02*
X0121820Y0028875D01*
X0121396Y0029373D02*
X0125104Y0029373D01*
X0125603Y0029872D02*
X0120897Y0029872D01*
X0120113Y0030370D02*
X0126387Y0030370D01*
X0116387Y0030370D02*
X0106363Y0030370D01*
X0107147Y0029872D02*
X0115603Y0029872D01*
X0115104Y0029373D02*
X0107646Y0029373D01*
X0108070Y0028875D02*
X0114680Y0028875D01*
X0114473Y0028376D02*
X0108277Y0028376D01*
X0108483Y0027878D02*
X0114267Y0027878D01*
X0114100Y0027379D02*
X0108650Y0027379D01*
X0108650Y0026881D02*
X0114100Y0026881D01*
X0114100Y0026382D02*
X0108650Y0026382D01*
X0108650Y0025884D02*
X0114100Y0025884D01*
X0114282Y0025385D02*
X0108468Y0025385D01*
X0108261Y0024887D02*
X0114488Y0024887D01*
X0114695Y0024388D02*
X0108055Y0024388D01*
X0107609Y0023890D02*
X0115141Y0023890D01*
X0115640Y0023391D02*
X0107110Y0023391D01*
X0106273Y0022893D02*
X0116477Y0022893D01*
X0102727Y0022893D02*
X0098591Y0022893D01*
X0099090Y0023391D02*
X0101890Y0023391D01*
X0101391Y0023890D02*
X0099588Y0023890D01*
X0100050Y0024388D02*
X0100945Y0024388D01*
X0100738Y0024887D02*
X0100050Y0024887D01*
X0100050Y0025385D02*
X0100532Y0025385D01*
X0100350Y0025884D02*
X0100050Y0025884D01*
X0063422Y0046323D02*
X0029800Y0046323D01*
X0029800Y0046821D02*
X0063310Y0046821D01*
X0063223Y0047320D02*
X0029800Y0047320D01*
X0029800Y0047818D02*
X0062725Y0047818D01*
X0062226Y0048317D02*
X0029800Y0048317D01*
X0029800Y0048815D02*
X0062000Y0048815D01*
X0062000Y0049314D02*
X0029800Y0049314D01*
X0029800Y0049812D02*
X0061986Y0049812D01*
X0061488Y0050311D02*
X0029800Y0050311D01*
X0029800Y0050809D02*
X0061435Y0050809D01*
X0061435Y0051308D02*
X0029800Y0051308D01*
X0029800Y0051806D02*
X0061435Y0051806D01*
X0061874Y0052305D02*
X0029800Y0052305D01*
X0029800Y0052803D02*
X0062372Y0052803D01*
X0054404Y0094180D02*
X0029800Y0094180D01*
X0029800Y0094678D02*
X0053935Y0094678D01*
X0053935Y0095177D02*
X0029800Y0095177D01*
X0029800Y0095675D02*
X0053935Y0095675D01*
X0053958Y0096174D02*
X0029800Y0096174D01*
X0029800Y0096672D02*
X0054456Y0096672D01*
X0054955Y0097171D02*
X0029800Y0097171D01*
X0029800Y0097669D02*
X0091075Y0097669D01*
X0091075Y0098168D02*
X0029800Y0098168D01*
X0029800Y0098666D02*
X0091075Y0098666D01*
X0139990Y0096672D02*
X0178935Y0096672D01*
X0179100Y0096174D02*
X0140149Y0096174D01*
X0140149Y0095675D02*
X0179100Y0095675D01*
X0179100Y0095177D02*
X0140149Y0095177D01*
X0139984Y0094678D02*
X0179100Y0094678D01*
X0179100Y0094180D02*
X0139984Y0094180D01*
X0139984Y0093681D02*
X0179100Y0093681D01*
X0179100Y0093183D02*
X0139984Y0093183D01*
X0139984Y0092684D02*
X0179100Y0092684D01*
X0179100Y0092186D02*
X0139984Y0092186D01*
X0139984Y0091687D02*
X0179100Y0091687D01*
X0179100Y0091189D02*
X0139984Y0091189D01*
X0139984Y0090690D02*
X0179100Y0090690D01*
X0179100Y0090192D02*
X0139984Y0090192D01*
X0139984Y0088696D02*
X0152903Y0088696D01*
X0152405Y0088198D02*
X0139984Y0088198D01*
X0139984Y0087699D02*
X0151906Y0087699D01*
X0151408Y0087201D02*
X0139984Y0087201D01*
X0139984Y0086702D02*
X0150909Y0086702D01*
X0150411Y0086203D02*
X0139984Y0086203D01*
X0139984Y0085705D02*
X0149912Y0085705D01*
X0149414Y0085206D02*
X0139984Y0085206D01*
X0139984Y0084708D02*
X0148915Y0084708D01*
X0148417Y0084209D02*
X0139984Y0084209D01*
X0139984Y0083711D02*
X0147918Y0083711D01*
X0147625Y0083212D02*
X0139984Y0083212D01*
X0139984Y0082714D02*
X0147625Y0082714D01*
X0147625Y0082215D02*
X0139984Y0082215D01*
X0139984Y0081717D02*
X0147625Y0081717D01*
X0147625Y0081218D02*
X0139984Y0081218D01*
X0139984Y0080720D02*
X0147625Y0080720D01*
X0147625Y0080221D02*
X0139984Y0080221D01*
X0139984Y0079723D02*
X0147625Y0079723D01*
X0147625Y0079224D02*
X0139984Y0079224D01*
X0139984Y0078726D02*
X0147625Y0078726D01*
X0147625Y0078227D02*
X0139984Y0078227D01*
X0139984Y0077729D02*
X0147625Y0077729D01*
X0147625Y0077230D02*
X0139984Y0077230D01*
X0139984Y0076732D02*
X0147625Y0076732D01*
X0147625Y0076233D02*
X0139984Y0076233D01*
X0139984Y0075735D02*
X0147625Y0075735D01*
X0147625Y0075236D02*
X0139984Y0075236D01*
X0139984Y0074738D02*
X0147625Y0074738D01*
X0147625Y0074239D02*
X0139984Y0074239D01*
X0139984Y0073741D02*
X0147625Y0073741D01*
X0147625Y0073242D02*
X0139984Y0073242D01*
X0140115Y0072744D02*
X0147625Y0072744D01*
X0147625Y0072245D02*
X0140613Y0072245D01*
X0141112Y0071747D02*
X0147625Y0071747D01*
X0147625Y0071248D02*
X0141610Y0071248D01*
X0142109Y0070750D02*
X0147625Y0070750D01*
X0147625Y0070251D02*
X0142607Y0070251D01*
X0143106Y0069753D02*
X0147625Y0069753D01*
X0147625Y0069254D02*
X0143604Y0069254D01*
X0144103Y0068756D02*
X0147625Y0068756D01*
X0147625Y0068257D02*
X0144601Y0068257D01*
X0145100Y0067759D02*
X0147625Y0067759D01*
X0147625Y0067260D02*
X0145598Y0067260D01*
X0146097Y0066762D02*
X0147625Y0066762D01*
X0147625Y0066263D02*
X0146595Y0066263D01*
X0147094Y0065765D02*
X0147625Y0065765D01*
X0147625Y0065266D02*
X0147592Y0065266D01*
X0168354Y0084708D02*
X0168876Y0084708D01*
X0171692Y0045824D02*
X0181108Y0045824D01*
D17*
X0192200Y0044775D03*
X0200325Y0041650D03*
X0209700Y0041900D03*
X0209700Y0044900D03*
X0209700Y0047900D03*
X0209700Y0050900D03*
X0209700Y0053900D03*
X0209700Y0056900D03*
X0209700Y0059900D03*
X0209700Y0062900D03*
X0209700Y0065900D03*
X0206700Y0065900D03*
X0203700Y0065900D03*
X0200700Y0065900D03*
X0197700Y0065900D03*
X0194700Y0065900D03*
X0191700Y0065900D03*
X0188700Y0065900D03*
X0185700Y0065900D03*
X0182700Y0065900D03*
X0191575Y0056650D03*
X0200950Y0052275D03*
X0202825Y0059775D03*
X0216500Y0044800D03*
X0209700Y0038900D03*
X0209700Y0035900D03*
X0209700Y0032900D03*
X0209700Y0029900D03*
X0209700Y0026900D03*
X0209700Y0023900D03*
X0175325Y0026650D03*
X0176575Y0036025D03*
X0148450Y0034150D03*
X0142200Y0041025D03*
X0131575Y0041025D03*
X0130325Y0057900D03*
X0136575Y0057900D03*
X0122825Y0075400D03*
X0118450Y0087275D03*
X0114075Y0090400D03*
X0127825Y0089775D03*
X0141575Y0090400D03*
X0145325Y0079775D03*
X0154075Y0082900D03*
X0165950Y0092275D03*
X0165950Y0096025D03*
X0191700Y0077900D03*
X0194700Y0077900D03*
X0197700Y0077900D03*
X0206700Y0077900D03*
X0209700Y0077900D03*
X0209700Y0080900D03*
X0215700Y0083900D03*
X0218700Y0083900D03*
X0221700Y0083900D03*
X0224700Y0083900D03*
X0227700Y0083900D03*
X0230700Y0083900D03*
X0233700Y0083900D03*
X0236700Y0083900D03*
X0239700Y0083900D03*
X0237200Y0088525D03*
X0230325Y0092900D03*
X0227825Y0088525D03*
X0219700Y0091025D03*
X0133450Y0023525D03*
X0122825Y0023525D03*
X0111575Y0026025D03*
X0065325Y0039775D03*
X0046575Y0051650D03*
X0059700Y0059150D03*
X0054075Y0064150D03*
X0047200Y0075400D03*
X0061575Y0082900D03*
X0069700Y0086650D03*
X0072200Y0071025D03*
X0037825Y0092900D03*
X0032825Y0065400D03*
D18*
X0158388Y0063662D03*
X0165738Y0063662D03*
X0173087Y0063662D03*
X0173087Y0071013D03*
X0173087Y0077750D03*
X0165738Y0077750D03*
X0165738Y0071013D03*
X0158388Y0071013D03*
X0158388Y0077750D03*
D19*
X0167000Y0087900D03*
X0170125Y0086025D03*
X0180750Y0086591D03*
X0180750Y0097275D03*
X0195611Y0104289D03*
X0198250Y0104150D03*
X0202625Y0102275D03*
X0200750Y0109150D03*
X0194500Y0108615D03*
X0203250Y0116025D03*
X0207625Y0117275D03*
X0207625Y0123525D03*
X0211375Y0127275D03*
X0200611Y0125886D03*
X0200215Y0128525D03*
X0192000Y0134150D03*
X0198250Y0138525D03*
X0200215Y0141025D03*
X0195750Y0141025D03*
X0194885Y0144150D03*
X0202000Y0136650D03*
X0207625Y0137275D03*
X0191375Y0125400D03*
X0178875Y0128525D03*
X0179500Y0137900D03*
X0180750Y0146025D03*
X0172625Y0148525D03*
X0178875Y0152900D03*
X0170750Y0154775D03*
X0162625Y0157900D03*
X0162625Y0161025D03*
X0154500Y0162275D03*
X0146375Y0160400D03*
X0136375Y0158525D03*
X0133250Y0154150D03*
X0124500Y0154150D03*
X0124500Y0159554D03*
X0130750Y0166246D03*
X0115750Y0173525D03*
X0112000Y0166246D03*
X0112000Y0159150D03*
X0103250Y0151650D03*
X0097000Y0152275D03*
X0095750Y0149150D03*
X0090125Y0154775D03*
X0090125Y0157900D03*
X0090125Y0161025D03*
X0091375Y0166650D03*
X0085125Y0172900D03*
X0072000Y0166650D03*
X0081375Y0160400D03*
X0074475Y0151650D03*
X0071375Y0151650D03*
X0071375Y0146025D03*
X0070750Y0141650D03*
X0082000Y0132900D03*
X0084500Y0130400D03*
X0090125Y0127275D03*
X0090125Y0124775D03*
X0090125Y0122275D03*
X0095125Y0112275D03*
X0098875Y0110568D03*
X0098111Y0108039D03*
X0102625Y0104150D03*
X0112000Y0111054D03*
X0112625Y0108525D03*
X0122534Y0110319D03*
X0124500Y0115400D03*
X0129500Y0118525D03*
X0124500Y0120400D03*
X0133875Y0122900D03*
X0135750Y0127275D03*
X0133875Y0129150D03*
X0137000Y0131025D03*
X0145750Y0133525D03*
X0148250Y0129150D03*
X0137625Y0140400D03*
X0134500Y0140390D03*
X0118875Y0147275D03*
X0118875Y0150400D03*
X0113250Y0136650D03*
X0110750Y0132275D03*
X0112625Y0125400D03*
X0104500Y0122900D03*
X0094500Y0136025D03*
X0085125Y0137900D03*
X0085125Y0141025D03*
X0072000Y0126650D03*
X0071375Y0115400D03*
X0061375Y0114775D03*
X0062625Y0106650D03*
X0055750Y0095400D03*
X0042625Y0106025D03*
X0034500Y0115400D03*
X0077000Y0095400D03*
X0079500Y0103525D03*
X0097625Y0095590D03*
X0113875Y0099690D03*
X0116375Y0098290D03*
X0131482Y0105640D03*
X0130750Y0113525D03*
X0148250Y0106650D03*
X0158875Y0106025D03*
X0162625Y0108525D03*
X0160125Y0113525D03*
X0164500Y0115400D03*
X0168250Y0112275D03*
X0170125Y0115400D03*
X0138334Y0095762D03*
X0106375Y0073250D03*
X0100125Y0073250D03*
X0093875Y0073250D03*
X0088250Y0065935D03*
X0082000Y0066650D03*
X0075750Y0066650D03*
X0063250Y0051115D03*
X0065125Y0047185D03*
X0099607Y0032382D03*
X0123221Y0045400D03*
X0125750Y0045785D03*
X0121317Y0051115D03*
X0118788Y0051115D03*
X0108875Y0062217D03*
X0108875Y0064746D03*
X0108875Y0067275D03*
X0122000Y0069775D03*
X0124639Y0069636D03*
X0125803Y0067222D03*
X0128875Y0066650D03*
X0130663Y0064862D03*
X0132139Y0062761D03*
X0134668Y0062275D03*
X0146434Y0059775D03*
X0148875Y0041560D03*
X0152000Y0041560D03*
X0163397Y0036813D03*
X0158278Y0031912D03*
X0167625Y0044775D03*
X0167625Y0047673D03*
X0172000Y0047900D03*
X0174529Y0051650D03*
X0172000Y0052275D03*
X0167710Y0050202D03*
X0179500Y0055400D03*
X0182000Y0044150D03*
X0179500Y0041650D03*
X0184500Y0040490D03*
X0123273Y0037900D03*
X0212625Y0103525D03*
X0209500Y0106650D03*
X0224196Y0119762D03*
X0233250Y0112275D03*
X0242000Y0122900D03*
X0228250Y0144775D03*
X0209500Y0151650D03*
X0201375Y0159150D03*
X0203904Y0160135D03*
X0198250Y0159150D03*
X0195721Y0158525D03*
X0190125Y0163525D03*
X0195125Y0167275D03*
X0198250Y0165665D03*
X0200779Y0166650D03*
X0202744Y0168525D03*
X0202625Y0174775D03*
X0189500Y0169640D03*
X0184500Y0167275D03*
X0178250Y0162275D03*
X0177625Y0166650D03*
X0147625Y0174150D03*
X0226375Y0172275D03*
X0237000Y0167275D03*
X0238875Y0172900D03*
X0062000Y0174150D03*
X0045125Y0167900D03*
X0037625Y0158525D03*
D20*
X0101285Y0162185D02*
X0101285Y0150836D01*
X0101375Y0150747D01*
X0101375Y0108525D01*
X0095125Y0102275D01*
X0095125Y0089775D01*
X0101525Y0083375D01*
X0101525Y0078100D01*
X0106375Y0073250D01*
X0103830Y0069300D02*
X0105855Y0067275D01*
X0108875Y0067275D01*
X0110125Y0067275D01*
X0110690Y0066710D01*
X0119734Y0066710D01*
X0122000Y0068977D01*
X0122000Y0069775D01*
X0124639Y0069636D02*
X0120314Y0065310D01*
X0109440Y0065310D01*
X0108875Y0064746D01*
X0106404Y0064746D01*
X0103250Y0067900D01*
X0083250Y0067900D01*
X0082000Y0066650D01*
X0079847Y0067275D02*
X0076375Y0067275D01*
X0075750Y0066650D01*
X0079847Y0067275D02*
X0081872Y0069300D01*
X0103830Y0069300D01*
X0102670Y0066500D02*
X0088815Y0066500D01*
X0088250Y0065935D01*
X0093875Y0073250D02*
X0098725Y0078100D01*
X0098725Y0082215D01*
X0092325Y0088615D01*
X0092325Y0103435D01*
X0096146Y0107256D01*
X0096146Y0108921D01*
X0097793Y0110568D01*
X0098875Y0110568D01*
X0098111Y0108039D02*
X0097625Y0107553D01*
X0097625Y0106755D01*
X0093725Y0102855D01*
X0093725Y0089195D01*
X0100125Y0082795D01*
X0100125Y0073250D01*
X0102670Y0066500D02*
X0106389Y0062781D01*
X0108369Y0062781D01*
X0108875Y0062275D01*
X0108875Y0062217D01*
X0108875Y0062275D02*
X0109500Y0062275D01*
X0111135Y0063910D01*
X0121135Y0063910D01*
X0124447Y0067222D01*
X0125803Y0067222D01*
X0124463Y0065258D02*
X0127483Y0065258D01*
X0128875Y0066650D01*
X0129865Y0064862D02*
X0128861Y0063858D01*
X0125043Y0063858D01*
X0122210Y0061025D01*
X0112730Y0061025D01*
X0095900Y0044195D01*
X0095900Y0031331D01*
X0098800Y0028431D01*
X0098800Y0024869D01*
X0096281Y0022350D01*
X0092719Y0022350D01*
X0088419Y0026650D01*
X0084500Y0026650D01*
X0094500Y0026650D02*
X0094500Y0044775D01*
X0112235Y0062510D01*
X0121715Y0062510D01*
X0124463Y0065258D01*
X0125623Y0062458D02*
X0122790Y0059625D01*
X0113310Y0059625D01*
X0097300Y0043615D01*
X0097300Y0031911D01*
X0100200Y0029011D01*
X0100200Y0027900D01*
X0101450Y0026650D01*
X0104500Y0026650D01*
X0099500Y0032275D02*
X0099607Y0032382D01*
X0099500Y0032275D02*
X0099325Y0032275D01*
X0098700Y0032900D01*
X0098700Y0043035D01*
X0113890Y0058225D01*
X0123370Y0058225D01*
X0126203Y0061058D01*
X0130021Y0061058D01*
X0130324Y0061361D01*
X0130761Y0061361D01*
X0131325Y0060796D01*
X0132953Y0060796D01*
X0134432Y0062275D01*
X0134668Y0062275D01*
X0132139Y0062761D02*
X0129744Y0062761D01*
X0129441Y0062458D01*
X0125623Y0062458D01*
X0129865Y0064862D02*
X0130663Y0064862D01*
X0121317Y0051115D02*
X0121375Y0051057D01*
X0121375Y0050160D01*
X0125750Y0045785D01*
X0123221Y0045400D02*
X0118875Y0049746D01*
X0118875Y0051028D01*
X0118788Y0051115D01*
X0148875Y0041560D02*
X0148875Y0082900D01*
X0153875Y0087900D01*
X0167000Y0087900D01*
X0165923Y0086198D02*
X0154153Y0086198D01*
X0150275Y0082320D01*
X0150275Y0043375D01*
X0152000Y0041650D01*
X0152000Y0041560D01*
X0163397Y0036813D02*
X0163859Y0037275D01*
X0169500Y0037275D01*
X0176375Y0044150D01*
X0182000Y0044150D01*
X0183250Y0042900D01*
X0185750Y0042900D01*
X0187625Y0041025D01*
X0187625Y0033525D01*
X0189500Y0031650D01*
X0184500Y0031650D02*
X0184500Y0040490D01*
X0172000Y0047900D02*
X0168875Y0044775D01*
X0167625Y0044775D01*
X0167625Y0047673D02*
X0168190Y0048238D01*
X0168524Y0048238D01*
X0170536Y0050250D01*
X0173100Y0050250D01*
X0174500Y0051650D01*
X0174529Y0051650D01*
X0172000Y0052275D02*
X0171375Y0051650D01*
X0168875Y0051650D01*
X0167625Y0050400D01*
X0167625Y0050287D01*
X0167710Y0050202D01*
X0167814Y0085935D02*
X0166186Y0085935D01*
X0165923Y0086198D01*
X0167814Y0085935D02*
X0167903Y0086025D01*
X0170125Y0086025D01*
X0156850Y0100875D02*
X0126850Y0100875D01*
X0124265Y0098290D01*
X0116375Y0098290D01*
X0112625Y0108525D02*
X0120750Y0108525D01*
X0122625Y0110400D01*
X0122615Y0110400D01*
X0122534Y0110319D01*
X0124500Y0115400D02*
X0120125Y0115400D01*
X0115779Y0111054D01*
X0112000Y0111054D01*
X0124500Y0115400D02*
X0137625Y0102275D01*
X0155125Y0102275D01*
X0158875Y0106025D01*
X0162625Y0106650D02*
X0162625Y0108525D01*
X0162625Y0106650D02*
X0156850Y0100875D01*
X0138334Y0095762D02*
X0138166Y0095762D01*
X0137993Y0095590D01*
X0097625Y0095590D01*
X0077000Y0095400D02*
X0055750Y0095400D01*
X0063250Y0051115D02*
X0063250Y0049060D01*
X0065125Y0047185D01*
X0193785Y0140211D02*
X0194885Y0139111D01*
X0194885Y0137131D01*
X0195450Y0136567D01*
X0195450Y0109475D01*
X0194590Y0108615D01*
X0194500Y0108615D01*
X0196850Y0105528D02*
X0196850Y0137147D01*
X0196285Y0137711D01*
X0196285Y0140490D01*
X0195750Y0141025D01*
X0193785Y0141839D02*
X0194936Y0142990D01*
X0194936Y0144099D01*
X0194885Y0144150D01*
X0193785Y0141839D02*
X0193785Y0140211D01*
X0198250Y0138525D02*
X0198250Y0104150D01*
X0196850Y0105528D02*
X0195611Y0104289D01*
X0203250Y0116025D02*
X0206987Y0119762D01*
X0224196Y0119762D01*
X0202179Y0127454D02*
X0200611Y0125886D01*
X0202179Y0127454D02*
X0202179Y0129596D01*
X0201050Y0130725D01*
X0201050Y0135700D01*
X0202000Y0136650D01*
X0200215Y0137711D02*
X0199650Y0137147D01*
X0199650Y0129715D01*
X0200215Y0129150D01*
X0200215Y0128525D01*
X0200215Y0137711D02*
X0200215Y0141025D01*
X0195721Y0158525D02*
X0195721Y0166679D01*
X0195125Y0167275D01*
X0198250Y0165665D02*
X0198250Y0159150D01*
X0201375Y0159150D02*
X0201375Y0166025D01*
X0200750Y0166650D01*
X0200779Y0166650D01*
X0202744Y0168525D02*
X0203250Y0168019D01*
X0203250Y0160790D01*
X0203904Y0160135D01*
X0189500Y0169640D02*
X0187625Y0169640D01*
X0185260Y0167275D01*
X0184500Y0167275D01*
X0130750Y0166246D02*
X0124500Y0159996D01*
X0124500Y0159554D01*
X0112000Y0166025D02*
X0112000Y0166246D01*
X0112000Y0166025D02*
X0105125Y0166025D01*
X0101285Y0162185D01*
D21*
X0099085Y0161912D02*
X0093005Y0161912D01*
X0093125Y0161622D02*
X0092668Y0162724D01*
X0091824Y0163568D01*
X0090722Y0164025D01*
X0089528Y0164025D01*
X0088426Y0163568D01*
X0087582Y0162724D01*
X0087125Y0161622D01*
X0087125Y0151958D01*
X0087051Y0152032D01*
X0085507Y0153576D01*
X0084551Y0154532D01*
X0083301Y0155050D01*
X0070699Y0155050D01*
X0069449Y0154532D01*
X0068493Y0153576D01*
X0067975Y0152326D01*
X0067975Y0150974D01*
X0068493Y0149724D01*
X0069449Y0148768D01*
X0070699Y0148250D01*
X0081217Y0148250D01*
X0081725Y0147742D01*
X0081725Y0137224D01*
X0082243Y0135974D01*
X0083199Y0135018D01*
X0084449Y0134500D01*
X0085801Y0134500D01*
X0087051Y0135018D01*
X0087125Y0135092D01*
X0087125Y0121678D01*
X0087582Y0120576D01*
X0088426Y0119732D01*
X0089528Y0119275D01*
X0090722Y0119275D01*
X0091824Y0119732D01*
X0092668Y0120576D01*
X0093125Y0121678D01*
X0093125Y0161622D01*
X0093125Y0159514D02*
X0099085Y0159514D01*
X0099085Y0157115D02*
X0093125Y0157115D01*
X0093125Y0154717D02*
X0099085Y0154717D01*
X0099085Y0152318D02*
X0093125Y0152318D01*
X0093125Y0149920D02*
X0099091Y0149920D01*
X0099085Y0149925D02*
X0099175Y0149835D01*
X0099175Y0113333D01*
X0098325Y0113333D01*
X0097309Y0112912D01*
X0097165Y0112768D01*
X0096882Y0112768D01*
X0093946Y0109833D01*
X0093946Y0108167D01*
X0090125Y0104346D01*
X0090125Y0101200D01*
X0030750Y0101200D01*
X0030750Y0175380D01*
X0242285Y0175380D01*
X0242285Y0145202D01*
X0242126Y0145361D01*
X0240252Y0146137D01*
X0238223Y0146137D01*
X0236349Y0145361D01*
X0234914Y0143926D01*
X0234137Y0142052D01*
X0234137Y0140023D01*
X0234914Y0138149D01*
X0236349Y0136714D01*
X0237474Y0136248D01*
X0237126Y0136135D01*
X0236355Y0135742D01*
X0235654Y0135233D01*
X0235042Y0134620D01*
X0234533Y0133920D01*
X0234140Y0133149D01*
X0233873Y0132325D01*
X0233737Y0131470D01*
X0233737Y0131038D01*
X0239237Y0131038D01*
X0239237Y0131037D01*
X0239238Y0131037D01*
X0239238Y0125537D01*
X0239670Y0125537D01*
X0240525Y0125673D01*
X0241349Y0125940D01*
X0242120Y0126333D01*
X0242285Y0126454D01*
X0242285Y0106479D01*
X0242249Y0106500D01*
X0241690Y0106650D01*
X0238250Y0106650D01*
X0238250Y0102150D01*
X0238250Y0102150D01*
X0238250Y0102150D01*
X0232900Y0102150D01*
X0232900Y0104740D01*
X0233050Y0105299D01*
X0233340Y0105801D01*
X0233749Y0106210D01*
X0234251Y0106500D01*
X0234810Y0106650D01*
X0238250Y0106650D01*
X0238250Y0102150D01*
X0232900Y0102150D01*
X0232900Y0101200D01*
X0160286Y0101200D01*
X0164825Y0105739D01*
X0164825Y0106815D01*
X0164969Y0106959D01*
X0165390Y0107975D01*
X0165390Y0109075D01*
X0164969Y0110091D01*
X0164191Y0110869D01*
X0163175Y0111290D01*
X0162075Y0111290D01*
X0161059Y0110869D01*
X0160281Y0110091D01*
X0159860Y0109075D01*
X0159860Y0108609D01*
X0159425Y0108790D01*
X0158325Y0108790D01*
X0157309Y0108369D01*
X0156531Y0107591D01*
X0156110Y0106575D01*
X0156110Y0106372D01*
X0154214Y0104475D01*
X0138536Y0104475D01*
X0127265Y0115747D01*
X0127265Y0115950D01*
X0126844Y0116966D01*
X0126066Y0117744D01*
X0125050Y0118165D01*
X0123950Y0118165D01*
X0122934Y0117744D01*
X0122790Y0117600D01*
X0119214Y0117600D01*
X0117925Y0116311D01*
X0114868Y0113254D01*
X0113710Y0113254D01*
X0113566Y0113398D01*
X0112550Y0113819D01*
X0111450Y0113819D01*
X0110434Y0113398D01*
X0109656Y0112620D01*
X0109235Y0111604D01*
X0109235Y0110504D01*
X0109656Y0109488D01*
X0109922Y0109223D01*
X0109860Y0109075D01*
X0109860Y0107975D01*
X0110281Y0106959D01*
X0111059Y0106181D01*
X0112075Y0105760D01*
X0113175Y0105760D01*
X0114191Y0106181D01*
X0114335Y0106325D01*
X0121661Y0106325D01*
X0122890Y0107554D01*
X0123084Y0107554D01*
X0124100Y0107975D01*
X0124878Y0108753D01*
X0125299Y0109769D01*
X0125299Y0110869D01*
X0124878Y0111885D01*
X0124127Y0112635D01*
X0124153Y0112635D01*
X0129361Y0107428D01*
X0129138Y0107206D01*
X0128718Y0106189D01*
X0128718Y0105845D01*
X0128650Y0105777D01*
X0128650Y0104295D01*
X0128630Y0104275D01*
X0125442Y0104275D01*
X0124212Y0103045D01*
X0122856Y0101690D01*
X0119305Y0101690D01*
X0118741Y0102254D01*
X0114908Y0102254D01*
X0114425Y0102454D01*
X0113325Y0102454D01*
X0112309Y0102033D01*
X0111531Y0101256D01*
X0111508Y0101200D01*
X0097325Y0101200D01*
X0097325Y0101364D01*
X0102286Y0106325D01*
X0103575Y0107614D01*
X0103575Y0149835D01*
X0103575Y0151658D01*
X0103485Y0151748D01*
X0103485Y0161274D01*
X0106036Y0163825D01*
X0110622Y0163825D01*
X0111450Y0163482D01*
X0112550Y0163482D01*
X0113566Y0163903D01*
X0114344Y0164680D01*
X0114765Y0165697D01*
X0114765Y0166796D01*
X0114344Y0167812D01*
X0113566Y0168590D01*
X0112550Y0169011D01*
X0111450Y0169011D01*
X0110434Y0168590D01*
X0110069Y0168225D01*
X0104214Y0168225D01*
X0102925Y0166936D01*
X0100374Y0164385D01*
X0099085Y0163097D01*
X0099085Y0149925D01*
X0099175Y0147521D02*
X0093125Y0147521D01*
X0093125Y0145123D02*
X0099175Y0145123D01*
X0099175Y0142724D02*
X0093125Y0142724D01*
X0093125Y0140326D02*
X0099175Y0140326D01*
X0099175Y0137927D02*
X0093125Y0137927D01*
X0093125Y0135529D02*
X0099175Y0135529D01*
X0099175Y0133130D02*
X0093125Y0133130D01*
X0093125Y0130732D02*
X0099175Y0130732D01*
X0103575Y0130732D02*
X0193250Y0130732D01*
X0193250Y0133130D02*
X0103575Y0133130D01*
X0103575Y0135529D02*
X0193250Y0135529D01*
X0193250Y0135655D02*
X0193250Y0111089D01*
X0192934Y0110958D01*
X0192156Y0110181D01*
X0191735Y0109164D01*
X0191735Y0108065D01*
X0192156Y0107049D01*
X0192934Y0106271D01*
X0193464Y0106052D01*
X0193267Y0105855D01*
X0192846Y0104839D01*
X0192846Y0103739D01*
X0193267Y0102723D01*
X0194045Y0101945D01*
X0195061Y0101525D01*
X0196161Y0101525D01*
X0196762Y0101774D01*
X0197700Y0101385D01*
X0198800Y0101385D01*
X0199816Y0101806D01*
X0200594Y0102584D01*
X0201015Y0103600D01*
X0201015Y0104700D01*
X0200594Y0105716D01*
X0200450Y0105860D01*
X0200450Y0123121D01*
X0201161Y0123121D01*
X0202177Y0123542D01*
X0202955Y0124320D01*
X0203375Y0125336D01*
X0203375Y0125539D01*
X0204379Y0126543D01*
X0204379Y0130507D01*
X0203250Y0131636D01*
X0203250Y0134175D01*
X0203566Y0134306D01*
X0204344Y0135084D01*
X0204765Y0136100D01*
X0204765Y0137200D01*
X0204344Y0138216D01*
X0203566Y0138994D01*
X0202550Y0139415D01*
X0202514Y0139415D01*
X0202558Y0139459D01*
X0202979Y0140475D01*
X0202979Y0141575D01*
X0202558Y0142591D01*
X0201781Y0143369D01*
X0200764Y0143790D01*
X0199665Y0143790D01*
X0198649Y0143369D01*
X0197982Y0142702D01*
X0197484Y0143200D01*
X0197650Y0143600D01*
X0197650Y0144700D01*
X0197229Y0145716D01*
X0196451Y0146494D01*
X0195435Y0146915D01*
X0194336Y0146915D01*
X0193319Y0146494D01*
X0192542Y0145716D01*
X0192121Y0144700D01*
X0192121Y0143600D01*
X0192213Y0143378D01*
X0191585Y0142750D01*
X0191585Y0139300D01*
X0192685Y0138200D01*
X0192685Y0136220D01*
X0193250Y0135655D01*
X0192685Y0137927D02*
X0140645Y0137927D01*
X0140574Y0137857D02*
X0141418Y0138701D01*
X0142668Y0139951D01*
X0143125Y0141053D01*
X0143125Y0151032D01*
X0145743Y0153650D01*
X0161972Y0153650D01*
X0163074Y0154107D01*
X0163918Y0154951D01*
X0164324Y0155357D01*
X0164324Y0155357D01*
X0165168Y0156201D01*
X0165625Y0157303D01*
X0165625Y0161622D01*
X0165168Y0162724D01*
X0164324Y0163568D01*
X0163222Y0164025D01*
X0162028Y0164025D01*
X0160926Y0163568D01*
X0160082Y0162724D01*
X0159625Y0161622D01*
X0159625Y0159650D01*
X0143903Y0159650D01*
X0142801Y0159193D01*
X0141957Y0158349D01*
X0138426Y0154818D01*
X0137582Y0153974D01*
X0137125Y0152872D01*
X0137125Y0143400D01*
X0126993Y0143400D01*
X0121875Y0148518D01*
X0121875Y0150997D01*
X0121418Y0152099D01*
X0120574Y0152943D01*
X0119472Y0153400D01*
X0118278Y0153400D01*
X0117176Y0152943D01*
X0116332Y0152099D01*
X0115875Y0150997D01*
X0115875Y0146678D01*
X0116332Y0145576D01*
X0123207Y0138701D01*
X0124051Y0137857D01*
X0125153Y0137400D01*
X0133879Y0137400D01*
X0133903Y0137390D01*
X0135097Y0137390D01*
X0135120Y0137400D01*
X0139472Y0137400D01*
X0140574Y0137857D01*
X0138875Y0140400D02*
X0137625Y0140400D01*
X0134500Y0140400D01*
X0125750Y0140400D01*
X0118875Y0147275D01*
X0118875Y0150400D01*
X0121200Y0152318D02*
X0137125Y0152318D01*
X0137125Y0149920D02*
X0121875Y0149920D01*
X0122872Y0147521D02*
X0137125Y0147521D01*
X0137125Y0145123D02*
X0125270Y0145123D01*
X0121582Y0140326D02*
X0103575Y0140326D01*
X0103575Y0142724D02*
X0119183Y0142724D01*
X0116785Y0145123D02*
X0103575Y0145123D01*
X0103575Y0147521D02*
X0115875Y0147521D01*
X0115875Y0149920D02*
X0103575Y0149920D01*
X0103485Y0152318D02*
X0116550Y0152318D01*
X0122156Y0157988D02*
X0122934Y0157210D01*
X0123950Y0156789D01*
X0125050Y0156789D01*
X0126066Y0157210D01*
X0126844Y0157988D01*
X0127265Y0159004D01*
X0127265Y0159650D01*
X0131097Y0163482D01*
X0131300Y0163482D01*
X0132316Y0163903D01*
X0133094Y0164680D01*
X0133515Y0165697D01*
X0133515Y0166796D01*
X0133094Y0167812D01*
X0132316Y0168590D01*
X0131300Y0169011D01*
X0130200Y0169011D01*
X0129184Y0168590D01*
X0128406Y0167812D01*
X0127985Y0166796D01*
X0127985Y0166593D01*
X0123589Y0162196D01*
X0123541Y0162149D01*
X0122934Y0161897D01*
X0122156Y0161120D01*
X0121735Y0160103D01*
X0121735Y0159004D01*
X0122156Y0157988D01*
X0123163Y0157115D02*
X0103485Y0157115D01*
X0103485Y0154717D02*
X0138324Y0154717D01*
X0140125Y0152275D02*
X0140125Y0141650D01*
X0138875Y0140400D01*
X0134500Y0140400D02*
X0134500Y0140390D01*
X0142824Y0140326D02*
X0191585Y0140326D01*
X0191585Y0142724D02*
X0143125Y0142724D01*
X0143125Y0145123D02*
X0192296Y0145123D01*
X0197475Y0145123D02*
X0209800Y0145123D01*
X0209800Y0145882D02*
X0209800Y0142900D01*
X0217000Y0142900D01*
X0217000Y0142900D01*
X0217000Y0150100D01*
X0219982Y0150100D01*
X0224200Y0145882D01*
X0224200Y0142900D01*
X0217000Y0142900D01*
X0217000Y0142900D01*
X0217000Y0142900D01*
X0217000Y0150100D01*
X0214018Y0150100D01*
X0209800Y0145882D01*
X0211439Y0147521D02*
X0143125Y0147521D01*
X0143125Y0149920D02*
X0213837Y0149920D01*
X0217000Y0149920D02*
X0217000Y0149920D01*
X0217000Y0147521D02*
X0217000Y0147521D01*
X0220163Y0149920D02*
X0242285Y0149920D01*
X0242285Y0152318D02*
X0144411Y0152318D01*
X0140125Y0152275D02*
X0144500Y0156650D01*
X0161375Y0156650D01*
X0162625Y0157900D01*
X0162625Y0161025D01*
X0159745Y0161912D02*
X0129527Y0161912D01*
X0132724Y0164311D02*
X0193521Y0164311D01*
X0193521Y0164969D02*
X0193521Y0160235D01*
X0193377Y0160091D01*
X0192956Y0159075D01*
X0192956Y0157975D01*
X0193377Y0156959D01*
X0194155Y0156181D01*
X0195171Y0155760D01*
X0196271Y0155760D01*
X0197287Y0156181D01*
X0197552Y0156447D01*
X0197700Y0156385D01*
X0198800Y0156385D01*
X0199812Y0156805D01*
X0200825Y0156385D01*
X0201925Y0156385D01*
X0202941Y0156806D01*
X0203506Y0157371D01*
X0204454Y0157371D01*
X0205470Y0157792D01*
X0206248Y0158569D01*
X0206669Y0159586D01*
X0206669Y0160685D01*
X0206248Y0161701D01*
X0205470Y0162479D01*
X0205450Y0162487D01*
X0205450Y0167834D01*
X0205508Y0167975D01*
X0205508Y0169075D01*
X0205087Y0170091D01*
X0204310Y0170869D01*
X0203294Y0171290D01*
X0202194Y0171290D01*
X0201178Y0170869D01*
X0200400Y0170091D01*
X0200097Y0169360D01*
X0199213Y0168994D01*
X0198649Y0168429D01*
X0197700Y0168429D01*
X0197648Y0168408D01*
X0197469Y0168841D01*
X0196691Y0169619D01*
X0195675Y0170040D01*
X0194575Y0170040D01*
X0193559Y0169619D01*
X0192781Y0168841D01*
X0192360Y0167825D01*
X0192360Y0166725D01*
X0192781Y0165709D01*
X0193521Y0164969D01*
X0192367Y0166709D02*
X0187806Y0166709D01*
X0187460Y0166364D02*
X0188258Y0167162D01*
X0188950Y0166875D01*
X0190050Y0166875D01*
X0191066Y0167296D01*
X0191844Y0168074D01*
X0192265Y0169090D01*
X0192265Y0170189D01*
X0191844Y0171206D01*
X0191066Y0171983D01*
X0190050Y0172404D01*
X0188950Y0172404D01*
X0187934Y0171983D01*
X0187790Y0171840D01*
X0186714Y0171840D01*
X0184914Y0170040D01*
X0183950Y0170040D01*
X0182934Y0169619D01*
X0182156Y0168841D01*
X0181735Y0167825D01*
X0181735Y0166725D01*
X0182156Y0165709D01*
X0182934Y0164931D01*
X0183950Y0164510D01*
X0185050Y0164510D01*
X0186066Y0164931D01*
X0186844Y0165709D01*
X0186871Y0165774D01*
X0187460Y0166364D01*
X0186380Y0171506D02*
X0030750Y0171506D01*
X0030750Y0169108D02*
X0182423Y0169108D01*
X0181742Y0166709D02*
X0133515Y0166709D01*
X0127985Y0166709D02*
X0114765Y0166709D01*
X0113974Y0164311D02*
X0125703Y0164311D01*
X0122970Y0161912D02*
X0104123Y0161912D01*
X0103485Y0159514D02*
X0121735Y0159514D01*
X0125837Y0157115D02*
X0140723Y0157115D01*
X0141957Y0158349D02*
X0141957Y0158349D01*
X0143574Y0159514D02*
X0127265Y0159514D01*
X0102925Y0166936D02*
X0102925Y0166936D01*
X0102698Y0166709D02*
X0030750Y0166709D01*
X0030750Y0164311D02*
X0100299Y0164311D01*
X0100374Y0164385D02*
X0100374Y0164385D01*
X0090125Y0161025D02*
X0090125Y0157900D01*
X0090125Y0154775D01*
X0090125Y0127275D01*
X0090125Y0124775D01*
X0090125Y0122275D01*
X0092901Y0121137D02*
X0099175Y0121137D01*
X0099175Y0118739D02*
X0030750Y0118739D01*
X0030750Y0121137D02*
X0087349Y0121137D01*
X0087125Y0123536D02*
X0030750Y0123536D01*
X0030750Y0125934D02*
X0087125Y0125934D01*
X0087125Y0128333D02*
X0030750Y0128333D01*
X0030750Y0130732D02*
X0087125Y0130732D01*
X0087125Y0133130D02*
X0030750Y0133130D01*
X0030750Y0135529D02*
X0082688Y0135529D01*
X0081725Y0137927D02*
X0030750Y0137927D01*
X0030750Y0140326D02*
X0081725Y0140326D01*
X0081725Y0142724D02*
X0030750Y0142724D01*
X0030750Y0145123D02*
X0081725Y0145123D01*
X0081725Y0147521D02*
X0030750Y0147521D01*
X0030750Y0149920D02*
X0068412Y0149920D01*
X0067975Y0152318D02*
X0030750Y0152318D01*
X0030750Y0154717D02*
X0069894Y0154717D01*
X0084106Y0154717D02*
X0087125Y0154717D01*
X0085507Y0153576D02*
X0085507Y0153576D01*
X0086765Y0152318D02*
X0087125Y0152318D01*
X0087125Y0157115D02*
X0030750Y0157115D01*
X0030750Y0159514D02*
X0087125Y0159514D01*
X0087245Y0161912D02*
X0030750Y0161912D01*
X0030750Y0173905D02*
X0242285Y0173905D01*
X0242285Y0171506D02*
X0191543Y0171506D01*
X0192265Y0169108D02*
X0193048Y0169108D01*
X0197202Y0169108D02*
X0199488Y0169108D01*
X0205495Y0169108D02*
X0214217Y0169108D01*
X0213148Y0168665D02*
X0215647Y0169700D01*
X0218353Y0169700D01*
X0220852Y0168665D01*
X0222765Y0166752D01*
X0223800Y0164253D01*
X0223800Y0161547D01*
X0222765Y0159048D01*
X0220852Y0157135D01*
X0218353Y0156100D01*
X0215647Y0156100D01*
X0213148Y0157135D01*
X0211235Y0159048D01*
X0210200Y0161547D01*
X0210200Y0164253D01*
X0211235Y0166752D01*
X0213148Y0168665D01*
X0211218Y0166709D02*
X0205450Y0166709D01*
X0205450Y0164311D02*
X0210224Y0164311D01*
X0210200Y0161912D02*
X0206037Y0161912D01*
X0206639Y0159514D02*
X0211042Y0159514D01*
X0213197Y0157115D02*
X0203250Y0157115D01*
X0193312Y0157115D02*
X0165547Y0157115D01*
X0165625Y0159514D02*
X0193138Y0159514D01*
X0193521Y0161912D02*
X0165505Y0161912D01*
X0163918Y0154951D02*
X0163918Y0154951D01*
X0163684Y0154717D02*
X0242285Y0154717D01*
X0242285Y0157115D02*
X0220803Y0157115D01*
X0222958Y0159514D02*
X0242285Y0159514D01*
X0242285Y0161912D02*
X0223800Y0161912D01*
X0223776Y0164311D02*
X0242285Y0164311D01*
X0242285Y0166709D02*
X0222782Y0166709D01*
X0219783Y0169108D02*
X0242285Y0169108D01*
X0242285Y0147521D02*
X0222561Y0147521D01*
X0224200Y0145123D02*
X0236110Y0145123D01*
X0234416Y0142724D02*
X0224200Y0142724D01*
X0224200Y0142900D02*
X0217000Y0142900D01*
X0217000Y0135700D01*
X0219982Y0135700D01*
X0224200Y0139918D01*
X0224200Y0142900D01*
X0224200Y0140326D02*
X0234137Y0140326D01*
X0235135Y0137927D02*
X0222209Y0137927D01*
X0217000Y0137927D02*
X0217000Y0137927D01*
X0217000Y0135700D02*
X0214018Y0135700D01*
X0209800Y0139918D01*
X0209800Y0142900D01*
X0217000Y0142900D01*
X0217000Y0142900D01*
X0217000Y0135700D01*
X0217000Y0140326D02*
X0217000Y0140326D01*
X0217000Y0142724D02*
X0217000Y0142724D01*
X0217000Y0145123D02*
X0217000Y0145123D01*
X0209800Y0142724D02*
X0202425Y0142724D01*
X0202917Y0140326D02*
X0209800Y0140326D01*
X0211791Y0137927D02*
X0204463Y0137927D01*
X0204528Y0135529D02*
X0236062Y0135529D01*
X0234134Y0133130D02*
X0203250Y0133130D01*
X0204155Y0130732D02*
X0233737Y0130732D01*
X0233737Y0130605D02*
X0233737Y0131037D01*
X0239237Y0131037D01*
X0239237Y0125537D01*
X0238805Y0125537D01*
X0237950Y0125673D01*
X0237126Y0125940D01*
X0236355Y0126333D01*
X0235654Y0126842D01*
X0235042Y0127454D01*
X0234533Y0128155D01*
X0234140Y0128926D01*
X0233873Y0129750D01*
X0233737Y0130605D01*
X0234443Y0128333D02*
X0204379Y0128333D01*
X0203771Y0125934D02*
X0237145Y0125934D01*
X0239237Y0125934D02*
X0239238Y0125934D01*
X0241330Y0125934D02*
X0242285Y0125934D01*
X0242285Y0123536D02*
X0202162Y0123536D01*
X0200450Y0121137D02*
X0205251Y0121137D01*
X0206076Y0121962D02*
X0202903Y0118790D01*
X0202700Y0118790D01*
X0201684Y0118369D01*
X0200906Y0117591D01*
X0200485Y0116575D01*
X0200485Y0115475D01*
X0200906Y0114459D01*
X0201684Y0113681D01*
X0202700Y0113260D01*
X0203800Y0113260D01*
X0204816Y0113681D01*
X0205594Y0114459D01*
X0206015Y0115475D01*
X0206015Y0115678D01*
X0207899Y0117562D01*
X0222487Y0117562D01*
X0222630Y0117419D01*
X0223647Y0116998D01*
X0224746Y0116998D01*
X0225762Y0117419D01*
X0226540Y0118196D01*
X0226961Y0119213D01*
X0226961Y0120312D01*
X0226540Y0121328D01*
X0225762Y0122106D01*
X0224746Y0122527D01*
X0223647Y0122527D01*
X0222630Y0122106D01*
X0222487Y0121962D01*
X0206076Y0121962D01*
X0202578Y0118739D02*
X0200450Y0118739D01*
X0200450Y0116340D02*
X0200485Y0116340D01*
X0200450Y0113942D02*
X0201423Y0113942D01*
X0200450Y0111543D02*
X0242285Y0111543D01*
X0242285Y0109145D02*
X0200450Y0109145D01*
X0200450Y0106746D02*
X0242285Y0106746D01*
X0238250Y0104348D02*
X0238250Y0104348D01*
X0232900Y0104348D02*
X0201015Y0104348D01*
X0199959Y0101949D02*
X0232900Y0101949D01*
X0242285Y0113942D02*
X0205077Y0113942D01*
X0206677Y0116340D02*
X0242285Y0116340D01*
X0242285Y0118739D02*
X0226765Y0118739D01*
X0226619Y0121137D02*
X0242285Y0121137D01*
X0239237Y0128333D02*
X0239238Y0128333D01*
X0239237Y0130732D02*
X0239238Y0130732D01*
X0198004Y0142724D02*
X0197961Y0142724D01*
X0193250Y0128333D02*
X0103575Y0128333D01*
X0103575Y0125934D02*
X0193250Y0125934D01*
X0193250Y0123536D02*
X0103575Y0123536D01*
X0103575Y0121137D02*
X0193250Y0121137D01*
X0193250Y0118739D02*
X0103575Y0118739D01*
X0103575Y0116340D02*
X0117954Y0116340D01*
X0115556Y0113942D02*
X0103575Y0113942D01*
X0103575Y0111543D02*
X0109235Y0111543D01*
X0109889Y0109145D02*
X0103575Y0109145D01*
X0102708Y0106746D02*
X0110494Y0106746D01*
X0112225Y0101949D02*
X0097911Y0101949D01*
X0100309Y0104348D02*
X0128650Y0104348D01*
X0128948Y0106746D02*
X0122083Y0106746D01*
X0125040Y0109145D02*
X0127644Y0109145D01*
X0125245Y0111543D02*
X0125019Y0111543D01*
X0129069Y0113942D02*
X0193250Y0113942D01*
X0193250Y0111543D02*
X0131468Y0111543D01*
X0133866Y0109145D02*
X0159889Y0109145D01*
X0156181Y0106746D02*
X0136265Y0106746D01*
X0127103Y0116340D02*
X0193250Y0116340D01*
X0191735Y0109145D02*
X0165361Y0109145D01*
X0164825Y0106746D02*
X0192458Y0106746D01*
X0192846Y0104348D02*
X0163434Y0104348D01*
X0161036Y0101949D02*
X0194041Y0101949D01*
X0123980Y0137927D02*
X0103575Y0137927D01*
X0099175Y0128333D02*
X0093125Y0128333D01*
X0093125Y0125934D02*
X0099175Y0125934D01*
X0099175Y0123536D02*
X0093125Y0123536D01*
X0099175Y0116340D02*
X0030750Y0116340D01*
X0030750Y0113942D02*
X0099175Y0113942D01*
X0095657Y0111543D02*
X0030750Y0111543D01*
X0030750Y0109145D02*
X0093946Y0109145D01*
X0092525Y0106746D02*
X0030750Y0106746D01*
X0030750Y0104348D02*
X0090127Y0104348D01*
X0090125Y0101949D02*
X0030750Y0101949D01*
X0119045Y0101949D02*
X0123116Y0101949D01*
D22*
X0138250Y0097275D02*
X0138250Y0095846D01*
X0138334Y0095762D01*
X0138334Y0072191D01*
X0146434Y0064091D01*
X0146434Y0059775D01*
X0146434Y0040341D01*
X0154863Y0031912D01*
X0158278Y0031912D01*
X0179237Y0031912D01*
X0184500Y0026650D01*
X0180750Y0086591D02*
X0180750Y0097275D01*
X0179500Y0098525D01*
X0139500Y0098525D01*
X0138250Y0097275D01*
D23*
X0146434Y0040341D02*
X0143993Y0037900D01*
X0123273Y0037900D01*
D24*
X0085125Y0137900D02*
X0085125Y0141025D01*
X0085125Y0149150D01*
X0082625Y0151650D01*
X0074500Y0151650D01*
X0074475Y0151650D01*
X0071375Y0151650D01*
M02*
