<svg version="1.1" xmlns="http://www.w3.org/2000/svg" xmlns:xlink="http://www.w3.org/1999/xlink" stroke-linecap="round" stroke-linejoin="round" stroke-width="0" fill-rule="evenodd" width="1.90545in" height="1.28025in" viewBox="603.15 183.9 1905.45 1280.25" id="nwR9ONQKT-HCVAItknZe"><defs><circle cx="0" cy="0" r="6.1" id="nwR9ONQKT-HCVAItknZe_pad-1"/><circle cx="0" cy="0" r="13.8" id="nwR9ONQKT-HCVAItknZe_pad-2"/><circle cx="0" cy="0" r="39.35" id="nwR9ONQKT-HCVAItknZe_pad-3"/></defs><g transform="translate(0,1648.05) scale(1,-1)" fill="currentColor" stroke="currentColor"><use xlink:href="#nwR9ONQKT-HCVAItknZe_pad-1" x="2496.3" y="302.5"/><use xlink:href="#nwR9ONQKT-HCVAItknZe_pad-1" x="2502.5" y="208.8"/><use xlink:href="#nwR9ONQKT-HCVAItknZe_pad-1" x="2452.5" y="196.3"/><use xlink:href="#nwR9ONQKT-HCVAItknZe_pad-1" x="2340" y="190"/><use xlink:href="#nwR9ONQKT-HCVAItknZe_pad-1" x="2240" y="190"/><use xlink:href="#nwR9ONQKT-HCVAItknZe_pad-1" x="2171.3" y="190"/><use xlink:href="#nwR9ONQKT-HCVAItknZe_pad-1" x="2077.5" y="231.5"/><use xlink:href="#nwR9ONQKT-HCVAItknZe_pad-1" x="1996.3" y="206.9"/><use xlink:href="#nwR9ONQKT-HCVAItknZe_pad-1" x="1977.5" y="252.5"/><use xlink:href="#nwR9ONQKT-HCVAItknZe_pad-1" x="1983.8" y="315"/><use xlink:href="#nwR9ONQKT-HCVAItknZe_pad-1" x="2052.5" y="340"/><use xlink:href="#nwR9ONQKT-HCVAItknZe_pad-1" x="2115" y="340"/><use xlink:href="#nwR9ONQKT-HCVAItknZe_pad-1" x="2052.5" y="408.8"/><use xlink:href="#nwR9ONQKT-HCVAItknZe_pad-1" x="2021.3" y="433.8"/><use xlink:href="#nwR9ONQKT-HCVAItknZe_pad-1" x="1965" y="433.8"/><use xlink:href="#nwR9ONQKT-HCVAItknZe_pad-1" x="1958.8" y="401.1"/><use xlink:href="#nwR9ONQKT-HCVAItknZe_pad-1" x="2002.5" y="387.1"/><use xlink:href="#nwR9ONQKT-HCVAItknZe_pad-1" x="1858.8" y="308.8"/><use xlink:href="#nwR9ONQKT-HCVAItknZe_pad-1" x="1840" y="371.3"/><use xlink:href="#nwR9ONQKT-HCVAItknZe_pad-1" x="1677.5" y="340"/><use xlink:href="#nwR9ONQKT-HCVAItknZe_pad-1" x="1540" y="402.5"/><use xlink:href="#nwR9ONQKT-HCVAItknZe_pad-1" x="1540" y="446.3"/><use xlink:href="#nwR9ONQKT-HCVAItknZe_pad-1" x="1603" y="470.7"/><use xlink:href="#nwR9ONQKT-HCVAItknZe_pad-1" x="1652.5" y="458.8"/><use xlink:href="#nwR9ONQKT-HCVAItknZe_pad-1" x="1756.5" y="492.9"/><use xlink:href="#nwR9ONQKT-HCVAItknZe_pad-1" x="1777.5" y="470.8"/><use xlink:href="#nwR9ONQKT-HCVAItknZe_pad-1" x="1773.6" y="518.4"/><use xlink:href="#nwR9ONQKT-HCVAItknZe_pad-1" x="1752.5" y="540"/><use xlink:href="#nwR9ONQKT-HCVAItknZe_pad-1" x="1777.5" y="565"/><use xlink:href="#nwR9ONQKT-HCVAItknZe_pad-1" x="1852.5" y="621.3"/><use xlink:href="#nwR9ONQKT-HCVAItknZe_pad-1" x="1983.8" y="502.5"/><use xlink:href="#nwR9ONQKT-HCVAItknZe_pad-1" x="2015" y="496.3"/><use xlink:href="#nwR9ONQKT-HCVAItknZe_pad-1" x="2058.8" y="521.3"/><use xlink:href="#nwR9ONQKT-HCVAItknZe_pad-1" x="2077.5" y="496.3"/><use xlink:href="#nwR9ONQKT-HCVAItknZe_pad-1" x="2208.8" y="552.5"/><use xlink:href="#nwR9ONQKT-HCVAItknZe_pad-1" x="2065" y="608.8"/><use xlink:href="#nwR9ONQKT-HCVAItknZe_pad-1" x="1883.8" y="733.8"/><use xlink:href="#nwR9ONQKT-HCVAItknZe_pad-1" x="1796.3" y="740"/><use xlink:href="#nwR9ONQKT-HCVAItknZe_pad-1" x="1733.8" y="765"/><use xlink:href="#nwR9ONQKT-HCVAItknZe_pad-1" x="1608.8" y="846.3"/><use xlink:href="#nwR9ONQKT-HCVAItknZe_pad-1" x="1502.5" y="865"/><use xlink:href="#nwR9ONQKT-HCVAItknZe_pad-1" x="1390" y="852.5"/><use xlink:href="#nwR9ONQKT-HCVAItknZe_pad-1" x="1365" y="840"/><use xlink:href="#nwR9ONQKT-HCVAItknZe_pad-1" x="1315" y="865"/><use xlink:href="#nwR9ONQKT-HCVAItknZe_pad-1" x="1252.5" y="828.4"/><use xlink:href="#nwR9ONQKT-HCVAItknZe_pad-1" x="1284.2" y="776.6"/><use xlink:href="#nwR9ONQKT-HCVAItknZe_pad-1" x="1290" y="727.5"/><use xlink:href="#nwR9ONQKT-HCVAItknZe_pad-1" x="1296.3" y="690"/><use xlink:href="#nwR9ONQKT-HCVAItknZe_pad-1" x="1333.8" y="646.3"/><use xlink:href="#nwR9ONQKT-HCVAItknZe_pad-1" x="1440" y="602.5"/><use xlink:href="#nwR9ONQKT-HCVAItknZe_pad-1" x="1533.8" y="658.8"/><use xlink:href="#nwR9ONQKT-HCVAItknZe_pad-1" x="1590" y="546.3"/><use xlink:href="#nwR9ONQKT-HCVAItknZe_pad-1" x="1440.3" y="477.5"/><use xlink:href="#nwR9ONQKT-HCVAItknZe_pad-1" x="1377.5" y="371.3"/><use xlink:href="#nwR9ONQKT-HCVAItknZe_pad-1" x="1402.5" y="321.3"/><use xlink:href="#nwR9ONQKT-HCVAItknZe_pad-1" x="1421.3" y="233.8"/><use xlink:href="#nwR9ONQKT-HCVAItknZe_pad-1" x="1533.8" y="283.8"/><use xlink:href="#nwR9ONQKT-HCVAItknZe_pad-1" x="1871.3" y="233.8"/><use xlink:href="#nwR9ONQKT-HCVAItknZe_pad-1" x="2433.8" y="421.3"/><use xlink:href="#nwR9ONQKT-HCVAItknZe_pad-1" x="1602.5" y="927.5"/><use xlink:href="#nwR9ONQKT-HCVAItknZe_pad-1" x="1602.5" y="977.5"/><use xlink:href="#nwR9ONQKT-HCVAItknZe_pad-1" x="1621.3" y="1008.8"/><use xlink:href="#nwR9ONQKT-HCVAItknZe_pad-1" x="1665" y="1015"/><use xlink:href="#nwR9ONQKT-HCVAItknZe_pad-1" x="1683.8" y="1052.5"/><use xlink:href="#nwR9ONQKT-HCVAItknZe_pad-1" x="1740" y="1102.5"/><use xlink:href="#nwR9ONQKT-HCVAItknZe_pad-1" x="1821.3" y="1058.8"/><use xlink:href="#nwR9ONQKT-HCVAItknZe_pad-1" x="1827.5" y="1002.5"/><use xlink:href="#nwR9ONQKT-HCVAItknZe_pad-1" x="1896.3" y="1008.8"/><use xlink:href="#nwR9ONQKT-HCVAItknZe_pad-1" x="1915" y="1065"/><use xlink:href="#nwR9ONQKT-HCVAItknZe_pad-1" x="2002.5" y="1046.3"/><use xlink:href="#nwR9ONQKT-HCVAItknZe_pad-1" x="2021.3" y="1083.8"/><use xlink:href="#nwR9ONQKT-HCVAItknZe_pad-1" x="2040" y="1021.3"/><use xlink:href="#nwR9ONQKT-HCVAItknZe_pad-1" x="1758.8" y="1002.5"/><use xlink:href="#nwR9ONQKT-HCVAItknZe_pad-1" x="1708.8" y="1008.8"/><use xlink:href="#nwR9ONQKT-HCVAItknZe_pad-1" x="1721.3" y="1165"/><use xlink:href="#nwR9ONQKT-HCVAItknZe_pad-1" x="1552.5" y="1165"/><use xlink:href="#nwR9ONQKT-HCVAItknZe_pad-1" x="1515" y="1165"/><use xlink:href="#nwR9ONQKT-HCVAItknZe_pad-1" x="1477.5" y="1165"/><use xlink:href="#nwR9ONQKT-HCVAItknZe_pad-1" x="1437" y="1174.5"/><use xlink:href="#nwR9ONQKT-HCVAItknZe_pad-1" x="1358.8" y="1083.8"/><use xlink:href="#nwR9ONQKT-HCVAItknZe_pad-1" x="1327.5" y="1083.8"/><use xlink:href="#nwR9ONQKT-HCVAItknZe_pad-1" x="1240" y="1090"/><use xlink:href="#nwR9ONQKT-HCVAItknZe_pad-1" x="1277.5" y="1146.3"/><use xlink:href="#nwR9ONQKT-HCVAItknZe_pad-1" x="1247.3" y="1168.7"/><use xlink:href="#nwR9ONQKT-HCVAItknZe_pad-1" x="1277.5" y="1177.5"/><use xlink:href="#nwR9ONQKT-HCVAItknZe_pad-1" x="1271.3" y="1221.3"/><use xlink:href="#nwR9ONQKT-HCVAItknZe_pad-1" x="1271.3" y="1258.8"/><use xlink:href="#nwR9ONQKT-HCVAItknZe_pad-1" x="1158.8" y="1221.3"/><use xlink:href="#nwR9ONQKT-HCVAItknZe_pad-1" x="1140" y="1115"/><use xlink:href="#nwR9ONQKT-HCVAItknZe_pad-1" x="1308.8" y="940"/><use xlink:href="#nwR9ONQKT-HCVAItknZe_pad-1" x="1308.8" y="915"/><use xlink:href="#nwR9ONQKT-HCVAItknZe_pad-1" x="1090" y="908.8"/><use xlink:href="#nwR9ONQKT-HCVAItknZe_pad-1" x="1090" y="840"/><use xlink:href="#nwR9ONQKT-HCVAItknZe_pad-1" x="1046.3" y="796.3"/><use xlink:href="#nwR9ONQKT-HCVAItknZe_pad-1" x="1021.3" y="721.3"/><use xlink:href="#nwR9ONQKT-HCVAItknZe_pad-1" x="996.3" y="652.5"/><use xlink:href="#nwR9ONQKT-HCVAItknZe_pad-1" x="1065" y="652.5"/><use xlink:href="#nwR9ONQKT-HCVAItknZe_pad-1" x="996.3" y="590"/><use xlink:href="#nwR9ONQKT-HCVAItknZe_pad-1" x="933.8" y="565"/><use xlink:href="#nwR9ONQKT-HCVAItknZe_pad-1" x="858.8" y="558.8"/><use xlink:href="#nwR9ONQKT-HCVAItknZe_pad-1" x="827.5" y="558.8"/><use xlink:href="#nwR9ONQKT-HCVAItknZe_pad-1" x="796.3" y="558.8"/><use xlink:href="#nwR9ONQKT-HCVAItknZe_pad-1" x="765" y="558.8"/><use xlink:href="#nwR9ONQKT-HCVAItknZe_pad-1" x="733.8" y="558.8"/><use xlink:href="#nwR9ONQKT-HCVAItknZe_pad-1" x="690" y="433.8"/><use xlink:href="#nwR9ONQKT-HCVAItknZe_pad-1" x="658.8" y="433.8"/><use xlink:href="#nwR9ONQKT-HCVAItknZe_pad-1" x="658.8" y="402.5"/><use xlink:href="#nwR9ONQKT-HCVAItknZe_pad-1" x="690" y="402.5"/><use xlink:href="#nwR9ONQKT-HCVAItknZe_pad-1" x="627.5" y="402.5"/><use xlink:href="#nwR9ONQKT-HCVAItknZe_pad-1" x="627.5" y="433.8"/><use xlink:href="#nwR9ONQKT-HCVAItknZe_pad-1" x="902.5" y="265"/><use xlink:href="#nwR9ONQKT-HCVAItknZe_pad-1" x="902.5" y="227.5"/><use xlink:href="#nwR9ONQKT-HCVAItknZe_pad-1" x="965" y="227.5"/><use xlink:href="#nwR9ONQKT-HCVAItknZe_pad-1" x="965" y="265"/><use xlink:href="#nwR9ONQKT-HCVAItknZe_pad-1" x="965" y="302.5"/><use xlink:href="#nwR9ONQKT-HCVAItknZe_pad-1" x="902.5" y="302.5"/><use xlink:href="#nwR9ONQKT-HCVAItknZe_pad-1" x="902.5" y="340"/><use xlink:href="#nwR9ONQKT-HCVAItknZe_pad-1" x="1071.3" y="327.5"/><use xlink:href="#nwR9ONQKT-HCVAItknZe_pad-1" x="1077.5" y="365"/><use xlink:href="#nwR9ONQKT-HCVAItknZe_pad-1" x="1196.3" y="327.5"/><use xlink:href="#nwR9ONQKT-HCVAItknZe_pad-1" x="1158.8" y="465"/><use xlink:href="#nwR9ONQKT-HCVAItknZe_pad-1" x="1152.5" y="502.5"/><use xlink:href="#nwR9ONQKT-HCVAItknZe_pad-1" x="1952.5" y="1233.8"/><use xlink:href="#nwR9ONQKT-HCVAItknZe_pad-1" x="1946.3" y="1302.5"/><use xlink:href="#nwR9ONQKT-HCVAItknZe_pad-1" x="1827.5" y="1290"/><use xlink:href="#nwR9ONQKT-HCVAItknZe_pad-1" x="1677.5" y="1333.8"/><use xlink:href="#nwR9ONQKT-HCVAItknZe_pad-1" x="1646.3" y="1333.8"/><use xlink:href="#nwR9ONQKT-HCVAItknZe_pad-1" x="1615" y="1333.8"/><use xlink:href="#nwR9ONQKT-HCVAItknZe_pad-1" x="1583.8" y="1333.8"/><use xlink:href="#nwR9ONQKT-HCVAItknZe_pad-1" x="1552.5" y="1333.8"/><use xlink:href="#nwR9ONQKT-HCVAItknZe_pad-1" x="1558.8" y="1277.5"/><use xlink:href="#nwR9ONQKT-HCVAItknZe_pad-1" x="1496.3" y="1271.3"/><use xlink:href="#nwR9ONQKT-HCVAItknZe_pad-1" x="1777.5" y="1402.5"/><use xlink:href="#nwR9ONQKT-HCVAItknZe_pad-2" x="2396" y="258.1"/><use xlink:href="#nwR9ONQKT-HCVAItknZe_pad-2" x="2346" y="258.1"/><use xlink:href="#nwR9ONQKT-HCVAItknZe_pad-2" x="2296" y="258.1"/><use xlink:href="#nwR9ONQKT-HCVAItknZe_pad-2" x="2246" y="258.1"/><use xlink:href="#nwR9ONQKT-HCVAItknZe_pad-2" x="2196" y="258.1"/><use xlink:href="#nwR9ONQKT-HCVAItknZe_pad-2" x="2196" y="308.1"/><use xlink:href="#nwR9ONQKT-HCVAItknZe_pad-2" x="2246" y="308.1"/><use xlink:href="#nwR9ONQKT-HCVAItknZe_pad-2" x="2296" y="308.1"/><use xlink:href="#nwR9ONQKT-HCVAItknZe_pad-2" x="2346" y="308.1"/><use xlink:href="#nwR9ONQKT-HCVAItknZe_pad-2" x="2396" y="308.1"/><use xlink:href="#nwR9ONQKT-HCVAItknZe_pad-3" x="799.9" y="283.1"/><use xlink:href="#nwR9ONQKT-HCVAItknZe_pad-3" x="642.5" y="283.1"/><use xlink:href="#nwR9ONQKT-HCVAItknZe_pad-3" x="1607" y="1424.8"/><use xlink:href="#nwR9ONQKT-HCVAItknZe_pad-3" x="1449.5" y="1424.8"/></g></svg>