<svg version="1.1" xmlns="http://www.w3.org/2000/svg" xmlns:xlink="http://www.w3.org/1999/xlink" stroke-linecap="round" stroke-linejoin="round" stroke-width="0" fill-rule="evenodd" width="2.40157in" height="1.37795in" viewBox="327.5 165 2401.57 1377.95" id="urzuWhfnEQ3kRiCZd_Go"><defs><rect x="-19.685" y="-21.655" width="39.37" height="43.31" id="urzuWhfnEQ3kRiCZd_Go_pad-12"/><rect x="-17.715" y="-13.78" width="35.43" height="27.56" id="urzuWhfnEQ3kRiCZd_Go_pad-13"/><rect x="-13.78" y="-17.715" width="27.56" height="35.43" id="urzuWhfnEQ3kRiCZd_Go_pad-14"/><rect x="-30.905" y="-8.07" width="61.81" height="16.14" id="urzuWhfnEQ3kRiCZd_Go_pad-15"/><rect x="-17.715" y="-25.59" width="35.43" height="51.18" id="urzuWhfnEQ3kRiCZd_Go_pad-16"/><rect x="-17.715" y="-29.035" width="35.43" height="58.07" id="urzuWhfnEQ3kRiCZd_Go_pad-17"/><rect x="-34.115" y="-61.515" width="68.23" height="123.03" id="urzuWhfnEQ3kRiCZd_Go_pad-18"/><rect x="-29.53" y="-25.59" width="59.06" height="51.18" id="urzuWhfnEQ3kRiCZd_Go_pad-19"/><rect x="-25.59" y="-29.53" width="51.18" height="59.06" id="urzuWhfnEQ3kRiCZd_Go_pad-20"/><rect x="-28" y="-5.5" width="56" height="11" id="urzuWhfnEQ3kRiCZd_Go_pad-21"/><rect x="-14.765" y="-13.78" width="29.53" height="27.56" id="urzuWhfnEQ3kRiCZd_Go_pad-23"/><rect x="-43.305" y="-19.685" width="86.61" height="39.37" id="urzuWhfnEQ3kRiCZd_Go_pad-24"/><rect x="-25.59" y="-17.715" width="51.18" height="35.43" id="urzuWhfnEQ3kRiCZd_Go_pad-25"/><rect x="-27.56" y="-27.56" width="55.12" height="55.12" id="urzuWhfnEQ3kRiCZd_Go_pad-26"/><rect x="-19.685" y="-53.15" width="39.37" height="106.3" id="urzuWhfnEQ3kRiCZd_Go_pad-27"/><rect x="-21.655" y="-19.685" width="43.31" height="39.37" id="urzuWhfnEQ3kRiCZd_Go_pad-28"/><rect x="-10" y="-24" width="20" height="48" id="urzuWhfnEQ3kRiCZd_Go_pad-29"/><rect x="-35.435" y="-31.495" width="70.87" height="62.99" id="urzuWhfnEQ3kRiCZd_Go_pad-30"/></defs><g transform="translate(0,1707.95) scale(1,-1)" fill="currentColor" stroke="currentColor"><path d="M 327.5 165 327.5 275.24 M 327.5 165 2729.07 165 2729.07 275.24 M 2729.07 275.23 2700.93 290.42 2673.15 306.28 2645.77 322.81 2618.8 340 2592.25 357.84 2566.14 376.31 2540.48 395.41 2515.3 415.13 2490.6 435.45 2466.4 456.36 2442.71 477.85 2419.54 499.91 2396.92 522.52 2374.85 545.67 2353.35 569.35 2332.43 593.54 2312.1 618.23 2292.37 643.41 2273.26 669.05 2254.77 695.15 2236.92 721.69 2219.72 748.66 2203.18 776.03 2187.3 803.8 2172.1 831.94 2157.58 860.44 2143.76 889.28 2130.64 918.45 2118.23 947.93 2106.54 977.7 2095.57 1007.75 2085.33 1038.05 2075.82 1068.59 2067.06 1099.35 2059.05 1130.31 2051.79 1161.46 2045.28 1192.78 2039.53 1224.24 2034.55 1255.83 2030.33 1287.54 2026.88 1319.34 2024.2 1351.21 2022.29 1383.14 2021.15 1415.1 2020.79 1447.08 2021.2 1479.06 2022.39 1511.03 2024.35 1542.95 1032.22 1542.95 M 1032.23 1542.95 1034.19 1511.03 1035.38 1479.06 1035.79 1447.08 1035.43 1415.1 1034.29 1383.14 1032.38 1351.21 1029.7 1319.34 1026.25 1287.54 1022.03 1255.83 1017.05 1224.24 1011.3 1192.78 1004.79 1161.46 997.53 1130.31 989.52 1099.35 980.76 1068.59 971.25 1038.05 961.01 1007.75 950.04 977.7 938.35 947.93 925.94 918.45 912.82 889.28 899 860.44 884.48 831.94 869.28 803.8 853.4 776.03 836.86 748.66 819.66 721.69 801.81 695.15 783.32 669.05 764.21 643.41 744.48 618.23 724.15 593.54 703.23 569.35 681.73 545.67 659.66 522.52 637.04 499.91 613.87 477.85 590.18 456.36 565.98 435.45 541.28 415.13 516.1 395.41 490.44 376.31 464.33 357.84 437.78 340 410.81 322.81 383.43 306.28 355.65 290.42 327.51 275.23" fill="none" stroke-width="0"/><path d="M 386.55 263.43 386.57 264.96 386.63 266.5 386.73 268.03 386.87 269.55 387.05 271.08 387.27 272.59 387.52 274.1 387.82 275.61 388.16 277.11 388.53 278.59 388.94 280.07 389.39 281.53 389.88 282.99 390.41 284.43 390.97 285.85 391.57 287.26 392.21 288.66 392.88 290.04 393.59 291.4 394.34 292.74 395.11 294.06 395.93 295.36 396.77 296.64 397.65 297.9 398.56 299.13 399.5 300.34 400.48 301.52 401.48 302.68 402.52 303.81 403.58 304.92 404.67 306 405.79 307.05 406.93 308.06 408.11 309.05 409.3 310.01 410.52 310.94 411.77 311.83 413.04 312.7 414.33 313.52 415.64 314.32 416.97 315.08 418.32 315.81 419.69 316.5 421.08 317.15 422.48 317.77 423.9 318.35 425.33 318.9 426.78 319.41 428.24 319.88 429.71 320.31 431.19 320.7 432.68 321.06 434.18 321.37 435.69 321.65 437.2 321.89 438.73 322.09 440.25 322.25 441.78 322.37 443.31 322.45 444.84 322.49 446.38 322.49 447.91 322.45 449.44 322.37 450.97 322.25 452.49 322.09 454.02 321.89 455.53 321.65 457.04 321.37 458.54 321.06 460.03 320.7 461.51 320.31 462.98 319.88 464.44 319.41 465.89 318.9 467.32 318.35 468.74 317.77 470.14 317.15 471.53 316.5 472.9 315.81 474.25 315.08 475.58 314.32 476.89 313.52 478.18 312.7 479.45 311.83 480.7 310.94 481.92 310.01 483.11 309.05 484.29 308.06 485.43 307.05 486.55 306 487.64 304.92 488.7 303.81 489.74 302.68 490.74 301.52 491.72 300.34 492.66 299.13 493.57 297.9 494.45 296.64 495.29 295.36 496.11 294.06 496.88 292.74 497.63 291.4 498.34 290.04 499.01 288.66 499.65 287.26 500.25 285.85 500.81 284.43 501.34 282.99 501.83 281.53 502.28 280.07 502.69 278.59 503.06 277.11 503.4 275.61 503.7 274.1 503.95 272.59 504.17 271.08 504.35 269.55 504.49 268.03 504.59 266.5 504.65 264.96 504.67 263.43 504.65 261.9 504.59 260.36 504.49 258.83 504.35 257.31 504.17 255.78 503.95 254.27 503.7 252.76 503.4 251.25 503.06 249.75 502.69 248.27 502.28 246.79 501.83 245.33 501.34 243.87 500.81 242.43 500.25 241.01 499.65 239.6 499.01 238.2 498.34 236.82 497.63 235.46 496.88 234.12 496.11 232.8 495.29 231.5 494.45 230.22 493.57 228.96 492.66 227.73 491.72 226.52 490.74 225.34 489.74 224.18 488.7 223.05 487.64 221.94 486.55 220.86 485.43 219.81 484.29 218.8 483.11 217.81 481.92 216.85 480.7 215.92 479.45 215.03 478.18 214.16 476.89 213.34 475.58 212.54 474.25 211.78 472.9 211.05 471.53 210.36 470.14 209.71 468.74 209.09 467.32 208.51 465.89 207.96 464.44 207.45 462.98 206.98 461.51 206.55 460.03 206.16 458.54 205.8 457.04 205.49 455.53 205.21 454.02 204.97 452.49 204.77 450.97 204.61 449.44 204.49 447.91 204.41 446.38 204.37 444.84 204.37 443.31 204.41 441.78 204.49 440.25 204.61 438.73 204.77 437.2 204.97 435.69 205.21 434.18 205.49 432.68 205.8 431.19 206.16 429.71 206.55 428.24 206.98 426.78 207.45 425.33 207.96 423.9 208.51 422.48 209.09 421.08 209.71 419.69 210.36 418.32 211.05 416.97 211.78 415.64 212.54 414.33 213.34 413.04 214.16 411.77 215.03 410.52 215.92 409.3 216.85 408.11 217.81 406.93 218.8 405.79 219.81 404.67 220.86 403.58 221.94 402.52 223.05 401.48 224.18 400.48 225.34 399.5 226.52 398.56 227.73 397.65 228.96 396.77 230.22 395.93 231.5 395.11 232.8 394.34 234.12 393.59 235.46 392.88 236.82 392.21 238.2 391.57 239.6 390.97 241.01 390.41 242.43 389.88 243.87 389.39 245.33 388.94 246.79 388.53 248.27 388.16 249.75 387.82 251.25 387.52 252.76 387.27 254.27 387.05 255.78 386.87 257.31 386.73 258.83 386.63 260.36 386.57 261.9 386.55 263.43 M 1095.21 1424.84 1095.23 1426.37 1095.29 1427.91 1095.39 1429.44 1095.53 1430.96 1095.71 1432.49 1095.93 1434 1096.18 1435.51 1096.48 1437.02 1096.82 1438.52 1097.19 1440 1097.6 1441.48 1098.05 1442.94 1098.54 1444.4 1099.07 1445.84 1099.63 1447.26 1100.23 1448.67 1100.87 1450.07 1101.54 1451.45 1102.25 1452.81 1103 1454.15 1103.77 1455.47 1104.59 1456.77 1105.43 1458.05 1106.31 1459.31 1107.22 1460.54 1108.16 1461.75 1109.14 1462.93 1110.14 1464.09 1111.18 1465.22 1112.24 1466.33 1113.33 1467.41 1114.45 1468.46 1115.59 1469.47 1116.77 1470.46 1117.96 1471.42 1119.18 1472.35 1120.43 1473.24 1121.7 1474.11 1122.99 1474.93 1124.3 1475.73 1125.63 1476.49 1126.98 1477.22 1128.35 1477.91 1129.74 1478.56 1131.14 1479.18 1132.56 1479.76 1133.99 1480.31 1135.44 1480.82 1136.9 1481.29 1138.37 1481.72 1139.85 1482.11 1141.34 1482.47 1142.84 1482.78 1144.35 1483.06 1145.86 1483.3 1147.39 1483.5 1148.91 1483.66 1150.44 1483.78 1151.97 1483.86 1153.5 1483.9 1155.04 1483.9 1156.57 1483.86 1158.1 1483.78 1159.63 1483.66 1161.15 1483.5 1162.68 1483.3 1164.19 1483.06 1165.7 1482.78 1167.2 1482.47 1168.69 1482.11 1170.17 1481.72 1171.64 1481.29 1173.1 1480.82 1174.55 1480.31 1175.98 1479.76 1177.4 1479.18 1178.8 1478.56 1180.19 1477.91 1181.56 1477.22 1182.91 1476.49 1184.24 1475.73 1185.55 1474.93 1186.84 1474.11 1188.11 1473.24 1189.36 1472.35 1190.58 1471.42 1191.77 1470.46 1192.95 1469.47 1194.09 1468.46 1195.21 1467.41 1196.3 1466.33 1197.36 1465.22 1198.4 1464.09 1199.4 1462.93 1200.38 1461.75 1201.32 1460.54 1202.23 1459.31 1203.11 1458.05 1203.95 1456.77 1204.77 1455.47 1205.54 1454.15 1206.29 1452.81 1207 1451.45 1207.67 1450.07 1208.31 1448.67 1208.91 1447.26 1209.47 1445.84 1210 1444.4 1210.49 1442.94 1210.94 1441.48 1211.35 1440 1211.72 1438.52 1212.06 1437.02 1212.36 1435.51 1212.61 1434 1212.83 1432.49 1213.01 1430.96 1213.15 1429.44 1213.25 1427.91 1213.31 1426.37 1213.33 1424.84 1213.31 1423.31 1213.25 1421.77 1213.15 1420.24 1213.01 1418.72 1212.83 1417.19 1212.61 1415.68 1212.36 1414.17 1212.06 1412.66 1211.72 1411.16 1211.35 1409.68 1210.94 1408.2 1210.49 1406.74 1210 1405.28 1209.47 1403.84 1208.91 1402.42 1208.31 1401.01 1207.67 1399.61 1207 1398.23 1206.29 1396.87 1205.54 1395.53 1204.77 1394.21 1203.95 1392.91 1203.11 1391.63 1202.23 1390.37 1201.32 1389.14 1200.38 1387.93 1199.4 1386.75 1198.4 1385.59 1197.36 1384.46 1196.3 1383.35 1195.21 1382.27 1194.09 1381.22 1192.95 1380.21 1191.77 1379.22 1190.58 1378.26 1189.36 1377.33 1188.11 1376.44 1186.84 1375.57 1185.55 1374.75 1184.24 1373.95 1182.91 1373.19 1181.56 1372.46 1180.19 1371.77 1178.8 1371.12 1177.4 1370.5 1175.98 1369.92 1174.55 1369.37 1173.1 1368.86 1171.64 1368.39 1170.17 1367.96 1168.69 1367.57 1167.2 1367.21 1165.7 1366.9 1164.19 1366.62 1162.68 1366.38 1161.15 1366.18 1159.63 1366.02 1158.1 1365.9 1156.57 1365.82 1155.04 1365.78 1153.5 1365.78 1151.97 1365.82 1150.44 1365.9 1148.91 1366.02 1147.39 1366.18 1145.86 1366.38 1144.35 1366.62 1142.84 1366.9 1141.34 1367.21 1139.85 1367.57 1138.37 1367.96 1136.9 1368.39 1135.44 1368.86 1133.99 1369.37 1132.56 1369.92 1131.14 1370.5 1129.74 1371.12 1128.35 1371.77 1126.98 1372.46 1125.63 1373.19 1124.3 1373.95 1122.99 1374.75 1121.7 1375.57 1120.43 1376.44 1119.18 1377.33 1117.96 1378.26 1116.77 1379.22 1115.59 1380.21 1114.45 1381.22 1113.33 1382.27 1112.24 1383.35 1111.18 1384.46 1110.14 1385.59 1109.14 1386.75 1108.16 1387.93 1107.22 1389.14 1106.31 1390.37 1105.43 1391.63 1104.59 1392.91 1103.77 1394.21 1103 1395.53 1102.25 1396.87 1101.54 1398.23 1100.87 1399.61 1100.23 1401.01 1099.63 1402.42 1099.07 1403.84 1098.54 1405.28 1098.05 1406.74 1097.6 1408.2 1097.19 1409.68 1096.82 1411.16 1096.48 1412.66 1096.18 1414.17 1095.93 1415.68 1095.71 1417.19 1095.53 1418.72 1095.39 1420.24 1095.29 1421.77 1095.23 1423.31 1095.21 1424.84 M 1843.24 1424.84 1843.26 1426.37 1843.32 1427.91 1843.42 1429.44 1843.56 1430.96 1843.74 1432.49 1843.96 1434 1844.21 1435.51 1844.51 1437.02 1844.85 1438.52 1845.22 1440 1845.63 1441.48 1846.08 1442.94 1846.57 1444.4 1847.1 1445.84 1847.66 1447.26 1848.26 1448.67 1848.9 1450.07 1849.57 1451.45 1850.28 1452.81 1851.03 1454.15 1851.8 1455.47 1852.62 1456.77 1853.46 1458.05 1854.34 1459.31 1855.25 1460.54 1856.19 1461.75 1857.17 1462.93 1858.17 1464.09 1859.21 1465.22 1860.27 1466.33 1861.36 1467.41 1862.48 1468.46 1863.62 1469.47 1864.8 1470.46 1865.99 1471.42 1867.21 1472.35 1868.46 1473.24 1869.73 1474.11 1871.02 1474.93 1872.33 1475.73 1873.66 1476.49 1875.01 1477.22 1876.38 1477.91 1877.77 1478.56 1879.17 1479.18 1880.59 1479.76 1882.02 1480.31 1883.47 1480.82 1884.93 1481.29 1886.4 1481.72 1887.88 1482.11 1889.37 1482.47 1890.87 1482.78 1892.38 1483.06 1893.89 1483.3 1895.42 1483.5 1896.94 1483.66 1898.47 1483.78 1900 1483.86 1901.53 1483.9 1903.07 1483.9 1904.6 1483.86 1906.13 1483.78 1907.66 1483.66 1909.18 1483.5 1910.71 1483.3 1912.22 1483.06 1913.73 1482.78 1915.23 1482.47 1916.72 1482.11 1918.2 1481.72 1919.67 1481.29 1921.13 1480.82 1922.58 1480.31 1924.01 1479.76 1925.43 1479.18 1926.83 1478.56 1928.22 1477.91 1929.59 1477.22 1930.94 1476.49 1932.27 1475.73 1933.58 1474.93 1934.87 1474.11 1936.14 1473.24 1937.39 1472.35 1938.61 1471.42 1939.8 1470.46 1940.98 1469.47 1942.12 1468.46 1943.24 1467.41 1944.33 1466.33 1945.39 1465.22 1946.43 1464.09 1947.43 1462.93 1948.41 1461.75 1949.35 1460.54 1950.26 1459.31 1951.14 1458.05 1951.98 1456.77 1952.8 1455.47 1953.57 1454.15 1954.32 1452.81 1955.03 1451.45 1955.7 1450.07 1956.34 1448.67 1956.94 1447.26 1957.5 1445.84 1958.03 1444.4 1958.52 1442.94 1958.97 1441.48 1959.38 1440 1959.75 1438.52 1960.09 1437.02 1960.39 1435.51 1960.64 1434 1960.86 1432.49 1961.04 1430.96 1961.18 1429.44 1961.28 1427.91 1961.34 1426.37 1961.36 1424.84 1961.34 1423.31 1961.28 1421.77 1961.18 1420.24 1961.04 1418.72 1960.86 1417.19 1960.64 1415.68 1960.39 1414.17 1960.09 1412.66 1959.75 1411.16 1959.38 1409.68 1958.97 1408.2 1958.52 1406.74 1958.03 1405.28 1957.5 1403.84 1956.94 1402.42 1956.34 1401.01 1955.7 1399.61 1955.03 1398.23 1954.32 1396.87 1953.57 1395.53 1952.8 1394.21 1951.98 1392.91 1951.14 1391.63 1950.26 1390.37 1949.35 1389.14 1948.41 1387.93 1947.43 1386.75 1946.43 1385.59 1945.39 1384.46 1944.33 1383.35 1943.24 1382.27 1942.12 1381.22 1940.98 1380.21 1939.8 1379.22 1938.61 1378.26 1937.39 1377.33 1936.14 1376.44 1934.87 1375.57 1933.58 1374.75 1932.27 1373.95 1930.94 1373.19 1929.59 1372.46 1928.22 1371.77 1926.83 1371.12 1925.43 1370.5 1924.01 1369.92 1922.58 1369.37 1921.13 1368.86 1919.67 1368.39 1918.2 1367.96 1916.72 1367.57 1915.23 1367.21 1913.73 1366.9 1912.22 1366.62 1910.71 1366.38 1909.18 1366.18 1907.66 1366.02 1906.13 1365.9 1904.6 1365.82 1903.07 1365.78 1901.53 1365.78 1900 1365.82 1898.47 1365.9 1896.94 1366.02 1895.42 1366.18 1893.89 1366.38 1892.38 1366.62 1890.87 1366.9 1889.37 1367.21 1887.88 1367.57 1886.4 1367.96 1884.93 1368.39 1883.47 1368.86 1882.02 1369.37 1880.59 1369.92 1879.17 1370.5 1877.77 1371.12 1876.38 1371.77 1875.01 1372.46 1873.66 1373.19 1872.33 1373.95 1871.02 1374.75 1869.73 1375.57 1868.46 1376.44 1867.21 1377.33 1865.99 1378.26 1864.8 1379.22 1863.62 1380.21 1862.48 1381.22 1861.36 1382.27 1860.27 1383.35 1859.21 1384.46 1858.17 1385.59 1857.17 1386.75 1856.19 1387.93 1855.25 1389.14 1854.34 1390.37 1853.46 1391.63 1852.62 1392.91 1851.8 1394.21 1851.03 1395.53 1850.28 1396.87 1849.57 1398.23 1848.9 1399.61 1848.26 1401.01 1847.66 1402.42 1847.1 1403.84 1846.57 1405.28 1846.08 1406.74 1845.63 1408.2 1845.22 1409.68 1844.85 1411.16 1844.51 1412.66 1844.21 1414.17 1843.96 1415.68 1843.74 1417.19 1843.56 1418.72 1843.42 1420.24 1843.32 1421.77 1843.26 1423.31 1843.24 1424.84 M 2551.9 263.43 2551.92 264.96 2551.98 266.5 2552.08 268.03 2552.22 269.55 2552.4 271.08 2552.62 272.59 2552.87 274.1 2553.17 275.61 2553.51 277.11 2553.88 278.59 2554.29 280.07 2554.74 281.53 2555.23 282.99 2555.76 284.43 2556.32 285.85 2556.92 287.26 2557.56 288.66 2558.23 290.04 2558.94 291.4 2559.69 292.74 2560.46 294.06 2561.28 295.36 2562.12 296.64 2563 297.9 2563.91 299.13 2564.85 300.34 2565.83 301.52 2566.83 302.68 2567.87 303.81 2568.93 304.92 2570.02 306 2571.14 307.05 2572.28 308.06 2573.46 309.05 2574.65 310.01 2575.87 310.94 2577.12 311.83 2578.39 312.7 2579.68 313.52 2580.99 314.32 2582.32 315.08 2583.67 315.81 2585.04 316.5 2586.43 317.15 2587.83 317.77 2589.25 318.35 2590.68 318.9 2592.13 319.41 2593.59 319.88 2595.06 320.31 2596.54 320.7 2598.03 321.06 2599.53 321.37 2601.04 321.65 2602.55 321.89 2604.08 322.09 2605.6 322.25 2607.13 322.37 2608.66 322.45 2610.19 322.49 2611.73 322.49 2613.26 322.45 2614.79 322.37 2616.32 322.25 2617.84 322.09 2619.37 321.89 2620.88 321.65 2622.39 321.37 2623.89 321.06 2625.38 320.7 2626.86 320.31 2628.33 319.88 2629.79 319.41 2631.24 318.9 2632.67 318.35 2634.09 317.77 2635.49 317.15 2636.88 316.5 2638.25 315.81 2639.6 315.08 2640.93 314.32 2642.24 313.52 2643.53 312.7 2644.8 311.83 2646.05 310.94 2647.27 310.01 2648.46 309.05 2649.64 308.06 2650.78 307.05 2651.9 306 2652.99 304.92 2654.05 303.81 2655.09 302.68 2656.09 301.52 2657.07 300.34 2658.01 299.13 2658.92 297.9 2659.8 296.64 2660.64 295.36 2661.46 294.06 2662.23 292.74 2662.98 291.4 2663.69 290.04 2664.36 288.66 2665 287.26 2665.6 285.85 2666.16 284.43 2666.69 282.99 2667.18 281.53 2667.63 280.07 2668.04 278.59 2668.41 277.11 2668.75 275.61 2669.05 274.1 2669.3 272.59 2669.52 271.08 2669.7 269.55 2669.84 268.03 2669.94 266.5 2670 264.96 2670.02 263.43 2670 261.9 2669.94 260.36 2669.84 258.83 2669.7 257.31 2669.52 255.78 2669.3 254.27 2669.05 252.76 2668.75 251.25 2668.41 249.75 2668.04 248.27 2667.63 246.79 2667.18 245.33 2666.69 243.87 2666.16 242.43 2665.6 241.01 2665 239.6 2664.36 238.2 2663.69 236.82 2662.98 235.46 2662.23 234.12 2661.46 232.8 2660.64 231.5 2659.8 230.22 2658.92 228.96 2658.01 227.73 2657.07 226.52 2656.09 225.34 2655.09 224.18 2654.05 223.05 2652.99 221.94 2651.9 220.86 2650.78 219.81 2649.64 218.8 2648.46 217.81 2647.27 216.85 2646.05 215.92 2644.8 215.03 2643.53 214.16 2642.24 213.34 2640.93 212.54 2639.6 211.78 2638.25 211.05 2636.88 210.36 2635.49 209.71 2634.09 209.09 2632.67 208.51 2631.24 207.96 2629.79 207.45 2628.33 206.98 2626.86 206.55 2625.38 206.16 2623.89 205.8 2622.39 205.49 2620.88 205.21 2619.37 204.97 2617.84 204.77 2616.32 204.61 2614.79 204.49 2613.26 204.41 2611.73 204.37 2610.19 204.37 2608.66 204.41 2607.13 204.49 2605.6 204.61 2604.08 204.77 2602.55 204.97 2601.04 205.21 2599.53 205.49 2598.03 205.8 2596.54 206.16 2595.06 206.55 2593.59 206.98 2592.13 207.45 2590.68 207.96 2589.25 208.51 2587.83 209.09 2586.43 209.71 2585.04 210.36 2583.67 211.05 2582.32 211.78 2580.99 212.54 2579.68 213.34 2578.39 214.16 2577.12 215.03 2575.87 215.92 2574.65 216.85 2573.46 217.81 2572.28 218.8 2571.14 219.81 2570.02 220.86 2568.93 221.94 2567.87 223.05 2566.83 224.18 2565.83 225.34 2564.85 226.52 2563.91 227.73 2563 228.96 2562.12 230.22 2561.28 231.5 2560.46 232.8 2559.69 234.12 2558.94 235.46 2558.23 236.82 2557.56 238.2 2556.92 239.6 2556.32 241.01 2555.76 242.43 2555.23 243.87 2554.74 245.33 2554.29 246.79 2553.88 248.27 2553.51 249.75 2553.17 251.25 2552.87 252.76 2552.62 254.27 2552.4 255.78 2552.22 257.31 2552.08 258.83 2551.98 260.36 2551.92 261.9 2551.9 263.43" fill="none" stroke-width="0.39"/><use xlink:href="#urzuWhfnEQ3kRiCZd_Go_pad-12" x="2115" y="231.54"/><use xlink:href="#urzuWhfnEQ3kRiCZd_Go_pad-12" x="2040" y="231.54"/><use xlink:href="#urzuWhfnEQ3kRiCZd_Go_pad-12" x="2040" y="298.46"/><use xlink:href="#urzuWhfnEQ3kRiCZd_Go_pad-12" x="2115" y="298.46"/><use xlink:href="#urzuWhfnEQ3kRiCZd_Go_pad-12" x="1927.5" y="304.71"/><use xlink:href="#urzuWhfnEQ3kRiCZd_Go_pad-12" x="1927.5" y="237.79"/><use xlink:href="#urzuWhfnEQ3kRiCZd_Go_pad-12" x="1577.5" y="237.79"/><use xlink:href="#urzuWhfnEQ3kRiCZd_Go_pad-12" x="1477.5" y="237.79"/><use xlink:href="#urzuWhfnEQ3kRiCZd_Go_pad-12" x="1477.5" y="304.71"/><use xlink:href="#urzuWhfnEQ3kRiCZd_Go_pad-12" x="1577.5" y="304.71"/><use xlink:href="#urzuWhfnEQ3kRiCZd_Go_pad-12" x="1527.5" y="494.04"/><use xlink:href="#urzuWhfnEQ3kRiCZd_Go_pad-12" x="1527.5" y="560.96"/><use xlink:href="#urzuWhfnEQ3kRiCZd_Go_pad-12" x="1655.99" y="643.74"/><use xlink:href="#urzuWhfnEQ3kRiCZd_Go_pad-12" x="1718.49" y="643.74"/><use xlink:href="#urzuWhfnEQ3kRiCZd_Go_pad-12" x="1718.49" y="710.67"/><use xlink:href="#urzuWhfnEQ3kRiCZd_Go_pad-12" x="1655.99" y="710.67"/><use xlink:href="#urzuWhfnEQ3kRiCZd_Go_pad-12" x="1127.5" y="304.71"/><use xlink:href="#urzuWhfnEQ3kRiCZd_Go_pad-12" x="1127.5" y="237.79"/><use xlink:href="#urzuWhfnEQ3kRiCZd_Go_pad-13" x="1015" y="439.41"/><use xlink:href="#urzuWhfnEQ3kRiCZd_Go_pad-13" x="1015" y="490.59"/><use xlink:href="#urzuWhfnEQ3kRiCZd_Go_pad-13" x="1140" y="701.91"/><use xlink:href="#urzuWhfnEQ3kRiCZd_Go_pad-13" x="1140" y="753.09"/><use xlink:href="#urzuWhfnEQ3kRiCZd_Go_pad-13" x="1190" y="914.41"/><use xlink:href="#urzuWhfnEQ3kRiCZd_Go_pad-13" x="1190" y="965.59"/><use xlink:href="#urzuWhfnEQ3kRiCZd_Go_pad-13" x="1265" y="965.59"/><use xlink:href="#urzuWhfnEQ3kRiCZd_Go_pad-13" x="1265" y="914.41"/><use xlink:href="#urzuWhfnEQ3kRiCZd_Go_pad-13" x="1540" y="753.09"/><use xlink:href="#urzuWhfnEQ3kRiCZd_Go_pad-13" x="1540" y="701.91"/><use xlink:href="#urzuWhfnEQ3kRiCZd_Go_pad-13" x="1583.75" y="565.59"/><use xlink:href="#urzuWhfnEQ3kRiCZd_Go_pad-13" x="1583.75" y="514.41"/><use xlink:href="#urzuWhfnEQ3kRiCZd_Go_pad-13" x="1402.5" y="528.09"/><use xlink:href="#urzuWhfnEQ3kRiCZd_Go_pad-13" x="1402.5" y="476.91"/><use xlink:href="#urzuWhfnEQ3kRiCZd_Go_pad-13" x="1777.5" y="639.41"/><use xlink:href="#urzuWhfnEQ3kRiCZd_Go_pad-13" x="1777.5" y="690.59"/><use xlink:href="#urzuWhfnEQ3kRiCZd_Go_pad-13" x="1917.76" y="565.89"/><use xlink:href="#urzuWhfnEQ3kRiCZd_Go_pad-13" x="1917.76" y="514.7"/><use xlink:href="#urzuWhfnEQ3kRiCZd_Go_pad-13" x="2117.76" y="490.89"/><use xlink:href="#urzuWhfnEQ3kRiCZd_Go_pad-13" x="2117.76" y="439.7"/><use xlink:href="#urzuWhfnEQ3kRiCZd_Go_pad-14" x="2176.91" y="427.5"/><use xlink:href="#urzuWhfnEQ3kRiCZd_Go_pad-14" x="2228.09" y="427.5"/><use xlink:href="#urzuWhfnEQ3kRiCZd_Go_pad-14" x="2228.09" y="502.5"/><use xlink:href="#urzuWhfnEQ3kRiCZd_Go_pad-14" x="2176.91" y="502.5"/><use xlink:href="#urzuWhfnEQ3kRiCZd_Go_pad-14" x="2140.3" y="567.76"/><use xlink:href="#urzuWhfnEQ3kRiCZd_Go_pad-14" x="2089.11" y="567.76"/><use xlink:href="#urzuWhfnEQ3kRiCZd_Go_pad-14" x="1240.59" y="615"/><use xlink:href="#urzuWhfnEQ3kRiCZd_Go_pad-14" x="1189.41" y="615"/><use xlink:href="#urzuWhfnEQ3kRiCZd_Go_pad-14" x="953.09" y="502.5"/><use xlink:href="#urzuWhfnEQ3kRiCZd_Go_pad-14" x="901.91" y="502.5"/><use xlink:href="#urzuWhfnEQ3kRiCZd_Go_pad-14" x="901.91" y="427.5"/><use xlink:href="#urzuWhfnEQ3kRiCZd_Go_pad-14" x="953.09" y="427.5"/><use xlink:href="#urzuWhfnEQ3kRiCZd_Go_pad-14" x="1201.91" y="852.5"/><use xlink:href="#urzuWhfnEQ3kRiCZd_Go_pad-14" x="1253.09" y="852.5"/><use xlink:href="#urzuWhfnEQ3kRiCZd_Go_pad-15" x="1239.51" y="778.39"/><use xlink:href="#urzuWhfnEQ3kRiCZd_Go_pad-15" x="1239.51" y="752.8"/><use xlink:href="#urzuWhfnEQ3kRiCZd_Go_pad-15" x="1239.51" y="727.2"/><use xlink:href="#urzuWhfnEQ3kRiCZd_Go_pad-15" x="1239.51" y="701.61"/><use xlink:href="#urzuWhfnEQ3kRiCZd_Go_pad-15" x="1465.49" y="701.61"/><use xlink:href="#urzuWhfnEQ3kRiCZd_Go_pad-15" x="1465.49" y="727.2"/><use xlink:href="#urzuWhfnEQ3kRiCZd_Go_pad-15" x="1465.49" y="752.8"/><use xlink:href="#urzuWhfnEQ3kRiCZd_Go_pad-15" x="1465.49" y="778.39"/><use xlink:href="#urzuWhfnEQ3kRiCZd_Go_pad-15" x="1327.99" y="553.39"/><use xlink:href="#urzuWhfnEQ3kRiCZd_Go_pad-15" x="1327.99" y="527.8"/><use xlink:href="#urzuWhfnEQ3kRiCZd_Go_pad-15" x="1327.99" y="502.2"/><use xlink:href="#urzuWhfnEQ3kRiCZd_Go_pad-15" x="1327.99" y="476.61"/><use xlink:href="#urzuWhfnEQ3kRiCZd_Go_pad-15" x="1102.01" y="476.61"/><use xlink:href="#urzuWhfnEQ3kRiCZd_Go_pad-15" x="1102.01" y="502.2"/><use xlink:href="#urzuWhfnEQ3kRiCZd_Go_pad-15" x="1102.01" y="527.8"/><use xlink:href="#urzuWhfnEQ3kRiCZd_Go_pad-15" x="1102.01" y="553.39"/><use xlink:href="#urzuWhfnEQ3kRiCZd_Go_pad-16" x="1243.44" y="250.04"/><use xlink:href="#urzuWhfnEQ3kRiCZd_Go_pad-16" x="1361.56" y="250.04"/><use xlink:href="#urzuWhfnEQ3kRiCZd_Go_pad-16" x="1693.44" y="250.04"/><use xlink:href="#urzuWhfnEQ3kRiCZd_Go_pad-16" x="1811.56" y="250.04"/><use xlink:href="#urzuWhfnEQ3kRiCZd_Go_pad-17" x="1752.5" y="253.48"/><use xlink:href="#urzuWhfnEQ3kRiCZd_Go_pad-17" x="1302.5" y="253.48"/><use xlink:href="#urzuWhfnEQ3kRiCZd_Go_pad-18" x="1302.5" y="344.04"/><use xlink:href="#urzuWhfnEQ3kRiCZd_Go_pad-18" x="1752.5" y="344.04"/><use xlink:href="#urzuWhfnEQ3kRiCZd_Go_pad-19" x="2302.5" y="427.6"/><use xlink:href="#urzuWhfnEQ3kRiCZd_Go_pad-19" x="2302.5" y="502.4"/><use xlink:href="#urzuWhfnEQ3kRiCZd_Go_pad-19" x="2040" y="852.6"/><use xlink:href="#urzuWhfnEQ3kRiCZd_Go_pad-19" x="2040" y="927.4"/><use xlink:href="#urzuWhfnEQ3kRiCZd_Go_pad-19" x="827.5" y="502.4"/><use xlink:href="#urzuWhfnEQ3kRiCZd_Go_pad-19" x="752.5" y="502.4"/><use xlink:href="#urzuWhfnEQ3kRiCZd_Go_pad-19" x="752.5" y="427.6"/><use xlink:href="#urzuWhfnEQ3kRiCZd_Go_pad-19" x="827.5" y="427.6"/><use xlink:href="#urzuWhfnEQ3kRiCZd_Go_pad-20" x="1190.1" y="1040"/><use xlink:href="#urzuWhfnEQ3kRiCZd_Go_pad-20" x="1264.9" y="1040"/><use xlink:href="#urzuWhfnEQ3kRiCZd_Go_pad-21" x="1654" y="566.5"/><use xlink:href="#urzuWhfnEQ3kRiCZd_Go_pad-21" x="1654" y="547.5"/><use xlink:href="#urzuWhfnEQ3kRiCZd_Go_pad-21" x="1654" y="527.5"/><use xlink:href="#urzuWhfnEQ3kRiCZd_Go_pad-21" x="1654" y="507.5"/><use xlink:href="#urzuWhfnEQ3kRiCZd_Go_pad-21" x="1654" y="488.5"/><use xlink:href="#urzuWhfnEQ3kRiCZd_Go_pad-21" x="1826" y="488.5"/><use xlink:href="#urzuWhfnEQ3kRiCZd_Go_pad-21" x="1826" y="507.5"/><use xlink:href="#urzuWhfnEQ3kRiCZd_Go_pad-21" x="1826" y="527.5"/><use xlink:href="#urzuWhfnEQ3kRiCZd_Go_pad-21" x="1826" y="547.5"/><use xlink:href="#urzuWhfnEQ3kRiCZd_Go_pad-21" x="1826" y="566.5"/><path d="M 1246.49 1105.75 1246.49 1148.65 M 1246.49 1105.75 1234.69 1105.75 1234.69 1148.65 1246.49 1148.65 M 1246.49 1109.49 1234.69 1109.49 M 1234.69 1113.23 1246.49 1113.23 M 1246.49 1116.97 1234.69 1116.97 M 1234.69 1120.71 1246.49 1120.71 M 1246.49 1124.45 1234.69 1124.45 M 1234.69 1128.19 1246.49 1128.19 M 1246.49 1131.93 1234.69 1131.93 M 1234.69 1135.67 1246.49 1135.67 M 1246.49 1139.41 1234.69 1139.41 M 1234.69 1143.15 1246.49 1143.15 M 1246.49 1146.89 1234.69 1146.89 M 1220.9 1148.65 1220.9 1105.75 1209.1 1105.75 1209.1 1148.65 1220.9 1148.65 M 1220.9 1109.49 1209.1 1109.49 M 1209.1 1113.23 1220.9 1113.23 M 1220.9 1116.97 1209.1 1116.97 M 1209.1 1120.71 1220.9 1120.71 M 1220.9 1124.45 1209.1 1124.45 M 1209.1 1128.19 1220.9 1128.19 M 1220.9 1131.93 1209.1 1131.93 M 1209.1 1135.67 1220.9 1135.67 M 1220.9 1139.41 1209.1 1139.41 M 1209.1 1143.15 1220.9 1143.15 M 1220.9 1146.89 1209.1 1146.89 M 1195.31 1148.65 1195.31 1105.75 1183.51 1105.75 1183.51 1148.65 1195.31 1148.65 M 1195.31 1109.49 1183.51 1109.49 M 1183.51 1113.23 1195.31 1113.23 M 1195.31 1116.97 1183.51 1116.97 M 1183.51 1120.71 1195.31 1120.71 M 1195.31 1124.45 1183.51 1124.45 M 1183.51 1128.19 1195.31 1128.19 M 1195.31 1131.93 1183.51 1131.93 M 1183.51 1135.67 1195.31 1135.67 M 1195.31 1139.41 1183.51 1139.41 M 1183.51 1143.15 1195.31 1143.15 M 1195.31 1146.89 1183.51 1146.89 M 1183.51 1181.35 1183.51 1224.25 1195.31 1224.25 1195.31 1181.35 1183.51 1181.35 M 1183.51 1185.09 1195.31 1185.09 M 1195.31 1188.83 1183.51 1188.83 M 1183.51 1192.57 1195.31 1192.57 M 1195.31 1196.31 1183.51 1196.31 M 1183.51 1200.05 1195.31 1200.05 M 1195.31 1203.79 1183.51 1203.79 M 1183.51 1207.53 1195.31 1207.53 M 1195.31 1211.27 1183.51 1211.27 M 1183.51 1215.01 1195.31 1215.01 M 1195.31 1218.75 1183.51 1218.75 M 1183.51 1222.49 1195.31 1222.49 M 1209.1 1224.25 1209.1 1181.35 M 1209.1 1224.25 1220.9 1224.25 1220.9 1181.35 1209.1 1181.35 M 1209.1 1185.09 1220.9 1185.09 M 1220.9 1188.83 1209.1 1188.83 M 1209.1 1192.57 1220.9 1192.57 M 1220.9 1196.31 1209.1 1196.31 M 1209.1 1200.05 1220.9 1200.05 M 1220.9 1203.79 1209.1 1203.79 M 1209.1 1207.53 1220.9 1207.53 M 1220.9 1211.27 1209.1 1211.27 M 1209.1 1215.01 1220.9 1215.01 M 1220.9 1218.75 1209.1 1218.75 M 1209.1 1222.49 1220.9 1222.49 M 1234.69 1224.25 1234.69 1181.35 M 1234.69 1224.25 1246.49 1224.25 1246.49 1181.35 1234.69 1181.35 M 1234.69 1185.09 1246.49 1185.09 M 1246.49 1188.83 1234.69 1188.83 M 1234.69 1192.57 1246.49 1192.57 M 1246.49 1196.31 1234.69 1196.31 M 1234.69 1200.05 1246.49 1200.05 M 1246.49 1203.79 1234.69 1203.79 M 1234.69 1207.53 1246.49 1207.53 M 1246.49 1211.27 1234.69 1211.27 M 1234.69 1215.01 1246.49 1215.01 M 1246.49 1218.75 1234.69 1218.75 M 1234.69 1222.49 1246.49 1222.49" fill="none" stroke-width="3.94"/><use xlink:href="#urzuWhfnEQ3kRiCZd_Go_pad-23" x="1536.46" y="627.5"/><use xlink:href="#urzuWhfnEQ3kRiCZd_Go_pad-23" x="1593.54" y="627.5"/><use xlink:href="#urzuWhfnEQ3kRiCZd_Go_pad-24" x="1648.17" y="1129.57"/><use xlink:href="#urzuWhfnEQ3kRiCZd_Go_pad-24" x="1648.17" y="1200.43"/><use xlink:href="#urzuWhfnEQ3kRiCZd_Go_pad-24" x="1856.83" y="1200.43"/><use xlink:href="#urzuWhfnEQ3kRiCZd_Go_pad-24" x="1856.83" y="1129.57"/><use xlink:href="#urzuWhfnEQ3kRiCZd_Go_pad-25" x="1965" y="1094.72"/><use xlink:href="#urzuWhfnEQ3kRiCZd_Go_pad-25" x="1965" y="1185.28"/><use xlink:href="#urzuWhfnEQ3kRiCZd_Go_pad-26" x="1952.5" y="1012.83"/><use xlink:href="#urzuWhfnEQ3kRiCZd_Go_pad-26" x="1952.5" y="867.17"/><use xlink:href="#urzuWhfnEQ3kRiCZd_Go_pad-27" x="1955.26" y="727.5"/><use xlink:href="#urzuWhfnEQ3kRiCZd_Go_pad-27" x="2049.74" y="727.5"/><use xlink:href="#urzuWhfnEQ3kRiCZd_Go_pad-28" x="1398.46" y="1127.5"/><use xlink:href="#urzuWhfnEQ3kRiCZd_Go_pad-28" x="1331.54" y="1127.5"/><use xlink:href="#urzuWhfnEQ3kRiCZd_Go_pad-29" x="1465.1" y="1120"/><use xlink:href="#urzuWhfnEQ3kRiCZd_Go_pad-29" x="1502.5" y="1120"/><use xlink:href="#urzuWhfnEQ3kRiCZd_Go_pad-29" x="1539.9" y="1120"/><use xlink:href="#urzuWhfnEQ3kRiCZd_Go_pad-29" x="1539.9" y="1210"/><use xlink:href="#urzuWhfnEQ3kRiCZd_Go_pad-29" x="1502.5" y="1210"/><use xlink:href="#urzuWhfnEQ3kRiCZd_Go_pad-29" x="1465.1" y="1210"/><use xlink:href="#urzuWhfnEQ3kRiCZd_Go_pad-30" x="1452.5" y="1032.62"/><use xlink:href="#urzuWhfnEQ3kRiCZd_Go_pad-30" x="1365" y="1032.62"/><use xlink:href="#urzuWhfnEQ3kRiCZd_Go_pad-30" x="1540" y="1032.62"/><use xlink:href="#urzuWhfnEQ3kRiCZd_Go_pad-30" x="1665" y="945.12"/><use xlink:href="#urzuWhfnEQ3kRiCZd_Go_pad-30" x="1765" y="945.12"/><use xlink:href="#urzuWhfnEQ3kRiCZd_Go_pad-30" x="1865" y="945.12"/><use xlink:href="#urzuWhfnEQ3kRiCZd_Go_pad-30" x="1865" y="834.88"/><use xlink:href="#urzuWhfnEQ3kRiCZd_Go_pad-30" x="1765" y="834.88"/><use xlink:href="#urzuWhfnEQ3kRiCZd_Go_pad-30" x="1665" y="834.88"/><use xlink:href="#urzuWhfnEQ3kRiCZd_Go_pad-30" x="1540" y="922.38"/><use xlink:href="#urzuWhfnEQ3kRiCZd_Go_pad-30" x="1452.5" y="922.38"/><use xlink:href="#urzuWhfnEQ3kRiCZd_Go_pad-30" x="1365" y="922.38"/></g></svg>