<svg version="1.1" xmlns="http://www.w3.org/2000/svg" xmlns:xlink="http://www.w3.org/1999/xlink" stroke-linecap="round" stroke-linejoin="round" stroke-width="0" fill-rule="evenodd" width="2.40157in" height="1.37795in" viewBox="327.5 165 2401.57 1377.95" id="VQxvnhfAGqTF2Qby6Ez0"><g transform="translate(0,1707.95) scale(1,-1)" fill="currentColor" stroke="currentColor"><path d="M 327.5 165 327.5 275.24 M 327.5 165 2729.07 165 2729.07 275.24 M 2729.07 275.23 2700.93 290.42 2673.15 306.28 2645.77 322.81 2618.8 340 2592.25 357.84 2566.14 376.31 2540.48 395.41 2515.3 415.13 2490.6 435.45 2466.4 456.36 2442.71 477.85 2419.54 499.91 2396.92 522.52 2374.85 545.67 2353.35 569.35 2332.43 593.54 2312.1 618.23 2292.37 643.41 2273.26 669.05 2254.77 695.15 2236.92 721.69 2219.72 748.66 2203.18 776.03 2187.3 803.8 2172.1 831.94 2157.58 860.44 2143.76 889.28 2130.64 918.45 2118.23 947.93 2106.54 977.7 2095.57 1007.75 2085.33 1038.05 2075.82 1068.59 2067.06 1099.35 2059.05 1130.31 2051.79 1161.46 2045.28 1192.78 2039.53 1224.24 2034.55 1255.83 2030.33 1287.54 2026.88 1319.34 2024.2 1351.21 2022.29 1383.14 2021.15 1415.1 2020.79 1447.08 2021.2 1479.06 2022.39 1511.03 2024.35 1542.95 1032.22 1542.95 M 1032.23 1542.95 1034.19 1511.03 1035.38 1479.06 1035.79 1447.08 1035.43 1415.1 1034.29 1383.14 1032.38 1351.21 1029.7 1319.34 1026.25 1287.54 1022.03 1255.83 1017.05 1224.24 1011.3 1192.78 1004.79 1161.46 997.53 1130.31 989.52 1099.35 980.76 1068.59 971.25 1038.05 961.01 1007.75 950.04 977.7 938.35 947.93 925.94 918.45 912.82 889.28 899 860.44 884.48 831.94 869.28 803.8 853.4 776.03 836.86 748.66 819.66 721.69 801.81 695.15 783.32 669.05 764.21 643.41 744.48 618.23 724.15 593.54 703.23 569.35 681.73 545.67 659.66 522.52 637.04 499.91 613.87 477.85 590.18 456.36 565.98 435.45 541.28 415.13 516.1 395.41 490.44 376.31 464.33 357.84 437.78 340 410.81 322.81 383.43 306.28 355.65 290.42 327.51 275.23" fill="none" stroke-width="0"/><path d="M 386.55 263.43 386.57 264.96 386.63 266.5 386.73 268.03 386.87 269.55 387.05 271.08 387.27 272.59 387.52 274.1 387.82 275.61 388.16 277.11 388.53 278.59 388.94 280.07 389.39 281.53 389.88 282.99 390.41 284.43 390.97 285.85 391.57 287.26 392.21 288.66 392.88 290.04 393.59 291.4 394.34 292.74 395.11 294.06 395.93 295.36 396.77 296.64 397.65 297.9 398.56 299.13 399.5 300.34 400.48 301.52 401.48 302.68 402.52 303.81 403.58 304.92 404.67 306 405.79 307.05 406.93 308.06 408.11 309.05 409.3 310.01 410.52 310.94 411.77 311.83 413.04 312.7 414.33 313.52 415.64 314.32 416.97 315.08 418.32 315.81 419.69 316.5 421.08 317.15 422.48 317.77 423.9 318.35 425.33 318.9 426.78 319.41 428.24 319.88 429.71 320.31 431.19 320.7 432.68 321.06 434.18 321.37 435.69 321.65 437.2 321.89 438.73 322.09 440.25 322.25 441.78 322.37 443.31 322.45 444.84 322.49 446.38 322.49 447.91 322.45 449.44 322.37 450.97 322.25 452.49 322.09 454.02 321.89 455.53 321.65 457.04 321.37 458.54 321.06 460.03 320.7 461.51 320.31 462.98 319.88 464.44 319.41 465.89 318.9 467.32 318.35 468.74 317.77 470.14 317.15 471.53 316.5 472.9 315.81 474.25 315.08 475.58 314.32 476.89 313.52 478.18 312.7 479.45 311.83 480.7 310.94 481.92 310.01 483.11 309.05 484.29 308.06 485.43 307.05 486.55 306 487.64 304.92 488.7 303.81 489.74 302.68 490.74 301.52 491.72 300.34 492.66 299.13 493.57 297.9 494.45 296.64 495.29 295.36 496.11 294.06 496.88 292.74 497.63 291.4 498.34 290.04 499.01 288.66 499.65 287.26 500.25 285.85 500.81 284.43 501.34 282.99 501.83 281.53 502.28 280.07 502.69 278.59 503.06 277.11 503.4 275.61 503.7 274.1 503.95 272.59 504.17 271.08 504.35 269.55 504.49 268.03 504.59 266.5 504.65 264.96 504.67 263.43 504.65 261.9 504.59 260.36 504.49 258.83 504.35 257.31 504.17 255.78 503.95 254.27 503.7 252.76 503.4 251.25 503.06 249.75 502.69 248.27 502.28 246.79 501.83 245.33 501.34 243.87 500.81 242.43 500.25 241.01 499.65 239.6 499.01 238.2 498.34 236.82 497.63 235.46 496.88 234.12 496.11 232.8 495.29 231.5 494.45 230.22 493.57 228.96 492.66 227.73 491.72 226.52 490.74 225.34 489.74 224.18 488.7 223.05 487.64 221.94 486.55 220.86 485.43 219.81 484.29 218.8 483.11 217.81 481.92 216.85 480.7 215.92 479.45 215.03 478.18 214.16 476.89 213.34 475.58 212.54 474.25 211.78 472.9 211.05 471.53 210.36 470.14 209.71 468.74 209.09 467.32 208.51 465.89 207.96 464.44 207.45 462.98 206.98 461.51 206.55 460.03 206.16 458.54 205.8 457.04 205.49 455.53 205.21 454.02 204.97 452.49 204.77 450.97 204.61 449.44 204.49 447.91 204.41 446.38 204.37 444.84 204.37 443.31 204.41 441.78 204.49 440.25 204.61 438.73 204.77 437.2 204.97 435.69 205.21 434.18 205.49 432.68 205.8 431.19 206.16 429.71 206.55 428.24 206.98 426.78 207.45 425.33 207.96 423.9 208.51 422.48 209.09 421.08 209.71 419.69 210.36 418.32 211.05 416.97 211.78 415.64 212.54 414.33 213.34 413.04 214.16 411.77 215.03 410.52 215.92 409.3 216.85 408.11 217.81 406.93 218.8 405.79 219.81 404.67 220.86 403.58 221.94 402.52 223.05 401.48 224.18 400.48 225.34 399.5 226.52 398.56 227.73 397.65 228.96 396.77 230.22 395.93 231.5 395.11 232.8 394.34 234.12 393.59 235.46 392.88 236.82 392.21 238.2 391.57 239.6 390.97 241.01 390.41 242.43 389.88 243.87 389.39 245.33 388.94 246.79 388.53 248.27 388.16 249.75 387.82 251.25 387.52 252.76 387.27 254.27 387.05 255.78 386.87 257.31 386.73 258.83 386.63 260.36 386.57 261.9 386.55 263.43 M 1095.21 1424.84 1095.23 1426.37 1095.29 1427.91 1095.39 1429.44 1095.53 1430.96 1095.71 1432.49 1095.93 1434 1096.18 1435.51 1096.48 1437.02 1096.82 1438.52 1097.19 1440 1097.6 1441.48 1098.05 1442.94 1098.54 1444.4 1099.07 1445.84 1099.63 1447.26 1100.23 1448.67 1100.87 1450.07 1101.54 1451.45 1102.25 1452.81 1103 1454.15 1103.77 1455.47 1104.59 1456.77 1105.43 1458.05 1106.31 1459.31 1107.22 1460.54 1108.16 1461.75 1109.14 1462.93 1110.14 1464.09 1111.18 1465.22 1112.24 1466.33 1113.33 1467.41 1114.45 1468.46 1115.59 1469.47 1116.77 1470.46 1117.96 1471.42 1119.18 1472.35 1120.43 1473.24 1121.7 1474.11 1122.99 1474.93 1124.3 1475.73 1125.63 1476.49 1126.98 1477.22 1128.35 1477.91 1129.74 1478.56 1131.14 1479.18 1132.56 1479.76 1133.99 1480.31 1135.44 1480.82 1136.9 1481.29 1138.37 1481.72 1139.85 1482.11 1141.34 1482.47 1142.84 1482.78 1144.35 1483.06 1145.86 1483.3 1147.39 1483.5 1148.91 1483.66 1150.44 1483.78 1151.97 1483.86 1153.5 1483.9 1155.04 1483.9 1156.57 1483.86 1158.1 1483.78 1159.63 1483.66 1161.15 1483.5 1162.68 1483.3 1164.19 1483.06 1165.7 1482.78 1167.2 1482.47 1168.69 1482.11 1170.17 1481.72 1171.64 1481.29 1173.1 1480.82 1174.55 1480.31 1175.98 1479.76 1177.4 1479.18 1178.8 1478.56 1180.19 1477.91 1181.56 1477.22 1182.91 1476.49 1184.24 1475.73 1185.55 1474.93 1186.84 1474.11 1188.11 1473.24 1189.36 1472.35 1190.58 1471.42 1191.77 1470.46 1192.95 1469.47 1194.09 1468.46 1195.21 1467.41 1196.3 1466.33 1197.36 1465.22 1198.4 1464.09 1199.4 1462.93 1200.38 1461.75 1201.32 1460.54 1202.23 1459.31 1203.11 1458.05 1203.95 1456.77 1204.77 1455.47 1205.54 1454.15 1206.29 1452.81 1207 1451.45 1207.67 1450.07 1208.31 1448.67 1208.91 1447.26 1209.47 1445.84 1210 1444.4 1210.49 1442.94 1210.94 1441.48 1211.35 1440 1211.72 1438.52 1212.06 1437.02 1212.36 1435.51 1212.61 1434 1212.83 1432.49 1213.01 1430.96 1213.15 1429.44 1213.25 1427.91 1213.31 1426.37 1213.33 1424.84 1213.31 1423.31 1213.25 1421.77 1213.15 1420.24 1213.01 1418.72 1212.83 1417.19 1212.61 1415.68 1212.36 1414.17 1212.06 1412.66 1211.72 1411.16 1211.35 1409.68 1210.94 1408.2 1210.49 1406.74 1210 1405.28 1209.47 1403.84 1208.91 1402.42 1208.31 1401.01 1207.67 1399.61 1207 1398.23 1206.29 1396.87 1205.54 1395.53 1204.77 1394.21 1203.95 1392.91 1203.11 1391.63 1202.23 1390.37 1201.32 1389.14 1200.38 1387.93 1199.4 1386.75 1198.4 1385.59 1197.36 1384.46 1196.3 1383.35 1195.21 1382.27 1194.09 1381.22 1192.95 1380.21 1191.77 1379.22 1190.58 1378.26 1189.36 1377.33 1188.11 1376.44 1186.84 1375.57 1185.55 1374.75 1184.24 1373.95 1182.91 1373.19 1181.56 1372.46 1180.19 1371.77 1178.8 1371.12 1177.4 1370.5 1175.98 1369.92 1174.55 1369.37 1173.1 1368.86 1171.64 1368.39 1170.17 1367.96 1168.69 1367.57 1167.2 1367.21 1165.7 1366.9 1164.19 1366.62 1162.68 1366.38 1161.15 1366.18 1159.63 1366.02 1158.1 1365.9 1156.57 1365.82 1155.04 1365.78 1153.5 1365.78 1151.97 1365.82 1150.44 1365.9 1148.91 1366.02 1147.39 1366.18 1145.86 1366.38 1144.35 1366.62 1142.84 1366.9 1141.34 1367.21 1139.85 1367.57 1138.37 1367.96 1136.9 1368.39 1135.44 1368.86 1133.99 1369.37 1132.56 1369.92 1131.14 1370.5 1129.74 1371.12 1128.35 1371.77 1126.98 1372.46 1125.63 1373.19 1124.3 1373.95 1122.99 1374.75 1121.7 1375.57 1120.43 1376.44 1119.18 1377.33 1117.96 1378.26 1116.77 1379.22 1115.59 1380.21 1114.45 1381.22 1113.33 1382.27 1112.24 1383.35 1111.18 1384.46 1110.14 1385.59 1109.14 1386.75 1108.16 1387.93 1107.22 1389.14 1106.31 1390.37 1105.43 1391.63 1104.59 1392.91 1103.77 1394.21 1103 1395.53 1102.25 1396.87 1101.54 1398.23 1100.87 1399.61 1100.23 1401.01 1099.63 1402.42 1099.07 1403.84 1098.54 1405.28 1098.05 1406.74 1097.6 1408.2 1097.19 1409.68 1096.82 1411.16 1096.48 1412.66 1096.18 1414.17 1095.93 1415.68 1095.71 1417.19 1095.53 1418.72 1095.39 1420.24 1095.29 1421.77 1095.23 1423.31 1095.21 1424.84 M 1843.24 1424.84 1843.26 1426.37 1843.32 1427.91 1843.42 1429.44 1843.56 1430.96 1843.74 1432.49 1843.96 1434 1844.21 1435.51 1844.51 1437.02 1844.85 1438.52 1845.22 1440 1845.63 1441.48 1846.08 1442.94 1846.57 1444.4 1847.1 1445.84 1847.66 1447.26 1848.26 1448.67 1848.9 1450.07 1849.57 1451.45 1850.28 1452.81 1851.03 1454.15 1851.8 1455.47 1852.62 1456.77 1853.46 1458.05 1854.34 1459.31 1855.25 1460.54 1856.19 1461.75 1857.17 1462.93 1858.17 1464.09 1859.21 1465.22 1860.27 1466.33 1861.36 1467.41 1862.48 1468.46 1863.62 1469.47 1864.8 1470.46 1865.99 1471.42 1867.21 1472.35 1868.46 1473.24 1869.73 1474.11 1871.02 1474.93 1872.33 1475.73 1873.66 1476.49 1875.01 1477.22 1876.38 1477.91 1877.77 1478.56 1879.17 1479.18 1880.59 1479.76 1882.02 1480.31 1883.47 1480.82 1884.93 1481.29 1886.4 1481.72 1887.88 1482.11 1889.37 1482.47 1890.87 1482.78 1892.38 1483.06 1893.89 1483.3 1895.42 1483.5 1896.94 1483.66 1898.47 1483.78 1900 1483.86 1901.53 1483.9 1903.07 1483.9 1904.6 1483.86 1906.13 1483.78 1907.66 1483.66 1909.18 1483.5 1910.71 1483.3 1912.22 1483.06 1913.73 1482.78 1915.23 1482.47 1916.72 1482.11 1918.2 1481.72 1919.67 1481.29 1921.13 1480.82 1922.58 1480.31 1924.01 1479.76 1925.43 1479.18 1926.83 1478.56 1928.22 1477.91 1929.59 1477.22 1930.94 1476.49 1932.27 1475.73 1933.58 1474.93 1934.87 1474.11 1936.14 1473.24 1937.39 1472.35 1938.61 1471.42 1939.8 1470.46 1940.98 1469.47 1942.12 1468.46 1943.24 1467.41 1944.33 1466.33 1945.39 1465.22 1946.43 1464.09 1947.43 1462.93 1948.41 1461.75 1949.35 1460.54 1950.26 1459.31 1951.14 1458.05 1951.98 1456.77 1952.8 1455.47 1953.57 1454.15 1954.32 1452.81 1955.03 1451.45 1955.7 1450.07 1956.34 1448.67 1956.94 1447.26 1957.5 1445.84 1958.03 1444.4 1958.52 1442.94 1958.97 1441.48 1959.38 1440 1959.75 1438.52 1960.09 1437.02 1960.39 1435.51 1960.64 1434 1960.86 1432.49 1961.04 1430.96 1961.18 1429.44 1961.28 1427.91 1961.34 1426.37 1961.36 1424.84 1961.34 1423.31 1961.28 1421.77 1961.18 1420.24 1961.04 1418.72 1960.86 1417.19 1960.64 1415.68 1960.39 1414.17 1960.09 1412.66 1959.75 1411.16 1959.38 1409.68 1958.97 1408.2 1958.52 1406.74 1958.03 1405.28 1957.5 1403.84 1956.94 1402.42 1956.34 1401.01 1955.7 1399.61 1955.03 1398.23 1954.32 1396.87 1953.57 1395.53 1952.8 1394.21 1951.98 1392.91 1951.14 1391.63 1950.26 1390.37 1949.35 1389.14 1948.41 1387.93 1947.43 1386.75 1946.43 1385.59 1945.39 1384.46 1944.33 1383.35 1943.24 1382.27 1942.12 1381.22 1940.98 1380.21 1939.8 1379.22 1938.61 1378.26 1937.39 1377.33 1936.14 1376.44 1934.87 1375.57 1933.58 1374.75 1932.27 1373.95 1930.94 1373.19 1929.59 1372.46 1928.22 1371.77 1926.83 1371.12 1925.43 1370.5 1924.01 1369.92 1922.58 1369.37 1921.13 1368.86 1919.67 1368.39 1918.2 1367.96 1916.72 1367.57 1915.23 1367.21 1913.73 1366.9 1912.22 1366.62 1910.71 1366.38 1909.18 1366.18 1907.66 1366.02 1906.13 1365.9 1904.6 1365.82 1903.07 1365.78 1901.53 1365.78 1900 1365.82 1898.47 1365.9 1896.94 1366.02 1895.42 1366.18 1893.89 1366.38 1892.38 1366.62 1890.87 1366.9 1889.37 1367.21 1887.88 1367.57 1886.4 1367.96 1884.93 1368.39 1883.47 1368.86 1882.02 1369.37 1880.59 1369.92 1879.17 1370.5 1877.77 1371.12 1876.38 1371.77 1875.01 1372.46 1873.66 1373.19 1872.33 1373.95 1871.02 1374.75 1869.73 1375.57 1868.46 1376.44 1867.21 1377.33 1865.99 1378.26 1864.8 1379.22 1863.62 1380.21 1862.48 1381.22 1861.36 1382.27 1860.27 1383.35 1859.21 1384.46 1858.17 1385.59 1857.17 1386.75 1856.19 1387.93 1855.25 1389.14 1854.34 1390.37 1853.46 1391.63 1852.62 1392.91 1851.8 1394.21 1851.03 1395.53 1850.28 1396.87 1849.57 1398.23 1848.9 1399.61 1848.26 1401.01 1847.66 1402.42 1847.1 1403.84 1846.57 1405.28 1846.08 1406.74 1845.63 1408.2 1845.22 1409.68 1844.85 1411.16 1844.51 1412.66 1844.21 1414.17 1843.96 1415.68 1843.74 1417.19 1843.56 1418.72 1843.42 1420.24 1843.32 1421.77 1843.26 1423.31 1843.24 1424.84 M 2551.9 263.43 2551.92 264.96 2551.98 266.5 2552.08 268.03 2552.22 269.55 2552.4 271.08 2552.62 272.59 2552.87 274.1 2553.17 275.61 2553.51 277.11 2553.88 278.59 2554.29 280.07 2554.74 281.53 2555.23 282.99 2555.76 284.43 2556.32 285.85 2556.92 287.26 2557.56 288.66 2558.23 290.04 2558.94 291.4 2559.69 292.74 2560.46 294.06 2561.28 295.36 2562.12 296.64 2563 297.9 2563.91 299.13 2564.85 300.34 2565.83 301.52 2566.83 302.68 2567.87 303.81 2568.93 304.92 2570.02 306 2571.14 307.05 2572.28 308.06 2573.46 309.05 2574.65 310.01 2575.87 310.94 2577.12 311.83 2578.39 312.7 2579.68 313.52 2580.99 314.32 2582.32 315.08 2583.67 315.81 2585.04 316.5 2586.43 317.15 2587.83 317.77 2589.25 318.35 2590.68 318.9 2592.13 319.41 2593.59 319.88 2595.06 320.31 2596.54 320.7 2598.03 321.06 2599.53 321.37 2601.04 321.65 2602.55 321.89 2604.08 322.09 2605.6 322.25 2607.13 322.37 2608.66 322.45 2610.19 322.49 2611.73 322.49 2613.26 322.45 2614.79 322.37 2616.32 322.25 2617.84 322.09 2619.37 321.89 2620.88 321.65 2622.39 321.37 2623.89 321.06 2625.38 320.7 2626.86 320.31 2628.33 319.88 2629.79 319.41 2631.24 318.9 2632.67 318.35 2634.09 317.77 2635.49 317.15 2636.88 316.5 2638.25 315.81 2639.6 315.08 2640.93 314.32 2642.24 313.52 2643.53 312.7 2644.8 311.83 2646.05 310.94 2647.27 310.01 2648.46 309.05 2649.64 308.06 2650.78 307.05 2651.9 306 2652.99 304.92 2654.05 303.81 2655.09 302.68 2656.09 301.52 2657.07 300.34 2658.01 299.13 2658.92 297.9 2659.8 296.64 2660.64 295.36 2661.46 294.06 2662.23 292.74 2662.98 291.4 2663.69 290.04 2664.36 288.66 2665 287.26 2665.6 285.85 2666.16 284.43 2666.69 282.99 2667.18 281.53 2667.63 280.07 2668.04 278.59 2668.41 277.11 2668.75 275.61 2669.05 274.1 2669.3 272.59 2669.52 271.08 2669.7 269.55 2669.84 268.03 2669.94 266.5 2670 264.96 2670.02 263.43 2670 261.9 2669.94 260.36 2669.84 258.83 2669.7 257.31 2669.52 255.78 2669.3 254.27 2669.05 252.76 2668.75 251.25 2668.41 249.75 2668.04 248.27 2667.63 246.79 2667.18 245.33 2666.69 243.87 2666.16 242.43 2665.6 241.01 2665 239.6 2664.36 238.2 2663.69 236.82 2662.98 235.46 2662.23 234.12 2661.46 232.8 2660.64 231.5 2659.8 230.22 2658.92 228.96 2658.01 227.73 2657.07 226.52 2656.09 225.34 2655.09 224.18 2654.05 223.05 2652.99 221.94 2651.9 220.86 2650.78 219.81 2649.64 218.8 2648.46 217.81 2647.27 216.85 2646.05 215.92 2644.8 215.03 2643.53 214.16 2642.24 213.34 2640.93 212.54 2639.6 211.78 2638.25 211.05 2636.88 210.36 2635.49 209.71 2634.09 209.09 2632.67 208.51 2631.24 207.96 2629.79 207.45 2628.33 206.98 2626.86 206.55 2625.38 206.16 2623.89 205.8 2622.39 205.49 2620.88 205.21 2619.37 204.97 2617.84 204.77 2616.32 204.61 2614.79 204.49 2613.26 204.41 2611.73 204.37 2610.19 204.37 2608.66 204.41 2607.13 204.49 2605.6 204.61 2604.08 204.77 2602.55 204.97 2601.04 205.21 2599.53 205.49 2598.03 205.8 2596.54 206.16 2595.06 206.55 2593.59 206.98 2592.13 207.45 2590.68 207.96 2589.25 208.51 2587.83 209.09 2586.43 209.71 2585.04 210.36 2583.67 211.05 2582.32 211.78 2580.99 212.54 2579.68 213.34 2578.39 214.16 2577.12 215.03 2575.87 215.92 2574.65 216.85 2573.46 217.81 2572.28 218.8 2571.14 219.81 2570.02 220.86 2568.93 221.94 2567.87 223.05 2566.83 224.18 2565.83 225.34 2564.85 226.52 2563.91 227.73 2563 228.96 2562.12 230.22 2561.28 231.5 2560.46 232.8 2559.69 234.12 2558.94 235.46 2558.23 236.82 2557.56 238.2 2556.92 239.6 2556.32 241.01 2555.76 242.43 2555.23 243.87 2554.74 245.33 2554.29 246.79 2553.88 248.27 2553.51 249.75 2553.17 251.25 2552.87 252.76 2552.62 254.27 2552.4 255.78 2552.22 257.31 2552.08 258.83 2551.98 260.36 2551.92 261.9 2551.9 263.43" fill="none" stroke-width="0.39"/><path d="M 2215.59 575.63 2215.61 576.02 2215.67 576.41 2215.77 576.79 2215.9 577.16 2216.07 577.51 2216.27 577.85 2216.51 578.16 2216.78 578.45 2217.07 578.71 2217.39 578.94 2217.73 579.14 2218.09 579.3 2218.46 579.42 2218.85 579.51 2219.24 579.56 2219.63 579.57 2220.02 579.54 2220.41 579.47 2220.78 579.36 2221.15 579.22 2221.5 579.04 2221.83 578.83 2222.14 578.58 2222.42 578.31 2222.67 578.01 2222.89 577.68 2223.08 577.34 2223.23 576.98 2223.35 576.6 2223.43 576.22 2223.47 575.83 2223.47 575.43 2223.43 575.04 2223.35 574.66 2223.23 574.28 2223.08 573.92 2222.89 573.58 2222.67 573.25 2222.42 572.95 2222.14 572.68 2221.83 572.43 2221.5 572.22 2221.15 572.04 2220.78 571.9 2220.41 571.79 2220.02 571.72 2219.63 571.69 2219.24 571.7 2218.85 571.75 2218.46 571.84 2218.09 571.96 2217.73 572.12 2217.39 572.32 2217.07 572.55 2216.78 572.81 2216.51 573.1 2216.27 573.41 2216.07 573.75 2215.9 574.1 2215.77 574.47 2215.67 574.85 2215.61 575.24 2215.59 575.63" fill="none" stroke-width="7.87"/><path d="M 2138.82 596.3 1965.59 596.3 M 1965.59 478.19 2138.82 478.19" fill="none" stroke-width="5"/><path d="M 2152.88 613.24 2157.77 613.24 2158.2 613.26 2158.62 613.31 2159.04 613.41 2159.44 613.53 2159.84 613.7 2160.22 613.9 2160.57 614.12 2160.91 614.38 2161.23 614.67 2161.52 614.99 2161.78 615.33 2162 615.69 2162.2 616.06 2162.37 616.46 2162.49 616.86 2162.59 617.28 2162.64 617.7 2162.66 618.13 2162.66 630.36 2162.64 630.79 2162.59 631.21 2162.49 631.63 2162.37 632.03 2162.2 632.43 2162 632.81 2161.78 633.16 2161.52 633.5 2161.23 633.82 2160.91 634.11 2160.57 634.37 2160.22 634.59 2159.84 634.79 2159.44 634.96 2159.04 635.08 2158.62 635.18 2158.2 635.23 2157.77 635.25 M 2157.77 635.24 2152.88 635.24 M 2143.37 630.36 2143.35 629.93 2143.3 629.51 2143.2 629.09 2143.08 628.69 2142.91 628.29 2142.71 627.92 2142.49 627.56 2142.23 627.22 2141.94 626.9 2141.62 626.61 2141.28 626.35 2140.93 626.13 2140.55 625.93 2140.15 625.76 2139.75 625.64 2139.33 625.54 2138.91 625.49 2138.48 625.47 2138.05 625.49 2137.63 625.54 2137.21 625.64 2136.81 625.76 2136.41 625.93 2136.04 626.13 2135.68 626.35 2135.34 626.61 2135.02 626.9 2134.73 627.22 2134.47 627.56 2134.25 627.92 2134.05 628.29 2133.88 628.69 2133.76 629.09 2133.66 629.51 2133.61 629.93 2133.59 630.36 2133.61 630.79 2133.66 631.21 2133.76 631.63 2133.88 632.03 2134.05 632.43 2134.25 632.81 2134.47 633.16 2134.73 633.5 2135.02 633.82 2135.34 634.11 2135.68 634.37 2136.04 634.59 2136.41 634.79 2136.81 634.96 2137.21 635.08 2137.63 635.18 2138.05 635.23 2138.48 635.25 2138.91 635.23 2139.33 635.18 2139.75 635.08 2140.15 634.96 2140.55 634.79 2140.93 634.59 2141.28 634.37 2141.62 634.11 2141.94 633.82 2142.23 633.5 2142.49 633.16 2142.71 632.81 2142.91 632.43 2143.08 632.03 2143.2 631.63 2143.3 631.21 2143.35 630.79 2143.37 630.36 M 2144.59 619.36 2144.57 618.88 2144.51 618.4 2144.42 617.93 2144.29 617.47 2144.12 617.02 2143.92 616.59 2143.69 616.17 2143.42 615.77 2143.13 615.39 2142.8 615.04 2142.45 614.71 2142.07 614.42 2141.67 614.15 2141.25 613.92 2140.82 613.72 2140.37 613.55 2139.91 613.42 2139.44 613.33 2138.96 613.27 2138.48 613.25 2138 613.27 2137.52 613.33 2137.05 613.42 2136.59 613.55 2136.14 613.72 2135.71 613.92 2135.29 614.15 2134.89 614.42 2134.51 614.71 2134.16 615.04 2133.83 615.39 2133.54 615.77 2133.27 616.17 2133.04 616.59 2132.84 617.02 2132.67 617.47 2132.54 617.93 2132.45 618.4 2132.39 618.88 2132.37 619.36 2132.39 619.84 2132.45 620.32 2132.54 620.79 2132.67 621.25 2132.84 621.7 2133.04 622.13 2133.27 622.55 2133.54 622.95 2133.83 623.33 2134.16 623.68 2134.51 624.01 2134.89 624.3 2135.29 624.57 2135.71 624.8 2136.14 625 2136.59 625.17 2137.05 625.3 2137.52 625.39 2138 625.45 2138.48 625.47 2138.96 625.45 2139.44 625.39 2139.91 625.3 2140.37 625.17 2140.82 625 2141.25 624.8 2141.67 624.57 2142.07 624.3 2142.45 624.01 2142.8 623.68 2143.13 623.33 2143.42 622.95 2143.69 622.55 2143.92 622.13 2144.12 621.7 2144.29 621.25 2144.42 620.79 2144.51 620.32 2144.57 619.84 2144.59 619.36 M 2171.32 613.24 2176.2 613.24 M 2173.76 613.24 2173.76 635.24 M 2176.2 635.24 2171.32 635.24 M 1413 618.57 1391 618.57 M 1391 612.46 1391 624.68 M 1391 636.5 1391.02 637.11 1391.08 637.73 1391.17 638.33 1391.31 638.93 1391.48 639.52 1391.69 640.1 1391.93 640.66 1392.21 641.21 1392.52 641.74 1392.87 642.25 1393.24 642.73 1393.65 643.19 1394.09 643.63 1394.55 644.04 1395.03 644.41 1395.54 644.76 1396.07 645.07 1396.62 645.35 1397.18 645.59 1397.76 645.8 1398.35 645.97 1398.95 646.11 1399.55 646.2 1400.17 646.26 1400.78 646.28 1406.89 646.28 1407.37 646.26 1407.85 646.2 1408.32 646.11 1408.78 645.98 1409.23 645.81 1409.66 645.61 1410.08 645.38 1410.48 645.11 1410.86 644.82 1411.21 644.49 1411.54 644.14 1411.83 643.76 1412.1 643.36 1412.33 642.94 1412.53 642.51 1412.7 642.06 1412.83 641.6 1412.92 641.13 1412.98 640.65 1413 640.17 1412.98 639.69 1412.92 639.21 1412.83 638.74 1412.7 638.28 1412.53 637.83 1412.33 637.4 1412.1 636.98 1411.83 636.58 1411.54 636.2 1411.21 635.85 1410.86 635.52 1410.48 635.23 1410.08 634.96 1409.66 634.73 1409.23 634.53 1408.78 634.36 1408.32 634.23 1407.85 634.14 1407.37 634.08 1406.89 634.06 1405.67 634.06 1405.24 634.08 1404.82 634.13 1404.4 634.23 1404 634.35 1403.6 634.52 1403.23 634.72 1402.87 634.94 1402.53 635.2 1402.21 635.49 1401.92 635.81 1401.66 636.15 1401.44 636.5 1401.24 636.88 1401.07 637.28 1400.95 637.68 1400.85 638.1 1400.8 638.52 1400.78 638.95 1400.78 646.28 M 1413 618.57 1408.11 612.46 M 1413 597.11 1412.98 597.59 1412.92 598.07 1412.83 598.54 1412.7 599 1412.53 599.45 1412.33 599.88 1412.1 600.3 1411.83 600.7 1411.54 601.08 1411.21 601.43 1410.86 601.76 1410.48 602.05 1410.08 602.32 1409.66 602.55 1409.23 602.75 1408.78 602.92 1408.32 603.05 1407.85 603.14 1407.37 603.2 1406.89 603.22 1406.41 603.2 1405.93 603.14 1405.46 603.05 1405 602.92 1404.55 602.75 1404.12 602.55 1403.7 602.32 1403.3 602.05 1402.92 601.76 1402.57 601.43 1402.24 601.08 1401.95 600.7 1401.68 600.3 1401.45 599.88 1401.25 599.45 1401.08 599 1400.95 598.54 1400.86 598.07 1400.8 597.59 1400.78 597.11 1400.78 591 M 1400.78 598.33 1391 603.22 M 1391 591 1413 591 1413 597.11 M 1338 597.11 1338 591 1316 591 M 1325.78 591 1325.78 597.11 M 1325.78 598.33 1316 603.22 M 1316 612.46 1316 624.68 M 1316 618.57 1338 618.57 1333.11 612.46 M 1338 597.11 1337.98 597.59 1337.92 598.07 1337.83 598.54 1337.7 599 1337.53 599.45 1337.33 599.88 1337.1 600.3 1336.83 600.7 1336.54 601.08 1336.21 601.43 1335.86 601.76 1335.48 602.05 1335.08 602.32 1334.66 602.55 1334.23 602.75 1333.78 602.92 1333.32 603.05 1332.85 603.14 1332.37 603.2 1331.89 603.22 1331.41 603.2 1330.93 603.14 1330.46 603.05 1330 602.92 1329.55 602.75 1329.12 602.55 1328.7 602.32 1328.3 602.05 1327.92 601.76 1327.57 601.43 1327.24 601.08 1326.95 600.7 1326.68 600.3 1326.45 599.88 1326.25 599.45 1326.08 599 1325.95 598.54 1325.86 598.07 1325.8 597.59 1325.78 597.11 M 1322.11 634.06 1321.63 634.08 1321.15 634.14 1320.68 634.23 1320.22 634.36 1319.77 634.53 1319.34 634.73 1318.92 634.96 1318.52 635.23 1318.14 635.52 1317.79 635.85 1317.46 636.2 1317.17 636.58 1316.9 636.98 1316.67 637.4 1316.47 637.83 1316.3 638.28 1316.17 638.74 1316.08 639.21 1316.02 639.69 1316 640.17 1316.02 640.65 1316.08 641.13 1316.17 641.6 1316.3 642.06 1316.47 642.51 1316.67 642.94 1316.9 643.36 1317.17 643.76 1317.46 644.14 1317.79 644.49 1318.14 644.82 1318.52 645.11 1318.92 645.38 1319.34 645.61 1319.77 645.81 1320.22 645.98 1320.68 646.11 1321.15 646.2 1321.63 646.26 1322.11 646.28 1322.59 646.26 1323.07 646.2 1323.54 646.11 1324 645.98 1324.45 645.81 1324.88 645.61 1325.3 645.38 1325.7 645.11 1326.08 644.82 1326.43 644.49 1326.76 644.14 1327.05 643.76 1327.32 643.36 1327.55 642.94 1327.75 642.51 1327.92 642.06 1328.05 641.6 1328.14 641.13 1328.2 640.65 1328.22 640.17 1328.2 639.69 1328.14 639.21 1328.05 638.74 1327.92 638.28 1327.75 637.83 1327.55 637.4 1327.32 636.98 1327.05 636.58 1326.76 636.2 1326.43 635.85 1326.08 635.52 1325.7 635.23 1325.3 634.96 1324.88 634.73 1324.45 634.53 1324 634.36 1323.54 634.23 1323.07 634.14 1322.59 634.08 1322.11 634.06 M 1333.11 635.28 1332.68 635.3 1332.26 635.35 1331.84 635.45 1331.44 635.57 1331.04 635.74 1330.67 635.94 1330.31 636.16 1329.97 636.42 1329.65 636.71 1329.36 637.03 1329.1 637.37 1328.88 637.73 1328.68 638.1 1328.51 638.5 1328.39 638.9 1328.29 639.32 1328.24 639.74 1328.22 640.17 1328.24 640.6 1328.29 641.02 1328.39 641.44 1328.51 641.84 1328.68 642.24 1328.88 642.62 1329.1 642.97 1329.36 643.31 1329.65 643.63 1329.97 643.92 1330.31 644.18 1330.67 644.4 1331.04 644.6 1331.44 644.77 1331.84 644.89 1332.26 644.99 1332.68 645.04 1333.11 645.06 1333.54 645.04 1333.96 644.99 1334.38 644.89 1334.78 644.77 1335.18 644.6 1335.56 644.4 1335.91 644.18 1336.25 643.92 1336.57 643.63 1336.86 643.31 1337.12 642.97 1337.34 642.62 1337.54 642.24 1337.71 641.84 1337.83 641.44 1337.93 641.02 1337.98 640.6 1338 640.17 1337.98 639.74 1337.93 639.32 1337.83 638.9 1337.71 638.5 1337.54 638.1 1337.34 637.73 1337.12 637.37 1336.86 637.03 1336.57 636.71 1336.25 636.42 1335.91 636.16 1335.56 635.94 1335.18 635.74 1334.78 635.57 1334.38 635.45 1333.96 635.35 1333.54 635.3 1333.11 635.28 M 1250.89 583.11 1250.87 583.54 1250.82 583.96 1250.72 584.38 1250.6 584.78 1250.43 585.18 1250.23 585.56 1250.01 585.91 1249.75 586.25 1249.46 586.57 1249.14 586.86 1248.8 587.12 1248.45 587.34 1248.07 587.54 1247.67 587.71 1247.27 587.83 1246.85 587.93 1246.43 587.98 1246 588 M 1250.89 583.11 1250.87 582.68 1250.82 582.25 1250.72 581.83 1250.6 581.42 1250.43 581.03 1250.24 580.64 1250.01 580.28 1249.75 579.94 1249.46 579.62 1249.14 579.33 1248.8 579.06 1248.44 578.83 1241.72 575.17 M 1244.17 566 1244.8 566.02 1245.42 566.08 1246.04 566.17 1246.66 566.3 1247.26 566.47 1247.85 566.68 1248.43 566.92 1248.99 567.2 1249.54 567.51 1250.07 567.85 1250.57 568.22 1251.05 568.62 1251.5 569.06 M 1241.72 575.17 1241.36 574.94 1241.02 574.67 1240.7 574.38 1240.41 574.06 1240.15 573.72 1239.92 573.36 1239.73 572.97 1239.56 572.58 1239.44 572.17 1239.34 571.75 1239.29 571.32 1239.27 570.89 M 1239.28 570.89 1239.3 570.46 1239.35 570.04 1239.45 569.62 1239.57 569.22 1239.74 568.82 1239.94 568.44 1240.16 568.09 1240.42 567.75 1240.71 567.43 1241.03 567.14 1241.37 566.88 1241.73 566.66 1242.1 566.46 1242.5 566.29 1242.9 566.17 1243.32 566.07 1243.74 566.02 1244.17 566 M 1232.84 566 1230.4 566 1229.97 566.02 1229.55 566.07 1229.13 566.17 1228.73 566.29 1228.33 566.46 1227.96 566.66 1227.6 566.88 1227.26 567.14 1226.94 567.43 1226.65 567.75 1226.39 568.09 1226.17 568.44 1225.97 568.82 1225.8 569.22 1225.68 569.62 1225.58 570.04 1225.53 570.46 1225.51 570.89 1225.51 588 M 1215.5 583.11 1209.39 588 1209.39 566 M 1215.5 566 1203.28 566 M 1240.5 586.17 1240.98 586.5 1241.48 586.81 1242.01 587.09 1242.55 587.32 1243.1 587.53 1243.67 587.7 1244.24 587.83 1244.82 587.92 1245.41 587.98 1246 588 M 1340.78 791 1353 791 1342.61 803.22 M 1346.28 813 1346.8 812.98 1347.32 812.92 1347.84 812.83 1348.34 812.69 1348.84 812.52 1349.32 812.31 1349.78 812.07 1350.22 811.8 1350.65 811.49 1351.05 811.15 1351.42 810.79 1351.76 810.39 1352.08 809.97 1352.36 809.54 1352.61 809.08 1352.83 808.6 1353.01 808.11 M 1342.61 803.22 1342.28 803.56 1341.98 803.93 1341.7 804.33 1341.46 804.74 1341.26 805.17 1341.09 805.62 1340.95 806.08 1340.86 806.55 1340.8 807.02 1340.78 807.5 1340.8 807.95 1340.86 808.41 1340.95 808.85 1341.08 809.29 1341.24 809.71 1341.44 810.12 1341.68 810.51 1341.94 810.88 1342.23 811.23 1342.55 811.55 1342.9 811.84 1343.27 812.1 1343.66 812.34 1344.07 812.54 1344.49 812.7 1344.93 812.83 1345.37 812.92 1345.83 812.98 1346.28 813 M 1363.01 813 1363.01 795.89 1363.03 795.46 1363.08 795.04 1363.18 794.62 1363.3 794.22 1363.47 793.82 1363.67 793.44 1363.89 793.09 1364.15 792.75 1364.44 792.43 1364.76 792.14 1365.1 791.88 1365.46 791.66 1365.83 791.46 1366.23 791.29 1366.63 791.17 1367.05 791.07 1367.47 791.02 1367.9 791 1370.34 791 M 1376.78 795.89 1376.8 795.46 1376.85 795.04 1376.95 794.62 1377.07 794.22 1377.24 793.82 1377.44 793.44 1377.66 793.09 1377.92 792.75 1378.21 792.43 1378.53 792.14 1378.87 791.88 1379.23 791.66 1379.6 791.46 1380 791.29 1380.4 791.17 1380.82 791.07 1381.24 791.02 1381.67 791 M 1376.77 795.89 1376.79 796.32 1376.84 796.75 1376.94 797.17 1377.06 797.58 1377.23 797.97 1377.42 798.36 1377.65 798.72 1377.91 799.06 1378.2 799.38 1378.52 799.67 1378.86 799.94 1379.22 800.17 1385.94 803.83 M 1383.5 813 1382.91 812.98 1382.32 812.92 1381.74 812.83 1381.17 812.7 1380.6 812.53 1380.05 812.32 1379.51 812.09 1378.98 811.81 1378.48 811.5 1378 811.17 M 1385.94 803.83 1386.3 804.06 1386.64 804.33 1386.96 804.62 1387.25 804.94 1387.51 805.28 1387.74 805.64 1387.93 806.03 1388.1 806.42 1388.22 806.83 1388.32 807.25 1388.37 807.68 1388.39 808.11 1388.37 808.54 1388.32 808.96 1388.22 809.38 1388.1 809.78 1387.93 810.18 1387.73 810.56 1387.51 810.91 1387.25 811.25 1386.96 811.57 1386.64 811.86 1386.3 812.12 1385.95 812.34 1385.57 812.54 1385.17 812.71 1384.77 812.83 1384.35 812.93 1383.93 812.98 1383.5 813 M 1389 794.06 1388.55 793.62 1388.07 793.22 1387.57 792.85 1387.04 792.51 1386.49 792.2 1385.93 791.92 1385.35 791.68 1384.76 791.47 1384.16 791.3 1383.54 791.17 1382.92 791.08 1382.3 791.02 1381.67 791 M 850.78 445.56 841 445.56 M 845.89 449.22 845.89 437 863 441.89 M 863 426.99 845.89 426.99 845.46 426.97 845.04 426.92 844.62 426.82 844.22 426.7 843.82 426.53 843.45 426.33 843.09 426.11 842.75 425.85 842.43 425.56 842.14 425.24 841.88 424.9 841.66 424.55 841.46 424.17 841.29 423.77 841.17 423.37 841.07 422.95 841.02 422.53 841 422.1 841 419.66 M 845.89 413.22 845.46 413.2 845.04 413.15 844.62 413.05 844.22 412.93 843.82 412.76 843.45 412.56 843.09 412.34 842.75 412.08 842.43 411.79 842.14 411.47 841.88 411.13 841.66 410.78 841.46 410.4 841.29 410 841.17 409.6 841.07 409.18 841.02 408.76 841 408.33 M 845.89 413.23 846.32 413.21 846.75 413.16 847.17 413.06 847.58 412.94 847.97 412.77 848.36 412.58 848.72 412.35 849.06 412.09 849.38 411.8 849.67 411.48 849.94 411.14 850.17 410.78 853.83 404.06 M 863 406.5 862.98 407.09 862.92 407.68 862.83 408.26 862.7 408.83 862.53 409.4 862.32 409.95 862.09 410.49 861.81 411.01 861.5 411.52 861.17 412 M 853.83 404.06 854.06 403.7 854.33 403.36 854.62 403.04 854.94 402.75 855.28 402.49 855.64 402.26 856.03 402.07 856.42 401.9 856.83 401.78 857.25 401.68 857.68 401.63 858.11 401.61 858.54 401.63 858.96 401.68 859.38 401.78 859.78 401.9 860.18 402.07 860.56 402.27 860.91 402.49 861.25 402.75 861.57 403.04 861.86 403.36 862.12 403.7 862.34 404.06 862.54 404.43 862.71 404.83 862.83 405.23 862.93 405.65 862.98 406.07 863 406.5 M 844.06 401 843.62 401.45 843.22 401.93 842.85 402.43 842.51 402.96 842.2 403.51 841.92 404.07 841.68 404.65 841.47 405.24 841.3 405.85 841.17 406.46 841.08 407.08 841.02 407.7 841 408.33 M 1242.82 1191 1255.04 1191 M 1248.93 1191 1248.93 1213 1255.04 1208.11 M 1270.39 1213 1269.91 1212.98 1269.43 1212.92 1268.96 1212.83 1268.5 1212.7 1268.05 1212.53 1267.62 1212.33 1267.2 1212.1 1266.8 1211.83 1266.42 1211.54 1266.07 1211.21 1265.74 1210.86 1265.45 1210.48 1265.18 1210.08 1264.95 1209.66 1264.75 1209.23 1264.58 1208.78 1264.45 1208.32 1264.36 1207.85 1264.3 1207.37 1264.28 1206.89 1264.3 1206.41 1264.36 1205.93 1264.45 1205.46 1264.58 1205 1264.75 1204.55 1264.95 1204.12 1265.18 1203.7 1265.45 1203.3 1265.74 1202.92 1266.07 1202.57 1266.42 1202.24 1266.8 1201.95 1267.2 1201.68 1267.62 1201.45 1268.05 1201.25 1268.5 1201.08 1268.96 1200.95 1269.43 1200.86 1269.91 1200.8 1270.39 1200.78 1276.5 1200.78 M 1269.17 1200.78 1264.28 1191 M 1276.5 1191 1276.5 1213 1270.39 1213 M 1276.5 1253.5 1276.5 1275.5 1270.39 1275.5 1269.91 1275.48 1269.43 1275.42 1268.96 1275.33 1268.5 1275.2 1268.05 1275.03 1267.62 1274.83 1267.2 1274.6 1266.8 1274.33 1266.42 1274.04 1266.07 1273.71 1265.74 1273.36 1265.45 1272.98 1265.18 1272.58 1264.95 1272.16 1264.75 1271.73 1264.58 1271.28 1264.45 1270.82 1264.36 1270.35 1264.3 1269.87 1264.28 1269.39 1264.3 1268.91 1264.36 1268.43 1264.45 1267.96 1264.58 1267.5 1264.75 1267.05 1264.95 1266.62 1265.18 1266.2 1265.45 1265.8 1265.74 1265.42 1266.07 1265.07 1266.42 1264.74 1266.8 1264.45 1267.2 1264.18 1267.62 1263.95 1268.05 1263.75 1268.5 1263.58 1268.96 1263.45 1269.43 1263.36 1269.91 1263.3 1270.39 1263.28 1276.5 1263.28 M 1269.17 1263.28 1264.28 1253.5 M 1255.04 1253.5 1244.65 1265.72 M 1248.32 1275.5 1248.84 1275.48 1249.36 1275.42 1249.88 1275.33 1250.38 1275.19 1250.88 1275.02 1251.36 1274.81 1251.82 1274.57 1252.26 1274.3 1252.69 1273.99 1253.09 1273.65 1253.46 1273.29 1253.8 1272.89 1254.12 1272.47 1254.4 1272.04 1254.65 1271.58 1254.87 1271.1 1255.05 1270.61 M 1244.65 1265.72 1244.32 1266.06 1244.02 1266.43 1243.74 1266.83 1243.5 1267.24 1243.3 1267.67 1243.13 1268.12 1242.99 1268.58 1242.9 1269.05 1242.84 1269.52 1242.82 1270 1242.84 1270.45 1242.9 1270.91 1242.99 1271.35 1243.12 1271.79 1243.28 1272.21 1243.48 1272.62 1243.72 1273.01 1243.98 1273.38 1244.27 1273.73 1244.59 1274.05 1244.94 1274.34 1245.31 1274.6 1245.7 1274.84 1246.11 1275.04 1246.53 1275.2 1246.97 1275.33 1247.41 1275.42 1247.87 1275.48 1248.32 1275.5 M 1242.82 1253.5 1255.04 1253.5" fill="none" stroke-width="2"/><path d="M 1289.51 1237.44 1289.51 1292.56 1415.49 1292.56 1415.49 1237.44 1289.51 1237.44 M 1289.51 1230.06 1289.51 1174.94 1415.49 1174.94 1415.49 1230.06 1289.51 1230.06 M 1202.5 1202.5 1152.5 1202.5 1152.5 1102.5 1202.5 1102.5 1202.5 1202.5 M 1320 780 1385 780 1385.6 779.98 1386.21 779.93 1386.8 779.84 1387.39 779.71 1387.98 779.55 1388.55 779.35 1389.1 779.12 1389.65 778.85 1390.17 778.56 1390.68 778.23 1391.17 777.87 1391.63 777.49 1392.07 777.07 1392.49 776.63 1392.87 776.17 1393.23 775.68 1393.56 775.17 1393.85 774.65 1394.12 774.1 1394.35 773.55 1394.55 772.98 1394.71 772.39 1394.84 771.8 1394.93 771.21 1394.98 770.6 1395 770 M 1320 780 1319.4 779.98 1318.79 779.93 1318.2 779.84 1317.61 779.71 1317.02 779.55 1316.45 779.35 1315.9 779.12 1315.35 778.85 1314.83 778.56 1314.32 778.23 1313.83 777.87 1313.37 777.49 1312.93 777.07 1312.51 776.63 1312.13 776.17 1311.77 775.68 1311.44 775.17 1311.15 774.65 1310.88 774.1 1310.65 773.55 1310.45 772.98 1310.29 772.39 1310.16 771.8 1310.07 771.21 1310.02 770.6 1310 770 M 1310 710 1310.02 709.4 1310.07 708.79 1310.16 708.2 1310.29 707.61 1310.45 707.02 1310.65 706.45 1310.88 705.9 1311.15 705.35 1311.44 704.83 1311.77 704.32 1312.13 703.83 1312.51 703.37 1312.93 702.93 1313.37 702.51 1313.83 702.13 1314.32 701.77 1314.83 701.44 1315.35 701.15 1315.9 700.88 1316.45 700.65 1317.02 700.45 1317.61 700.29 1318.2 700.16 1318.79 700.07 1319.4 700.02 1320 700 1385 700 1385.6 700.02 1386.21 700.07 1386.8 700.16 1387.39 700.29 1387.98 700.45 1388.55 700.65 1389.1 700.88 1389.65 701.15 1390.17 701.44 1390.68 701.77 1391.17 702.13 1391.63 702.51 1392.07 702.93 1392.49 703.37 1392.87 703.83 1393.23 704.32 1393.56 704.83 1393.85 705.35 1394.12 705.9 1394.35 706.45 1394.55 707.02 1394.71 707.61 1394.84 708.2 1394.93 708.79 1394.98 709.4 1395 710 M 1374.94 577.99 1374.94 452.01 1430.06 452.01 1430.06 577.99 1374.94 577.99 M 1357.81 577.7 1302.7 577.7 1302.7 451.71 1357.81 451.71 1357.81 577.7 M 1247.5 555 1182.5 555 1181.9 554.98 1181.29 554.93 1180.7 554.84 1180.11 554.71 1179.52 554.55 1178.95 554.35 1178.4 554.12 1177.85 553.85 1177.33 553.56 1176.82 553.23 1176.33 552.87 1175.87 552.49 1175.43 552.07 1175.01 551.63 1174.63 551.17 1174.27 550.68 1173.94 550.17 1173.65 549.65 1173.38 549.1 1173.15 548.55 1172.95 547.98 1172.79 547.39 1172.66 546.8 1172.57 546.21 1172.52 545.6 1172.5 545 M 1247.5 555 1248.1 554.98 1248.71 554.93 1249.3 554.84 1249.89 554.71 1250.48 554.55 1251.05 554.35 1251.6 554.12 1252.15 553.85 1252.67 553.56 1253.18 553.23 1253.67 552.87 1254.13 552.49 1254.57 552.07 1254.99 551.63 1255.37 551.17 1255.73 550.68 1256.06 550.17 1256.35 549.65 1256.62 549.1 1256.85 548.55 1257.05 547.98 1257.21 547.39 1257.34 546.8 1257.43 546.21 1257.48 545.6 1257.5 545 M 1257.5 485 1257.48 484.4 1257.43 483.79 1257.34 483.2 1257.21 482.61 1257.05 482.02 1256.85 481.45 1256.62 480.9 1256.35 480.35 1256.06 479.83 1255.73 479.32 1255.37 478.83 1254.99 478.37 1254.57 477.93 1254.13 477.51 1253.67 477.13 1253.18 476.77 1252.67 476.44 1252.15 476.15 1251.6 475.88 1251.05 475.65 1250.48 475.45 1249.89 475.29 1249.3 475.16 1248.71 475.07 1248.1 475.02 1247.5 475 1182.5 475 1181.9 475.02 1181.29 475.07 1180.7 475.16 1180.11 475.29 1179.52 475.45 1178.95 475.65 1178.4 475.88 1177.85 476.15 1177.33 476.44 1176.82 476.77 1176.33 477.13 1175.87 477.51 1175.43 477.93 1175.01 478.37 1174.63 478.83 1174.27 479.32 1173.94 479.83 1173.65 480.35 1173.38 480.9 1173.15 481.45 1172.95 482.02 1172.79 482.61 1172.66 483.2 1172.57 483.79 1172.52 484.4 1172.5 485 M 830 520 830 410 829.98 409.4 829.93 408.79 829.84 408.2 829.71 407.61 829.55 407.02 829.35 406.45 829.12 405.9 828.85 405.35 828.56 404.83 828.23 404.32 827.87 403.83 827.49 403.37 827.07 402.93 826.63 402.51 826.17 402.13 825.68 401.77 825.17 401.44 824.65 401.15 824.1 400.88 823.55 400.65 822.98 400.45 822.39 400.29 821.8 400.16 821.21 400.07 820.6 400.02 820 400 760 400 759.4 400.02 758.79 400.07 758.2 400.16 757.61 400.29 757.02 400.45 756.45 400.65 755.9 400.88 755.35 401.15 754.83 401.44 754.32 401.77 753.83 402.13 753.37 402.51 752.93 402.93 752.51 403.37 752.13 403.83 751.77 404.32 751.44 404.83 751.15 405.35 750.88 405.9 750.65 406.45 750.45 407.02 750.29 407.61 750.16 408.2 750.07 408.79 750.02 409.4 750 410 750 520 750.02 520.6 750.07 521.21 750.16 521.8 750.29 522.39 750.45 522.98 750.65 523.55 750.88 524.1 751.15 524.65 751.44 525.17 751.77 525.68 752.13 526.17 752.51 526.63 752.93 527.07 753.37 527.49 753.83 527.87 754.32 528.23 754.83 528.56 755.35 528.85 755.9 529.12 756.45 529.35 757.02 529.55 757.61 529.71 758.2 529.84 758.79 529.93 759.4 529.98 760 530 820 530 820.6 529.98 821.21 529.93 821.8 529.84 822.39 529.71 822.98 529.55 823.55 529.35 824.1 529.12 824.65 528.85 825.17 528.56 825.68 528.23 826.17 527.87 826.63 527.49 827.07 527.07 827.49 526.63 827.87 526.17 828.23 525.68 828.56 525.17 828.85 524.65 829.12 524.1 829.35 523.55 829.55 522.98 829.71 522.39 829.84 521.8 829.93 521.21 829.98 520.6 830 520" fill="none" stroke-width="8"/><path d="M 1178.78 1210.5 1193.22 1210.5 1193.7 1210.52 1194.17 1210.58 1194.64 1210.68 1195.1 1210.81 1195.54 1210.99 1195.97 1211.2 1196.38 1211.44 1196.77 1211.72 1197.13 1212.03 1197.47 1212.37 1197.78 1212.73 1198.06 1213.12 1198.3 1213.53 1198.51 1213.96 1198.69 1214.4 1198.82 1214.86 1198.92 1215.33 1198.98 1215.8 1199 1216.28 1199 1222.06 M 1199 1234.64 1187.44 1234.64 1187.44 1243.31 M 1187.45 1243.31 1187.43 1243.76 1187.38 1244.21 1187.29 1244.66 1187.17 1245.1 1187.01 1245.52 1186.82 1245.93 1186.6 1246.33 1186.35 1246.71 1186.07 1247.06 1185.76 1247.4 1185.42 1247.71 1185.07 1247.99 1184.69 1248.24 1184.29 1248.46 1183.88 1248.65 1183.46 1248.81 1183.02 1248.93 1182.57 1249.02 1182.12 1249.07 1181.67 1249.09 M 1181.67 1249.08 1178.78 1249.08 M 1178.78 1249.09 1178.3 1249.07 1177.83 1249.01 1177.36 1248.91 1176.9 1248.78 1176.46 1248.6 1176.03 1248.39 1175.62 1248.15 1175.23 1247.87 1174.87 1247.56 1174.53 1247.22 1174.22 1246.86 1173.94 1246.47 1173.7 1246.06 1173.49 1245.63 1173.31 1245.19 1173.18 1244.73 1173.08 1244.26 1173.02 1243.79 1173 1243.31 1173 1234.64 M 1173 1222.06 1173 1216.28 1173.02 1215.83 1173.07 1215.38 1173.16 1214.93 1173.28 1214.49 1173.44 1214.07 1173.63 1213.66 1173.85 1213.26 1174.1 1212.88 1174.38 1212.53 1174.69 1212.19 1175.03 1211.88 1175.38 1211.6 1175.76 1211.35 1176.16 1211.13 1176.57 1210.94 1176.99 1210.78 1177.43 1210.66 1177.88 1210.57 1178.33 1210.52 1178.78 1210.5 M 1199 1234.64 1199 1249.08" fill="none" stroke-width="6"/></g></svg>