<svg version="1.1" xmlns="http://www.w3.org/2000/svg" xmlns:xlink="http://www.w3.org/1999/xlink" stroke-linecap="round" stroke-linejoin="round" stroke-width="0" fill-rule="evenodd" width="2.40157in" height="1.37795in" viewBox="327.5 165 2401.57 1377.95" id="uToez73rEuEEFJ0W2G4x"><defs><rect x="-30.905" y="-8.07" width="61.81" height="16.14" id="uToez73rEuEEFJ0W2G4x_pad-12"/><circle cx="0" cy="0" r="21.655" id="uToez73rEuEEFJ0W2G4x_pad-13"/><rect x="-19.685" y="-21.655" width="39.37" height="43.31" id="uToez73rEuEEFJ0W2G4x_pad-14"/><rect x="-12.5" y="-25" width="25" height="50" id="uToez73rEuEEFJ0W2G4x_pad-16"/><rect x="-31.5" y="-23" width="63" height="46" id="uToez73rEuEEFJ0W2G4x_pad-17"/><polygon points="59.05488,24.46133 24.46133,59.05488 -24.46133,59.05488 -59.05488,24.46133 -59.05488,-24.46133 -24.46133,-59.05488 24.46133,-59.05488 59.05488,-24.46133" id="uToez73rEuEEFJ0W2G4x_pad-18"/><rect x="-21.655" y="-19.685" width="43.31" height="39.37" id="uToez73rEuEEFJ0W2G4x_pad-19"/><rect x="-17.715" y="-13.78" width="35.43" height="27.56" id="uToez73rEuEEFJ0W2G4x_pad-20"/><circle cx="0" cy="0" r="9.155" id="uToez73rEuEEFJ0W2G4x_pad-22"/></defs><g transform="translate(0,1707.95) scale(1,-1)" fill="currentColor" stroke="currentColor"><path d="M 327.5 165 327.5 275.24 M 327.5 165 2729.07 165 2729.07 275.24 M 2729.07 275.23 2700.93 290.42 2673.15 306.28 2645.77 322.81 2618.8 340 2592.25 357.84 2566.14 376.31 2540.48 395.41 2515.3 415.13 2490.6 435.45 2466.4 456.36 2442.71 477.85 2419.54 499.91 2396.92 522.52 2374.85 545.67 2353.35 569.35 2332.43 593.54 2312.1 618.23 2292.37 643.41 2273.26 669.05 2254.77 695.15 2236.92 721.69 2219.72 748.66 2203.18 776.03 2187.3 803.8 2172.1 831.94 2157.58 860.44 2143.76 889.28 2130.64 918.45 2118.23 947.93 2106.54 977.7 2095.57 1007.75 2085.33 1038.05 2075.82 1068.59 2067.06 1099.35 2059.05 1130.31 2051.79 1161.46 2045.28 1192.78 2039.53 1224.24 2034.55 1255.83 2030.33 1287.54 2026.88 1319.34 2024.2 1351.21 2022.29 1383.14 2021.15 1415.1 2020.79 1447.08 2021.2 1479.06 2022.39 1511.03 2024.35 1542.95 1032.22 1542.95 M 1032.23 1542.95 1034.19 1511.03 1035.38 1479.06 1035.79 1447.08 1035.43 1415.1 1034.29 1383.14 1032.38 1351.21 1029.7 1319.34 1026.25 1287.54 1022.03 1255.83 1017.05 1224.24 1011.3 1192.78 1004.79 1161.46 997.53 1130.31 989.52 1099.35 980.76 1068.59 971.25 1038.05 961.01 1007.75 950.04 977.7 938.35 947.93 925.94 918.45 912.82 889.28 899 860.44 884.48 831.94 869.28 803.8 853.4 776.03 836.86 748.66 819.66 721.69 801.81 695.15 783.32 669.05 764.21 643.41 744.48 618.23 724.15 593.54 703.23 569.35 681.73 545.67 659.66 522.52 637.04 499.91 613.87 477.85 590.18 456.36 565.98 435.45 541.28 415.13 516.1 395.41 490.44 376.31 464.33 357.84 437.78 340 410.81 322.81 383.43 306.28 355.65 290.42 327.51 275.23" fill="none" stroke-width="0"/><path d="M 386.55 263.43 386.57 264.96 386.63 266.5 386.73 268.03 386.87 269.55 387.05 271.08 387.27 272.59 387.52 274.1 387.82 275.61 388.16 277.11 388.53 278.59 388.94 280.07 389.39 281.53 389.88 282.99 390.41 284.43 390.97 285.85 391.57 287.26 392.21 288.66 392.88 290.04 393.59 291.4 394.34 292.74 395.11 294.06 395.93 295.36 396.77 296.64 397.65 297.9 398.56 299.13 399.5 300.34 400.48 301.52 401.48 302.68 402.52 303.81 403.58 304.92 404.67 306 405.79 307.05 406.93 308.06 408.11 309.05 409.3 310.01 410.52 310.94 411.77 311.83 413.04 312.7 414.33 313.52 415.64 314.32 416.97 315.08 418.32 315.81 419.69 316.5 421.08 317.15 422.48 317.77 423.9 318.35 425.33 318.9 426.78 319.41 428.24 319.88 429.71 320.31 431.19 320.7 432.68 321.06 434.18 321.37 435.69 321.65 437.2 321.89 438.73 322.09 440.25 322.25 441.78 322.37 443.31 322.45 444.84 322.49 446.38 322.49 447.91 322.45 449.44 322.37 450.97 322.25 452.49 322.09 454.02 321.89 455.53 321.65 457.04 321.37 458.54 321.06 460.03 320.7 461.51 320.31 462.98 319.88 464.44 319.41 465.89 318.9 467.32 318.35 468.74 317.77 470.14 317.15 471.53 316.5 472.9 315.81 474.25 315.08 475.58 314.32 476.89 313.52 478.18 312.7 479.45 311.83 480.7 310.94 481.92 310.01 483.11 309.05 484.29 308.06 485.43 307.05 486.55 306 487.64 304.92 488.7 303.81 489.74 302.68 490.74 301.52 491.72 300.34 492.66 299.13 493.57 297.9 494.45 296.64 495.29 295.36 496.11 294.06 496.88 292.74 497.63 291.4 498.34 290.04 499.01 288.66 499.65 287.26 500.25 285.85 500.81 284.43 501.34 282.99 501.83 281.53 502.28 280.07 502.69 278.59 503.06 277.11 503.4 275.61 503.7 274.1 503.95 272.59 504.17 271.08 504.35 269.55 504.49 268.03 504.59 266.5 504.65 264.96 504.67 263.43 504.65 261.9 504.59 260.36 504.49 258.83 504.35 257.31 504.17 255.78 503.95 254.27 503.7 252.76 503.4 251.25 503.06 249.75 502.69 248.27 502.28 246.79 501.83 245.33 501.34 243.87 500.81 242.43 500.25 241.01 499.65 239.6 499.01 238.2 498.34 236.82 497.63 235.46 496.88 234.12 496.11 232.8 495.29 231.5 494.45 230.22 493.57 228.96 492.66 227.73 491.72 226.52 490.74 225.34 489.74 224.18 488.7 223.05 487.64 221.94 486.55 220.86 485.43 219.81 484.29 218.8 483.11 217.81 481.92 216.85 480.7 215.92 479.45 215.03 478.18 214.16 476.89 213.34 475.58 212.54 474.25 211.78 472.9 211.05 471.53 210.36 470.14 209.71 468.74 209.09 467.32 208.51 465.89 207.96 464.44 207.45 462.98 206.98 461.51 206.55 460.03 206.16 458.54 205.8 457.04 205.49 455.53 205.21 454.02 204.97 452.49 204.77 450.97 204.61 449.44 204.49 447.91 204.41 446.38 204.37 444.84 204.37 443.31 204.41 441.78 204.49 440.25 204.61 438.73 204.77 437.2 204.97 435.69 205.21 434.18 205.49 432.68 205.8 431.19 206.16 429.71 206.55 428.24 206.98 426.78 207.45 425.33 207.96 423.9 208.51 422.48 209.09 421.08 209.71 419.69 210.36 418.32 211.05 416.97 211.78 415.64 212.54 414.33 213.34 413.04 214.16 411.77 215.03 410.52 215.92 409.3 216.85 408.11 217.81 406.93 218.8 405.79 219.81 404.67 220.86 403.58 221.94 402.52 223.05 401.48 224.18 400.48 225.34 399.5 226.52 398.56 227.73 397.65 228.96 396.77 230.22 395.93 231.5 395.11 232.8 394.34 234.12 393.59 235.46 392.88 236.82 392.21 238.2 391.57 239.6 390.97 241.01 390.41 242.43 389.88 243.87 389.39 245.33 388.94 246.79 388.53 248.27 388.16 249.75 387.82 251.25 387.52 252.76 387.27 254.27 387.05 255.78 386.87 257.31 386.73 258.83 386.63 260.36 386.57 261.9 386.55 263.43 M 1095.21 1424.84 1095.23 1426.37 1095.29 1427.91 1095.39 1429.44 1095.53 1430.96 1095.71 1432.49 1095.93 1434 1096.18 1435.51 1096.48 1437.02 1096.82 1438.52 1097.19 1440 1097.6 1441.48 1098.05 1442.94 1098.54 1444.4 1099.07 1445.84 1099.63 1447.26 1100.23 1448.67 1100.87 1450.07 1101.54 1451.45 1102.25 1452.81 1103 1454.15 1103.77 1455.47 1104.59 1456.77 1105.43 1458.05 1106.31 1459.31 1107.22 1460.54 1108.16 1461.75 1109.14 1462.93 1110.14 1464.09 1111.18 1465.22 1112.24 1466.33 1113.33 1467.41 1114.45 1468.46 1115.59 1469.47 1116.77 1470.46 1117.96 1471.42 1119.18 1472.35 1120.43 1473.24 1121.7 1474.11 1122.99 1474.93 1124.3 1475.73 1125.63 1476.49 1126.98 1477.22 1128.35 1477.91 1129.74 1478.56 1131.14 1479.18 1132.56 1479.76 1133.99 1480.31 1135.44 1480.82 1136.9 1481.29 1138.37 1481.72 1139.85 1482.11 1141.34 1482.47 1142.84 1482.78 1144.35 1483.06 1145.86 1483.3 1147.39 1483.5 1148.91 1483.66 1150.44 1483.78 1151.97 1483.86 1153.5 1483.9 1155.04 1483.9 1156.57 1483.86 1158.1 1483.78 1159.63 1483.66 1161.15 1483.5 1162.68 1483.3 1164.19 1483.06 1165.7 1482.78 1167.2 1482.47 1168.69 1482.11 1170.17 1481.72 1171.64 1481.29 1173.1 1480.82 1174.55 1480.31 1175.98 1479.76 1177.4 1479.18 1178.8 1478.56 1180.19 1477.91 1181.56 1477.22 1182.91 1476.49 1184.24 1475.73 1185.55 1474.93 1186.84 1474.11 1188.11 1473.24 1189.36 1472.35 1190.58 1471.42 1191.77 1470.46 1192.95 1469.47 1194.09 1468.46 1195.21 1467.41 1196.3 1466.33 1197.36 1465.22 1198.4 1464.09 1199.4 1462.93 1200.38 1461.75 1201.32 1460.54 1202.23 1459.31 1203.11 1458.05 1203.95 1456.77 1204.77 1455.47 1205.54 1454.15 1206.29 1452.81 1207 1451.45 1207.67 1450.07 1208.31 1448.67 1208.91 1447.26 1209.47 1445.84 1210 1444.4 1210.49 1442.94 1210.94 1441.48 1211.35 1440 1211.72 1438.52 1212.06 1437.02 1212.36 1435.51 1212.61 1434 1212.83 1432.49 1213.01 1430.96 1213.15 1429.44 1213.25 1427.91 1213.31 1426.37 1213.33 1424.84 1213.31 1423.31 1213.25 1421.77 1213.15 1420.24 1213.01 1418.72 1212.83 1417.19 1212.61 1415.68 1212.36 1414.17 1212.06 1412.66 1211.72 1411.16 1211.35 1409.68 1210.94 1408.2 1210.49 1406.74 1210 1405.28 1209.47 1403.84 1208.91 1402.42 1208.31 1401.01 1207.67 1399.61 1207 1398.23 1206.29 1396.87 1205.54 1395.53 1204.77 1394.21 1203.95 1392.91 1203.11 1391.63 1202.23 1390.37 1201.32 1389.14 1200.38 1387.93 1199.4 1386.75 1198.4 1385.59 1197.36 1384.46 1196.3 1383.35 1195.21 1382.27 1194.09 1381.22 1192.95 1380.21 1191.77 1379.22 1190.58 1378.26 1189.36 1377.33 1188.11 1376.44 1186.84 1375.57 1185.55 1374.75 1184.24 1373.95 1182.91 1373.19 1181.56 1372.46 1180.19 1371.77 1178.8 1371.12 1177.4 1370.5 1175.98 1369.92 1174.55 1369.37 1173.1 1368.86 1171.64 1368.39 1170.17 1367.96 1168.69 1367.57 1167.2 1367.21 1165.7 1366.9 1164.19 1366.62 1162.68 1366.38 1161.15 1366.18 1159.63 1366.02 1158.1 1365.9 1156.57 1365.82 1155.04 1365.78 1153.5 1365.78 1151.97 1365.82 1150.44 1365.9 1148.91 1366.02 1147.39 1366.18 1145.86 1366.38 1144.35 1366.62 1142.84 1366.9 1141.34 1367.21 1139.85 1367.57 1138.37 1367.96 1136.9 1368.39 1135.44 1368.86 1133.99 1369.37 1132.56 1369.92 1131.14 1370.5 1129.74 1371.12 1128.35 1371.77 1126.98 1372.46 1125.63 1373.19 1124.3 1373.95 1122.99 1374.75 1121.7 1375.57 1120.43 1376.44 1119.18 1377.33 1117.96 1378.26 1116.77 1379.22 1115.59 1380.21 1114.45 1381.22 1113.33 1382.27 1112.24 1383.35 1111.18 1384.46 1110.14 1385.59 1109.14 1386.75 1108.16 1387.93 1107.22 1389.14 1106.31 1390.37 1105.43 1391.63 1104.59 1392.91 1103.77 1394.21 1103 1395.53 1102.25 1396.87 1101.54 1398.23 1100.87 1399.61 1100.23 1401.01 1099.63 1402.42 1099.07 1403.84 1098.54 1405.28 1098.05 1406.74 1097.6 1408.2 1097.19 1409.68 1096.82 1411.16 1096.48 1412.66 1096.18 1414.17 1095.93 1415.68 1095.71 1417.19 1095.53 1418.72 1095.39 1420.24 1095.29 1421.77 1095.23 1423.31 1095.21 1424.84 M 1843.24 1424.84 1843.26 1426.37 1843.32 1427.91 1843.42 1429.44 1843.56 1430.96 1843.74 1432.49 1843.96 1434 1844.21 1435.51 1844.51 1437.02 1844.85 1438.52 1845.22 1440 1845.63 1441.48 1846.08 1442.94 1846.57 1444.4 1847.1 1445.84 1847.66 1447.26 1848.26 1448.67 1848.9 1450.07 1849.57 1451.45 1850.28 1452.81 1851.03 1454.15 1851.8 1455.47 1852.62 1456.77 1853.46 1458.05 1854.34 1459.31 1855.25 1460.54 1856.19 1461.75 1857.17 1462.93 1858.17 1464.09 1859.21 1465.22 1860.27 1466.33 1861.36 1467.41 1862.48 1468.46 1863.62 1469.47 1864.8 1470.46 1865.99 1471.42 1867.21 1472.35 1868.46 1473.24 1869.73 1474.11 1871.02 1474.93 1872.33 1475.73 1873.66 1476.49 1875.01 1477.22 1876.38 1477.91 1877.77 1478.56 1879.17 1479.18 1880.59 1479.76 1882.02 1480.31 1883.47 1480.82 1884.93 1481.29 1886.4 1481.72 1887.88 1482.11 1889.37 1482.47 1890.87 1482.78 1892.38 1483.06 1893.89 1483.3 1895.42 1483.5 1896.94 1483.66 1898.47 1483.78 1900 1483.86 1901.53 1483.9 1903.07 1483.9 1904.6 1483.86 1906.13 1483.78 1907.66 1483.66 1909.18 1483.5 1910.71 1483.3 1912.22 1483.06 1913.73 1482.78 1915.23 1482.47 1916.72 1482.11 1918.2 1481.72 1919.67 1481.29 1921.13 1480.82 1922.58 1480.31 1924.01 1479.76 1925.43 1479.18 1926.83 1478.56 1928.22 1477.91 1929.59 1477.22 1930.94 1476.49 1932.27 1475.73 1933.58 1474.93 1934.87 1474.11 1936.14 1473.24 1937.39 1472.35 1938.61 1471.42 1939.8 1470.46 1940.98 1469.47 1942.12 1468.46 1943.24 1467.41 1944.33 1466.33 1945.39 1465.22 1946.43 1464.09 1947.43 1462.93 1948.41 1461.75 1949.35 1460.54 1950.26 1459.31 1951.14 1458.05 1951.98 1456.77 1952.8 1455.47 1953.57 1454.15 1954.32 1452.81 1955.03 1451.45 1955.7 1450.07 1956.34 1448.67 1956.94 1447.26 1957.5 1445.84 1958.03 1444.4 1958.52 1442.94 1958.97 1441.48 1959.38 1440 1959.75 1438.52 1960.09 1437.02 1960.39 1435.51 1960.64 1434 1960.86 1432.49 1961.04 1430.96 1961.18 1429.44 1961.28 1427.91 1961.34 1426.37 1961.36 1424.84 1961.34 1423.31 1961.28 1421.77 1961.18 1420.24 1961.04 1418.72 1960.86 1417.19 1960.64 1415.68 1960.39 1414.17 1960.09 1412.66 1959.75 1411.16 1959.38 1409.68 1958.97 1408.2 1958.52 1406.74 1958.03 1405.28 1957.5 1403.84 1956.94 1402.42 1956.34 1401.01 1955.7 1399.61 1955.03 1398.23 1954.32 1396.87 1953.57 1395.53 1952.8 1394.21 1951.98 1392.91 1951.14 1391.63 1950.26 1390.37 1949.35 1389.14 1948.41 1387.93 1947.43 1386.75 1946.43 1385.59 1945.39 1384.46 1944.33 1383.35 1943.24 1382.27 1942.12 1381.22 1940.98 1380.21 1939.8 1379.22 1938.61 1378.26 1937.39 1377.33 1936.14 1376.44 1934.87 1375.57 1933.58 1374.75 1932.27 1373.95 1930.94 1373.19 1929.59 1372.46 1928.22 1371.77 1926.83 1371.12 1925.43 1370.5 1924.01 1369.92 1922.58 1369.37 1921.13 1368.86 1919.67 1368.39 1918.2 1367.96 1916.72 1367.57 1915.23 1367.21 1913.73 1366.9 1912.22 1366.62 1910.71 1366.38 1909.18 1366.18 1907.66 1366.02 1906.13 1365.9 1904.6 1365.82 1903.07 1365.78 1901.53 1365.78 1900 1365.82 1898.47 1365.9 1896.94 1366.02 1895.42 1366.18 1893.89 1366.38 1892.38 1366.62 1890.87 1366.9 1889.37 1367.21 1887.88 1367.57 1886.4 1367.96 1884.93 1368.39 1883.47 1368.86 1882.02 1369.37 1880.59 1369.92 1879.17 1370.5 1877.77 1371.12 1876.38 1371.77 1875.01 1372.46 1873.66 1373.19 1872.33 1373.95 1871.02 1374.75 1869.73 1375.57 1868.46 1376.44 1867.21 1377.33 1865.99 1378.26 1864.8 1379.22 1863.62 1380.21 1862.48 1381.22 1861.36 1382.27 1860.27 1383.35 1859.21 1384.46 1858.17 1385.59 1857.17 1386.75 1856.19 1387.93 1855.25 1389.14 1854.34 1390.37 1853.46 1391.63 1852.62 1392.91 1851.8 1394.21 1851.03 1395.53 1850.28 1396.87 1849.57 1398.23 1848.9 1399.61 1848.26 1401.01 1847.66 1402.42 1847.1 1403.84 1846.57 1405.28 1846.08 1406.74 1845.63 1408.2 1845.22 1409.68 1844.85 1411.16 1844.51 1412.66 1844.21 1414.17 1843.96 1415.68 1843.74 1417.19 1843.56 1418.72 1843.42 1420.24 1843.32 1421.77 1843.26 1423.31 1843.24 1424.84 M 2551.9 263.43 2551.92 264.96 2551.98 266.5 2552.08 268.03 2552.22 269.55 2552.4 271.08 2552.62 272.59 2552.87 274.1 2553.17 275.61 2553.51 277.11 2553.88 278.59 2554.29 280.07 2554.74 281.53 2555.23 282.99 2555.76 284.43 2556.32 285.85 2556.92 287.26 2557.56 288.66 2558.23 290.04 2558.94 291.4 2559.69 292.74 2560.46 294.06 2561.28 295.36 2562.12 296.64 2563 297.9 2563.91 299.13 2564.85 300.34 2565.83 301.52 2566.83 302.68 2567.87 303.81 2568.93 304.92 2570.02 306 2571.14 307.05 2572.28 308.06 2573.46 309.05 2574.65 310.01 2575.87 310.94 2577.12 311.83 2578.39 312.7 2579.68 313.52 2580.99 314.32 2582.32 315.08 2583.67 315.81 2585.04 316.5 2586.43 317.15 2587.83 317.77 2589.25 318.35 2590.68 318.9 2592.13 319.41 2593.59 319.88 2595.06 320.31 2596.54 320.7 2598.03 321.06 2599.53 321.37 2601.04 321.65 2602.55 321.89 2604.08 322.09 2605.6 322.25 2607.13 322.37 2608.66 322.45 2610.19 322.49 2611.73 322.49 2613.26 322.45 2614.79 322.37 2616.32 322.25 2617.84 322.09 2619.37 321.89 2620.88 321.65 2622.39 321.37 2623.89 321.06 2625.38 320.7 2626.86 320.31 2628.33 319.88 2629.79 319.41 2631.24 318.9 2632.67 318.35 2634.09 317.77 2635.49 317.15 2636.88 316.5 2638.25 315.81 2639.6 315.08 2640.93 314.32 2642.24 313.52 2643.53 312.7 2644.8 311.83 2646.05 310.94 2647.27 310.01 2648.46 309.05 2649.64 308.06 2650.78 307.05 2651.9 306 2652.99 304.92 2654.05 303.81 2655.09 302.68 2656.09 301.52 2657.07 300.34 2658.01 299.13 2658.92 297.9 2659.8 296.64 2660.64 295.36 2661.46 294.06 2662.23 292.74 2662.98 291.4 2663.69 290.04 2664.36 288.66 2665 287.26 2665.6 285.85 2666.16 284.43 2666.69 282.99 2667.18 281.53 2667.63 280.07 2668.04 278.59 2668.41 277.11 2668.75 275.61 2669.05 274.1 2669.3 272.59 2669.52 271.08 2669.7 269.55 2669.84 268.03 2669.94 266.5 2670 264.96 2670.02 263.43 2670 261.9 2669.94 260.36 2669.84 258.83 2669.7 257.31 2669.52 255.78 2669.3 254.27 2669.05 252.76 2668.75 251.25 2668.41 249.75 2668.04 248.27 2667.63 246.79 2667.18 245.33 2666.69 243.87 2666.16 242.43 2665.6 241.01 2665 239.6 2664.36 238.2 2663.69 236.82 2662.98 235.46 2662.23 234.12 2661.46 232.8 2660.64 231.5 2659.8 230.22 2658.92 228.96 2658.01 227.73 2657.07 226.52 2656.09 225.34 2655.09 224.18 2654.05 223.05 2652.99 221.94 2651.9 220.86 2650.78 219.81 2649.64 218.8 2648.46 217.81 2647.27 216.85 2646.05 215.92 2644.8 215.03 2643.53 214.16 2642.24 213.34 2640.93 212.54 2639.6 211.78 2638.25 211.05 2636.88 210.36 2635.49 209.71 2634.09 209.09 2632.67 208.51 2631.24 207.96 2629.79 207.45 2628.33 206.98 2626.86 206.55 2625.38 206.16 2623.89 205.8 2622.39 205.49 2620.88 205.21 2619.37 204.97 2617.84 204.77 2616.32 204.61 2614.79 204.49 2613.26 204.41 2611.73 204.37 2610.19 204.37 2608.66 204.41 2607.13 204.49 2605.6 204.61 2604.08 204.77 2602.55 204.97 2601.04 205.21 2599.53 205.49 2598.03 205.8 2596.54 206.16 2595.06 206.55 2593.59 206.98 2592.13 207.45 2590.68 207.96 2589.25 208.51 2587.83 209.09 2586.43 209.71 2585.04 210.36 2583.67 211.05 2582.32 211.78 2580.99 212.54 2579.68 213.34 2578.39 214.16 2577.12 215.03 2575.87 215.92 2574.65 216.85 2573.46 217.81 2572.28 218.8 2571.14 219.81 2570.02 220.86 2568.93 221.94 2567.87 223.05 2566.83 224.18 2565.83 225.34 2564.85 226.52 2563.91 227.73 2563 228.96 2562.12 230.22 2561.28 231.5 2560.46 232.8 2559.69 234.12 2558.94 235.46 2558.23 236.82 2557.56 238.2 2556.92 239.6 2556.32 241.01 2555.76 242.43 2555.23 243.87 2554.74 245.33 2554.29 246.79 2553.88 248.27 2553.51 249.75 2553.17 251.25 2552.87 252.76 2552.62 254.27 2552.4 255.78 2552.22 257.31 2552.08 258.83 2551.98 260.36 2551.92 261.9 2551.9 263.43" fill="none" stroke-width="0.39"/><use xlink:href="#uToez73rEuEEFJ0W2G4x_pad-12" x="2165.2" y="498.86"/><use xlink:href="#uToez73rEuEEFJ0W2G4x_pad-12" x="2165.2" y="524.45"/><use xlink:href="#uToez73rEuEEFJ0W2G4x_pad-12" x="2165.2" y="550.04"/><use xlink:href="#uToez73rEuEEFJ0W2G4x_pad-12" x="2165.2" y="575.63"/><use xlink:href="#uToez73rEuEEFJ0W2G4x_pad-12" x="1939.21" y="575.63"/><use xlink:href="#uToez73rEuEEFJ0W2G4x_pad-12" x="1939.21" y="550.04"/><use xlink:href="#uToez73rEuEEFJ0W2G4x_pad-12" x="1939.21" y="524.45"/><use xlink:href="#uToez73rEuEEFJ0W2G4x_pad-12" x="1939.21" y="498.86"/><use xlink:href="#uToez73rEuEEFJ0W2G4x_pad-13" x="2196" y="308.11"/><use xlink:href="#uToez73rEuEEFJ0W2G4x_pad-13" x="2246" y="308.11"/><use xlink:href="#uToez73rEuEEFJ0W2G4x_pad-13" x="2296" y="308.11"/><use xlink:href="#uToez73rEuEEFJ0W2G4x_pad-13" x="2346" y="308.11"/><use xlink:href="#uToez73rEuEEFJ0W2G4x_pad-13" x="2396" y="308.11"/><use xlink:href="#uToez73rEuEEFJ0W2G4x_pad-13" x="2396" y="258.11"/><use xlink:href="#uToez73rEuEEFJ0W2G4x_pad-13" x="2346" y="258.11"/><use xlink:href="#uToez73rEuEEFJ0W2G4x_pad-13" x="2296" y="258.11"/><use xlink:href="#uToez73rEuEEFJ0W2G4x_pad-13" x="2246" y="258.11"/><use xlink:href="#uToez73rEuEEFJ0W2G4x_pad-13" x="2196" y="258.11"/><use xlink:href="#uToez73rEuEEFJ0W2G4x_pad-14" x="1402.5" y="481.54"/><use xlink:href="#uToez73rEuEEFJ0W2G4x_pad-14" x="1330.26" y="481.24"/><use xlink:href="#uToez73rEuEEFJ0W2G4x_pad-14" x="1330.26" y="548.17"/><use xlink:href="#uToez73rEuEEFJ0W2G4x_pad-14" x="1402.5" y="548.46"/><path d="M 1402.5 548.46 1402.89 548.85 1530.1 548.85 1603.02 475.93 1603.02 470.73 M 1597.75 501 1408.75 690 1296.25 690 M 1337.5 740 1367.5 740 M 1533.75 758.75 1533.75 658.75 M 1547.75 677.5 1547.75 764.55 1240 1072.3 1240 1090 M 1255.4 1105.86 1262.1 1099.16 1262.1 1080.84 1259.8 1078.54 1259.8 1072.3 1561.75 770.35 1561.75 688.5 1671.25 579 1760.24 579 1768.34 587.1 1786.66 587.1 1799.6 574.16 1799.6 555.84 1786.66 542.9 1755.4 542.9 1752.5 540 M 1773.65 518.43 1770.22 515 1621.29 515 1590 546.29 M 1597.75 501 1710.25 501 1740.45 470.8 1777.5 470.8 M 1756.47 492.9 1874.6 492.9 1896.25 471.25 2102.5 471.25 2130.11 498.86 2165.2 498.86 M 2121.25 533.75 2121.25 565 2131.88 575.63 2165.2 575.63 M 2121.25 533.75 2108.75 521.25 2058.75 521.25 M 2036.65 512.1 2052.5 496.25 2052.5 496.25 2077.5 496.25 M 2036.65 512.1 2036.65 555.85 2016.87 575.63 1939.21 575.63 M 1939.21 498.86 1980.11 498.86 1983.75 502.5 M 1958.75 401.1 1980.4 379.45 1980.4 377.95 1993.34 365 2007.7 365 2030.4 342.3 2030.4 330.84 2033.75 327.49 2033.75 265 2065 233.75 2077.5 233.75 2077.5 231.54 M 2083.74 340 2052.5 340 2005.4 387.1 2002.5 387.1 M 2083.74 340 2122.74 379 2383.3 379 2429.78 332.52 2429.78 294.12 2396 260.34 2396 258.11 M 2396 308.11 2396 346.5 2377.5 365 2140 365 2115 340 M 1777.5 565 1660.25 565 1547.75 677.5 M 1533.75 758.75 1202.5 1090 1152.5 1090 1140 1102.5 1140 1115 1151.91 1126.91 1177.5 1126.91 M 1255.4 1105.86 1255.4 1160.63 1247.3 1168.73 M 877.5 583.75 735.29 583.75 720.93 565.46 720.93 565.46 646.25 488.65 646.25 477.5 744.5 477.5 744.5 491 786 491 786 499 786 532 756.66 532 753.1 531.05 749.9 529.2 747.3 526.6 745.45 523.4 744.5 519.84 744.5 499 786 499 794 499 794 532 823.34 532 826.9 531.05 830.1 529.2 832.7 526.6 834.55 523.4 835.5 519.84 835.5 499 794 499 794 491 835.5 491 835.5 477.5 840 477.5 840 515 877.5 552.5 877.5 583.75 M 877.5 580.23 732.53 580.23 M 726.25 572.24 877.5 572.24 M 877.5 564.26 719.76 564.26 M 712 556.27 877.5 556.27 M 873.29 548.29 704.23 548.29 M 696.47 540.3 865.3 540.3 M 857.32 532.32 688.7 532.32 M 680.94 524.33 745.99 524.33 M 744.5 516.34 673.18 516.34 M 665.41 508.36 744.5 508.36 M 744.5 500.37 657.65 500.37 M 649.89 492.39 786 492.39 M 786 500.37 794 500.37 M 794 492.39 840 492.39 M 840 500.37 835.5 500.37 M 835.5 508.36 840 508.36 M 841.34 516.34 835.5 516.34 M 834.01 524.33 849.33 524.33 M 840 484.4 835.5 484.4 M 794 508.36 786 508.36 M 786 516.34 794 516.34 M 794 524.33 786 524.33 M 744.5 484.4 646.25 484.4 M 608.75 452.5 744.5 452.5 744.5 439 786 439 786 431 744.5 431 744.5 410.16 745.45 406.6 747.3 403.4 749.9 400.8 753.1 398.95 756.66 398 786 398 786 431 794 431 794 439 835.5 439 835.5 452.5 840 452.5 840 383.75 608.75 383.75 608.75 452.5 M 608.75 452.46 744.5 452.46 M 744.5 444.48 608.75 444.48 M 608.75 436.49 786 436.49 M 786 428.51 794 428.51 M 794 431 794 398 823.34 398 826.9 398.95 830.1 400.8 832.7 403.4 834.55 406.6 835.5 410.16 835.5 431 794 431 M 794 436.49 840 436.49 M 840 428.51 835.5 428.51 M 835.5 420.52 840 420.52 M 840 412.54 835.5 412.54 M 833.37 404.55 840 404.55 M 840 396.57 608.75 396.57 M 608.75 404.55 746.63 404.55 M 744.5 412.54 608.75 412.54 M 608.75 420.52 744.5 420.52 M 744.5 428.51 608.75 428.51 M 608.75 388.58 840 388.58 M 794 404.55 786 404.55 M 786 412.54 794 412.54 M 794 420.52 786 420.52 M 835.5 444.48 840 444.48 M 840 452.46 835.5 452.46 M 1200 515 1230 515 M 1440.29 477.5 1440.29 377.21 1458.75 358.75 1515 358.75 1533.75 340 1533.75 283.75" fill="none" stroke-width="8"/><use xlink:href="#uToez73rEuEEFJ0W2G4x_pad-16" x="1235" y="515"/><use xlink:href="#uToez73rEuEEFJ0W2G4x_pad-16" x="1195" y="515"/><use xlink:href="#uToez73rEuEEFJ0W2G4x_pad-16" x="1332.5" y="740"/><use xlink:href="#uToez73rEuEEFJ0W2G4x_pad-16" x="1372.5" y="740"/><use xlink:href="#uToez73rEuEEFJ0W2G4x_pad-17" x="790" y="495"/><use xlink:href="#uToez73rEuEEFJ0W2G4x_pad-17" x="790" y="435"/><use xlink:href="#uToez73rEuEEFJ0W2G4x_pad-18" x="799.94" y="283.11"/><use xlink:href="#uToez73rEuEEFJ0W2G4x_pad-18" x="642.46" y="283.11"/><use xlink:href="#uToez73rEuEEFJ0W2G4x_pad-18" x="1449.55" y="1424.84"/><use xlink:href="#uToez73rEuEEFJ0W2G4x_pad-18" x="1607.03" y="1424.84"/><use xlink:href="#uToez73rEuEEFJ0W2G4x_pad-19" x="1385.96" y="1265"/><use xlink:href="#uToez73rEuEEFJ0W2G4x_pad-19" x="1319.04" y="1265"/><use xlink:href="#uToez73rEuEEFJ0W2G4x_pad-19" x="1319.04" y="1202.5"/><use xlink:href="#uToez73rEuEEFJ0W2G4x_pad-19" x="1385.96" y="1202.5"/><use xlink:href="#uToez73rEuEEFJ0W2G4x_pad-20" x="1177.5" y="1178.09"/><use xlink:href="#uToez73rEuEEFJ0W2G4x_pad-20" x="1177.5" y="1126.91"/><path d="M 1206.22 1123.57 1240.4 1123.57 M 1240.4 1113.59 1206.22 1113.59 M 1206.22 1108.57 1206.22 1145.25 1201.08 1150.38 1204.43 1152.31 1207.22 1155.1 1209.19 1158.52 1210.22 1162.34 1210.22 1176.2 1179.39 1176.2 1179.39 1179.98 1210.22 1179.98 1210.22 1193.84 1209.19 1197.66 1207.22 1201.08 1204.43 1203.87 1201.01 1205.85 1197.19 1206.87 1179.39 1206.87 1179.39 1179.98 1175.61 1179.98 1175.61 1176.2 1144.78 1176.2 1144.78 1162.34 1145.81 1158.52 1147.78 1155.1 1150.57 1152.31 1153.92 1150.38 1148.78 1145.25 1148.78 1141.91 1145.7 1141.91 1138.94 1135.15 1131.65 1135.15 1119.85 1123.35 1119.85 1106.65 1125 1101.5 1125 1096.29 1133.79 1087.5 1146.29 1075 1196.29 1075 1518.75 752.54 1518.75 672.25 1513.6 667.1 1513.6 650.4 1525.4 638.6 1542.1 638.6 1553.77 650.27 1645.25 558.79 1654.04 550 1734 550 1732.35 548.35 1732.35 531.65 1734 530 1627.5 530 1610.15 547.35 1610.15 554.64 1598.35 566.44 1581.65 566.44 1569.85 554.64 1569.85 550.12 1414.96 705 1396.21 705 1397 705.79 1398.98 709.21 1400 713.03 1400 738.75 1382.5 738.75 1382.5 741.25 1400 741.25 1400 766.97 1398.98 770.79 1397 774.21 1394.21 777 1390.79 778.98 1386.97 780 1373.75 780 1373.75 754.96 1373.71 755 1371.25 755 1371.25 780 1358.03 780 1354.21 778.98 1350.79 777 1349.67 775.88 1349.56 776 1315.44 776 1309 769.56 1309 756 1295.87 756 1287.53 747.65 1281.65 747.65 1269.85 735.85 1269.85 719.15 1281.65 707.35 1285.1 707.35 1276.1 698.35 1276.1 681.65 1287.9 669.85 1304.6 669.85 1309.75 675 1402.54 675 1513.69 563.85 1433.18 563.85 1433.18 574.67 1426.74 581.12 1378.26 581.12 1371.81 574.67 1371.81 564.17 1360.94 564.17 1360.94 574.38 1354.5 580.82 1306.01 580.82 1299.57 574.38 1299.57 521.96 1306.01 515.52 1354.5 515.52 1360.94 521.96 1360.94 532.17 1371.81 532.17 1371.81 522.25 1376.95 517.12 1373.6 515.19 1370.81 512.4 1368.84 508.98 1367.81 505.16 1367.81 486.38 1397.66 486.38 1397.66 476.69 1407.34 476.69 1407.34 444.88 1424.16 444.88 1425.29 445.18 1425.29 371 1443.75 352.54 1452.54 343.75 1508.79 343.75 1518.75 333.79 1518.75 297.25 1513.6 292.1 1513.6 275.4 1520.5 268.5 1006 268.5 1006 334.13 996.63 343.5 933.37 343.5 924 334.13 924 180 342.5 180 342.5 266.16 375.99 283.71 371.36 263.43 378.71 231.21 378.71 231.21 399.31 205.37 429.09 191.03 462.13 191.03 491.91 205.37 512.51 231.21 519.86 263.43 512.51 295.64 512.51 295.64 491.91 321.48 491.91 321.48 462.13 335.82 458.61 335.82 514.57 373.14 593.75 439.01 593.75 377.54 602.54 368.75 846.21 368.75 855 377.54 855 458.71 848.71 465 855 471.29 855 508.79 883.71 537.5 892.5 546.29 892.5 589.96 883.71 598.75 748.35 598.75 808.95 675.91 884.01 795.61 946.05 922.55 994.36 1055.32 1028.41 1192.44 1047.82 1332.39 1052.36 1473.6 1048.37 1527.95 2008.21 1527.95 2004.21 1473.6 2004.21 1473.6 2008.76 1332.39 2008.76 1332.39 2028.17 1192.44 2028.17 1192.44 2062.21 1055.32 2062.21 1055.32 2110.53 922.55 2110.53 922.55 2172.56 795.61 2172.56 795.61 2247.63 675.91 2334.89 564.8 2334.89 564.8 2433.38 463.5 2433.38 463.5 2433.39 463.5 2542 373.14 2542 373.14 2597.96 335.82 2594.44 335.82 2564.67 321.48 2564.67 321.48 2564.67 321.48 2544.07 295.64 2536.71 263.43 2536.71 263.43 2544.07 231.21 2564.67 205.37 2594.44 191.03 2627.49 191.03 2657.26 205.37 2657.26 205.37 2657.26 205.37 2677.86 231.21 2685.22 263.43 2680.59 283.71 2714.07 266.16 2714.07 180 1931 180 1931 259.13 1921.63 268.5 1547 268.5 1553.9 275.4 1553.9 292.1 1548.75 297.25 1548.75 346.21 1539.96 355 1521.21 373.75 1464.96 373.75 1455.29 383.43 1455.29 464 1460.44 469.15 1460.44 485.85 1448.64 497.65 1437.18 497.65 1437.18 505.16 1436.16 508.98 1434.19 512.4 1431.4 515.19 1428.05 517.12 1433.18 522.25 1433.18 533.85 1523.89 533.85 1582.86 474.87 1582.86 462.39 1594.67 450.58 1611.36 450.58 1623.17 462.39 1623.17 479.08 1616.25 486 1704.04 486 1734.24 455.8 1764 455.8 1769.15 450.64 1785.85 450.64 1797.65 462.45 1797.65 477.9 1868.39 477.9 1881.25 465.04 1890.04 456.25 2108.71 456.25 2132.25 479.79 2200.66 479.79 2207.1 486.23 2207.1 511.49 2206.93 511.65 2207.1 511.82 2207.1 513.4 2224.95 513.4 2234.32 522.77 2238.48 526.93 2247.85 536.3 2247.85 570.13 2202.61 615.38 2193.24 624.75 2077.5 624.75 2073.35 628.9 2056.65 628.9 2044.85 617.1 2044.85 600.4 2056.65 588.6 2073.35 588.6 2077.5 592.75 2127.78 592.75 2123.29 588.26 2123.29 588.25 2116.88 581.84 2115.04 580 2115.04 580 2106.25 571.21 2106.25 539.96 2102.54 536.25 2072.26 536.25 2067.1 541.41 2051.65 541.41 2051.65 562.06 2023.08 590.63 1978.75 590.63 1974.67 594.7 1903.75 594.7 1897.31 588.26 1897.31 568.32 1896.3 567.32 1894.33 563.9 1893.31 560.09 1893.31 550.04 1939.21 550.04 1939.21 550.04 1893.31 550.04 1893.31 539.99 1894.04 537.24 1893.31 534.49 1893.31 524.45 1939.21 524.45 1939.21 524.45 1939.21 550.04 1939.21 550.04 1939.21 526.97 1939.21 524.45 1939.21 524.45 1893.31 524.45 1893.31 514.4 1894.33 510.59 1896.3 507.17 1897.31 506.16 1897.31 491.41 1880.82 507.9 1791.61 507.9 1793.8 510.08 1793.8 526.78 1792.68 527.9 1792.87 527.9 1814.6 549.63 1814.6 580.37 1805.82 589.16 1792.87 602.1 1762.13 602.1 1754.03 594 1677.46 594 1576.75 694.71 1576.75 776.56 1567.96 785.35 1277.1 1076.21 1277.1 1105.37 1270.4 1112.07 1270.4 1166.84 1267.45 1169.79 1267.45 1177.08 1255.64 1188.89 1238.95 1188.89 1227.14 1177.08 1227.14 1160.38 1238.95 1148.58 1240.4 1148.58 1240.4 1110.15 1231.65 1110.15 1219.85 1098.35 1219.85 1093.87 1217.5 1096.21 1217.5 1096.21 1208.71 1105 1202.64 1105 1206.22 1108.57 M 1210.11 1103.6 1225.1 1103.6 M 1240.4 1133.56 1206.22 1133.56 M 1206.22 1143.54 1240.4 1143.54 M 1234 1153.53 1205.64 1153.53 M 1210.22 1163.51 1227.14 1163.51 M 1227.14 1173.5 1210.22 1173.5 M 1210.22 1183.48 1233.54 1183.48 M 1210.22 1193.47 1276.41 1193.47 M 1274 1195.87 1283.37 1186.5 1286.38 1186.5 1286.38 1178.26 1292.83 1171.81 1345.25 1171.81 1351.69 1178.26 1351.69 1226.74 1345.25 1233.18 1292.83 1233.18 1290.32 1230.68 1281 1240 1286.38 1245.38 1286.38 1240.76 1292.83 1234.31 1345.25 1234.31 1350.38 1239.45 1352.31 1236.1 1355.1 1233.31 1358.13 1231.56 1353.31 1226.74 1353.31 1178.26 1359.75 1171.81 1369.96 1171.81 1369.96 1062.41 1379.34 1053.04 1588.6 843.78 1588.6 837.9 1600.4 826.1 1617.1 826.1 1628.9 837.9 1628.9 854.6 1617.1 866.4 1611.22 866.4 1401.96 1075.66 1401.96 1171.81 1412.17 1171.81 1416.87 1176.52 1416.87 1166.18 1428.68 1154.37 1445.38 1154.37 1457.18 1166.18 1457.18 1182.88 1453.03 1187.03 1453.03 1242.9 1496.63 1286.5 1759.13 1286.5 1784.13 1311.5 1793.5 1320.87 1793.5 1390 1797.65 1394.15 1797.65 1410.85 1785.85 1422.65 1769.15 1422.65 1757.35 1410.85 1757.35 1394.15 1761.5 1390 1761.5 1334.13 1745.87 1318.5 1483.37 1318.5 1430.4 1265.53 1422.62 1257.75 1422.62 1260.16 1390.81 1260.16 1390.81 1269.84 1422.62 1269.84 1422.62 1286.66 1421.6 1290.47 1419.62 1293.9 1416.83 1296.69 1413.41 1298.66 1409.59 1299.68 1390.81 1299.68 1390.81 1269.84 1381.12 1269.84 1381.12 1299.68 1362.34 1299.68 1358.52 1298.66 1355.1 1296.69 1352.31 1293.9 1350.38 1290.55 1345.25 1295.68 1292.83 1295.68 1286.38 1289.24 1286.38 1281 1270.87 1281 1268.78 1278.9 1262.9 1278.9 1251.1 1267.1 1251.1 1250.4 1261.5 1240 1251.1 1229.6 1251.1 1212.9 1262.9 1201.1 1268.78 1201.1 1274 1195.87 1274 1195.87 M 1260.55 1203.45 1204.85 1203.45 M 1179.39 1203.45 1175.61 1203.45 M 1175.61 1206.87 1157.81 1206.87 1153.99 1205.85 1150.57 1203.87 1147.78 1201.08 1145.81 1197.66 1144.78 1193.84 1144.78 1179.98 1175.61 1179.98 1175.61 1206.87 M 1175.61 1193.47 1179.39 1193.47 M 1179.39 1183.48 1175.61 1183.48 M 1144.78 1183.48 1026.18 1183.48 M 1028.41 1192.44 1028.41 1192.44 M 1028.55 1193.47 1144.78 1193.47 M 1150.15 1203.45 1029.94 1203.45 M 1031.32 1213.44 1251.1 1213.44 M 1251.1 1223.42 1032.7 1223.42 M 1034.09 1233.41 1254.91 1233.41 M 1258.11 1243.39 1035.47 1243.39 M 1036.86 1253.38 1251.1 1253.38 M 1251.1 1263.36 1038.24 1263.36 M 1039.63 1273.35 1257.35 1273.35 M 1271.25 1258.75 1277.5 1265 1319.04 1265 M 1347.61 1293.32 1351.97 1293.32 M 1381.12 1293.32 1390.81 1293.32 M 1390.81 1283.33 1381.12 1283.33 M 1381.12 1273.35 1390.81 1273.35 M 1390.81 1263.36 1428.24 1263.36 M 1422.62 1273.35 1438.22 1273.35 M 1448.21 1283.33 1422.62 1283.33 M 1419.95 1293.32 1458.19 1293.32 M 1468.18 1303.3 1043.78 1303.3 M 1042.4 1293.32 1290.46 1293.32 M 1286.38 1283.33 1041.01 1283.33 M 1045.17 1313.29 1478.16 1313.29 M 1490 1302.5 1437.03 1249.53 1437.03 1174.53 M 1457.18 1173.5 2032.87 1173.5 M 2030.39 1183.48 1456.58 1183.48 M 1453.03 1193.47 2028.02 1193.47 M 2026.64 1203.45 1453.03 1203.45 M 1453.03 1213.44 2025.25 1213.44 M 2023.87 1223.42 1453.03 1223.42 M 1453.03 1233.41 2022.48 1233.41 M 2021.1 1243.39 1453.52 1243.39 M 1463.5 1253.38 2019.72 1253.38 M 2018.33 1263.36 1473.49 1263.36 M 1483.47 1273.35 2016.95 1273.35 M 2015.56 1283.33 1493.46 1283.33 M 1490 1302.5 1752.5 1302.5 1777.5 1327.5 1777.5 1402.5 M 1797.65 1403.15 1833 1403.15 M 1835.28 1393.17 1796.67 1393.17 M 1793.5 1383.18 1842.93 1383.18 M 1835.4 1392.63 1856.01 1366.79 1885.78 1352.45 1918.83 1352.45 1948.6 1366.79 1969.2 1392.63 1976.55 1424.84 1976.55 1424.84 1969.2 1457.06 1948.6 1482.89 1918.83 1497.23 1885.78 1497.23 1856.01 1482.89 1835.4 1457.06 1828.05 1424.84 1835.4 1392.63 1835.4 1392.63 M 1830.72 1413.14 1795.36 1413.14 M 1759.64 1413.14 1681.08 1413.14 M 1681.08 1419.84 1612.03 1419.84 1612.03 1429.84 1681.08 1429.84 1681.08 1455.52 1637.7 1498.9 1612.03 1498.9 1612.03 1429.84 1602.03 1429.84 1602.03 1419.84 1612.03 1419.84 1612.03 1350.79 1637.7 1350.79 1681.08 1394.17 1681.08 1419.84 M 1681.08 1433.11 1829.94 1433.11 M 1828.05 1424.84 1828.05 1424.84 M 1828.44 1423.12 1612.03 1423.12 M 1612.03 1413.14 1602.03 1413.14 M 1602.03 1419.84 1602.03 1350.79 1576.35 1350.79 1532.97 1394.17 1532.97 1419.84 1602.03 1419.84 M 1602.03 1423.12 1519.6 1423.12 M 1519.6 1413.14 1532.97 1413.14 M 1532.97 1403.15 1519.6 1403.15 M 1519.6 1395.82 1478.56 1354.79 1420.53 1354.79 1379.49 1395.82 1379.49 1453.86 1420.53 1494.9 1478.56 1494.9 1519.6 1453.86 1519.6 1395.82 M 1516.95 1393.17 1533.97 1393.17 M 1543.96 1383.18 1506.96 1383.18 M 1496.98 1373.2 1553.94 1373.2 M 1563.93 1363.21 1486.99 1363.21 M 1412.1 1363.21 1193.14 1363.21 M 1200.57 1366.79 1170.79 1352.45 1137.75 1352.45 1107.98 1366.79 1107.98 1366.79 1087.37 1392.63 1087.37 1392.63 1080.02 1424.84 1080.02 1424.84 1087.37 1457.06 1087.37 1457.06 1107.98 1482.89 1107.98 1482.89 1107.98 1482.89 1137.75 1497.23 1170.79 1497.23 1200.57 1482.89 1200.57 1482.89 1221.17 1457.06 1228.52 1424.84 1228.52 1424.84 1221.17 1392.63 1221.17 1392.63 1200.57 1366.79 1200.57 1366.79 1200.57 1366.79 M 1205.68 1373.2 1402.12 1373.2 M 1392.13 1383.18 1213.64 1383.18 M 1221.29 1393.17 1382.15 1393.17 M 1379.49 1403.15 1223.57 1403.15 M 1225.85 1413.14 1379.49 1413.14 M 1379.49 1423.12 1228.13 1423.12 M 1226.64 1433.11 1379.49 1433.11 M 1379.49 1443.09 1224.36 1443.09 M 1222.08 1453.08 1379.49 1453.08 M 1388.7 1463.06 1216.38 1463.06 M 1208.42 1473.05 1398.68 1473.05 M 1408.67 1483.03 1200.28 1483.03 M 1179.54 1493.02 1418.65 1493.02 M 1480.44 1493.02 1570.48 1493.02 M 1576.35 1498.9 1532.97 1455.52 1532.97 1429.84 1602.03 1429.84 1602.03 1498.9 1576.35 1498.9 M 1560.49 1483.03 1490.43 1483.03 M 1500.41 1473.05 1550.51 1473.05 M 1540.52 1463.06 1510.4 1463.06 M 1519.6 1453.08 1532.97 1453.08 M 1532.97 1443.09 1519.6 1443.09 M 1519.6 1433.11 1532.97 1433.11 M 1602.03 1433.11 1612.03 1433.11 M 1612.03 1443.09 1602.03 1443.09 M 1602.03 1453.08 1612.03 1453.08 M 1612.03 1463.06 1602.03 1463.06 M 1602.03 1473.05 1612.03 1473.05 M 1612.03 1483.03 1602.03 1483.03 M 1602.03 1493.02 1612.03 1493.02 M 1643.58 1493.02 1877.03 1493.02 M 1856.3 1483.03 1653.56 1483.03 M 1663.55 1473.05 1848.16 1473.05 M 1856.01 1482.89 1856.01 1482.89 1856.01 1482.89 M 1840.19 1463.06 1673.53 1463.06 M 1681.08 1453.08 1834.5 1453.08 M 1835.4 1457.06 1835.4 1457.06 M 1832.22 1443.09 1681.08 1443.09 M 1681.08 1403.15 1757.35 1403.15 M 1758.33 1393.17 1680.08 1393.17 M 1670.1 1383.18 1761.5 1383.18 M 1761.5 1373.2 1660.11 1373.2 M 1650.13 1363.21 1761.5 1363.21 M 1761.5 1353.23 1640.14 1353.23 M 1612.03 1353.23 1602.03 1353.23 M 1602.03 1363.21 1612.03 1363.21 M 1612.03 1373.2 1602.03 1373.2 M 1602.03 1383.18 1612.03 1383.18 M 1612.03 1393.17 1602.03 1393.17 M 1602.03 1403.15 1612.03 1403.15 M 1573.91 1353.23 1172.41 1353.23 M 1136.14 1353.23 1048.49 1353.23 M 1048.81 1363.21 1115.4 1363.21 M 1102.87 1373.2 1049.13 1373.2 M 1049.45 1383.18 1094.9 1383.18 M 1087.25 1393.17 1049.77 1393.17 M 1050.09 1403.15 1084.97 1403.15 M 1082.69 1413.14 1050.42 1413.14 M 1050.74 1423.12 1080.41 1423.12 M 1081.91 1433.11 1051.06 1433.11 M 1051.38 1443.09 1084.19 1443.09 M 1086.46 1453.08 1051.7 1453.08 M 1052.02 1463.06 1092.16 1463.06 M 1100.13 1473.05 1052.35 1473.05 M 1052.36 1473.6 1052.36 1473.6 M 1051.67 1483.03 1108.27 1483.03 M 1129 1493.02 1050.94 1493.02 M 1050.2 1503.01 2006.37 1503.01 M 2007.11 1512.99 1049.47 1512.99 M 1048.73 1522.98 2007.84 1522.98 M 2005.64 1493.02 1927.57 1493.02 M 1948.31 1483.03 2004.9 1483.03 M 2004.23 1473.05 1956.45 1473.05 M 1948.6 1482.89 1948.6 1482.89 M 1964.41 1463.06 2004.55 1463.06 M 2004.87 1453.08 1970.11 1453.08 M 1969.2 1457.06 1969.2 1457.06 M 1972.39 1443.09 2005.19 1443.09 M 2005.52 1433.11 1974.67 1433.11 M 1976.16 1423.12 2005.84 1423.12 M 2006.16 1413.14 1973.88 1413.14 M 1971.6 1403.15 2006.48 1403.15 M 2006.8 1393.17 1969.33 1393.17 M 1961.67 1383.18 2007.12 1383.18 M 2007.44 1373.2 1953.71 1373.2 M 1948.6 1366.79 1948.6 1366.79 1948.6 1366.79 M 1941.17 1363.21 2007.77 1363.21 M 2008.09 1353.23 1920.44 1353.23 M 1884.17 1353.23 1793.5 1353.23 M 1793.5 1363.21 1863.43 1363.21 M 1856.01 1366.79 1856.01 1366.79 M 1850.9 1373.2 1793.5 1373.2 M 1793.5 1343.24 2008.41 1343.24 M 2008.73 1333.26 1793.5 1333.26 M 1793.5 1323.27 2010.02 1323.27 M 2011.41 1313.29 1785.92 1313.29 M 1784.13 1311.5 1784.13 1311.5 M 1775.93 1303.3 2012.79 1303.3 M 2014.18 1293.32 1765.95 1293.32 M 1750.65 1323.27 1046.55 1323.27 M 1047.82 1332.39 1047.82 1332.39 M 1047.84 1333.26 1760.63 1333.26 M 1761.5 1343.24 1048.16 1343.24 M 1271.25 1221.25 1290 1202.5 1319.04 1202.5 M 1351.69 1203.45 1353.31 1203.45 M 1353.31 1193.47 1351.69 1193.47 M 1351.69 1183.48 1353.31 1183.48 M 1358.07 1173.5 1346.93 1173.5 M 1369.96 1163.51 1270.4 1163.51 M 1270.4 1153.53 1369.96 1153.53 M 1369.96 1143.54 1270.4 1143.54 M 1270.4 1133.56 1369.96 1133.56 M 1369.96 1123.57 1270.4 1123.57 M 1270.4 1113.59 1369.96 1113.59 M 1369.96 1103.6 1277.1 1103.6 M 1277.1 1093.62 1369.96 1093.62 M 1369.96 1083.63 1277.1 1083.63 M 1279.67 1073.65 1369.96 1073.65 M 1369.96 1063.66 1289.65 1063.66 M 1299.64 1053.68 1378.7 1053.68 M 1388.68 1043.69 1309.62 1043.69 M 1319.61 1033.7 1398.67 1033.7 M 1408.65 1023.72 1329.59 1023.72 M 1339.58 1013.73 1418.64 1013.73 M 1428.62 1003.75 1349.56 1003.75 M 1359.55 993.76 1438.61 993.76 M 1448.59 983.78 1369.53 983.78 M 1379.52 973.79 1458.58 973.79 M 1468.56 963.81 1389.5 963.81 M 1399.49 953.82 1478.55 953.82 M 1488.53 943.84 1409.47 943.84 M 1419.46 933.85 1498.52 933.85 M 1508.5 923.87 1429.44 923.87 M 1439.43 913.88 1518.49 913.88 M 1528.47 903.9 1449.41 903.9 M 1459.4 893.91 1538.46 893.91 M 1548.44 883.93 1469.38 883.93 M 1479.37 873.94 1558.43 873.94 M 1568.41 863.96 1489.35 863.96 M 1499.34 853.97 1578.4 853.97 M 1588.38 843.99 1509.32 843.99 M 1519.31 834 1592.5 834 M 1608.75 846.25 1385.96 1069.04 1385.96 1202.5 M 1353.31 1213.44 1351.69 1213.44 M 1351.69 1223.42 1353.31 1223.42 M 1355.01 1233.41 1287.59 1233.41 M 1286.38 1243.39 1284.39 1243.39 M 1286.38 1183.48 1261.05 1183.48 M 1267.45 1173.5 1291.14 1173.5 M 1401.96 1163.51 1419.54 1163.51 M 1416.87 1173.5 1413.86 1173.5 M 1401.96 1153.53 2037.83 1153.53 M 2035.35 1163.51 1454.51 1163.51 M 1401.96 1143.54 2040.31 1143.54 M 2042.79 1133.56 1401.96 1133.56 M 1401.96 1123.57 2045.27 1123.57 M 2047.75 1113.59 1401.96 1113.59 M 1401.96 1103.6 2050.23 1103.6 M 2052.7 1093.62 1401.96 1093.62 M 1401.96 1083.63 2055.18 1083.63 M 2057.66 1073.65 1403.98 1073.65 M 1413.97 1063.66 2060.14 1063.66 M 2062.81 1053.68 1423.95 1053.68 M 1433.94 1043.69 2066.44 1043.69 M 2070.08 1033.7 1443.92 1033.7 M 1453.91 1023.72 2073.71 1023.72 M 2077.34 1013.73 1463.89 1013.73 M 1473.88 1003.75 2080.98 1003.75 M 2084.61 993.76 1483.86 993.76 M 1493.85 983.78 2088.24 983.78 M 2091.88 973.79 1503.83 973.79 M 1513.82 963.81 2095.51 963.81 M 2099.14 953.82 1523.8 953.82 M 1533.79 943.84 2102.78 943.84 M 2106.41 933.85 1543.77 933.85 M 1553.76 923.87 2110.04 923.87 M 2114.76 913.88 1563.74 913.88 M 1573.73 903.9 2119.64 903.9 M 2124.52 893.91 1583.71 893.91 M 1593.7 883.93 2129.4 883.93 M 2134.28 873.94 1603.68 873.94 M 1619.54 863.96 2139.16 863.96 M 2144.04 853.97 1628.9 853.97 M 1628.9 843.99 2148.92 843.99 M 2153.8 834 1625 834 M 1569.23 784.08 2179.79 784.08 M 2173.53 794.06 1559.25 794.06 M 1549.26 804.05 2168.44 804.05 M 2163.56 814.03 1539.28 814.03 M 1529.29 824.02 2158.68 824.02 M 2186.05 774.09 1576.75 774.09 M 1576.75 764.11 2192.32 764.11 M 2198.58 754.12 1576.75 754.12 M 1576.75 744.14 2204.84 744.14 M 2211.1 734.15 1576.75 734.15 M 1576.75 724.17 2217.37 724.17 M 2223.63 714.18 1576.75 714.18 M 1576.75 704.2 2229.89 704.2 M 2236.15 694.21 1577.25 694.21 M 1587.24 684.23 2242.41 684.23 M 2247.63 675.91 2247.63 675.91 M 2248.94 674.24 1597.22 674.24 M 1607.21 664.26 2256.78 664.26 M 2264.63 654.27 1617.19 654.27 M 1627.18 644.29 2272.47 644.29 M 2280.31 634.3 1637.16 634.3 M 1647.15 624.32 2052.06 624.32 M 2044.85 614.33 1657.13 614.33 M 1667.12 604.34 2044.85 604.34 M 2050.89 594.36 1975.02 594.36 M 1984.97 560.63 2010.66 560.63 2021.65 549.64 2021.65 518.31 2021.65 505.89 2037.5 490.04 2037.5 490.04 2041.29 486.25 1996 486.25 2003.9 494.15 2003.9 510.85 1992.1 522.65 1985.12 522.65 1985.12 524.45 1985.12 534.49 1984.38 537.24 1985.12 539.99 1985.12 550.04 1985.12 560.09 1984.97 560.63 M 1985.12 554.42 2016.87 554.42 M 2021.65 544.43 1985.12 544.43 M 1985.12 550.04 1939.21 550.04 1985.12 550.04 M 1985.12 534.45 2021.65 534.45 M 2021.65 524.46 1985.12 524.46 M 1985.12 524.45 1939.21 524.45 1939.21 524.45 1985.12 524.45 M 2000.27 514.48 2021.65 514.48 M 2023.04 504.49 2003.9 504.49 M 2003.9 494.51 2033.03 494.51 M 2051.65 544.43 2106.25 544.43 M 2106.25 554.42 2051.65 554.42 M 2049.31 564.4 2106.25 564.4 M 2109.43 574.39 2039.32 574.39 M 2029.34 584.37 2119.41 584.37 M 2116.88 581.84 2116.88 581.84 M 2165.2 550.04 2206.29 550.04 2208.75 552.5 M 2231.85 542.93 2231.85 563.51 2186.61 608.75 2065 608.75 M 2193.67 624.32 2288.15 624.32 M 2295.99 614.33 2203.66 614.33 M 2213.64 604.34 2303.83 604.34 M 2311.68 594.36 2223.63 594.36 M 2233.61 584.37 2319.52 584.37 M 2327.36 574.39 2243.6 574.39 M 2247.85 564.4 2335.28 564.4 M 2344.98 554.42 2247.85 554.42 M 2247.85 544.43 2354.69 544.43 M 2364.4 534.45 2246 534.45 M 2236.01 524.46 2374.11 524.46 M 2383.82 514.48 2226.03 514.48 M 2218.32 529.4 2170.15 529.4 2165.2 524.45 M 2207.1 504.49 2393.53 504.49 M 2403.23 494.51 2207.1 494.51 M 2205.39 484.52 2412.94 484.52 M 2422.65 474.54 2127 474.54 M 2117.02 464.55 2432.36 464.55 M 2444.12 454.57 1789.77 454.57 M 1797.65 464.55 1881.73 464.55 M 1871.75 474.54 1797.65 474.54 M 1765.23 454.57 1615.35 454.57 M 1623.17 464.55 1725.48 464.55 M 1715.5 474.54 1623.17 474.54 M 1617.73 484.52 1705.51 484.52 M 1732.35 534.45 1623.06 534.45 M 1613.07 544.43 1732.35 544.43 M 1793.8 524.46 1893.31 524.46 M 1893.31 514.48 1793.8 514.48 M 1799.42 534.45 1893.31 534.45 M 1893.31 544.43 1809.41 544.43 M 1814.6 554.42 1893.31 554.42 M 1894.62 564.4 1814.6 564.4 M 1814.6 574.39 1897.31 574.39 M 1897.31 584.37 1810.6 584.37 M 1800.61 594.36 1903.41 594.36 M 1939.21 550.04 1939.21 550.04 M 1939.21 544.43 1939.21 544.43 M 1939.21 534.45 1939.21 534.45 M 1939.21 524.46 1939.21 524.46 M 1897.31 504.49 1884.22 504.49 M 1894.2 494.51 1897.31 494.51 M 1950.4 421.26 1938.6 409.45 1938.6 392.75 1950.4 380.95 1957.69 380.95 1965.4 373.24 1965.4 371.73 1978.34 358.79 1987.13 350 2001.49 350 2015.4 336.09 2015.4 324.63 2018.75 321.28 2018.75 258.79 2050 227.54 2054.68 222.85 2008.75 222.85 2004.6 227.01 1987.9 227.01 1976.1 215.2 1976.1 198.5 1987.9 186.7 2004.6 186.7 2008.75 190.85 2144.73 190.85 2165.38 211.5 2174.75 220.87 2174.75 233.19 2177.51 230.43 2189.51 225.46 2202.5 225.46 2214.5 230.43 2218.18 234.1 2222.64 229.64 2228.64 225.63 2235.31 222.87 2242.39 221.46 2244.11 221.46 2244.11 256.22 2247.89 256.22 2247.89 221.46 2249.61 221.46 2256.7 222.87 2263.37 225.63 2269.37 229.64 2273.83 234.1 2277.51 230.43 2289.51 225.46 2302.5 225.46 2314.5 230.43 2318.18 234.1 2322.64 229.64 2328.64 225.63 2335.31 222.87 2342.39 221.46 2344.11 221.46 2344.11 256.22 2347.89 256.22 2347.89 221.46 2349.61 221.46 2356.7 222.87 2363.37 225.63 2369.37 229.64 2373.83 234.1 2377.51 230.43 2389.51 225.46 2402.5 225.46 2414.5 230.43 2423.69 239.61 2428.66 251.61 2428.66 264.61 2426.56 269.68 2444.78 287.9 2444.78 338.73 2398.3 385.21 2389.51 394 2116.53 394 2077.53 355 2066 355 2060.85 360.15 2053.56 360.15 2022.65 391.06 2022.65 395.45 2010.85 407.26 1994.15 407.26 1983.98 397.08 1978.9 402.16 1978.9 409.45 1967.1 421.26 1950.4 421.26 M 1943.77 414.63 1455.29 414.63 M 1455.29 424.61 2480.13 424.61 M 2492.13 414.63 1973.73 414.63 M 1978.9 404.64 1991.54 404.64 M 2013.46 404.64 2504.14 404.64 M 2516.14 394.66 2022.65 394.66 M 2029.04 384.67 2107.2 384.67 M 2097.22 374.69 2039.03 374.69 M 2049.01 364.7 2087.23 364.7 M 2015.4 334.75 1548.75 334.75 M 1548.75 344.73 2006.76 344.73 M 2015.4 324.76 1548.75 324.76 M 1548.75 314.78 2018.75 314.78 M 2018.75 304.79 1548.75 304.79 M 1551.19 294.81 2018.75 294.81 M 2018.75 284.82 1553.9 284.82 M 1553.34 274.84 2018.75 274.84 M 2018.75 264.85 1925.28 264.85 M 1931 254.87 2022.67 254.87 M 2032.66 244.88 1931 244.88 M 1931 234.9 2042.64 234.9 M 2052.63 224.91 2006.69 224.91 M 1996.25 206.85 2138.1 206.85 2158.75 227.5 2158.75 333.75 2171.25 346.25 2283.75 346.25 2296 334 2296 308.11 M 2318.18 332.12 2314.5 335.79 2312 336.83 2312 340.62 2302.63 350 2371.29 350 2381 340.28 2381 337.24 2377.51 335.79 2373.83 332.12 2369.37 336.58 2363.37 340.59 2356.7 343.36 2349.61 344.76 2347.89 344.76 2347.89 310 2344.11 310 2344.11 344.76 2342.39 344.76 2335.31 343.36 2328.64 340.59 2322.64 336.58 2318.18 332.12 M 2315.55 334.75 2320.8 334.75 M 2307.9 344.73 2342.23 344.73 M 2344.11 344.73 2347.89 344.73 M 2349.77 344.73 2376.55 344.73 M 2376.46 334.75 2371.2 334.75 M 2347.89 334.75 2344.11 334.75 M 2344.11 324.76 2347.89 324.76 M 2347.89 314.78 2344.11 314.78 M 2344.11 306.22 2347.89 306.22 2347.89 271.46 2347.89 260 2344.11 260 2344.11 306.22 M 2344.11 304.79 2347.89 304.79 M 2347.89 294.81 2344.11 294.81 M 2344.11 284.82 2347.89 284.82 M 2347.89 274.84 2344.11 274.84 M 2344.11 264.85 2347.89 264.85 M 2347.89 254.87 2344.11 254.87 M 2344.11 244.88 2347.89 244.88 M 2347.89 234.9 2344.11 234.9 M 2344.11 224.91 2347.89 224.91 M 2361.63 224.91 2549.09 224.91 M 2544.07 231.21 2544.07 231.21 M 2543.22 234.9 2418.97 234.9 M 2425.87 244.88 2540.95 244.88 M 2538.67 254.87 2428.66 254.87 M 2428.56 264.85 2537.04 264.85 M 2539.32 274.84 2431.71 274.84 M 2441.7 284.82 2541.6 284.82 M 2543.88 294.81 2444.78 294.81 M 2444.78 304.79 2551.36 304.79 M 2544.07 295.64 2544.07 295.64 M 2559.33 314.78 2444.78 314.78 M 2444.78 324.76 2571.49 324.76 M 2592.22 334.75 2444.78 334.75 M 2438.78 344.73 2584.59 344.73 M 2569.63 354.72 2428.8 354.72 M 2418.81 364.7 2554.66 364.7 M 2540.15 374.69 2408.82 374.69 M 2398.84 384.67 2528.14 384.67 M 2468.13 434.6 1455.29 434.6 M 1455.29 444.58 2456.12 444.58 M 2302.63 350 2302.63 350 2302.63 350 M 2247.89 254.87 2244.11 254.87 M 2244.11 244.88 2247.89 244.88 M 2247.89 234.9 2244.11 234.9 M 2244.11 224.91 2247.89 224.91 M 2261.63 224.91 2330.37 224.91 M 2230.37 224.91 2174.75 224.91 M 2168.8 214.93 2557.05 214.93 M 2564.67 205.37 2564.67 205.37 M 2565.57 204.94 2158.82 204.94 M 2148.83 194.96 2586.3 194.96 M 2635.63 194.96 2714.07 194.96 M 2714.07 204.94 2656.36 204.94 M 2664.88 214.93 2714.07 214.93 M 2714.07 224.91 2672.84 224.91 M 2677.86 231.21 2677.86 231.21 M 2678.7 234.9 2714.07 234.9 M 2714.07 244.88 2680.98 244.88 M 2683.26 254.87 2714.07 254.87 M 2714.07 264.85 2684.89 264.85 M 2682.61 274.84 2697.52 274.84 M 2714.07 184.97 1931 184.97 M 1931 194.96 1979.65 194.96 M 1976.1 204.94 1931 204.94 M 1931 214.93 1976.1 214.93 M 1985.81 224.91 1931 224.91 M 1915 224.91 940 224.91 M 940 214.93 1915 214.93 M 1915 204.94 940 204.94 M 940 194.96 1915 194.96 M 1915 184.97 940 184.97 M 940 180 940 327.5 990 327.5 990 252.5 1915 252.5 1915 180 940 180 M 924 184.97 342.5 184.97 M 342.5 194.96 420.95 194.96 M 400.21 204.94 342.5 204.94 M 342.5 214.93 391.7 214.93 M 399.31 205.37 399.31 205.37 M 383.73 224.91 342.5 224.91 M 342.5 234.9 377.87 234.9 M 375.59 244.88 342.5 244.88 M 342.5 254.87 373.31 254.87 M 371.68 264.85 342.5 264.85 M 359.05 274.84 373.96 274.84 M 464.35 334.75 595.02 334.75 M 585.04 324.76 485.09 324.76 M 497.25 314.78 575.05 314.78 M 572.41 312.13 572.41 254.09 613.44 213.06 671.48 213.06 712.52 254.09 712.52 312.13 671.48 353.17 613.44 353.17 572.41 312.13 M 572.41 304.79 505.21 304.79 M 512.7 294.81 572.41 294.81 M 572.41 284.82 514.98 284.82 M 517.26 274.84 572.41 274.84 M 572.41 264.85 519.54 264.85 M 517.91 254.87 572.41 254.87 M 581.62 244.88 515.63 244.88 M 513.35 234.9 591.6 234.9 M 601.59 224.91 507.49 224.91 M 512.51 231.21 512.51 231.21 M 499.52 214.93 611.57 214.93 M 673.35 214.93 763.4 214.93 M 769.27 209.06 794.94 209.06 794.94 278.11 725.89 278.11 725.89 252.44 769.27 209.06 M 753.41 224.91 683.33 224.91 M 693.32 234.9 743.43 234.9 M 733.44 244.88 703.3 244.88 M 712.52 254.87 725.89 254.87 M 725.89 264.85 712.52 264.85 M 712.52 274.84 725.89 274.84 M 725.89 288.11 794.94 288.11 794.94 278.11 804.94 278.11 804.94 209.06 830.62 209.06 874 252.44 874 278.11 804.94 278.11 804.94 288.11 794.94 288.11 794.94 357.17 769.27 357.17 725.89 313.78 725.89 288.11 M 725.89 294.81 712.52 294.81 M 712.52 304.79 725.89 304.79 M 726.88 314.78 709.87 314.78 M 699.88 324.76 736.86 324.76 M 746.85 334.75 689.9 334.75 M 679.91 344.73 756.83 344.73 M 766.82 354.72 486.95 354.72 M 501.92 364.7 1431.58 364.7 M 1425.29 374.69 852.15 374.69 M 855 384.67 1425.29 384.67 M 1425.29 394.66 855 394.66 M 855 404.64 1425.29 404.64 M 1425.29 414.63 855 414.63 M 855 424.61 1425.29 424.61 M 1425.29 434.6 855 434.6 M 855 444.58 1425.29 444.58 M 1407.34 454.57 1397.66 454.57 M 1397.66 444.88 1397.66 476.69 1367.81 476.69 1367.81 457.91 1368.84 454.09 1370.81 450.67 1373.6 447.88 1377.03 445.9 1380.84 444.88 1397.66 444.88 M 1368.71 454.57 1360.48 454.57 M 1360.94 455.03 1360.94 507.45 1354.5 513.89 1306.01 513.89 1299.57 507.45 1299.57 497.24 1268.36 497.24 1262.5 491.38 1262.5 513.75 1245 513.75 1245 516.25 1262.5 516.25 1262.5 541.97 1261.48 545.79 1259.5 549.21 1256.71 552 1253.29 553.98 1249.47 555 1236.25 555 1236.25 529.96 1236.21 530 1233.75 530 1233.75 555 1220.53 555 1216.71 553.98 1213.29 552 1212.17 550.88 1212.06 551 1177.94 551 1171.5 544.56 1171.5 531 1158.37 531 1150.03 522.65 1144.15 522.65 1132.35 510.85 1132.35 494.15 1144.15 482.35 1147.6 482.35 1138.6 473.35 1138.6 456.65 1150.4 444.85 1167.1 444.85 1171.25 449 1265.38 449 1281.62 465.24 1299.57 465.24 1299.57 455.03 1306.01 448.59 1354.5 448.59 1360.94 455.03 M 1360.94 464.55 1367.81 464.55 M 1367.81 474.54 1360.94 474.54 M 1360.94 484.52 1397.66 484.52 M 1397.66 474.54 1407.34 474.54 M 1407.34 464.55 1397.66 464.55 M 1367.81 494.51 1360.94 494.51 M 1360.94 504.49 1367.81 504.49 M 1372.89 514.48 1245 514.48 M 1262.5 524.46 1299.57 524.46 M 1299.57 534.45 1262.5 534.45 M 1261.84 544.43 1299.57 544.43 M 1299.57 554.42 1251.64 554.42 M 1236.25 554.42 1233.75 554.42 M 1233.75 544.43 1236.25 544.43 M 1236.25 534.45 1233.75 534.45 M 1218.36 554.42 892.5 554.42 M 892.5 564.4 1299.57 564.4 M 1299.58 574.39 892.5 574.39 M 892.5 584.37 1493.16 584.37 M 1503.15 574.39 1433.18 574.39 M 1433.18 564.4 1513.13 564.4 M 1535.59 584.37 1619.66 584.37 M 1629.65 574.39 1545.57 574.39 M 1555.56 564.4 1579.61 564.4 M 1569.85 554.42 1565.54 554.42 M 1600.39 564.4 1639.63 564.4 M 1649.62 554.42 1610.15 554.42 M 1609.68 594.36 1525.6 594.36 M 1515.62 604.34 1599.69 604.34 M 1589.71 614.33 1505.63 614.33 M 1495.65 624.32 1579.72 624.32 M 1569.74 634.3 1485.66 634.3 M 1475.68 644.29 1519.71 644.29 M 1513.6 654.27 1465.69 654.27 M 1455.71 664.26 1513.6 664.26 M 1518.75 674.24 1445.72 674.24 M 1435.74 684.23 1518.75 684.23 M 1518.75 694.21 1425.75 694.21 M 1415.77 704.2 1518.75 704.2 M 1518.75 714.18 1400 714.18 M 1400 724.17 1518.75 724.17 M 1518.75 734.15 1400 734.15 M 1400 744.14 1518.75 744.14 M 1517.17 754.12 1400 754.12 M 1400 764.11 1507.18 764.11 M 1497.19 774.09 1397.07 774.09 M 1373.75 774.09 1371.25 774.09 M 1371.25 764.11 1373.75 764.11 M 1332.5 740 1302.5 740 1290 727.5 M 1274.82 714.18 832.95 714.18 M 839.21 724.17 1269.85 724.17 M 1269.85 734.15 845.47 734.15 M 851.73 744.14 1278.14 744.14 M 1275.86 756.46 1292.56 756.46 1304.37 768.26 1304.37 774.14 1306 775.77 1306 797.52 1296.63 806.89 1272.65 830.86 1272.65 836.74 1260.85 848.54 1244.15 848.54 1232.35 836.74 1232.35 820.04 1244.15 808.24 1250.03 808.24 1268.68 789.58 1264.06 784.96 1264.06 768.26 1275.86 756.46 M 1268.21 764.11 864.26 764.11 M 870.52 774.09 1264.06 774.09 M 1264.06 784.08 876.78 784.08 M 883.05 794.06 1264.2 794.06 M 1254.22 804.05 888.14 804.05 M 884.01 795.61 884.01 795.61 M 893.02 814.03 1238.36 814.03 M 1232.35 824.02 897.9 824.02 M 902.78 834 1232.35 834 M 1239.6 843.99 907.66 843.99 M 912.54 853.97 1417.31 853.97 M 1407.33 863.96 917.42 863.96 M 922.3 873.94 1397.34 873.94 M 1387.36 883.93 927.18 883.93 M 932.06 893.91 1377.37 893.91 M 1367.39 903.9 936.94 903.9 M 941.82 913.88 1357.4 913.88 M 1347.42 923.87 946.53 923.87 M 946.05 922.55 946.05 922.55 M 950.16 933.85 1337.43 933.85 M 1327.45 943.84 953.8 943.84 M 957.43 953.82 1317.46 953.82 M 1307.48 963.81 961.06 963.81 M 964.7 973.79 1297.49 973.79 M 1287.51 983.78 968.33 983.78 M 971.96 993.76 1277.52 993.76 M 1267.54 1003.75 975.6 1003.75 M 979.23 1013.73 1257.55 1013.73 M 1247.57 1023.72 982.86 1023.72 M 986.5 1033.7 1237.58 1033.7 M 1227.6 1043.69 990.13 1043.69 M 993.76 1053.68 1217.61 1053.68 M 1207.63 1063.66 996.43 1063.66 M 994.36 1055.32 994.36 1055.32 M 998.91 1073.65 1197.64 1073.65 M 1137.66 1083.63 1001.39 1083.63 M 1003.87 1093.62 1127.67 1093.62 M 1122.9 1103.6 1006.35 1103.6 M 1008.83 1113.59 1119.85 1113.59 M 1120.07 1123.57 1011.31 1123.57 M 1013.79 1133.56 1130.05 1133.56 M 1148.78 1143.54 1016.27 1143.54 M 1018.75 1153.53 1149.36 1153.53 M 1144.78 1163.51 1021.23 1163.51 M 1023.7 1173.5 1144.78 1173.5 M 1265.4 843.99 1427.3 843.99 M 1437.28 834 1272.65 834 M 1279.5 824.02 1447.27 824.02 M 1457.25 814.03 1289.48 814.03 M 1299.47 804.05 1467.24 804.05 M 1477.22 794.06 1306 794.06 M 1306 784.08 1487.21 784.08 M 1313.54 774.09 1304.37 774.09 M 1300.21 764.11 1309 764.11 M 1293.99 754.12 858 754.12 M 826.68 704.2 1281.94 704.2 M 1276.1 694.21 820.42 694.21 M 814.16 684.23 1276.1 684.23 M 1283.51 674.24 807.63 674.24 M 799.79 664.26 1413.28 664.26 M 1403.3 674.24 1308.99 674.24 M 1423.27 654.27 791.95 654.27 M 784.11 644.29 1433.25 644.29 M 1443.24 634.3 776.27 634.3 M 768.42 624.32 1453.22 624.32 M 1463.21 614.33 760.58 614.33 M 752.74 604.34 1473.19 604.34 M 1483.18 594.36 888.1 594.36 M 890.65 544.43 1171.5 544.43 M 1171.5 534.45 880.66 534.45 M 870.68 524.46 1151.84 524.46 M 1165 515 1195 515 M 1165 515 1152.5 502.5 M 1132.35 504.49 855 504.49 M 855 494.51 1132.35 494.51 M 1141.97 484.52 855 484.52 M 855 474.54 1139.79 474.54 M 1138.6 464.55 849.16 464.55 M 855 454.57 1140.68 454.57 M 1158.75 465 1258.75 465 1274.99 481.24 1330.26 481.24 M 1299.57 464.55 1280.93 464.55 M 1270.95 454.57 1300.03 454.57 M 1265.63 494.51 1262.5 494.51 M 1262.5 504.49 1299.57 504.49 M 1330.26 548.17 1402.2 548.17 1402.5 548.46 M 1371.81 564.4 1360.94 564.4 M 1360.93 574.39 1371.81 574.39 M 1371.81 524.46 1360.94 524.46 M 1432.11 514.48 1543.26 514.48 M 1553.24 504.49 1437.18 504.49 M 1451.78 494.51 1563.23 494.51 M 1573.21 484.52 1460.44 484.52 M 1460.44 474.54 1582.86 474.54 M 1582.86 464.55 1455.84 464.55 M 1455.29 454.57 1590.68 454.57 M 1533.27 524.46 1433.18 524.46 M 1455.29 404.64 1938.6 404.64 M 1938.6 394.66 1455.29 394.66 M 1455.29 384.67 1946.68 384.67 M 1963.95 374.69 1464.03 374.69 M 1441.57 354.72 833.06 354.72 M 830.62 357.17 804.94 357.17 804.94 288.11 874 288.11 874 313.78 830.62 357.17 M 843.05 344.73 1451.55 344.73 M 1517.79 334.75 1005.38 334.75 M 1006 324.76 1518.75 324.76 M 1518.75 314.78 1006 314.78 M 1006 304.79 1518.75 304.79 M 1516.31 294.81 1006 294.81 M 1006 284.82 1513.6 284.82 M 1514.16 274.84 1006 274.84 M 990 274.84 940 274.84 M 940 284.82 990 284.82 M 990 294.81 940 294.81 M 940 304.79 990 304.79 M 990 314.78 940 314.78 M 940 324.76 990 324.76 M 924 324.76 863.02 324.76 M 873 314.78 924 314.78 M 924 304.79 874 304.79 M 874 294.81 924 294.81 M 924 284.82 804.94 284.82 M 804.94 274.84 794.94 274.84 M 794.94 284.82 712.52 284.82 M 794.94 294.81 804.94 294.81 M 804.94 304.79 794.94 304.79 M 794.94 314.78 804.94 314.78 M 804.94 324.76 794.94 324.76 M 794.94 334.75 804.94 334.75 M 804.94 344.73 794.94 344.73 M 794.94 354.72 804.94 354.72 M 853.03 334.75 924.62 334.75 M 924 274.84 874 274.84 M 874 264.85 924 264.85 M 924 254.87 874 254.87 M 866.44 244.88 924 244.88 M 924 234.9 856.46 234.9 M 846.47 224.91 924 224.91 M 924 214.93 836.49 214.93 M 804.94 214.93 794.94 214.93 M 794.94 224.91 804.94 224.91 M 804.94 234.9 794.94 234.9 M 794.94 244.88 804.94 244.88 M 804.94 254.87 794.94 254.87 M 794.94 264.85 804.94 264.85 M 924 204.94 491.01 204.94 M 491.91 205.37 491.91 205.37 491.91 205.37 M 470.27 194.96 924 194.96 M 940 234.9 1915 234.9 M 1915 244.88 940 244.88 M 940 254.87 990 254.87 M 990 264.85 940 264.85 M 605.01 344.73 471.98 344.73 M 516.43 374.69 596.6 374.69 M 593.75 384.67 528.43 384.67 M 540.43 394.66 593.75 394.66 M 593.75 404.64 552.44 404.64 M 564.44 414.63 593.75 414.63 M 593.75 424.61 576.45 424.61 M 588.45 434.6 593.75 434.6 M 860.69 514.48 1135.98 514.48 M 1530.26 364.7 1972.43 364.7 M 1982.41 354.72 1540.25 354.72 M 1677.1 594.36 1754.39 594.36 M 1559.75 644.29 1547.79 644.29 M 1290 782.4 1290 790.89 1252.5 828.39 M 1290 782.4 1284.21 776.61 M 2218.32 529.4 2231.85 542.93" fill="none" stroke-width="10"/><use xlink:href="#uToez73rEuEEFJ0W2G4x_pad-22" x="2208.75" y="552.5"/><use xlink:href="#uToez73rEuEEFJ0W2G4x_pad-22" x="2077.5" y="496.25"/><use xlink:href="#uToez73rEuEEFJ0W2G4x_pad-22" x="2058.75" y="521.25"/><use xlink:href="#uToez73rEuEEFJ0W2G4x_pad-22" x="2015" y="496.25"/><use xlink:href="#uToez73rEuEEFJ0W2G4x_pad-22" x="1983.75" y="502.5"/><use xlink:href="#uToez73rEuEEFJ0W2G4x_pad-22" x="1965" y="433.75"/><use xlink:href="#uToez73rEuEEFJ0W2G4x_pad-22" x="1958.75" y="401.1"/><use xlink:href="#uToez73rEuEEFJ0W2G4x_pad-22" x="2002.5" y="387.1"/><use xlink:href="#uToez73rEuEEFJ0W2G4x_pad-22" x="2052.5" y="408.75"/><use xlink:href="#uToez73rEuEEFJ0W2G4x_pad-22" x="2021.25" y="433.75"/><use xlink:href="#uToez73rEuEEFJ0W2G4x_pad-22" x="2052.5" y="340"/><use xlink:href="#uToez73rEuEEFJ0W2G4x_pad-22" x="2115" y="340"/><use xlink:href="#uToez73rEuEEFJ0W2G4x_pad-22" x="1983.75" y="315"/><use xlink:href="#uToez73rEuEEFJ0W2G4x_pad-22" x="1977.5" y="252.5"/><use xlink:href="#uToez73rEuEEFJ0W2G4x_pad-22" x="1996.25" y="206.85"/><use xlink:href="#uToez73rEuEEFJ0W2G4x_pad-22" x="2077.5" y="231.54"/><use xlink:href="#uToez73rEuEEFJ0W2G4x_pad-22" x="2171.25" y="190"/><use xlink:href="#uToez73rEuEEFJ0W2G4x_pad-22" x="2240" y="190"/><use xlink:href="#uToez73rEuEEFJ0W2G4x_pad-22" x="2340" y="190"/><use xlink:href="#uToez73rEuEEFJ0W2G4x_pad-22" x="2452.5" y="196.25"/><use xlink:href="#uToez73rEuEEFJ0W2G4x_pad-22" x="2502.5" y="208.75"/><use xlink:href="#uToez73rEuEEFJ0W2G4x_pad-22" x="2496.25" y="302.5"/><use xlink:href="#uToez73rEuEEFJ0W2G4x_pad-22" x="2433.75" y="421.25"/><use xlink:href="#uToez73rEuEEFJ0W2G4x_pad-22" x="2065" y="608.75"/><use xlink:href="#uToez73rEuEEFJ0W2G4x_pad-22" x="1883.75" y="733.75"/><use xlink:href="#uToez73rEuEEFJ0W2G4x_pad-22" x="1796.25" y="740"/><use xlink:href="#uToez73rEuEEFJ0W2G4x_pad-22" x="1733.75" y="765"/><use xlink:href="#uToez73rEuEEFJ0W2G4x_pad-22" x="1608.75" y="846.25"/><use xlink:href="#uToez73rEuEEFJ0W2G4x_pad-22" x="1502.5" y="865"/><use xlink:href="#uToez73rEuEEFJ0W2G4x_pad-22" x="1390" y="852.5"/><use xlink:href="#uToez73rEuEEFJ0W2G4x_pad-22" x="1365" y="840"/><use xlink:href="#uToez73rEuEEFJ0W2G4x_pad-22" x="1315" y="865"/><use xlink:href="#uToez73rEuEEFJ0W2G4x_pad-22" x="1252.5" y="828.39"/><use xlink:href="#uToez73rEuEEFJ0W2G4x_pad-22" x="1284.21" y="776.61"/><use xlink:href="#uToez73rEuEEFJ0W2G4x_pad-22" x="1290" y="727.5"/><use xlink:href="#uToez73rEuEEFJ0W2G4x_pad-22" x="1296.25" y="690"/><use xlink:href="#uToez73rEuEEFJ0W2G4x_pad-22" x="1333.75" y="646.25"/><use xlink:href="#uToez73rEuEEFJ0W2G4x_pad-22" x="1440" y="602.5"/><use xlink:href="#uToez73rEuEEFJ0W2G4x_pad-22" x="1533.75" y="658.75"/><use xlink:href="#uToez73rEuEEFJ0W2G4x_pad-22" x="1590" y="546.29"/><use xlink:href="#uToez73rEuEEFJ0W2G4x_pad-22" x="1603.02" y="470.73"/><use xlink:href="#uToez73rEuEEFJ0W2G4x_pad-22" x="1652.5" y="458.75"/><use xlink:href="#uToez73rEuEEFJ0W2G4x_pad-22" x="1756.47" y="492.9"/><use xlink:href="#uToez73rEuEEFJ0W2G4x_pad-22" x="1777.5" y="470.8"/><use xlink:href="#uToez73rEuEEFJ0W2G4x_pad-22" x="1773.65" y="518.43"/><use xlink:href="#uToez73rEuEEFJ0W2G4x_pad-22" x="1752.5" y="540"/><use xlink:href="#uToez73rEuEEFJ0W2G4x_pad-22" x="1777.5" y="565"/><use xlink:href="#uToez73rEuEEFJ0W2G4x_pad-22" x="1852.5" y="621.25"/><use xlink:href="#uToez73rEuEEFJ0W2G4x_pad-22" x="1540" y="446.25"/><use xlink:href="#uToez73rEuEEFJ0W2G4x_pad-22" x="1540" y="402.5"/><use xlink:href="#uToez73rEuEEFJ0W2G4x_pad-22" x="1440.29" y="477.5"/><use xlink:href="#uToez73rEuEEFJ0W2G4x_pad-22" x="1377.5" y="371.25"/><use xlink:href="#uToez73rEuEEFJ0W2G4x_pad-22" x="1402.5" y="321.25"/><use xlink:href="#uToez73rEuEEFJ0W2G4x_pad-22" x="1421.25" y="233.75"/><use xlink:href="#uToez73rEuEEFJ0W2G4x_pad-22" x="1533.75" y="283.75"/><use xlink:href="#uToez73rEuEEFJ0W2G4x_pad-22" x="1677.5" y="340"/><use xlink:href="#uToez73rEuEEFJ0W2G4x_pad-22" x="1840" y="371.25"/><use xlink:href="#uToez73rEuEEFJ0W2G4x_pad-22" x="1858.75" y="308.75"/><use xlink:href="#uToez73rEuEEFJ0W2G4x_pad-22" x="1871.25" y="233.75"/><use xlink:href="#uToez73rEuEEFJ0W2G4x_pad-22" x="1196.25" y="327.5"/><use xlink:href="#uToez73rEuEEFJ0W2G4x_pad-22" x="1077.5" y="365"/><use xlink:href="#uToez73rEuEEFJ0W2G4x_pad-22" x="1071.25" y="327.5"/><use xlink:href="#uToez73rEuEEFJ0W2G4x_pad-22" x="965" y="302.5"/><use xlink:href="#uToez73rEuEEFJ0W2G4x_pad-22" x="965" y="265"/><use xlink:href="#uToez73rEuEEFJ0W2G4x_pad-22" x="965" y="227.5"/><use xlink:href="#uToez73rEuEEFJ0W2G4x_pad-22" x="902.5" y="227.5"/><use xlink:href="#uToez73rEuEEFJ0W2G4x_pad-22" x="902.5" y="265"/><use xlink:href="#uToez73rEuEEFJ0W2G4x_pad-22" x="902.5" y="302.5"/><use xlink:href="#uToez73rEuEEFJ0W2G4x_pad-22" x="902.5" y="340"/><use xlink:href="#uToez73rEuEEFJ0W2G4x_pad-22" x="690" y="402.5"/><use xlink:href="#uToez73rEuEEFJ0W2G4x_pad-22" x="658.75" y="402.5"/><use xlink:href="#uToez73rEuEEFJ0W2G4x_pad-22" x="658.75" y="433.75"/><use xlink:href="#uToez73rEuEEFJ0W2G4x_pad-22" x="690" y="433.75"/><use xlink:href="#uToez73rEuEEFJ0W2G4x_pad-22" x="627.5" y="433.75"/><use xlink:href="#uToez73rEuEEFJ0W2G4x_pad-22" x="627.5" y="402.5"/><use xlink:href="#uToez73rEuEEFJ0W2G4x_pad-22" x="733.75" y="558.75"/><use xlink:href="#uToez73rEuEEFJ0W2G4x_pad-22" x="765" y="558.75"/><use xlink:href="#uToez73rEuEEFJ0W2G4x_pad-22" x="796.25" y="558.75"/><use xlink:href="#uToez73rEuEEFJ0W2G4x_pad-22" x="827.5" y="558.75"/><use xlink:href="#uToez73rEuEEFJ0W2G4x_pad-22" x="858.75" y="558.75"/><use xlink:href="#uToez73rEuEEFJ0W2G4x_pad-22" x="933.75" y="565"/><use xlink:href="#uToez73rEuEEFJ0W2G4x_pad-22" x="996.25" y="590"/><use xlink:href="#uToez73rEuEEFJ0W2G4x_pad-22" x="996.25" y="652.5"/><use xlink:href="#uToez73rEuEEFJ0W2G4x_pad-22" x="1065" y="652.5"/><use xlink:href="#uToez73rEuEEFJ0W2G4x_pad-22" x="1021.25" y="721.25"/><use xlink:href="#uToez73rEuEEFJ0W2G4x_pad-22" x="1046.25" y="796.25"/><use xlink:href="#uToez73rEuEEFJ0W2G4x_pad-22" x="1090" y="840"/><use xlink:href="#uToez73rEuEEFJ0W2G4x_pad-22" x="1090" y="908.75"/><use xlink:href="#uToez73rEuEEFJ0W2G4x_pad-22" x="1308.75" y="915"/><use xlink:href="#uToez73rEuEEFJ0W2G4x_pad-22" x="1308.75" y="940"/><use xlink:href="#uToez73rEuEEFJ0W2G4x_pad-22" x="1327.5" y="1083.75"/><use xlink:href="#uToez73rEuEEFJ0W2G4x_pad-22" x="1358.75" y="1083.75"/><use xlink:href="#uToez73rEuEEFJ0W2G4x_pad-22" x="1277.5" y="1146.25"/><use xlink:href="#uToez73rEuEEFJ0W2G4x_pad-22" x="1247.3" y="1168.73"/><use xlink:href="#uToez73rEuEEFJ0W2G4x_pad-22" x="1277.5" y="1177.5"/><use xlink:href="#uToez73rEuEEFJ0W2G4x_pad-22" x="1271.25" y="1221.25"/><use xlink:href="#uToez73rEuEEFJ0W2G4x_pad-22" x="1271.25" y="1258.75"/><use xlink:href="#uToez73rEuEEFJ0W2G4x_pad-22" x="1158.75" y="1221.25"/><use xlink:href="#uToez73rEuEEFJ0W2G4x_pad-22" x="1140" y="1115"/><use xlink:href="#uToez73rEuEEFJ0W2G4x_pad-22" x="1240" y="1090"/><use xlink:href="#uToez73rEuEEFJ0W2G4x_pad-22" x="1437.03" y="1174.53"/><use xlink:href="#uToez73rEuEEFJ0W2G4x_pad-22" x="1477.5" y="1165"/><use xlink:href="#uToez73rEuEEFJ0W2G4x_pad-22" x="1515" y="1165"/><use xlink:href="#uToez73rEuEEFJ0W2G4x_pad-22" x="1552.5" y="1165"/><use xlink:href="#uToez73rEuEEFJ0W2G4x_pad-22" x="1558.75" y="1277.5"/><use xlink:href="#uToez73rEuEEFJ0W2G4x_pad-22" x="1496.25" y="1271.25"/><use xlink:href="#uToez73rEuEEFJ0W2G4x_pad-22" x="1552.5" y="1333.75"/><use xlink:href="#uToez73rEuEEFJ0W2G4x_pad-22" x="1583.75" y="1333.75"/><use xlink:href="#uToez73rEuEEFJ0W2G4x_pad-22" x="1615" y="1333.75"/><use xlink:href="#uToez73rEuEEFJ0W2G4x_pad-22" x="1646.25" y="1333.75"/><use xlink:href="#uToez73rEuEEFJ0W2G4x_pad-22" x="1677.5" y="1333.75"/><use xlink:href="#uToez73rEuEEFJ0W2G4x_pad-22" x="1777.5" y="1402.5"/><use xlink:href="#uToez73rEuEEFJ0W2G4x_pad-22" x="1827.5" y="1290"/><use xlink:href="#uToez73rEuEEFJ0W2G4x_pad-22" x="1946.25" y="1302.5"/><use xlink:href="#uToez73rEuEEFJ0W2G4x_pad-22" x="1952.5" y="1233.75"/><use xlink:href="#uToez73rEuEEFJ0W2G4x_pad-22" x="1721.25" y="1165"/><use xlink:href="#uToez73rEuEEFJ0W2G4x_pad-22" x="1740" y="1102.5"/><use xlink:href="#uToez73rEuEEFJ0W2G4x_pad-22" x="1683.75" y="1052.5"/><use xlink:href="#uToez73rEuEEFJ0W2G4x_pad-22" x="1665" y="1015"/><use xlink:href="#uToez73rEuEEFJ0W2G4x_pad-22" x="1621.25" y="1008.75"/><use xlink:href="#uToez73rEuEEFJ0W2G4x_pad-22" x="1602.5" y="977.5"/><use xlink:href="#uToez73rEuEEFJ0W2G4x_pad-22" x="1602.5" y="927.5"/><use xlink:href="#uToez73rEuEEFJ0W2G4x_pad-22" x="1708.75" y="1008.75"/><use xlink:href="#uToez73rEuEEFJ0W2G4x_pad-22" x="1758.75" y="1002.5"/><use xlink:href="#uToez73rEuEEFJ0W2G4x_pad-22" x="1827.5" y="1002.5"/><use xlink:href="#uToez73rEuEEFJ0W2G4x_pad-22" x="1896.25" y="1008.75"/><use xlink:href="#uToez73rEuEEFJ0W2G4x_pad-22" x="1915" y="1065"/><use xlink:href="#uToez73rEuEEFJ0W2G4x_pad-22" x="2002.5" y="1046.25"/><use xlink:href="#uToez73rEuEEFJ0W2G4x_pad-22" x="2021.25" y="1083.75"/><use xlink:href="#uToez73rEuEEFJ0W2G4x_pad-22" x="2040" y="1021.25"/><use xlink:href="#uToez73rEuEEFJ0W2G4x_pad-22" x="1821.25" y="1058.75"/><use xlink:href="#uToez73rEuEEFJ0W2G4x_pad-22" x="1152.5" y="502.5"/><use xlink:href="#uToez73rEuEEFJ0W2G4x_pad-22" x="1158.75" y="465"/></g></svg>