%
M48
M72
T01C0.0122
T02C0.0138
T03C0.0200
T04C0.0276
T05C0.0394
%
T01
X14678Y17532
X15022Y15416
T02
X8772Y3408
X9855Y5180
X10544Y5721
X11470Y5484
X11823Y5081
X11577Y4884
X11528Y4491
X12119Y4491
X12709Y4491
X13300Y4491
X13693Y5180
X13516Y5623
X13152Y5573
X12562Y5918
X12463Y6754
X13890Y6656
X13890Y7148
X13890Y7640
X14382Y7640
X14875Y7640
X14875Y7148
X14382Y7148
X14382Y6656
X14875Y6656
X15465Y5819
X15760Y5911
X15416Y5377
X14875Y5573
X14862Y4983
X15711Y4638
X16496Y5074
X16736Y4253
X17335Y4047
X17680Y3999
X17975Y3999
X17581Y3408
X17089Y3113
X18467Y3211
X18123Y4737
X17778Y4934
X17483Y4688
X18664Y4934
X19304Y4934
X20239Y3310
X17040Y6361
X17089Y6607
X16794Y6607
X16499Y6607
X16203Y6607
X16597Y6077
X17384Y6607
X17384Y7394
X17089Y7394
X16794Y7394
X16941Y7690
X16646Y7985
X17384Y7739
X17680Y7394
X18221Y7394
X18270Y7099
X18270Y6804
X18270Y6508
X17827Y7985
X16105Y7394
X15575Y8231
X15317Y8643
X15121Y8821
X15268Y9067
X16045Y9067
X16608Y9510
X17335Y10691
X16734Y10790
X16843Y11233
X17237Y11430
X16941Y12562
X16548Y13300
X17089Y13447
X16843Y14579
X16693Y15315
X17443Y16203
X18221Y16843
X17778Y17532
X17188Y17926
X18467Y17926
X15662Y19599
X15564Y18812
X15219Y18467
X15317Y18123
X15022Y17630
X15465Y17089
X15465Y16843
X14481Y16794
X14087Y16794
X14087Y16400
X14481Y16400
X14481Y16006
X14087Y16006
X14530Y15268
X14038Y15121
X13644Y14629
X13693Y14186
X14136Y13890
X15071Y13989
X15613Y14678
X15170Y12995
X14825Y12758
X15760Y12660
X15613Y12168
X15859Y11499
X14875Y10249
X14956Y9855
X13792Y9067
X13613Y8674
X13304Y8628
X12857Y8477
X12611Y10199
X13300Y10347
X13644Y11184
X14136Y11282
X13841Y11823
X13792Y12512
X13447Y13103
X12955Y12660
X12217Y12562
X11721Y13296
X12562Y13890
X11971Y14629
X13251Y15711
X12955Y16548
X12414Y16843
X12562Y17581
X12955Y17581
X12168Y17581
X11774Y17581
X10445Y17877
X10347Y17581
X10199Y18073
X10298Y18516
X9904Y18516
X11085Y19550
X11085Y19058
X12660Y19894
X12758Y19058
X13349Y19058
X13841Y17630
X14973Y18861
X14481Y20829
X14629Y21715
X15760Y20928
X15170Y22847
X13398Y23044
X13398Y23339
X13398Y23634
X11922Y23634
X11922Y23339
X11922Y23044
X13251Y21863
X8575Y21666
X7197Y22945
X8723Y23142
X21863Y23044
X20485Y22109
X19451Y22601
X19894Y23290
X12316Y15957
X13054Y11823
X12808Y11331
X11380Y10593
X11627Y3506
X11627Y2965
T03
X11672Y6001
X11672Y6501
X11672Y7001
X11672Y7501
X11672Y8001
X12172Y8001
X12172Y7501
X12172Y7001
X12172Y6501
X12172Y6001
T04
X14071Y3953
X14071Y3453
X14571Y3453
X15071Y3453
X15071Y3953
X14571Y3953
X15571Y3953
X16071Y3953
X16071Y3453
X15571Y3453
T05
X11119Y3310
X12119Y3310
X13119Y3310
M30
