G75*
%MOIN*%
%OFA0B0*%
%FSLAX25Y25*%
%IPPOS*%
%LPD*%
%AMOC8*
5,1,8,0,0,1.08239X$1,22.5*
%
%ADD10C,0.00000*%
%ADD11C,0.00039*%
%ADD12R,0.03543X0.02756*%
%ADD13R,0.05906X0.05118*%
%ADD14R,0.02756X0.03543*%
%ADD15R,0.02362X0.03150*%
%ADD16R,0.07471X0.06475*%
%ADD17C,0.00227*%
%ADD18R,0.09016X0.32520*%
%ADD19R,0.02953X0.02992*%
%ADD20R,0.03937X0.04331*%
%ADD21R,0.01400X0.04600*%
%ADD22R,0.03150X0.02362*%
%ADD23R,0.04724X0.04724*%
%ADD24R,0.02953X0.02756*%
%ADD25R,0.03346X0.03543*%
%ADD26R,0.02343X0.00792*%
%ADD27R,0.00792X0.02343*%
%ADD28R,0.05202X0.05202*%
%ADD29R,0.04134X0.08661*%
%ADD30R,0.03937X0.04134*%
%ADD31C,0.00748*%
%ADD32C,0.00748*%
%ADD33R,0.02756X0.02953*%
D10*
X0073943Y0027191D02*
X0216659Y0027191D01*
X0178274Y0119711D02*
X0178317Y0122928D01*
X0178438Y0126143D01*
X0178637Y0129354D01*
X0178915Y0132559D01*
X0179271Y0135756D01*
X0179705Y0138944D01*
X0180216Y0142120D01*
X0180805Y0145283D01*
X0181471Y0148431D01*
X0182214Y0151561D01*
X0183032Y0154672D01*
X0183927Y0157763D01*
X0184896Y0160830D01*
X0185941Y0163873D01*
X0187059Y0166890D01*
X0188250Y0169878D01*
X0189514Y0172837D01*
X0190850Y0175764D01*
X0192257Y0178657D01*
X0193734Y0181515D01*
X0195280Y0184336D01*
X0196895Y0187119D01*
X0198577Y0189861D01*
X0200326Y0192562D01*
X0202140Y0195219D01*
X0204018Y0197831D01*
X0205960Y0200396D01*
X0207964Y0202913D01*
X0210028Y0205381D01*
X0212152Y0207797D01*
X0214334Y0210161D01*
X0216574Y0212471D01*
X0218869Y0214725D01*
X0221219Y0216923D01*
X0223621Y0219063D01*
X0226075Y0221143D01*
X0228579Y0223163D01*
X0231131Y0225121D01*
X0233731Y0227017D01*
X0236376Y0228848D01*
X0239065Y0230615D01*
X0241796Y0232315D01*
X0244568Y0233948D01*
X0247379Y0235512D01*
X0250228Y0237008D01*
X0253112Y0238434D01*
X0256030Y0239789D01*
X0256029Y0239789D02*
X0034572Y0239789D01*
X0112328Y0119710D02*
X0112279Y0116500D01*
X0112151Y0113291D01*
X0111945Y0110087D01*
X0111661Y0106888D01*
X0111299Y0103698D01*
X0110860Y0100517D01*
X0110343Y0097348D01*
X0109749Y0094193D01*
X0109078Y0091053D01*
X0108331Y0087930D01*
X0107508Y0084826D01*
X0106610Y0081743D01*
X0105637Y0078684D01*
X0104589Y0075648D01*
X0103468Y0072639D01*
X0102273Y0069659D01*
X0101007Y0066708D01*
X0099669Y0063789D01*
X0098260Y0060904D01*
X0096781Y0058054D01*
X0095233Y0055241D01*
X0093617Y0052466D01*
X0091934Y0049731D01*
X0090185Y0047039D01*
X0088371Y0044390D01*
X0086492Y0041785D01*
X0084551Y0039228D01*
X0082548Y0036718D01*
X0080484Y0034258D01*
X0078361Y0031849D01*
X0076180Y0029493D01*
X0073942Y0027190D01*
X0112328Y0119711D02*
X0112285Y0122928D01*
X0112164Y0126143D01*
X0111965Y0129354D01*
X0111687Y0132559D01*
X0111331Y0135756D01*
X0110897Y0138944D01*
X0110386Y0142120D01*
X0109797Y0145283D01*
X0109131Y0148431D01*
X0108388Y0151561D01*
X0107570Y0154672D01*
X0106675Y0157763D01*
X0105706Y0160830D01*
X0104661Y0163873D01*
X0103543Y0166890D01*
X0102352Y0169878D01*
X0101088Y0172837D01*
X0099752Y0175764D01*
X0098345Y0178657D01*
X0096868Y0181515D01*
X0095322Y0184336D01*
X0093707Y0187119D01*
X0092025Y0189861D01*
X0090276Y0192562D01*
X0088462Y0195219D01*
X0086584Y0197831D01*
X0084642Y0200396D01*
X0082638Y0202913D01*
X0080574Y0205381D01*
X0078450Y0207797D01*
X0076268Y0210161D01*
X0074028Y0212471D01*
X0071733Y0214725D01*
X0069383Y0216923D01*
X0066981Y0219063D01*
X0064527Y0221143D01*
X0062023Y0223163D01*
X0059471Y0225121D01*
X0056871Y0227017D01*
X0054226Y0228848D01*
X0051537Y0230615D01*
X0048806Y0232315D01*
X0046034Y0233948D01*
X0043223Y0235512D01*
X0040374Y0237008D01*
X0037490Y0238434D01*
X0034572Y0239789D01*
X0178273Y0119710D02*
X0178322Y0116500D01*
X0178450Y0113291D01*
X0178656Y0110087D01*
X0178940Y0106888D01*
X0179302Y0103698D01*
X0179741Y0100517D01*
X0180258Y0097348D01*
X0180852Y0094193D01*
X0181523Y0091053D01*
X0182270Y0087930D01*
X0183093Y0084826D01*
X0183991Y0081743D01*
X0184964Y0078684D01*
X0186012Y0075648D01*
X0187133Y0072639D01*
X0188328Y0069659D01*
X0189594Y0066708D01*
X0190932Y0063789D01*
X0192341Y0060904D01*
X0193820Y0058054D01*
X0195368Y0055241D01*
X0196984Y0052466D01*
X0198667Y0049731D01*
X0200416Y0047039D01*
X0202230Y0044390D01*
X0204109Y0041785D01*
X0206050Y0039228D01*
X0208053Y0036718D01*
X0210117Y0034258D01*
X0212240Y0031849D01*
X0214421Y0029493D01*
X0216659Y0027190D01*
D11*
X0186836Y0039002D02*
X0186838Y0039142D01*
X0186844Y0039282D01*
X0186854Y0039421D01*
X0186868Y0039560D01*
X0186886Y0039699D01*
X0186907Y0039837D01*
X0186933Y0039975D01*
X0186963Y0040112D01*
X0186996Y0040247D01*
X0187034Y0040382D01*
X0187075Y0040516D01*
X0187120Y0040649D01*
X0187168Y0040780D01*
X0187221Y0040909D01*
X0187277Y0041038D01*
X0187336Y0041164D01*
X0187400Y0041289D01*
X0187466Y0041412D01*
X0187537Y0041533D01*
X0187610Y0041652D01*
X0187687Y0041769D01*
X0187768Y0041883D01*
X0187851Y0041995D01*
X0187938Y0042105D01*
X0188028Y0042213D01*
X0188120Y0042317D01*
X0188216Y0042419D01*
X0188315Y0042519D01*
X0188416Y0042615D01*
X0188520Y0042709D01*
X0188627Y0042799D01*
X0188736Y0042886D01*
X0188848Y0042971D01*
X0188962Y0043052D01*
X0189078Y0043130D01*
X0189196Y0043204D01*
X0189317Y0043275D01*
X0189439Y0043343D01*
X0189564Y0043407D01*
X0189690Y0043468D01*
X0189817Y0043525D01*
X0189947Y0043578D01*
X0190078Y0043628D01*
X0190210Y0043673D01*
X0190343Y0043716D01*
X0190478Y0043754D01*
X0190613Y0043788D01*
X0190750Y0043819D01*
X0190887Y0043846D01*
X0191025Y0043868D01*
X0191164Y0043887D01*
X0191303Y0043902D01*
X0191442Y0043913D01*
X0191582Y0043920D01*
X0191722Y0043923D01*
X0191862Y0043922D01*
X0192002Y0043917D01*
X0192141Y0043908D01*
X0192281Y0043895D01*
X0192420Y0043878D01*
X0192558Y0043857D01*
X0192696Y0043833D01*
X0192833Y0043804D01*
X0192969Y0043772D01*
X0193104Y0043735D01*
X0193238Y0043695D01*
X0193371Y0043651D01*
X0193502Y0043603D01*
X0193632Y0043552D01*
X0193761Y0043497D01*
X0193888Y0043438D01*
X0194013Y0043375D01*
X0194136Y0043310D01*
X0194258Y0043240D01*
X0194377Y0043167D01*
X0194495Y0043091D01*
X0194610Y0043012D01*
X0194723Y0042929D01*
X0194833Y0042843D01*
X0194941Y0042754D01*
X0195046Y0042662D01*
X0195149Y0042567D01*
X0195249Y0042469D01*
X0195346Y0042369D01*
X0195440Y0042265D01*
X0195532Y0042159D01*
X0195620Y0042051D01*
X0195705Y0041940D01*
X0195787Y0041826D01*
X0195866Y0041710D01*
X0195941Y0041593D01*
X0196013Y0041473D01*
X0196081Y0041351D01*
X0196146Y0041227D01*
X0196208Y0041101D01*
X0196266Y0040974D01*
X0196320Y0040845D01*
X0196371Y0040714D01*
X0196417Y0040582D01*
X0196460Y0040449D01*
X0196500Y0040315D01*
X0196535Y0040180D01*
X0196567Y0040043D01*
X0196594Y0039906D01*
X0196618Y0039768D01*
X0196638Y0039630D01*
X0196654Y0039491D01*
X0196666Y0039351D01*
X0196674Y0039212D01*
X0196678Y0039072D01*
X0196678Y0038932D01*
X0196674Y0038792D01*
X0196666Y0038653D01*
X0196654Y0038513D01*
X0196638Y0038374D01*
X0196618Y0038236D01*
X0196594Y0038098D01*
X0196567Y0037961D01*
X0196535Y0037824D01*
X0196500Y0037689D01*
X0196460Y0037555D01*
X0196417Y0037422D01*
X0196371Y0037290D01*
X0196320Y0037159D01*
X0196266Y0037030D01*
X0196208Y0036903D01*
X0196146Y0036777D01*
X0196081Y0036653D01*
X0196013Y0036531D01*
X0195941Y0036411D01*
X0195866Y0036294D01*
X0195787Y0036178D01*
X0195705Y0036064D01*
X0195620Y0035953D01*
X0195532Y0035845D01*
X0195440Y0035739D01*
X0195346Y0035635D01*
X0195249Y0035535D01*
X0195149Y0035437D01*
X0195046Y0035342D01*
X0194941Y0035250D01*
X0194833Y0035161D01*
X0194723Y0035075D01*
X0194610Y0034992D01*
X0194495Y0034913D01*
X0194377Y0034837D01*
X0194258Y0034764D01*
X0194136Y0034694D01*
X0194013Y0034629D01*
X0193888Y0034566D01*
X0193761Y0034507D01*
X0193632Y0034452D01*
X0193502Y0034401D01*
X0193371Y0034353D01*
X0193238Y0034309D01*
X0193104Y0034269D01*
X0192969Y0034232D01*
X0192833Y0034200D01*
X0192696Y0034171D01*
X0192558Y0034147D01*
X0192420Y0034126D01*
X0192281Y0034109D01*
X0192141Y0034096D01*
X0192002Y0034087D01*
X0191862Y0034082D01*
X0191722Y0034081D01*
X0191582Y0034084D01*
X0191442Y0034091D01*
X0191303Y0034102D01*
X0191164Y0034117D01*
X0191025Y0034136D01*
X0190887Y0034158D01*
X0190750Y0034185D01*
X0190613Y0034216D01*
X0190478Y0034250D01*
X0190343Y0034288D01*
X0190210Y0034331D01*
X0190078Y0034376D01*
X0189947Y0034426D01*
X0189817Y0034479D01*
X0189690Y0034536D01*
X0189564Y0034597D01*
X0189439Y0034661D01*
X0189317Y0034729D01*
X0189196Y0034800D01*
X0189078Y0034874D01*
X0188962Y0034952D01*
X0188848Y0035033D01*
X0188736Y0035118D01*
X0188627Y0035205D01*
X0188520Y0035295D01*
X0188416Y0035389D01*
X0188315Y0035485D01*
X0188216Y0035585D01*
X0188120Y0035687D01*
X0188028Y0035791D01*
X0187938Y0035899D01*
X0187851Y0036009D01*
X0187768Y0036121D01*
X0187687Y0036235D01*
X0187610Y0036352D01*
X0187537Y0036471D01*
X0187466Y0036592D01*
X0187400Y0036715D01*
X0187336Y0036840D01*
X0187277Y0036966D01*
X0187221Y0037095D01*
X0187168Y0037224D01*
X0187120Y0037355D01*
X0187075Y0037488D01*
X0187034Y0037622D01*
X0186996Y0037757D01*
X0186963Y0037892D01*
X0186933Y0038029D01*
X0186907Y0038167D01*
X0186886Y0038305D01*
X0186868Y0038444D01*
X0186854Y0038583D01*
X0186844Y0038722D01*
X0186838Y0038862D01*
X0186836Y0039002D01*
X0093923Y0039002D02*
X0093925Y0039142D01*
X0093931Y0039282D01*
X0093941Y0039421D01*
X0093955Y0039560D01*
X0093973Y0039699D01*
X0093994Y0039837D01*
X0094020Y0039975D01*
X0094050Y0040112D01*
X0094083Y0040247D01*
X0094121Y0040382D01*
X0094162Y0040516D01*
X0094207Y0040649D01*
X0094255Y0040780D01*
X0094308Y0040909D01*
X0094364Y0041038D01*
X0094423Y0041164D01*
X0094487Y0041289D01*
X0094553Y0041412D01*
X0094624Y0041533D01*
X0094697Y0041652D01*
X0094774Y0041769D01*
X0094855Y0041883D01*
X0094938Y0041995D01*
X0095025Y0042105D01*
X0095115Y0042213D01*
X0095207Y0042317D01*
X0095303Y0042419D01*
X0095402Y0042519D01*
X0095503Y0042615D01*
X0095607Y0042709D01*
X0095714Y0042799D01*
X0095823Y0042886D01*
X0095935Y0042971D01*
X0096049Y0043052D01*
X0096165Y0043130D01*
X0096283Y0043204D01*
X0096404Y0043275D01*
X0096526Y0043343D01*
X0096651Y0043407D01*
X0096777Y0043468D01*
X0096904Y0043525D01*
X0097034Y0043578D01*
X0097165Y0043628D01*
X0097297Y0043673D01*
X0097430Y0043716D01*
X0097565Y0043754D01*
X0097700Y0043788D01*
X0097837Y0043819D01*
X0097974Y0043846D01*
X0098112Y0043868D01*
X0098251Y0043887D01*
X0098390Y0043902D01*
X0098529Y0043913D01*
X0098669Y0043920D01*
X0098809Y0043923D01*
X0098949Y0043922D01*
X0099089Y0043917D01*
X0099228Y0043908D01*
X0099368Y0043895D01*
X0099507Y0043878D01*
X0099645Y0043857D01*
X0099783Y0043833D01*
X0099920Y0043804D01*
X0100056Y0043772D01*
X0100191Y0043735D01*
X0100325Y0043695D01*
X0100458Y0043651D01*
X0100589Y0043603D01*
X0100719Y0043552D01*
X0100848Y0043497D01*
X0100975Y0043438D01*
X0101100Y0043375D01*
X0101223Y0043310D01*
X0101345Y0043240D01*
X0101464Y0043167D01*
X0101582Y0043091D01*
X0101697Y0043012D01*
X0101810Y0042929D01*
X0101920Y0042843D01*
X0102028Y0042754D01*
X0102133Y0042662D01*
X0102236Y0042567D01*
X0102336Y0042469D01*
X0102433Y0042369D01*
X0102527Y0042265D01*
X0102619Y0042159D01*
X0102707Y0042051D01*
X0102792Y0041940D01*
X0102874Y0041826D01*
X0102953Y0041710D01*
X0103028Y0041593D01*
X0103100Y0041473D01*
X0103168Y0041351D01*
X0103233Y0041227D01*
X0103295Y0041101D01*
X0103353Y0040974D01*
X0103407Y0040845D01*
X0103458Y0040714D01*
X0103504Y0040582D01*
X0103547Y0040449D01*
X0103587Y0040315D01*
X0103622Y0040180D01*
X0103654Y0040043D01*
X0103681Y0039906D01*
X0103705Y0039768D01*
X0103725Y0039630D01*
X0103741Y0039491D01*
X0103753Y0039351D01*
X0103761Y0039212D01*
X0103765Y0039072D01*
X0103765Y0038932D01*
X0103761Y0038792D01*
X0103753Y0038653D01*
X0103741Y0038513D01*
X0103725Y0038374D01*
X0103705Y0038236D01*
X0103681Y0038098D01*
X0103654Y0037961D01*
X0103622Y0037824D01*
X0103587Y0037689D01*
X0103547Y0037555D01*
X0103504Y0037422D01*
X0103458Y0037290D01*
X0103407Y0037159D01*
X0103353Y0037030D01*
X0103295Y0036903D01*
X0103233Y0036777D01*
X0103168Y0036653D01*
X0103100Y0036531D01*
X0103028Y0036411D01*
X0102953Y0036294D01*
X0102874Y0036178D01*
X0102792Y0036064D01*
X0102707Y0035953D01*
X0102619Y0035845D01*
X0102527Y0035739D01*
X0102433Y0035635D01*
X0102336Y0035535D01*
X0102236Y0035437D01*
X0102133Y0035342D01*
X0102028Y0035250D01*
X0101920Y0035161D01*
X0101810Y0035075D01*
X0101697Y0034992D01*
X0101582Y0034913D01*
X0101464Y0034837D01*
X0101345Y0034764D01*
X0101223Y0034694D01*
X0101100Y0034629D01*
X0100975Y0034566D01*
X0100848Y0034507D01*
X0100719Y0034452D01*
X0100589Y0034401D01*
X0100458Y0034353D01*
X0100325Y0034309D01*
X0100191Y0034269D01*
X0100056Y0034232D01*
X0099920Y0034200D01*
X0099783Y0034171D01*
X0099645Y0034147D01*
X0099507Y0034126D01*
X0099368Y0034109D01*
X0099228Y0034096D01*
X0099089Y0034087D01*
X0098949Y0034082D01*
X0098809Y0034081D01*
X0098669Y0034084D01*
X0098529Y0034091D01*
X0098390Y0034102D01*
X0098251Y0034117D01*
X0098112Y0034136D01*
X0097974Y0034158D01*
X0097837Y0034185D01*
X0097700Y0034216D01*
X0097565Y0034250D01*
X0097430Y0034288D01*
X0097297Y0034331D01*
X0097165Y0034376D01*
X0097034Y0034426D01*
X0096904Y0034479D01*
X0096777Y0034536D01*
X0096651Y0034597D01*
X0096526Y0034661D01*
X0096404Y0034729D01*
X0096283Y0034800D01*
X0096165Y0034874D01*
X0096049Y0034952D01*
X0095935Y0035033D01*
X0095823Y0035118D01*
X0095714Y0035205D01*
X0095607Y0035295D01*
X0095503Y0035389D01*
X0095402Y0035485D01*
X0095303Y0035585D01*
X0095207Y0035687D01*
X0095115Y0035791D01*
X0095025Y0035899D01*
X0094938Y0036009D01*
X0094855Y0036121D01*
X0094774Y0036235D01*
X0094697Y0036352D01*
X0094624Y0036471D01*
X0094553Y0036592D01*
X0094487Y0036715D01*
X0094423Y0036840D01*
X0094364Y0036966D01*
X0094308Y0037095D01*
X0094255Y0037224D01*
X0094207Y0037355D01*
X0094162Y0037488D01*
X0094121Y0037622D01*
X0094083Y0037757D01*
X0094050Y0037892D01*
X0094020Y0038029D01*
X0093994Y0038167D01*
X0093973Y0038305D01*
X0093955Y0038444D01*
X0093941Y0038583D01*
X0093931Y0038722D01*
X0093925Y0038862D01*
X0093923Y0039002D01*
X0093923Y0194750D02*
X0093925Y0194890D01*
X0093931Y0195030D01*
X0093941Y0195169D01*
X0093955Y0195308D01*
X0093973Y0195447D01*
X0093994Y0195585D01*
X0094020Y0195723D01*
X0094050Y0195860D01*
X0094083Y0195995D01*
X0094121Y0196130D01*
X0094162Y0196264D01*
X0094207Y0196397D01*
X0094255Y0196528D01*
X0094308Y0196657D01*
X0094364Y0196786D01*
X0094423Y0196912D01*
X0094487Y0197037D01*
X0094553Y0197160D01*
X0094624Y0197281D01*
X0094697Y0197400D01*
X0094774Y0197517D01*
X0094855Y0197631D01*
X0094938Y0197743D01*
X0095025Y0197853D01*
X0095115Y0197961D01*
X0095207Y0198065D01*
X0095303Y0198167D01*
X0095402Y0198267D01*
X0095503Y0198363D01*
X0095607Y0198457D01*
X0095714Y0198547D01*
X0095823Y0198634D01*
X0095935Y0198719D01*
X0096049Y0198800D01*
X0096165Y0198878D01*
X0096283Y0198952D01*
X0096404Y0199023D01*
X0096526Y0199091D01*
X0096651Y0199155D01*
X0096777Y0199216D01*
X0096904Y0199273D01*
X0097034Y0199326D01*
X0097165Y0199376D01*
X0097297Y0199421D01*
X0097430Y0199464D01*
X0097565Y0199502D01*
X0097700Y0199536D01*
X0097837Y0199567D01*
X0097974Y0199594D01*
X0098112Y0199616D01*
X0098251Y0199635D01*
X0098390Y0199650D01*
X0098529Y0199661D01*
X0098669Y0199668D01*
X0098809Y0199671D01*
X0098949Y0199670D01*
X0099089Y0199665D01*
X0099228Y0199656D01*
X0099368Y0199643D01*
X0099507Y0199626D01*
X0099645Y0199605D01*
X0099783Y0199581D01*
X0099920Y0199552D01*
X0100056Y0199520D01*
X0100191Y0199483D01*
X0100325Y0199443D01*
X0100458Y0199399D01*
X0100589Y0199351D01*
X0100719Y0199300D01*
X0100848Y0199245D01*
X0100975Y0199186D01*
X0101100Y0199123D01*
X0101223Y0199058D01*
X0101345Y0198988D01*
X0101464Y0198915D01*
X0101582Y0198839D01*
X0101697Y0198760D01*
X0101810Y0198677D01*
X0101920Y0198591D01*
X0102028Y0198502D01*
X0102133Y0198410D01*
X0102236Y0198315D01*
X0102336Y0198217D01*
X0102433Y0198117D01*
X0102527Y0198013D01*
X0102619Y0197907D01*
X0102707Y0197799D01*
X0102792Y0197688D01*
X0102874Y0197574D01*
X0102953Y0197458D01*
X0103028Y0197341D01*
X0103100Y0197221D01*
X0103168Y0197099D01*
X0103233Y0196975D01*
X0103295Y0196849D01*
X0103353Y0196722D01*
X0103407Y0196593D01*
X0103458Y0196462D01*
X0103504Y0196330D01*
X0103547Y0196197D01*
X0103587Y0196063D01*
X0103622Y0195928D01*
X0103654Y0195791D01*
X0103681Y0195654D01*
X0103705Y0195516D01*
X0103725Y0195378D01*
X0103741Y0195239D01*
X0103753Y0195099D01*
X0103761Y0194960D01*
X0103765Y0194820D01*
X0103765Y0194680D01*
X0103761Y0194540D01*
X0103753Y0194401D01*
X0103741Y0194261D01*
X0103725Y0194122D01*
X0103705Y0193984D01*
X0103681Y0193846D01*
X0103654Y0193709D01*
X0103622Y0193572D01*
X0103587Y0193437D01*
X0103547Y0193303D01*
X0103504Y0193170D01*
X0103458Y0193038D01*
X0103407Y0192907D01*
X0103353Y0192778D01*
X0103295Y0192651D01*
X0103233Y0192525D01*
X0103168Y0192401D01*
X0103100Y0192279D01*
X0103028Y0192159D01*
X0102953Y0192042D01*
X0102874Y0191926D01*
X0102792Y0191812D01*
X0102707Y0191701D01*
X0102619Y0191593D01*
X0102527Y0191487D01*
X0102433Y0191383D01*
X0102336Y0191283D01*
X0102236Y0191185D01*
X0102133Y0191090D01*
X0102028Y0190998D01*
X0101920Y0190909D01*
X0101810Y0190823D01*
X0101697Y0190740D01*
X0101582Y0190661D01*
X0101464Y0190585D01*
X0101345Y0190512D01*
X0101223Y0190442D01*
X0101100Y0190377D01*
X0100975Y0190314D01*
X0100848Y0190255D01*
X0100719Y0190200D01*
X0100589Y0190149D01*
X0100458Y0190101D01*
X0100325Y0190057D01*
X0100191Y0190017D01*
X0100056Y0189980D01*
X0099920Y0189948D01*
X0099783Y0189919D01*
X0099645Y0189895D01*
X0099507Y0189874D01*
X0099368Y0189857D01*
X0099228Y0189844D01*
X0099089Y0189835D01*
X0098949Y0189830D01*
X0098809Y0189829D01*
X0098669Y0189832D01*
X0098529Y0189839D01*
X0098390Y0189850D01*
X0098251Y0189865D01*
X0098112Y0189884D01*
X0097974Y0189906D01*
X0097837Y0189933D01*
X0097700Y0189964D01*
X0097565Y0189998D01*
X0097430Y0190036D01*
X0097297Y0190079D01*
X0097165Y0190124D01*
X0097034Y0190174D01*
X0096904Y0190227D01*
X0096777Y0190284D01*
X0096651Y0190345D01*
X0096526Y0190409D01*
X0096404Y0190477D01*
X0096283Y0190548D01*
X0096165Y0190622D01*
X0096049Y0190700D01*
X0095935Y0190781D01*
X0095823Y0190866D01*
X0095714Y0190953D01*
X0095607Y0191043D01*
X0095503Y0191137D01*
X0095402Y0191233D01*
X0095303Y0191333D01*
X0095207Y0191435D01*
X0095115Y0191539D01*
X0095025Y0191647D01*
X0094938Y0191757D01*
X0094855Y0191869D01*
X0094774Y0191983D01*
X0094697Y0192100D01*
X0094624Y0192219D01*
X0094553Y0192340D01*
X0094487Y0192463D01*
X0094423Y0192588D01*
X0094364Y0192714D01*
X0094308Y0192843D01*
X0094255Y0192972D01*
X0094207Y0193103D01*
X0094162Y0193236D01*
X0094121Y0193370D01*
X0094083Y0193505D01*
X0094050Y0193640D01*
X0094020Y0193777D01*
X0093994Y0193915D01*
X0093973Y0194053D01*
X0093955Y0194192D01*
X0093941Y0194331D01*
X0093931Y0194470D01*
X0093925Y0194610D01*
X0093923Y0194750D01*
X0186836Y0194750D02*
X0186838Y0194890D01*
X0186844Y0195030D01*
X0186854Y0195169D01*
X0186868Y0195308D01*
X0186886Y0195447D01*
X0186907Y0195585D01*
X0186933Y0195723D01*
X0186963Y0195860D01*
X0186996Y0195995D01*
X0187034Y0196130D01*
X0187075Y0196264D01*
X0187120Y0196397D01*
X0187168Y0196528D01*
X0187221Y0196657D01*
X0187277Y0196786D01*
X0187336Y0196912D01*
X0187400Y0197037D01*
X0187466Y0197160D01*
X0187537Y0197281D01*
X0187610Y0197400D01*
X0187687Y0197517D01*
X0187768Y0197631D01*
X0187851Y0197743D01*
X0187938Y0197853D01*
X0188028Y0197961D01*
X0188120Y0198065D01*
X0188216Y0198167D01*
X0188315Y0198267D01*
X0188416Y0198363D01*
X0188520Y0198457D01*
X0188627Y0198547D01*
X0188736Y0198634D01*
X0188848Y0198719D01*
X0188962Y0198800D01*
X0189078Y0198878D01*
X0189196Y0198952D01*
X0189317Y0199023D01*
X0189439Y0199091D01*
X0189564Y0199155D01*
X0189690Y0199216D01*
X0189817Y0199273D01*
X0189947Y0199326D01*
X0190078Y0199376D01*
X0190210Y0199421D01*
X0190343Y0199464D01*
X0190478Y0199502D01*
X0190613Y0199536D01*
X0190750Y0199567D01*
X0190887Y0199594D01*
X0191025Y0199616D01*
X0191164Y0199635D01*
X0191303Y0199650D01*
X0191442Y0199661D01*
X0191582Y0199668D01*
X0191722Y0199671D01*
X0191862Y0199670D01*
X0192002Y0199665D01*
X0192141Y0199656D01*
X0192281Y0199643D01*
X0192420Y0199626D01*
X0192558Y0199605D01*
X0192696Y0199581D01*
X0192833Y0199552D01*
X0192969Y0199520D01*
X0193104Y0199483D01*
X0193238Y0199443D01*
X0193371Y0199399D01*
X0193502Y0199351D01*
X0193632Y0199300D01*
X0193761Y0199245D01*
X0193888Y0199186D01*
X0194013Y0199123D01*
X0194136Y0199058D01*
X0194258Y0198988D01*
X0194377Y0198915D01*
X0194495Y0198839D01*
X0194610Y0198760D01*
X0194723Y0198677D01*
X0194833Y0198591D01*
X0194941Y0198502D01*
X0195046Y0198410D01*
X0195149Y0198315D01*
X0195249Y0198217D01*
X0195346Y0198117D01*
X0195440Y0198013D01*
X0195532Y0197907D01*
X0195620Y0197799D01*
X0195705Y0197688D01*
X0195787Y0197574D01*
X0195866Y0197458D01*
X0195941Y0197341D01*
X0196013Y0197221D01*
X0196081Y0197099D01*
X0196146Y0196975D01*
X0196208Y0196849D01*
X0196266Y0196722D01*
X0196320Y0196593D01*
X0196371Y0196462D01*
X0196417Y0196330D01*
X0196460Y0196197D01*
X0196500Y0196063D01*
X0196535Y0195928D01*
X0196567Y0195791D01*
X0196594Y0195654D01*
X0196618Y0195516D01*
X0196638Y0195378D01*
X0196654Y0195239D01*
X0196666Y0195099D01*
X0196674Y0194960D01*
X0196678Y0194820D01*
X0196678Y0194680D01*
X0196674Y0194540D01*
X0196666Y0194401D01*
X0196654Y0194261D01*
X0196638Y0194122D01*
X0196618Y0193984D01*
X0196594Y0193846D01*
X0196567Y0193709D01*
X0196535Y0193572D01*
X0196500Y0193437D01*
X0196460Y0193303D01*
X0196417Y0193170D01*
X0196371Y0193038D01*
X0196320Y0192907D01*
X0196266Y0192778D01*
X0196208Y0192651D01*
X0196146Y0192525D01*
X0196081Y0192401D01*
X0196013Y0192279D01*
X0195941Y0192159D01*
X0195866Y0192042D01*
X0195787Y0191926D01*
X0195705Y0191812D01*
X0195620Y0191701D01*
X0195532Y0191593D01*
X0195440Y0191487D01*
X0195346Y0191383D01*
X0195249Y0191283D01*
X0195149Y0191185D01*
X0195046Y0191090D01*
X0194941Y0190998D01*
X0194833Y0190909D01*
X0194723Y0190823D01*
X0194610Y0190740D01*
X0194495Y0190661D01*
X0194377Y0190585D01*
X0194258Y0190512D01*
X0194136Y0190442D01*
X0194013Y0190377D01*
X0193888Y0190314D01*
X0193761Y0190255D01*
X0193632Y0190200D01*
X0193502Y0190149D01*
X0193371Y0190101D01*
X0193238Y0190057D01*
X0193104Y0190017D01*
X0192969Y0189980D01*
X0192833Y0189948D01*
X0192696Y0189919D01*
X0192558Y0189895D01*
X0192420Y0189874D01*
X0192281Y0189857D01*
X0192141Y0189844D01*
X0192002Y0189835D01*
X0191862Y0189830D01*
X0191722Y0189829D01*
X0191582Y0189832D01*
X0191442Y0189839D01*
X0191303Y0189850D01*
X0191164Y0189865D01*
X0191025Y0189884D01*
X0190887Y0189906D01*
X0190750Y0189933D01*
X0190613Y0189964D01*
X0190478Y0189998D01*
X0190343Y0190036D01*
X0190210Y0190079D01*
X0190078Y0190124D01*
X0189947Y0190174D01*
X0189817Y0190227D01*
X0189690Y0190284D01*
X0189564Y0190345D01*
X0189439Y0190409D01*
X0189317Y0190477D01*
X0189196Y0190548D01*
X0189078Y0190622D01*
X0188962Y0190700D01*
X0188848Y0190781D01*
X0188736Y0190866D01*
X0188627Y0190953D01*
X0188520Y0191043D01*
X0188416Y0191137D01*
X0188315Y0191233D01*
X0188216Y0191333D01*
X0188120Y0191435D01*
X0188028Y0191539D01*
X0187938Y0191647D01*
X0187851Y0191757D01*
X0187768Y0191869D01*
X0187687Y0191983D01*
X0187610Y0192100D01*
X0187537Y0192219D01*
X0187466Y0192340D01*
X0187400Y0192463D01*
X0187336Y0192588D01*
X0187277Y0192714D01*
X0187221Y0192843D01*
X0187168Y0192972D01*
X0187120Y0193103D01*
X0187075Y0193236D01*
X0187034Y0193370D01*
X0186996Y0193505D01*
X0186963Y0193640D01*
X0186933Y0193777D01*
X0186907Y0193915D01*
X0186886Y0194053D01*
X0186868Y0194192D01*
X0186854Y0194331D01*
X0186844Y0194470D01*
X0186838Y0194610D01*
X0186836Y0194750D01*
D12*
X0134966Y0184277D03*
X0130045Y0184277D03*
X0125124Y0184277D03*
X0125124Y0179159D03*
X0130045Y0179159D03*
X0134966Y0179159D03*
X0140872Y0147860D03*
X0140872Y0142742D03*
X0145301Y0135065D03*
X0145301Y0129946D03*
X0151698Y0129946D03*
X0151698Y0135065D03*
X0129553Y0135065D03*
X0129553Y0129946D03*
X0125124Y0142742D03*
X0125124Y0147860D03*
X0152191Y0107998D03*
X0158096Y0107998D03*
X0158096Y0102880D03*
X0152191Y0102880D03*
X0155143Y0095694D03*
X0155143Y0090576D03*
X0143824Y0090576D03*
X0143824Y0095694D03*
X0126108Y0095694D03*
X0126108Y0090576D03*
X0164002Y0102880D03*
X0164002Y0107998D03*
X0171383Y0095694D03*
X0171383Y0090576D03*
X0164494Y0075517D03*
X0164494Y0070399D03*
X0178765Y0070399D03*
X0178765Y0075517D03*
D13*
X0185163Y0208490D03*
X0185163Y0215970D03*
D14*
X0163608Y0178765D03*
X0158490Y0178765D03*
X0158490Y0167939D03*
X0163608Y0167939D03*
X0163608Y0162033D03*
X0158490Y0162033D03*
X0169317Y0162033D03*
X0174435Y0162033D03*
X0174435Y0156128D03*
X0169317Y0156128D03*
X0171285Y0084769D03*
X0176403Y0084769D03*
X0162131Y0053765D03*
X0157013Y0053765D03*
X0127191Y0052289D03*
X0122072Y0052289D03*
D15*
X0158096Y0156128D03*
X0164002Y0156128D03*
X0167939Y0167939D03*
X0173844Y0167939D03*
X0164002Y0173844D03*
X0158096Y0173844D03*
D16*
X0145083Y0164082D03*
D17*
X0144567Y0170118D02*
X0144567Y0173278D01*
X0145601Y0173278D01*
X0145601Y0170118D01*
X0144567Y0170118D01*
X0144567Y0170334D02*
X0145601Y0170334D01*
X0145601Y0170550D02*
X0144567Y0170550D01*
X0144567Y0170766D02*
X0145601Y0170766D01*
X0145601Y0170982D02*
X0144567Y0170982D01*
X0144567Y0171198D02*
X0145601Y0171198D01*
X0145601Y0171414D02*
X0144567Y0171414D01*
X0144567Y0171630D02*
X0145601Y0171630D01*
X0145601Y0171846D02*
X0144567Y0171846D01*
X0144567Y0172062D02*
X0145601Y0172062D01*
X0145601Y0172278D02*
X0144567Y0172278D01*
X0144567Y0172494D02*
X0145601Y0172494D01*
X0145601Y0172710D02*
X0144567Y0172710D01*
X0144567Y0172926D02*
X0145601Y0172926D01*
X0145601Y0173142D02*
X0144567Y0173142D01*
X0141418Y0173278D02*
X0141418Y0170118D01*
X0141418Y0173278D02*
X0142452Y0173278D01*
X0142452Y0170118D01*
X0141418Y0170118D01*
X0141418Y0170334D02*
X0142452Y0170334D01*
X0142452Y0170550D02*
X0141418Y0170550D01*
X0141418Y0170766D02*
X0142452Y0170766D01*
X0142452Y0170982D02*
X0141418Y0170982D01*
X0141418Y0171198D02*
X0142452Y0171198D01*
X0142452Y0171414D02*
X0141418Y0171414D01*
X0141418Y0171630D02*
X0142452Y0171630D01*
X0142452Y0171846D02*
X0141418Y0171846D01*
X0141418Y0172062D02*
X0142452Y0172062D01*
X0142452Y0172278D02*
X0141418Y0172278D01*
X0141418Y0172494D02*
X0142452Y0172494D01*
X0142452Y0172710D02*
X0141418Y0172710D01*
X0141418Y0172926D02*
X0142452Y0172926D01*
X0142452Y0173142D02*
X0141418Y0173142D01*
X0138268Y0173278D02*
X0138268Y0170118D01*
X0138268Y0173278D02*
X0139302Y0173278D01*
X0139302Y0170118D01*
X0138268Y0170118D01*
X0138268Y0170334D02*
X0139302Y0170334D01*
X0139302Y0170550D02*
X0138268Y0170550D01*
X0138268Y0170766D02*
X0139302Y0170766D01*
X0139302Y0170982D02*
X0138268Y0170982D01*
X0138268Y0171198D02*
X0139302Y0171198D01*
X0139302Y0171414D02*
X0138268Y0171414D01*
X0138268Y0171630D02*
X0139302Y0171630D01*
X0139302Y0171846D02*
X0138268Y0171846D01*
X0138268Y0172062D02*
X0139302Y0172062D01*
X0139302Y0172278D02*
X0138268Y0172278D01*
X0138268Y0172494D02*
X0139302Y0172494D01*
X0139302Y0172710D02*
X0138268Y0172710D01*
X0138268Y0172926D02*
X0139302Y0172926D01*
X0139302Y0173142D02*
X0138268Y0173142D01*
X0147717Y0173278D02*
X0147717Y0170118D01*
X0147717Y0173278D02*
X0148751Y0173278D01*
X0148751Y0170118D01*
X0147717Y0170118D01*
X0147717Y0170334D02*
X0148751Y0170334D01*
X0148751Y0170550D02*
X0147717Y0170550D01*
X0147717Y0170766D02*
X0148751Y0170766D01*
X0148751Y0170982D02*
X0147717Y0170982D01*
X0147717Y0171198D02*
X0148751Y0171198D01*
X0148751Y0171414D02*
X0147717Y0171414D01*
X0147717Y0171630D02*
X0148751Y0171630D01*
X0148751Y0171846D02*
X0147717Y0171846D01*
X0147717Y0172062D02*
X0148751Y0172062D01*
X0148751Y0172278D02*
X0147717Y0172278D01*
X0147717Y0172494D02*
X0148751Y0172494D01*
X0148751Y0172710D02*
X0147717Y0172710D01*
X0147717Y0172926D02*
X0148751Y0172926D01*
X0148751Y0173142D02*
X0147717Y0173142D01*
X0150866Y0173278D02*
X0150866Y0170118D01*
X0150866Y0173278D02*
X0151900Y0173278D01*
X0151900Y0170118D01*
X0150866Y0170118D01*
X0150866Y0170334D02*
X0151900Y0170334D01*
X0151900Y0170550D02*
X0150866Y0170550D01*
X0150866Y0170766D02*
X0151900Y0170766D01*
X0151900Y0170982D02*
X0150866Y0170982D01*
X0150866Y0171198D02*
X0151900Y0171198D01*
X0151900Y0171414D02*
X0150866Y0171414D01*
X0150866Y0171630D02*
X0151900Y0171630D01*
X0151900Y0171846D02*
X0150866Y0171846D01*
X0150866Y0172062D02*
X0151900Y0172062D01*
X0151900Y0172278D02*
X0150866Y0172278D01*
X0150866Y0172494D02*
X0151900Y0172494D01*
X0151900Y0172710D02*
X0150866Y0172710D01*
X0150866Y0172926D02*
X0151900Y0172926D01*
X0151900Y0173142D02*
X0150866Y0173142D01*
X0151900Y0158042D02*
X0151900Y0154882D01*
X0150866Y0154882D01*
X0150866Y0158042D01*
X0151900Y0158042D01*
X0151900Y0155098D02*
X0150866Y0155098D01*
X0150866Y0155314D02*
X0151900Y0155314D01*
X0151900Y0155530D02*
X0150866Y0155530D01*
X0150866Y0155746D02*
X0151900Y0155746D01*
X0151900Y0155962D02*
X0150866Y0155962D01*
X0150866Y0156178D02*
X0151900Y0156178D01*
X0151900Y0156394D02*
X0150866Y0156394D01*
X0150866Y0156610D02*
X0151900Y0156610D01*
X0151900Y0156826D02*
X0150866Y0156826D01*
X0150866Y0157042D02*
X0151900Y0157042D01*
X0151900Y0157258D02*
X0150866Y0157258D01*
X0150866Y0157474D02*
X0151900Y0157474D01*
X0151900Y0157690D02*
X0150866Y0157690D01*
X0150866Y0157906D02*
X0151900Y0157906D01*
X0148751Y0158042D02*
X0148751Y0154882D01*
X0147717Y0154882D01*
X0147717Y0158042D01*
X0148751Y0158042D01*
X0148751Y0155098D02*
X0147717Y0155098D01*
X0147717Y0155314D02*
X0148751Y0155314D01*
X0148751Y0155530D02*
X0147717Y0155530D01*
X0147717Y0155746D02*
X0148751Y0155746D01*
X0148751Y0155962D02*
X0147717Y0155962D01*
X0147717Y0156178D02*
X0148751Y0156178D01*
X0148751Y0156394D02*
X0147717Y0156394D01*
X0147717Y0156610D02*
X0148751Y0156610D01*
X0148751Y0156826D02*
X0147717Y0156826D01*
X0147717Y0157042D02*
X0148751Y0157042D01*
X0148751Y0157258D02*
X0147717Y0157258D01*
X0147717Y0157474D02*
X0148751Y0157474D01*
X0148751Y0157690D02*
X0147717Y0157690D01*
X0147717Y0157906D02*
X0148751Y0157906D01*
X0145601Y0158042D02*
X0145601Y0154882D01*
X0144567Y0154882D01*
X0144567Y0158042D01*
X0145601Y0158042D01*
X0145601Y0155098D02*
X0144567Y0155098D01*
X0144567Y0155314D02*
X0145601Y0155314D01*
X0145601Y0155530D02*
X0144567Y0155530D01*
X0144567Y0155746D02*
X0145601Y0155746D01*
X0145601Y0155962D02*
X0144567Y0155962D01*
X0144567Y0156178D02*
X0145601Y0156178D01*
X0145601Y0156394D02*
X0144567Y0156394D01*
X0144567Y0156610D02*
X0145601Y0156610D01*
X0145601Y0156826D02*
X0144567Y0156826D01*
X0144567Y0157042D02*
X0145601Y0157042D01*
X0145601Y0157258D02*
X0144567Y0157258D01*
X0144567Y0157474D02*
X0145601Y0157474D01*
X0145601Y0157690D02*
X0144567Y0157690D01*
X0144567Y0157906D02*
X0145601Y0157906D01*
X0142452Y0158042D02*
X0142452Y0154882D01*
X0141418Y0154882D01*
X0141418Y0158042D01*
X0142452Y0158042D01*
X0142452Y0155098D02*
X0141418Y0155098D01*
X0141418Y0155314D02*
X0142452Y0155314D01*
X0142452Y0155530D02*
X0141418Y0155530D01*
X0141418Y0155746D02*
X0142452Y0155746D01*
X0142452Y0155962D02*
X0141418Y0155962D01*
X0141418Y0156178D02*
X0142452Y0156178D01*
X0142452Y0156394D02*
X0141418Y0156394D01*
X0141418Y0156610D02*
X0142452Y0156610D01*
X0142452Y0156826D02*
X0141418Y0156826D01*
X0141418Y0157042D02*
X0142452Y0157042D01*
X0142452Y0157258D02*
X0141418Y0157258D01*
X0141418Y0157474D02*
X0142452Y0157474D01*
X0142452Y0157690D02*
X0141418Y0157690D01*
X0141418Y0157906D02*
X0142452Y0157906D01*
X0139302Y0158042D02*
X0139302Y0154882D01*
X0138268Y0154882D01*
X0138268Y0158042D01*
X0139302Y0158042D01*
X0139302Y0155098D02*
X0138268Y0155098D01*
X0138268Y0155314D02*
X0139302Y0155314D01*
X0139302Y0155530D02*
X0138268Y0155530D01*
X0138268Y0155746D02*
X0139302Y0155746D01*
X0139302Y0155962D02*
X0138268Y0155962D01*
X0138268Y0156178D02*
X0139302Y0156178D01*
X0139302Y0156394D02*
X0138268Y0156394D01*
X0138268Y0156610D02*
X0139302Y0156610D01*
X0139302Y0156826D02*
X0138268Y0156826D01*
X0138268Y0157042D02*
X0139302Y0157042D01*
X0139302Y0157258D02*
X0138268Y0157258D01*
X0138268Y0157474D02*
X0139302Y0157474D01*
X0139302Y0157690D02*
X0138268Y0157690D01*
X0138268Y0157906D02*
X0139302Y0157906D01*
D18*
X0119297Y0208293D03*
X0171305Y0208293D03*
D19*
X0163509Y0121482D03*
X0158588Y0121482D03*
X0158588Y0114986D03*
X0163509Y0114986D03*
D20*
X0152191Y0114887D03*
X0152191Y0121580D03*
X0137919Y0097466D03*
X0137919Y0090773D03*
D21*
X0140519Y0128706D03*
X0135319Y0128706D03*
X0135319Y0136306D03*
X0137919Y0136306D03*
X0140519Y0136306D03*
X0124771Y0136306D03*
X0122171Y0136306D03*
X0119571Y0136306D03*
X0119571Y0128706D03*
X0124771Y0128706D03*
D22*
X0130045Y0142348D03*
X0130045Y0148254D03*
X0145793Y0148254D03*
X0145793Y0142348D03*
D23*
X0105439Y0057899D03*
X0105439Y0049631D03*
D24*
X0160852Y0091167D03*
X0160852Y0095104D03*
X0166167Y0095104D03*
X0166167Y0091167D03*
D25*
X0169100Y0070006D03*
X0173667Y0070006D03*
D26*
X0155084Y0070694D03*
X0155084Y0069120D03*
X0155084Y0067545D03*
X0155084Y0065970D03*
X0155084Y0064395D03*
X0155084Y0062820D03*
X0155084Y0072269D03*
X0155084Y0073844D03*
X0155084Y0075419D03*
X0155084Y0076994D03*
X0155084Y0078569D03*
X0155084Y0080143D03*
X0132565Y0080143D03*
X0132565Y0078569D03*
X0132565Y0076994D03*
X0132565Y0075419D03*
X0132565Y0073844D03*
X0132565Y0072269D03*
X0132565Y0070694D03*
X0132565Y0069120D03*
X0132565Y0067545D03*
X0132565Y0065970D03*
X0132565Y0064395D03*
X0132565Y0062820D03*
D27*
X0135163Y0060222D03*
X0136738Y0060222D03*
X0138313Y0060222D03*
X0139887Y0060222D03*
X0141462Y0060222D03*
X0143037Y0060222D03*
X0144612Y0060222D03*
X0146187Y0060222D03*
X0147761Y0060222D03*
X0149336Y0060222D03*
X0150911Y0060222D03*
X0152486Y0060222D03*
X0152486Y0082742D03*
X0150911Y0082742D03*
X0149336Y0082742D03*
X0147761Y0082742D03*
X0146187Y0082742D03*
X0144612Y0082742D03*
X0143037Y0082742D03*
X0141462Y0082742D03*
X0139887Y0082742D03*
X0138313Y0082742D03*
X0136738Y0082742D03*
X0135163Y0082742D03*
D28*
X0139297Y0076009D03*
X0148352Y0076009D03*
X0148352Y0066954D03*
X0139297Y0066954D03*
D29*
X0172958Y0057702D03*
X0184572Y0057702D03*
D30*
X0178765Y0063706D03*
D31*
X0147525Y0177584D02*
X0146029Y0177584D01*
X0146029Y0179159D02*
X0147525Y0179159D01*
X0147565Y0181029D02*
X0147565Y0182013D01*
X0145990Y0182013D02*
X0145990Y0181029D01*
X0142643Y0181029D02*
X0142643Y0182013D01*
X0141069Y0182013D02*
X0141069Y0181029D01*
X0141108Y0179159D02*
X0142604Y0179159D01*
X0142604Y0177584D02*
X0141108Y0177584D01*
D32*
X0141069Y0183883D03*
X0142643Y0183883D03*
X0145990Y0183883D03*
X0147565Y0183883D03*
D33*
X0132013Y0095990D03*
X0132013Y0090281D03*
M02*
